<?xml version="1.0" encoding="utf-8"?>
<!-- Generator: Adobe Illustrator 16.0.3, SVG Export Plug-In . SVG Version: 6.00 Build 0)  -->
<!DOCTYPE svg PUBLIC "-//W3C//DTD SVG 1.1//EN" "http://www.w3.org/Graphics/SVG/1.1/DTD/svg11.dtd">
<svg version="1.1" id="Layer_1" xmlns="http://www.w3.org/2000/svg" xmlns:xlink="http://www.w3.org/1999/xlink" x="0px" y="0px"
	 width="500px" height="320px" viewBox="0 0 500 320" enable-background="new 0 0 500 320" xml:space="preserve">
<g>
	<path fill-rule="evenodd" clip-rule="evenodd" d="M129.611,105c3.334,0.821,6.729,1.458,9.991,2.505
		c5.584,1.79,10.521,4.76,14.84,8.931c-2.931,2.584-5.79,5.105-8.849,7.803c-5.132-4.629-12.137-7.504-20.163-7.555
		c-17.68-0.112-31.237,14.465-30.631,32.833c0.556,16.824,15.435,30.116,32.469,29.006c13.306-0.868,22.243-7.519,25.177-18.78
		c0.325-1.249,0.451-2.548,0.742-4.243c-9.411,0-18.508,0-27.709,0c0-4.002,0-7.625,0-11.432c0.892-0.084,1.671-0.22,2.45-0.221
		c11.399-0.009,22.799,0.001,34.198,0c1.32,0,2.659-0.276,2.882,1.738c1.657,15.03-2.923,30.033-17.078,38.757
		c-18.793,11.584-45.167,6.011-57.924-12.163c-3.969-5.655-6.659-11.838-7.536-18.747c-0.061-0.474-0.346-0.919-0.526-1.378
		c0-3.056,0-6.111,0-9.167c0.175-0.35,0.444-0.682,0.512-1.051c3.345-18.184,14.023-29.822,31.554-35.308
		c2.099-0.657,4.287-1.027,6.434-1.53C123.5,105,126.556,105,129.611,105z"/>
	<path fill-rule="evenodd" clip-rule="evenodd" d="M312.333,215c-2.946-1.014-6.038-1.734-8.811-3.104
		c-5.573-2.752-9.335-7.343-12.073-13.124c3.468-1.461,6.811-2.87,10.446-4.402c2.357,4.558,5.558,8.493,10.875,9.245
		c2.997,0.424,6.429,0.311,9.214-0.749c8.535-3.25,8.673-10.824,8.596-18.34c-0.266-0.047-0.564-0.176-0.631-0.101
		c-7.892,8.975-24.442,7.494-33.596-2.991c-6.827-7.818-8.842-16.917-5.758-26.735c3.153-10.039,9.994-16.655,20.517-18.771
		c7.054-1.419,13.536,0.024,19.248,5.592c0.145-1.617,0.253-2.824,0.376-4.207c3.701,0,7.321,0,11.409,0c0,1.14,0,2.21,0,3.28
		c0.004,14.448,0.185,28.9-0.087,43.345c-0.093,5.016-0.686,10.199-2.139,14.978c-2.726,8.959-9.286,14.011-18.53,15.552
		c-0.588,0.098-1.149,0.353-1.723,0.534C317.222,215,314.778,215,312.333,215z M331.352,162.891
		c0.006-8.551-5.134-15.296-12.514-16.421c-8.64-1.318-15.967,4.794-17.345,14.469c-1.633,11.467,8.562,21.03,19.121,17.937
		C327.222,176.938,331.346,170.799,331.352,162.891z"/>
	<path fill-rule="evenodd" clip-rule="evenodd" d="M418.056,156.333c-4.243,1.633-8.51,3.202-12.721,4.912
		c-7.989,3.245-15.947,6.57-23.909,9.858c3.321,9.076,18.155,12.672,26.771,0.893c3.07,2.018,6.156,4.046,9.238,6.071
		c-5.749,9.308-17.895,14.114-28.841,11.564c-11.521-2.685-19.535-11.558-20.709-22.76c-0.925-8.812,0.764-16.839,6.953-23.476
		c11.979-12.848,32.271-9.877,40.228,5.828c0.994,1.963,1.992,3.925,2.989,5.887C418.056,155.519,418.056,155.926,418.056,156.333z
		 M403.662,151.841c-2.985-5.348-8.725-7.097-14.584-4.956c-5.071,1.853-11.157,9.052-9.371,14.955
		C387.635,158.531,395.547,155.228,403.662,151.841z"/>
	<path fill-rule="evenodd" clip-rule="evenodd" d="M169.125,162.532c0.069-15.405,12.055-27.076,27.763-27.034
		c15.851,0.043,27.516,11.783,27.442,27.62c-0.071,15.411-12.282,27.378-27.709,27.156
		C180.817,190.045,169.055,178.179,169.125,162.532z M212.182,162.819c0-9.457-6.639-16.606-15.388-16.572
		c-8.829,0.034-15.572,7.149-15.597,16.46c-0.026,9.454,6.826,16.824,15.638,16.818
		C205.478,179.521,212.183,172.222,212.182,162.819z"/>
	<path fill-rule="evenodd" clip-rule="evenodd" d="M284.3,162.703c0.075,15.68-11.536,27.395-27.28,27.521
		c-15.57,0.127-27.738-11.736-27.823-27.125c-0.086-15.71,11.755-27.562,27.568-27.594
		C272.596,135.473,284.225,146.96,284.3,162.703z M241.317,162.761c-0.069,9.355,6.54,16.587,15.316,16.761
		c8.563,0.169,15.552-7.152,15.691-16.443c0.144-9.513-6.61-16.832-15.512-16.81C247.958,146.29,241.387,153.283,241.317,162.761z"
		/>
	<path fill-rule="evenodd" clip-rule="evenodd" d="M362.021,188.559c-4.057,0-7.794,0-11.715,0c0-26.832,0-53.537,0-80.425
		c3.887,0,7.704,0,11.715,0C362.021,134.897,362.021,161.609,362.021,188.559z"/>
</g>
</svg>
