<?xml version="1.0" encoding="utf-8"?>
<!-- Generator: Adobe Illustrator 16.0.3, SVG Export Plug-In . SVG Version: 6.00 Build 0)  -->
<!DOCTYPE svg PUBLIC "-//W3C//DTD SVG 1.1//EN" "http://www.w3.org/Graphics/SVG/1.1/DTD/svg11.dtd">
<svg version="1.1" id="Layer_1" xmlns="http://www.w3.org/2000/svg" xmlns:xlink="http://www.w3.org/1999/xlink" x="0px" y="0px"
	 width="729px" height="538px" viewBox="0 0 729 538" enable-background="new 0 0 729 538" xml:space="preserve">
<g>
	<rect x="199.216" y="181.353" fill="none" width="150.622" height="12.296"/>
	<text transform="matrix(1 0 0 1 213.3809 189.9736)" fill="#FFFFFF" font-family="'ApercuPro'" font-size="12.1771">economic uncertainty</text>
	<rect x="198.5" y="163.5" fill="none" stroke="#FFFFFF" stroke-miterlimit="10" width="151" height="48"/>
	<rect x="199.1" y="336.99" fill="none" width="151.123" height="26.998"/>
	<text transform="matrix(1 0 0 1 218.7988 345.6113)"><tspan x="0" y="0" fill="#FFFFFF" font-family="'ApercuPro'" font-size="12.1771">inefficiencies within</tspan><tspan x="23.459" y="14.612" fill="#FFFFFF" font-family="'ApercuPro'" font-size="12.1771">current use</tspan></text>
	<rect x="198.5" y="325.5" fill="none" stroke="#FFFFFF" stroke-miterlimit="10" width="151" height="48"/>
	<rect x="380.1" y="417.99" fill="none" width="151.123" height="26.998"/>
	<text transform="matrix(1 0 0 1 404.4395 426.6113)"><tspan x="0" y="0" fill="#FFFFFF" font-family="'ApercuPro'" font-size="12.1771">new opportunities</tspan><tspan x="8.645" y="14.612" fill="#FFFFFF" font-family="'ApercuPro'" font-size="12.1771">to deliver value</tspan></text>
	<rect x="381.5" y="406.5" fill="none" stroke="#FFFFFF" stroke-miterlimit="10" width="149" height="48"/>
	<rect x="563.1" y="344.99" fill="none" width="151.123" height="26.998"/>
	<text transform="matrix(1 0 0 1 580.4121 353.6113)" fill="#FFFFFF" font-family="'ApercuPro'" font-size="12.1771">hardware bottleneck</text>
	<rect x="562.5" y="325.5" fill="none" stroke="#FFFFFF" stroke-miterlimit="10" width="151" height="48"/>
	<rect x="288" y="245" fill="#FFFFFF" width="152" height="48"/>
	<rect x="287.969" y="265.319" fill="none" width="152.219" height="9.948"/>
	<text transform="matrix(1 0 0 1 338.792 273.9404)" font-family="'ApercuPro'" font-size="12.1771">solution?</text>
	<g>
		<path fill="none" d="M363.88,293.431"/>
	</g>
	<g>
		<path fill="none" d="M272.88,324.744"/>
	</g>
	<rect x="563.216" y="181.353" fill="none" width="150.622" height="12.296"/>
	<text transform="matrix(1 0 0 1 576.0586 189.9736)" fill="#FFFFFF" font-family="'ApercuPro'" font-size="12.1771">changing role of office</text>
	<rect x="562.5" y="163.5" fill="none" stroke="#FFFFFF" stroke-miterlimit="10" width="151" height="48"/>
	<rect x="563.216" y="264.353" fill="none" width="150.622" height="12.296"/>
	<text transform="matrix(1 0 0 1 580.1387 272.9736)" fill="#FFFFFF" font-family="'ApercuPro'" font-size="12.1771">unmet clients’ needs</text>
	<rect x="562.5" y="246.5" fill="none" stroke="#FFFFFF" stroke-miterlimit="10" width="151" height="48"/>
	<g>
		<g>
			<polyline fill="none" stroke="#FFFFFF" stroke-miterlimit="10" points="636.5,212 636.5,228.5 397.5,228.5 397.5,236 			"/>
			<g>
				<polygon fill="#FFFFFF" points="395.095,234 398,244.841 400.905,234 				"/>
			</g>
		</g>
	</g>
	<rect x="199.216" y="421.353" fill="none" width="150.622" height="25.263"/>
	<text transform="matrix(1 0 0 1 230.666 429.9736)"><tspan x="0" y="0" fill="#FFFFFF" font-family="'ApercuPro'" font-size="12.1771">inefficiencies in </tspan><tspan x="9.954" y="14.612" fill="#FFFFFF" font-family="'ApercuPro'" font-size="12.1771">space usage</tspan></text>
	<rect x="198.5" y="407.5" fill="none" stroke="#FFFFFF" stroke-miterlimit="10" width="151" height="48"/>
	<rect x="199.216" y="99.353" fill="none" width="150.622" height="12.296"/>
	<text transform="matrix(1 0 0 1 218.5312 107.9736)" fill="#FFFFFF" font-family="'ApercuPro'" font-size="12.1771">political uncertainty</text>
	<rect x="198.5" y="81.5" fill="none" stroke="#FFFFFF" stroke-miterlimit="10" width="151" height="48"/>
	<rect x="15.216" y="14.052" fill="none" width="150.622" height="24.897"/>
	<text transform="matrix(1 0 0 1 39.1338 22.6729)"><tspan x="0" y="0" fill="#FFFFFF" font-family="'ApercuPro'" font-size="12.1771">outdated business</tspan><tspan x="18.253" y="14.612" fill="#FFFFFF" font-family="'ApercuPro'" font-size="12.1771">logic in CRE</tspan></text>
	<rect x="14.5" y="0.5" fill="none" stroke="#FFFFFF" stroke-miterlimit="10" width="151" height="48"/>
	<rect x="15.216" y="421.052" fill="none" width="150.622" height="24.897"/>
	<text transform="matrix(1 0 0 1 37.4414 429.6729)"><tspan x="0" y="0" fill="#FFFFFF" font-family="'ApercuPro'" font-size="12.1771">trying to anticipate</tspan><tspan x="24.713" y="14.612" fill="#FFFFFF" font-family="'ApercuPro'" font-size="12.1771">the future</tspan></text>
	<rect x="14.5" y="407.5" fill="none" stroke="#FFFFFF" stroke-miterlimit="10" width="151" height="48"/>
	<rect x="15.216" y="503.052" fill="none" width="150.622" height="24.897"/>
	<text transform="matrix(1 0 0 1 60.1582 511.6729)"><tspan x="0" y="0" fill="#FFFFFF" font-family="'ApercuPro'" font-size="12.1771">black swan</tspan><tspan x="12.152" y="14.612" fill="#FFFFFF" font-family="'ApercuPro'" font-size="12.1771">events</tspan></text>
	<rect x="14.5" y="489.5" fill="none" stroke="#FFFFFF" stroke-miterlimit="10" width="151" height="48"/>
	<rect x="15.216" y="339.052" fill="none" width="150.622" height="24.897"/>
	<text transform="matrix(1 0 0 1 55.3418 347.6729)"><tspan x="0" y="0" fill="#FFFFFF" font-family="'ApercuPro'" font-size="12.1771">conservative</tspan><tspan x="14.886" y="14.612" fill="#FFFFFF" font-family="'ApercuPro'" font-size="12.1771">models</tspan></text>
	<rect x="14.5" y="325.5" fill="none" stroke="#FFFFFF" stroke-miterlimit="10" width="151" height="48"/>
	<rect x="15.216" y="258.052" fill="none" width="150.622" height="24.897"/>
	<text transform="matrix(1 0 0 1 61.0957 266.6729)"><tspan x="0" y="0" fill="#FFFFFF" font-family="'ApercuPro'" font-size="12.1771">limitations</tspan><tspan x="-2.18" y="14.612" fill="#FFFFFF" font-family="'ApercuPro'" font-size="12.1771">of business</tspan></text>
	<rect x="14.5" y="244.5" fill="none" stroke="#FFFFFF" stroke-miterlimit="10" width="151" height="48"/>
	<rect x="15.216" y="95.052" fill="none" width="150.622" height="24.897"/>
	<text transform="matrix(1 0 0 1 43.5967 103.6729)"><tspan x="0" y="0" fill="#FFFFFF" font-family="'ApercuPro'" font-size="12.1771">broken incentive </tspan><tspan x="29.438" y="14.612" fill="#FFFFFF" font-family="'ApercuPro'" font-size="12.1771">model</tspan></text>
	<rect x="14.5" y="81.5" fill="none" stroke="#FFFFFF" stroke-miterlimit="10" width="151" height="48"/>
	<rect x="15.216" y="177.052" fill="none" width="150.622" height="24.897"/>
	<text transform="matrix(1 0 0 1 28.3027 185.6729)"><tspan x="0" y="0" fill="#FFFFFF" font-family="'ApercuPro'" font-size="12.1771">values of stakeholders</tspan><tspan x="31.137" y="14.612" fill="#FFFFFF" font-family="'ApercuPro'" font-size="12.1771">not aligned</tspan></text>
	<rect x="14.5" y="163.5" fill="none" stroke="#FFFFFF" stroke-miterlimit="10" width="151" height="48"/>
	<rect x="199.216" y="13.052" fill="none" width="150.622" height="24.897"/>
	<text transform="matrix(1 0 0 1 245.2354 21.6729)"><tspan x="0" y="0" fill="#FFFFFF" font-family="'ApercuPro'" font-size="12.1771">status quo</tspan><tspan x="-11.3" y="14.612" fill="#FFFFFF" font-family="'ApercuPro'" font-size="12.1771">from investors</tspan></text>
	<rect x="198.5" y="0.5" fill="none" stroke="#FFFFFF" stroke-miterlimit="10" width="151" height="48"/>
	<g>
		<g>
			<line fill="none" stroke="#FFFFFF" stroke-miterlimit="10" x1="272.5" y1="130" x2="272.5" y2="155"/>
			<g>
				<polygon fill="#FFFFFF" points="269.975,153 272.88,163.841 275.785,153 				"/>
			</g>
		</g>
	</g>
	<g>
		<g>
			<line fill="none" stroke="#FFFFFF" stroke-miterlimit="10" x1="272.5" y1="82" x2="272.5" y2="57"/>
			<g>
				<polygon fill="#FFFFFF" points="275.784,59 272.879,48.159 269.974,59 				"/>
			</g>
		</g>
	</g>
	<g>
		<g>
			<line fill="none" stroke="#FFFFFF" stroke-miterlimit="10" x1="455.5" y1="49" x2="455.5" y2="73"/>
			<g>
				<polygon fill="#FFFFFF" points="452.975,71 455.88,81.841 458.785,71 				"/>
			</g>
		</g>
	</g>
	<g>
		<g>
			<line fill="none" stroke="#FFFFFF" stroke-miterlimit="10" x1="90.5" y1="49" x2="90.5" y2="73"/>
			<g>
				<polygon fill="#FFFFFF" points="87.975,71 90.88,81.841 93.785,71 				"/>
			</g>
		</g>
	</g>
	<g>
		<g>
			<line fill="none" stroke="#FFFFFF" stroke-miterlimit="10" x1="90.5" y1="130" x2="90.5" y2="154"/>
			<g>
				<polygon fill="#FFFFFF" points="87.975,152 90.88,162.841 93.785,152 				"/>
			</g>
		</g>
	</g>
	<g>
		<g>
			<line fill="none" stroke="#FFFFFF" stroke-miterlimit="10" x1="90.5" y1="220" x2="90.5" y2="236"/>
			<g>
				<polygon fill="#FFFFFF" points="87.975,222 90.88,211.159 93.785,222 				"/>
			</g>
			<g>
				<polygon fill="#FFFFFF" points="87.975,234 90.88,244.841 93.785,234 				"/>
			</g>
		</g>
	</g>
	<g>
		<g>
			<line fill="none" stroke="#FFFFFF" stroke-miterlimit="10" x1="90.5" y1="301" x2="90.5" y2="317"/>
			<g>
				<polygon fill="#FFFFFF" points="87.975,303 90.88,292.159 93.785,303 				"/>
			</g>
			<g>
				<polygon fill="#FFFFFF" points="87.975,315 90.88,325.841 93.785,315 				"/>
			</g>
		</g>
	</g>
	<g>
		<g>
			<line fill="none" stroke="#FFFFFF" stroke-miterlimit="10" x1="90.5" y1="375" x2="90.5" y2="399"/>
			<g>
				<polygon fill="#FFFFFF" points="87.975,397 90.88,407.841 93.785,397 				"/>
			</g>
		</g>
	</g>
	<g>
		<g>
			<line fill="none" stroke="#FFFFFF" stroke-miterlimit="10" x1="272.5" y1="408" x2="272.5" y2="383"/>
			<g>
				<polygon fill="#FFFFFF" points="275.784,385 272.879,374.159 269.974,385 				"/>
			</g>
		</g>
	</g>
	<g>
		<g>
			<line fill="none" stroke="#FFFFFF" stroke-miterlimit="10" x1="319.5" y1="325" x2="319.5" y2="302"/>
			<g>
				<polygon fill="#FFFFFF" points="322.874,304 319.969,293.159 317.063,304 				"/>
			</g>
		</g>
	</g>
	<g>
		<g>
			<line fill="none" stroke="#FFFFFF" stroke-miterlimit="10" x1="319.5" y1="212" x2="319.5" y2="235"/>
			<g>
				<polygon fill="#FFFFFF" points="317.063,233 319.969,243.841 322.874,233 				"/>
			</g>
		</g>
	</g>
	<g>
		<g>
			<line fill="none" stroke="#FFFFFF" stroke-miterlimit="10" x1="90.5" y1="456" x2="90.5" y2="480"/>
			<g>
				<polygon fill="#FFFFFF" points="87.975,478 90.88,488.841 93.785,478 				"/>
			</g>
		</g>
	</g>
	<g>
		<g>
			<line fill="none" stroke="#FFFFFF" stroke-miterlimit="10" x1="165" y1="440.5" x2="190" y2="440.5"/>
			<g>
				<polygon fill="#FFFFFF" points="188,442.905 198.841,440 188,437.095 				"/>
			</g>
		</g>
	</g>
	<g>
		<g>
			<line fill="none" stroke="#FFFFFF" stroke-miterlimit="10" x1="349" y1="440.5" x2="373" y2="440.5"/>
			<g>
				<polygon fill="#FFFFFF" points="371,442.905 381.841,440 371,437.095 				"/>
			</g>
		</g>
	</g>
	<g>
		<g>
			<line fill="none" stroke="#FFFFFF" stroke-miterlimit="10" x1="165" y1="278.5" x2="279" y2="278.5"/>
			<g>
				<polygon fill="#FFFFFF" points="277,280.905 287.841,278 277,275.095 				"/>
			</g>
		</g>
	</g>
	<g>
		<g>
			<line fill="none" stroke="#FFFFFF" stroke-miterlimit="10" x1="165" y1="344.5" x2="190" y2="344.5"/>
			<g>
				<polygon fill="#FFFFFF" points="188,346.905 198.841,344 188,341.095 				"/>
			</g>
		</g>
	</g>
	<g>
		<g>
			<line fill="none" stroke="#FFFFFF" stroke-miterlimit="10" x1="190" y1="25.5" x2="174" y2="25.5"/>
			<g>
				<polygon fill="#FFFFFF" points="188,22.097 198.841,25.002 188,27.907 				"/>
			</g>
			<g>
				<polygon fill="#FFFFFF" points="176,22.097 165.159,25.002 176,27.907 				"/>
			</g>
		</g>
	</g>
	<rect x="381.216" y="92.479" fill="none" width="150.622" height="26.043"/>
	<text transform="matrix(1 0 0 1 418.9551 101.0996)"><tspan x="0" y="0" fill="#FFFFFF" font-family="'ApercuPro'" font-size="12.1771">technological</tspan><tspan x="8.713" y="14.612" fill="#FFFFFF" font-family="'ApercuPro'" font-size="12.1771">disruption</tspan></text>
	<rect x="380.5" y="81.5" fill="none" stroke="#FFFFFF" stroke-miterlimit="10" width="151" height="48"/>
	<rect x="380.216" y="11.479" fill="none" width="150.622" height="26.043"/>
	<text transform="matrix(1 0 0 1 417.9551 20.0996)"><tspan x="0" y="0" fill="#FFFFFF" font-family="'ApercuPro'" font-size="12.1771">technological</tspan><tspan x="13.169" y="14.612" fill="#FFFFFF" font-family="'ApercuPro'" font-size="12.1771">progress</tspan></text>
	<rect x="379.5" y="0.5" fill="none" stroke="#FFFFFF" stroke-miterlimit="10" width="151" height="48"/>
	<g>
		<path fill="none" d="M454.88,129.538"/>
	</g>
	<rect x="563.216" y="93.479" fill="none" width="150.622" height="26.043"/>
	<text transform="matrix(1 0 0 1 567.0117 102.0996)"><tspan x="0" y="0" fill="#FFFFFF" font-family="'ApercuPro'" font-size="12.1771">changing needs, values of</tspan><tspan x="7.008" y="14.612" fill="#FFFFFF" font-family="'ApercuPro'" font-size="12.1771">employees and tenants</tspan></text>
	<rect x="562.5" y="82.5" fill="none" stroke="#FFFFFF" stroke-miterlimit="10" width="151" height="48"/>
	<g>
		<g>
			<line fill="none" stroke="#FFFFFF" stroke-miterlimit="10" x1="636.5" y1="131" x2="636.5" y2="155"/>
			<g>
				<polygon fill="#FFFFFF" points="633.975,153 636.88,163.841 639.785,153 				"/>
			</g>
		</g>
	</g>
	<g>
		<g>
			<polyline fill="none" stroke="#FFFFFF" stroke-miterlimit="10" points="531,30.5 636.5,30.5 636.5,74 			"/>
			<g>
				<polygon fill="#FFFFFF" points="633.595,72 636.5,82.841 639.405,72 				"/>
			</g>
		</g>
	</g>
	<g>
		<g>
			<polyline fill="none" stroke="#FFFFFF" stroke-miterlimit="10" points="554,277.5 494.5,277.5 494.5,344.5 380.5,344.5 
				380.5,344.5 350,344.5 			"/>
			<g>
				<polygon fill="#FFFFFF" points="552,274.845 562.841,277.75 552,280.655 				"/>
			</g>
		</g>
	</g>
	<g>
		<g>
			<polyline fill="none" stroke="#FFFFFF" stroke-miterlimit="10" points="531,425.5 636.5,425.5 636.5,382 			"/>
			<g>
				<polygon fill="#FFFFFF" points="639.405,384 636.5,373.159 633.595,384 				"/>
			</g>
		</g>
	</g>
	<g>
		<g>
			<polyline fill="none" stroke="#FFFFFF" stroke-miterlimit="10" points="562,356.5 429.5,356.5 429.5,302 			"/>
			<g>
				<polygon fill="#FFFFFF" points="432.905,304 430,293.159 427.095,304 				"/>
			</g>
		</g>
	</g>
	<g>
		<g>
			<polyline fill="none" stroke="#FFFFFF" stroke-miterlimit="10" points="14,24.5 0.5,24.5 0.5,350.5 6,350.5 			"/>
			<g>
				<polygon fill="#FFFFFF" points="4,352.905 14.841,350 4,347.095 				"/>
			</g>
		</g>
	</g>
	<g>
		<g>
			<polyline fill="none" stroke="#FFFFFF" stroke-miterlimit="10" points="531,16.5 728.5,16.5 728.5,438.5 540,438.5 			"/>
			<g>
				<polygon fill="#FFFFFF" points="542,435.595 531.159,438.5 542,441.405 				"/>
			</g>
		</g>
	</g>
	<g>
		<g>
			<line fill="none" stroke="#FFFFFF" stroke-miterlimit="10" x1="359" y1="194.5" x2="553" y2="194.5"/>
			<g>
				<polygon fill="#FFFFFF" points="361,197.405 350.159,194.5 361,191.595 				"/>
			</g>
			<g>
				<polygon fill="#FFFFFF" points="551,197.405 561.841,194.5 551,191.595 				"/>
			</g>
		</g>
	</g>
	<line fill="none" stroke="#FFFFFF" stroke-miterlimit="10" x1="454.5" y1="130" x2="454.5" y2="194"/>
	<g>
		<g>
			<line fill="none" stroke="#FFFFFF" stroke-miterlimit="10" x1="6" y1="105.5" x2="1" y2="105.5"/>
			<g>
				<polygon fill="#FFFFFF" points="4,102.595 14.841,105.5 4,108.405 				"/>
			</g>
		</g>
	</g>
	<g>
		<g>
			<line fill="none" stroke="#FFFFFF" stroke-miterlimit="10" x1="6" y1="187.5" x2="1" y2="187.5"/>
			<g>
				<polygon fill="#FFFFFF" points="4,184.595 14.841,187.5 4,190.405 				"/>
			</g>
		</g>
	</g>
	<g>
		<g>
			<line fill="none" stroke="#FFFFFF" stroke-miterlimit="10" x1="6" y1="268.5" x2="1" y2="268.5"/>
			<g>
				<polygon fill="#FFFFFF" points="4,265.595 14.841,268.5 4,271.405 				"/>
			</g>
		</g>
	</g>
	<g>
		<g>
			<line fill="none" stroke="#FFFFFF" stroke-miterlimit="10" x1="562" y1="262.5" x2="449" y2="262.5"/>
			<g>
				<polygon fill="#FFFFFF" points="451,259.595 440.159,262.5 451,265.405 				"/>
			</g>
		</g>
	</g>
	<g>
		<g>
			<line fill="none" stroke="#FFFFFF" stroke-miterlimit="10" x1="409.5" y1="406" x2="409.5" y2="302"/>
			<g>
				<polygon fill="#FFFFFF" points="412.905,304 410,293.159 407.095,304 				"/>
			</g>
		</g>
	</g>
	<g>
		<g>
			<line fill="none" stroke="#FFFFFF" stroke-miterlimit="10" x1="637.5" y1="325" x2="637.5" y2="303"/>
			<g>
				<polygon fill="#FFFFFF" points="639.906,305 637.001,294.159 634.096,305 				"/>
			</g>
		</g>
	</g>
	<g>
		<g>
			<line fill="none" stroke="#FFFFFF" stroke-miterlimit="10" x1="675.5" y1="212" x2="675.5" y2="237"/>
			<g>
				<polygon fill="#FFFFFF" points="673.094,235 675.999,245.841 678.904,235 				"/>
			</g>
		</g>
	</g>
	<g>
		<g>
			<polyline fill="none" stroke="#FFFFFF" stroke-miterlimit="10" points="279,262.5 181.5,262.5 181.5,188.5 165,188.5 			"/>
			<g>
				<polygon fill="#FFFFFF" points="277,259.595 287.841,262.5 277,265.405 				"/>
			</g>
		</g>
	</g>
	<g>
		<g>
			<polyline fill="none" stroke="#FFFFFF" stroke-miterlimit="10" points="165,424.5 181.5,424.5 181.5,358.5 189,358.5 			"/>
			<g>
				<polygon fill="#FFFFFF" points="187,361.405 197.841,358.5 187,355.595 				"/>
			</g>
		</g>
	</g>
	<g>
		<g>
			<polyline fill="none" stroke="#FFFFFF" stroke-miterlimit="10" points="373,424.5 365.5,424.5 365.5,358.5 349,358.5 			"/>
			<g>
				<polygon fill="#FFFFFF" points="371,421.595 381.841,424.5 371,427.405 				"/>
			</g>
		</g>
	</g>
	<g>
		<g>
			<polyline fill="none" stroke="#FFFFFF" stroke-miterlimit="10" points="349,179.5 365.5,179.5 365.5,24.5 359,24.5 			"/>
			<g>
				<polygon fill="#FFFFFF" points="361,21.595 350.159,24.5 361,27.405 				"/>
			</g>
		</g>
	</g>
</g>
</svg>
