<?xml version="1.0" encoding="utf-8"?>
<!-- Generator: Adobe Illustrator 16.0.3, SVG Export Plug-In . SVG Version: 6.00 Build 0)  -->
<!DOCTYPE svg PUBLIC "-//W3C//DTD SVG 1.1//EN" "http://www.w3.org/Graphics/SVG/1.1/DTD/svg11.dtd">
<svg version="1.1" id="Layer_1" xmlns="http://www.w3.org/2000/svg" xmlns:xlink="http://www.w3.org/1999/xlink" x="0px" y="0px"
	 width="248.045px" height="363.935px" viewBox="0 0 248.045 363.935" enable-background="new 0 0 248.045 363.935"
	 xml:space="preserve">
<g>
	<rect x="38.53" y="92.95" fill="none" width="174.847" height="27.293"/>
	<text transform="matrix(1 0 0 1 87.1147 101.666)"><tspan x="0" y="0" fill="#FFFFFF" font-family="'ApercuPro'" font-size="12.3103">global trends,</tspan><tspan x="-40.027" y="14.772" fill="#FFFFFF" font-family="'ApercuPro'" font-size="12.3103">socio-economic tendencies</tspan></text>
	<rect x="33.5" y="79.5" fill="none" stroke="#FFFFFF" stroke-miterlimit="10" width="185" height="50"/>
	<rect x="38.53" y="248.061" fill="none" width="174.847" height="27.293"/>
	<text transform="matrix(1 0 0 1 92.9312 256.7764)"><tspan x="0" y="0" fill="#FFFFFF" font-family="'ApercuPro'" font-size="12.3103">technology,</tspan><tspan x="-20.508" y="14.772" fill="#FFFFFF" font-family="'ApercuPro'" font-size="12.3103">design possibilities</tspan></text>
	<rect x="33.5" y="234.5" fill="none" stroke="#FFFFFF" stroke-miterlimit="10" width="185" height="50"/>
	<rect x="11.447" y="16.626" fill="none" width="174.847" height="27.293"/>
	<text transform="matrix(1 0 0 1 45.8628 25.3418)"><tspan x="0" y="0" fill="#FFFFFF" font-family="'ApercuPro'" font-size="12.3103">business interests,</tspan><tspan x="-11.658" y="14.772" fill="#FFFFFF" font-family="'ApercuPro'" font-size="12.3103">business opportunities</tspan></text>
	<rect x="2.5" y="3.5" fill="none" stroke="#FFFFFF" stroke-miterlimit="10" width="189" height="49"/>
	<rect x="65.612" y="324.385" fill="none" width="174.848" height="27.293"/>
	<text transform="matrix(1 0 0 1 87.4043 333.1006)"><tspan x="0" y="0" fill="#FFFFFF" font-family="'ApercuPro'" font-size="12.3103">user needs and wishes,</tspan><tspan x="-4.832" y="14.772" fill="#FFFFFF" font-family="'ApercuPro'" font-size="12.3103">interests of stakeholders</tspan></text>
	<rect x="60.5" y="311.5" fill="none" stroke="#FFFFFF" stroke-miterlimit="10" width="185" height="49"/>
	<rect x="32" y="157" fill="#FFFFFF" width="186" height="49"/>
	<rect x="82.027" y="177.586" fill="none" width="87.853" height="10.058"/>
	<text transform="matrix(1 0 0 1 84.9053 186.3018)" font-family="'ApercuPro'" font-size="12.3103">area of inquiry</text>
	<g>
		<path fill="none" d="M124.744,206.005"/>
	</g>
	<g>
		<path fill="none" d="M124.744,229.395"/>
	</g>
	<g>
		<g>
			<line fill="none" stroke="#FFFFFF" stroke-miterlimit="10" x1="124.5" y1="130" x2="124.5" y2="148"/>
			<g>
				<polygon fill="#FFFFFF" points="121.838,146 124.744,156.841 127.649,146 				"/>
			</g>
		</g>
	</g>
	<g>
		<g>
			<line fill="none" stroke="#FFFFFF" stroke-miterlimit="10" x1="124.5" y1="215" x2="124.5" y2="234"/>
			<g>
				<polygon fill="#FFFFFF" points="121.838,217 124.744,206.159 127.649,217 				"/>
			</g>
		</g>
	</g>
	<g>
		<g>
			<polyline fill="none" stroke="#FFFFFF" stroke-miterlimit="10" points="227,182.5 245.5,182.5 245.5,361 			"/>
			<g>
				<polygon fill="#FFFFFF" points="229,184.905 218.159,182 229,179.095 				"/>
			</g>
		</g>
	</g>
	<g>
		<g>
			<line fill="none" stroke="#FFFFFF" stroke-miterlimit="10" x1="23" y1="182.5" x2="3" y2="182.5"/>
			<g>
				<polygon fill="#FFFFFF" points="21,179.095 31.841,182 21,184.905 				"/>
			</g>
		</g>
	</g>
	<line fill="none" stroke="#FFFFFF" stroke-miterlimit="10" x1="2.5" y1="4" x2="2.5" y2="183"/>
</g>
</svg>
