<?xml version="1.0" encoding="utf-8"?>
<!-- Generator: Adobe Illustrator 16.0.3, SVG Export Plug-In . SVG Version: 6.00 Build 0)  -->
<!DOCTYPE svg PUBLIC "-//W3C//DTD SVG 1.1//EN" "http://www.w3.org/Graphics/SVG/1.1/DTD/svg11.dtd">
<svg version="1.1" id="Layer_1" xmlns="http://www.w3.org/2000/svg" xmlns:xlink="http://www.w3.org/1999/xlink" x="0px" y="0px"
	 width="99.997px" height="30px" viewBox="0 -0.247 99.997 30" enable-background="new 0 -0.247 99.997 30" xml:space="preserve">
<g>
	<path d="M0,5.296V0h19.626v5.296h-6.693V23.2h-6.24V5.296H0z"/>
	<path d="M33.338,21.268c-1.559,1.613-3.747,2.42-6.562,2.42c-2.773,0-4.929-0.785-6.467-2.354
		c-1.538-1.571-2.307-3.772-2.307-6.613c0-2.881,0.785-5.117,2.355-6.709c1.57-1.592,3.753-2.389,6.547-2.389
		c2.773,0,4.929,0.785,6.467,2.356c1.538,1.57,2.307,3.774,2.307,6.612C35.678,17.429,34.898,19.652,33.338,21.268z M24.712,18.001
		c0.509,0.671,1.218,1.007,2.128,1.007c0.91,0,1.619-0.336,2.128-1.007c0.51-0.671,0.764-1.787,0.764-3.347
		s-0.254-2.675-0.764-3.346C28.459,10.636,27.75,10.3,26.84,10.3c-0.91,0-1.619,0.336-2.128,1.008
		c-0.51,0.671-0.764,1.787-0.764,3.346C23.948,16.214,24.202,17.33,24.712,18.001z"/>
	<path d="M50.073,21.283c-1.213,1.625-2.87,2.437-4.972,2.437c-2.188,0-3.872-0.769-5.053-2.307
		c-1.181-1.538-1.771-3.704-1.771-6.499c0-1.473,0.167-2.788,0.503-3.948c0.336-1.159,0.818-2.133,1.446-2.924
		s1.381-1.392,2.259-1.803c0.877-0.412,1.857-0.618,2.94-0.618c1.906,0,3.4,0.672,4.483,2.015V0h5.882v23.2h-5.719v-1.917H50.073z
		 M49.732,12.51c-0.12-0.52-0.288-0.932-0.505-1.235c-0.26-0.369-0.579-0.623-0.958-0.764C47.89,10.37,47.505,10.3,47.116,10.3
		c-0.866,0-1.565,0.325-2.096,0.975c-0.531,0.65-0.796,1.776-0.796,3.379c0,1.583,0.26,2.698,0.78,3.347
		c0.519,0.649,1.213,0.976,2.079,0.976c0.411,0,0.802-0.076,1.169-0.229c0.368-0.15,0.694-0.434,0.975-0.846
		c0.455-0.649,0.683-1.635,0.683-2.958v-0.487C49.91,13.68,49.851,13.03,49.732,12.51z"/>
	<path d="M69.375,21.348c-0.693,0.737-1.445,1.305-2.259,1.707c-0.812,0.4-1.781,0.602-2.908,0.602
		c-0.758,0-1.483-0.098-2.177-0.292c-0.694-0.195-1.305-0.505-1.836-0.929c-0.53-0.422-0.953-0.953-1.27-1.592
		c-0.312-0.639-0.471-1.414-0.471-2.322c0-1.041,0.211-1.912,0.634-2.616c0.423-0.703,1.002-1.276,1.738-1.721
		c0.734-0.445,1.604-0.769,2.6-0.975s2.068-0.341,3.219-0.406l2.564-0.13V11.99c0-0.845-0.205-1.43-0.617-1.755
		c-0.408-0.325-0.932-0.487-1.56-0.487c-1.345,0-2.112,0.563-2.31,1.689l-5.297-0.422c0.305-1.819,1.116-3.174,2.438-4.062
		c1.322-0.888,3.132-1.333,5.428-1.333c1.432,0,2.627,0.168,3.591,0.504c0.966,0.336,1.738,0.807,2.323,1.414
		s1.008,1.337,1.27,2.193c0.26,0.856,0.391,1.814,0.391,2.876V23.2h-5.491L69.375,21.348L69.375,21.348z M67.295,16.084
		c-1.234,0.064-2.074,0.271-2.52,0.618c-0.442,0.346-0.664,0.801-0.664,1.364c0,0.562,0.166,0.964,0.502,1.201
		c0.337,0.237,0.808,0.357,1.414,0.357c0.91,0,1.662-0.255,2.259-0.766c0.596-0.508,0.894-1.271,0.894-2.291v-0.584L67.295,16.084z"
		/>
	<path d="M85.816,15.662l2.988-9.521h6.107L88.09,23.266c-0.453,1.127-0.883,2.084-1.281,2.875c-0.4,0.791-0.853,1.437-1.352,1.935
		c-0.498,0.499-1.062,0.86-1.688,1.089c-0.627,0.229-1.397,0.341-2.31,0.341c-0.69,0-1.37-0.062-2.028-0.179
		c-0.662-0.119-1.272-0.268-1.836-0.438l0.877-4.258c0.303,0.064,0.629,0.125,0.976,0.18s0.672,0.082,0.975,0.082
		c0.542,0,1.013-0.138,1.413-0.408s0.73-0.784,0.991-1.543l0.356-1.039L76.199,6.14h6.367L85.816,15.662z"/>
	<path d="M93.973,18.705c0.161-0.395,0.383-0.729,0.662-1.004c0.281-0.275,0.613-0.487,0.998-0.635
		c0.385-0.146,0.801-0.219,1.247-0.219s0.858,0.071,1.239,0.219c0.38,0.146,0.71,0.36,0.988,0.642
		c0.281,0.281,0.5,0.615,0.656,1.005c0.154,0.389,0.233,0.826,0.233,1.311s-0.081,0.926-0.242,1.318
		c-0.159,0.395-0.383,0.729-0.659,1.006c-0.281,0.274-0.613,0.485-0.998,0.633c-0.388,0.147-0.803,0.223-1.248,0.223
		s-0.861-0.074-1.246-0.223c-0.387-0.146-0.715-0.356-0.99-0.633c-0.274-0.277-0.491-0.607-0.647-0.998
		c-0.155-0.39-0.235-0.826-0.235-1.311C93.73,19.543,93.812,19.1,93.973,18.705z M95.221,21.783
		c0.393,0.412,0.941,0.619,1.646,0.619c0.691,0,1.238-0.204,1.639-0.612c0.396-0.409,0.6-0.998,0.6-1.767
		c0-0.779-0.201-1.371-0.604-1.773c-0.401-0.404-0.946-0.605-1.631-0.605c-0.693,0-1.239,0.203-1.64,0.612
		c-0.397,0.408-0.601,0.997-0.601,1.767C94.628,20.783,94.825,21.37,95.221,21.783z M97.749,20.309l0.584,1.211h-0.997l-0.441-0.982
		h-0.429v0.982H95.57v-3.062h1.311c0.456,0,0.783,0.088,0.982,0.263c0.199,0.177,0.299,0.427,0.299,0.748
		C98.161,19.837,98.023,20.118,97.749,20.309z M96.822,19.837c0.162,0,0.273-0.03,0.335-0.092s0.093-0.146,0.093-0.249
		s-0.033-0.186-0.102-0.242c-0.064-0.057-0.188-0.086-0.369-0.086h-0.313v0.669H96.822z"/>
</g>
<g>
	<path d="M-220.499-221.705V-227h19.626v5.296h-6.693v17.904h-6.24v-17.904L-220.499-221.705L-220.499-221.705z"/>
	<path d="M-187.161-205.733c-1.559,1.613-3.747,2.42-6.562,2.42c-2.773,0-4.929-0.785-6.467-2.354
		c-1.538-1.571-2.307-3.772-2.307-6.613c0-2.881,0.785-5.117,2.355-6.709c1.57-1.592,3.753-2.389,6.547-2.389
		c2.773,0,4.929,0.785,6.467,2.356c1.538,1.57,2.307,3.774,2.307,6.612S-185.601-207.348-187.161-205.733z M-195.787-209
		c0.509,0.671,1.218,1.007,2.128,1.007c0.91,0,1.619-0.336,2.128-1.007c0.51-0.671,0.764-1.787,0.764-3.347
		s-0.254-2.675-0.764-3.346c-0.509-0.672-1.218-1.008-2.128-1.008c-0.91,0-1.619,0.336-2.128,1.008
		c-0.51,0.671-0.764,1.787-0.764,3.346C-196.551-210.787-196.297-209.67-195.787-209z"/>
	<path d="M-170.426-205.717c-1.213,1.625-2.87,2.437-4.972,2.437c-2.188,0-3.872-0.769-5.053-2.307
		c-1.181-1.538-1.771-3.704-1.771-6.499c0-1.473,0.167-2.788,0.503-3.948c0.336-1.159,0.818-2.133,1.446-2.924
		s1.381-1.392,2.259-1.803c0.877-0.412,1.857-0.618,2.94-0.618c1.906,0,3.4,0.672,4.483,2.015V-227h5.882v23.2h-5.719v-1.917
		H-170.426L-170.426-205.717z M-170.767-214.491c-0.12-0.52-0.288-0.932-0.505-1.235c-0.26-0.369-0.579-0.623-0.958-0.764
		c-0.379-0.141-0.764-0.211-1.153-0.211c-0.866,0-1.565,0.325-2.096,0.975s-0.796,1.776-0.796,3.379c0,1.583,0.26,2.698,0.78,3.347
		c0.519,0.649,1.213,0.976,2.079,0.976c0.411,0,0.802-0.076,1.169-0.229c0.368-0.15,0.694-0.434,0.975-0.846
		c0.455-0.649,0.683-1.635,0.683-2.958v-0.487C-170.589-213.32-170.648-213.97-170.767-214.491z"/>
	<path d="M-151.124-205.653c-0.693,0.737-1.445,1.305-2.259,1.707c-0.812,0.4-1.781,0.602-2.908,0.602
		c-0.758,0-1.483-0.098-2.177-0.292c-0.694-0.195-1.305-0.505-1.836-0.929c-0.53-0.422-0.953-0.953-1.27-1.592
		c-0.312-0.639-0.471-1.414-0.471-2.322c0-1.041,0.211-1.912,0.634-2.616c0.423-0.703,1.002-1.276,1.738-1.721
		c0.735-0.445,1.604-0.769,2.6-0.975c0.996-0.206,2.068-0.341,3.218-0.406l2.565-0.13v-0.683c0-0.845-0.205-1.43-0.617-1.755
		c-0.409-0.325-0.932-0.487-1.56-0.487c-1.344,0-2.112,0.563-2.309,1.689l-5.297-0.422c0.305-1.819,1.116-3.174,2.438-4.062
		c1.321-0.888,3.131-1.333,5.427-1.333c1.432,0,2.627,0.168,3.591,0.504c0.966,0.336,1.738,0.807,2.323,1.414
		s1.008,1.337,1.27,2.193c0.26,0.856,0.39,1.814,0.39,2.876v10.593h-5.491L-151.124-205.653L-151.124-205.653z M-153.204-210.917
		c-1.234,0.064-2.074,0.271-2.52,0.618c-0.442,0.346-0.664,0.801-0.664,1.364c0,0.562,0.166,0.964,0.502,1.201
		c0.337,0.237,0.808,0.357,1.414,0.357c0.91,0,1.662-0.255,2.259-0.766c0.596-0.508,0.894-1.271,0.894-2.291v-0.584
		L-153.204-210.917z"/>
	<path d="M-134.683-211.338l2.988-9.521h6.108l-6.823,17.125c-0.453,1.127-0.883,2.084-1.281,2.875
		c-0.401,0.791-0.853,1.437-1.352,1.935c-0.498,0.499-1.062,0.86-1.688,1.089c-0.627,0.229-1.397,0.341-2.309,0.341
		c-0.691,0-1.37-0.062-2.029-0.179c-0.662-0.119-1.272-0.268-1.836-0.438l0.877-4.258c0.303,0.064,0.629,0.125,0.976,0.18
		c0.347,0.055,0.672,0.082,0.975,0.082c0.542,0,1.013-0.138,1.413-0.408s0.73-0.784,0.991-1.543l0.356-1.039l-6.984-15.762h6.367
		L-134.683-211.338z"/>
	<path d="M-126.526-208.295c0.161-0.395,0.383-0.729,0.662-1.004c0.281-0.275,0.613-0.487,0.998-0.635
		c0.385-0.146,0.801-0.219,1.247-0.219c0.446,0,0.858,0.071,1.239,0.219c0.38,0.146,0.71,0.36,0.988,0.642
		c0.281,0.281,0.5,0.615,0.656,1.005c0.155,0.389,0.234,0.826,0.234,1.311s-0.081,0.926-0.242,1.318
		c-0.16,0.395-0.383,0.729-0.66,1.006c-0.281,0.274-0.613,0.485-0.998,0.633c-0.387,0.147-0.802,0.223-1.248,0.223
		c-0.445,0-0.861-0.074-1.246-0.223c-0.386-0.146-0.715-0.356-0.99-0.633c-0.274-0.277-0.491-0.607-0.647-0.998
		c-0.155-0.39-0.235-0.826-0.235-1.311C-126.769-207.458-126.687-207.901-126.526-208.295z M-125.278-205.217
		c0.393,0.412,0.941,0.619,1.646,0.619c0.691,0,1.238-0.204,1.639-0.612c0.396-0.409,0.6-0.998,0.6-1.767
		c0-0.779-0.201-1.371-0.605-1.773c-0.402-0.404-0.947-0.605-1.631-0.605c-0.693,0-1.239,0.203-1.639,0.612
		c-0.398,0.408-0.601,0.997-0.601,1.767C-125.871-206.217-125.674-205.63-125.278-205.217z M-122.75-206.692l0.584,1.211h-0.997
		l-0.441-0.982h-0.429v0.982h-0.896v-3.062h1.311c0.456,0,0.783,0.088,0.982,0.263c0.199,0.177,0.299,0.427,0.299,0.748
		C-122.338-207.164-122.476-206.882-122.75-206.692z M-123.677-207.164c0.162,0,0.273-0.03,0.335-0.092s0.093-0.146,0.093-0.249
		s-0.033-0.186-0.102-0.242c-0.064-0.057-0.188-0.086-0.369-0.086h-0.313v0.669H-123.677z"/>
</g>
</svg>
