<?xml version="1.0" encoding="utf-8"?>
<!-- Generator: Adobe Illustrator 16.0.3, SVG Export Plug-In . SVG Version: 6.00 Build 0)  -->
<!DOCTYPE svg PUBLIC "-//W3C//DTD SVG 1.1//EN" "http://www.w3.org/Graphics/SVG/1.1/DTD/svg11.dtd">
<svg version="1.1" id="Layer_1" xmlns="http://www.w3.org/2000/svg" xmlns:xlink="http://www.w3.org/1999/xlink" x="0px" y="0px"
	 width="500px" height="320px" viewBox="0 0 500 320" enable-background="new 0 0 500 320" xml:space="preserve">
<g>
	<rect x="162.817" y="176.896" fill-rule="evenodd" clip-rule="evenodd" width="54.576" height="19.153"/>
	<rect x="87.607" y="176.896" fill-rule="evenodd" clip-rule="evenodd" width="49.636" height="19.153"/>
	<rect x="118.09" y="123.555" fill-rule="evenodd" clip-rule="evenodd" width="19.153" height="49.636"/>
	<rect x="140.368" y="89.779" fill-rule="evenodd" clip-rule="evenodd" width="19.153" height="106.268"/>
	<g>
		<path d="M87.608,210.552h3.253v12.766h7.771v2.799H87.608V210.552z"/>
		<path d="M101.689,219.609c0.464-0.667,1.225-1.329,2.28-1.984l0.326-0.2c-0.448-0.507-0.798-1.025-1.045-1.554
			c-0.246-0.528-0.368-1.078-0.368-1.65c0-1.135,0.383-2.021,1.153-2.66c0.769-0.636,1.767-0.955,2.992-0.955
			c1.118,0,2.042,0.326,2.772,0.979c0.729,0.654,1.095,1.488,1.095,2.506c0,0.919-0.22,1.663-0.657,2.235
			c-0.437,0.571-1.08,1.101-1.927,1.588l2.236,2.712c0.258-0.366,0.455-0.763,0.593-1.193c0.14-0.43,0.213-0.883,0.22-1.361h2.673
			c-0.05,0.947-0.277,1.902-0.687,2.869c-0.224,0.545-0.59,1.145-1.094,1.801l2.824,3.376h-3.643l-1.082-1.319
			c-0.528,0.489-1.018,0.85-1.474,1.084c-0.811,0.417-1.747,0.626-2.807,0.626c-1.595,0-2.839-0.464-3.735-1.394
			s-1.346-1.961-1.346-3.096C100.991,221.083,101.224,220.278,101.689,219.609z M104.63,223.339
			c0.426,0.429,0.973,0.644,1.639,0.644c0.501,0,0.975-0.111,1.424-0.34c0.447-0.225,0.811-0.477,1.09-0.756l-2.911-3.545
			c-0.763,0.5-1.267,0.941-1.512,1.32c-0.246,0.382-0.369,0.801-0.369,1.26C103.99,222.437,104.204,222.908,104.63,223.339z
			 M105.955,215.002c0.132,0.204,0.417,0.567,0.854,1.09c0.438-0.297,0.752-0.546,0.94-0.752c0.365-0.38,0.548-0.792,0.548-1.236
			c0-0.325-0.11-0.615-0.328-0.868c-0.22-0.254-0.552-0.381-0.996-0.381c-0.277,0-0.537,0.073-0.777,0.222
			c-0.366,0.219-0.548,0.565-0.548,1.036C105.648,214.395,105.751,214.691,105.955,215.002z"/>
		<path d="M117.731,210.552h3.253v12.766h7.771v2.799h-11.023V210.552z"/>
		<path d="M137.846,226.116v-15.564h3.23v5.935h6.05v-5.935h3.232v15.564h-3.232v-6.948h-6.05v6.948H137.846z"/>
		<path d="M166.115,224.733c-1.176,1.21-2.876,1.815-5.1,1.815s-3.924-0.605-5.1-1.815c-1.577-1.485-2.365-3.626-2.365-6.42
			c0-2.853,0.788-4.991,2.365-6.419c1.176-1.211,2.876-1.817,5.1-1.817s3.924,0.606,5.1,1.817c1.569,1.428,2.355,3.566,2.355,6.419
			C168.471,221.107,167.685,223.248,166.115,224.733z M164.083,222.368c0.757-0.951,1.135-2.302,1.135-4.055
			c0-1.746-0.378-3.096-1.135-4.051c-0.757-0.952-1.778-1.431-3.067-1.431s-2.315,0.475-3.083,1.426
			c-0.768,0.949-1.15,2.302-1.15,4.056c0,1.753,0.383,3.104,1.15,4.055c0.768,0.949,1.794,1.425,3.083,1.425
			S163.326,223.317,164.083,222.368z"/>
		<path d="M171.601,210.552h3.252v12.766h7.771v2.799h-11.023V210.552z"/>
		<path d="M194.576,210.89c1.093,0.359,1.978,1.02,2.653,1.976c0.544,0.775,0.912,1.613,1.11,2.513
			c0.196,0.901,0.296,1.76,0.296,2.576c0,2.069-0.418,3.822-1.246,5.258c-1.128,1.937-2.868,2.904-5.222,2.904h-6.71v-15.564h6.71
			C193.134,210.566,193.937,210.68,194.576,210.89z M188.615,213.255v10.158h3.003c1.536,0,2.609-0.757,3.215-2.27
			c0.331-0.83,0.496-1.819,0.496-2.968c0-1.584-0.248-2.801-0.745-3.648c-0.497-0.849-1.485-1.272-2.966-1.272H188.615z"/>
		<path d="M204.691,226.116h-3.231v-15.564h3.231V226.116z"/>
		<path d="M208.327,210.552h3.408l6.178,10.853v-10.853h3.031v15.564h-3.251l-6.338-11.043v11.043h-3.028V210.552z"/>
		<path d="M235.108,215.41c-0.246-1.062-0.849-1.807-1.806-2.229c-0.534-0.232-1.13-0.35-1.785-0.35
			c-1.251,0-2.282,0.474-3.087,1.418c-0.807,0.945-1.209,2.367-1.209,4.264c0,1.91,0.436,3.263,1.309,4.057
			c0.872,0.795,1.865,1.192,2.977,1.192c1.092,0,1.987-0.314,2.684-0.94c0.695-0.626,1.126-1.446,1.287-2.462h-3.6v-2.597h6.482
			v8.353h-2.154l-0.327-1.942c-0.626,0.736-1.189,1.254-1.688,1.555c-0.859,0.527-1.916,0.788-3.168,0.788
			c-2.062,0-3.752-0.714-5.068-2.143c-1.373-1.435-2.059-3.397-2.059-5.887c0-2.519,0.693-4.538,2.08-6.057
			c1.387-1.52,3.219-2.279,5.5-2.279c1.978,0,3.567,0.502,4.768,1.504c1.199,1.003,1.889,2.255,2.064,3.755H235.108z"/>
		<path d="M250.257,212.179c1.254-1.281,2.849-1.922,4.785-1.922c2.589,0,4.484,0.859,5.683,2.575
			c0.661,0.966,1.016,1.934,1.065,2.905h-3.253c-0.208-0.746-0.472-1.31-0.797-1.689c-0.579-0.676-1.438-1.015-2.575-1.015
			c-1.158,0-2.072,0.478-2.74,1.432c-0.67,0.954-1.004,2.303-1.004,4.049s0.354,3.053,1.06,3.923
			c0.704,0.87,1.603,1.304,2.689,1.304c1.116,0,1.966-0.373,2.551-1.119c0.324-0.401,0.593-1.004,0.807-1.805h3.23
			c-0.277,1.694-0.991,3.075-2.137,4.139c-1.145,1.062-2.612,1.594-4.401,1.594c-2.216,0-3.956-0.719-5.225-2.154
			c-1.267-1.442-1.9-3.42-1.9-5.935C248.095,215.744,248.815,213.65,250.257,212.179z"/>
		<path d="M277.019,224.733c-1.174,1.21-2.874,1.815-5.1,1.815c-2.223,0-3.924-0.605-5.1-1.815c-1.575-1.485-2.365-3.626-2.365-6.42
			c0-2.853,0.79-4.991,2.365-6.419c1.176-1.211,2.877-1.817,5.1-1.817c2.226,0,3.926,0.606,5.1,1.817
			c1.57,1.428,2.357,3.566,2.357,6.419C279.376,221.107,278.589,223.248,277.019,224.733z M274.987,222.368
			c0.757-0.951,1.135-2.302,1.135-4.055c0-1.746-0.378-3.096-1.135-4.051c-0.756-0.952-1.779-1.431-3.068-1.431
			c-1.287,0-2.314,0.475-3.082,1.426c-0.768,0.949-1.15,2.302-1.15,4.056c0,1.753,0.383,3.104,1.15,4.055
			c0.768,0.949,1.795,1.425,3.082,1.425C273.208,223.793,274.231,223.317,274.987,222.368z"/>
		<path d="M292.829,210.552h4.68v15.564h-3.031v-10.528c0-0.301,0.003-0.726,0.011-1.271c0.007-0.545,0.011-0.966,0.011-1.262
			l-2.949,13.062h-3.16l-2.929-13.062c0,0.296,0.004,0.717,0.011,1.262c0.007,0.546,0.01,0.971,0.01,1.271v10.528h-3.029v-15.564
			h4.731l2.834,12.239L292.829,210.552z"/>
		<path d="M311.615,219.38c-0.911,0.761-2.212,1.14-3.904,1.14h-3.24v5.597h-3.231v-15.564h6.684c1.541,0,2.769,0.402,3.685,1.204
			c0.916,0.803,1.374,2.045,1.374,3.728C312.981,217.32,312.526,218.619,311.615,219.38z M309.133,213.773
			c-0.412-0.345-0.989-0.519-1.731-0.519h-2.931v4.583h2.931c0.742,0,1.319-0.186,1.731-0.56c0.411-0.373,0.618-0.965,0.618-1.773
			C309.751,214.695,309.544,214.117,309.133,213.773z"/>
		<path d="M319.095,210.552h3.68l5.507,15.564h-3.527l-1.026-3.199h-5.732l-1.055,3.199h-3.401L319.095,210.552z M318.881,220.234
			h3.986l-1.968-6.124L318.881,220.234z"/>
		<path d="M330.856,210.552h3.409l6.179,10.853v-10.853h3.03v15.564h-3.252l-6.337-11.043v11.043h-3.029V210.552z"/>
		<path d="M356.055,210.552h3.686l-5.206,9.728v5.837h-3.252v-5.837l-5.386-9.728h3.832l3.231,6.778L356.055,210.552z"/>
		<path d="M359.446,228.618c0.607-0.169,1.051-0.451,1.337-0.844c0.286-0.396,0.448-0.948,0.491-1.658h-1.828v-3.157h3.254v2.732
			c0,0.479-0.064,0.98-0.191,1.502c-0.126,0.521-0.362,0.972-0.707,1.351c-0.374,0.409-0.812,0.717-1.314,0.925
			c-0.504,0.207-0.851,0.311-1.041,0.311V228.618z"/>
		<path d="M373.162,210.552h3.251v12.766h7.772v2.799h-11.023V210.552z"/>
		<path d="M387.02,210.552h3.253v12.766h7.771v2.799H387.02V210.552z"/>
		<path d="M402.365,212.179c1.253-1.281,2.848-1.922,4.784-1.922c2.59,0,4.484,0.859,5.683,2.575
			c0.661,0.966,1.017,1.934,1.066,2.905h-3.253c-0.207-0.746-0.474-1.31-0.797-1.689c-0.579-0.676-1.438-1.015-2.576-1.015
			c-1.158,0-2.072,0.478-2.74,1.432c-0.669,0.954-1.004,2.303-1.004,4.049s0.354,3.053,1.06,3.923
			c0.704,0.87,1.602,1.304,2.689,1.304c1.116,0,1.966-0.373,2.55-1.119c0.325-0.401,0.594-1.004,0.807-1.805h3.232
			c-0.279,1.694-0.991,3.075-2.137,4.139c-1.146,1.062-2.613,1.594-4.402,1.594c-2.217,0-3.956-0.719-5.225-2.154
			c-1.266-1.442-1.9-3.42-1.9-5.935C400.202,215.744,400.923,213.65,402.365,212.179z"/>
	</g>
</g>
</svg>
