<?xml version="1.0" encoding="utf-8"?>
<!-- Generator: Adobe Illustrator 16.0.3, SVG Export Plug-In . SVG Version: 6.00 Build 0)  -->
<!DOCTYPE svg PUBLIC "-//W3C//DTD SVG 1.1//EN" "http://www.w3.org/Graphics/SVG/1.1/DTD/svg11.dtd">
<svg version="1.1" id="Layer_1" xmlns="http://www.w3.org/2000/svg" xmlns:xlink="http://www.w3.org/1999/xlink" x="0px" y="0px"
	 width="500px" height="320px" viewBox="0 0 500 320" enable-background="new 0 0 500 320" xml:space="preserve">
<g>
	<path fill-rule="evenodd" clip-rule="evenodd" d="M145.499,138.539c0.752,0.308,1.485,0.518,2.128,0.887
		c11.786,6.769,23.562,13.558,35.339,20.344c0.171,0.098,0.34,0.199,0.502,0.309c1.014,0.687,1.018,1.446-0.044,2.074
		c-2.321,1.37-4.665,2.705-7,4.052c-9.243,5.335-18.487,10.67-27.731,16.001c-0.68,0.391-1.352,0.825-2.08,1.101
		c-1.02,0.388-2.039,0.231-2.994-0.321c-11.177-6.477-22.355-12.953-33.534-19.427c-0.705-0.409-1.411-0.815-2.109-1.231
		c-1.628-0.97-1.613-1.622,0.052-2.579c4.505-2.589,9.01-5.18,13.511-7.773c7.277-4.192,14.547-8.394,21.833-12.568
		C144.011,139.038,144.749,138.839,145.499,138.539z"/>
	<path fill-rule="evenodd" clip-rule="evenodd" d="M188.749,187.938c0,6.771-0.021,13.542,0.016,20.313
		c0.011,1.77-0.713,2.949-2.235,3.821c-8.993,5.152-17.965,10.343-26.946,15.518c-2.749,1.584-5.5,3.167-8.255,4.744
		c-0.292,0.167-0.592,0.327-0.903,0.453c-0.729,0.291-1.201,0.046-1.37-0.73c-0.082-0.38-0.103-0.779-0.103-1.172
		c-0.007-4.86-0.017-9.721,0.001-14.582c0.033-8.735,0.099-17.473,0.115-26.209c0.004-1.534,0.608-2.622,1.927-3.383
		c9.658-5.575,19.31-11.161,28.963-16.743c2.188-1.267,4.37-2.543,6.568-3.794c1.668-0.949,2.235-0.616,2.235,1.28
		c0.001,6.828,0,13.654,0,20.483C188.758,187.938,188.755,187.938,188.749,187.938z"/>
	<path fill-rule="evenodd" clip-rule="evenodd" d="M146.414,112.658c0-5.897,0-11.795,0-17.692c0-0.254-0.007-0.508,0.005-0.76
		c0.056-1.272,0.637-1.626,1.74-0.992c3.556,2.04,7.098,4.104,10.645,6.159c6.997,4.054,13.988,8.119,20.994,12.156
		c1.254,0.724,1.834,1.781,1.835,3.18c0.011,12.104,0.015,24.209,0.013,36.315c0,1.478-0.64,1.836-1.894,1.111
		c-10.477-6.059-20.948-12.127-31.435-18.165c-1.337-0.772-1.941-1.835-1.934-3.365c0.025-5.982,0.01-11.966,0.01-17.947
		C146.4,112.658,146.407,112.658,146.414,112.658z"/>
	<path fill-rule="evenodd" clip-rule="evenodd" d="M186.671,128.508c0-5.113,0.025-10.227-0.016-15.341
		c-0.012-1.372,0.549-2.276,1.707-2.939c8.914-5.119,17.821-10.253,26.732-15.378c1.307-0.749,1.797-0.468,1.797,1.033
		c-0.004,10.199-0.014,20.398-0.014,30.596c0.001,1.443-0.537,2.479-1.846,3.23c-8.891,5.104-17.753,10.258-26.626,15.393
		c-1.255,0.728-1.75,0.441-1.751-1.002c-0.005-5.198-0.002-10.396-0.002-15.592C186.659,128.508,186.665,128.508,186.671,128.508z"
		/>
	<path fill-rule="evenodd" clip-rule="evenodd" d="M220.627,161.251c-0.489-0.194-0.983-0.319-1.409-0.564
		c-7.482-4.289-14.956-8.59-22.431-12.893c-1.08-0.624-1.098-1.118-0.037-1.73c7.543-4.353,15.094-8.693,22.636-13.046
		c0.877-0.506,1.697-0.44,2.545,0.053c6.367,3.693,12.737,7.378,19.106,11.066c1.167,0.677,2.341,1.34,3.488,2.048
		c0.929,0.574,0.906,1.036-0.038,1.581c-7.498,4.315-14.997,8.633-22.503,12.938C221.581,160.936,221.114,161.057,220.627,161.251z"
		/>
	<path fill-rule="evenodd" clip-rule="evenodd" d="M232.167,203.366c1.165,0.739,2.066,1.361,3.011,1.903
		c3.244,1.86,6.661,3.148,10.486,2.858c3.268-0.249,6.029-1.467,7.583-4.532c1.927-3.795,0.497-8.179-3.365-10.326
		c-1.764-0.981-3.646-1.745-5.465-2.628c-2.02-0.981-4.077-1.9-6.03-3.004c-2.383-1.35-4.198-3.292-5.175-5.9
		c-1.703-4.543-0.243-9.225,3.78-12.059c3.457-2.434,7.358-3.203,11.52-2.931c2.771,0.18,5.446,0.727,8.002,1.842
		c3.064,1.338,3.069,1.328,3.05,4.616c-0.002,0.304-0.028,0.606-0.053,1.089c-0.37-0.221-0.627-0.353-0.861-0.517
		c-2.863-2.019-5.964-3.498-9.477-3.921c-2.858-0.346-5.614-0.058-8.02,1.753c-2.657,2-3.247,6.593,0.062,8.632
		c2.215,1.365,4.604,2.447,6.936,3.614c1.859,0.931,3.791,1.72,5.614,2.711c3.681,1.995,6.452,4.799,7.31,9.068
		c1.258,6.249-1.9,11.983-7.909,14.232c-7.026,2.629-13.782,1.784-20.267-1.844c-0.521-0.29-0.768-0.661-0.743-1.281
		C232.197,205.691,232.167,204.636,232.167,203.366z"/>
	<path fill-rule="evenodd" clip-rule="evenodd" d="M198.961,166.888c0-3.453,0-6.906,0.001-10.36c0-1.389,0.25-1.548,1.441-0.858
		c5.469,3.158,10.931,6.327,16.396,9.489c3.015,1.743,2.793,1.315,2.788,4.929c-0.007,6.094-0.01,12.187-0.015,18.277
		c-0.001,0.28,0.008,0.562-0.01,0.843c-0.063,0.941-0.42,1.144-1.248,0.668c-3.14-1.805-6.271-3.625-9.404-5.438
		c-2.793-1.617-5.572-3.263-8.391-4.833c-1.071-0.595-1.583-1.331-1.555-2.611c0.073-3.367,0.023-6.736,0.023-10.105
		C198.981,166.888,198.971,166.888,198.961,166.888z"/>
	<path fill-rule="evenodd" clip-rule="evenodd" d="M303.864,207.059c-2.049,2.54-4.695,3.754-7.725,4.087
		c-3.572,0.394-7.086,0.171-10.244-1.827c-2.42-1.531-3.718-3.788-3.961-6.612c-0.101-1.161-0.094-2.364,0.086-3.514
		c0.577-3.712,2.959-5.932,6.316-7.242c2.994-1.169,6.148-1.508,9.325-1.682c1.344-0.073,2.692-0.119,4.039-0.141
		c0.572-0.009,0.803-0.22,0.793-0.8c-0.023-1.742,0.022-3.484-0.026-5.226c-0.051-1.809-0.909-2.998-2.65-3.476
		c-2.895-0.794-5.782-0.604-8.616,0.363c-2.23,0.761-4.24,1.921-6.085,3.379c-0.24,0.188-0.491,0.36-0.983,0.721
		c0-0.932,0.076-1.67-0.017-2.386c-0.158-1.215,0.384-1.888,1.401-2.468c4.378-2.498,9.065-3.384,14.04-2.826
		c1.193,0.133,2.401,0.329,3.548,0.677c4.093,1.247,6.296,4.122,6.361,8.399c0.094,5.925,0.092,11.852,0.13,17.777
		c0.004,0.506-0.006,1.012,0.015,1.517c0.069,1.773,0.784,2.48,2.545,2.531c1.007,0.029,0.995,0.065,1.033,1.341
		c0.022,0.785-0.215,1.134-1.046,1.087c-1.009-0.056-2.026,0.031-3.033-0.028c-2.233-0.132-4-1.039-4.968-3.175
		C304.088,207.414,304.008,207.302,303.864,207.059z M302.487,198.584c0-1.627-0.022-3.256,0.01-4.883
		c0.015-0.667-0.239-0.902-0.889-0.871c-0.867,0.043-1.742-0.019-2.609,0.045c-2.123,0.155-4.252,0.286-6.263,1.113
		c-1.769,0.73-2.876,2.004-3.298,3.864c-0.509,2.254-0.457,4.517,0.061,6.754c0.406,1.759,1.314,3.171,3.146,3.745
		c1.844,0.579,3.697,0.6,5.54-0.035c2.758-0.949,4.303-3.117,4.303-6.029C302.488,201.053,302.488,199.818,302.487,198.584z"/>
	<path fill-rule="evenodd" clip-rule="evenodd" d="M362.419,194.278c0.086,2.829-0.229,5.548-1.125,8.187
		c-1.542,4.536-4.677,7.341-9.335,8.337c-3.789,0.813-7.589,0.765-11.304-0.489c-3.488-1.179-5.984-3.51-7.25-6.925
		c-2.184-5.894-2.186-11.902-0.146-17.831c1.409-4.098,4.419-6.631,8.616-7.678c3.692-0.92,7.408-0.903,11.077,0.14
		c4.175,1.189,6.918,3.933,8.319,8.016C362.197,188.72,362.519,191.5,362.419,194.278z M338.955,194.225c0,0.142,0,0.28,0,0.423
		c-0.008,3.121,0.096,6.228,1.121,9.229c1.571,4.598,5.393,5.979,9.87,4.725c1.279-0.357,2.279-1.189,3.059-2.268
		c1.077-1.494,1.606-3.204,1.907-4.992c0.673-3.982,0.66-7.996,0.286-11.999c-0.149-1.606-0.478-3.236-1.003-4.76
		c-1.321-3.817-4.339-5.576-8.294-5.004c-3.025,0.44-4.852,2.29-5.815,5.082C339.013,187.763,338.924,190.988,338.955,194.225z"/>
	<path fill-rule="evenodd" clip-rule="evenodd" d="M382.393,189.116c0-6.742,0-13.486,0-20.228c0.001-1.404,0.003-1.404,1.443-1.406
		c1.518,0,3.035,0.03,4.552-0.012c0.753-0.022,1.058,0.21,1.03,1c-0.05,1.461-0.014,2.922-0.014,4.383
		c0,12.192,0,24.386-0.001,36.579c0,1.287-0.003,1.29-1.315,1.292c-1.518,0.001-3.035,0.004-4.552-0.002
		c-1.117-0.003-1.141-0.023-1.143-1.125C382.392,202.771,382.393,195.943,382.393,189.116z"/>
	<path fill-rule="evenodd" clip-rule="evenodd" d="M324.399,169.697c0.029,0.512,0.063,0.838,0.064,1.164
		c0.004,2.021,0.001,4.044,0.002,6.064c0.002,1.179,0.004,1.18,1.146,1.183c1.15,0.001,2.303,0.017,3.454-0.005
		c0.58-0.012,0.826,0.233,0.797,0.8c-0.014,0.253-0.015,0.506,0,0.759c0.04,0.62-0.27,0.856-0.859,0.854
		c-1.208-0.012-2.416,0.026-3.623-0.011c-0.699-0.019-0.925,0.255-0.924,0.94c0.018,8.061,0.006,16.119,0.021,24.18
		c0.005,1.856,0.845,2.658,2.693,2.686c0.646,0.009,1.291,0.016,1.938,0.003c0.534-0.009,0.778,0.234,0.752,0.765
		c-0.008,0.168,0.003,0.338,0.003,0.506c-0.006,1.102-0.04,1.159-1.132,1.141c-2.132-0.037-4.274,0.024-6.391-0.186
		c-3.002-0.296-4.604-2.07-4.851-5.085c-0.083-1.005-0.134-2.017-0.134-3.024c-0.01-9.185,0.005-18.367-0.024-27.549
		c-0.004-0.872,0.255-1.387,1.026-1.801c1.756-0.942,3.466-1.969,5.196-2.957C323.767,170.001,323.991,169.901,324.399,169.697z"/>
	<path fill-rule="evenodd" clip-rule="evenodd" d="M273.486,169.688c0.028,0.531,0.062,0.858,0.062,1.187
		c0.005,2.104,0.022,4.212-0.009,6.316c-0.01,0.684,0.207,0.955,0.914,0.93c1.179-0.045,2.361,0.021,3.538-0.025
		c0.752-0.029,1.031,0.272,0.957,0.987c-0.018,0.167-0.016,0.339-0.001,0.505c0.064,0.709-0.294,0.943-0.955,0.931
		c-1.15-0.021-2.303,0.024-3.453-0.014c-0.705-0.022-1.004,0.188-1.002,0.95c0.023,8.03,0.009,16.061,0.023,24.092
		c0.003,1.953,0.826,2.738,2.789,2.765c0.562,0.007,1.125,0.029,1.685-0.005c0.707-0.043,0.978,0.276,0.914,0.952
		c-0.014,0.138-0.016,0.281,0.001,0.42c0.097,0.809-0.256,1.094-1.061,1.061c-2.186-0.089-4.386,0.006-6.556-0.212
		c-2.888-0.289-4.509-2.099-4.756-5.003c-0.084-0.976-0.133-1.96-0.134-2.94c-0.01-9.238,0.006-18.478-0.026-27.714
		c-0.003-0.876,0.272-1.382,1.036-1.793c1.732-0.93,3.417-1.942,5.124-2.917C272.813,170.024,273.059,169.908,273.486,169.688z"/>
	<path fill-rule="evenodd" clip-rule="evenodd" d="M375.399,194.379c0,5.058,0.001,10.116,0,15.174
		c-0.002,1.155-0.017,1.167-1.184,1.17c-1.545,0.006-3.091,0.006-4.636,0c-1.171-0.003-1.187-0.015-1.188-1.165
		c0-5.422,0-10.845,0-16.27c0-4.719-0.001-9.438,0-14.161c0.001-1.098,0.031-1.129,1.139-1.135c1.575-0.005,3.147-0.004,4.721,0
		c1.112,0.006,1.146,0.037,1.147,1.129C375.4,184.206,375.399,189.293,375.399,194.379z"/>
	<path fill-rule="evenodd" clip-rule="evenodd" d="M371.888,174.106c-0.896-0.001-1.793-0.008-2.69,0.005
		c-0.551,0.006-0.818-0.2-0.811-0.792c0.022-1.683,0.022-3.364,0.001-5.046c-0.006-0.601,0.273-0.779,0.823-0.775
		c1.793,0.014,3.587,0.015,5.382,0c0.561-0.004,0.816,0.202,0.811,0.787c-0.02,1.684-0.02,3.365,0.001,5.047
		c0.007,0.602-0.284,0.786-0.824,0.779C373.683,174.1,372.785,174.106,371.888,174.106z"/>
	<path fill-rule="evenodd" clip-rule="evenodd" fill="#FFFFFF" d="M302.488,198.584c0,1.234,0,2.469,0,3.703
		c0,2.912-1.545,5.08-4.303,6.029c-1.843,0.635-3.696,0.614-5.54,0.035c-1.832-0.574-2.74-1.986-3.146-3.745
		c-0.518-2.237-0.569-4.5-0.061-6.754c0.422-1.86,1.529-3.134,3.298-3.864c2.011-0.827,4.14-0.958,6.263-1.113
		c0.867-0.063,1.742-0.002,2.609-0.045c0.649-0.031,0.903,0.204,0.889,0.871C302.465,195.328,302.487,196.957,302.488,198.584z"/>
	<path fill-rule="evenodd" clip-rule="evenodd" fill="#FFFFFF" d="M338.955,194.225c-0.031-3.236,0.058-6.462,1.131-9.564
		c0.964-2.792,2.79-4.642,5.815-5.082c3.955-0.572,6.973,1.187,8.294,5.004c0.525,1.523,0.854,3.153,1.003,4.76
		c0.374,4.003,0.387,8.017-0.286,11.999c-0.301,1.788-0.83,3.498-1.907,4.992c-0.779,1.078-1.779,1.91-3.059,2.268
		c-4.478,1.255-8.299-0.127-9.87-4.725c-1.025-3.001-1.129-6.107-1.121-9.229C338.955,194.505,338.955,194.366,338.955,194.225z"/>
</g>
</svg>
