<?xml version="1.0" encoding="utf-8"?>
<!-- Generator: Adobe Illustrator 16.0.3, SVG Export Plug-In . SVG Version: 6.00 Build 0)  -->
<!DOCTYPE svg PUBLIC "-//W3C//DTD SVG 1.1//EN" "http://www.w3.org/Graphics/SVG/1.1/DTD/svg11.dtd">
<svg version="1.1" id="Layer_1" xmlns="http://www.w3.org/2000/svg" xmlns:xlink="http://www.w3.org/1999/xlink" x="0px" y="0px"
	 width="500px" height="320px" viewBox="0 0 500 320" enable-background="new 0 0 500 320" xml:space="preserve">
<g>
	<path fill-rule="evenodd" clip-rule="evenodd" d="M121.808,210.371c-18.972,0-37.934,0.009-56.896-0.009
		c-6.861,0-12.463-4.216-14.123-10.661c-0.328-1.27-0.497-2.61-0.497-3.924c-0.026-23.65-0.036-47.29-0.019-70.939
		c0.009-8.24,6.18-14.436,14.417-14.444c38.139-0.026,76.267-0.026,114.403,0c7.938,0.009,14.188,6.196,14.196,14.124
		c0.044,23.854,0.044,47.699,0.009,71.553c-0.018,8.087-6.364,14.292-14.497,14.292C159.803,210.38,140.806,210.371,121.808,210.371
		z M121.782,200.188c18.872,0,37.737,0,56.603,0c3.097,0,4.588-1.49,4.588-4.633c0-23.507,0-47.024,0-70.54
		c0-3.108-1.508-4.617-4.623-4.617c-37.668,0-75.336,0-112.994,0c-3.204,0-4.75,1.553-4.75,4.758c0,23.445,0,46.893,0,70.338
		c0,3.142,1.563,4.694,4.679,4.694C84.123,200.188,102.952,200.188,121.782,200.188z"/>
	<path fill-rule="evenodd" clip-rule="evenodd" d="M229.225,193.078c0-18.519,0-36.921,0-55.396
		c0.275-0.018,0.506-0.053,0.737-0.053c8.07,0.009,16.14-0.071,24.209,0.09c2.478,0.043,5.007,0.495,7.387,1.214
		c6.613,1.998,9.941,7.281,9.498,14.196c-0.311,4.768-2.609,7.998-6.88,9.942c-0.294,0.133-0.577,0.302-0.843,0.435
		c1.615,0.693,3.257,1.262,4.749,2.077c4.163,2.282,5.76,6.064,6.019,10.618c0.426,7.519-3.392,12.996-10.795,15.385
		c-3.586,1.154-7.298,1.527-11.035,1.545c-7.395,0.035-14.788,0.019-22.185,0.009C229.828,193.141,229.562,193.104,229.225,193.078z
		 M243.49,168.585c0,4.671,0,9.232,0,13.84c0.205,0.027,0.374,0.063,0.533,0.063c2.912-0.01,5.832,0.026,8.744-0.063
		c1.111-0.034,2.229-0.283,3.286-0.611c1.899-0.595,3.115-1.936,3.461-3.898c0.214-1.188,0.276-2.432,0.223-3.64
		c-0.134-3.213-1.838-5.122-5.052-5.459c-2.353-0.239-4.732-0.177-7.103-0.223C246.234,168.567,244.885,168.585,243.49,168.585z
		 M243.474,159.211c3.329,0,6.551,0.151,9.747-0.053c2.201-0.143,3.499-1.634,3.826-3.738c0.107-0.666,0.151-1.35,0.124-2.023
		c-0.133-3.542-1.73-5.105-5.273-5.157c-2.583-0.036-5.157-0.01-7.731-0.01c-0.222,0-0.453,0.054-0.692,0.089
		C243.474,152.001,243.474,155.615,243.474,159.211z"/>
	<path fill-rule="evenodd" clip-rule="evenodd" d="M436.62,137.674c4.173,0,8.133,0,12.153,0c0,18.457,0,36.858,0,55.396
		c-0.329,0.026-0.683,0.071-1.03,0.071c-2.512,0.01-5.023-0.026-7.535,0.026c-0.701,0.009-1.102-0.258-1.51-0.79
		c-8.053-10.618-16.122-21.217-24.2-31.825c-0.187-0.258-0.4-0.497-0.791-0.977c0,11.337,0,22.371,0,33.494
		c-4.057,0-8.007,0-12.037,0c0-18.447,0-36.877,0-55.439c0.382,0,0.737,0,1.101,0c3.223,0,6.444,0.026,9.667-0.018
		c0.826-0.018,1.341,0.222,1.856,0.896c7.12,9.419,14.267,18.812,21.412,28.204c0.239,0.319,0.497,0.64,0.914,1.181
		C436.62,157.693,436.62,147.731,436.62,137.674z"/>
	<path fill-rule="evenodd" clip-rule="evenodd" d="M389.365,193.078c-4.722,0-9.419,0-14.203,0c0-7.617,0-15.171,0-22.788
		c-6.613,0-13.148,0-19.833,0c0,7.562,0,15.136,0,22.779c-4.837,0-9.534,0-14.284,0c0-18.457,0-36.859,0-55.35
		c4.697,0,9.385,0,14.214,0c0,7.092,0,14.193,0,21.376c6.692,0,13.254,0,19.886,0c0-7.138,0-14.214,0-21.376
		c4.767,0,9.454,0,14.221,0C389.365,156.147,389.365,174.577,389.365,193.078z"/>
	<path fill-rule="evenodd" clip-rule="evenodd" d="M333.863,193.15c-1.669,0-3.186,0-4.704,0c-2.956,0-5.904-0.036-8.86,0.017
		c-0.746,0.009-1.065-0.248-1.305-0.933c-0.959-2.787-1.998-5.548-2.956-8.327c-0.223-0.638-0.488-0.896-1.207-0.887
		c-6.349,0.026-12.695,0.026-19.034,0c-0.72-0.009-1.003,0.249-1.225,0.878c-0.977,2.814-1.979,5.629-3.018,8.417
		c-0.126,0.328-0.533,0.789-0.818,0.789c-4.243,0.054-8.477,0.036-12.872,0.036c0.143-0.399,0.231-0.701,0.347-0.994
		c6.941-17.871,13.902-35.732,20.835-53.612c0.258-0.665,0.56-0.931,1.306-0.922c3.8,0.035,7.599,0.018,11.399,0.009
		c0.549,0,0.905,0.071,1.144,0.691c6.916,18.093,13.858,36.186,20.792,54.277C333.739,192.705,333.766,192.839,333.863,193.15z
		 M305.278,154.248c-2.344,6.499-4.581,12.713-6.845,18.999c4.616,0,9.099,0,13.733,0
		C309.877,166.934,307.63,160.721,305.278,154.248z"/>
	<path fill-rule="evenodd" clip-rule="evenodd" d="M127.116,193.088c0-21.9,0-43.598,0-65.338c0.319-0.027,0.586-0.071,0.844-0.071
		c9.232,0.009,18.465-0.009,27.689,0.044c2.866,0.019,5.662,0.532,8.345,1.615c5.406,2.184,8.016,6.411,8.752,11.994
		c0.338,2.565,0.488,5.14-0.471,7.634c-1.242,3.231-3.576,5.558-6.347,7.484c-1.189,0.825-2.459,1.545-3.87,2.433
		c0.435,0.15,0.745,0.284,1.074,0.382c2.822,0.932,5.469,2.209,7.696,4.225c3.809,3.462,4.981,7.857,4.483,12.818
		c-0.905,9.127-7.244,14.054-14.933,15.812c-2.717,0.632-5.565,0.879-8.362,0.924c-7.937,0.115-15.883,0.045-23.817,0.045
		C127.862,193.088,127.534,193.088,127.116,193.088z M142.661,165.46c0,5.896,0,11.462,0,17.276c3.062-0.15,6.054-0.098,8.992-0.488
		c4.732-0.63,7.058-3.436,7.2-8.194c0.133-4.536-1.785-7.324-6.091-7.99C149.479,165.558,146.097,165.646,142.661,165.46z
		 M142.635,153.529c2.45,0,4.802,0.177,7.119-0.035c4.626-0.409,7.004-2.957,7.287-7.457c0.205-3.384-1.312-6.064-4.242-7.308
		c-3.259-1.384-6.693-1.01-10.164-1.02C142.635,143.036,142.635,148.239,142.635,153.529z"/>
	<path fill-rule="evenodd" clip-rule="evenodd" d="M70.043,193.088c0-21.884,0-43.579,0-65.338c0.311-0.027,0.577-0.071,0.834-0.071
		c8.177,0.009,16.362-0.055,24.538,0.044c5.513,0.07,10.653,1.491,15.021,5.06c4.252,3.472,6.568,8.123,7.937,13.308
		c1.465,5.593,1.784,11.301,1.545,17.053c-0.195,4.795-0.764,9.526-2.326,14.099c-3.178,9.329-9.703,14.506-19.478,15.57
		c-1.748,0.187-3.524,0.249-5.282,0.258c-7.128,0.026-14.247,0.019-21.377,0.019C71.02,193.088,70.584,193.088,70.043,193.088z
		 M85.668,182.515c2.325,0,4.562,0.098,6.781-0.018c3.765-0.195,6.677-1.98,8.604-5.176c0.896-1.492,1.669-3.144,2.094-4.821
		c1.998-7.883,1.776-15.846,0.276-23.773c-0.649-3.382-2.157-6.375-5.096-8.39c-3.845-2.645-8.212-2.547-12.659-2.449
		C85.668,152.801,85.668,167.609,85.668,182.515z"/>
</g>
</svg>
