<?xml version="1.0" encoding="utf-8"?>
<!-- Generator: Adobe Illustrator 16.0.3, SVG Export Plug-In . SVG Version: 6.00 Build 0)  -->
<!DOCTYPE svg PUBLIC "-//W3C//DTD SVG 1.1//EN" "http://www.w3.org/Graphics/SVG/1.1/DTD/svg11.dtd">
<svg version="1.1" xmlns="http://www.w3.org/2000/svg" xmlns:xlink="http://www.w3.org/1999/xlink" x="0px" y="0px" width="640px"
	 height="418.178px" viewBox="0 0 640 418.178" enable-background="new 0 0 640 418.178" xml:space="preserve">
<g id="Layer_1">
	<g>
		<path d="M261.474,385.104c0.54,0,0.985,0.06,1.334,0.18s0.625,0.279,0.825,0.479c0.2,0.2,0.34,0.432,0.419,0.694
			c0.08,0.264,0.12,0.538,0.12,0.825c0,0.307-0.04,0.6-0.12,0.879c-0.08,0.28-0.221,0.525-0.425,0.735
			c-0.203,0.21-0.478,0.376-0.824,0.499c-0.347,0.124-0.783,0.186-1.31,0.186h-1.299v2.658h-1.189v-7.136H261.474z M262.218,388.481
			c0.197-0.061,0.352-0.146,0.465-0.255c0.113-0.11,0.191-0.241,0.235-0.395s0.065-0.327,0.065-0.521
			c0-0.199-0.023-0.374-0.07-0.524c-0.047-0.149-0.128-0.274-0.245-0.375c-0.116-0.1-0.273-0.176-0.47-0.229
			c-0.196-0.054-0.444-0.08-0.745-0.08h-1.259v2.469h1.27C261.771,388.571,262.022,388.541,262.218,388.481z"/>
		<path d="M270.083,385.104v1.039h-3.538v1.899h3.338v1.049h-3.338v2.109h3.728l-0.14,1.039h-4.797v-7.136H270.083z"/>
		<path d="M278.501,391.189v-6.086h1.209v7.136h-8.385v-7.136h1.209v6.086h2.379v-6.086h1.209v6.086H278.501z"/>
		<path d="M285.982,385.104v1.039h-3.538v1.899h3.338v1.049h-3.338v2.109h3.728l-0.14,1.039h-4.797v-7.136H285.982z"/>
		<path d="M288.434,385.104v2.888h3.208v-2.888h1.209v7.136h-1.209v-3.128h-3.208v3.128h-1.209v-7.136H288.434z"/>
		<path d="M298.692,387.052l-3.198,5.188h-1.119v-7.136h1.179v5.217l3.188-5.217h1.12v7.136h-1.169V387.052z"/>
		<path d="M305.393,392.239v-2.818h-0.9c-0.173,0-0.326,0.017-0.459,0.05s-0.25,0.085-0.35,0.155c-0.1,0.069-0.189,0.158-0.27,0.265
			s-0.153,0.233-0.22,0.38l-0.979,1.969h-1.379l1.099-2.139c0.147-0.28,0.292-0.488,0.435-0.625
			c0.143-0.137,0.301-0.245,0.475-0.324c-0.473-0.16-0.826-0.389-1.06-0.685c-0.233-0.297-0.35-0.698-0.35-1.205
			c0-0.26,0.042-0.518,0.125-0.774c0.083-0.257,0.228-0.488,0.435-0.694c0.207-0.207,0.486-0.373,0.84-0.5
			c0.353-0.127,0.799-0.189,1.339-0.189h2.419v7.136H305.393z M305.393,386.103h-1.209c-0.3,0-0.548,0.028-0.745,0.085
			s-0.353,0.134-0.47,0.229c-0.117,0.097-0.198,0.214-0.245,0.351c-0.046,0.137-0.07,0.284-0.07,0.444
			c0,0.354,0.105,0.642,0.315,0.864c0.21,0.224,0.568,0.335,1.074,0.335h1.35V386.103z"/>
		<path d="M310.889,390.311c0.15-0.347,0.278-0.722,0.385-1.125c0.107-0.402,0.197-0.821,0.27-1.254s0.13-0.856,0.17-1.27
			l0.15-1.559h4.147v6.086h0.76v2.779h-1.069v-1.729h-4.967v1.729h-1.069v-2.779h0.709
			C310.568,390.95,310.739,390.657,310.889,390.311z M312.668,388.246c-0.057,0.384-0.13,0.752-0.22,1.104
			c-0.09,0.354-0.195,0.688-0.314,1.005c-0.12,0.316-0.263,0.595-0.43,0.834h3.108v-5.066h-1.899l-0.1,0.989
			C312.773,387.485,312.725,387.863,312.668,388.246z"/>
		<path d="M320.784,386.123l-0.28,2.368c-0.073,0.62-0.176,1.168-0.31,1.645s-0.31,0.874-0.53,1.194
			c-0.22,0.319-0.491,0.562-0.814,0.729c-0.323,0.166-0.711,0.25-1.165,0.25h-0.29v-1.04h0.15c0.26,0,0.49-0.057,0.689-0.17
			s0.373-0.3,0.52-0.56c0.147-0.26,0.271-0.602,0.375-1.024c0.103-0.423,0.191-0.944,0.265-1.564l0.34-2.848h4.198v7.136h-1.199
			v-6.116H320.784z"/>
		<path d="M329.462,392.239v-2.818h-0.9c-0.173,0-0.326,0.017-0.459,0.05s-0.25,0.085-0.35,0.155c-0.1,0.069-0.189,0.158-0.27,0.265
			s-0.153,0.233-0.22,0.38l-0.979,1.969h-1.379l1.099-2.139c0.147-0.28,0.292-0.488,0.435-0.625
			c0.143-0.137,0.301-0.245,0.475-0.324c-0.473-0.16-0.826-0.389-1.06-0.685c-0.233-0.297-0.35-0.698-0.35-1.205
			c0-0.26,0.042-0.518,0.125-0.774c0.083-0.257,0.228-0.488,0.435-0.694c0.207-0.207,0.486-0.373,0.84-0.5
			c0.353-0.127,0.799-0.189,1.339-0.189h2.419v7.136H329.462z M329.462,386.103h-1.209c-0.3,0-0.548,0.028-0.745,0.085
			s-0.353,0.134-0.47,0.229c-0.117,0.097-0.198,0.214-0.245,0.351c-0.046,0.137-0.07,0.284-0.07,0.444
			c0,0.354,0.105,0.642,0.315,0.864c0.21,0.224,0.568,0.335,1.074,0.335h1.35V386.103z"/>
		<path d="M338.782,385.104v1.049h-3.158v1.609h1.35c0.52,0,0.949,0.062,1.289,0.185c0.34,0.124,0.611,0.288,0.814,0.495
			c0.204,0.206,0.345,0.446,0.425,0.72s0.12,0.56,0.12,0.859s-0.042,0.583-0.125,0.85s-0.227,0.501-0.43,0.704
			c-0.203,0.204-0.48,0.365-0.83,0.485s-0.794,0.18-1.334,0.18h-2.488v-7.136H338.782z M335.624,391.24h1.299
			c0.293,0,0.537-0.027,0.729-0.08c0.193-0.054,0.347-0.13,0.46-0.23c0.113-0.1,0.193-0.225,0.24-0.374
			c0.047-0.15,0.07-0.322,0.07-0.516c0-0.187-0.023-0.357-0.07-0.515c-0.046-0.156-0.128-0.291-0.245-0.404s-0.275-0.2-0.475-0.26
			c-0.2-0.061-0.453-0.09-0.76-0.09h-1.25V391.24z"/>
		<path d="M345.052,387.052l-3.198,5.188h-1.119v-7.136h1.179v5.217l3.188-5.217h1.12v7.136h-1.169V387.052z"/>
		<path d="M348.938,391.145c0.25,0.197,0.648,0.295,1.194,0.295c1.026,0,1.539-0.406,1.539-1.219c0-0.786-0.533-1.18-1.599-1.18
			h-0.85v-0.979h0.91c0.439,0,0.784-0.097,1.034-0.29s0.375-0.473,0.375-0.839c0-0.334-0.113-0.589-0.34-0.765
			c-0.227-0.177-0.577-0.266-1.049-0.266c-0.493,0-0.858,0.092-1.095,0.275c-0.236,0.183-0.401,0.458-0.495,0.824l-1.1-0.149
			c0.107-0.6,0.38-1.071,0.82-1.414c0.44-0.344,1.066-0.516,1.879-0.516c0.44,0,0.818,0.047,1.134,0.141
			c0.316,0.093,0.578,0.223,0.785,0.39c0.207,0.166,0.36,0.364,0.46,0.595c0.1,0.229,0.15,0.481,0.15,0.754
			c0,0.354-0.08,0.675-0.24,0.965c-0.16,0.29-0.41,0.521-0.75,0.694c0.4,0.153,0.691,0.385,0.875,0.695
			c0.184,0.31,0.275,0.654,0.275,1.034c0,0.333-0.057,0.637-0.17,0.909c-0.113,0.273-0.285,0.507-0.515,0.7
			s-0.516,0.345-0.859,0.454c-0.343,0.11-0.745,0.165-1.205,0.165c-0.493,0-0.915-0.057-1.264-0.17s-0.635-0.27-0.854-0.47
			c-0.22-0.199-0.381-0.437-0.485-0.709c-0.103-0.273-0.158-0.57-0.165-0.89h1.149C348.537,390.627,348.688,390.948,348.938,391.145
			z"/>
		<path d="M355.273,385.104v2.888h3.208v-2.888h1.209v7.136h-1.209v-3.128h-3.208v3.128h-1.209v-7.136H355.273z"/>
		<path d="M365.961,385.104v1.039h-3.538v1.899h3.338v1.049h-3.338v2.109h3.728l-0.14,1.039h-4.797v-7.136H365.961z"/>
		<path d="M372.911,390.86c-0.14,0.312-0.333,0.586-0.58,0.819s-0.546,0.415-0.899,0.545s-0.763,0.194-1.229,0.194
			c-0.513,0-0.971-0.086-1.374-0.26c-0.403-0.173-0.743-0.421-1.02-0.744s-0.486-0.717-0.63-1.18
			c-0.143-0.463-0.215-0.981-0.215-1.554c0-0.587,0.079-1.113,0.235-1.579c0.157-0.467,0.378-0.861,0.665-1.185
			c0.286-0.323,0.629-0.57,1.029-0.74s0.839-0.255,1.319-0.255c0.446,0,0.833,0.057,1.159,0.17s0.604,0.275,0.834,0.485
			s0.413,0.461,0.55,0.754c0.137,0.294,0.238,0.62,0.305,0.979l-1.189,0.17c-0.054-0.239-0.12-0.453-0.2-0.64
			s-0.185-0.345-0.315-0.475s-0.288-0.229-0.475-0.3c-0.187-0.069-0.41-0.104-0.669-0.104c-0.32,0-0.603,0.063-0.85,0.189
			c-0.247,0.127-0.455,0.309-0.625,0.545s-0.298,0.521-0.385,0.854c-0.087,0.333-0.13,0.706-0.13,1.119
			c0,0.42,0.045,0.797,0.135,1.13s0.222,0.618,0.395,0.854c0.173,0.236,0.382,0.416,0.625,0.539
			c0.243,0.124,0.521,0.186,0.834,0.186c0.28,0,0.518-0.037,0.714-0.11c0.197-0.073,0.362-0.177,0.495-0.31
			c0.133-0.133,0.238-0.295,0.315-0.484c0.077-0.19,0.132-0.405,0.165-0.645h1.279C373.141,390.204,373.051,390.547,372.911,390.86z
			"/>
		<path d="M377.392,385.104l2.718,7.136h-1.289l-0.669-1.819h-2.769l-0.66,1.819h-1.25l2.719-7.136H377.392z M376.762,386.473
			l-1.049,2.938h2.109L376.762,386.473z"/>
		<path d="M381.684,393.188h-0.879l0.32-2.349h1.139L381.684,393.188z"/>
		<path d="M256.53,398.982h1.139v2.219h0.29c0.106,0,0.205-0.014,0.294-0.04c0.09-0.026,0.172-0.072,0.245-0.135
			c0.073-0.063,0.142-0.148,0.205-0.255c0.063-0.106,0.128-0.237,0.195-0.39c0.113-0.261,0.22-0.48,0.32-0.66
			c0.1-0.18,0.211-0.325,0.334-0.435c0.124-0.11,0.265-0.188,0.425-0.235c0.16-0.046,0.353-0.069,0.58-0.069
			c0.087,0,0.175,0.007,0.265,0.02c0.09,0.014,0.171,0.03,0.245,0.05l-0.1,0.85c-0.034-0.013-0.082-0.023-0.145-0.029
			c-0.063-0.007-0.125-0.011-0.185-0.011c-0.153,0-0.27,0.032-0.35,0.096c-0.08,0.062-0.157,0.175-0.23,0.334l-0.25,0.55
			c-0.073,0.174-0.16,0.316-0.26,0.43s-0.236,0.207-0.41,0.28c0.133,0.054,0.26,0.13,0.38,0.229c0.12,0.101,0.24,0.247,0.36,0.44
			l1.319,2.019h-1.269l-1.089-1.679c-0.126-0.193-0.243-0.337-0.35-0.43c-0.106-0.094-0.263-0.141-0.47-0.141h-0.35v2.249h-1.139
			V398.982z"/>
		<path d="M262.149,403.659c-0.446-0.492-0.669-1.176-0.669-2.049c0-0.426,0.06-0.811,0.18-1.154c0.12-0.343,0.293-0.635,0.52-0.874
			c0.227-0.24,0.498-0.425,0.814-0.555s0.671-0.195,1.064-0.195c0.4,0,0.758,0.063,1.074,0.19c0.317,0.126,0.585,0.31,0.805,0.55
			c0.22,0.239,0.388,0.529,0.505,0.869s0.175,0.723,0.175,1.149s-0.06,0.812-0.18,1.159c-0.12,0.347-0.292,0.642-0.515,0.885
			c-0.223,0.243-0.493,0.432-0.81,0.564c-0.316,0.134-0.674,0.2-1.074,0.2C263.226,404.399,262.596,404.152,262.149,403.659z
			 M265.103,402.97c0.223-0.34,0.335-0.8,0.335-1.379c0-0.566-0.112-1.015-0.335-1.345c-0.223-0.329-0.575-0.494-1.054-0.494
			c-0.48,0-0.832,0.165-1.055,0.494c-0.223,0.33-0.335,0.781-0.335,1.354s0.112,1.029,0.335,1.369s0.575,0.51,1.055,0.51
			C264.528,403.479,264.88,403.31,265.103,402.97z"/>
		<path d="M267.05,399.932v-0.949h4.637v0.949h-1.739v4.308h-1.14v-4.308H267.05z"/>
		<path d="M272.77,403.659c-0.446-0.492-0.669-1.176-0.669-2.049c0-0.426,0.06-0.811,0.18-1.154c0.12-0.343,0.293-0.635,0.52-0.874
			c0.227-0.24,0.498-0.425,0.814-0.555s0.671-0.195,1.064-0.195c0.4,0,0.758,0.063,1.074,0.19c0.317,0.126,0.585,0.31,0.805,0.55
			c0.22,0.239,0.388,0.529,0.505,0.869s0.175,0.723,0.175,1.149s-0.06,0.812-0.18,1.159c-0.12,0.347-0.292,0.642-0.515,0.885
			c-0.223,0.243-0.493,0.432-0.81,0.564c-0.316,0.134-0.674,0.2-1.074,0.2C273.846,404.399,273.216,404.152,272.77,403.659z
			 M275.723,402.97c0.223-0.34,0.335-0.8,0.335-1.379c0-0.566-0.112-1.015-0.335-1.345c-0.223-0.329-0.575-0.494-1.054-0.494
			c-0.48,0-0.832,0.165-1.055,0.494c-0.223,0.33-0.335,0.781-0.335,1.354s0.112,1.029,0.335,1.369s0.575,0.51,1.055,0.51
			C275.148,403.479,275.5,403.31,275.723,402.97z"/>
		<path d="M279.46,399.712c0.04-0.047,0.102-0.12,0.185-0.22c0.083-0.101,0.193-0.198,0.33-0.295
			c0.136-0.097,0.301-0.182,0.495-0.255s0.42-0.11,0.68-0.11c0.406,0,0.748,0.077,1.024,0.23s0.501,0.356,0.674,0.609
			c0.173,0.253,0.298,0.546,0.375,0.88c0.077,0.333,0.115,0.683,0.115,1.049c0,0.387-0.048,0.75-0.145,1.09
			c-0.097,0.34-0.242,0.636-0.435,0.89c-0.193,0.253-0.431,0.452-0.714,0.6c-0.283,0.146-0.615,0.22-0.995,0.22
			c-0.233,0-0.438-0.03-0.615-0.09c-0.176-0.061-0.328-0.13-0.455-0.21s-0.23-0.162-0.31-0.245c-0.08-0.083-0.14-0.151-0.18-0.205
			v2.528h-1.139v-7.195h1.109V399.712z M279.825,400.201c-0.237,0.294-0.355,0.713-0.355,1.26v0.319c0,0.533,0.11,0.948,0.33,1.245
			c0.22,0.296,0.563,0.444,1.029,0.444c0.426,0,0.753-0.163,0.979-0.49c0.227-0.326,0.34-0.782,0.34-1.369
			c0-0.633-0.119-1.099-0.355-1.398s-0.545-0.45-0.924-0.45C280.409,399.762,280.061,399.908,279.825,400.201z"/>
		<path d="M285.58,400.791h1.389c0.34,0,0.633,0.043,0.879,0.13s0.45,0.205,0.61,0.355c0.16,0.149,0.278,0.329,0.355,0.539
			s0.115,0.435,0.115,0.675c0,0.526-0.17,0.949-0.51,1.27c-0.34,0.319-0.863,0.479-1.569,0.479h-2.408v-5.257h1.139V400.791z
			 M286.849,403.31c0.606,0,0.91-0.263,0.91-0.789c0-0.254-0.068-0.452-0.205-0.595c-0.137-0.144-0.382-0.215-0.735-0.215h-1.239
			v1.599H286.849z M290.737,398.982v5.257h-1.14v-5.257H290.737z"/>
		<path d="M295.953,403.954c-0.363,0.297-0.891,0.445-1.584,0.445c-0.826,0-1.455-0.245-1.884-0.734
			c-0.43-0.49-0.645-1.168-0.645-2.034c0-0.446,0.062-0.843,0.185-1.189c0.123-0.347,0.296-0.64,0.52-0.88
			c0.223-0.239,0.49-0.421,0.8-0.544c0.31-0.124,0.651-0.186,1.024-0.186c0.399,0,0.746,0.062,1.039,0.186
			c0.293,0.123,0.537,0.298,0.73,0.524c0.193,0.227,0.336,0.494,0.43,0.805c0.093,0.31,0.14,0.654,0.14,1.034v0.5h-3.728
			c0.007,0.239,0.04,0.458,0.1,0.654s0.146,0.368,0.26,0.515s0.257,0.26,0.43,0.34c0.173,0.08,0.374,0.12,0.6,0.12
			c0.36,0,0.629-0.071,0.81-0.215c0.18-0.144,0.3-0.342,0.359-0.595h1.1C296.544,403.24,296.316,403.658,295.953,403.954z
			 M295.303,400.071c-0.196-0.253-0.518-0.38-0.964-0.38c-0.413,0-0.731,0.129-0.955,0.385c-0.223,0.257-0.351,0.599-0.385,1.024
			h2.599C295.598,400.668,295.5,400.325,295.303,400.071z"/>
		<path d="M301.319,398.982l1.669,4.067l1.709-4.067h1.2v5.257h-1.03v-3.479l-1.499,3.479h-0.859l-1.439-3.479v3.479h-1.029v-5.257
			H301.319z"/>
		<path d="M307.679,403.659c-0.446-0.492-0.669-1.176-0.669-2.049c0-0.426,0.06-0.811,0.18-1.154c0.12-0.343,0.293-0.635,0.52-0.874
			c0.227-0.24,0.498-0.425,0.814-0.555s0.671-0.195,1.064-0.195c0.4,0,0.758,0.063,1.074,0.19c0.317,0.126,0.585,0.31,0.805,0.55
			c0.22,0.239,0.388,0.529,0.505,0.869s0.175,0.723,0.175,1.149s-0.06,0.812-0.18,1.159c-0.12,0.347-0.292,0.642-0.515,0.885
			c-0.223,0.243-0.493,0.432-0.81,0.564c-0.316,0.134-0.674,0.2-1.074,0.2C308.755,404.399,308.126,404.152,307.679,403.659z
			 M310.633,402.97c0.223-0.34,0.335-0.8,0.335-1.379c0-0.566-0.112-1.015-0.335-1.345c-0.223-0.329-0.575-0.494-1.055-0.494
			c-0.479,0-0.831,0.165-1.054,0.494c-0.223,0.33-0.335,0.781-0.335,1.354s0.112,1.029,0.335,1.369s0.575,0.51,1.054,0.51
			C310.058,403.479,310.41,403.31,310.633,402.97z"/>
		<path d="M315.908,404.239v-2.249h-0.29c-0.227,0-0.398,0.054-0.515,0.16c-0.116,0.106-0.245,0.273-0.385,0.5l-1.02,1.589h-1.219
			l1.33-2.019c0.133-0.2,0.265-0.352,0.395-0.455s0.268-0.179,0.415-0.225c-0.173-0.054-0.313-0.141-0.42-0.26
			c-0.106-0.12-0.2-0.267-0.28-0.44l-0.27-0.569c-0.073-0.153-0.145-0.26-0.215-0.32c-0.07-0.06-0.178-0.09-0.325-0.09
			c-0.073,0-0.138,0.004-0.195,0.011c-0.057,0.006-0.102,0.017-0.135,0.029l-0.11-0.85c0.067-0.013,0.145-0.028,0.235-0.045
			s0.188-0.024,0.295-0.024c0.213,0,0.393,0.023,0.54,0.069c0.147,0.047,0.278,0.125,0.395,0.235
			c0.117,0.109,0.225,0.253,0.325,0.43s0.207,0.398,0.32,0.665c0.126,0.312,0.262,0.527,0.405,0.645
			c0.143,0.116,0.321,0.175,0.535,0.175h0.19v-2.219h1.069v2.219h0.18c0.227,0,0.405-0.059,0.535-0.175
			c0.13-0.117,0.261-0.332,0.395-0.645c0.107-0.254,0.207-0.467,0.3-0.64c0.093-0.174,0.193-0.313,0.3-0.42
			c0.107-0.106,0.23-0.187,0.37-0.24c0.14-0.054,0.313-0.087,0.52-0.1c0.2,0,0.406,0.023,0.62,0.069l-0.1,0.85
			c-0.033-0.013-0.078-0.023-0.135-0.029c-0.057-0.007-0.118-0.011-0.185-0.011c-0.173,0-0.298,0.039-0.375,0.115
			c-0.077,0.077-0.158,0.208-0.245,0.395l-0.209,0.47c-0.074,0.16-0.162,0.3-0.265,0.42c-0.103,0.12-0.238,0.21-0.405,0.27
			c0.153,0.054,0.298,0.141,0.435,0.261c0.136,0.119,0.281,0.293,0.435,0.52l1.259,1.929h-1.239l-1.089-1.679
			c-0.127-0.193-0.243-0.337-0.35-0.43c-0.106-0.094-0.263-0.141-0.47-0.141h-0.28v2.249H315.908z"/>
		<path d="M322.239,401.041h2.398v-2.059h1.14v5.257h-1.14v-2.249h-2.398v2.249H321.1v-5.257h1.139V401.041z"/>
		<path d="M327.549,403.659c-0.446-0.492-0.669-1.176-0.669-2.049c0-0.426,0.06-0.811,0.18-1.154c0.12-0.343,0.293-0.635,0.52-0.874
			c0.227-0.24,0.498-0.425,0.814-0.555s0.671-0.195,1.064-0.195c0.4,0,0.758,0.063,1.074,0.19c0.317,0.126,0.585,0.31,0.805,0.55
			c0.22,0.239,0.388,0.529,0.505,0.869s0.175,0.723,0.175,1.149s-0.06,0.812-0.18,1.159c-0.12,0.347-0.292,0.642-0.515,0.885
			c-0.223,0.243-0.493,0.432-0.81,0.564c-0.316,0.134-0.674,0.2-1.074,0.2C328.625,404.399,327.996,404.152,327.549,403.659z
			 M330.503,402.97c0.223-0.34,0.335-0.8,0.335-1.379c0-0.566-0.112-1.015-0.335-1.345c-0.223-0.329-0.575-0.494-1.055-0.494
			c-0.479,0-0.831,0.165-1.054,0.494c-0.223,0.33-0.335,0.781-0.335,1.354s0.112,1.029,0.335,1.369s0.575,0.51,1.054,0.51
			C329.928,403.479,330.28,403.31,330.503,402.97z"/>
		<path d="M339.297,403.869c-0.366,0.354-0.906,0.53-1.619,0.53c-0.839,0-1.462-0.247-1.869-0.74
			c-0.407-0.492-0.61-1.169-0.61-2.028c0-0.42,0.057-0.802,0.17-1.145s0.278-0.637,0.495-0.88c0.217-0.243,0.481-0.433,0.794-0.569
			c0.313-0.137,0.67-0.205,1.07-0.205c0.333,0,0.625,0.044,0.875,0.13c0.25,0.087,0.461,0.207,0.634,0.36
			c0.173,0.153,0.313,0.34,0.42,0.56s0.18,0.46,0.22,0.72l-1.129,0.17c-0.026-0.146-0.063-0.282-0.11-0.405
			c-0.046-0.123-0.111-0.229-0.195-0.319c-0.083-0.09-0.188-0.162-0.315-0.215c-0.126-0.054-0.283-0.08-0.47-0.08
			c-0.386,0-0.696,0.151-0.929,0.454c-0.233,0.304-0.35,0.769-0.35,1.395c0,0.66,0.117,1.138,0.35,1.435
			c0.233,0.296,0.553,0.444,0.959,0.444c0.187,0,0.346-0.028,0.479-0.085s0.245-0.133,0.335-0.229s0.158-0.208,0.205-0.335
			c0.046-0.127,0.08-0.264,0.1-0.41h1.149C339.884,403.033,339.664,403.517,339.297,403.869z"/>
		<path d="M341.509,403.659c-0.446-0.492-0.669-1.176-0.669-2.049c0-0.426,0.06-0.811,0.18-1.154c0.12-0.343,0.293-0.635,0.52-0.874
			c0.227-0.24,0.498-0.425,0.814-0.555s0.671-0.195,1.064-0.195c0.4,0,0.758,0.063,1.074,0.19c0.317,0.126,0.585,0.31,0.805,0.55
			c0.22,0.239,0.388,0.529,0.505,0.869s0.175,0.723,0.175,1.149s-0.06,0.812-0.18,1.159c-0.12,0.347-0.292,0.642-0.515,0.885
			c-0.223,0.243-0.493,0.432-0.81,0.564c-0.316,0.134-0.674,0.2-1.074,0.2C342.585,404.399,341.956,404.152,341.509,403.659z
			 M344.462,402.97c0.223-0.34,0.335-0.8,0.335-1.379c0-0.566-0.112-1.015-0.335-1.345c-0.223-0.329-0.575-0.494-1.054-0.494
			c-0.48,0-0.832,0.165-1.055,0.494c-0.223,0.33-0.335,0.781-0.335,1.354s0.112,1.029,0.335,1.369s0.575,0.51,1.055,0.51
			C343.888,403.479,344.239,403.31,344.462,402.97z"/>
		<path d="M346.34,398.982h1.339l1.08,1.669l1.149-1.669h1.199l-1.709,2.479l1.859,2.778h-1.309l-1.259-1.929l-1.279,1.929h-1.239
			l1.909-2.729L346.34,398.982z"/>
		<path d="M353.089,399.712c0.04-0.047,0.102-0.12,0.185-0.22c0.083-0.101,0.193-0.198,0.33-0.295
			c0.136-0.097,0.301-0.182,0.495-0.255s0.42-0.11,0.68-0.11c0.406,0,0.748,0.077,1.024,0.23s0.501,0.356,0.674,0.609
			c0.173,0.253,0.298,0.546,0.375,0.88c0.077,0.333,0.115,0.683,0.115,1.049c0,0.387-0.048,0.75-0.145,1.09s-0.242,0.636-0.435,0.89
			c-0.193,0.253-0.431,0.452-0.714,0.6c-0.283,0.146-0.615,0.22-0.995,0.22c-0.233,0-0.438-0.03-0.615-0.09
			c-0.176-0.061-0.328-0.13-0.455-0.21s-0.23-0.162-0.31-0.245c-0.08-0.083-0.14-0.151-0.18-0.205v2.528h-1.139v-7.195h1.109
			V399.712z M353.454,400.201c-0.237,0.294-0.355,0.713-0.355,1.26v0.319c0,0.533,0.11,0.948,0.33,1.245
			c0.22,0.296,0.563,0.444,1.03,0.444c0.426,0,0.753-0.163,0.979-0.49c0.227-0.326,0.34-0.782,0.34-1.369
			c0-0.633-0.119-1.099-0.355-1.398s-0.545-0.45-0.924-0.45C354.039,399.762,353.69,399.908,353.454,400.201z"/>
		<path d="M360.538,404.135c-0.273,0.156-0.616,0.234-1.029,0.234c-0.247,0-0.477-0.031-0.689-0.095
			c-0.213-0.063-0.398-0.16-0.555-0.29c-0.157-0.13-0.28-0.295-0.37-0.495c-0.09-0.199-0.135-0.433-0.135-0.699
			c0-0.359,0.078-0.651,0.235-0.875c0.157-0.223,0.361-0.397,0.615-0.524c0.253-0.126,0.54-0.217,0.859-0.27
			c0.32-0.054,0.646-0.09,0.979-0.11l0.77-0.04v-0.22c0-0.38-0.09-0.649-0.27-0.81c-0.18-0.16-0.433-0.239-0.76-0.239
			c-0.347,0-0.606,0.058-0.78,0.175c-0.173,0.116-0.286,0.291-0.34,0.524l-1.039-0.11c0.093-0.506,0.323-0.876,0.689-1.109
			c0.367-0.232,0.87-0.35,1.509-0.35c0.386,0,0.713,0.047,0.979,0.14c0.267,0.094,0.483,0.229,0.649,0.405s0.287,0.392,0.36,0.645
			s0.11,0.536,0.11,0.85v3.368h-1.089v-0.68C361.044,403.786,360.812,403.978,360.538,404.135z M359.699,401.865
			c-0.207,0.05-0.37,0.118-0.49,0.205s-0.202,0.187-0.245,0.3c-0.043,0.113-0.065,0.24-0.065,0.38c0,0.22,0.07,0.398,0.21,0.535
			c0.14,0.136,0.353,0.204,0.64,0.204c0.453,0,0.812-0.111,1.075-0.334c0.263-0.224,0.395-0.545,0.395-0.965v-0.45l-0.729,0.03
			C360.168,401.784,359.905,401.815,359.699,401.865z"/>
		<path d="M364.709,401.041h2.398v-2.059h1.14v5.257h-1.14v-2.249h-2.398v2.249h-1.139v-5.257h1.139V401.041z"/>
		<path d="M372.938,404.239v-3.628l-2.418,3.628h-1.009v-5.257h1.039v3.638l2.419-3.638h1.009v5.257H372.938z"/>
		<path d="M374.78,399.932v-0.949h4.637v0.949h-1.739v4.308h-1.14v-4.308H374.78z"/>
		<path d="M381.349,400.791h1.499c0.34,0,0.631,0.043,0.875,0.13s0.445,0.205,0.605,0.355c0.16,0.149,0.278,0.329,0.354,0.539
			s0.115,0.435,0.115,0.675c0,0.526-0.172,0.949-0.515,1.27c-0.343,0.319-0.865,0.479-1.564,0.479h-2.508v-5.257h1.139V400.791z
			 M382.708,403.31c0.613,0,0.919-0.263,0.919-0.789c0-0.254-0.068-0.452-0.205-0.595c-0.136-0.144-0.385-0.215-0.745-0.215h-1.329
			v1.599H382.708z"/>
		<path d="M287.418,416.239v-3.628L285,416.239h-1.009v-5.257h1.039v3.638l2.419-3.638h1.009v5.257H287.418z"/>
		<path d="M296.507,416.239h-1.139v-4.298h-2.279v4.298h-1.139v-5.257h4.557V416.239z"/>
		<path d="M298.879,411.712c0.04-0.047,0.102-0.12,0.185-0.22c0.083-0.101,0.193-0.198,0.33-0.295
			c0.136-0.097,0.301-0.182,0.495-0.255s0.42-0.11,0.68-0.11c0.406,0,0.748,0.077,1.024,0.23s0.501,0.356,0.674,0.609
			c0.173,0.253,0.298,0.546,0.375,0.88c0.077,0.333,0.115,0.683,0.115,1.049c0,0.387-0.048,0.75-0.145,1.09s-0.242,0.636-0.435,0.89
			c-0.193,0.253-0.431,0.452-0.714,0.6c-0.283,0.146-0.615,0.22-0.995,0.22c-0.233,0-0.438-0.03-0.615-0.09
			c-0.176-0.061-0.328-0.13-0.455-0.21s-0.23-0.162-0.31-0.245c-0.08-0.083-0.14-0.151-0.18-0.205v2.528h-1.139v-7.195h1.109
			V411.712z M299.244,412.201c-0.237,0.294-0.355,0.713-0.355,1.26v0.319c0,0.533,0.11,0.948,0.33,1.245
			c0.22,0.296,0.563,0.444,1.03,0.444c0.426,0,0.753-0.163,0.979-0.49c0.227-0.326,0.34-0.782,0.34-1.369
			c0-0.633-0.119-1.099-0.355-1.398s-0.545-0.45-0.924-0.45C299.829,411.762,299.48,411.908,299.244,412.201z"/>
		<path d="M307.288,416.239v-3.628l-2.418,3.628h-1.009v-5.257h1.039v3.638l2.419-3.638h1.009v5.257H307.288z"/>
		<path d="M309.939,417.224c0.1,0.017,0.2,0.025,0.3,0.025c0.193,0,0.348-0.051,0.465-0.15s0.225-0.279,0.325-0.539l0.19-0.49
			l-2.189-5.087h1.319l1.429,3.808l1.319-3.808h1.239l-2.188,5.577c-0.107,0.266-0.21,0.501-0.31,0.704s-0.213,0.371-0.34,0.505
			c-0.126,0.133-0.276,0.234-0.45,0.305s-0.383,0.104-0.63,0.104c-0.187,0-0.356-0.013-0.509-0.039
			c-0.153-0.027-0.31-0.067-0.47-0.12l0.21-0.87C309.743,417.182,309.839,417.207,309.939,417.224z"/>
		<path d="M316.329,410.982l1.669,4.067l1.709-4.067h1.2v5.257h-1.03v-3.479l-1.499,3.479h-0.859l-1.439-3.479v3.479h-1.029v-5.257
			H316.329z"/>
		<path d="M323.319,413.041h2.398v-2.059h1.14v5.257h-1.14v-2.249h-2.398v2.249h-1.139v-5.257h1.139V413.041z"/>
		<path d="M328.629,415.659c-0.446-0.492-0.669-1.176-0.669-2.049c0-0.426,0.06-0.811,0.18-1.154c0.12-0.343,0.293-0.635,0.52-0.874
			c0.227-0.24,0.498-0.425,0.814-0.555s0.671-0.195,1.064-0.195c0.4,0,0.758,0.063,1.074,0.19c0.317,0.126,0.585,0.31,0.805,0.55
			c0.22,0.239,0.388,0.529,0.505,0.869s0.175,0.723,0.175,1.149s-0.06,0.812-0.18,1.159c-0.12,0.347-0.292,0.642-0.515,0.885
			c-0.223,0.243-0.493,0.432-0.81,0.564c-0.316,0.134-0.674,0.2-1.074,0.2C329.705,416.399,329.076,416.152,328.629,415.659z
			 M331.583,414.97c0.223-0.34,0.335-0.8,0.335-1.379c0-0.566-0.112-1.015-0.335-1.345c-0.223-0.329-0.575-0.494-1.054-0.494
			c-0.48,0-0.832,0.165-1.055,0.494c-0.223,0.33-0.335,0.781-0.335,1.354s0.112,1.029,0.335,1.369s0.575,0.51,1.055,0.51
			C331.008,415.479,331.359,415.31,331.583,414.97z"/>
		<path d="M336.858,416.239v-2.249h-0.29c-0.226,0-0.398,0.054-0.515,0.16c-0.116,0.106-0.245,0.273-0.385,0.5l-1.02,1.589h-1.219
			l1.33-2.019c0.133-0.2,0.265-0.352,0.395-0.455s0.268-0.179,0.415-0.225c-0.173-0.054-0.313-0.141-0.42-0.26
			c-0.106-0.12-0.2-0.267-0.28-0.44l-0.27-0.569c-0.073-0.153-0.145-0.26-0.215-0.32c-0.07-0.06-0.178-0.09-0.325-0.09
			c-0.073,0-0.138,0.004-0.195,0.011c-0.057,0.006-0.102,0.017-0.135,0.029l-0.11-0.85c0.067-0.013,0.145-0.028,0.235-0.045
			s0.188-0.024,0.295-0.024c0.213,0,0.393,0.023,0.54,0.069c0.147,0.047,0.278,0.125,0.395,0.235
			c0.117,0.109,0.225,0.253,0.325,0.43s0.207,0.398,0.32,0.665c0.126,0.312,0.262,0.527,0.405,0.645
			c0.143,0.116,0.322,0.175,0.535,0.175h0.19v-2.219h1.069v2.219h0.18c0.227,0,0.405-0.059,0.535-0.175
			c0.13-0.117,0.261-0.332,0.395-0.645c0.107-0.254,0.207-0.467,0.3-0.64c0.093-0.174,0.193-0.313,0.3-0.42
			c0.107-0.106,0.23-0.187,0.37-0.24c0.14-0.054,0.313-0.087,0.52-0.1c0.2,0,0.407,0.023,0.62,0.069l-0.1,0.85
			c-0.033-0.013-0.078-0.023-0.135-0.029c-0.057-0.007-0.118-0.011-0.185-0.011c-0.173,0-0.298,0.039-0.375,0.115
			c-0.077,0.077-0.158,0.208-0.245,0.395l-0.209,0.47c-0.074,0.16-0.162,0.3-0.265,0.42c-0.103,0.12-0.238,0.21-0.405,0.27
			c0.153,0.054,0.298,0.141,0.435,0.261c0.136,0.119,0.281,0.293,0.435,0.52l1.259,1.929h-1.239l-1.089-1.679
			c-0.126-0.193-0.243-0.337-0.35-0.43c-0.106-0.094-0.263-0.141-0.47-0.141h-0.28v2.249H336.858z"/>
		<path d="M345.478,416.239v-3.628l-2.418,3.628h-1.009v-5.257h1.039v3.638l2.419-3.638h1.009v5.257H345.478z"/>
		<path d="M347.32,411.932v-0.949h4.637v0.949h-1.739v4.308h-1.14v-4.308H347.32z"/>
		<path d="M353.889,412.791h1.499c0.34,0,0.631,0.043,0.875,0.13s0.445,0.205,0.605,0.355c0.16,0.149,0.278,0.329,0.354,0.539
			s0.115,0.435,0.115,0.675c0,0.526-0.172,0.949-0.515,1.27c-0.343,0.319-0.865,0.479-1.564,0.479h-2.508v-5.257h1.139V412.791z
			 M355.248,415.31c0.613,0,0.919-0.263,0.919-0.789c0-0.254-0.068-0.452-0.205-0.595c-0.136-0.144-0.385-0.215-0.745-0.215h-1.329
			v1.599H355.248z"/>
	</g>
	
		<linearGradient id="SVGID_2_" gradientUnits="userSpaceOnUse" x1="464.3452" y1="-5985.1108" x2="557.3665" y2="-5985.1108" gradientTransform="matrix(1 0 0 -1 -146 -5709.7695)">
		<stop  offset="0" style="stop-color:#FFFFFF"/>
		<stop  offset="1" style="stop-color:#000000"/>
	</linearGradient>
	<path opacity="0.11" fill="url(#SVGID_2_)" enable-background="new    " d="M319.746,182.502l92.475,149.442
		c6.375,5.729,1.902,36.236-95.082,36.236c-82.043,0-97.556-28.356-89.73-36.448L319.746,182.502z"/>
	
		<linearGradient id="SVGID_4_" gradientUnits="userSpaceOnUse" x1="466.5254" y1="-5820.2866" x2="558.7111" y2="-5820.2866" gradientTransform="matrix(1 0 0 -1 -146 -5709.7695)">
		<stop  offset="0" style="stop-color:#FFFFFF"/>
		<stop  offset="1" style="stop-color:#000000"/>
	</linearGradient>
	<path opacity="0.11" fill="url(#SVGID_4_)" enable-background="new    " d="M319.8,185.238L227.326,35.796
		c0,0,11.826,24.394,95.082,24.394c74.738,0,89.73-24.182,89.73-24.182L319.8,185.238z"/>
	<path opacity="0.15" enable-background="new    " d="M267.389,327.915c17.2-9.422,48.105-10.551,66.24-9.188
		c11.371,0.854,22.273,2.398,33.062,6.59c13.823,5.367,20.752,14.436,5.657,22.701c-17.202,9.42-48.103,10.549-66.24,9.188
		c-11.373-0.854-22.276-2.399-33.062-6.592C259.224,345.247,252.3,336.179,267.389,327.915z"/>
	<path opacity="0.2" enable-background="new    " d="M303.404,334.813c5.397-2.957,15.094-3.311,20.783-2.883
		c3.568,0.268,6.989,0.752,10.373,2.068c4.338,1.684,6.511,4.526,1.774,7.121c-5.396,2.954-15.091,3.311-20.78,2.883
		c-3.57-0.269-6.99-0.754-10.374-2.068C300.843,340.251,298.671,337.405,303.404,334.813z"/>
	<path opacity="0.2" enable-background="new    " d="M247.722,331.573c10.941-5.994,30.6-6.713,42.139-5.844
		c7.234,0.541,14.17,1.521,21.032,4.193c8.794,3.412,13.2,9.182,3.601,14.438c-10.945,5.992-30.6,6.711-42.141,5.845
		c-7.234-0.543-14.17-1.527-21.029-4.193C242.527,342.597,238.123,336.831,247.722,331.573z"/>
	
		<line fill="none" stroke="#000000" stroke-width="0.5" stroke-linecap="round" stroke-linejoin="round" x1="227.234" y1="332.024" x2="319.889" y2="184.009"/>
	
		<line fill="none" stroke="#000000" stroke-width="0.5" stroke-linecap="round" stroke-linejoin="round" x1="319.889" y1="184.009" x2="412.456" y2="332.235"/>
	<path fill="none" stroke="#000000" stroke-width="0.5" stroke-linecap="round" stroke-linejoin="round" d="M238.66,322.413
		c26.616-14.58,74.438-16.326,102.5-14.217c17.599,1.32,34.47,3.711,51.16,10.197c21.394,8.305,32.111,22.336,8.754,35.127
		c-26.619,14.576-74.434,16.324-102.498,14.217c-17.602-1.32-34.473-3.713-51.164-10.199
		C226.027,349.233,215.312,335.2,238.66,322.413z"/>
	<g opacity="0.6">
		
			<line fill="none" stroke="#000000" stroke-width="0.5" stroke-linejoin="round" stroke-dasharray="1.5" x1="319.889" y1="184.009" x2="242.778" y2="335.981"/>
		
			<line fill="none" stroke="#000000" stroke-width="0.5" stroke-linejoin="round" stroke-dasharray="1.5" x1="319.87" y1="337.558" x2="319.889" y2="184.009"/>
		
			<line fill="none" stroke="#000000" stroke-width="0.5" stroke-linejoin="round" stroke-dasharray="1.5" x1="339.185" y1="337.558" x2="319.889" y2="184.009"/>
		
			<line fill="none" stroke="#000000" stroke-width="0.5" stroke-linejoin="round" stroke-dasharray="1.5" x1="300.738" y1="337.558" x2="319.889" y2="184.009"/>
		
			<line fill="none" stroke="#000000" stroke-width="0.5" stroke-linejoin="round" stroke-dasharray="1.5" x1="380.827" y1="336.558" x2="319.889" y2="184.009"/>
		
			<line fill="none" stroke="#000000" stroke-width="0.5" stroke-linejoin="round" stroke-dasharray="1.5" x1="258.898" y1="336.558" x2="319.889" y2="184.009"/>
	</g>
	<path fill="none" stroke="#000000" stroke-width="0.5" stroke-linecap="round" stroke-linejoin="round" d="M303.267,335.132
		c5.397-2.955,15.094-3.312,20.783-2.883c3.567,0.268,6.989,0.752,10.373,2.067c4.338,1.685,6.511,4.528,1.774,7.121
		c-5.396,2.957-15.092,3.312-20.781,2.883c-3.57-0.269-6.99-0.752-10.374-2.067C300.706,340.569,298.534,337.726,303.267,335.132z"
		/>
	<path fill="none" stroke="#000000" stroke-width="0.5" stroke-linecap="round" stroke-linejoin="round" d="M247.585,331.892
		c10.941-5.992,30.6-6.713,42.139-5.844c7.234,0.541,14.17,1.522,21.032,4.192c8.794,3.412,13.199,9.183,3.601,14.438
		c-10.945,5.992-30.6,6.712-42.141,5.845c-7.234-0.541-14.17-1.526-21.029-4.192C242.39,342.917,237.987,337.149,247.585,331.892z"
		/>
	<path fill="none" stroke="#000000" stroke-width="0.5" stroke-linecap="round" stroke-linejoin="round" d="M267.252,328.233
		c17.2-9.422,48.105-10.549,66.239-9.188c11.373,0.854,22.275,2.397,33.062,6.592c13.824,5.365,20.752,14.434,5.658,22.699
		c-17.202,9.42-48.102,10.549-66.24,9.188c-11.373-0.854-22.276-2.4-33.062-6.592C259.087,345.565,252.163,336.499,267.252,328.233z
		"/>
	
		<line fill="none" stroke="#000000" stroke-width="0.5" stroke-linecap="round" stroke-linejoin="round" x1="412.547" y1="36.459" x2="319.892" y2="184.475"/>
	
		<line fill="none" stroke="#000000" stroke-width="0.5" stroke-linecap="round" stroke-linejoin="round" x1="319.892" y1="184.475" x2="227.326" y2="36.248"/>
	<path opacity="0.45" enable-background="new    " d="M380.081,82.041c-19.72,10.802-55.152,12.096-75.944,10.533
		c-13.037-0.979-25.537-2.75-37.906-7.556c-15.849-6.152-23.792-16.55-6.486-26.026c19.723-10.801,55.15-12.095,75.944-10.533
		c13.039,0.979,25.54,2.75,37.906,7.558C389.442,62.169,397.38,72.566,380.081,82.041z"/>
	<path opacity="0.7" enable-background="new    " d="M358.779,117.961c-12.739,6.979-35.627,7.814-49.059,6.805
		c-8.421-0.633-16.496-1.776-24.487-4.881c-10.238-3.975-15.369-10.69-4.19-16.812c12.74-6.977,35.625-7.812,49.058-6.805
		c8.423,0.633,16.499,1.777,24.487,4.883C364.826,105.125,369.954,111.841,358.779,117.961z"/>
	<path fill="none" stroke="#000000" stroke-width="0.5" stroke-linecap="round" stroke-linejoin="round" d="M380.081,82.041
		c-19.72,10.802-55.152,12.096-75.944,10.533c-13.037-0.979-25.537-2.75-37.906-7.556c-15.849-6.152-23.792-16.55-6.486-26.026
		c19.723-10.801,55.15-12.095,75.944-10.533c13.039,0.979,25.54,2.75,37.906,7.558C389.442,62.169,397.38,72.566,380.081,82.041z"/>
	<path opacity="0.15" stroke="#000000" stroke-width="0.5" stroke-miterlimit="10" enable-background="new    " d="M401.148,46.075
		c-26.625,14.585-74.462,16.332-102.535,14.222c-17.602-1.321-34.478-3.713-51.178-10.201c-21.397-8.307-32.123-22.344-8.757-35.139
		C265.306,0.375,313.137-1.372,341.212,0.735c17.604,1.321,34.482,3.714,51.178,10.204
		C413.787,19.246,424.504,33.283,401.148,46.075z"/>
	<path fill="none" stroke="#000000" stroke-width="0.5" stroke-linecap="round" stroke-linejoin="round" d="M401.121,46.07
		c-26.616,14.58-74.438,16.326-102.5,14.217c-17.599-1.32-34.47-3.711-51.16-10.197c-21.394-8.305-32.111-22.336-8.754-35.127
		C265.326,0.387,313.14-1.361,341.204,0.746c17.602,1.32,34.473,3.713,51.164,10.199C413.754,19.25,424.469,33.283,401.121,46.07z"
		/>
	<path fill="none" stroke="#000000" stroke-width="0.5" stroke-linecap="round" stroke-linejoin="round" d="M358.779,117.961
		c-12.739,6.979-35.627,7.814-49.059,6.805c-8.421-0.633-16.496-1.776-24.487-4.881c-10.238-3.975-15.369-10.69-4.19-16.812
		c12.74-6.977,35.625-7.812,49.058-6.805c8.423,0.633,16.499,1.777,24.487,4.883C364.826,105.125,369.954,111.841,358.779,117.961z"
		/>
	<path opacity="0.9" enable-background="new    " d="M337.92,153.966c-5.902,3.233-16.508,3.621-22.731,3.153
		c-3.902-0.293-7.644-0.823-11.346-2.261c-4.744-1.843-7.121-4.954-1.941-7.79c5.903-3.234,16.507-3.62,22.731-3.154
		c3.903,0.294,7.645,0.824,11.346,2.263C340.722,148.019,343.098,151.13,337.92,153.966z"/>
	<path fill="none" stroke="#000000" stroke-width="0.5" stroke-linecap="round" stroke-linejoin="round" d="M337.92,153.966
		c-5.902,3.233-16.508,3.621-22.731,3.153c-3.902-0.293-7.644-0.823-11.346-2.261c-4.744-1.843-7.121-4.954-1.941-7.79
		c5.903-3.234,16.507-3.62,22.731-3.154c3.903,0.294,7.645,0.824,11.346,2.263C340.722,148.019,343.098,151.13,337.92,153.966z"/>
	<g>
		<path d="M267.908,174.738v-5.296h19.626v5.296h-6.693v17.904h-6.24v-17.904H267.908z"/>
		<path d="M301.246,190.71c-1.559,1.613-3.747,2.42-6.562,2.42c-2.773,0-4.929-0.785-6.467-2.354
			c-1.538-1.57-2.307-3.771-2.307-6.613c0-2.881,0.785-5.117,2.355-6.709s3.753-2.389,6.547-2.389c2.773,0,4.929,0.785,6.467,2.355
			s2.307,3.774,2.307,6.612C303.586,186.872,302.806,189.095,301.246,190.71z M292.62,187.443c0.509,0.671,1.218,1.007,2.128,1.007
			c0.91,0,1.619-0.336,2.128-1.007c0.51-0.671,0.764-1.787,0.764-3.347c0-1.561-0.254-2.676-0.764-3.346
			c-0.509-0.673-1.218-1.009-2.128-1.009c-0.91,0-1.619,0.336-2.128,1.009c-0.51,0.67-0.764,1.786-0.764,3.346
			S292.11,186.772,292.62,187.443z"/>
		<path d="M317.981,190.726c-1.213,1.625-2.87,2.437-4.972,2.437c-2.188,0-3.872-0.769-5.053-2.307
			c-1.181-1.538-1.771-3.704-1.771-6.499c0-1.473,0.167-2.788,0.503-3.948c0.336-1.159,0.818-2.133,1.446-2.924
			s1.381-1.392,2.259-1.803c0.877-0.412,1.857-0.618,2.94-0.618c1.906,0,3.4,0.672,4.483,2.015v-7.636h5.881v23.2h-5.719v-1.917
			H317.981z M317.64,181.952c-0.12-0.52-0.288-0.932-0.505-1.234c-0.26-0.369-0.579-0.623-0.958-0.765
			c-0.379-0.141-0.764-0.211-1.153-0.211c-0.866,0-1.565,0.325-2.096,0.976c-0.531,0.649-0.796,1.775-0.796,3.379
			c0,1.582,0.26,2.697,0.78,3.347c0.519,0.649,1.213,0.976,2.079,0.976c0.411,0,0.802-0.076,1.169-0.229
			c0.368-0.15,0.694-0.434,0.975-0.846c0.455-0.649,0.683-1.635,0.683-2.959v-0.486C317.818,183.122,317.759,182.473,317.64,181.952
			z"/>
		<path d="M337.284,190.79c-0.693,0.737-1.445,1.305-2.26,1.707c-0.812,0.4-1.781,0.603-2.908,0.603
			c-0.758,0-1.482-0.099-2.177-0.292c-0.694-0.195-1.305-0.506-1.836-0.93c-0.53-0.422-0.952-0.953-1.271-1.592
			c-0.312-0.639-0.471-1.414-0.471-2.322c0-1.041,0.211-1.912,0.635-2.615c0.423-0.703,1.002-1.276,1.738-1.721
			c0.733-0.445,1.604-0.77,2.6-0.976s2.068-0.341,3.219-0.405l2.564-0.131v-0.684c0-0.846-0.205-1.43-0.617-1.756
			c-0.408-0.324-0.932-0.486-1.561-0.486c-1.345,0-2.111,0.562-2.31,1.689l-5.298-0.422c0.306-1.82,1.117-3.175,2.438-4.062
			c1.322-0.889,3.132-1.333,5.429-1.333c1.432,0,2.627,0.168,3.59,0.504c0.967,0.336,1.738,0.808,2.324,1.414
			c0.584,0.606,1.008,1.337,1.27,2.192c0.26,0.856,0.391,1.814,0.391,2.877v10.593h-5.49V190.79L337.284,190.79z M335.204,185.526
			c-1.234,0.064-2.074,0.271-2.521,0.618c-0.442,0.346-0.664,0.801-0.664,1.364c0,0.562,0.166,0.964,0.502,1.201
			c0.337,0.236,0.808,0.356,1.414,0.356c0.91,0,1.662-0.255,2.259-0.767c0.596-0.508,0.895-1.271,0.895-2.291v-0.584
			L335.204,185.526z"/>
		<path d="M353.724,185.104l2.988-9.521h6.106l-6.82,17.125c-0.453,1.127-0.883,2.084-1.281,2.875
			c-0.4,0.791-0.854,1.438-1.352,1.936c-0.498,0.499-1.062,0.859-1.688,1.089c-0.627,0.229-1.397,0.341-2.31,0.341
			c-0.69,0-1.371-0.062-2.028-0.179c-0.662-0.119-1.272-0.269-1.836-0.438l0.877-4.258c0.303,0.064,0.629,0.125,0.976,0.18
			c0.348,0.056,0.672,0.082,0.975,0.082c0.543,0,1.014-0.138,1.414-0.408c0.399-0.27,0.729-0.783,0.99-1.543l0.356-1.039
			l-6.983-15.762h6.366L353.724,185.104z"/>
		<path d="M361.881,188.147c0.16-0.395,0.383-0.729,0.662-1.004c0.281-0.275,0.613-0.487,0.998-0.635
			c0.385-0.146,0.801-0.219,1.246-0.219c0.447,0,0.858,0.07,1.24,0.219c0.379,0.146,0.709,0.359,0.987,0.642
			c0.281,0.281,0.5,0.615,0.656,1.005c0.153,0.389,0.233,0.826,0.233,1.311c0,0.485-0.082,0.927-0.242,1.318
			c-0.159,0.395-0.383,0.729-0.659,1.006c-0.281,0.274-0.613,0.485-0.998,0.633c-0.388,0.147-0.804,0.224-1.248,0.224
			c-0.445,0-0.861-0.074-1.246-0.224c-0.388-0.146-0.715-0.355-0.99-0.633c-0.274-0.277-0.491-0.606-0.647-0.998
			c-0.154-0.39-0.234-0.826-0.234-1.311C361.638,188.985,361.72,188.542,361.881,188.147z M363.129,191.226
			c0.393,0.412,0.941,0.619,1.646,0.619c0.69,0,1.237-0.204,1.639-0.612c0.396-0.409,0.6-0.998,0.6-1.767
			c0-0.779-0.201-1.371-0.604-1.773c-0.401-0.404-0.946-0.605-1.631-0.605c-0.693,0-1.24,0.203-1.641,0.612
			c-0.396,0.408-0.602,0.997-0.602,1.767C362.536,190.226,362.733,190.812,363.129,191.226z M365.657,189.751l0.584,1.211h-0.996
			l-0.441-0.981h-0.43v0.981h-0.896V187.9h1.312c0.455,0,0.783,0.088,0.981,0.263c0.199,0.178,0.3,0.428,0.3,0.748
			C366.069,189.279,365.931,189.561,365.657,189.751z M364.73,189.279c0.162,0,0.273-0.03,0.335-0.092
			c0.062-0.062,0.094-0.146,0.094-0.249s-0.033-0.186-0.103-0.242c-0.063-0.057-0.188-0.086-0.369-0.086h-0.313v0.669H364.73z"/>
	</g>
	<g>
		<path d="M98.69,35.172v-1.049h5.717v1.049h-2.249v6.087h-1.209v-6.087H98.69z"/>
		<path d="M107.828,34.123c0.54,0,0.985,0.06,1.334,0.18s0.625,0.279,0.825,0.479c0.2,0.2,0.34,0.432,0.419,0.694
			c0.08,0.264,0.12,0.538,0.12,0.825c0,0.307-0.04,0.6-0.12,0.879c-0.08,0.28-0.221,0.525-0.425,0.735
			c-0.203,0.21-0.478,0.376-0.824,0.499c-0.347,0.124-0.783,0.186-1.31,0.186h-1.299v2.658h-1.189v-7.136H107.828z M108.572,37.501
			c0.197-0.061,0.352-0.146,0.465-0.255c0.113-0.11,0.191-0.241,0.235-0.395s0.065-0.327,0.065-0.521
			c0-0.199-0.023-0.374-0.07-0.524c-0.047-0.149-0.128-0.274-0.245-0.375c-0.116-0.1-0.273-0.176-0.47-0.229
			c-0.196-0.054-0.444-0.08-0.745-0.08h-1.259v2.469h1.27C108.125,37.591,108.376,37.561,108.572,37.501z"/>
		<path d="M116.437,34.123v1.039h-3.538v1.899h3.338v1.049h-3.338v2.109h3.728l-0.14,1.039h-4.797v-7.136H116.437z"/>
		<path d="M118.889,34.123v2.888h3.208v-2.888h1.209v7.136h-1.209v-3.128h-3.208v3.128h-1.209v-7.136H118.889z"/>
		<path d="M125.374,39.33c0.15-0.347,0.278-0.722,0.385-1.125c0.107-0.402,0.197-0.821,0.27-1.254s0.13-0.856,0.17-1.27l0.15-1.559
			h4.147v6.086h0.76v2.779h-1.069v-1.729h-4.967v1.729h-1.069v-2.779h0.709C125.053,39.97,125.224,39.677,125.374,39.33z
			 M127.153,37.266c-0.057,0.384-0.13,0.752-0.22,1.104c-0.09,0.354-0.195,0.688-0.314,1.005c-0.12,0.316-0.263,0.595-0.43,0.834
			h3.108v-5.066h-1.899l-0.1,0.989C127.258,36.505,127.21,36.883,127.153,37.266z"/>
		<path d="M135.962,36.871c0.35,0.127,0.628,0.295,0.834,0.505s0.354,0.451,0.44,0.725s0.13,0.56,0.13,0.859
			c0,0.313-0.043,0.609-0.13,0.89s-0.237,0.524-0.45,0.734c-0.213,0.21-0.498,0.375-0.854,0.495s-0.805,0.18-1.344,0.18h-2.369
			v-7.136h1.199v2.559h1.229C135.175,36.682,135.613,36.744,135.962,36.871z M134.608,40.26c0.586,0,0.993-0.107,1.219-0.32
			s0.34-0.526,0.34-0.939c0-0.206-0.025-0.392-0.075-0.555c-0.05-0.163-0.136-0.3-0.26-0.41c-0.123-0.109-0.287-0.194-0.49-0.255
			c-0.203-0.06-0.455-0.09-0.754-0.09h-1.169v2.569H134.608z M139.646,34.123v7.136h-1.199v-7.136H139.646z"/>
	</g>
	<g>
		<path d="M100.729,75.457l2.029,5.677l2.089-5.677h1.419v7.136h-1.109v-5.188l-1.959,5.188h-0.959l-1.889-5.177v5.177H99.26v-7.136
			H100.729z"/>
		<path d="M112.107,77.405l-3.198,5.188h-1.119v-7.136h1.179v5.217l3.188-5.217h1.12v7.136h-1.169V77.405z"/>
		<path d="M117.268,75.457c0.54,0,0.985,0.06,1.334,0.18s0.625,0.279,0.825,0.479c0.2,0.2,0.34,0.432,0.419,0.694
			c0.08,0.264,0.12,0.538,0.12,0.825c0,0.307-0.04,0.6-0.12,0.879c-0.08,0.28-0.221,0.525-0.425,0.735
			c-0.203,0.21-0.478,0.376-0.824,0.499c-0.347,0.124-0.783,0.186-1.31,0.186h-1.299v2.658H114.8v-7.136H117.268z M118.013,78.835
			c0.197-0.061,0.352-0.146,0.465-0.255c0.113-0.11,0.191-0.241,0.235-0.395s0.065-0.327,0.065-0.521
			c0-0.199-0.023-0.374-0.07-0.524c-0.047-0.149-0.128-0.274-0.245-0.375c-0.116-0.1-0.273-0.176-0.47-0.229
			c-0.196-0.054-0.444-0.08-0.745-0.08h-1.259v2.469h1.27C117.565,78.925,117.816,78.895,118.013,78.835z"/>
		<path d="M122.854,82.518c-0.41-0.17-0.762-0.414-1.055-0.734c-0.293-0.319-0.518-0.711-0.675-1.175
			c-0.156-0.463-0.235-0.987-0.235-1.573c0-0.587,0.08-1.113,0.24-1.579c0.16-0.467,0.386-0.861,0.679-1.185
			c0.293-0.323,0.646-0.57,1.06-0.74s0.87-0.255,1.369-0.255c0.507,0,0.966,0.085,1.379,0.255s0.763,0.415,1.049,0.735
			c0.287,0.319,0.508,0.711,0.665,1.174c0.156,0.463,0.234,0.988,0.234,1.574c0,0.593-0.076,1.121-0.229,1.584
			s-0.373,0.856-0.66,1.18s-0.635,0.569-1.044,0.739s-0.875,0.255-1.395,0.255C123.725,82.772,123.263,82.688,122.854,82.518z
			 M125.787,81.009c0.353-0.483,0.53-1.145,0.53-1.984c0-0.42-0.045-0.796-0.135-1.129c-0.09-0.333-0.222-0.616-0.395-0.85
			s-0.39-0.413-0.649-0.54c-0.26-0.126-0.563-0.189-0.91-0.189s-0.65,0.063-0.91,0.189c-0.26,0.127-0.478,0.307-0.654,0.54
			c-0.177,0.233-0.309,0.517-0.395,0.85s-0.13,0.709-0.13,1.129c0,0.84,0.175,1.501,0.525,1.984c0.35,0.483,0.871,0.725,1.564,0.725
			C124.914,81.733,125.434,81.492,125.787,81.009z"/>
		<path d="M131.318,75.457c0.52,0,0.946,0.048,1.279,0.145c0.333,0.097,0.598,0.229,0.795,0.399c0.196,0.17,0.332,0.37,0.405,0.6
			c0.073,0.23,0.11,0.476,0.11,0.735c0,0.3-0.067,0.578-0.2,0.834c-0.133,0.257-0.376,0.469-0.729,0.635
			c0.227,0.101,0.413,0.214,0.56,0.34c0.147,0.127,0.263,0.262,0.35,0.405c0.086,0.143,0.146,0.293,0.18,0.449
			c0.034,0.157,0.05,0.315,0.05,0.475c0,0.294-0.045,0.57-0.135,0.83c-0.09,0.26-0.238,0.484-0.445,0.675
			c-0.207,0.189-0.476,0.34-0.809,0.449c-0.333,0.11-0.743,0.165-1.229,0.165h-2.648v-7.136H131.318z M132.447,78.125
			c0.187-0.173,0.28-0.423,0.28-0.749c0-0.34-0.108-0.585-0.325-0.735c-0.216-0.149-0.591-0.225-1.124-0.225h-1.26v1.969h1.439
			C131.931,78.385,132.261,78.299,132.447,78.125z M132.173,81.543c0.189-0.053,0.339-0.13,0.45-0.229
			c0.11-0.1,0.188-0.22,0.235-0.359c0.046-0.141,0.07-0.297,0.07-0.47c0-0.36-0.102-0.635-0.305-0.825
			c-0.204-0.189-0.555-0.284-1.055-0.284h-1.549v2.248h1.439C131.745,81.623,131.983,81.597,132.173,81.543z"/>
		<path d="M136.974,82.518c-0.41-0.17-0.762-0.414-1.055-0.734c-0.293-0.319-0.518-0.711-0.675-1.175
			c-0.156-0.463-0.235-0.987-0.235-1.573c0-0.587,0.08-1.113,0.24-1.579c0.16-0.467,0.386-0.861,0.679-1.185
			c0.293-0.323,0.646-0.57,1.06-0.74s0.87-0.255,1.369-0.255c0.507,0,0.966,0.085,1.379,0.255s0.763,0.415,1.049,0.735
			c0.287,0.319,0.508,0.711,0.665,1.174c0.156,0.463,0.234,0.988,0.234,1.574c0,0.593-0.076,1.121-0.229,1.584
			s-0.373,0.856-0.66,1.18s-0.635,0.569-1.044,0.739s-0.875,0.255-1.395,0.255C137.845,82.772,137.383,82.688,136.974,82.518z
			 M139.907,81.009c0.353-0.483,0.53-1.145,0.53-1.984c0-0.42-0.045-0.796-0.135-1.129c-0.09-0.333-0.222-0.616-0.395-0.85
			s-0.39-0.413-0.649-0.54c-0.26-0.126-0.563-0.189-0.91-0.189s-0.65,0.063-0.91,0.189c-0.26,0.127-0.478,0.307-0.654,0.54
			c-0.177,0.233-0.309,0.517-0.395,0.85s-0.13,0.709-0.13,1.129c0,0.84,0.175,1.501,0.525,1.984c0.35,0.483,0.871,0.725,1.564,0.725
			C139.034,81.733,139.554,81.492,139.907,81.009z"/>
		<path d="M147.287,77.405l-3.198,5.188h-1.119v-7.136h1.179v5.217l3.188-5.217h1.12v7.136h-1.169V77.405z M145.113,73.963
			c0.144,0.123,0.335,0.185,0.575,0.185s0.432-0.062,0.575-0.185c0.143-0.124,0.222-0.312,0.235-0.565h0.839
			c0,0.467-0.145,0.83-0.435,1.09c-0.29,0.26-0.695,0.39-1.214,0.39c-0.54,0-0.946-0.13-1.219-0.39
			c-0.273-0.26-0.41-0.623-0.41-1.09h0.819C144.891,73.651,144.97,73.839,145.113,73.963z"/>
		<path d="M153.933,82.518c-0.41-0.17-0.761-0.414-1.054-0.734c-0.293-0.319-0.518-0.711-0.675-1.175
			c-0.156-0.463-0.235-0.987-0.235-1.573c0-0.587,0.08-1.113,0.24-1.579c0.16-0.467,0.386-0.861,0.68-1.185
			c0.293-0.323,0.646-0.57,1.059-0.74s0.87-0.255,1.369-0.255c0.506,0,0.966,0.085,1.379,0.255s0.763,0.415,1.049,0.735
			c0.287,0.319,0.508,0.711,0.665,1.174c0.157,0.463,0.235,0.988,0.235,1.574c0,0.593-0.077,1.121-0.23,1.584
			s-0.373,0.856-0.66,1.18s-0.635,0.569-1.044,0.739s-0.875,0.255-1.395,0.255C154.804,82.772,154.343,82.688,153.933,82.518z
			 M156.866,81.009c0.353-0.483,0.53-1.145,0.53-1.984c0-0.42-0.045-0.796-0.135-1.129c-0.09-0.333-0.222-0.616-0.395-0.85
			s-0.39-0.413-0.649-0.54c-0.26-0.126-0.563-0.189-0.91-0.189s-0.65,0.063-0.91,0.189c-0.26,0.127-0.478,0.307-0.654,0.54
			c-0.177,0.233-0.309,0.517-0.395,0.85s-0.13,0.709-0.13,1.129c0,0.84,0.175,1.501,0.525,1.984c0.35,0.483,0.871,0.725,1.564,0.725
			C155.993,81.733,156.513,81.492,156.866,81.009z"/>
		<path d="M161.138,76.506v6.087h-1.209v-7.136h5.477v7.136h-1.209v-6.087H161.138z"/>
		<path d="M170.672,78.205c0.35,0.127,0.628,0.295,0.834,0.505s0.354,0.451,0.44,0.725s0.13,0.56,0.13,0.859
			c0,0.313-0.043,0.609-0.13,0.89s-0.236,0.524-0.45,0.734s-0.498,0.375-0.854,0.495s-0.805,0.18-1.344,0.18h-2.369v-7.136h1.199
			v2.559h1.229C169.884,78.016,170.322,78.078,170.672,78.205z M169.318,81.594c0.586,0,0.993-0.107,1.219-0.32
			s0.34-0.526,0.34-0.939c0-0.206-0.025-0.392-0.075-0.555c-0.05-0.163-0.136-0.3-0.26-0.41c-0.123-0.109-0.287-0.194-0.49-0.255
			c-0.203-0.06-0.455-0.09-0.754-0.09h-1.169v2.569H169.318z M174.355,75.457v7.136h-1.199v-7.136H174.355z"/>
		<path d="M175.309,76.506v-1.049h5.717v1.049h-2.249v6.087h-1.209v-6.087H175.309z"/>
	</g>
	<g>
		<path d="M104.966,120.881c-0.14,0.312-0.333,0.586-0.58,0.819s-0.546,0.415-0.899,0.545s-0.763,0.194-1.229,0.194
			c-0.513,0-0.971-0.086-1.374-0.26c-0.403-0.173-0.743-0.421-1.02-0.744s-0.486-0.717-0.63-1.18
			c-0.143-0.463-0.215-0.981-0.215-1.554c0-0.587,0.079-1.113,0.235-1.579c0.157-0.467,0.378-0.861,0.665-1.185
			c0.286-0.323,0.629-0.57,1.029-0.74s0.839-0.255,1.319-0.255c0.446,0,0.833,0.057,1.159,0.17s0.604,0.275,0.834,0.485
			s0.413,0.461,0.55,0.754c0.137,0.294,0.238,0.62,0.305,0.979l-1.189,0.17c-0.054-0.239-0.12-0.453-0.2-0.64
			s-0.185-0.345-0.315-0.475s-0.288-0.229-0.475-0.3c-0.187-0.069-0.41-0.104-0.669-0.104c-0.32,0-0.603,0.063-0.85,0.189
			c-0.247,0.127-0.455,0.309-0.625,0.545s-0.298,0.521-0.385,0.854c-0.087,0.333-0.13,0.706-0.13,1.119
			c0,0.42,0.045,0.797,0.135,1.13s0.222,0.618,0.395,0.854c0.173,0.236,0.382,0.416,0.625,0.539
			c0.243,0.124,0.521,0.186,0.834,0.186c0.28,0,0.518-0.037,0.714-0.11c0.197-0.073,0.362-0.177,0.495-0.31
			c0.133-0.133,0.238-0.295,0.315-0.484c0.077-0.19,0.132-0.405,0.165-0.645h1.279C105.196,120.225,105.106,120.567,104.966,120.881
			z"/>
		<path d="M106.32,121.431c0.14,0.033,0.283,0.05,0.43,0.05c0.273,0,0.511-0.068,0.715-0.205c0.203-0.137,0.378-0.371,0.524-0.705
			l0.16-0.35l-2.599-5.097h1.339l1.839,3.928l1.539-3.928h1.239l-2.358,5.457c-0.14,0.319-0.283,0.595-0.43,0.824
			c-0.146,0.229-0.314,0.422-0.504,0.574c-0.19,0.153-0.403,0.269-0.64,0.346c-0.237,0.076-0.515,0.114-0.834,0.114
			c-0.207,0-0.398-0.02-0.575-0.06c-0.177-0.04-0.312-0.083-0.405-0.13l0.24-0.92C106.073,121.363,106.18,121.396,106.32,121.431z"
			/>
		<path d="M112.31,115.124h1.209v6.086h2.379v-6.086h1.209v6.086h2.378v-6.086h1.209v6.086h0.76v2.779h-1.07v-1.729h-8.075V115.124z
			"/>
		<path d="M127.177,115.124v1.039h-3.538v1.899h3.338v1.049h-3.338v2.109h3.728l-0.14,1.039h-4.797v-7.136H127.177z"/>
		<path d="M134.126,120.881c-0.14,0.312-0.333,0.586-0.58,0.819s-0.546,0.415-0.899,0.545s-0.763,0.194-1.229,0.194
			c-0.513,0-0.971-0.086-1.374-0.26c-0.403-0.173-0.743-0.421-1.02-0.744s-0.486-0.717-0.63-1.18
			c-0.143-0.463-0.215-0.981-0.215-1.554c0-0.587,0.079-1.113,0.235-1.579c0.157-0.467,0.378-0.861,0.665-1.185
			c0.286-0.323,0.629-0.57,1.029-0.74s0.839-0.255,1.319-0.255c0.446,0,0.833,0.057,1.159,0.17s0.604,0.275,0.834,0.485
			s0.413,0.461,0.55,0.754c0.137,0.294,0.238,0.62,0.305,0.979l-1.189,0.17c-0.054-0.239-0.12-0.453-0.2-0.64
			s-0.185-0.345-0.315-0.475c-0.13-0.13-0.288-0.229-0.475-0.3c-0.187-0.069-0.41-0.104-0.669-0.104c-0.32,0-0.603,0.063-0.85,0.189
			c-0.247,0.127-0.455,0.309-0.625,0.545s-0.298,0.521-0.385,0.854c-0.087,0.333-0.13,0.706-0.13,1.119
			c0,0.42,0.045,0.797,0.135,1.13s0.221,0.618,0.395,0.854s0.381,0.416,0.625,0.539c0.243,0.124,0.521,0.186,0.834,0.186
			c0.28,0,0.518-0.037,0.714-0.11c0.197-0.073,0.362-0.177,0.495-0.31c0.133-0.133,0.238-0.295,0.315-0.484
			c0.077-0.19,0.132-0.405,0.165-0.645h1.279C134.356,120.225,134.266,120.567,134.126,120.881z"/>
		<path d="M134.97,116.173v-1.049h5.717v1.049h-2.249v6.087h-1.209v-6.087H134.97z"/>
		<path d="M144.107,115.124c0.52,0,0.946,0.048,1.279,0.145c0.333,0.097,0.598,0.229,0.795,0.399c0.196,0.17,0.332,0.37,0.405,0.6
			c0.073,0.23,0.11,0.476,0.11,0.735c0,0.3-0.067,0.578-0.2,0.834c-0.133,0.257-0.376,0.469-0.729,0.635
			c0.227,0.101,0.413,0.214,0.56,0.34c0.147,0.127,0.263,0.262,0.35,0.405c0.086,0.143,0.146,0.293,0.18,0.449
			c0.034,0.157,0.05,0.315,0.05,0.475c0,0.294-0.045,0.57-0.135,0.83c-0.09,0.26-0.238,0.484-0.445,0.675
			c-0.207,0.189-0.476,0.34-0.81,0.449c-0.333,0.11-0.743,0.165-1.229,0.165h-2.648v-7.136H144.107z M145.237,117.792
			c0.187-0.173,0.28-0.423,0.28-0.749c0-0.34-0.108-0.585-0.325-0.735c-0.216-0.149-0.591-0.225-1.124-0.225h-1.26v1.969h1.439
			C144.721,118.052,145.05,117.966,145.237,117.792z M144.962,121.21c0.19-0.053,0.34-0.13,0.45-0.229
			c0.11-0.1,0.188-0.22,0.235-0.359c0.046-0.141,0.07-0.297,0.07-0.47c0-0.36-0.102-0.635-0.305-0.825
			c-0.204-0.189-0.555-0.284-1.055-0.284h-1.549v2.248h1.439C144.534,121.29,144.772,121.264,144.962,121.21z"/>
		<path d="M148.089,121.431c0.14,0.033,0.283,0.05,0.43,0.05c0.273,0,0.511-0.068,0.715-0.205c0.203-0.137,0.378-0.371,0.524-0.705
			l0.16-0.35l-2.599-5.097h1.339l1.839,3.928l1.539-3.928h1.239l-2.358,5.457c-0.14,0.319-0.283,0.595-0.43,0.824
			c-0.146,0.229-0.314,0.422-0.504,0.574c-0.19,0.153-0.403,0.269-0.64,0.346c-0.237,0.076-0.515,0.114-0.834,0.114
			c-0.207,0-0.398-0.02-0.575-0.06c-0.177-0.04-0.312-0.083-0.405-0.13l0.24-0.92C147.843,121.363,147.949,121.396,148.089,121.431z
			"/>
		<path d="M157.792,121.575c-0.557-0.576-0.865-1.401-0.925-2.474h-1.579v3.158h-1.209v-7.136h1.209v2.948h1.589
			c0.106-0.993,0.441-1.763,1.004-2.309c0.563-0.547,1.301-0.82,2.214-0.82c0.5,0,0.949,0.085,1.349,0.255s0.741,0.415,1.024,0.735
			c0.283,0.319,0.5,0.711,0.65,1.174s0.225,0.988,0.225,1.574c0,0.593-0.073,1.123-0.22,1.589c-0.146,0.467-0.36,0.86-0.64,1.18
			c-0.28,0.32-0.622,0.564-1.024,0.734c-0.403,0.17-0.858,0.255-1.364,0.255C159.116,122.439,158.348,122.151,157.792,121.575z
			 M158.582,116.698c-0.33,0.476-0.495,1.141-0.495,1.993c0,0.847,0.161,1.51,0.484,1.989s0.828,0.72,1.514,0.72
			c0.68,0,1.185-0.238,1.514-0.715c0.33-0.477,0.495-1.141,0.495-1.994c0-0.839-0.165-1.501-0.495-1.983
			c-0.33-0.483-0.828-0.725-1.494-0.725C159.419,115.983,158.911,116.222,158.582,116.698z"/>
		<path d="M164.629,115.124h1.209v6.086h2.379v-6.086h1.209v6.086h2.378v-6.086h1.209v6.086h0.76v2.779h-1.07v-1.729h-8.075V115.124
			z"/>
		<path d="M179.066,117.072l-3.198,5.188h-1.119v-7.136h1.179v5.217l3.188-5.217h1.12v7.136h-1.169V117.072z"/>
		<path d="M186.506,115.124v1.039h-3.538v1.899h3.338v1.049h-3.338v2.109h3.728l-0.14,1.039h-4.797v-7.136H186.506z"/>
		<path d="M103.577,129.072l-3.198,5.188H99.26v-7.136h1.179v5.217l3.188-5.217h1.12v7.136h-1.169V129.072z"/>
		<path d="M107.479,127.124v2.888h3.208v-2.888h1.209v7.136h-1.209v-3.128h-3.208v3.128h-1.209v-7.136H107.479z"/>
		<path d="M114.628,127.124v2.888h3.208v-2.888h1.209v7.136h-1.209v-3.128h-3.208v3.128h-1.209v-7.136H114.628z"/>
		<path d="M122.293,134.185c-0.41-0.17-0.761-0.414-1.054-0.734c-0.293-0.319-0.518-0.711-0.675-1.175
			c-0.156-0.463-0.235-0.987-0.235-1.573c0-0.587,0.08-1.113,0.24-1.579c0.16-0.467,0.386-0.861,0.68-1.185
			c0.293-0.323,0.646-0.57,1.059-0.74s0.87-0.255,1.369-0.255c0.506,0,0.966,0.085,1.379,0.255s0.763,0.415,1.049,0.735
			c0.287,0.319,0.508,0.711,0.665,1.174c0.157,0.463,0.235,0.988,0.235,1.574c0,0.593-0.077,1.121-0.23,1.584
			s-0.373,0.856-0.66,1.18s-0.635,0.569-1.044,0.739s-0.875,0.255-1.395,0.255C123.165,134.439,122.703,134.354,122.293,134.185z
			 M125.227,132.676c0.353-0.483,0.53-1.145,0.53-1.984c0-0.42-0.045-0.796-0.135-1.129c-0.09-0.333-0.222-0.616-0.395-0.85
			s-0.39-0.413-0.649-0.54c-0.26-0.126-0.563-0.189-0.91-0.189s-0.65,0.063-0.91,0.189c-0.26,0.127-0.478,0.307-0.654,0.54
			c-0.177,0.233-0.309,0.517-0.395,0.85s-0.13,0.709-0.13,1.129c0,0.84,0.175,1.501,0.525,1.984c0.35,0.483,0.871,0.725,1.564,0.725
			C124.354,133.4,124.874,133.159,125.227,132.676z"/>
		<path d="M130.758,127.124c0.52,0,0.946,0.048,1.279,0.145c0.333,0.097,0.598,0.229,0.795,0.399c0.196,0.17,0.332,0.37,0.405,0.6
			c0.073,0.23,0.11,0.476,0.11,0.735c0,0.3-0.067,0.578-0.2,0.834c-0.133,0.257-0.376,0.469-0.729,0.635
			c0.227,0.101,0.413,0.214,0.56,0.34c0.147,0.127,0.263,0.262,0.35,0.405c0.086,0.143,0.146,0.293,0.18,0.449
			c0.034,0.157,0.05,0.315,0.05,0.475c0,0.294-0.045,0.57-0.135,0.83c-0.09,0.26-0.238,0.484-0.445,0.675
			c-0.207,0.189-0.476,0.34-0.81,0.449c-0.333,0.11-0.743,0.165-1.229,0.165h-2.648v-7.136H130.758z M131.887,129.792
			c0.187-0.173,0.28-0.423,0.28-0.749c0-0.34-0.108-0.585-0.325-0.735c-0.216-0.149-0.591-0.225-1.124-0.225h-1.26v1.969h1.439
			C131.371,130.052,131.701,129.966,131.887,129.792z M131.612,133.21c0.19-0.053,0.34-0.13,0.45-0.229
			c0.11-0.1,0.188-0.22,0.235-0.359c0.046-0.141,0.07-0.297,0.07-0.47c0-0.36-0.102-0.635-0.305-0.825
			c-0.204-0.189-0.555-0.284-1.055-0.284h-1.549v2.248h1.439C131.185,133.29,131.423,133.264,131.612,133.21z"/>
		<path d="M137.848,127.124l2.718,7.136h-1.289l-0.669-1.819h-2.769l-0.66,1.819h-1.25l2.719-7.136H137.848z M137.218,128.493
			l-1.049,2.938h2.109L137.218,128.493z"/>
		<path d="M141.439,127.124h1.209v6.086h2.938v-6.086h1.209v6.086h0.759v2.779h-1.069v-1.729h-5.047V127.124z"/>
		<path d="M152.847,129.072l-3.198,5.188h-1.119v-7.136h1.179v5.217l3.188-5.217h1.12v7.136h-1.169V129.072z"/>
		<path d="M159.857,129.072l-3.198,5.188h-1.119v-7.136h1.179v5.217l3.188-5.217h1.12v7.136h-1.169V129.072z"/>
	</g>
	<g>
		<path d="M100.469,153.791v2.888h3.208v-2.888h1.209v7.136h-1.209v-3.128h-3.208v3.128H99.26v-7.136H100.469z"/>
		<path d="M108.134,160.852c-0.41-0.17-0.762-0.414-1.055-0.734c-0.293-0.319-0.518-0.711-0.675-1.175
			c-0.156-0.463-0.235-0.987-0.235-1.573c0-0.587,0.08-1.113,0.24-1.579c0.16-0.467,0.386-0.861,0.679-1.185
			c0.293-0.323,0.646-0.57,1.06-0.74s0.87-0.255,1.369-0.255c0.507,0,0.966,0.085,1.379,0.255s0.763,0.415,1.049,0.735
			c0.287,0.319,0.508,0.711,0.665,1.174c0.156,0.463,0.234,0.988,0.234,1.574c0,0.593-0.076,1.121-0.229,1.584
			s-0.373,0.856-0.66,1.18s-0.635,0.569-1.044,0.739s-0.875,0.255-1.395,0.255C109.005,161.106,108.543,161.021,108.134,160.852z
			 M111.067,159.343c0.353-0.483,0.53-1.145,0.53-1.984c0-0.42-0.045-0.796-0.135-1.129c-0.09-0.333-0.222-0.616-0.395-0.85
			s-0.39-0.413-0.649-0.54c-0.26-0.126-0.563-0.189-0.91-0.189s-0.65,0.063-0.91,0.189c-0.26,0.127-0.478,0.307-0.654,0.54
			c-0.177,0.233-0.309,0.517-0.395,0.85s-0.13,0.709-0.13,1.129c0,0.84,0.175,1.501,0.525,1.984c0.35,0.483,0.871,0.725,1.564,0.725
			C110.194,160.067,110.714,159.826,111.067,159.343z"/>
		<path d="M116.598,153.791c0.52,0,0.946,0.048,1.279,0.145c0.333,0.097,0.598,0.229,0.795,0.399c0.196,0.17,0.332,0.37,0.405,0.6
			c0.073,0.23,0.11,0.476,0.11,0.735c0,0.3-0.067,0.578-0.2,0.834c-0.133,0.257-0.376,0.469-0.729,0.635
			c0.227,0.101,0.413,0.214,0.56,0.34c0.147,0.127,0.263,0.262,0.35,0.405c0.086,0.143,0.146,0.293,0.18,0.449
			c0.034,0.157,0.05,0.315,0.05,0.475c0,0.294-0.045,0.57-0.135,0.83c-0.09,0.26-0.238,0.484-0.445,0.675
			c-0.207,0.189-0.476,0.34-0.81,0.449c-0.333,0.11-0.743,0.165-1.229,0.165h-2.648v-7.136H116.598z M117.727,156.459
			c0.187-0.173,0.28-0.423,0.28-0.749c0-0.34-0.108-0.585-0.325-0.735c-0.216-0.149-0.591-0.225-1.124-0.225h-1.26v1.969h1.439
			C117.211,156.719,117.541,156.633,117.727,156.459z M117.452,159.877c0.19-0.053,0.34-0.13,0.45-0.229
			c0.11-0.1,0.188-0.22,0.235-0.359c0.046-0.141,0.07-0.297,0.07-0.47c0-0.36-0.102-0.635-0.305-0.825
			c-0.204-0.189-0.555-0.284-1.055-0.284h-1.549v2.248h1.439C117.024,159.957,117.263,159.931,117.452,159.877z"/>
		<path d="M124.272,156.539c0.35,0.127,0.628,0.295,0.834,0.505s0.354,0.451,0.44,0.725s0.13,0.56,0.13,0.859
			c0,0.313-0.043,0.609-0.13,0.89s-0.236,0.524-0.45,0.734s-0.498,0.375-0.854,0.495s-0.805,0.18-1.344,0.18h-2.369v-7.136h1.199
			v2.559h1.229C123.485,156.35,123.923,156.412,124.272,156.539z M122.918,159.928c0.586,0,0.993-0.107,1.219-0.32
			s0.34-0.526,0.34-0.939c0-0.206-0.025-0.392-0.075-0.555c-0.05-0.163-0.136-0.3-0.26-0.41c-0.123-0.109-0.287-0.194-0.49-0.255
			c-0.203-0.06-0.455-0.09-0.754-0.09h-1.169v2.569H122.918z M127.956,153.791v7.136h-1.199v-7.136H127.956z"/>
		<path d="M134.227,153.791v1.039h-3.538v1.899h3.338v1.049h-3.338v2.109h3.728l-0.14,1.039h-4.797v-7.136H134.227z"/>
		<path d="M137.129,154.84v-1.049h5.717v1.049h-2.249v6.087h-1.209v-6.087H137.129z"/>
		<path d="M148.546,153.791v1.039h-3.538v1.899h3.338v1.049h-3.338v2.109h3.728l-0.14,1.039h-4.797v-7.136H148.546z"/>
		<path d="M149.469,153.791h1.379l1.639,2.498l1.659-2.498h1.299l-2.299,3.418l2.579,3.718h-1.389l-1.899-2.818l-1.839,2.818h-1.31
			l2.499-3.768L149.469,153.791z"/>
		<path d="M157.778,153.791v2.888h3.208v-2.888h1.209v7.136h-1.209v-3.128h-3.208v3.128h-1.209v-7.136H157.778z"/>
		<path d="M165.443,160.852c-0.41-0.17-0.762-0.414-1.055-0.734c-0.293-0.319-0.518-0.711-0.675-1.175
			c-0.156-0.463-0.235-0.987-0.235-1.573c0-0.587,0.08-1.113,0.24-1.579c0.16-0.467,0.386-0.861,0.679-1.185
			c0.293-0.323,0.646-0.57,1.06-0.74s0.87-0.255,1.369-0.255c0.507,0,0.966,0.085,1.379,0.255s0.763,0.415,1.049,0.735
			c0.287,0.319,0.508,0.711,0.665,1.174c0.156,0.463,0.234,0.988,0.234,1.574c0,0.593-0.076,1.121-0.229,1.584
			s-0.373,0.856-0.66,1.18s-0.635,0.569-1.044,0.739s-0.875,0.255-1.395,0.255C166.314,161.106,165.853,161.021,165.443,160.852z
			 M168.376,159.343c0.353-0.483,0.53-1.145,0.53-1.984c0-0.42-0.045-0.796-0.135-1.129c-0.09-0.333-0.222-0.616-0.395-0.85
			s-0.39-0.413-0.649-0.54c-0.26-0.126-0.563-0.189-0.91-0.189s-0.65,0.063-0.91,0.189c-0.26,0.127-0.478,0.307-0.654,0.54
			c-0.177,0.233-0.309,0.517-0.395,0.85s-0.13,0.709-0.13,1.129c0,0.84,0.175,1.501,0.525,1.984c0.35,0.483,0.871,0.725,1.564,0.725
			C167.503,160.067,168.023,159.826,168.376,159.343z"/>
		<path d="M173.858,154.811l-0.28,2.368c-0.073,0.62-0.176,1.168-0.31,1.645s-0.31,0.874-0.53,1.194
			c-0.22,0.319-0.491,0.562-0.814,0.729c-0.323,0.166-0.711,0.25-1.165,0.25h-0.29v-1.04h0.15c0.26,0,0.49-0.057,0.689-0.17
			s0.373-0.3,0.52-0.56c0.147-0.26,0.271-0.602,0.375-1.024c0.103-0.423,0.191-0.944,0.265-1.564l0.34-2.848h4.198v7.136h-1.199
			v-6.116H173.858z"/>
		<path d="M180.253,160.852c-0.41-0.17-0.762-0.414-1.055-0.734c-0.293-0.319-0.518-0.711-0.675-1.175
			c-0.156-0.463-0.235-0.987-0.235-1.573c0-0.587,0.08-1.113,0.24-1.579c0.16-0.467,0.386-0.861,0.679-1.185
			c0.293-0.323,0.646-0.57,1.06-0.74s0.87-0.255,1.369-0.255c0.507,0,0.966,0.085,1.379,0.255s0.763,0.415,1.049,0.735
			c0.287,0.319,0.508,0.711,0.665,1.174c0.156,0.463,0.234,0.988,0.234,1.574c0,0.593-0.076,1.121-0.229,1.584
			s-0.373,0.856-0.66,1.18s-0.635,0.569-1.044,0.739s-0.875,0.255-1.395,0.255C181.124,161.106,180.663,161.021,180.253,160.852z
			 M183.186,159.343c0.353-0.483,0.53-1.145,0.53-1.984c0-0.42-0.045-0.796-0.135-1.129c-0.09-0.333-0.222-0.616-0.395-0.85
			s-0.39-0.413-0.649-0.54c-0.26-0.126-0.563-0.189-0.91-0.189s-0.65,0.063-0.91,0.189c-0.26,0.127-0.478,0.307-0.654,0.54
			c-0.177,0.233-0.309,0.517-0.395,0.85s-0.13,0.709-0.13,1.129c0,0.84,0.175,1.501,0.525,1.984c0.35,0.483,0.871,0.725,1.564,0.725
			C182.313,160.067,182.833,159.826,183.186,159.343z"/>
		<path d="M190.707,153.791v1.049h-3.249v6.087h-1.209v-7.136H190.707z"/>
		<path d="M195.906,155.739l-3.198,5.188h-1.119v-7.136h1.179v5.217l3.188-5.217h1.12v7.136h-1.169V155.739z"/>
		<path d="M202.916,155.739l-3.198,5.188h-1.119v-7.136h1.179v5.217l3.188-5.217h1.12v7.136h-1.169V155.739z"/>
	</g>
	
		<line fill="none" stroke="#000000" stroke-width="0.5" stroke-miterlimit="10" stroke-dasharray="1" x1="225.503" y1="30.518" x2="98.662" y2="30.518"/>
	
		<line fill="none" stroke="#000000" stroke-width="0.5" stroke-miterlimit="10" stroke-dasharray="1" x1="249.99" y1="72.517" x2="98.662" y2="72.517"/>
	
		<line fill="none" stroke="#000000" stroke-width="0.5" stroke-miterlimit="10" stroke-dasharray="1" x1="275.213" y1="112.516" x2="98.662" y2="112.516"/>
	
		<line fill="none" stroke="#000000" stroke-width="0.5" stroke-miterlimit="10" stroke-dasharray="1" x1="298.804" y1="150.515" x2="98.662" y2="150.515"/>
</g>
<g id="Layer_2">
</g>
<g id="Layer_3">
</g>
</svg>
