<?xml version="1.0" encoding="utf-8"?>
<!-- Generator: Adobe Illustrator 16.0.3, SVG Export Plug-In . SVG Version: 6.00 Build 0)  -->
<!DOCTYPE svg PUBLIC "-//W3C//DTD SVG 1.1//EN" "http://www.w3.org/Graphics/SVG/1.1/DTD/svg11.dtd">
<svg version="1.1" xmlns="http://www.w3.org/2000/svg" xmlns:xlink="http://www.w3.org/1999/xlink" x="0px" y="0px" width="600px"
	 height="294.513px" viewBox="0 0 600 294.513" enable-background="new 0 0 600 294.513" xml:space="preserve">
<g id="Layer_1">
	<path fill="none" stroke="#000000" stroke-miterlimit="10" d="M299.938,228.183c-12.716,9.034-28.27,14.34-45.053,14.34
		c-43.035,0-77.929-34.887-77.929-77.923c0-43.043,34.894-77.931,77.929-77.931c16.783,0,32.337,5.306,45.053,14.34
		c-19.898,14.121-32.876,37.34-32.876,63.591S280.04,214.07,299.938,228.183z"/>
	<g>
		<g>
			<path fill="none" stroke="#000000" stroke-miterlimit="10" d="M70.349,88.19c31.024,45.481,87.9,76.029,153.095,76.4"/>
			<g>
				<path d="M216.473,169.159c-0.142-0.237-0.063-0.545,0.173-0.686l6.569-3.921l-6.331-4.295c-0.229-0.155-0.288-0.467-0.133-0.694
					c0.155-0.229,0.468-0.286,0.694-0.133l6.98,4.735c0.141,0.097,0.224,0.258,0.219,0.429s-0.097,0.327-0.244,0.415l-7.244,4.322
					c-0.084,0.051-0.178,0.073-0.27,0.07C216.724,169.397,216.564,169.312,216.473,169.159z"/>
			</g>
		</g>
	</g>
	<rect x="441.653" y="0.438" fill="#FFFFFF" width="158.347" height="103.57"/>
	<rect y="0.438" fill="#FFFFFF" width="169.728" height="86.482"/>
	<g>
		<path d="M1.621,51.567v-0.841h8.34v0.841H6.255v9.869H5.34v-9.869H1.621z"/>
		<path d="M14.896,50.727c0.78,0,1.42,0.083,1.92,0.248s0.893,0.388,1.178,0.667c0.284,0.28,0.482,0.607,0.592,0.982
			c0.11,0.375,0.165,0.772,0.165,1.192c0,0.44-0.058,0.86-0.172,1.261c-0.115,0.399-0.318,0.75-0.607,1.05
			c-0.29,0.3-0.686,0.537-1.186,0.712c-0.5,0.176-1.14,0.263-1.92,0.263h-2.52v4.335h-0.9v-10.71H14.896z M16.351,56.134
			c0.38-0.114,0.68-0.277,0.899-0.487c0.221-0.21,0.37-0.465,0.45-0.765s0.12-0.64,0.12-1.02c0-0.4-0.045-0.745-0.135-1.035
			s-0.248-0.533-0.473-0.728c-0.225-0.195-0.527-0.34-0.907-0.436c-0.38-0.095-0.86-0.143-1.44-0.143h-2.52v4.785h2.535
			C15.481,56.307,15.971,56.249,16.351,56.134z"/>
		<path d="M23.746,50.727l4.229,10.71h-0.989l-1.29-3.27h-5.04l-1.274,3.27h-0.96l4.244-10.71H23.746z M23.161,51.731l-2.175,5.596
			h4.38L23.161,51.731z"/>
		<path d="M29.431,64.031h-0.87v-3.42h0.779c0.551-0.479,1.025-1.34,1.426-2.58c0.399-1.239,0.71-2.96,0.93-5.159l0.21-2.146h5.715
			v9.885h0.944v3.42h-0.869v-2.595h-8.265V64.031z M32.191,55.932c-0.141,0.771-0.298,1.45-0.473,2.04s-0.37,1.103-0.585,1.537
			c-0.215,0.436-0.442,0.803-0.683,1.103h6.255v-9.074h-3.975l-0.181,1.785C32.451,54.292,32.331,55.162,32.191,55.932z"/>
		<path d="M46.935,61.437v-9.359l-5.79,9.359H40.14v-10.71h0.9v9.345l5.774-9.345h1.005v10.71H46.935z"/>
		<path d="M50.281,50.727h0.915v9.885h5.534v-9.885h0.915v9.885h0.945v3.42h-0.87v-2.595h-7.439V50.727z"/>
		<path d="M66.96,61.437v-9.359l-5.79,9.359h-1.005v-10.71h0.899v9.345l5.775-9.345h1.005v10.71H66.96z"/>
		<path d="M72.833,61.354c-0.595-0.235-1.107-0.588-1.538-1.058c-0.43-0.471-0.767-1.056-1.012-1.755
			c-0.245-0.7-0.368-1.511-0.368-2.431s0.123-1.732,0.368-2.437c0.245-0.705,0.585-1.295,1.02-1.771
			c0.436-0.475,0.947-0.835,1.537-1.08c0.591-0.245,1.23-0.367,1.92-0.367c0.69,0,1.33,0.117,1.92,0.353
			c0.591,0.235,1.098,0.587,1.522,1.058c0.426,0.47,0.761,1.052,1.006,1.747c0.244,0.695,0.367,1.503,0.367,2.423
			c0,0.93-0.12,1.747-0.36,2.452s-0.572,1.295-0.997,1.77c-0.425,0.476-0.933,0.835-1.522,1.08s-1.235,0.367-1.936,0.367
			C74.07,61.706,73.427,61.589,72.833,61.354z M76.424,60.544c0.48-0.235,0.883-0.564,1.208-0.99
			c0.325-0.425,0.569-0.932,0.734-1.522c0.165-0.59,0.248-1.239,0.248-1.949s-0.085-1.36-0.255-1.95s-0.418-1.098-0.743-1.522
			c-0.324-0.425-0.728-0.755-1.207-0.99c-0.48-0.234-1.03-0.353-1.65-0.353c-0.649,0-1.217,0.118-1.702,0.353
			c-0.484,0.235-0.888,0.565-1.207,0.99c-0.32,0.425-0.562,0.933-0.728,1.522s-0.248,1.24-0.248,1.95s0.08,1.359,0.24,1.949
			c0.16,0.591,0.402,1.098,0.728,1.522c0.325,0.426,0.73,0.755,1.215,0.99c0.485,0.235,1.053,0.353,1.702,0.353
			C75.39,60.896,75.945,60.779,76.424,60.544z"/>
		<path d="M82.56,50.727v4.74h6.045v-4.74h0.915v10.71h-0.915v-5.115H82.56v5.115h-0.915v-10.71H82.56z"/>
		<path d="M92.895,50.727v4.74h6.045v-4.74h0.915v10.71H98.94v-5.115h-6.045v5.115H91.98v-10.71H92.895z"/>
		<path d="M107.722,55.182c0.505,0.18,0.905,0.423,1.2,0.728s0.497,0.655,0.607,1.05c0.11,0.396,0.165,0.808,0.165,1.237
			c0,0.471-0.062,0.902-0.188,1.298c-0.125,0.395-0.34,0.735-0.645,1.02c-0.306,0.285-0.716,0.511-1.23,0.676
			s-1.162,0.247-1.942,0.247h-3.375v-10.71h0.9v4.186h2.58C106.575,54.912,107.217,55.002,107.722,55.182z M103.215,60.642h2.64
			c0.54,0,0.997-0.048,1.372-0.143s0.676-0.242,0.9-0.442s0.388-0.45,0.487-0.75c0.101-0.3,0.15-0.66,0.15-1.08
			c0-0.399-0.05-0.758-0.15-1.072c-0.1-0.315-0.268-0.58-0.502-0.795c-0.235-0.215-0.548-0.378-0.938-0.487
			c-0.391-0.11-0.88-0.165-1.471-0.165h-2.489V60.642z M112.214,50.727v10.71h-0.915v-10.71H112.214z"/>
		<path d="M121.47,61.437v-9.359l-5.79,9.359h-1.005v-10.71h0.899v9.345l5.775-9.345h1.005v10.71H121.47z M117.533,49.67
			c-0.275-0.105-0.503-0.248-0.683-0.428s-0.315-0.391-0.405-0.63c-0.09-0.24-0.135-0.49-0.135-0.75h0.72
			c0.021,0.38,0.152,0.694,0.397,0.944s0.603,0.375,1.072,0.375c0.471,0,0.828-0.125,1.073-0.375
			c0.244-0.25,0.377-0.564,0.397-0.944h0.72c0,0.26-0.048,0.51-0.143,0.75c-0.095,0.239-0.235,0.45-0.42,0.63
			c-0.186,0.18-0.415,0.322-0.69,0.428c-0.274,0.104-0.592,0.157-0.952,0.157S117.807,49.774,117.533,49.67z"/>
		<path d="M134.429,50.727v0.825h-5.34v3.51h2.73c0.739,0,1.352,0.088,1.837,0.263s0.87,0.41,1.155,0.705s0.482,0.638,0.592,1.027
			c0.11,0.39,0.165,0.795,0.165,1.215c0,0.44-0.057,0.853-0.172,1.237c-0.115,0.386-0.32,0.721-0.615,1.005
			c-0.295,0.285-0.692,0.511-1.192,0.676s-1.14,0.247-1.92,0.247h-3.479v-10.71H134.429z M129.089,60.642h2.745
			c0.54,0,0.987-0.048,1.343-0.143c0.354-0.095,0.642-0.24,0.862-0.435c0.22-0.195,0.375-0.438,0.465-0.728s0.135-0.63,0.135-1.021
			c0-0.37-0.048-0.707-0.143-1.013c-0.095-0.305-0.26-0.564-0.495-0.779c-0.234-0.215-0.552-0.38-0.952-0.495
			s-0.905-0.173-1.515-0.173h-2.445V60.642z"/>
		<path d="M144.285,61.437v-9.359l-5.79,9.359h-1.005v-10.71h0.899v9.345l5.775-9.345h1.005v10.71H144.285z"/>
		<path d="M148.83,60.379c0.479,0.355,1.175,0.532,2.085,0.532c0.95,0,1.652-0.204,2.107-0.614s0.683-1.005,0.683-1.785
			c0-0.41-0.061-0.758-0.181-1.043c-0.119-0.284-0.287-0.517-0.502-0.697c-0.215-0.18-0.475-0.31-0.78-0.39
			c-0.305-0.08-0.643-0.12-1.013-0.12h-1.739v-0.825h1.739c0.65,0,1.188-0.178,1.613-0.532c0.425-0.355,0.637-0.902,0.637-1.643
			c0-0.66-0.225-1.157-0.675-1.492s-1.069-0.503-1.859-0.503c-0.431,0-0.803,0.04-1.118,0.12c-0.314,0.08-0.587,0.2-0.817,0.36
			c-0.229,0.16-0.422,0.357-0.577,0.593c-0.155,0.234-0.282,0.507-0.383,0.817l-0.854-0.15c0.069-0.3,0.192-0.603,0.367-0.907
			c0.175-0.306,0.418-0.58,0.728-0.825s0.69-0.442,1.14-0.593c0.45-0.149,0.985-0.225,1.605-0.225c0.55,0,1.035,0.072,1.455,0.218
			c0.42,0.145,0.77,0.34,1.05,0.585s0.49,0.529,0.63,0.854s0.21,0.673,0.21,1.043c0,0.569-0.12,1.08-0.36,1.529
			c-0.239,0.45-0.635,0.806-1.185,1.065c0.6,0.22,1.048,0.564,1.343,1.035c0.295,0.47,0.442,1.045,0.442,1.725
			c0,0.46-0.075,0.885-0.226,1.274c-0.149,0.391-0.38,0.728-0.689,1.013c-0.311,0.285-0.7,0.508-1.17,0.668
			c-0.471,0.16-1.021,0.239-1.65,0.239c-0.72,0-1.319-0.09-1.8-0.27c-0.479-0.18-0.867-0.407-1.162-0.683
			c-0.295-0.274-0.505-0.585-0.63-0.93s-0.198-0.683-0.218-1.013h0.87C148.054,59.502,148.349,60.024,148.83,60.379z"/>
		<path d="M157.559,50.727v4.74h6.045v-4.74h0.915v10.71h-0.915v-5.115h-6.045v5.115h-0.915v-10.71H157.559z"/>
		<path d="M173.714,50.727v0.825h-5.82v3.93h5.52v0.855h-5.52v4.26h6.075l-0.21,0.84h-6.78v-10.71H173.714z"/>
		<path d="M183.816,59.472c-0.205,0.45-0.482,0.84-0.832,1.17s-0.775,0.59-1.275,0.78c-0.5,0.189-1.079,0.284-1.739,0.284
			c-0.7,0-1.338-0.119-1.913-0.359c-0.574-0.24-1.069-0.598-1.484-1.072c-0.415-0.476-0.737-1.061-0.968-1.755
			c-0.229-0.695-0.345-1.498-0.345-2.408c0-0.92,0.125-1.732,0.375-2.437c0.25-0.705,0.587-1.295,1.013-1.771
			c0.425-0.475,0.92-0.835,1.484-1.08c0.565-0.245,1.168-0.367,1.808-0.367c0.65,0,1.21,0.085,1.68,0.255
			c0.471,0.17,0.868,0.407,1.192,0.713c0.325,0.305,0.588,0.667,0.788,1.087c0.199,0.42,0.359,0.875,0.479,1.365l-0.87,0.195
			c-0.109-0.44-0.247-0.835-0.412-1.186c-0.165-0.35-0.375-0.645-0.63-0.885s-0.562-0.425-0.923-0.555
			c-0.359-0.13-0.795-0.195-1.305-0.195c-0.59,0-1.115,0.12-1.575,0.36c-0.46,0.239-0.85,0.574-1.17,1.005
			c-0.319,0.43-0.564,0.939-0.734,1.529s-0.255,1.235-0.255,1.936c0,0.71,0.082,1.357,0.247,1.942s0.405,1.092,0.72,1.522
			c0.315,0.43,0.708,0.762,1.178,0.997s1.01,0.353,1.62,0.353c0.58,0,1.067-0.072,1.462-0.218c0.396-0.145,0.721-0.347,0.976-0.607
			c0.255-0.26,0.455-0.567,0.6-0.922c0.145-0.355,0.253-0.737,0.322-1.147h0.9C184.159,58.531,184.021,59.021,183.816,59.472z"/>
		<path d="M2.431,78.821c0.2,0.061,0.444,0.09,0.734,0.09c0.221,0,0.418-0.032,0.593-0.097c0.175-0.065,0.338-0.165,0.487-0.301
			c0.15-0.135,0.295-0.31,0.436-0.524c0.14-0.215,0.279-0.478,0.42-0.788l0.3-0.645l-3.854-7.83h1.05l3.27,6.93l2.729-6.93h0.976
			l-3.36,8.1c-0.21,0.511-0.42,0.948-0.63,1.312c-0.21,0.365-0.435,0.665-0.675,0.9s-0.51,0.405-0.81,0.51
			c-0.301,0.105-0.646,0.157-1.035,0.157c-0.271,0-0.521-0.029-0.75-0.09c-0.23-0.06-0.415-0.125-0.555-0.194l0.21-0.766
			C2.076,78.707,2.231,78.762,2.431,78.821z"/>
		<path d="M15.226,78.949c-0.54,0.484-1.275,0.728-2.205,0.728c-0.56,0-1.06-0.096-1.5-0.285c-0.44-0.19-0.81-0.463-1.11-0.817
			c-0.3-0.355-0.529-0.785-0.689-1.29s-0.24-1.077-0.24-1.718c0-0.63,0.085-1.202,0.255-1.717c0.17-0.516,0.41-0.955,0.721-1.32
			c0.31-0.365,0.687-0.647,1.132-0.848s0.947-0.3,1.508-0.3c0.85,0,1.527,0.218,2.032,0.652c0.505,0.436,0.838,1.048,0.997,1.838
			l-0.84,0.21c-0.06-0.28-0.145-0.54-0.255-0.78s-0.25-0.445-0.42-0.615s-0.383-0.305-0.638-0.404
			c-0.255-0.101-0.558-0.15-0.907-0.15c-0.47,0-0.87,0.085-1.2,0.255s-0.604,0.405-0.824,0.705c-0.221,0.3-0.381,0.657-0.48,1.072
			s-0.15,0.867-0.15,1.357s0.051,0.942,0.15,1.357s0.255,0.775,0.465,1.08s0.482,0.543,0.817,0.713s0.737,0.255,1.208,0.255
			c0.75,0,1.297-0.183,1.643-0.548c0.345-0.365,0.577-0.853,0.697-1.462h0.87C16.111,77.786,15.766,78.464,15.226,78.949z"/>
		<path d="M17.13,72.387v-0.765h6.45v0.765h-2.775v7.05h-0.869v-7.05H17.13z"/>
		<path d="M29.236,78.814c-0.181,0.154-0.386,0.292-0.615,0.412c-0.23,0.12-0.482,0.215-0.758,0.285
			c-0.274,0.069-0.577,0.104-0.907,0.104c-0.81,0-1.46-0.199-1.95-0.6c-0.489-0.4-0.734-0.985-0.734-1.755
			c0-0.521,0.109-0.945,0.33-1.275c0.22-0.33,0.512-0.592,0.877-0.787s0.78-0.332,1.245-0.412s0.947-0.131,1.447-0.15l1.5-0.06
			v-0.24c0-0.76-0.147-1.317-0.442-1.673c-0.295-0.354-0.822-0.532-1.582-0.532c-0.37,0-0.683,0.03-0.938,0.09
			c-0.256,0.061-0.468,0.147-0.638,0.263s-0.306,0.25-0.405,0.405c-0.1,0.154-0.175,0.327-0.225,0.518l-0.795-0.12
			c0.279-1.261,1.29-1.891,3.029-1.891c0.54,0,0.995,0.065,1.365,0.195s0.667,0.32,0.893,0.57c0.225,0.25,0.388,0.552,0.487,0.907
			c0.1,0.354,0.15,0.763,0.15,1.223v5.145h-0.87v-1.095C29.571,78.502,29.416,78.659,29.236,78.814z M28.26,75.327
			c-0.58,0.02-1.064,0.074-1.455,0.164c-0.39,0.091-0.704,0.213-0.944,0.368s-0.413,0.348-0.518,0.577
			c-0.105,0.23-0.157,0.5-0.157,0.811c0,0.47,0.132,0.852,0.397,1.147c0.265,0.295,0.728,0.442,1.387,0.442
			c0.761,0,1.36-0.165,1.8-0.495c0.181-0.13,0.328-0.258,0.443-0.383c0.114-0.125,0.207-0.26,0.277-0.405
			c0.069-0.145,0.12-0.307,0.149-0.487c0.03-0.18,0.045-0.39,0.045-0.63v-1.17L28.26,75.327z"/>
		<path d="M33.541,71.622v1.154c0.35-0.439,0.734-0.782,1.154-1.027s0.931-0.367,1.53-0.367c0.57,0,1.062,0.105,1.478,0.315
			s0.76,0.497,1.035,0.862c0.274,0.364,0.479,0.795,0.615,1.29c0.135,0.494,0.202,1.027,0.202,1.597c0,0.66-0.083,1.253-0.248,1.777
			c-0.165,0.525-0.397,0.971-0.697,1.335c-0.3,0.365-0.662,0.643-1.087,0.833c-0.426,0.189-0.902,0.285-1.433,0.285
			c-0.47,0-0.923-0.096-1.357-0.285c-0.436-0.19-0.833-0.525-1.192-1.005v3.96h-0.87V71.622H33.541z M33.563,76.736
			c0.035,0.261,0.095,0.49,0.18,0.69s0.192,0.38,0.322,0.54s0.29,0.31,0.48,0.45c0.24,0.17,0.478,0.297,0.712,0.382
			c0.235,0.085,0.508,0.128,0.817,0.128c0.37,0,0.71-0.062,1.021-0.188c0.31-0.125,0.577-0.325,0.803-0.601
			c0.225-0.274,0.402-0.632,0.532-1.072c0.13-0.439,0.195-0.975,0.195-1.604c0-0.641-0.073-1.173-0.218-1.598
			c-0.146-0.425-0.333-0.765-0.562-1.02c-0.23-0.256-0.49-0.438-0.78-0.548s-0.575-0.165-0.854-0.165
			c-0.311,0-0.59,0.035-0.84,0.105c-0.25,0.069-0.5,0.199-0.75,0.39c-0.351,0.26-0.623,0.595-0.817,1.005
			c-0.195,0.41-0.293,0.92-0.293,1.53v0.675C33.51,76.177,33.528,76.477,33.563,76.736z"/>
		<path d="M46.905,79.047c-0.52,0.42-1.26,0.63-2.22,0.63c-0.55,0-1.042-0.096-1.478-0.285c-0.435-0.19-0.802-0.46-1.103-0.81
			c-0.3-0.351-0.529-0.778-0.689-1.283s-0.24-1.067-0.24-1.688c0-0.68,0.088-1.282,0.263-1.807c0.175-0.525,0.42-0.968,0.735-1.328
			c0.314-0.359,0.685-0.632,1.109-0.817c0.425-0.185,0.893-0.277,1.402-0.277c0.601,0,1.11,0.1,1.53,0.3s0.763,0.473,1.027,0.817
			c0.265,0.346,0.457,0.748,0.577,1.208S48,74.662,48,75.191v0.556h-5.94c0,0.439,0.056,0.854,0.165,1.244
			c0.11,0.391,0.275,0.73,0.495,1.021s0.495,0.52,0.825,0.689s0.71,0.255,1.14,0.255c0.391,0,0.72-0.037,0.99-0.112
			c0.27-0.075,0.495-0.183,0.675-0.322s0.322-0.303,0.428-0.487c0.104-0.186,0.188-0.393,0.247-0.623h0.84
			C47.746,78.082,47.425,78.627,46.905,79.047z M46.965,73.812c-0.09-0.359-0.23-0.667-0.42-0.922
			c-0.19-0.255-0.44-0.453-0.75-0.593c-0.311-0.14-0.68-0.21-1.11-0.21c-0.75,0-1.35,0.24-1.8,0.72c-0.45,0.48-0.72,1.21-0.81,2.19
			H47.1C47.1,74.566,47.055,74.172,46.965,73.812z"/>
		<path d="M52.98,71.622c0.59,0,1.072,0.06,1.447,0.18s0.67,0.275,0.886,0.465c0.215,0.19,0.362,0.402,0.442,0.638
			s0.12,0.468,0.12,0.697c0,0.4-0.088,0.753-0.263,1.058s-0.478,0.548-0.907,0.728c0.5,0.14,0.862,0.383,1.087,0.728
			c0.226,0.345,0.338,0.718,0.338,1.117c0,0.311-0.051,0.598-0.15,0.862c-0.1,0.266-0.268,0.498-0.502,0.698
			c-0.235,0.199-0.538,0.357-0.908,0.472c-0.37,0.115-0.824,0.173-1.364,0.173h-3.391v-7.814H52.98z M54.541,74.704
			c0.3-0.225,0.449-0.562,0.449-1.013c0-0.449-0.159-0.784-0.479-1.005c-0.32-0.22-0.83-0.33-1.53-0.33h-2.295v2.686H53.1
			C53.76,75.042,54.24,74.929,54.541,74.704z M54.765,78.334c0.31-0.245,0.465-0.603,0.465-1.072c0-0.48-0.17-0.848-0.51-1.103
			s-0.84-0.383-1.5-0.383h-2.535v2.925h2.505C53.93,78.701,54.456,78.579,54.765,78.334z"/>
		<path d="M57.81,71.622h0.87v7.05h3.51v-7.05h0.87v7.05h3.524v-7.05h0.87v7.814H57.81V71.622z"/>
		<path d="M74.895,79.437v-6.569l-4.425,6.569h-0.915v-7.814h0.84v6.569l4.395-6.569h0.945v7.814H74.895z"/>
		<path d="M83.325,79.047c-0.521,0.42-1.26,0.63-2.22,0.63c-0.55,0-1.043-0.096-1.478-0.285c-0.436-0.19-0.803-0.46-1.103-0.81
			c-0.3-0.351-0.53-0.778-0.69-1.283c-0.159-0.505-0.239-1.067-0.239-1.688c0-0.68,0.087-1.282,0.262-1.807
			c0.176-0.525,0.421-0.968,0.735-1.328c0.315-0.359,0.685-0.632,1.11-0.817c0.425-0.185,0.893-0.277,1.402-0.277
			c0.6,0,1.109,0.1,1.529,0.3s0.763,0.473,1.028,0.817c0.265,0.346,0.457,0.748,0.577,1.208s0.18,0.955,0.18,1.484v0.556H78.48
			c0,0.439,0.055,0.854,0.165,1.244c0.109,0.391,0.274,0.73,0.495,1.021c0.22,0.29,0.495,0.52,0.824,0.689
			c0.33,0.17,0.71,0.255,1.141,0.255c0.39,0,0.72-0.037,0.989-0.112c0.271-0.075,0.495-0.183,0.676-0.322
			c0.18-0.14,0.322-0.303,0.427-0.487c0.105-0.186,0.188-0.393,0.248-0.623h0.84C84.165,78.082,83.844,78.627,83.325,79.047z
			 M83.384,73.812c-0.09-0.359-0.229-0.667-0.42-0.922c-0.189-0.255-0.439-0.453-0.75-0.593c-0.31-0.14-0.68-0.21-1.109-0.21
			c-0.75,0-1.351,0.24-1.8,0.72c-0.45,0.48-0.721,1.21-0.811,2.19h5.025C83.52,74.566,83.475,74.172,83.384,73.812z"/>
		<path d="M90.464,72.401v7.035h-0.87v-7.814h6.18v7.814h-0.869v-7.035H90.464z"/>
		<path d="M99.711,79.384c-0.444-0.194-0.819-0.473-1.125-0.832c-0.305-0.36-0.539-0.793-0.704-1.298s-0.248-1.067-0.248-1.688
			c0-0.63,0.088-1.199,0.263-1.71c0.175-0.51,0.42-0.949,0.735-1.319c0.314-0.37,0.697-0.655,1.147-0.855
			c0.449-0.2,0.954-0.3,1.515-0.3c0.56,0,1.064,0.098,1.515,0.293c0.45,0.194,0.83,0.472,1.14,0.832
			c0.311,0.36,0.548,0.792,0.713,1.298c0.165,0.505,0.247,1.062,0.247,1.672c0,0.63-0.085,1.202-0.255,1.718
			c-0.17,0.515-0.412,0.957-0.728,1.327c-0.314,0.37-0.699,0.655-1.154,0.855c-0.455,0.199-0.968,0.3-1.538,0.3
			C100.665,79.677,100.157,79.579,99.711,79.384z M102.509,78.664c0.34-0.175,0.62-0.415,0.84-0.72c0.22-0.306,0.38-0.665,0.48-1.08
			c0.1-0.415,0.149-0.867,0.149-1.357c0-0.47-0.05-0.91-0.149-1.32c-0.101-0.41-0.261-0.768-0.48-1.072s-0.5-0.545-0.84-0.72
			s-0.755-0.263-1.245-0.263c-0.479,0-0.893,0.088-1.237,0.263s-0.625,0.415-0.84,0.72s-0.373,0.662-0.473,1.072
			s-0.15,0.855-0.15,1.335c0,0.48,0.051,0.928,0.15,1.343s0.258,0.774,0.473,1.08c0.215,0.305,0.495,0.545,0.84,0.72
			s0.758,0.263,1.237,0.263C101.754,78.927,102.169,78.839,102.509,78.664z"/>
		<path d="M112.29,78.672h0.885v2.864h-0.795v-2.1h-6.27v2.1h-0.795v-2.864h0.72c0.18-0.19,0.35-0.428,0.51-0.713
			s0.308-0.643,0.442-1.072s0.255-0.947,0.36-1.553c0.104-0.604,0.192-1.322,0.263-2.152l0.135-1.56h4.545V78.672z M108.149,75.439
			c-0.09,0.545-0.189,1.02-0.3,1.425c-0.109,0.405-0.232,0.755-0.367,1.05s-0.282,0.548-0.442,0.758h4.38v-6.3h-2.91l-0.12,1.185
			C108.32,74.267,108.24,74.895,108.149,75.439z"/>
		<path d="M114.45,71.622h1.02l2.145,3.074l2.16-3.074h0.945l-2.565,3.689l2.896,4.125h-1.021l-2.444-3.51l-2.415,3.51h-0.976
			l2.88-4.155L114.45,71.622z"/>
		<path d="M123.577,79.384c-0.445-0.194-0.82-0.473-1.125-0.832c-0.305-0.36-0.54-0.793-0.705-1.298s-0.247-1.067-0.247-1.688
			c0-0.63,0.087-1.199,0.262-1.71c0.176-0.51,0.421-0.949,0.735-1.319c0.315-0.37,0.697-0.655,1.147-0.855s0.955-0.3,1.515-0.3
			c0.561,0,1.065,0.098,1.516,0.293c0.449,0.194,0.83,0.472,1.14,0.832s0.548,0.792,0.713,1.298
			c0.164,0.505,0.247,1.062,0.247,1.672c0,0.63-0.085,1.202-0.255,1.718c-0.17,0.515-0.413,0.957-0.728,1.327
			c-0.315,0.37-0.7,0.655-1.155,0.855c-0.455,0.199-0.967,0.3-1.537,0.3S124.022,79.579,123.577,79.384z M126.374,78.664
			c0.341-0.175,0.62-0.415,0.841-0.72c0.22-0.306,0.38-0.665,0.479-1.08s0.15-0.867,0.15-1.357c0-0.47-0.051-0.91-0.15-1.32
			s-0.26-0.768-0.479-1.072c-0.221-0.305-0.5-0.545-0.841-0.72c-0.34-0.175-0.755-0.263-1.244-0.263
			c-0.48,0-0.893,0.088-1.238,0.263c-0.345,0.175-0.625,0.415-0.84,0.72s-0.372,0.662-0.472,1.072
			c-0.101,0.41-0.15,0.855-0.15,1.335c0,0.48,0.05,0.928,0.15,1.343c0.1,0.415,0.257,0.774,0.472,1.08
			c0.215,0.305,0.495,0.545,0.84,0.72c0.346,0.175,0.758,0.263,1.238,0.263C125.619,78.927,126.034,78.839,126.374,78.664z"/>
		<path d="M136.154,78.672h0.885v2.864h-0.795v-2.1h-6.27v2.1h-0.795v-2.864h0.72c0.181-0.19,0.351-0.428,0.511-0.713
			c0.159-0.285,0.307-0.643,0.442-1.072c0.135-0.43,0.255-0.947,0.359-1.553c0.105-0.604,0.192-1.322,0.263-2.152l0.135-1.56h4.545
			V78.672z M132.014,75.439c-0.09,0.545-0.19,1.02-0.3,1.425c-0.11,0.405-0.232,0.755-0.368,1.05
			c-0.135,0.295-0.282,0.548-0.442,0.758h4.38v-6.3h-2.909l-0.12,1.185C132.184,74.267,132.104,74.895,132.014,75.439z"/>
		<path d="M139.229,74.696h2.58c0.47,0,0.872,0.061,1.207,0.181s0.607,0.285,0.817,0.495s0.365,0.457,0.465,0.742
			c0.101,0.285,0.15,0.593,0.15,0.922c0,0.711-0.23,1.288-0.69,1.732c-0.46,0.445-1.18,0.668-2.159,0.668h-3.24v-7.814h0.87V74.696z
			 M141.718,78.701c0.65,0,1.115-0.14,1.396-0.42c0.28-0.279,0.42-0.675,0.42-1.185c0-0.54-0.135-0.952-0.405-1.237
			c-0.27-0.285-0.765-0.428-1.484-0.428h-2.415v3.27H141.718z M146.399,71.622v7.814h-0.87v-7.814H146.399z"/>
	</g>
	<g>
		<path d="M245.518,13.064c0.75,0,1.363,0.07,1.837,0.21c0.475,0.141,0.853,0.333,1.133,0.578c0.28,0.245,0.472,0.527,0.577,0.848
			c0.105,0.319,0.158,0.659,0.158,1.02c0,0.54-0.125,1.01-0.375,1.41c-0.25,0.399-0.67,0.725-1.26,0.975
			c0.38,0.13,0.697,0.288,0.952,0.473s0.46,0.393,0.615,0.622c0.155,0.23,0.265,0.478,0.33,0.743
			c0.065,0.265,0.097,0.532,0.097,0.802c0,0.42-0.065,0.815-0.195,1.186s-0.345,0.692-0.645,0.967c-0.3,0.275-0.69,0.49-1.17,0.646
			s-1.07,0.232-1.77,0.232h-3.675v-10.71H245.518z M247.686,17.257c0.425-0.335,0.638-0.832,0.638-1.492s-0.212-1.143-0.638-1.447
			c-0.425-0.305-1.157-0.458-2.197-0.458h-2.46v3.9h2.625C246.583,17.76,247.261,17.592,247.686,17.257z M247.176,22.814
			c0.365-0.1,0.655-0.242,0.87-0.428c0.215-0.185,0.365-0.41,0.45-0.675s0.127-0.562,0.127-0.893c0-0.729-0.22-1.285-0.66-1.665
			c-0.44-0.38-1.155-0.569-2.145-0.569h-2.79v4.38h2.745C246.343,22.965,246.811,22.914,247.176,22.814z"/>
		<path d="M256.116,19.185c-0.455,0.09-0.923,0.135-1.403,0.135c-0.67,0-1.24-0.072-1.709-0.217
			c-0.47-0.146-0.853-0.355-1.147-0.631c-0.295-0.274-0.51-0.614-0.645-1.02c-0.135-0.405-0.203-0.872-0.203-1.402v-2.985h0.9v2.655
			c0,0.48,0.045,0.895,0.135,1.245c0.09,0.35,0.242,0.64,0.457,0.87c0.215,0.229,0.51,0.402,0.885,0.518
			c0.375,0.114,0.847,0.172,1.417,0.172c0.9,0,1.755-0.16,2.565-0.479v-4.98h0.915v10.71h-0.915V18.81
			C256.988,18.97,256.57,19.095,256.116,19.185z"/>
		<path d="M267.478,13.064v0.825h-5.82v3.93h5.52v0.855h-5.52v4.26h6.075l-0.21,0.84h-6.78v-10.71H267.478z"/>
		<path d="M273.013,13.064c0.78,0,1.42,0.083,1.92,0.248s0.893,0.388,1.178,0.667c0.285,0.28,0.482,0.607,0.592,0.982
			s0.165,0.772,0.165,1.192c0,0.44-0.058,0.86-0.172,1.261c-0.115,0.399-0.318,0.75-0.607,1.05c-0.29,0.3-0.685,0.537-1.185,0.712
			c-0.5,0.176-1.14,0.263-1.92,0.263h-2.52v4.335h-0.9v-10.71H273.013z M274.468,18.472c0.38-0.114,0.68-0.277,0.9-0.487
			c0.22-0.21,0.37-0.465,0.45-0.765s0.12-0.64,0.12-1.02c0-0.4-0.045-0.745-0.135-1.035s-0.248-0.533-0.473-0.728
			c-0.225-0.195-0.527-0.34-0.907-0.436c-0.38-0.095-0.86-0.143-1.44-0.143h-2.52v4.785h2.535
			C273.598,18.645,274.088,18.587,274.468,18.472z"/>
		<path d="M281.863,13.064l4.229,10.71h-0.99l-1.29-3.27h-5.04l-1.275,3.27h-0.96l4.245-10.71H281.863z M281.278,14.069
			l-2.175,5.596h4.379L281.278,14.069z"/>
	</g>
	<g>
		<path d="M314.88,22.717c0.48,0.355,1.175,0.532,2.085,0.532c0.95,0,1.653-0.204,2.107-0.614c0.455-0.41,0.683-1.005,0.683-1.785
			c0-0.41-0.06-0.758-0.18-1.043c-0.12-0.284-0.287-0.517-0.502-0.697c-0.215-0.18-0.475-0.31-0.78-0.39s-0.643-0.12-1.013-0.12
			h-1.74v-0.825h1.74c0.65,0,1.188-0.178,1.613-0.532c0.425-0.355,0.637-0.902,0.637-1.643c0-0.66-0.225-1.157-0.675-1.492
			c-0.45-0.335-1.07-0.503-1.86-0.503c-0.43,0-0.803,0.04-1.118,0.12s-0.587,0.2-0.817,0.36s-0.422,0.357-0.578,0.593
			c-0.155,0.234-0.282,0.507-0.382,0.817l-0.855-0.15c0.07-0.3,0.192-0.603,0.368-0.907c0.175-0.306,0.417-0.58,0.728-0.825
			c0.31-0.245,0.69-0.442,1.14-0.593c0.45-0.149,0.985-0.225,1.605-0.225c0.55,0,1.035,0.072,1.455,0.218
			c0.42,0.145,0.77,0.34,1.05,0.585c0.28,0.245,0.49,0.529,0.63,0.854c0.14,0.325,0.21,0.673,0.21,1.043
			c0,0.569-0.12,1.08-0.36,1.529c-0.24,0.45-0.635,0.806-1.185,1.065c0.6,0.22,1.048,0.564,1.343,1.035
			c0.295,0.47,0.442,1.045,0.442,1.725c0,0.46-0.075,0.885-0.225,1.274c-0.15,0.391-0.38,0.728-0.69,1.013s-0.7,0.508-1.17,0.668
			s-1.02,0.239-1.65,0.239c-0.72,0-1.32-0.09-1.8-0.27s-0.868-0.407-1.163-0.683c-0.295-0.274-0.505-0.585-0.63-0.93
			s-0.198-0.683-0.218-1.013h0.87C314.105,21.84,314.4,22.362,314.88,22.717z"/>
		<path d="M326.82,13.064l4.229,10.71h-0.99l-1.29-3.27h-5.04l-1.275,3.27h-0.96l4.245-10.71H326.82z M326.235,14.069l-2.175,5.596
			h4.379L326.235,14.069z"/>
		<path d="M335.85,13.064c0.75,0,1.363,0.07,1.837,0.21c0.475,0.141,0.853,0.333,1.133,0.578c0.28,0.245,0.472,0.527,0.577,0.848
			c0.105,0.319,0.158,0.659,0.158,1.02c0,0.54-0.125,1.01-0.375,1.41c-0.25,0.399-0.67,0.725-1.26,0.975
			c0.38,0.13,0.697,0.288,0.952,0.473s0.46,0.393,0.615,0.622c0.155,0.23,0.265,0.478,0.33,0.743
			c0.065,0.265,0.098,0.532,0.098,0.802c0,0.42-0.065,0.815-0.195,1.186s-0.345,0.692-0.645,0.967c-0.3,0.275-0.69,0.49-1.17,0.646
			s-1.07,0.232-1.77,0.232h-3.675v-10.71H335.85z M338.017,17.257c0.425-0.335,0.638-0.832,0.638-1.492s-0.212-1.143-0.638-1.447
			c-0.425-0.305-1.157-0.458-2.197-0.458h-2.46v3.9h2.625C336.915,17.76,337.592,17.592,338.017,17.257z M337.507,22.814
			c0.365-0.1,0.655-0.242,0.87-0.428c0.215-0.185,0.365-0.41,0.45-0.675s0.127-0.562,0.127-0.893c0-0.729-0.22-1.285-0.66-1.665
			c-0.44-0.38-1.155-0.569-2.145-0.569h-2.79v4.38h2.745C336.675,22.965,337.142,22.914,337.507,22.814z"/>
		<path d="M340.665,13.905v-0.841h8.34v0.841H345.3v9.869h-0.915v-9.869H340.665z"/>
		<path d="M353.94,13.064c0.78,0,1.42,0.083,1.92,0.248s0.893,0.388,1.178,0.667c0.285,0.28,0.482,0.607,0.592,0.982
			s0.165,0.772,0.165,1.192c0,0.44-0.058,0.86-0.172,1.261c-0.115,0.399-0.317,0.75-0.607,1.05s-0.685,0.537-1.185,0.712
			c-0.5,0.176-1.14,0.263-1.92,0.263h-2.52v4.335h-0.9v-10.71H353.94z M355.395,18.472c0.38-0.114,0.68-0.277,0.9-0.487
			c0.22-0.21,0.37-0.465,0.45-0.765c0.08-0.3,0.12-0.64,0.12-1.02c0-0.4-0.045-0.745-0.135-1.035s-0.248-0.533-0.473-0.728
			c-0.225-0.195-0.527-0.34-0.907-0.436c-0.38-0.095-0.86-0.143-1.44-0.143h-2.52v4.785h2.535
			C354.525,18.645,355.015,18.587,355.395,18.472z"/>
		<path d="M362.79,13.064l4.229,10.71h-0.99l-1.29-3.27h-5.04l-1.275,3.27h-0.96l4.245-10.71H362.79z M362.205,14.069l-2.175,5.596
			h4.379L362.205,14.069z"/>
	</g>
	<g>
		<g>
			<path d="M434,59.472c-0.205,0.45-0.482,0.84-0.832,1.17s-0.775,0.59-1.275,0.78c-0.5,0.189-1.079,0.284-1.739,0.284
				c-0.7,0-1.338-0.119-1.913-0.359c-0.574-0.24-1.069-0.598-1.484-1.072c-0.415-0.476-0.737-1.061-0.968-1.755
				c-0.229-0.695-0.345-1.498-0.345-2.408c0-0.92,0.125-1.732,0.375-2.437c0.25-0.705,0.587-1.295,1.013-1.771
				c0.425-0.475,0.92-0.835,1.484-1.08c0.565-0.245,1.168-0.367,1.808-0.367c0.65,0,1.21,0.085,1.68,0.255
				c0.471,0.17,0.868,0.407,1.192,0.713c0.325,0.305,0.588,0.667,0.788,1.087c0.199,0.42,0.359,0.875,0.479,1.365l-0.87,0.195
				c-0.109-0.44-0.247-0.835-0.412-1.186c-0.165-0.35-0.375-0.645-0.63-0.885s-0.562-0.425-0.923-0.555
				c-0.359-0.13-0.795-0.195-1.305-0.195c-0.59,0-1.115,0.12-1.575,0.36c-0.46,0.239-0.85,0.574-1.17,1.005
				c-0.319,0.43-0.564,0.939-0.734,1.529s-0.255,1.235-0.255,1.936c0,0.71,0.082,1.357,0.247,1.942s0.405,1.092,0.72,1.522
				c0.315,0.43,0.708,0.762,1.178,0.997s1.01,0.353,1.62,0.353c0.58,0,1.067-0.072,1.462-0.218c0.396-0.145,0.721-0.347,0.976-0.607
				c0.255-0.26,0.455-0.567,0.6-0.922c0.145-0.355,0.253-0.737,0.322-1.147h0.9C434.343,58.531,434.206,59.021,434,59.472z"/>
			<path d="M435.074,51.567v-0.841h8.34v0.841h-3.705v9.869h-0.915v-9.869H435.074z"/>
			<path d="M447.673,50.727l4.229,10.71h-0.989l-1.29-3.27h-5.04l-1.274,3.27h-0.96l4.244-10.71H447.673z M447.088,51.731
				l-2.175,5.596h4.38L447.088,51.731z"/>
			<path d="M456.763,50.727c0.78,0,1.42,0.083,1.92,0.248s0.893,0.388,1.178,0.667c0.285,0.28,0.482,0.607,0.593,0.982
				c0.109,0.375,0.165,0.772,0.165,1.192c0,0.44-0.058,0.86-0.173,1.261c-0.115,0.399-0.317,0.75-0.607,1.05
				s-0.685,0.537-1.185,0.712c-0.5,0.176-1.141,0.263-1.92,0.263h-2.521v4.335h-0.899v-10.71H456.763z M458.218,56.134
				c0.38-0.114,0.681-0.277,0.9-0.487s0.37-0.465,0.45-0.765s0.119-0.64,0.119-1.02c0-0.4-0.045-0.745-0.135-1.035
				s-0.247-0.533-0.473-0.728c-0.225-0.195-0.527-0.34-0.907-0.436c-0.38-0.095-0.859-0.143-1.439-0.143h-2.521v4.785h2.535
				C457.348,56.307,457.838,56.249,458.218,56.134z"/>
			<path d="M461.324,51.567v-0.841h8.34v0.841h-3.705v9.869h-0.915v-9.869H461.324z"/>
			<path d="M473.923,50.727l4.229,10.71h-0.989l-1.29-3.27h-5.04l-1.274,3.27h-0.96l4.244-10.71H473.923z M473.338,51.731
				l-2.175,5.596h4.38L473.338,51.731z"/>
			<path d="M480.479,51.552v9.885h-0.915v-10.71h7.709v10.71h-0.914v-9.885H480.479z"/>
			<path d="M495.141,55.182c0.505,0.18,0.904,0.423,1.2,0.728c0.295,0.305,0.497,0.655,0.607,1.05
				c0.109,0.396,0.165,0.808,0.165,1.237c0,0.471-0.062,0.902-0.188,1.298c-0.125,0.395-0.341,0.735-0.646,1.02
				c-0.305,0.285-0.715,0.511-1.229,0.676c-0.516,0.165-1.163,0.247-1.942,0.247h-3.375v-10.71h0.899v4.186h2.58
				C493.994,54.912,494.636,55.002,495.141,55.182z M490.633,60.642h2.641c0.539,0,0.997-0.048,1.372-0.143s0.675-0.242,0.899-0.442
				c0.226-0.2,0.388-0.45,0.488-0.75c0.1-0.3,0.149-0.66,0.149-1.08c0-0.399-0.05-0.758-0.149-1.072
				c-0.101-0.315-0.268-0.58-0.503-0.795s-0.547-0.378-0.938-0.487c-0.39-0.11-0.88-0.165-1.47-0.165h-2.49V60.642z M499.633,50.727
				v10.71h-0.915v-10.71H499.633z"/>
			<path d="M503.008,59.997l-0.705,2.909h-0.734l0.42-2.909H503.008z"/>
			<path d="M515.218,61.437v-9.359l-5.79,9.359h-1.005v-10.71h0.9v9.345l5.774-9.345h1.005v10.71H515.218z"/>
			<path d="M519.478,50.727v4.74h6.045v-4.74h0.915v10.71h-0.915v-5.115h-6.045v5.115h-0.915v-10.71H519.478z"/>
			<path d="M529.813,50.727v4.74h6.045v-4.74h0.915v10.71h-0.915v-5.115h-6.045v5.115h-0.915v-10.71H529.813z"/>
			<path d="M541.76,61.354c-0.595-0.235-1.107-0.588-1.537-1.058c-0.43-0.471-0.768-1.056-1.013-1.755
				c-0.245-0.7-0.367-1.511-0.367-2.431s0.122-1.732,0.367-2.437c0.245-0.705,0.585-1.295,1.021-1.771
				c0.435-0.475,0.947-0.835,1.537-1.08s1.229-0.367,1.92-0.367c0.689,0,1.33,0.117,1.92,0.353s1.098,0.587,1.522,1.058
				c0.425,0.47,0.76,1.052,1.005,1.747s0.367,1.503,0.367,2.423c0,0.93-0.12,1.747-0.359,2.452c-0.24,0.705-0.573,1.295-0.998,1.77
				c-0.425,0.476-0.933,0.835-1.522,1.08s-1.234,0.367-1.935,0.367C542.998,61.706,542.356,61.589,541.76,61.354z M545.353,60.544
				c0.479-0.235,0.882-0.564,1.207-0.99c0.325-0.425,0.57-0.932,0.735-1.522c0.165-0.59,0.247-1.239,0.247-1.949
				s-0.085-1.36-0.255-1.95s-0.417-1.098-0.742-1.522s-0.728-0.755-1.208-0.99c-0.479-0.234-1.029-0.353-1.649-0.353
				c-0.65,0-1.218,0.118-1.702,0.353c-0.485,0.235-0.888,0.565-1.208,0.99c-0.319,0.425-0.562,0.933-0.728,1.522
				s-0.247,1.24-0.247,1.95s0.08,1.359,0.24,1.949c0.159,0.591,0.402,1.098,0.728,1.522c0.324,0.426,0.729,0.755,1.215,0.99
				c0.484,0.235,1.052,0.353,1.702,0.353C544.318,60.896,544.873,60.779,545.353,60.544z"/>
			<path d="M553.962,50.727c0.75,0,1.363,0.07,1.838,0.21c0.475,0.141,0.853,0.333,1.133,0.578c0.279,0.245,0.472,0.527,0.577,0.848
				c0.104,0.319,0.157,0.659,0.157,1.02c0,0.54-0.125,1.01-0.375,1.41c-0.25,0.399-0.67,0.725-1.26,0.975
				c0.38,0.13,0.697,0.288,0.952,0.473s0.46,0.393,0.615,0.622c0.155,0.23,0.265,0.478,0.33,0.743
				c0.065,0.265,0.098,0.532,0.098,0.802c0,0.42-0.065,0.815-0.195,1.186s-0.345,0.692-0.645,0.967c-0.3,0.275-0.69,0.49-1.17,0.646
				c-0.48,0.155-1.07,0.232-1.771,0.232h-3.675v-10.71H553.962z M556.13,54.919c0.425-0.335,0.638-0.832,0.638-1.492
				s-0.213-1.143-0.638-1.447s-1.157-0.458-2.197-0.458h-2.46v3.9h2.625C555.028,55.422,555.706,55.254,556.13,54.919z
				 M555.621,60.477c0.364-0.1,0.654-0.242,0.87-0.428c0.215-0.185,0.364-0.41,0.449-0.675s0.128-0.562,0.128-0.893
				c0-0.729-0.22-1.285-0.66-1.665s-1.155-0.569-2.145-0.569h-2.79v4.38h2.745C554.788,60.627,555.255,60.576,555.621,60.477z"/>
			<path d="M564.058,50.727l4.229,10.71h-0.99l-1.29-3.27h-5.039l-1.275,3.27h-0.96l4.245-10.71H564.058z M563.473,51.731
				l-2.175,5.596h4.379L563.473,51.731z"/>
			<path d="M569.698,50.727h0.915v9.885h5.535v-9.885h0.915v9.885h0.944v3.42h-0.87v-2.595h-7.439V50.727z"/>
			<path d="M586.378,61.437v-9.359l-5.79,9.359h-1.005v-10.71h0.899v9.345l5.775-9.345h1.005v10.71H586.378z"/>
			<path d="M596.518,61.437v-9.359l-5.79,9.359h-1.005v-10.71h0.899v9.345l5.775-9.345h1.005v10.71H596.518z"/>
			<path d="M472.905,68.727v4.74h6.044v-4.74h0.915v10.71h-0.915v-5.115h-6.044v5.115h-0.915v-10.71H472.905z"/>
			<path d="M483.982,79.384c-0.445-0.194-0.82-0.473-1.125-0.832c-0.305-0.36-0.54-0.793-0.705-1.298s-0.247-1.067-0.247-1.688
				c0-0.63,0.087-1.199,0.262-1.71c0.176-0.51,0.421-0.949,0.735-1.319c0.315-0.37,0.697-0.655,1.147-0.855s0.955-0.3,1.515-0.3
				c0.561,0,1.065,0.098,1.516,0.293c0.449,0.194,0.83,0.472,1.14,0.832s0.548,0.792,0.713,1.298
				c0.164,0.505,0.247,1.062,0.247,1.672c0,0.63-0.085,1.202-0.255,1.718c-0.17,0.515-0.413,0.957-0.728,1.327
				c-0.315,0.37-0.7,0.655-1.155,0.855c-0.455,0.199-0.967,0.3-1.537,0.3S484.427,79.579,483.982,79.384z M486.779,78.664
				c0.341-0.175,0.62-0.415,0.841-0.72c0.22-0.306,0.38-0.665,0.479-1.08s0.15-0.867,0.15-1.357c0-0.47-0.051-0.91-0.15-1.32
				s-0.26-0.768-0.479-1.072c-0.221-0.305-0.5-0.545-0.841-0.72c-0.34-0.175-0.755-0.263-1.244-0.263
				c-0.48,0-0.893,0.088-1.238,0.263c-0.345,0.175-0.624,0.415-0.84,0.72c-0.215,0.305-0.372,0.662-0.472,1.072
				c-0.101,0.41-0.15,0.855-0.15,1.335c0,0.48,0.05,0.928,0.15,1.343c0.1,0.415,0.257,0.774,0.472,1.08
				c0.216,0.305,0.495,0.545,0.84,0.72c0.346,0.175,0.758,0.263,1.238,0.263C486.024,78.927,486.439,78.839,486.779,78.664z"/>
			<path d="M494.205,71.622c0.59,0,1.072,0.06,1.447,0.18s0.67,0.275,0.885,0.465c0.215,0.19,0.362,0.402,0.442,0.638
				s0.12,0.468,0.12,0.697c0,0.4-0.087,0.753-0.263,1.058c-0.175,0.305-0.478,0.548-0.907,0.728c0.5,0.14,0.862,0.383,1.088,0.728
				c0.225,0.345,0.337,0.718,0.337,1.117c0,0.311-0.05,0.598-0.149,0.862c-0.101,0.266-0.268,0.498-0.503,0.698
				c-0.235,0.199-0.537,0.357-0.907,0.472c-0.37,0.115-0.825,0.173-1.365,0.173h-3.39v-7.814H494.205z M495.764,74.704
				c0.3-0.225,0.45-0.562,0.45-1.013c0-0.449-0.16-0.784-0.48-1.005c-0.319-0.22-0.829-0.33-1.529-0.33h-2.295v2.686h2.415
				C494.984,75.042,495.464,74.929,495.764,74.704z M495.99,78.334c0.31-0.245,0.465-0.603,0.465-1.072
				c0-0.48-0.17-0.848-0.511-1.103c-0.34-0.255-0.84-0.383-1.5-0.383h-2.534v2.925h2.505
				C495.155,78.701,495.679,78.579,495.99,78.334z"/>
			<path d="M499.904,74.696h2.58c0.47,0,0.872,0.061,1.208,0.181c0.335,0.12,0.607,0.285,0.817,0.495s0.364,0.457,0.465,0.742
				c0.1,0.285,0.149,0.593,0.149,0.922c0,0.711-0.229,1.288-0.689,1.732c-0.46,0.445-1.18,0.668-2.16,0.668h-3.24v-7.814h0.87
				V74.696z M502.394,78.701c0.649,0,1.115-0.14,1.395-0.42c0.28-0.279,0.42-0.675,0.42-1.185c0-0.54-0.135-0.952-0.404-1.237
				c-0.271-0.285-0.766-0.428-1.485-0.428h-2.415v3.27H502.394z M507.074,71.622v7.814h-0.87v-7.814H507.074z"/>
			<path d="M514.664,79.047c-0.52,0.42-1.26,0.63-2.22,0.63c-0.55,0-1.042-0.096-1.478-0.285c-0.435-0.19-0.802-0.46-1.103-0.81
				c-0.3-0.351-0.529-0.778-0.689-1.283s-0.24-1.067-0.24-1.688c0-0.68,0.088-1.282,0.263-1.807c0.175-0.525,0.42-0.968,0.735-1.328
				c0.314-0.359,0.685-0.632,1.109-0.817c0.425-0.185,0.893-0.277,1.402-0.277c0.601,0,1.11,0.1,1.53,0.3s0.763,0.473,1.027,0.817
				c0.265,0.346,0.457,0.748,0.577,1.208s0.181,0.955,0.181,1.484v0.556h-5.94c0,0.439,0.056,0.854,0.165,1.244
				c0.11,0.391,0.275,0.73,0.495,1.021s0.495,0.52,0.825,0.689s0.71,0.255,1.14,0.255c0.391,0,0.721-0.037,0.99-0.112
				s0.495-0.183,0.675-0.322s0.322-0.303,0.428-0.487c0.104-0.186,0.188-0.393,0.247-0.623h0.84
				C515.504,78.082,515.184,78.627,514.664,79.047z M514.724,73.812c-0.09-0.359-0.23-0.667-0.42-0.922
				c-0.19-0.255-0.44-0.453-0.75-0.593c-0.311-0.14-0.68-0.21-1.11-0.21c-0.75,0-1.35,0.24-1.8,0.72c-0.45,0.48-0.72,1.21-0.81,2.19
				h5.024C514.859,74.566,514.814,74.172,514.724,73.812z"/>
			<path d="M520.034,72.387v-0.765h6.45v0.765h-2.775v7.05h-0.869v-7.05H520.034z"/>
			<path d="M532.904,79.047c-0.521,0.42-1.26,0.63-2.22,0.63c-0.55,0-1.043-0.096-1.478-0.285c-0.436-0.19-0.803-0.46-1.103-0.81
				c-0.3-0.351-0.53-0.778-0.69-1.283c-0.159-0.505-0.239-1.067-0.239-1.688c0-0.68,0.087-1.282,0.262-1.807
				c0.176-0.525,0.421-0.968,0.735-1.328c0.315-0.359,0.685-0.632,1.11-0.817c0.425-0.185,0.893-0.277,1.402-0.277
				c0.6,0,1.109,0.1,1.529,0.3s0.763,0.473,1.028,0.817c0.265,0.346,0.457,0.748,0.577,1.208s0.18,0.955,0.18,1.484v0.556h-5.939
				c0,0.439,0.055,0.854,0.165,1.244c0.109,0.391,0.274,0.73,0.495,1.021c0.22,0.29,0.495,0.52,0.824,0.689
				c0.33,0.17,0.71,0.255,1.141,0.255c0.39,0,0.72-0.037,0.989-0.112c0.271-0.075,0.495-0.183,0.676-0.322
				c0.18-0.14,0.322-0.303,0.427-0.487c0.105-0.186,0.188-0.393,0.248-0.623h0.84C533.744,78.082,533.423,78.627,532.904,79.047z
				 M532.963,73.812c-0.09-0.359-0.229-0.667-0.42-0.922c-0.189-0.255-0.439-0.453-0.75-0.593c-0.31-0.14-0.68-0.21-1.109-0.21
				c-0.75,0-1.351,0.24-1.8,0.72c-0.45,0.48-0.721,1.21-0.811,2.19h5.025C533.099,74.566,533.054,74.172,532.963,73.812z"/>
			<path d="M534.945,71.622h1.02l2.145,3.074l2.16-3.074h0.945l-2.565,3.689l2.896,4.125h-1.021l-2.444-3.51l-2.415,3.51h-0.976
				l2.88-4.155L534.945,71.622z"/>
			<path d="M543.614,71.622v3.33h4.65v-3.33h0.87v7.814h-0.87v-3.72h-4.65v3.72h-0.87v-7.814H543.614z"/>
			<path d="M553.071,79.384c-0.444-0.194-0.819-0.473-1.125-0.832c-0.305-0.36-0.539-0.793-0.704-1.298s-0.248-1.067-0.248-1.688
				c0-0.63,0.088-1.199,0.263-1.71c0.175-0.51,0.42-0.949,0.735-1.319c0.314-0.37,0.697-0.655,1.147-0.855
				c0.449-0.2,0.954-0.3,1.515-0.3c0.56,0,1.064,0.098,1.515,0.293c0.45,0.194,0.83,0.472,1.14,0.832
				c0.311,0.36,0.548,0.792,0.713,1.298c0.165,0.505,0.247,1.062,0.247,1.672c0,0.63-0.085,1.202-0.255,1.718
				c-0.17,0.515-0.412,0.957-0.728,1.327c-0.314,0.37-0.699,0.655-1.154,0.855c-0.455,0.199-0.968,0.3-1.538,0.3
				C554.024,79.677,553.516,79.579,553.071,79.384z M555.869,78.664c0.34-0.175,0.62-0.415,0.84-0.72
				c0.22-0.306,0.38-0.665,0.48-1.08c0.1-0.415,0.149-0.867,0.149-1.357c0-0.47-0.05-0.91-0.149-1.32
				c-0.101-0.41-0.261-0.768-0.48-1.072s-0.5-0.545-0.84-0.72s-0.755-0.263-1.245-0.263c-0.479,0-0.893,0.088-1.237,0.263
				s-0.625,0.415-0.84,0.72s-0.373,0.662-0.473,1.072s-0.15,0.855-0.15,1.335c0,0.48,0.051,0.928,0.15,1.343s0.258,0.774,0.473,1.08
				c0.215,0.305,0.495,0.545,0.84,0.72s0.758,0.263,1.237,0.263C555.114,78.927,555.529,78.839,555.869,78.664z"/>
			<path d="M562.034,72.372l-0.36,2.984c-0.09,0.75-0.212,1.391-0.367,1.92c-0.155,0.53-0.348,0.96-0.577,1.29
				c-0.23,0.33-0.506,0.57-0.825,0.72c-0.32,0.15-0.69,0.226-1.11,0.226h-0.165v-0.766h0.12c0.28,0,0.532-0.052,0.758-0.157
				c0.225-0.104,0.425-0.303,0.6-0.592c0.175-0.29,0.328-0.69,0.458-1.2s0.239-1.17,0.33-1.98l0.359-3.194h4.68v7.814h-0.87v-7.064
				H562.034z"/>
			<path d="M569.871,79.384c-0.444-0.194-0.819-0.473-1.125-0.832c-0.305-0.36-0.539-0.793-0.704-1.298s-0.248-1.067-0.248-1.688
				c0-0.63,0.088-1.199,0.263-1.71c0.175-0.51,0.42-0.949,0.735-1.319c0.314-0.37,0.697-0.655,1.147-0.855
				c0.449-0.2,0.954-0.3,1.515-0.3c0.56,0,1.064,0.098,1.515,0.293c0.45,0.194,0.83,0.472,1.14,0.832
				c0.311,0.36,0.548,0.792,0.713,1.298c0.165,0.505,0.247,1.062,0.247,1.672c0,0.63-0.085,1.202-0.255,1.718
				c-0.17,0.515-0.412,0.957-0.728,1.327c-0.314,0.37-0.699,0.655-1.154,0.855c-0.455,0.199-0.968,0.3-1.538,0.3
				C570.824,79.677,570.316,79.579,569.871,79.384z M572.668,78.664c0.34-0.175,0.62-0.415,0.84-0.72
				c0.22-0.306,0.38-0.665,0.48-1.08c0.1-0.415,0.149-0.867,0.149-1.357c0-0.47-0.05-0.91-0.149-1.32
				c-0.101-0.41-0.261-0.768-0.48-1.072s-0.5-0.545-0.84-0.72s-0.755-0.263-1.245-0.263c-0.479,0-0.893,0.088-1.237,0.263
				s-0.625,0.415-0.84,0.72s-0.373,0.662-0.473,1.072s-0.15,0.855-0.15,1.335c0,0.48,0.051,0.928,0.15,1.343s0.258,0.774,0.473,1.08
				c0.215,0.305,0.495,0.545,0.84,0.72s0.758,0.263,1.237,0.263C571.914,78.927,572.329,78.839,572.668,78.664z"/>
			<path d="M581.923,72.401h-4.125v7.035h-0.87v-7.814h4.995V72.401z"/>
			<path d="M588.463,79.437v-6.569l-4.425,6.569h-0.915v-7.814h0.84v6.569l4.395-6.569h0.945v7.814H588.463z"/>
			<path d="M596.743,79.437v-6.569l-4.425,6.569h-0.915v-7.814h0.841v6.569l4.395-6.569h0.944v7.814H596.743z"/>
			<path d="M498.165,97.437v-6.569l-4.425,6.569h-0.915v-7.814h0.841v6.569l4.395-6.569h0.944v7.814H498.165z"/>
			<path d="M507.629,89.622c0.59,0,1.072,0.06,1.447,0.18s0.67,0.275,0.886,0.465c0.215,0.19,0.362,0.402,0.442,0.638
				s0.12,0.468,0.12,0.697c0,0.4-0.088,0.753-0.263,1.058s-0.478,0.548-0.907,0.728c0.5,0.14,0.862,0.383,1.087,0.728
				c0.226,0.345,0.338,0.718,0.338,1.117c0,0.311-0.05,0.598-0.15,0.862c-0.1,0.266-0.268,0.498-0.502,0.698
				c-0.235,0.199-0.538,0.357-0.908,0.472c-0.37,0.115-0.824,0.173-1.364,0.173h-3.391v-7.814H507.629z M509.19,92.704
				c0.3-0.225,0.449-0.562,0.449-1.013c0-0.449-0.159-0.784-0.479-1.005c-0.32-0.22-0.83-0.33-1.53-0.33h-2.295v2.686h2.415
				C508.41,93.042,508.889,92.929,509.19,92.704z M509.415,96.334c0.31-0.245,0.465-0.603,0.465-1.072c0-0.48-0.17-0.848-0.51-1.103
				s-0.84-0.383-1.5-0.383h-2.535v2.925h2.505C508.58,96.701,509.105,96.579,509.415,96.334z"/>
			<path d="M514.297,97.384c-0.445-0.194-0.82-0.473-1.125-0.832c-0.305-0.36-0.54-0.793-0.705-1.298s-0.247-1.067-0.247-1.688
				c0-0.63,0.087-1.199,0.262-1.71c0.176-0.51,0.421-0.949,0.735-1.319c0.315-0.37,0.697-0.655,1.147-0.855s0.955-0.3,1.515-0.3
				c0.561,0,1.065,0.098,1.516,0.293c0.449,0.194,0.83,0.472,1.14,0.832s0.548,0.792,0.713,1.298
				c0.164,0.505,0.247,1.062,0.247,1.672c0,0.63-0.085,1.202-0.255,1.718c-0.17,0.515-0.413,0.957-0.728,1.327
				c-0.315,0.37-0.7,0.655-1.155,0.855c-0.455,0.199-0.967,0.3-1.537,0.3S514.743,97.579,514.297,97.384z M517.094,96.664
				c0.341-0.175,0.62-0.415,0.841-0.72c0.22-0.306,0.38-0.665,0.479-1.08s0.15-0.867,0.15-1.357c0-0.47-0.051-0.91-0.15-1.32
				s-0.26-0.768-0.479-1.072c-0.221-0.305-0.5-0.545-0.841-0.72c-0.34-0.175-0.755-0.263-1.244-0.263
				c-0.48,0-0.893,0.088-1.238,0.263c-0.345,0.175-0.624,0.415-0.84,0.72c-0.215,0.305-0.372,0.662-0.472,1.072
				c-0.101,0.41-0.15,0.855-0.15,1.335c0,0.48,0.05,0.928,0.15,1.343c0.1,0.415,0.257,0.774,0.472,1.08
				c0.216,0.305,0.495,0.545,0.84,0.72c0.346,0.175,0.758,0.263,1.238,0.263C516.339,96.927,516.754,96.839,517.094,96.664z"/>
			<path d="M525.426,89.547c0.365,0.11,0.665,0.26,0.9,0.45c0.235,0.189,0.407,0.41,0.518,0.66s0.165,0.515,0.165,0.795
				c0,0.46-0.125,0.847-0.375,1.162c-0.25,0.314-0.561,0.548-0.93,0.697c0.479,0.15,0.847,0.397,1.103,0.742
				c0.255,0.346,0.382,0.772,0.382,1.283c0,0.319-0.06,0.622-0.18,0.907s-0.308,0.532-0.562,0.742s-0.585,0.378-0.99,0.503
				c-0.404,0.125-0.888,0.188-1.447,0.188c-0.45,0-0.862-0.045-1.237-0.135c-0.375-0.091-0.7-0.23-0.975-0.421
				c-0.275-0.189-0.495-0.432-0.66-0.727c-0.165-0.296-0.268-0.653-0.308-1.073h0.84c0.11,0.59,0.354,1.008,0.735,1.253
				c0.38,0.245,0.93,0.367,1.649,0.367c0.82,0,1.396-0.149,1.725-0.45c0.33-0.3,0.495-0.689,0.495-1.17
				c0-0.51-0.172-0.904-0.518-1.185c-0.345-0.28-0.832-0.42-1.462-0.42h-1.545v-0.72h1.604c0.59,0,1.033-0.13,1.328-0.391
				c0.295-0.26,0.442-0.609,0.442-1.05c0-0.47-0.165-0.827-0.495-1.072s-0.84-0.367-1.53-0.367c-0.399,0-0.732,0.029-0.997,0.09
				c-0.266,0.06-0.485,0.149-0.66,0.27s-0.317,0.271-0.428,0.45c-0.109,0.18-0.205,0.385-0.285,0.615l-0.765-0.165
				c0.07-0.28,0.178-0.54,0.322-0.78c0.146-0.24,0.34-0.45,0.585-0.63s0.553-0.322,0.923-0.428c0.37-0.104,0.814-0.157,1.335-0.157
				C524.629,89.382,525.062,89.437,525.426,89.547z"/>
			<path d="M530.205,89.622l2.85,6.944l2.939-6.944h1.2v7.814h-0.84v-6.72l-2.925,6.72h-0.84l-2.745-6.6v6.6h-0.84v-7.814H530.205z"
				/>
			<path d="M541.146,97.384c-0.444-0.194-0.819-0.473-1.125-0.832c-0.305-0.36-0.539-0.793-0.704-1.298s-0.248-1.067-0.248-1.688
				c0-0.63,0.088-1.199,0.263-1.71c0.175-0.51,0.42-0.949,0.735-1.319c0.314-0.37,0.697-0.655,1.147-0.855
				c0.449-0.2,0.954-0.3,1.515-0.3c0.56,0,1.064,0.098,1.515,0.293c0.45,0.194,0.83,0.472,1.14,0.832
				c0.311,0.36,0.548,0.792,0.713,1.298c0.165,0.505,0.247,1.062,0.247,1.672c0,0.63-0.085,1.202-0.255,1.718
				c-0.17,0.515-0.412,0.957-0.728,1.327c-0.314,0.37-0.699,0.655-1.154,0.855c-0.455,0.199-0.968,0.3-1.538,0.3
				C542.099,97.677,541.591,97.579,541.146,97.384z M543.944,96.664c0.34-0.175,0.62-0.415,0.84-0.72
				c0.22-0.306,0.38-0.665,0.48-1.08c0.1-0.415,0.149-0.867,0.149-1.357c0-0.47-0.05-0.91-0.149-1.32
				c-0.101-0.41-0.261-0.768-0.48-1.072s-0.5-0.545-0.84-0.72s-0.755-0.263-1.245-0.263c-0.479,0-0.893,0.088-1.237,0.263
				s-0.625,0.415-0.84,0.72s-0.373,0.662-0.473,1.072s-0.15,0.855-0.15,1.335c0,0.48,0.051,0.928,0.15,1.343s0.258,0.774,0.473,1.08
				c0.215,0.305,0.495,0.545,0.84,0.72s0.758,0.263,1.237,0.263C543.189,96.927,543.604,96.839,543.944,96.664z"/>
			<path d="M552.014,89.622h0.84v3.51h0.39c0.42,0,0.755-0.09,1.005-0.271c0.25-0.18,0.471-0.479,0.66-0.899l0.48-1.05
				c0.199-0.44,0.417-0.766,0.652-0.976c0.234-0.21,0.587-0.314,1.058-0.314c0.069,0,0.14,0.005,0.21,0.015
				c0.069,0.01,0.13,0.021,0.18,0.03l0.18,0.03l-0.09,0.704l-0.15-0.029c-0.05-0.01-0.104-0.018-0.164-0.022
				c-0.061-0.005-0.115-0.008-0.165-0.008c-0.301,0-0.516,0.072-0.646,0.218c-0.13,0.145-0.25,0.348-0.36,0.607l-0.494,1.095
				c-0.13,0.29-0.275,0.52-0.436,0.69c-0.16,0.17-0.35,0.314-0.569,0.435c0.199,0.08,0.375,0.195,0.524,0.345
				c0.15,0.15,0.311,0.34,0.48,0.57l2.159,3.135h-1.05l-1.979-2.895c-0.181-0.261-0.368-0.448-0.562-0.562
				c-0.195-0.115-0.468-0.173-0.817-0.173h-0.495v3.63h-0.84v-3.63h-0.525c-0.35,0-0.627,0.058-0.832,0.173
				c-0.205,0.114-0.397,0.302-0.578,0.562l-1.979,2.895h-1.005l2.16-3.135c0.17-0.23,0.33-0.418,0.479-0.562
				c0.15-0.146,0.325-0.258,0.525-0.338c-0.21-0.08-0.397-0.21-0.562-0.39s-0.323-0.43-0.473-0.75l-0.555-1.2
				c-0.051-0.12-0.101-0.225-0.15-0.314s-0.105-0.165-0.165-0.226c-0.06-0.06-0.133-0.104-0.218-0.135s-0.192-0.045-0.322-0.045
				c-0.06,0-0.117,0.003-0.173,0.008c-0.055,0.005-0.107,0.013-0.157,0.022s-0.104,0.02-0.165,0.029l-0.09-0.704l0.18-0.03
				c0.051-0.01,0.11-0.021,0.181-0.03c0.069-0.01,0.145-0.015,0.225-0.015c0.25,0,0.458,0.024,0.623,0.075
				c0.164,0.05,0.307,0.127,0.427,0.232c0.12,0.104,0.226,0.237,0.315,0.397c0.09,0.159,0.185,0.35,0.285,0.569l0.479,1.065
				c0.19,0.42,0.415,0.72,0.675,0.899c0.261,0.181,0.585,0.271,0.976,0.271h0.42V89.622z"/>
			<path d="M559.829,89.622v3.33h4.65v-3.33h0.87v7.814h-0.87v-3.72h-4.65v3.72h-0.87v-7.814H559.829z"/>
			<path d="M569.286,97.384c-0.444-0.194-0.819-0.473-1.125-0.832c-0.305-0.36-0.539-0.793-0.704-1.298s-0.248-1.067-0.248-1.688
				c0-0.63,0.088-1.199,0.263-1.71c0.175-0.51,0.42-0.949,0.735-1.319c0.314-0.37,0.697-0.655,1.147-0.855
				c0.449-0.2,0.954-0.3,1.515-0.3c0.56,0,1.064,0.098,1.515,0.293c0.45,0.194,0.83,0.472,1.14,0.832
				c0.311,0.36,0.548,0.792,0.713,1.298c0.165,0.505,0.247,1.062,0.247,1.672c0,0.63-0.085,1.202-0.255,1.718
				c-0.17,0.515-0.412,0.957-0.728,1.327c-0.314,0.37-0.699,0.655-1.154,0.855c-0.455,0.199-0.968,0.3-1.538,0.3
				C570.239,97.677,569.731,97.579,569.286,97.384z M572.083,96.664c0.34-0.175,0.62-0.415,0.84-0.72
				c0.22-0.306,0.38-0.665,0.48-1.08c0.1-0.415,0.149-0.867,0.149-1.357c0-0.47-0.05-0.91-0.149-1.32
				c-0.101-0.41-0.261-0.768-0.48-1.072s-0.5-0.545-0.84-0.72s-0.755-0.263-1.245-0.263c-0.479,0-0.893,0.088-1.237,0.263
				s-0.625,0.415-0.84,0.72s-0.373,0.662-0.473,1.072s-0.15,0.855-0.15,1.335c0,0.48,0.051,0.928,0.15,1.343s0.258,0.774,0.473,1.08
				c0.215,0.305,0.495,0.545,0.84,0.72s0.758,0.263,1.237,0.263C571.329,96.927,571.744,96.839,572.083,96.664z"/>
			<path d="M581.848,96.949c-0.54,0.484-1.274,0.728-2.205,0.728c-0.56,0-1.06-0.096-1.499-0.285c-0.44-0.19-0.811-0.463-1.11-0.817
				c-0.3-0.355-0.53-0.785-0.69-1.29c-0.159-0.505-0.239-1.077-0.239-1.718c0-0.63,0.085-1.202,0.255-1.717
				c0.17-0.516,0.41-0.955,0.72-1.32s0.688-0.647,1.133-0.848c0.444-0.2,0.947-0.3,1.507-0.3c0.851,0,1.527,0.218,2.032,0.652
				c0.506,0.436,0.838,1.048,0.998,1.838l-0.84,0.21c-0.061-0.28-0.146-0.54-0.255-0.78c-0.11-0.24-0.25-0.445-0.42-0.615
				c-0.171-0.17-0.383-0.305-0.638-0.404c-0.255-0.101-0.558-0.15-0.907-0.15c-0.471,0-0.87,0.085-1.2,0.255
				s-0.605,0.405-0.825,0.705s-0.38,0.657-0.479,1.072c-0.101,0.415-0.15,0.867-0.15,1.357s0.05,0.942,0.15,1.357
				c0.1,0.415,0.255,0.775,0.465,1.08s0.482,0.543,0.817,0.713s0.737,0.255,1.207,0.255c0.75,0,1.298-0.183,1.643-0.548
				s0.577-0.853,0.697-1.462h0.87C582.734,95.786,582.388,96.464,581.848,96.949z"/>
			<path d="M583.753,90.387v-0.765h6.449v0.765h-2.774v7.05h-0.87v-7.05H583.753z"/>
			<path d="M596.743,97.437v-6.569l-4.425,6.569h-0.915v-7.814h0.841v6.569l4.395-6.569h0.944v7.814H596.743z"/>
		</g>
	</g>
	<g>
		<path d="M249.505,270.302v-5.296h19.627v5.296h-6.694v17.905h-6.24v-17.905H249.505z"/>
		<path d="M282.845,286.274c-1.56,1.613-3.747,2.421-6.562,2.421c-2.773,0-4.929-0.786-6.467-2.354
			c-1.538-1.571-2.307-3.772-2.307-6.614c0-2.881,0.785-5.117,2.354-6.71c1.57-1.591,3.753-2.388,6.547-2.388
			c2.773,0,4.93,0.785,6.468,2.355s2.307,3.773,2.307,6.611C285.185,282.437,284.404,284.66,282.845,286.274z M274.218,283.007
			c0.509,0.672,1.218,1.008,2.128,1.008s1.619-0.336,2.128-1.008c0.51-0.67,0.764-1.787,0.764-3.346
			c0-1.561-0.254-2.676-0.764-3.346c-0.509-0.674-1.218-1.01-2.128-1.01s-1.619,0.336-2.128,1.01
			c-0.51,0.67-0.764,1.785-0.764,3.346C273.455,281.22,273.708,282.337,274.218,283.007z"/>
		<path d="M299.581,286.291c-1.214,1.624-2.87,2.435-4.973,2.435c-2.188,0-3.872-0.768-5.053-2.307
			c-1.181-1.537-1.772-3.703-1.772-6.498c0-1.473,0.167-2.789,0.503-3.949c0.337-1.158,0.818-2.133,1.446-2.924
			c0.628-0.791,1.381-1.391,2.259-1.803c0.877-0.412,1.858-0.618,2.941-0.618c1.906,0,3.4,0.672,4.483,2.015v-7.636h5.881v23.201
			h-5.719v-1.916H299.581z M299.239,277.517c-0.12-0.52-0.288-0.932-0.505-1.234c-0.26-0.369-0.579-0.623-0.958-0.766
			c-0.379-0.141-0.764-0.211-1.152-0.211c-0.866,0-1.565,0.326-2.097,0.977c-0.531,0.648-0.796,1.775-0.796,3.379
			c0,1.582,0.26,2.697,0.78,3.346c0.519,0.65,1.213,0.977,2.079,0.977c0.411,0,0.802-0.076,1.169-0.229
			c0.368-0.15,0.693-0.434,0.975-0.846c0.455-0.65,0.684-1.635,0.684-2.959v-0.486C299.417,278.687,299.358,278.036,299.239,277.517
			z"/>
		<path d="M318.883,286.354c-0.693,0.736-1.445,1.305-2.26,1.707c-0.812,0.401-1.782,0.602-2.909,0.602
			c-0.757,0-1.482-0.098-2.177-0.291c-0.694-0.194-1.304-0.506-1.836-0.93c-0.53-0.421-0.952-0.953-1.271-1.591
			c-0.312-0.64-0.471-1.415-0.471-2.323c0-1.041,0.211-1.912,0.635-2.615c0.423-0.703,1.002-1.277,1.738-1.721
			c0.733-0.445,1.604-0.77,2.6-0.977c0.997-0.205,2.068-0.34,3.219-0.404l2.564-0.131v-0.684c0-0.846-0.206-1.43-0.617-1.756
			c-0.408-0.324-0.932-0.486-1.561-0.486c-1.345,0-2.112,0.562-2.31,1.689l-5.298-0.422c0.306-1.821,1.117-3.176,2.439-4.062
			c1.322-0.889,3.131-1.334,5.429-1.334c1.432,0,2.627,0.168,3.59,0.504c0.967,0.336,1.738,0.809,2.325,1.414
			c0.583,0.607,1.007,1.338,1.269,2.193c0.26,0.855,0.391,1.814,0.391,2.877v10.593h-5.491V286.354L318.883,286.354z
			 M316.803,281.091c-1.234,0.064-2.075,0.271-2.521,0.617c-0.442,0.346-0.664,0.801-0.664,1.365c0,0.561,0.166,0.963,0.502,1.201
			c0.336,0.236,0.808,0.356,1.414,0.356c0.91,0,1.662-0.255,2.259-0.767c0.596-0.508,0.895-1.271,0.895-2.291v-0.584
			L316.803,281.091z"/>
		<path d="M335.324,280.669l2.988-9.521h6.107l-6.82,17.125c-0.453,1.127-0.883,2.084-1.282,2.875
			c-0.4,0.791-0.854,1.438-1.352,1.937s-1.062,0.858-1.688,1.088c-0.627,0.229-1.397,0.341-2.31,0.341
			c-0.69,0-1.371-0.062-2.028-0.179c-0.662-0.119-1.272-0.269-1.836-0.438l0.876-4.258c0.303,0.063,0.629,0.125,0.976,0.179
			c0.348,0.056,0.672,0.082,0.975,0.082c0.543,0,1.014-0.139,1.414-0.407c0.399-0.27,0.729-0.784,0.99-1.544l0.356-1.039
			l-6.983-15.762h6.366L335.324,280.669z"/>
		<path d="M343.482,283.712c0.16-0.395,0.383-0.729,0.662-1.004c0.281-0.275,0.613-0.488,0.998-0.635s0.801-0.219,1.246-0.219
			c0.447,0,0.858,0.07,1.24,0.219c0.379,0.145,0.709,0.359,0.987,0.641c0.281,0.281,0.5,0.615,0.656,1.006
			c0.153,0.389,0.233,0.826,0.233,1.311c0,0.485-0.082,0.926-0.242,1.319c-0.159,0.395-0.383,0.728-0.659,1.005
			c-0.281,0.274-0.613,0.485-0.998,0.633c-0.388,0.146-0.804,0.223-1.248,0.223c-0.445,0-0.861-0.074-1.246-0.223
			c-0.388-0.146-0.715-0.355-0.99-0.633c-0.274-0.277-0.491-0.607-0.647-0.998c-0.154-0.391-0.234-0.826-0.234-1.311
			C343.239,284.551,343.321,284.106,343.482,283.712z M344.73,286.79c0.393,0.412,0.941,0.62,1.646,0.62
			c0.69,0,1.237-0.205,1.639-0.614c0.396-0.408,0.6-0.998,0.6-1.766c0-0.779-0.201-1.371-0.604-1.773
			c-0.401-0.404-0.946-0.605-1.631-0.605c-0.693,0-1.24,0.203-1.641,0.611c-0.396,0.408-0.602,0.998-0.602,1.768
			C344.136,285.79,344.333,286.376,344.73,286.79z M347.257,285.315l0.584,1.211h-0.996l-0.441-0.981h-0.43v0.981h-0.896v-3.062
			h1.312c0.455,0,0.783,0.088,0.981,0.264c0.199,0.178,0.3,0.428,0.3,0.748C347.669,284.843,347.532,285.124,347.257,285.315z
			 M346.331,284.843c0.162,0,0.273-0.029,0.335-0.092c0.062-0.061,0.094-0.145,0.094-0.248s-0.033-0.186-0.103-0.242
			c-0.063-0.057-0.188-0.086-0.369-0.086h-0.313v0.668H346.331z"/>
	</g>
	<path fill="#FFFFFF" stroke="#000000" stroke-miterlimit="10" d="M332.814,164.6c0,26.251-12.979,49.471-32.876,63.583
		c-19.898-14.112-32.876-37.332-32.876-63.583s12.979-49.47,32.876-63.591C319.835,115.13,332.814,138.349,332.814,164.6z"/>
	<line fill="none" stroke="#000000" stroke-miterlimit="10" x1="300.062" y1="0" x2="300.062" y2="294.513"/>
	<path fill="none" stroke="#FFFFFF" stroke-width="4" stroke-miterlimit="10" d="M344.99,86.669
		c-16.782,0-32.336,5.306-45.052,14.34c-19.898,14.121-32.876,37.34-32.876,63.591s12.979,49.471,32.876,63.583
		c12.716,9.034,28.27,14.34,45.052,14.34c43.043,0,77.929-34.887,77.929-77.923C422.919,121.557,388.034,86.669,344.99,86.669z"/>
	<path fill="none" stroke="#000000" stroke-miterlimit="10" d="M344.99,86.669c-16.782,0-32.336,5.306-45.052,14.34
		c-19.898,14.121-32.876,37.34-32.876,63.591s12.979,49.471,32.876,63.583c12.716,9.034,28.27,14.34,45.052,14.34
		c43.043,0,77.929-34.887,77.929-77.923C422.919,121.557,388.034,86.669,344.99,86.669z"/>
	<g>
		<g>
			<path fill="none" stroke="#000000" stroke-miterlimit="10" d="M517.5,104.429c-32.559,36.372-83.271,59.838-140.361,60.162"/>
			<g>
				<path d="M383.848,159.592c0.154,0.229,0.094,0.54-0.136,0.694l-6.346,4.272l6.556,3.943c0.236,0.143,0.313,0.45,0.17,0.687
					c-0.142,0.235-0.452,0.311-0.686,0.171l-7.228-4.349c-0.146-0.088-0.238-0.245-0.242-0.416s0.079-0.332,0.221-0.428l6.997-4.711
					c0.082-0.055,0.175-0.083,0.267-0.085C383.585,159.367,383.749,159.444,383.848,159.592z"/>
			</g>
		</g>
	</g>
</g>
<g id="Layer_2">
</g>
<g id="Layer_3">
</g>
<g id="Layer_4">
</g>
<g id="Layer_5">
</g>
</svg>
