<?xml version="1.0" encoding="utf-8"?>
<!-- Generator: Adobe Illustrator 16.0.3, SVG Export Plug-In . SVG Version: 6.00 Build 0)  -->
<!DOCTYPE svg PUBLIC "-//W3C//DTD SVG 1.1//EN" "http://www.w3.org/Graphics/SVG/1.1/DTD/svg11.dtd">
<svg version="1.1" xmlns="http://www.w3.org/2000/svg" xmlns:xlink="http://www.w3.org/1999/xlink" x="0px" y="0px" width="260px"
	 height="400px" viewBox="0 0 260 400" enable-background="new 0 0 260 400" xml:space="preserve">
<g id="Layer_1">
	<rect x="-21.618" y="-92.965" fill="#D7FF8A" width="842.11" height="595.001"/>
	<g>
		<defs>
			<rect id="SVGID_25_" x="77.688" y="160.433" width="108.237" height="11.312"/>
		</defs>
		<clipPath id="SVGID_2_">
			<use xlink:href="#SVGID_25_"  overflow="visible"/>
		</clipPath>
		<g clip-path="url(#SVGID_2_)">
			<g>
				
					<rect x="52.751" y="128.104" transform="matrix(0.7071 -0.7071 0.7071 0.7071 -60.6705 110.9244)" fill="#231F20" width="101.62" height="1.186"/>
				
					<rect x="54.426" y="129.78" transform="matrix(0.7071 -0.7071 0.7071 0.7071 -61.364 112.5984)" fill="#231F20" width="101.62" height="1.184"/>
				
					<rect x="56.102" y="131.455" transform="matrix(0.7071 -0.7071 0.7071 0.7071 -62.0575 114.2737)" fill="#231F20" width="101.62" height="1.185"/>
				
					<rect x="57.776" y="133.129" transform="matrix(0.7071 -0.7071 0.7071 0.7071 -62.7514 115.9488)" fill="#231F20" width="101.62" height="1.186"/>
				
					<rect x="59.451" y="134.805" transform="matrix(0.7071 -0.7071 0.7071 0.7071 -63.4453 117.6235)" fill="#231F20" width="101.62" height="1.184"/>
				
					<rect x="61.127" y="136.479" transform="matrix(0.7071 -0.7071 0.7071 0.7071 -64.1388 119.2967)" fill="#231F20" width="101.619" height="1.185"/>
				
					<rect x="62.801" y="138.154" transform="matrix(0.7071 -0.7071 0.7071 0.7071 -64.8323 120.9731)" fill="#231F20" width="101.62" height="1.185"/>
				
					<rect x="64.476" y="139.829" transform="matrix(0.7071 -0.7071 0.7071 0.7071 -65.5263 122.6482)" fill="#231F20" width="101.62" height="1.184"/>
				
					<rect x="66.151" y="141.504" transform="matrix(0.7071 -0.7071 0.7071 0.7071 -66.2204 124.3232)" fill="#231F20" width="101.62" height="1.185"/>
				
					<rect x="67.826" y="143.179" transform="matrix(0.7071 -0.7071 0.7071 0.7071 -66.914 125.9982)" fill="#231F20" width="101.62" height="1.185"/>
				
					<rect x="69.501" y="144.855" transform="matrix(0.7071 -0.7071 0.7071 0.7071 -67.6079 127.672)" fill="#231F20" width="101.62" height="1.183"/>
				
					<rect x="71.176" y="146.53" transform="matrix(0.7071 -0.7071 0.7071 0.7071 -68.3025 129.3482)" fill="#231F20" width="101.62" height="1.184"/>
				
					<rect x="72.758" y="148.303" transform="matrix(0.7071 -0.7071 0.7071 0.7071 -69.0928 130.9854)" fill="#231F20" width="101.619" height="1.184"/>
			</g>
			<g>
				
					<rect x="74.644" y="149.998" transform="matrix(0.7071 -0.7071 0.7071 0.7071 -69.739 132.8175)" fill="#231F20" width="101.62" height="1.185"/>
				
					<rect x="76.32" y="151.674" transform="matrix(0.7071 -0.7071 0.7071 0.7071 -70.4322 134.4886)" fill="#231F20" width="101.619" height="1.183"/>
				
					<rect x="77.994" y="153.347" transform="matrix(0.7071 -0.7071 0.7071 0.7071 -71.1257 136.1663)" fill="#231F20" width="101.62" height="1.185"/>
				
					<rect x="79.669" y="155.022" transform="matrix(0.7071 -0.7071 0.7071 0.7071 -71.8195 137.8416)" fill="#231F20" width="101.62" height="1.185"/>
				
					<rect x="81.344" y="156.698" transform="matrix(0.7071 -0.7071 0.7071 0.7071 -72.5137 139.5148)" fill="#231F20" width="101.62" height="1.185"/>
				
					<rect x="83.02" y="158.372" transform="matrix(0.7071 -0.7071 0.7071 0.7071 -73.207 141.1889)" fill="#231F20" width="101.619" height="1.185"/>
				
					<rect x="84.694" y="160.047" transform="matrix(0.7071 -0.7071 0.7071 0.7071 -73.9008 142.866)" fill="#231F20" width="101.62" height="1.184"/>
				
					<rect x="86.369" y="161.721" transform="matrix(0.7071 -0.7071 0.7071 0.7071 -74.5946 144.5424)" fill="#231F20" width="101.621" height="1.185"/>
				
					<rect x="88.044" y="163.396" transform="matrix(0.7071 -0.7071 0.7071 0.7071 -75.2885 146.2159)" fill="#231F20" width="101.62" height="1.186"/>
				
					<rect x="89.719" y="165.072" transform="matrix(0.7071 -0.7071 0.7071 0.7071 -75.9826 147.8909)" fill="#231F20" width="101.62" height="1.184"/>
				
					<rect x="91.394" y="166.747" transform="matrix(0.7071 -0.7071 0.7071 0.7071 -76.6765 149.5662)" fill="#231F20" width="101.62" height="1.185"/>
				
					<rect x="93.068" y="168.423" transform="matrix(0.7071 -0.7071 0.7071 0.7071 -77.3709 151.2421)" fill="#231F20" width="101.62" height="1.185"/>
				
					<rect x="94.651" y="170.196" transform="matrix(0.7071 -0.7071 0.7071 0.7071 -78.161 152.878)" fill="#231F20" width="101.619" height="1.185"/>
			</g>
			<g>
				
					<rect x="96.304" y="171.92" transform="matrix(0.7071 -0.7071 0.7071 0.7071 -78.8957 154.5515)" fill="#231F20" width="101.619" height="1.183"/>
				
					<rect x="97.978" y="173.594" transform="matrix(0.7071 -0.7071 0.7071 0.7071 -79.589 156.2273)" fill="#231F20" width="101.62" height="1.184"/>
				
					<rect x="99.654" y="175.268" transform="matrix(0.7071 -0.7071 0.7071 0.7071 -80.282 157.9009)" fill="#231F20" width="101.62" height="1.184"/>
				
					<rect x="101.328" y="176.943" transform="matrix(0.7071 -0.7071 0.7071 0.7071 -80.9763 159.5801)" fill="#231F20" width="101.62" height="1.185"/>
				
					<rect x="103.004" y="178.619" transform="matrix(0.7071 -0.7071 0.7071 0.7071 -81.6702 161.2506)" fill="#231F20" width="101.62" height="1.184"/>
				
					<rect x="104.679" y="180.293" transform="matrix(0.7071 -0.7071 0.7071 0.7071 -82.364 162.9272)" fill="#231F20" width="101.619" height="1.185"/>
				
					<rect x="106.354" y="181.968" transform="matrix(0.7071 -0.7071 0.7071 0.7071 -83.0571 164.6006)" fill="#231F20" width="101.62" height="1.183"/>
				
					<rect x="108.029" y="183.643" transform="matrix(0.7071 -0.7071 0.7071 0.7071 -83.7509 166.2772)" fill="#231F20" width="101.62" height="1.184"/>
				
					<rect x="109.703" y="185.318" transform="matrix(0.7071 -0.7071 0.7071 0.7071 -84.4452 167.9536)" fill="#231F20" width="101.621" height="1.185"/>
				
					<rect x="111.378" y="186.993" transform="matrix(0.7071 -0.7071 0.7071 0.7071 -85.1392 169.6286)" fill="#231F20" width="101.621" height="1.185"/>
				
					<rect x="113.053" y="188.668" transform="matrix(0.7071 -0.7071 0.7071 0.7071 -85.8331 171.302)" fill="#231F20" width="101.62" height="1.185"/>
				
					<rect x="114.727" y="190.344" transform="matrix(0.7071 -0.7071 0.7071 0.7071 -86.5273 172.9766)" fill="#231F20" width="101.62" height="1.184"/>
				
					<rect x="116.31" y="192.117" transform="matrix(0.7071 -0.7071 0.7071 0.7071 -87.3179 174.6139)" fill="#231F20" width="101.619" height="1.185"/>
			</g>
		</g>
	</g>
	<g>
		<defs>
			<rect id="SVGID_27_" x="69.605" y="147.229" width="111.193" height="11.312"/>
		</defs>
		<clipPath id="SVGID_4_">
			<use xlink:href="#SVGID_27_"  overflow="visible"/>
		</clipPath>
		<g clip-path="url(#SVGID_4_)">
			<g>
				<polygon fill="#231F20" points="131.431,79.984 60.03,151.841 59.198,151.002 130.599,79.146 				"/>
				<polygon fill="#231F20" points="133.096,81.658 61.694,153.515 60.863,152.678 132.264,80.822 				"/>
				<polygon fill="#231F20" points="134.761,83.334 63.358,155.19 62.527,154.352 133.928,82.497 				"/>
				<polygon fill="#231F20" points="136.425,85.009 65.023,156.865 64.191,156.026 135.593,84.17 				"/>
				<polygon fill="#231F20" points="138.089,86.684 66.688,158.54 65.855,157.702 137.257,85.846 				"/>
				<polygon fill="#231F20" points="139.753,88.359 68.352,160.214 67.521,159.376 138.921,87.521 				"/>
				<polygon fill="#231F20" points="141.417,90.033 70.016,161.89 69.184,161.051 140.585,89.194 				"/>
				<polygon fill="#231F20" points="143.082,91.708 71.68,163.564 70.849,162.727 142.25,90.87 				"/>
				<polygon fill="#231F20" points="144.747,93.384 73.345,165.24 72.512,164.401 143.915,92.545 				"/>
				<polygon fill="#231F20" points="146.411,95.059 75.009,166.915 74.178,166.076 145.578,94.221 				"/>
				<polygon fill="#231F20" points="148.075,96.733 76.673,168.589 75.842,167.752 147.243,95.896 				"/>
				<polygon fill="#231F20" points="149.739,98.409 78.337,170.266 77.506,169.428 148.907,97.571 				"/>
				<polygon fill="#231F20" points="151.311,100.183 79.91,172.038 79.078,171.2 150.479,99.343 				"/>
			</g>
			<g>
				<polygon fill="#231F20" points="153.185,101.877 81.784,173.733 80.952,172.896 152.354,101.04 				"/>
				<polygon fill="#231F20" points="154.85,103.552 83.449,175.406 82.616,174.57 154.018,102.715 				"/>
				<polygon fill="#231F20" points="156.514,105.227 85.113,177.083 84.282,176.244 155.682,104.39 				"/>
				<polygon fill="#231F20" points="158.179,106.901 86.777,178.758 85.945,177.919 157.347,106.063 				"/>
				<polygon fill="#231F20" points="159.843,108.577 88.441,180.433 87.609,179.595 159.011,107.738 				"/>
				<polygon fill="#231F20" points="161.508,110.252 90.106,182.106 89.274,181.269 160.676,109.414 				"/>
				<polygon fill="#231F20" points="163.171,111.926 91.77,183.782 90.939,182.944 162.34,111.087 				"/>
				<polygon fill="#231F20" points="164.837,113.601 93.435,185.458 92.604,184.619 164.004,112.763 				"/>
				<polygon fill="#231F20" points="166.501,115.276 95.099,187.133 94.267,186.294 165.668,114.438 				"/>
				<polygon fill="#231F20" points="168.165,116.951 96.763,188.808 95.932,187.97 167.333,116.114 				"/>
				<polygon fill="#231F20" points="169.83,118.627 98.428,190.483 97.596,189.645 168.997,117.789 				"/>
				<polygon fill="#231F20" points="171.493,120.302 100.092,192.158 99.26,191.32 170.662,119.464 				"/>
				<polygon fill="#231F20" points="173.065,122.075 101.664,193.931 100.832,193.093 172.234,121.235 				"/>
			</g>
			<g>
				<polygon fill="#231F20" points="174.708,123.798 103.307,195.653 102.474,194.817 173.876,122.961 				"/>
				<polygon fill="#231F20" points="176.373,125.472 104.971,197.328 104.139,196.492 175.541,124.636 				"/>
				<polygon fill="#231F20" points="178.037,127.147 106.635,199.003 105.804,198.165 177.204,126.312 				"/>
				<polygon fill="#231F20" points="179.701,128.821 108.3,200.679 107.468,199.841 178.87,127.984 				"/>
				<polygon fill="#231F20" points="181.366,130.498 109.964,202.354 109.132,201.516 180.534,129.659 				"/>
				<polygon fill="#231F20" points="183.029,132.173 111.629,204.028 110.797,203.19 182.198,131.335 				"/>
				<polygon fill="#231F20" points="184.694,133.847 113.293,205.702 112.461,204.865 183.863,133.009 				"/>
				<polygon fill="#231F20" points="186.359,135.521 114.957,207.378 114.126,206.54 185.526,134.685 				"/>
				<polygon fill="#231F20" points="188.023,137.196 116.622,209.054 115.789,208.216 187.191,136.358 				"/>
				<polygon fill="#231F20" points="189.687,138.872 118.285,210.729 117.454,209.891 188.855,138.034 				"/>
				<polygon fill="#231F20" points="191.352,140.548 119.95,212.404 119.118,211.565 190.519,139.71 				"/>
				<polygon fill="#231F20" points="193.015,142.223 121.613,214.079 120.782,213.241 192.184,141.384 				"/>
				<polygon fill="#231F20" points="194.587,143.997 123.186,215.853 122.354,215.014 193.756,143.157 				"/>
			</g>
		</g>
	</g>
	<g>
		<defs>
			<rect id="SVGID_29_" x="83.914" y="134.022" width="107.676" height="11.312"/>
		</defs>
		<clipPath id="SVGID_6_">
			<use xlink:href="#SVGID_29_"  overflow="visible"/>
		</clipPath>
		<g clip-path="url(#SVGID_6_)">
			<g>
				<polygon fill="#231F20" points="143.295,66.778 71.895,138.635 71.062,137.796 142.464,65.94 				"/>
				<polygon fill="#231F20" points="144.96,68.452 73.559,140.309 72.728,139.472 144.129,67.616 				"/>
				<polygon fill="#231F20" points="146.625,70.128 75.223,141.984 74.392,141.146 145.792,69.291 				"/>
				<polygon fill="#231F20" points="148.29,71.803 76.888,143.659 76.056,142.82 147.458,70.964 				"/>
				<polygon fill="#231F20" points="149.954,73.478 78.552,145.334 77.72,144.496 149.122,72.64 				"/>
				<polygon fill="#231F20" points="151.618,75.153 80.217,147.008 79.385,146.17 150.786,74.315 				"/>
				<polygon fill="#231F20" points="153.282,76.827 81.881,148.684 81.049,147.845 152.45,75.988 				"/>
				<polygon fill="#231F20" points="154.947,78.502 83.545,150.358 82.714,149.521 154.115,77.664 				"/>
				<polygon fill="#231F20" points="156.611,80.178 85.209,152.034 84.377,151.195 155.78,79.339 				"/>
				<polygon fill="#231F20" points="158.275,81.853 86.874,153.709 86.042,152.87 157.443,81.015 				"/>
				<polygon fill="#231F20" points="159.939,83.527 88.538,155.383 87.707,154.546 159.108,82.69 				"/>
				<polygon fill="#231F20" points="161.604,85.203 90.202,157.06 89.371,156.222 160.772,84.365 				"/>
				<polygon fill="#231F20" points="163.175,86.977 91.774,158.832 90.943,157.994 162.344,86.137 				"/>
			</g>
			<g>
				<polygon fill="#231F20" points="165.05,88.671 93.649,160.527 92.817,159.689 164.219,87.834 				"/>
				<polygon fill="#231F20" points="166.715,90.346 95.313,162.2 94.481,161.364 165.883,89.509 				"/>
				<polygon fill="#231F20" points="168.379,92.021 96.978,163.877 96.146,163.038 167.546,91.184 				"/>
				<polygon fill="#231F20" points="170.043,93.695 98.642,165.552 97.81,164.713 169.212,92.857 				"/>
				<polygon fill="#231F20" points="171.708,95.371 100.306,167.227 99.474,166.389 170.876,94.532 				"/>
				<polygon fill="#231F20" points="173.373,97.046 101.971,168.9 101.139,168.062 172.541,96.208 				"/>
				<polygon fill="#231F20" points="175.036,98.72 103.635,170.576 102.804,169.738 174.205,97.881 				"/>
				<polygon fill="#231F20" points="176.702,100.395 105.299,172.252 104.468,171.413 175.869,99.557 				"/>
				<polygon fill="#231F20" points="178.366,102.07 106.964,173.927 106.131,173.088 177.533,101.231 				"/>
				<polygon fill="#231F20" points="180.03,103.745 108.627,175.602 107.796,174.764 179.198,102.908 				"/>
				<polygon fill="#231F20" points="181.694,105.421 110.292,177.277 109.461,176.438 180.861,104.583 				"/>
				<polygon fill="#231F20" points="183.357,107.096 111.957,178.952 111.125,178.114 182.526,106.258 				"/>
				<polygon fill="#231F20" points="184.93,108.869 113.528,180.725 112.697,179.887 184.099,108.029 				"/>
			</g>
			<g>
				<polygon fill="#231F20" points="186.572,110.592 115.171,182.447 114.339,181.611 185.741,109.755 				"/>
				<polygon fill="#231F20" points="188.237,112.266 116.836,184.122 116.003,183.286 187.405,111.43 				"/>
				<polygon fill="#231F20" points="189.902,113.941 118.5,185.797 117.669,184.959 189.069,113.105 				"/>
				<polygon fill="#231F20" points="191.565,115.615 120.165,187.473 119.333,186.635 190.735,114.778 				"/>
				<polygon fill="#231F20" points="193.23,117.292 121.829,189.147 120.997,188.31 192.398,116.453 				"/>
				<polygon fill="#231F20" points="194.894,118.967 123.494,190.822 122.662,189.984 194.062,118.129 				"/>
				<polygon fill="#231F20" points="196.559,120.641 125.158,192.496 124.326,191.659 195.728,119.803 				"/>
				<polygon fill="#231F20" points="198.224,122.315 126.822,194.172 125.991,193.334 197.391,121.479 				"/>
				<polygon fill="#231F20" points="199.888,123.99 128.486,195.848 127.654,195.01 199.056,123.152 				"/>
				<polygon fill="#231F20" points="201.552,125.666 130.15,197.523 129.319,196.685 200.72,124.828 				"/>
				<polygon fill="#231F20" points="203.216,127.342 131.815,199.198 130.983,198.359 202.384,126.504 				"/>
				<polygon fill="#231F20" points="204.88,129.017 133.478,200.873 132.647,200.035 204.048,128.178 				"/>
				<polygon fill="#231F20" points="206.452,130.791 135.05,202.646 134.219,201.808 205.621,129.951 				"/>
			</g>
		</g>
	</g>
	<g>
		<defs>
			<polygon id="SVGID_31_" points="185.926,132.128 77.673,132.128 77.673,120.816 94.186,120.816 144.312,106.384 180.959,106.384 
				180.798,120.816 185.926,120.816 			"/>
		</defs>
		<clipPath id="SVGID_8_">
			<use xlink:href="#SVGID_31_"  overflow="visible"/>
		</clipPath>
		<g clip-path="url(#SVGID_8_)">
			<g>
				<polygon fill="#231F20" points="143.295,53.572 71.895,125.429 71.062,124.59 142.464,52.734 				"/>
				<polygon fill="#231F20" points="144.96,55.246 73.559,127.103 72.728,126.266 144.129,54.41 				"/>
				<polygon fill="#231F20" points="146.625,56.922 75.223,128.778 74.392,127.939 145.792,56.085 				"/>
				<polygon fill="#231F20" points="148.29,58.597 76.888,130.453 76.056,129.614 147.458,57.758 				"/>
				<polygon fill="#231F20" points="149.954,60.271 78.552,132.128 77.72,131.29 149.122,59.434 				"/>
				<polygon fill="#231F20" points="151.618,61.947 80.217,133.802 79.385,132.964 150.786,61.109 				"/>
				<polygon fill="#231F20" points="153.282,63.621 81.881,135.478 81.049,134.639 152.45,62.782 				"/>
				<polygon fill="#231F20" points="154.947,65.296 83.545,137.152 82.714,136.314 154.115,64.458 				"/>
				<polygon fill="#231F20" points="156.611,66.972 85.209,138.828 84.377,137.989 155.78,66.133 				"/>
				<polygon fill="#231F20" points="158.275,68.646 86.874,140.503 86.042,139.664 157.443,67.809 				"/>
				<polygon fill="#231F20" points="159.939,70.321 88.538,142.177 87.707,141.34 159.108,69.484 				"/>
				<polygon fill="#231F20" points="161.604,71.997 90.202,143.854 89.371,143.016 160.772,71.159 				"/>
				<polygon fill="#231F20" points="163.175,73.771 91.774,145.626 90.943,144.788 162.344,72.931 				"/>
			</g>
			<g>
				<polygon fill="#231F20" points="165.05,75.465 93.649,147.321 92.817,146.483 164.219,74.628 				"/>
				<polygon fill="#231F20" points="166.715,77.14 95.313,148.994 94.481,148.158 165.883,76.303 				"/>
				<polygon fill="#231F20" points="168.379,78.814 96.978,150.671 96.146,149.832 167.546,77.978 				"/>
				<polygon fill="#231F20" points="170.043,80.489 98.642,152.346 97.81,151.507 169.212,79.651 				"/>
				<polygon fill="#231F20" points="171.708,82.165 100.306,154.021 99.474,153.183 170.876,81.326 				"/>
				<polygon fill="#231F20" points="173.373,83.84 101.971,155.694 101.139,154.856 172.541,83.002 				"/>
				<polygon fill="#231F20" points="175.036,85.514 103.635,157.37 102.804,156.532 174.205,84.675 				"/>
				<polygon fill="#231F20" points="176.702,87.188 105.299,159.046 104.468,158.207 175.869,86.351 				"/>
				<polygon fill="#231F20" points="178.366,88.864 106.964,160.721 106.131,159.882 177.533,88.025 				"/>
				<polygon fill="#231F20" points="180.03,90.539 108.627,162.396 107.796,161.558 179.198,89.702 				"/>
				<polygon fill="#231F20" points="181.694,92.215 110.292,164.071 109.461,163.232 180.861,91.377 				"/>
				<polygon fill="#231F20" points="183.357,93.89 111.957,165.746 111.125,164.908 182.526,93.052 				"/>
				<polygon fill="#231F20" points="184.93,95.663 113.528,167.519 112.697,166.681 184.099,94.823 				"/>
			</g>
			<g>
				<polygon fill="#231F20" points="186.572,97.386 115.171,169.241 114.339,168.405 185.741,96.549 				"/>
				<polygon fill="#231F20" points="188.237,99.06 116.836,170.916 116.003,170.08 187.405,98.224 				"/>
				<polygon fill="#231F20" points="189.902,100.735 118.5,172.591 117.669,171.753 189.069,99.899 				"/>
				<polygon fill="#231F20" points="191.565,102.409 120.165,174.267 119.333,173.429 190.735,101.572 				"/>
				<polygon fill="#231F20" points="193.23,104.086 121.829,175.941 120.997,175.104 192.398,103.247 				"/>
				<polygon fill="#231F20" points="194.894,105.761 123.494,177.616 122.662,176.778 194.062,104.923 				"/>
				<polygon fill="#231F20" points="196.559,107.435 125.158,179.29 124.326,178.453 195.728,106.597 				"/>
				<polygon fill="#231F20" points="198.224,109.109 126.822,180.966 125.991,180.128 197.391,108.272 				"/>
				<polygon fill="#231F20" points="199.888,110.784 128.486,182.642 127.654,181.804 199.056,109.946 				"/>
				<polygon fill="#231F20" points="201.552,112.46 130.15,184.317 129.319,183.479 200.72,111.622 				"/>
				<polygon fill="#231F20" points="203.216,114.136 131.815,185.992 130.983,185.153 202.384,113.298 				"/>
				<polygon fill="#231F20" points="204.88,115.811 133.478,187.667 132.647,186.829 204.048,114.972 				"/>
				<polygon fill="#231F20" points="206.452,117.585 135.05,189.44 134.219,188.602 205.621,116.745 				"/>
			</g>
		</g>
	</g>
	<g>
		<defs>
			<rect id="SVGID_33_" x="76.914" y="200.052" width="53.838" height="11.312"/>
		</defs>
		<clipPath id="SVGID_10_">
			<use xlink:href="#SVGID_33_"  overflow="visible"/>
		</clipPath>
		<g clip-path="url(#SVGID_10_)">
			<g>
				<polygon fill="#231F20" points="136.295,132.808 64.895,204.664 64.062,203.825 135.464,131.97 				"/>
				<polygon fill="#231F20" points="137.96,134.481 66.559,206.338 65.728,205.501 137.129,133.646 				"/>
				<polygon fill="#231F20" points="139.625,136.157 68.223,208.014 67.392,207.175 138.792,135.32 				"/>
				<polygon fill="#231F20" points="141.29,137.832 69.888,209.688 69.056,208.85 140.458,136.993 				"/>
				<polygon fill="#231F20" points="142.954,139.507 71.552,211.363 70.72,210.525 142.122,138.669 				"/>
				<polygon fill="#231F20" points="144.618,141.183 73.217,213.037 72.385,212.199 143.786,140.345 				"/>
				<polygon fill="#231F20" points="146.282,142.856 74.881,214.713 74.049,213.874 145.45,142.018 				"/>
				<polygon fill="#231F20" points="147.947,144.531 76.545,216.388 75.714,215.55 147.115,143.693 				"/>
				<polygon fill="#231F20" points="149.611,146.207 78.209,218.063 77.377,217.225 148.78,145.368 				"/>
				<polygon fill="#231F20" points="151.275,147.882 79.874,219.738 79.042,218.899 150.443,147.044 				"/>
				<polygon fill="#231F20" points="152.939,149.557 81.538,221.412 80.707,220.575 152.108,148.72 				"/>
				<polygon fill="#231F20" points="154.604,151.232 83.202,223.089 82.371,222.251 153.772,150.395 				"/>
				<polygon fill="#231F20" points="156.175,153.006 84.774,224.861 83.943,224.023 155.344,152.166 				"/>
			</g>
			<g>
				<polygon fill="#231F20" points="158.05,154.7 86.649,226.557 85.817,225.719 157.219,153.863 				"/>
				<polygon fill="#231F20" points="159.715,156.375 88.313,228.229 87.481,227.394 158.883,155.538 				"/>
				<polygon fill="#231F20" points="161.379,158.05 89.978,229.906 89.146,229.067 160.546,157.213 				"/>
				<polygon fill="#231F20" points="163.043,159.725 91.642,231.581 90.81,230.742 162.212,158.887 				"/>
				<polygon fill="#231F20" points="164.708,161.4 93.306,233.256 92.474,232.418 163.876,160.562 				"/>
				<polygon fill="#231F20" points="166.373,163.075 94.971,234.93 94.139,234.092 165.541,162.237 				"/>
				<polygon fill="#231F20" points="168.036,164.749 96.635,236.605 95.804,235.768 167.205,163.91 				"/>
				<polygon fill="#231F20" points="169.702,166.424 98.299,238.281 97.468,237.442 168.869,165.586 				"/>
				<polygon fill="#231F20" points="171.366,168.1 99.964,239.956 99.131,239.117 170.533,167.261 				"/>
				<polygon fill="#231F20" points="173.03,169.774 101.627,241.631 100.796,240.793 172.198,168.938 				"/>
				<polygon fill="#231F20" points="174.694,171.45 103.292,243.307 102.461,242.468 173.861,170.612 				"/>
				<polygon fill="#231F20" points="176.357,173.125 104.957,244.981 104.125,244.144 175.526,172.287 				"/>
				<polygon fill="#231F20" points="177.93,174.898 106.528,246.754 105.697,245.916 177.099,174.059 				"/>
			</g>
			<g>
				<polygon fill="#231F20" points="179.572,176.621 108.171,248.477 107.339,247.641 178.741,175.784 				"/>
				<polygon fill="#231F20" points="181.237,178.295 109.836,250.151 109.003,249.315 180.405,177.459 				"/>
				<polygon fill="#231F20" points="182.902,179.971 111.5,251.826 110.669,250.988 182.069,179.135 				"/>
				<polygon fill="#231F20" points="184.565,181.645 113.165,253.502 112.333,252.664 183.735,180.808 				"/>
				<polygon fill="#231F20" points="186.23,183.321 114.829,255.177 113.997,254.339 185.398,182.482 				"/>
				<polygon fill="#231F20" points="187.894,184.996 116.494,256.852 115.662,256.014 187.062,184.158 				"/>
				<polygon fill="#231F20" points="189.559,186.67 118.158,258.525 117.326,257.688 188.728,185.832 				"/>
				<polygon fill="#231F20" points="191.224,188.345 119.822,260.201 118.991,259.363 190.391,187.508 				"/>
				<polygon fill="#231F20" points="192.888,190.02 121.486,261.877 120.654,261.039 192.056,189.182 				"/>
				<polygon fill="#231F20" points="194.552,191.695 123.15,263.553 122.319,262.714 193.72,190.857 				"/>
				<polygon fill="#231F20" points="196.216,193.371 124.815,265.228 123.983,264.389 195.384,192.533 				"/>
				<polygon fill="#231F20" points="197.88,195.046 126.478,266.902 125.647,266.064 197.048,194.207 				"/>
				<polygon fill="#231F20" points="199.452,196.82 128.05,268.676 127.219,267.837 198.621,195.98 				"/>
			</g>
		</g>
	</g>
	<g>
		<rect x="77.226" y="199.104" fill="none" stroke="#000000" stroke-miterlimit="10" width="109.163" height="13.205"/>
		<rect x="72.688" y="185.897" fill="none" stroke="#000000" stroke-miterlimit="10" width="108.446" height="13.207"/>
		<rect x="83.914" y="172.691" fill="none" stroke="#000000" stroke-miterlimit="10" width="108.208" height="13.206"/>
		<rect x="77.226" y="159.486" fill="none" stroke="#000000" stroke-miterlimit="10" width="109.163" height="13.205"/>
		<rect x="68.866" y="146.281" fill="none" stroke="#000000" stroke-miterlimit="10" width="112.268" height="13.205"/>
		<rect x="83.914" y="133.075" fill="none" stroke="#000000" stroke-miterlimit="10" width="108.208" height="13.206"/>
		<rect x="77.226" y="119.868" fill="none" stroke="#000000" stroke-miterlimit="10" width="109.163" height="13.207"/>
		<polygon fill="none" stroke="#000000" stroke-miterlimit="10" points="181.134,106.662 144.192,106.662 94.186,119.868 
			181.134,119.868 		"/>
		<line fill="none" stroke="#000000" stroke-width="3" stroke-miterlimit="10" x1="68.583" y1="212.31" x2="192.629" y2="212.31"/>
	</g>
	<g>
		
			<line fill="none" stroke="#000000" stroke-width="3" stroke-miterlimit="10" x1="72.195" y1="199.104" x2="186.899" y2="199.104"/>
		
			<line fill="none" stroke="#000000" stroke-width="3" stroke-miterlimit="10" x1="72.195" y1="185.897" x2="192.629" y2="185.897"/>
		
			<line fill="none" stroke="#000000" stroke-width="3" stroke-miterlimit="10" x1="76.683" y1="172.691" x2="192.629" y2="172.691"/>
		
			<line fill="none" stroke="#000000" stroke-width="3" stroke-miterlimit="10" x1="68.372" y1="159.486" x2="186.857" y2="159.486"/>
		
			<line fill="none" stroke="#000000" stroke-width="3" stroke-miterlimit="10" x1="68.372" y1="146.281" x2="192.629" y2="146.281"/>
		
			<line fill="none" stroke="#000000" stroke-width="3" stroke-miterlimit="10" x1="76.762" y1="133.075" x2="192.629" y2="133.075"/>
		
			<line fill="none" stroke="#000000" stroke-width="3" stroke-miterlimit="10" x1="76.762" y1="119.868" x2="186.857" y2="119.868"/>
		<polyline fill="none" stroke="#000000" stroke-width="3" stroke-miterlimit="10" points="181.622,106.662 144.192,106.662 
			94.186,119.868 		"/>
	</g>
	<text transform="matrix(1 0 0 1 101.6924 256.1846)"><tspan x="0" y="0" font-family="'AktivGrotesk-Bold'" font-size="18">Этап 0</tspan><tspan x="-34.989" y="28.801" font-family="'AktivGrotesk-Light'" font-size="12">80% арендопригодных</tspan><tspan x="-26.522" y="43.201" font-family="'AktivGrotesk-Light'" font-size="12">площадей вакантны</tspan></text>
</g>
<g id="Layer_2">
</g>
<g id="Layer_3">
</g>
</svg>
