<?xml version="1.0" encoding="utf-8"?>
<!-- Generator: Adobe Illustrator 16.0.3, SVG Export Plug-In . SVG Version: 6.00 Build 0)  -->
<!DOCTYPE svg PUBLIC "-//W3C//DTD SVG 1.1//EN" "http://www.w3.org/Graphics/SVG/1.1/DTD/svg11.dtd">
<svg version="1.1" xmlns="http://www.w3.org/2000/svg" xmlns:xlink="http://www.w3.org/1999/xlink" x="0px" y="0px" width="260px"
	 height="400px" viewBox="0 0 260 400" enable-background="new 0 0 260 400" xml:space="preserve">
<g id="Layer_1">
	<rect x="-563.655" y="-92.965" fill="#D7FF8A" width="842.11" height="595.001"/>
	<g>
		
			<image overflow="visible" width="814" height="741" xlink:href="F93C52B7840C7227.png"  transform="matrix(0.24 0 0 0.24 30.2104 70.7646)">
		</image>
	</g>
	<text transform="matrix(1 0 0 1 92.8013 256.1846)"><tspan x="0" y="0" font-family="'AktivGrotesk-Bold'" font-size="18">Этап 2.0</tspan><tspan x="-52.538" y="28.801" font-family="'AktivGrotesk-Light'" font-size="12">Полностью сервисное здание с</tspan><tspan x="-65.708" y="43.201" font-family="'AktivGrotesk-Light'" font-size="12">развитой смысловой составляющей</tspan></text>
	<g>
		<g>
			<rect x="74.57" y="199.207" stroke="#000000" stroke-miterlimit="10" width="109.163" height="13.205"/>
			<rect x="70.032" y="186" stroke="#000000" stroke-miterlimit="10" width="108.446" height="13.207"/>
			<rect x="81.258" y="172.794" stroke="#000000" stroke-miterlimit="10" width="108.208" height="13.206"/>
			<rect x="74.57" y="159.589" stroke="#000000" stroke-miterlimit="10" width="109.163" height="13.205"/>
			<rect x="66.21" y="146.384" stroke="#000000" stroke-miterlimit="10" width="112.268" height="13.205"/>
			<rect x="81.258" y="133.178" stroke="#000000" stroke-miterlimit="10" width="108.208" height="13.206"/>
			<rect x="74.57" y="119.971" stroke="#000000" stroke-miterlimit="10" width="109.163" height="13.207"/>
			<polygon stroke="#000000" stroke-miterlimit="10" points="178.478,106.765 141.537,106.765 91.53,119.971 178.478,119.971 			"/>
			<line stroke="#000000" stroke-width="3" stroke-miterlimit="10" x1="65.927" y1="212.412" x2="189.973" y2="212.412"/>
		</g>
		<g>
			
				<line fill="none" stroke="#000000" stroke-width="3" stroke-miterlimit="10" x1="69.54" y1="199.207" x2="184.244" y2="199.207"/>
			<line fill="none" stroke="#000000" stroke-width="3" stroke-miterlimit="10" x1="69.54" y1="186" x2="189.973" y2="186"/>
			
				<line fill="none" stroke="#000000" stroke-width="3" stroke-miterlimit="10" x1="74.027" y1="172.794" x2="189.973" y2="172.794"/>
			
				<line fill="none" stroke="#000000" stroke-width="3" stroke-miterlimit="10" x1="65.716" y1="159.589" x2="184.201" y2="159.589"/>
			
				<line fill="none" stroke="#000000" stroke-width="3" stroke-miterlimit="10" x1="65.716" y1="146.384" x2="189.973" y2="146.384"/>
			
				<line fill="none" stroke="#000000" stroke-width="3" stroke-miterlimit="10" x1="74.106" y1="133.178" x2="189.973" y2="133.178"/>
			
				<line fill="none" stroke="#000000" stroke-width="3" stroke-miterlimit="10" x1="74.106" y1="119.971" x2="184.201" y2="119.971"/>
			<polyline fill="none" stroke="#000000" stroke-width="3" stroke-miterlimit="10" points="178.966,106.765 141.537,106.765 
				91.53,119.971 			"/>
		</g>
		<g>
			<g>
				<path fill-rule="evenodd" clip-rule="evenodd" fill="#FF0068" stroke="#FF0068" stroke-width="0.5" stroke-miterlimit="10" d="
					M102.15,164.457c-0.368-0.002-0.575-0.134-0.704-0.484c-0.243-0.664-0.52-1.315-0.795-1.968
					c-0.179-0.424-0.361-0.846-0.569-1.254c-0.141-0.282-0.279-0.274-0.436,0.003c-0.057,0.104-0.102,0.216-0.146,0.323
					c-0.395,0.974-0.799,1.942-1.179,2.92c-0.128,0.334-0.327,0.457-0.681,0.458c-0.996,0.007-1.991,0.036-2.987,0.069
					c-0.146,0.005-0.288,0.082-0.433,0.126c0.073,0.129,0.123,0.281,0.227,0.378c0.684,0.648,1.375,1.29,2.076,1.923
					c0.317,0.287,0.417,0.592,0.27,1.016c-0.218,0.631-0.382,1.281-0.57,1.924c-0.163,0.553-0.328,1.105-0.491,1.656
					c-0.021,0.251,0.09,0.352,0.329,0.276c0.098-0.031,0.188-0.093,0.281-0.143c1.035-0.589,2.076-1.175,3.108-1.773
					c0.294-0.17,0.549-0.161,0.844,0.013c1.055,0.611,2.114,1.213,3.181,1.803c0.12,0.069,0.286,0.052,0.431,0.073
					c0.006-0.148,0.053-0.311,0.01-0.442c-0.346-1.073-0.698-2.146-1.07-3.209c-0.145-0.408-0.095-0.72,0.234-1.022
					c0.75-0.691,1.482-1.407,2.213-2.123c0.092-0.09,0.132-0.235,0.196-0.354c-0.129-0.042-0.259-0.117-0.39-0.123
					C104.116,164.491,103.133,164.46,102.15,164.457z"/>
				<path fill-rule="evenodd" clip-rule="evenodd" fill="#FF0068" stroke="#FF0068" stroke-width="0.5" stroke-miterlimit="10" d="
					M116.344,164.457c-0.369-0.002-0.576-0.134-0.705-0.484c-0.243-0.664-0.52-1.315-0.793-1.968
					c-0.179-0.424-0.362-0.846-0.569-1.254c-0.143-0.282-0.282-0.274-0.438,0.003c-0.057,0.104-0.101,0.216-0.145,0.323
					c-0.395,0.974-0.8,1.942-1.18,2.92c-0.126,0.334-0.327,0.457-0.679,0.458c-0.998,0.007-1.993,0.036-2.987,0.069
					c-0.146,0.005-0.291,0.082-0.435,0.126c0.073,0.129,0.124,0.281,0.227,0.378c0.685,0.648,1.376,1.29,2.076,1.923
					c0.318,0.287,0.419,0.592,0.271,1.016c-0.219,0.631-0.382,1.281-0.572,1.924c-0.163,0.553-0.327,1.105-0.491,1.656
					c-0.021,0.251,0.09,0.352,0.331,0.276c0.098-0.031,0.188-0.093,0.278-0.143c1.036-0.589,2.077-1.175,3.11-1.773
					c0.293-0.17,0.548-0.161,0.845,0.013c1.052,0.611,2.114,1.213,3.181,1.803c0.118,0.069,0.286,0.052,0.431,0.073
					c0.004-0.148,0.051-0.311,0.009-0.442c-0.345-1.073-0.699-2.146-1.072-3.209c-0.144-0.408-0.093-0.72,0.235-1.022
					c0.75-0.691,1.482-1.407,2.213-2.123c0.092-0.09,0.132-0.235,0.196-0.354c-0.129-0.042-0.259-0.117-0.39-0.123
					C118.309,164.491,117.329,164.46,116.344,164.457z"/>
				<path fill-rule="evenodd" clip-rule="evenodd" fill="#FF0068" stroke="#FF0068" stroke-width="0.5" stroke-miterlimit="10" d="
					M130.539,164.457c-0.369-0.002-0.577-0.134-0.705-0.484c-0.243-0.664-0.519-1.315-0.794-1.968
					c-0.179-0.424-0.36-0.846-0.568-1.254c-0.142-0.282-0.281-0.274-0.438,0.003c-0.057,0.104-0.101,0.216-0.145,0.323
					c-0.395,0.974-0.8,1.942-1.178,2.92c-0.128,0.334-0.329,0.457-0.682,0.458c-0.995,0.007-1.992,0.036-2.986,0.069
					c-0.145,0.005-0.291,0.082-0.433,0.126c0.072,0.129,0.122,0.281,0.225,0.378c0.686,0.648,1.377,1.29,2.078,1.923
					c0.317,0.287,0.416,0.592,0.27,1.016c-0.219,0.631-0.382,1.281-0.57,1.924c-0.163,0.553-0.329,1.105-0.493,1.656
					c-0.019,0.251,0.091,0.352,0.332,0.276c0.097-0.031,0.187-0.093,0.277-0.143c1.038-0.589,2.077-1.175,3.11-1.773
					c0.295-0.17,0.55-0.161,0.845,0.013c1.054,0.611,2.113,1.213,3.18,1.803c0.121,0.069,0.287,0.052,0.432,0.073
					c0.006-0.148,0.051-0.311,0.009-0.442c-0.344-1.073-0.699-2.146-1.072-3.209c-0.143-0.408-0.093-0.72,0.235-1.022
					c0.751-0.691,1.482-1.407,2.213-2.123c0.093-0.09,0.133-0.235,0.197-0.354c-0.128-0.042-0.258-0.117-0.389-0.123
					C132.504,164.491,131.522,164.46,130.539,164.457z"/>
				<path fill-rule="evenodd" clip-rule="evenodd" fill="#FF0068" stroke="#FF0068" stroke-width="0.5" stroke-miterlimit="10" d="
					M144.734,164.457c-0.371-0.002-0.577-0.134-0.705-0.484c-0.245-0.664-0.521-1.315-0.796-1.968
					c-0.178-0.424-0.36-0.846-0.569-1.254c-0.141-0.282-0.279-0.274-0.436,0.003c-0.057,0.104-0.102,0.216-0.145,0.323
					c-0.396,0.974-0.801,1.942-1.179,2.92c-0.129,0.334-0.328,0.457-0.682,0.458c-0.995,0.007-1.992,0.036-2.987,0.069
					c-0.146,0.005-0.289,0.082-0.433,0.126c0.073,0.129,0.123,0.281,0.226,0.378c0.685,0.648,1.377,1.29,2.077,1.923
					c0.317,0.287,0.416,0.592,0.27,1.016c-0.219,0.631-0.382,1.281-0.571,1.924c-0.162,0.553-0.327,1.105-0.49,1.656
					c-0.021,0.251,0.09,0.352,0.33,0.276c0.097-0.031,0.187-0.093,0.279-0.143c1.036-0.589,2.077-1.175,3.11-1.773
					c0.293-0.17,0.548-0.161,0.843,0.013c1.054,0.611,2.114,1.213,3.18,1.803c0.12,0.069,0.288,0.052,0.432,0.073
					c0.007-0.148,0.053-0.311,0.009-0.442c-0.344-1.073-0.697-2.146-1.07-3.209c-0.144-0.408-0.094-0.72,0.235-1.022
					c0.75-0.691,1.481-1.407,2.213-2.123c0.091-0.09,0.132-0.235,0.196-0.354c-0.129-0.042-0.259-0.117-0.389-0.123
					C146.698,164.491,145.715,164.46,144.734,164.457z"/>
				<g>
					<path fill="#FF0068" stroke="#FF0068" stroke-width="0.5" stroke-miterlimit="10" d="M156.421,160.754
						c-0.057,0.104-0.1,0.216-0.146,0.323c-0.394,0.974-0.8,1.942-1.178,2.92c-0.128,0.334-0.328,0.457-0.68,0.458
						c-0.997,0.007-1.993,0.036-2.988,0.069c-0.145,0.005-0.29,0.082-0.434,0.126c0.073,0.129,0.125,0.281,0.226,0.378
						c0.685,0.648,1.377,1.29,2.077,1.923c0.317,0.287,0.418,0.592,0.271,1.016c-0.219,0.631-0.382,1.281-0.571,1.924
						c-0.164,0.553-0.329,1.105-0.492,1.656c-0.021,0.251,0.09,0.352,0.331,0.276c0.098-0.031,0.187-0.093,0.278-0.143
						c1.037-0.589,2.077-1.175,3.11-1.773c0.141-0.082,0.272-0.117,0.404-0.118v-9.24
						C156.564,160.56,156.496,160.624,156.421,160.754z"/>
				</g>
			</g>
			<path fill-rule="evenodd" clip-rule="evenodd" fill="none" stroke="#FF0068" stroke-width="0.5" stroke-miterlimit="10" d="
				M162.068,164.999c0.092-0.09,0.132-0.235,0.196-0.354c-0.128-0.042-0.259-0.117-0.389-0.123c-0.984-0.03-1.966-0.062-2.948-0.064
				c-0.371-0.002-0.577-0.134-0.706-0.484c-0.244-0.664-0.52-1.315-0.794-1.968c-0.178-0.424-0.361-0.846-0.568-1.254
				c-0.143-0.282-0.281-0.274-0.438,0.003c-0.057,0.104-0.1,0.216-0.146,0.323c-0.394,0.974-0.8,1.942-1.178,2.92
				c-0.128,0.334-0.328,0.457-0.68,0.458c-0.997,0.007-1.993,0.036-2.988,0.069c-0.145,0.005-0.29,0.082-0.434,0.126
				c0.073,0.129,0.125,0.281,0.226,0.378c0.685,0.648,1.377,1.29,2.077,1.923c0.317,0.287,0.418,0.592,0.271,1.016
				c-0.219,0.631-0.382,1.281-0.571,1.924c-0.164,0.553-0.329,1.105-0.492,1.656c-0.021,0.251,0.09,0.352,0.331,0.276
				c0.098-0.031,0.187-0.093,0.278-0.143c1.037-0.589,2.077-1.175,3.11-1.773c0.294-0.17,0.548-0.161,0.844,0.013
				c1.053,0.611,2.115,1.213,3.181,1.803c0.118,0.069,0.286,0.052,0.432,0.073c0.005-0.148,0.051-0.311,0.009-0.442
				c-0.346-1.073-0.699-2.146-1.072-3.209c-0.144-0.408-0.093-0.72,0.235-1.022C160.605,166.431,161.337,165.715,162.068,164.999z"
				/>
		</g>
	</g>
</g>
<g id="Layer_2">
</g>
<g id="Layer_3">
</g>
</svg>
