<?xml version="1.0" encoding="utf-8"?>
<!-- Generator: Adobe Illustrator 16.0.3, SVG Export Plug-In . SVG Version: 6.00 Build 0)  -->
<!DOCTYPE svg PUBLIC "-//W3C//DTD SVG 1.1//EN" "http://www.w3.org/Graphics/SVG/1.1/DTD/svg11.dtd">
<svg version="1.1" xmlns="http://www.w3.org/2000/svg" xmlns:xlink="http://www.w3.org/1999/xlink" x="0px" y="0px"
	 width="538.132px" height="332.834px" viewBox="0 0 538.132 332.834" enable-background="new 0 0 538.132 332.834"
	 xml:space="preserve">
<g id="Layer_1">
	<polygon stroke="#D8866E" stroke-linejoin="round" stroke-miterlimit="10" points="421.251,125.141 409.446,131.916 
		397.208,138.939 385.092,145.888 397.203,152.836 409.319,145.888 421.563,138.864 433.382,132.085 	"/>
	<polygon stroke="#D8866E" stroke-linejoin="round" stroke-miterlimit="10" points="445.638,139.104 433.382,132.085 
		421.563,138.864 409.319,145.888 397.203,152.836 409.446,159.859 421.563,166.809 433.681,159.859 445.924,152.836 
		457.765,146.041 	"/>
	<polygon stroke="#D8866E" stroke-linejoin="round" stroke-miterlimit="10" points="470.331,153.234 457.765,146.041 
		445.924,152.836 433.681,159.859 421.563,166.809 409.017,174.006 397.022,180.88 384.497,188.067 396.911,195.34 408.778,202.293 
		421.563,194.958 433.559,188.078 446.108,180.88 458.221,173.932 458.226,173.932 470.465,166.913 470.47,166.913 482.331,160.107 
			"/>
	<polygon stroke="#D8866E" stroke-linejoin="round" stroke-miterlimit="10" points="409.446,159.859 397.203,152.836 
		385.092,145.888 372.545,153.091 360.556,159.971 348.418,166.936 360.392,173.947 372.509,181.044 384.497,188.067 
		397.022,180.88 409.017,174.006 421.563,166.809 	"/>
	<polygon stroke="#D8866E" stroke-linejoin="round" stroke-miterlimit="10" points="482.331,160.107 470.47,166.913 
		470.465,166.913 458.226,173.932 458.221,173.932 446.108,180.88 433.559,188.078 421.563,194.958 408.778,202.293 
		421.341,209.651 434.125,202.162 445.993,195.212 458.406,187.936 470.396,180.918 482.513,173.82 494.263,166.936 	"/>
	
		<line fill="#D8866E" stroke="#000000" stroke-width="0.3268" stroke-linejoin="round" stroke-miterlimit="10" stroke-dasharray="1.4173" x1="421.341" y1="137.102" x2="421.341" y2="148.107"/>
	
		<line fill="#D8866E" stroke="#000000" stroke-width="0.3268" stroke-linejoin="round" stroke-miterlimit="10" stroke-dasharray="1.4173" x1="421.563" y1="149.58" x2="421.563" y2="159.175"/>
	<text transform="matrix(1 0 0 1 427.8052 176.7061)" fill="#D8866E" font-family="'AktivGrotesk-Light'" font-size="6">$$$</text>
	<text transform="matrix(1 0 0 1 377.8052 169.7061)" fill="#D8866E" font-family="'AktivGrotesk-Light'" font-size="6">$$$</text>
	<text transform="matrix(1 0 0 1 445.7329 188.0674)" fill="#D8866E" font-family="'AktivGrotesk-Light'" font-size="6">$$</text>
	<g>
		<polygon stroke="#D7FF8A" stroke-linejoin="round" stroke-miterlimit="10" points="482.331,75.75 470.331,68.875 457.765,61.683 
			445.638,54.745 433.382,47.727 421.251,40.784 409.446,47.558 397.208,54.582 385.092,61.53 372.545,68.733 360.556,75.613 
			348.418,82.578 360.392,89.59 372.509,96.686 384.497,103.709 396.911,110.982 408.778,117.935 421.341,125.293 434.125,117.804 
			445.993,110.854 458.406,103.578 470.396,96.56 482.513,89.462 494.263,82.578 		"/>
	</g>
	<g>
		<polygon stroke="#D7FF8A" stroke-linejoin="round" stroke-miterlimit="10" points="494.173,82.887 421.34,124.681 
			421.304,209.426 494.226,166.709 		"/>
	</g>
	<polygon stroke="#D7FF8A" stroke-linejoin="round" stroke-miterlimit="10" points="111.25,125.141 99.445,131.916 87.207,138.939 
		75.091,145.888 87.202,152.836 99.318,145.888 111.562,138.864 123.381,132.085 	"/>
	<polygon stroke="#D7FF8A" stroke-linejoin="round" stroke-miterlimit="10" points="135.637,139.104 123.381,132.085 
		111.562,138.864 99.318,145.888 87.202,152.836 99.445,159.859 111.562,166.809 123.68,159.859 135.923,152.836 147.764,146.041 	
		"/>
	<polygon stroke="#D7FF8A" stroke-linejoin="round" stroke-miterlimit="10" points="160.33,153.234 147.764,146.041 
		135.923,152.836 123.68,159.859 111.562,166.809 99.016,174.006 87.021,180.88 74.496,188.067 86.91,195.34 98.777,202.293 
		111.562,194.958 123.558,188.078 136.107,180.88 148.22,173.932 148.225,173.932 160.464,166.913 160.469,166.913 172.33,160.107 	
		"/>
	<polygon stroke="#D7FF8A" stroke-linejoin="round" stroke-miterlimit="10" points="99.445,159.859 87.202,152.836 75.091,145.888 
		62.544,153.091 50.555,159.971 38.417,166.936 50.391,173.947 62.508,181.044 74.496,188.067 87.021,180.88 99.016,174.006 
		111.562,166.809 	"/>
	<polygon stroke="#D7FF8A" stroke-linejoin="round" stroke-miterlimit="10" points="172.33,160.107 160.469,166.913 
		160.464,166.913 148.225,173.932 148.22,173.932 136.107,180.88 123.558,188.078 111.562,194.958 98.777,202.293 111.34,209.651 
		124.124,202.162 135.992,195.212 148.405,187.936 160.395,180.918 172.512,173.82 184.262,166.936 	"/>
	<text transform="matrix(1 0 0 1 123.8032 174.7061)" fill="#D7FF8A" font-family="'AktivGrotesk-Light'" font-size="10">м</text>
	<text transform="matrix(0.583 0 0 0.583 130.6831 171.376)" fill="#D7FF8A" font-family="'AktivGrotesk-Light'" font-size="10">2</text>
	<text transform="matrix(1 0 0 1 114.8032 152.835)" fill="#D7FF8A" font-family="'AktivGrotesk-Light'" font-size="10">м</text>
	<text transform="matrix(0.583 0 0 0.583 121.6831 149.5049)" fill="#D7FF8A" font-family="'AktivGrotesk-Light'" font-size="10">2</text>
	<text transform="matrix(0.5935 -0.3285 0.8839 0.4676 396.6582 93.3467)"><tspan x="0" y="0" fill="#D7FF8A" font-family="'AktivGrotesk-Light'" font-size="10">экосистема для </tspan><tspan x="-5.226" y="11.999" fill="#D7FF8A" font-family="'AktivGrotesk-Light'" font-size="10">достижения целей</tspan></text>
	<text transform="matrix(1 0 0 1 72.8032 169.7061)" fill="#D7FF8A" font-family="'AktivGrotesk-Light'" font-size="10">м</text>
	<text transform="matrix(0.583 0 0 0.583 79.6831 166.376)" fill="#D7FF8A" font-family="'AktivGrotesk-Light'" font-size="10">2</text>
	<text transform="matrix(1 0 0 1 36.1938 245.7939)"><tspan x="0" y="0" font-family="'AktivGrotesk-Bold'" font-size="20">Здание-ресурс</tspan><tspan x="12.496" y="38.399" font-family="'AktivGrotesk-Light'" font-size="12">Доход: аренда в рынке</tspan><tspan x="27.981" y="52.8" font-family="'AktivGrotesk-Light'" font-size="12">Капитализация: х</tspan></text>
	<text transform="matrix(1 0 0 1 334.7939 245.7939)"><tspan x="0" y="0" font-family="'AktivGrotesk-Bold'" font-size="20">Здание-ценность</tspan><tspan x="16.444" y="38.399" font-family="'AktivGrotesk-Light'" font-size="12">Доход: вне рынка аренды</tspan><tspan x="35.83" y="52.8" font-family="'AktivGrotesk-Light'" font-size="12">Капитализация: 2х</tspan></text>
	<g>
		<polygon stroke="#D7FF8A" stroke-linejoin="round" stroke-miterlimit="10" points="348.633,82.887 421.367,124.681 
			421.402,209.426 348.58,166.709 		"/>
	</g>
	<text transform="matrix(0.6612 0.4075 0 1 367.5449 139.3281)" fill="#D7FF8A" font-family="'AktivGrotesk-Light'" font-size="10">синергия</text>
	
		<text transform="matrix(0.6612 -0.4068 0 1 445.3457 155.6953)" fill="#D7FF8A" font-family="'AktivGrotesk-Light'" font-size="10">ценность</text>
</g>
<g id="Layer_2">
</g>
<g id="Layer_3">
</g>
</svg>
