<?xml version="1.0" encoding="utf-8"?>
<!-- Generator: Adobe Illustrator 16.0.3, SVG Export Plug-In . SVG Version: 6.00 Build 0)  -->
<!DOCTYPE svg PUBLIC "-//W3C//DTD SVG 1.1//EN" "http://www.w3.org/Graphics/SVG/1.1/DTD/svg11.dtd">
<svg version="1.1" id="Layer_1" xmlns="http://www.w3.org/2000/svg" xmlns:xlink="http://www.w3.org/1999/xlink" x="0px" y="0px"
	 width="500px" height="320px" viewBox="0 0 500 320" enable-background="new 0 0 500 320" xml:space="preserve">
<g>
	<path fill-rule="evenodd" clip-rule="evenodd" d="M108.799,167.246c0.808,0.295,1.609,0.604,2.423,0.878
		c0.499,0.168,0.767,0.433,0.781,1.003c0.016,0.617-0.265,0.91-0.812,1.089c-0.774,0.253-1.532,0.552-2.297,0.831
		c-0.007,0.079-0.013,0.158-0.02,0.237c0.784,0.296,1.561,0.612,2.354,0.88c0.505,0.172,0.778,0.436,0.771,1.006
		c-0.006,0.532-0.16,0.881-0.7,1.061c-0.805,0.268-1.592,0.589-2.402,1.111c0.79,0.292,1.573,0.604,2.373,0.867
		c0.524,0.173,0.736,0.484,0.73,1.035c-0.006,0.529-0.155,0.88-0.698,1.059c-0.806,0.264-1.593,0.583-2.388,0.879
		c-0.004,0.077-0.008,0.154-0.011,0.231c0.765,0.271,1.523,0.562,2.298,0.806c0.56,0.177,0.812,0.492,0.802,1.099
		c-0.011,0.552-0.226,0.86-0.74,1.032c-0.778,0.26-1.544,0.557-2.452,0.889c0.506,0.477,1.051,0.521,1.517,0.717
		c0.265,0.111,0.543,0.189,0.812,0.293c0.797,0.306,0.834,0.404,0.861,1.152c0.022,0.633-0.322,0.877-0.849,1.063
		c-3.56,1.255-7.114,2.524-10.67,3.792c-10.227,3.646-20.456,7.282-30.671,10.959c-0.869,0.312-1.567,0.275-2.435-0.047
		c-4.785-1.777-9.604-3.466-14.411-5.182c-9.107-3.251-18.216-6.498-27.321-9.756c-0.415-0.149-0.936-0.175-1.074-0.766
		c-0.198-0.846,0.001-1.26,0.829-1.57c0.7-0.262,1.404-0.514,2.141-0.992c-0.746-0.279-1.489-0.568-2.242-0.832
		c-0.446-0.156-0.731-0.391-0.762-0.912c-0.045-0.801,0.041-0.98,0.821-1.28c0.724-0.278,1.453-0.544,2.18-0.815
		c0.004-0.078,0.008-0.157,0.013-0.236c-0.729-0.264-1.459-0.519-2.182-0.793c-0.758-0.287-0.827-0.426-0.838-1.174
		c-0.008-0.502,0.185-0.802,0.666-0.965c0.777-0.265,1.543-0.565,2.482-0.914c-0.335-0.197-0.515-0.336-0.718-0.416
		c-0.535-0.21-1.073-0.42-1.624-0.582c-0.566-0.166-0.806-0.49-0.815-1.092c-0.01-0.607,0.228-0.926,0.792-1.102
		c0.747-0.232,1.478-0.518,2.45-0.863c-0.898-0.538-1.69-0.717-2.434-0.99c-0.489-0.181-0.798-0.415-0.8-0.99
		c-0.004-0.76,0.059-0.91,0.803-1.195c0.729-0.281,1.467-0.539,2.227-1.033c-0.748-0.283-1.5-0.557-2.243-0.853
		c-0.718-0.285-0.778-0.456-0.79-1.21c-0.011-0.676,0.441-0.828,0.928-1c3.355-1.188,6.709-2.377,10.062-3.57
		c0.495-0.176,0.982-0.372,1.456-0.763c-4.115-1.472-8.23-2.944-12.356-4.419c-0.031-0.362-0.056-0.644-0.081-0.926
		c-0.055-0.595,0.228-0.933,0.786-1.114c0.678-0.22,1.34-0.484,2.036-0.95c-0.611-0.231-1.222-0.467-1.835-0.692
		c-0.972-0.357-1.066-0.518-0.989-1.482c0.036-0.457,0.239-0.718,0.666-0.866c0.706-0.245,1.402-0.52,2.138-1.004
		c-0.639-0.246-1.277-0.491-1.915-0.738c-0.87-0.337-0.921-0.443-0.892-1.343c0.016-0.491,0.188-0.808,0.672-0.972
		c0.706-0.24,1.398-0.519,2.309-0.861c-0.786-0.47-1.472-0.644-2.124-0.866c-0.582-0.198-0.902-0.484-0.865-1.156
		c0.046-0.844,0.069-0.941,0.889-1.25c0.628-0.236,1.261-0.46,1.892-0.69c0.007-0.079,0.015-0.157,0.022-0.236
		c-0.656-0.243-1.305-0.506-1.97-0.72c-0.538-0.173-0.852-0.435-0.832-1.066c0.027-0.861,0.078-1.018,0.82-1.311
		c0.632-0.249,1.271-0.476,1.95-0.917c-0.604-0.233-1.207-0.469-1.812-0.698c-0.921-0.348-0.971-0.469-0.955-1.41
		c0.011-0.629,0.354-0.874,0.874-1.057c2.204-0.776,4.401-1.572,6.602-2.357c11.511-4.11,23.024-8.212,34.528-12.342
		c0.95-0.341,1.758-0.389,2.761-0.018c6.17,2.28,12.379,4.458,18.574,6.67c7.686,2.745,15.371,5.486,23.053,8.239
		c0.449,0.161,1.003,0.209,1.07,0.892c0.082,0.82-0.043,1.09-0.823,1.387c-0.698,0.266-1.403,0.516-2.284,0.837
		c0.356,0.222,0.537,0.374,0.746,0.457c0.533,0.213,1.073,0.416,1.622,0.585c0.518,0.16,0.755,0.458,0.755,1.019
		c0,0.575-0.162,0.953-0.749,1.14c-0.778,0.248-1.538,0.552-2.328,1.043c0.759,0.276,1.521,0.542,2.275,0.832
		c0.735,0.282,0.799,0.431,0.797,1.199c-0.002,0.514-0.23,0.785-0.698,0.944c-0.8,0.272-1.589,0.577-2.374,1.073
		c0.766,0.286,1.523,0.597,2.3,0.848c0.572,0.185,0.784,0.523,0.777,1.116c-0.006,0.56-0.247,0.851-0.754,1.022
		c-0.773,0.262-1.535,0.56-2.315,1.06c0.786,0.292,1.564,0.608,2.361,0.867c0.542,0.176,0.702,0.521,0.706,1.054
		c0.003,0.54-0.177,0.881-0.715,1.044c-0.55,0.167-1.088,0.374-1.624,0.581c-0.218,0.084-0.418,0.216-0.854,0.448
		c0.966,0.364,1.715,0.67,2.479,0.928c0.53,0.179,0.689,0.52,0.717,1.054c0.037,0.713-0.4,0.913-0.943,1.104
		c-3.322,1.174-6.64,2.36-9.957,3.545c-0.637,0.228-1.268,0.467-2.124,0.784c0.485,0.222,0.753,0.369,1.038,0.471
		c3.689,1.319,7.381,2.633,11.074,3.942c0.495,0.176,0.925,0.352,0.91,1.018c-0.012,0.531-0.154,0.887-0.691,1.064
		c-0.847,0.279-1.682,0.596-2.522,0.896C108.791,167.099,108.795,167.172,108.799,167.246z M109.488,133.797
		c-0.01-0.077-0.02-0.154-0.03-0.231c-0.464-0.18-0.924-0.371-1.392-0.54c-12.582-4.521-25.168-9.027-37.738-13.579
		c-1.103-0.399-2.024-0.411-3.149-0.002c-13.037,4.738-26.099,9.411-39.153,14.103c-0.321,0.116-0.633,0.26-1.211,0.499
		c0.637,0.25,1.037,0.371,1.403,0.558c0.927,0.474,1.804,0.404,2.782,0.05c8.721-3.15,17.456-6.257,26.188-9.376
		c3.351-1.197,6.704-2.384,10.051-3.591c0.53-0.191,1.016-0.322,1.521,0.057c0.165,0.124,0.398,0.157,0.602,0.229
		c7.445,2.66,14.891,5.321,22.336,7.98c4.434,1.583,8.866,3.171,13.307,4.735c0.422,0.149,0.938,0.294,1.341,0.186
		C107.414,134.59,108.443,134.166,109.488,133.797z M27.023,185.184c-0.013,0.067-0.025,0.135-0.037,0.203
		c0.325,0.131,0.646,0.273,0.977,0.393c8.999,3.234,17.998,6.467,26.997,9.698c3.992,1.434,7.984,2.868,11.979,4.296
		c0.498,0.178,0.952,0.335,1.546,0.119c6.821-2.489,13.658-4.936,20.492-7.393c6.427-2.309,12.856-4.615,19.283-6.928
		c0.307-0.109,0.6-0.26,1.063-0.463c-1.601-0.764-2.881-1.1-4.505-0.508c-11.381,4.148-22.812,8.16-34.204,12.281
		c-1.357,0.491-2.49,0.522-3.867,0.014c-7.012-2.594-14.069-5.065-21.112-7.577c-4.74-1.69-9.479-3.384-14.228-5.052
		c-0.417-0.146-0.932-0.249-1.337-0.139C29.035,184.41,28.036,184.823,27.023,185.184z M32.756,135.925
		c0.001,0.078,0.002,0.155,0.003,0.232c1.401,0.646,2.708,1.007,4.37,0.396c9.516-3.5,19.081-6.865,28.63-10.274
		c0.71-0.254,1.426-0.697,2.137-0.691c0.739,0.005,1.478,0.439,2.211,0.701c9.581,3.424,19.167,6.836,28.735,10.297
		c1.015,0.367,1.913,0.454,2.89-0.007c0.657-0.31,1.356-0.534,2.278-0.89c-0.598-0.245-0.918-0.391-1.25-0.51
		c-10.86-3.905-21.726-7.797-32.577-11.726c-0.989-0.358-1.825-0.389-2.852-0.015c-11.147,4.062-22.319,8.06-33.484,12.075
		C33.481,135.646,33.12,135.788,32.756,135.925z M32.73,183.148c0.003,0.09,0.005,0.182,0.008,0.272
		c0.398,0.151,0.794,0.308,1.195,0.451c10.761,3.865,21.527,7.714,32.274,11.618c1.141,0.414,2.089,0.442,3.256,0.017
		c10.978-4.007,21.982-7.938,32.979-11.895c0.359-0.13,0.71-0.281,1.261-0.501c-1.508-0.668-2.695-1.182-4.262-0.609
		c-9.661,3.523-19.363,6.934-29.039,10.416c-1.148,0.414-2.122,0.521-3.352,0.046c-4.425-1.714-8.921-3.239-13.391-4.837
		c-5.485-1.959-10.971-3.921-16.46-5.868c-0.396-0.141-0.873-0.327-1.239-0.227C34.865,182.334,33.805,182.766,32.73,183.148z
		 M97.773,181.216c-0.014-0.093-0.027-0.186-0.041-0.278c-0.397-0.156-0.806-0.291-1.19-0.475c-0.895-0.43-1.735-0.381-2.683-0.033
		c-5.468,2.001-10.958,3.939-16.441,5.898c-2.707,0.968-5.411,1.945-8.127,2.891c-0.345,0.12-0.791,0.199-1.117,0.086
		c-2.679-0.938-5.336-1.936-8.007-2.893c-5.718-2.051-11.439-4.088-17.163-6.125c-0.368-0.131-0.783-0.336-1.136-0.274
		c-1.19,0.209-2.306,0.669-3.414,1.272c0.408,0.284,0.819,0.463,1.241,0.615c8.828,3.171,17.666,6.317,26.478,9.535
		c1.183,0.432,2.167,0.44,3.36,0.003c8.977-3.288,17.983-6.495,26.979-9.731C96.938,181.555,97.354,181.381,97.773,181.216z
		 M38.15,138.046c0.521,0.222,0.847,0.342,1.155,0.498c1.128,0.571,2.201,0.494,3.4,0.051c5.529-2.042,11.093-3.996,16.644-5.98
		c2.641-0.944,5.279-1.893,7.928-2.814c0.347-0.121,0.793-0.219,1.116-0.106c3.118,1.096,6.216,2.251,9.327,3.368
		c5.245,1.882,10.493,3.753,15.745,5.615c0.432,0.153,0.942,0.371,1.343,0.269c1.129-0.288,2.219-0.727,3.323-1.106
		c0.002-0.087,0.003-0.174,0.005-0.261c-0.454-0.168-0.906-0.342-1.361-0.505c-8.932-3.208-17.868-6.404-26.79-9.638
		c-0.89-0.322-1.686-0.487-2.529,0.045c-0.238,0.149-0.536,0.204-0.807,0.301c-9.035,3.239-18.07,6.478-27.104,9.719
		C39.147,137.643,38.759,137.807,38.15,138.046z M81.086,143.836c-0.01-0.077-0.021-0.153-0.03-0.229
		c-0.297-0.119-0.59-0.246-0.89-0.354c-3.275-1.182-6.565-2.324-9.82-3.561c-1.095-0.416-2.026-0.429-3.147,0.007
		c-3.578,1.392-7.214,2.638-10.826,3.944c-0.326,0.118-0.643,0.26-1.137,0.461c0.415,0.195,0.653,0.332,0.908,0.422
		c3.518,1.251,7.044,2.477,10.552,3.757c0.764,0.279,1.435,0.24,2.178-0.031c3.745-1.361,7.503-2.688,11.254-4.031
		C80.451,144.107,80.767,143.965,81.086,143.836z M80.92,175.076c-0.419-0.226-0.618-0.366-0.838-0.445
		c-3.656-1.303-7.317-2.592-10.97-3.904c-0.506-0.182-0.959-0.168-1.459,0.012c-3.822,1.371-7.652,2.723-11.476,4.09
		c-0.245,0.088-0.463,0.25-0.88,0.48c0.594,0.234,0.98,0.4,1.376,0.543c3.111,1.119,6.24,2.189,9.328,3.371
		c1.221,0.467,2.25,0.566,3.545,0.036c3.257-1.333,6.612-2.421,9.927-3.61C79.896,175.496,80.31,175.318,80.92,175.076z
		 M92.464,139.845c-0.01-0.085-0.021-0.171-0.03-0.257c-0.362-0.14-0.723-0.287-1.088-0.418c-4.599-1.653-9.198-3.304-13.797-4.957
		c-2.705-0.972-5.406-1.956-8.118-2.908c-0.347-0.122-0.79-0.213-1.117-0.104c-1.396,0.464-2.76,1.023-4.146,1.521
		c-6.355,2.288-12.715,4.565-19.072,6.851c-0.345,0.124-0.677,0.282-1.015,0.425c0.577,0.413,1.122,0.587,1.64,0.822
		c0.662,0.3,1.274,0.273,1.966,0.023c6.286-2.27,12.589-4.493,18.871-6.772c0.959-0.348,1.825-0.53,2.752,0.025
		c0.333,0.199,0.738,0.277,1.11,0.41c5.889,2.101,11.776,4.205,17.669,6.293c0.356,0.126,0.796,0.256,1.132,0.159
		C90.318,140.643,91.385,140.224,92.464,139.845z M92.177,179.186c0.011-0.075,0.021-0.15,0.031-0.225
		c-0.602-0.223-1.215-0.418-1.804-0.672c-0.635-0.272-1.233-0.262-1.877-0.011c-1.105,0.431-2.23,0.808-3.348,1.206
		c-5.247,1.877-10.496,3.745-15.737,5.637c-0.611,0.221-1.117,0.184-1.74-0.043c-6.486-2.356-12.991-4.667-19.492-6.984
		c-0.232-0.082-0.518-0.203-0.726-0.137c-1.174,0.369-2.332,0.79-3.496,1.193c0.39,0.361,0.747,0.51,1.111,0.641
		c7.004,2.516,14.017,5.003,21.003,7.565c1.214,0.445,2.235,0.462,3.473,0.001c6.027-2.25,12.101-4.381,18.156-6.557
		C89.215,180.269,90.695,179.725,92.177,179.186z M49.675,142.032c1.651,1.074,2.613,1.211,4.228,0.636
		c4.401-1.568,8.804-3.133,13.198-4.721c0.599-0.216,1.098-0.235,1.732-0.001c4.586,1.691,9.195,3.317,13.8,4.957
		c0.231,0.083,0.512,0.189,0.727,0.13c1.192-0.324,2.348-0.755,3.71-1.297c-0.552-0.22-0.844-0.347-1.144-0.455
		c-5.208-1.874-10.425-3.724-15.619-5.636c-1.062-0.391-1.967-0.425-3.067-0.013c-5.418,2.031-10.878,3.95-16.322,5.911
		C50.522,141.685,50.137,141.85,49.675,142.032z M86.438,177.167c0.002-0.087,0.003-0.175,0.005-0.263
		c-0.396-0.144-0.812-0.249-1.185-0.439c-1.01-0.518-1.954-0.373-2.994,0.013c-4.012,1.486-8.064,2.859-12.075,4.349
		c-1.064,0.395-1.955,0.432-3.055,0.012c-4.062-1.554-8.192-2.931-12.269-4.449c-1.116-0.415-2.119-0.516-3.199,0.02
		c-0.619,0.307-1.292,0.504-2.167,0.838c0.548,0.232,0.834,0.371,1.131,0.479c5.242,1.891,10.493,3.76,15.724,5.681
		c0.991,0.364,1.839,0.394,2.866,0.01c5.321-1.987,10.68-3.874,16.025-5.797C85.646,177.475,86.041,177.317,86.438,177.167z
		 M92.242,171.053c-0.278-0.211-0.329-0.271-0.393-0.295c-3.851-1.378-7.702-2.755-11.557-4.125
		c-0.199-0.07-0.439-0.167-0.623-0.115c-1.088,0.306-2.151,0.686-3.316,1.19c0.283,0.179,0.393,0.279,0.521,0.325
		c3.787,1.346,7.574,2.688,11.366,4.02c0.262,0.092,0.588,0.178,0.832,0.103C90.087,171.841,91.081,171.463,92.242,171.053z
		 M81.983,165.658c0.303,0.195,0.384,0.271,0.479,0.305c3.822,1.367,7.646,2.732,11.471,4.09c0.199,0.072,0.439,0.171,0.623,0.121
		c1.124-0.303,2.21-0.711,3.352-1.192c-0.183-0.145-0.231-0.206-0.295-0.229c-3.892-1.383-7.784-2.768-11.682-4.135
		c-0.256-0.09-0.584-0.13-0.833-0.051C84.11,164.877,83.142,165.246,81.983,165.658z M65.524,149.422
		c-0.325-0.199-0.43-0.29-0.552-0.333c-3.793-1.352-7.588-2.701-11.385-4.042c-0.23-0.082-0.517-0.182-0.727-0.115
		c-1.042,0.333-2.067,0.72-3.271,1.149c0.312,0.192,0.417,0.284,0.54,0.328c3.792,1.354,7.586,2.705,11.381,4.051
		c0.2,0.071,0.445,0.175,0.623,0.119C63.21,150.238,64.272,149.855,65.524,149.422z M70.554,169.688
		c0.337,0.187,0.477,0.292,0.634,0.349c3.786,1.351,7.574,2.697,11.364,4.037c0.232,0.083,0.509,0.193,0.728,0.139
		c1.099-0.271,2.151-0.678,3.348-1.166c-0.312-0.181-0.426-0.271-0.555-0.317c-3.787-1.349-7.574-2.696-11.368-4.026
		c-0.292-0.104-0.657-0.178-0.939-0.096C72.742,168.908,71.74,169.281,70.554,169.688z M54.194,153.446
		c-0.293-0.175-0.377-0.246-0.475-0.281c-3.816-1.362-7.634-2.723-11.453-4.077c-0.198-0.07-0.438-0.163-0.622-0.112
		c-1.082,0.298-2.138,0.673-3.293,1.215c0.295,0.166,0.406,0.251,0.533,0.297c3.748,1.34,7.496,2.681,11.251,4.001
		c0.284,0.1,0.65,0.133,0.932,0.047C52.054,154.231,53.02,153.862,54.194,153.446z M93.56,161.551
		c0.008,0.091,0.016,0.182,0.023,0.273c0.329,0.131,0.653,0.272,0.987,0.391c3.112,1.109,6.251,2.152,9.33,3.348
		c1.331,0.516,2.538,0.631,3.8-0.041c0.417-0.223,0.966-0.213,1.296-0.676c-0.15-0.1-0.232-0.178-0.329-0.213
		c-3.787-1.356-7.574-2.712-11.366-4.056c-0.227-0.08-0.514-0.146-0.728-0.078C95.561,160.823,94.562,161.195,93.56,161.551z
		 M59.886,151.434c-0.371-0.201-0.513-0.302-0.671-0.359c-3.722-1.328-7.444-2.654-11.171-3.968
		c-0.264-0.092-0.581-0.176-0.839-0.115c-1.094,0.259-2.132,0.683-3.266,1.145c0.227,0.144,0.309,0.22,0.405,0.255
		c3.79,1.349,7.581,2.697,11.376,4.034c0.264,0.093,0.588,0.196,0.833,0.123C57.605,152.236,58.639,151.859,59.886,151.434z
		 M103.606,166.984c-0.269-0.173-0.374-0.271-0.499-0.316c-3.785-1.345-7.571-2.689-11.362-4.016
		c-0.292-0.103-0.658-0.176-0.939-0.092c-1.021,0.303-2.02,0.68-3.168,1.076c0.273,0.174,0.38,0.272,0.505,0.317
		c3.785,1.348,7.569,2.694,11.359,4.024c0.292,0.102,0.659,0.182,0.938,0.098C101.461,167.768,102.459,167.387,103.606,166.984z
		 M32.606,152.165c0.289,0.179,0.372,0.254,0.469,0.289c3.79,1.353,7.582,2.704,11.376,4.046c0.23,0.082,0.516,0.178,0.727,0.112
		c1.046-0.33,2.074-0.711,3.313-1.147c-0.355-0.199-0.49-0.302-0.643-0.356c-3.723-1.329-7.446-2.657-11.176-3.966
		c-0.288-0.101-0.656-0.152-0.938-0.066C34.746,151.377,33.778,151.75,32.606,152.165z M42.875,157.492
		c-0.405-0.208-0.552-0.304-0.711-0.361c-3.683-1.313-7.366-2.625-11.051-3.93c-0.233-0.083-0.484-0.151-0.729-0.158
		c-0.504-0.015-2.697,0.882-3.21,1.282c0.092,0.061,0.17,0.14,0.265,0.173c3.751,1.335,7.502,2.667,11.257,3.992
		c0.231,0.082,0.515,0.181,0.729,0.118C40.507,158.29,41.573,157.919,42.875,157.492z M70.753,149.419
		c-0.003,0.087-0.007,0.175-0.01,0.262c0.496,0.185,1.008,0.335,1.484,0.562c0.798,0.378,1.536,0.337,2.374,0.028
		c3.74-1.376,7.505-2.685,11.26-4.022c0.331-0.118,0.651-0.267,1.211-0.499c-0.772-0.287-1.346-0.467-1.891-0.709
		c-0.694-0.31-1.334-0.309-2.067-0.038c-2.896,1.072-5.816,2.075-8.727,3.108C73.174,148.542,71.965,148.983,70.753,149.419z
		 M98.36,149.824c-0.859-0.32-1.495-0.527-2.106-0.794c-0.565-0.247-1.085-0.207-1.657,0c-3.917,1.408-7.843,2.791-11.763,4.188
		c-0.243,0.087-0.467,0.23-0.909,0.453c0.758,0.27,1.31,0.418,1.818,0.658c0.738,0.348,1.419,0.272,2.168,0.001
		c3.779-1.368,7.572-2.694,11.358-4.04C97.559,150.187,97.835,150.05,98.36,149.824z M76.183,151.601
		c0.694,0.264,1.203,0.418,1.677,0.646c0.836,0.401,1.619,0.347,2.489,0.027c3.71-1.366,7.441-2.67,11.163-4
		c0.324-0.116,0.638-0.259,1.195-0.487c-0.795-0.3-1.367-0.478-1.905-0.729c-0.705-0.329-1.357-0.253-2.074,0.006
		c-3.783,1.373-7.58,2.708-11.371,4.059C77.028,151.239,76.711,151.384,76.183,151.601z M87.828,155.499
		c-0.014,0.086-0.027,0.172-0.04,0.258c0.63,0.226,1.27,0.431,1.889,0.685c0.567,0.232,1.09,0.198,1.664-0.009
		c3.852-1.388,7.712-2.748,11.568-4.123c0.289-0.103,0.562-0.25,1.057-0.473c-0.71-0.271-1.221-0.428-1.695-0.657
		c-0.806-0.389-1.562-0.309-2.384,0.001c-2.115,0.799-4.259,1.527-6.39,2.287C91.606,154.144,89.718,154.822,87.828,155.499z
		 M93.473,157.518c-0.014,0.076-0.026,0.152-0.039,0.228c0.636,0.23,1.278,0.443,1.904,0.697c0.565,0.229,1.097,0.211,1.67,0.006
		c3.884-1.392,7.775-2.762,11.662-4.146c0.247-0.088,0.472-0.238,0.922-0.469c-0.747-0.27-1.294-0.422-1.801-0.66
		c-0.738-0.346-1.416-0.262-2.166,0.013c-2.862,1.052-5.745,2.048-8.619,3.067C95.827,156.671,94.65,157.096,93.473,157.518z
		 M38.384,169.028c0.005,0.081,0.011,0.161,0.016,0.243c0.532,0.196,1.078,0.363,1.594,0.596c0.729,0.33,1.407,0.305,2.167,0.025
		c3.399-1.246,6.818-2.44,10.229-3.656c0.356-0.127,0.707-0.27,1.06-0.405c-0.566-0.431-1.132-0.618-1.671-0.866
		c-0.701-0.322-1.356-0.26-2.072,0c-3.37,1.224-6.755,2.407-10.133,3.607C39.174,168.715,38.78,168.876,38.384,169.028z
		 M65.062,169.729c-0.68-0.258-1.182-0.415-1.654-0.635c-0.876-0.407-1.699-0.318-2.596,0.012
		c-3.472,1.279-6.967,2.498-10.451,3.743c-0.246,0.089-0.479,0.215-0.899,0.406c0.859,0.311,1.537,0.535,2.197,0.8
		c0.536,0.215,1.03,0.164,1.565-0.029c3.616-1.303,7.241-2.582,10.862-3.873C64.348,170.059,64.598,169.932,65.062,169.729z
		 M44.136,171.066c-0.008,0.08-0.015,0.158-0.022,0.238c0.499,0.188,1.012,0.344,1.492,0.57c0.77,0.362,1.487,0.293,2.277,0.005
		c3.41-1.245,6.839-2.438,10.259-3.653c0.321-0.115,0.632-0.26,0.947-0.391c0.005-0.08,0.01-0.158,0.015-0.238
		c-0.488-0.182-0.994-0.328-1.462-0.553c-0.804-0.386-1.553-0.304-2.377-0.001c-3.408,1.251-6.837,2.443-10.256,3.661
		C44.712,170.811,44.426,170.945,44.136,171.066z M42.007,161.777c-0.009-0.082-0.019-0.166-0.027-0.248
		c-0.635-0.234-1.277-0.451-1.903-0.708c-0.494-0.202-0.952-0.187-1.455-0.005c-3.611,1.303-7.23,2.584-10.844,3.881
		c-0.236,0.084-0.449,0.236-0.832,0.443c0.802,0.301,1.412,0.504,2.001,0.757c0.564,0.243,1.089,0.206,1.66-0.001
		c3.476-1.256,6.96-2.487,10.439-3.73C41.371,162.051,41.687,161.908,42.007,161.777z M47.741,163.822
		c0.013-0.076,0.026-0.15,0.039-0.226c-0.496-0.188-1.009-0.342-1.485-0.57c-0.837-0.401-1.619-0.33-2.482-0.012
		c-3.332,1.231-6.688,2.4-10.032,3.597c-0.357,0.128-0.706,0.281-1.309,0.523c0.759,0.283,1.271,0.438,1.75,0.662
		c0.803,0.374,1.557,0.318,2.384,0.011c2.589-0.962,5.204-1.858,7.808-2.784C45.524,164.628,46.632,164.223,47.741,163.822z
		 M44.099,175.061c0.002,0.104,0.004,0.207,0.005,0.312c0.798,0.29,1.593,0.589,2.396,0.86c0.155,0.052,0.363,0.027,0.523-0.027
		c1.112-0.385,2.218-0.787,3.325-1.184c0.004-0.074,0.009-0.147,0.013-0.221c-0.867-0.288-1.731-0.586-2.604-0.855
		c-0.159-0.049-0.365-0.021-0.528,0.033C46.183,174.329,45.142,174.697,44.099,175.061z M86.281,143.906
		c-0.011,0.094-0.021,0.189-0.032,0.283c0.766,0.271,1.527,0.555,2.3,0.807c0.194,0.063,0.441,0.087,0.63,0.025
		c1.105-0.357,2.201-0.746,3.3-1.124c0.003-0.088,0.006-0.175,0.009-0.263c-0.857-0.301-1.712-0.609-2.574-0.897
		c-0.123-0.041-0.289-0.012-0.418,0.033C88.422,143.142,87.352,143.525,86.281,143.906z M44.595,177.07
		c-1.42-0.829-2.771-1.579-4.34-0.662c-0.303,0.177-0.67,0.242-1.004,0.368c-0.308,0.117-0.61,0.247-0.915,0.372
		c0.807,0.486,1.571,0.772,2.343,1.039c0.163,0.057,0.37,0.097,0.524,0.046C42.338,177.859,43.465,177.461,44.595,177.07z
		 M97.537,147.995c0.011,0.098,0.022,0.196,0.033,0.294c0.915,0.28,1.818,0.61,2.749,0.818c0.475,0.106,2.913-0.948,3.5-1.402
		c-0.859-0.308-1.653-0.603-2.456-0.871c-0.158-0.053-0.366-0.052-0.524,0.002C99.734,147.211,98.637,147.606,97.537,147.995z
		 M98.096,141.902c0-0.093,0-0.185,0-0.277c-0.631-0.234-1.256-0.484-1.893-0.696c-0.299-0.1-0.657-0.247-0.927-0.166
		c-1.144,0.344-2.265,0.765-3.395,1.158c0.002,0.083,0.004,0.166,0.005,0.249c0.861,0.294,1.721,0.594,2.586,0.875
		c0.126,0.041,0.292,0.025,0.421-0.019C95.964,142.659,97.029,142.278,98.096,141.902z M38.897,179.098
		c0.011-0.088,0.022-0.177,0.033-0.266c-0.699-0.249-1.396-0.506-2.1-0.744c-0.234-0.079-0.518-0.209-0.725-0.144
		c-1.143,0.362-2.269,0.778-3.4,1.175c0.004,0.087,0.008,0.174,0.012,0.26c0.803,0.285,1.599,0.59,2.412,0.842
		c0.22,0.068,0.506,0.031,0.732-0.045C36.88,179.834,37.887,179.46,38.897,179.098z M32.737,171.022
		c-0.002,0.089-0.004,0.177-0.005,0.266c0.826,0.292,1.651,0.59,2.481,0.87c0.129,0.044,0.296,0.047,0.424,0.004
		c1.108-0.374,2.212-0.764,3.316-1.148c0.001-0.077,0.001-0.154,0.001-0.232c-0.756-0.281-1.509-0.572-2.271-0.836
		c-0.195-0.068-0.444-0.117-0.63-0.058C34.941,170.246,33.842,170.641,32.737,171.022z M91.933,145.943
		c-0.013,0.09-0.026,0.181-0.039,0.271c0.767,0.272,1.532,0.55,2.302,0.813c0.165,0.057,0.371,0.125,0.521,0.076
		c1.145-0.38,2.279-0.788,3.418-1.188c-0.001-0.089-0.002-0.178-0.004-0.268c-0.805-0.274-1.604-0.568-2.418-0.812
		c-0.225-0.067-0.511-0.036-0.739,0.04C93.954,145.214,92.945,145.584,91.933,145.943z M109.513,145.935
		c-0.003-0.073-0.007-0.145-0.01-0.217c-0.696-0.257-1.388-0.529-2.093-0.764c-0.264-0.088-0.58-0.176-0.834-0.113
		c-1.129,0.283-2.209,0.708-3.285,1.258c0.829,0.417,1.657,0.72,2.49,1.004c0.126,0.043,0.293,0.036,0.42-0.008
		C107.308,146.716,108.41,146.323,109.513,145.935z M33.17,173.055c-0.002-0.086-0.004-0.173-0.006-0.26
		c-1.304-0.561-2.565-1.35-4.082-0.496c-0.399,0.224-0.874,0.31-1.306,0.479c-0.238,0.094-0.459,0.231-0.908,0.462
		c1.005,0.353,1.768,0.641,2.545,0.881c0.225,0.068,0.51,0.061,0.734-0.014C31.161,173.777,32.163,173.41,33.17,173.055z
		 M38.927,175.045c-0.007-0.096-0.013-0.19-0.02-0.286c-1.068-0.2-1.984-1.097-3.15-0.747c-1.025,0.307-2.086,0.588-3.18,1.271
		c0.955,0.344,1.722,0.633,2.499,0.889c0.19,0.062,0.436,0.068,0.624,0.006C36.781,175.815,37.853,175.426,38.927,175.045z
		 M103.978,139.795c-2.403-1.332-4.387-1.221-6.384,0.339c0.826,0.301,1.587,0.586,2.354,0.851c0.162,0.056,0.369,0.091,0.522,0.04
		C101.608,140.641,102.738,140.233,103.978,139.795z M44.588,173.041c-0.002-0.093-0.003-0.186-0.005-0.278
		c-0.83-0.294-1.658-0.595-2.493-0.876c-0.125-0.043-0.291-0.025-0.42,0.02c-1.11,0.381-2.216,0.775-3.56,1.248
		c1.16,0.502,2.088,1.109,3.06,0.973C42.337,173.962,43.451,173.42,44.588,173.041z M27.1,181.1
		c-0.002,0.102-0.004,0.203-0.007,0.306c0.8,0.284,1.597,0.573,2.399,0.847c0.128,0.043,0.294,0.051,0.42,0.009
		c1.137-0.38,2.268-0.773,3.4-1.163c-0.798-0.496-1.562-0.795-2.342-1.038c-0.259-0.081-0.585-0.091-0.842-0.009
		C29.111,180.373,28.108,180.746,27.1,181.1z M103.107,141.984c1.713,0.955,3.202,1.406,4.807,0.477
		c0.274-0.159,0.613-0.203,0.909-0.331c0.203-0.088,0.383-0.23,0.754-0.46c-0.967-0.339-1.737-0.62-2.517-0.876
		c-0.161-0.053-0.369-0.063-0.527-0.01C105.456,141.148,104.386,141.533,103.107,141.984z M109.486,149.972c0-0.075,0-0.15,0-0.226
		c-0.764-0.277-1.527-0.559-2.295-0.825c-0.165-0.058-0.371-0.127-0.521-0.078c-1.142,0.372-2.272,0.772-3.407,1.163
		c-0.001,0.092-0.001,0.185-0.002,0.277c0.833,0.285,1.665,0.575,2.502,0.849c0.127,0.042,0.293,0.038,0.42-0.006
		C107.287,150.75,108.386,150.359,109.486,149.972z M109.579,137.76c-1.021-0.565-1.934-1.1-2.834-1.022
		c-1.199,0.104-2.342,0.67-3.452,1.305c0.912,0.401,1.827,0.917,2.729,0.894C107.196,138.907,108.307,138.309,109.579,137.76z
		 M26.886,177.16c2.408,1.229,2.58,1.242,4.718,0.49c0.338-0.119,0.683-0.221,1.012-0.361c0.198-0.084,0.371-0.229,0.712-0.446
		c-0.919-0.329-1.652-0.605-2.396-0.851c-0.194-0.063-0.442-0.095-0.63-0.033C29.229,176.316,28.168,176.705,26.886,177.16z
		 M97.537,143.966c-0.004,0.064-0.008,0.129-0.012,0.193c0.626,0.229,1.247,0.478,1.882,0.682c0.333,0.107,0.728,0.264,1.033,0.179
		c1.117-0.312,2.208-0.717,3.31-1.087c0.001-0.096,0.002-0.192,0.003-0.288c-0.824-0.293-1.647-0.594-2.477-0.874
		c-0.123-0.042-0.289-0.016-0.417,0.028C99.749,143.182,98.644,143.576,97.537,143.966z M33.429,168.9
		c-0.271-0.179-0.352-0.253-0.446-0.291c-2.259-0.902-2.262-0.906-4.583-0.084c-0.442,0.157-0.947,0.213-1.416,0.688
		c0.895,0.319,1.656,0.612,2.433,0.856c0.222,0.07,0.508,0.061,0.73-0.014C31.195,169.709,32.231,169.326,33.429,168.9z
		 M91.859,177.107c0.012,0.097,0.022,0.192,0.034,0.288c0.736,0.265,1.468,0.545,2.213,0.784c0.228,0.073,0.515,0.107,0.733,0.035
		c1.01-0.331,2.005-0.705,3.005-1.064c0.008-0.079,0.015-0.158,0.022-0.237c-0.829-0.29-1.656-0.586-2.488-0.867
		c-0.129-0.044-0.295-0.067-0.418-0.025C93.924,176.373,92.893,176.743,91.859,177.107z M50.194,143.983
		c-2.389-1.332-4.339-1.223-6.112,0.282c0.861,0.301,1.661,0.592,2.471,0.854c0.156,0.05,0.361,0.023,0.522-0.031
		C48.051,144.754,49.02,144.402,50.194,143.983z M82.166,161.542c-0.008,0.104-0.016,0.209-0.023,0.313
		c0.914,0.283,1.838,0.816,2.74,0.785c1.125-0.041,2.193-0.65,3.252-1.178c-0.816-0.396-1.616-0.688-2.426-0.946
		c-0.19-0.061-0.435-0.056-0.624,0.006C84.106,160.847,83.138,161.199,82.166,161.542z M93.756,159.603
		c0.01-0.104,0.02-0.207,0.029-0.31c-0.913-0.283-1.835-0.819-2.735-0.786c-1.125,0.042-2.198,0.638-3.255,1.18
		c0.811,0.394,1.608,0.685,2.417,0.941c0.19,0.06,0.434,0.054,0.624-0.009C91.814,160.296,92.783,159.944,93.756,159.603z
		 M70.735,161.562c0.003,0.083,0.006,0.167,0.009,0.25c0.83,0.29,1.659,0.584,2.493,0.862c0.129,0.043,0.296,0.048,0.423,0.004
		c1.028-0.352,2.052-0.719,3.077-1.082c0-0.086,0-0.172,0-0.258c-0.763-0.268-1.522-0.542-2.288-0.8
		c-0.164-0.055-0.368-0.12-0.519-0.071C72.86,160.816,71.8,161.193,70.735,161.562z M76.483,155.485c0,0.084,0,0.168,0,0.252
		c0.756,0.282,1.51,0.571,2.271,0.84c0.163,0.058,0.37,0.101,0.524,0.051c1.039-0.342,2.069-0.711,3.103-1.071
		c0.001-0.088,0.002-0.176,0.004-0.264c-0.759-0.277-1.517-0.561-2.279-0.827c-0.163-0.057-0.37-0.112-0.521-0.062
		C78.545,154.75,77.516,155.123,76.483,155.485z M70.734,153.482c-0.006,0.083-0.012,0.166-0.018,0.248
		c0.83,0.29,1.657,0.584,2.49,0.863c0.128,0.043,0.294,0.055,0.419,0.013c1.037-0.348,2.069-0.712,3.104-1.071
		c0.002-0.087,0.004-0.174,0.006-0.261c-0.858-0.294-1.714-0.596-2.577-0.877c-0.125-0.041-0.291-0.016-0.422,0.029
		C72.733,152.771,71.734,153.128,70.734,153.482z M76.754,165.635c-0.098-0.15-0.133-0.275-0.202-0.299
		c-0.843-0.287-1.703-0.812-2.536-0.773c-1.132,0.052-2.2,0.648-3.27,1.168c0.842,0.415,1.672,0.719,2.511,0.994
		c0.155,0.051,0.361,0.023,0.521-0.031C74.756,166.357,75.727,166.002,76.754,165.635z M76.42,163.574
		c0,0.073-0.001,0.147-0.001,0.221c0.967,0.345,1.877,0.905,2.95,0.867c0.693-0.024,2.657-0.887,3.09-1.281
		c-0.73-0.263-1.429-0.55-2.149-0.758c-0.328-0.095-0.728-0.119-1.049-0.024C78.302,162.883,77.365,163.243,76.42,163.574z
		 M44.341,142.033c-0.001-0.091-0.002-0.183-0.003-0.274c-0.698-0.255-1.393-0.522-2.097-0.759c-0.23-0.077-0.512-0.16-0.728-0.097
		c-1.074,0.312-2.127,0.691-3.145,1.23c0.779,0.379,1.543,0.665,2.32,0.906c0.227,0.07,0.512,0.079,0.735,0.007
		C42.403,142.73,43.37,142.374,44.341,142.033z M32.739,144.008c0.002,0.087,0.005,0.175,0.007,0.263
		c0.76,0.268,1.518,0.542,2.28,0.8c0.164,0.055,0.367,0.117,0.518,0.067c1.066-0.35,2.124-0.728,3.185-1.098
		c-0.003-0.081-0.007-0.161-0.01-0.241c-0.625-0.225-1.246-0.461-1.876-0.67c-0.301-0.1-0.655-0.272-0.923-0.195
		C34.846,143.247,33.797,143.643,32.739,144.008z M76.494,159.523c-0.002,0.088-0.004,0.176-0.006,0.265
		c0.619,0.232,1.232,0.48,1.858,0.691c0.299,0.101,0.656,0.252,0.926,0.173c1.048-0.306,2.07-0.696,3.103-1.054
		c0.001-0.083,0.002-0.167,0.003-0.25c-0.616-0.235-1.228-0.485-1.852-0.698c-0.299-0.102-0.656-0.251-0.928-0.173
		C78.551,158.782,77.527,159.168,76.494,159.523z M85.979,175.18c1.092,0.567,2.009,1.109,2.914,1.014
		c1.092-0.115,2.137-0.675,3.202-1.042c-0.003-0.087-0.006-0.175-0.009-0.263c-0.757-0.277-1.512-0.562-2.273-0.826
		c-0.161-0.056-0.369-0.092-0.523-0.041C88.255,174.367,87.229,174.738,85.979,175.18z M97.597,175.108
		c-0.001,0.09-0.003,0.179-0.005,0.269c0.828,0.288,1.653,0.58,2.483,0.859c0.095,0.031,0.22,0.021,0.316-0.012
		c1.032-0.359,2.062-0.728,3.093-1.093c0-0.091,0-0.183,0-0.272c-0.902-0.289-1.811-0.824-2.705-0.803
		C99.68,174.082,98.628,174.664,97.597,175.108z M97.54,179.158c0.004,0.084,0.008,0.168,0.012,0.252
		c0.773,0.271,1.544,0.551,2.321,0.811c0.164,0.055,0.371,0.098,0.524,0.047c1.043-0.348,2.076-0.721,3.113-1.086
		c-0.002-0.086-0.003-0.172-0.004-0.258c-0.835-0.283-1.666-0.578-2.507-0.844c-0.158-0.049-0.365-0.018-0.529,0.038
		C99.49,178.455,98.517,178.811,97.54,179.158z M70.555,157.573c2.505,1.315,4.351,1.223,6.215-0.245
		c-0.821-0.29-1.584-0.578-2.361-0.821c-0.226-0.07-0.512-0.072-0.736,0C72.691,156.818,71.723,157.168,70.555,157.573z
		 M27.163,150.128c1.85,1.378,4.466,1.229,5.795-0.287c-0.521-0.197-1.014-0.402-1.521-0.57c-0.37-0.123-0.792-0.348-1.129-0.267
		C29.249,149.26,28.217,149.637,27.163,150.128z M32.952,146.109c0.007-0.117,0.014-0.234,0.02-0.351
		c-0.901-0.277-1.819-0.815-2.702-0.763c-1.087,0.063-2.134,0.648-3.165,1.185c0.807,0.398,1.603,0.688,2.407,0.951
		c0.157,0.051,0.363,0.035,0.524-0.019C31.012,146.79,31.98,146.446,32.952,146.109z M44.358,146.077
		c-0.009-0.093-0.018-0.186-0.026-0.278c-0.703-0.252-1.403-0.511-2.11-0.752c-0.199-0.068-0.443-0.167-0.621-0.11
		c-1.077,0.345-2.143,0.731-3.212,1.104c0.004,0.082,0.006,0.163,0.009,0.244c0.835,0.287,1.667,0.583,2.507,0.852
		c0.158,0.051,0.365,0.027,0.527-0.028C42.411,146.774,43.384,146.422,44.358,146.077z M32.664,148.099
		c2.145,1.343,4.037,1.259,6.125-0.251c-0.835-0.291-1.604-0.573-2.383-0.821c-0.194-0.062-0.442-0.075-0.634-0.012
		C34.76,147.349,33.758,147.714,32.664,148.099z M82.209,157.49c-0.023,0.089-0.047,0.178-0.07,0.267
		c0.693,0.252,1.382,0.521,2.083,0.749c0.263,0.085,0.584,0.166,0.831,0.092c1.047-0.314,2.075-0.688,3.11-1.04
		c0-0.079,0.001-0.159,0.001-0.238c-0.835-0.281-1.664-0.582-2.508-0.832c-0.223-0.066-0.506-0.027-0.733,0.048
		C84.012,156.836,83.112,157.169,82.209,157.49z M103.006,173.129c2.373,1.32,4.381,1.215,6.113-0.282
		c-0.746-0.269-1.443-0.536-2.154-0.765c-0.23-0.074-0.517-0.122-0.737-0.053C105.185,172.358,104.155,172.732,103.006,173.129z
		 M97.825,173.115c-0.011-0.082-0.022-0.164-0.033-0.247c-0.638-0.231-1.27-0.479-1.914-0.686c-0.301-0.097-0.659-0.229-0.935-0.149
		c-1.048,0.304-2.071,0.688-3.104,1.041c0.004,0.088,0.008,0.174,0.012,0.261c0.768,0.271,1.532,0.556,2.308,0.804
		c0.193,0.062,0.44,0.066,0.634,0.004C95.809,173.816,96.815,173.461,97.825,173.115z M103.358,170.941
		c-0.992-0.398-1.864-1.152-2.979-0.891c-1.512,0.357-2.412,0.807-2.877,1.304c0.921,0.286,1.811,0.806,2.679,0.772
		C101.279,172.086,102.325,171.506,103.358,170.941z M27.104,141.982c-0.002,0.082-0.003,0.164-0.005,0.245
		c0.685,0.258,1.362,0.535,2.057,0.763c0.262,0.086,0.588,0.146,0.837,0.068c1.037-0.325,2.057-0.708,3.082-1.069
		c-0.783-0.478-1.549-0.759-2.324-1.011c-0.196-0.063-0.443-0.092-0.633-0.031C29.106,141.273,28.107,141.634,27.104,141.982z
		 M38.607,140.017c0.001-0.096,0.001-0.192,0.001-0.289c-0.822-0.289-1.644-0.581-2.47-0.86c-0.094-0.032-0.219-0.022-0.314,0.012
		c-1.03,0.358-2.058,0.725-3.086,1.089c0,0.081,0,0.161,0,0.241c0.688,0.249,1.371,0.507,2.063,0.741
		c0.23,0.078,0.512,0.188,0.721,0.123C36.56,140.75,37.581,140.374,38.607,140.017z M26.983,137.977
		c2.059,1.365,4.115,1.264,5.999-0.243c-0.615-0.226-1.176-0.451-1.749-0.637c-0.337-0.109-0.731-0.291-1.034-0.206
		C29.147,137.186,28.124,137.583,26.983,137.977z M103.069,177.173c2.39,1.312,4.395,1.194,6.083-0.271
		c-0.813-0.286-1.577-0.565-2.349-0.821c-0.16-0.053-0.365-0.072-0.521-0.021C105.276,176.393,104.278,176.75,103.069,177.173z
		 M109.051,169.051c0.002-0.084,0.004-0.168,0.006-0.251c-0.565-0.21-1.125-0.437-1.698-0.624c-0.334-0.11-0.728-0.293-1.028-0.209
		c-1.047,0.294-2.065,0.689-3.301,1.119c0.988,0.607,1.845,0.826,2.691,1.06c0.125,0.034,0.286-0.015,0.418-0.06
		C107.111,169.746,108.08,169.396,109.051,169.051z M109.117,181.199c-0.013-0.095-0.026-0.189-0.039-0.285
		c-0.568-0.209-1.132-0.43-1.705-0.622c-0.302-0.101-0.656-0.282-0.925-0.206c-1.079,0.305-2.158,0.637-3.386,1.259
		c0.932,0.339,1.626,0.602,2.328,0.842c0.197,0.067,0.441,0.146,0.622,0.089C107.055,181.938,108.083,181.562,109.117,181.199z
		 M71.077,151.374c-2.251-1.218-3.588-1.204-5.464,0.033C67.409,152.512,69.212,152.627,71.077,151.374z M70.932,155.397
		c-1.836-1.21-3.434-1.197-5.187,0.042C67.538,156.638,69.213,156.625,70.932,155.397z M65.728,167.54
		c1.805,1.172,3.567,1.182,5.341,0.007C69.145,166.305,67.7,166.295,65.728,167.54z M71.288,159.509
		c-2.635-1.28-4.106-1.248-5.577,0.062c0.844,0.295,1.643,0.585,2.449,0.849c0.157,0.051,0.361,0.048,0.52-0.003
		C69.483,160.151,70.28,159.863,71.288,159.509z M65.764,163.471c1.779,1.227,3.49,1.223,5.297-0.014
		C69.292,162.352,67.526,162.254,65.764,163.471z M59.142,155.586c-1.664-0.827-3.22-1.47-4.91-0.118
		C55.842,156.355,57.396,156.841,59.142,155.586z M64.864,161.674c-1.979-1.218-3.572-1.257-4.777-0.12
		C61.639,162.387,63.184,162.886,64.864,161.674z M47.81,159.608c-1.637-0.845-3.229-1.425-4.944-0.11
		C44.516,160.332,46.105,160.938,47.81,159.608z M53.471,161.645c-2.288-1.19-3.554-1.207-4.795-0.086
		C50.232,162.4,51.781,162.877,53.471,161.645z M59.906,153.446c1.643,0.815,3.226,1.435,4.939,0.1
		C63.215,152.789,61.636,152.073,59.906,153.446z M60.056,165.513c2.016,1.189,3.3,1.221,4.777,0.13
		C63.272,164.915,61.739,164.19,60.056,165.513z M64.862,157.635c-2.364-1.201-3.475-1.224-4.869-0.149
		C62.807,158.72,62.67,158.664,64.862,157.635z M59.202,163.679c-2.253-1.181-3.482-1.214-4.877-0.12
		C55.925,164.33,57.495,164.951,59.202,163.679z M48.506,157.456c1.648,0.771,3.223,1.483,4.934,0.16
		C51.842,156.803,50.281,156.195,48.506,157.456z M54.29,159.486c1.67,0.872,3.252,1.401,4.904,0.12
		C57.585,158.853,56.012,158.174,54.29,159.486z"/>
	<path fill-rule="evenodd" clip-rule="evenodd" d="M268.64,171.777c-0.955,0-1.872,0-2.897,0c-0.042-0.505-0.109-0.957-0.11-1.409
		c-0.008-4.782-0.005-9.564-0.005-14.346c0-0.379,0-0.757,0-1.136c-0.091-0.021-0.182-0.042-0.272-0.062
		c-2.851,5.696-5.701,11.393-8.509,17.004c-0.178,0.041-0.212,0.057-0.243,0.053c-0.034-0.004-0.068-0.023-0.098-0.043
		s-0.058-0.043-0.08-0.071c-0.045-0.056-0.088-0.112-0.126-0.173c-0.038-0.062-0.07-0.126-0.103-0.189
		c-2.811-5.508-5.62-11.015-8.433-16.521c-0.014-0.027-0.06-0.039-0.152-0.095c-0.287,0.321-0.163,0.721-0.164,1.072
		c-0.016,4.817-0.016,9.635-0.027,14.454c-0.001,0.455-0.056,0.912-0.09,1.45c-0.969,0-1.846,0-2.842,0
		c-0.038-0.413-0.104-0.792-0.104-1.171c-0.007-7.227-0.006-14.454-0.003-21.681c0-0.355,0.033-0.71,0.056-1.149
		c0.958-0.236,1.883-0.16,2.8-0.074c0.168,0.016,0.353,0.231,0.464,0.398c0.18,0.267,0.308,0.568,0.451,0.858
		c2.6,5.212,5.198,10.424,7.799,15.636c0.171,0.342,0.363,0.672,0.63,1.162c0.264-0.48,0.442-0.782,0.597-1.095
		c2.65-5.347,5.31-10.689,7.933-16.049c0.346-0.707,0.76-1.06,1.564-0.988c0.635,0.058,1.278,0.012,1.871,0.012
		C268.854,148.524,268.928,170.316,268.64,171.777z"/>
	<path fill-rule="evenodd" clip-rule="evenodd" d="M467.296,162.16c2.403,3.201,4.724,6.294,7.203,9.598
		c-0.705,0.041-1.179,0.098-1.652,0.091c-2.598-0.036-1.868,0.339-3.421-1.709c-1.65-2.177-3.291-4.364-4.893-6.577
		c-0.471-0.65-0.991-0.945-1.802-0.911c-1.328,0.056-2.661,0.009-3.991,0.017c-1.303,0.008-1.35,0.049-1.354,1.32
		c-0.008,2.156,0.003,4.314-0.008,6.472c-0.002,0.419-0.065,0.838-0.106,1.321c-1.017,0-1.935,0-2.83,0
		c-0.283-0.842-0.357-22.655-0.08-24.058c0.307-0.031,0.65-0.094,0.993-0.094c3.236-0.007,6.473-0.036,9.708,0.008
		c2.086,0.028,4.065,0.515,5.781,1.782c1.565,1.156,2.434,2.723,2.593,4.654c0.32,3.869-1.356,6.411-5.018,7.673
		C468.09,161.86,467.765,161.986,467.296,162.16z M462.076,150.616c0-0.001,0-0.004,0-0.005c-1.257,0-2.514-0.018-3.77,0.006
		c-0.787,0.015-0.902,0.114-0.909,0.868c-0.021,2.441-0.021,4.883-0.003,7.324c0.007,0.815,0.119,0.921,0.961,0.925
		c2.298,0.012,4.596,0.005,6.893-0.018c1.023-0.011,1.99-0.296,2.87-0.818c1.562-0.927,2.322-2.323,2.22-4.13
		c-0.102-1.796-1.068-3.034-2.731-3.648c-0.761-0.281-1.597-0.42-2.409-0.483C464.163,150.555,463.117,150.616,462.076,150.616z"/>
	<path fill-rule="evenodd" clip-rule="evenodd" d="M321.463,147.627c0.299,1.313,0.254,23.25-0.047,24.211
		c-0.594,0-1.231,0.006-1.869-0.002c-0.551-0.006-0.793-0.451-1.077-0.809c-1.476-1.859-2.939-3.727-4.407-5.591
		c-3.026-3.841-6.052-7.683-9.081-11.522c-0.195-0.249-0.414-0.479-0.661-0.763c-0.39,0.405-0.246,0.852-0.247,1.246
		c-0.012,5.178-0.003,10.355-0.011,15.534c-0.003,2.073,0.212,1.919-2.03,1.917c-0.279,0-0.56-0.059-0.812-0.086
		c-0.278-0.891-0.322-22.829-0.052-24.001c0.81-0.26,1.674-0.174,2.51-0.065c0.287,0.038,0.567,0.407,0.782,0.679
		c2.3,2.903,4.585,5.818,6.874,8.729c2.135,2.713,4.27,5.426,6.407,8.135c0.194,0.246,0.412,0.473,0.799,0.912
		c0.024-0.617,0.052-0.994,0.052-1.371c0.003-5.106,0.002-10.213,0.002-15.319c0-0.288-0.008-0.576,0.005-0.863
		c0.036-0.871,0.092-0.939,0.919-0.966C320.157,147.61,320.799,147.627,321.463,147.627z"/>
	<path fill-rule="evenodd" clip-rule="evenodd" d="M381.81,147.703c5.863,0,11.629,0,17.493,0c0,0.913,0,1.748,0,2.687
		c-0.509,0.036-0.962,0.094-1.415,0.095c-3.848,0.007-7.695,0.001-11.543,0.007c-0.422,0-0.845,0.047-1.233,0.07
		c-0.278,0.944-0.301,6.435-0.03,7.559c0.385,0.024,0.803,0.073,1.222,0.074c3.38,0.006,6.76,0.001,10.141,0.007
		c0.42,0.001,0.84,0.047,1.342,0.077c0,0.928,0,1.763,0,2.692c-0.499,0.035-0.918,0.088-1.337,0.088
		c-3.38,0.008-6.761,0.002-10.141,0.008c-0.421,0.002-0.841,0.055-1.333,0.09c0,2.594,0,5.095,0,7.729
		c0.468,0.035,0.916,0.099,1.364,0.1c3.92,0.008,7.84,0.004,11.759,0.004c0.424,0,0.848,0,1.379,0c0,0.965,0,1.799,0,2.751
		c-0.395,0.039-0.773,0.108-1.151,0.108c-5.106,0.008-10.212,0.006-15.318,0.006c-0.18,0-0.359-0.011-0.539-0.008
		c-0.479,0.008-0.744-0.205-0.746-0.703c-0.001-0.252-0.012-0.504-0.012-0.756c0-7.119-0.002-14.239,0.004-21.359
		C381.714,148.608,381.772,148.19,381.81,147.703z"/>
	<path fill-rule="evenodd" clip-rule="evenodd" d="M236.85,171.773c-0.956,0-1.872,0-2.891,0c-0.035-0.488-0.09-0.906-0.091-1.325
		c-0.008-2.588-0.004-5.175-0.004-7.763c0-0.424,0-0.848,0-1.374c-0.503-0.044-0.883-0.106-1.262-0.107
		c-3.559-0.008-7.116-0.005-10.675-0.004c-0.215,0-0.431,0.009-0.646,0.017c-0.384,0.016-0.597,0.215-0.616,0.6
		c-0.016,0.287-0.022,0.574-0.022,0.862c-0.002,2.587,0.003,5.175-0.006,7.763c-0.002,0.42-0.062,0.84-0.102,1.332
		c-1.008,0-1.925,0-2.967,0c-0.037-0.416-0.101-0.794-0.101-1.172c-0.007-7.261-0.005-14.521-0.002-21.78
		c0-0.32,0.034-0.639,0.059-1.048c0.975-0.277,1.926-0.104,2.989-0.124c0.047,0.486,0.12,0.898,0.122,1.311
		c0.011,2.588,0.003,5.176,0.009,7.763c0.001,0.424,0.04,0.848,0.061,1.239c0.855,0.281,11.645,0.351,13.066,0.089
		c0.029-0.383,0.087-0.798,0.088-1.213c0.009-2.587,0.002-5.175,0.008-7.763c0.001-0.422,0.042-0.843,0.069-1.355
		c1.027,0,1.969,0,2.894,0C237.104,148.634,237.134,170.576,236.85,171.773z"/>
	<path fill-rule="evenodd" clip-rule="evenodd" d="M448.299,168.988c0,0.98,0,1.79,0,2.73c-0.336,0.045-0.675,0.127-1.015,0.127
		c-5.178,0.009-10.356,0.008-15.535,0.002c-0.314,0-0.628-0.059-0.91-0.086c-0.276-0.936-0.309-22.904-0.058-23.947
		c0.796-0.234,15.936-0.293,17.25-0.058c0.347,0.726,0.198,1.516,0.121,2.285c-0.017,0.157-0.327,0.355-0.533,0.405
		c-0.307,0.074-0.643,0.041-0.966,0.041c-3.848,0.002-7.696-0.001-11.544,0.005c-0.419,0-0.837,0.057-1.321,0.092
		c0,2.528,0,4.957,0,7.511c0.441,0.035,0.854,0.097,1.268,0.098c3.381,0.008,6.761,0.004,10.142,0.004c0.424,0,0.849,0,1.281,0
		c0.339,0.955,0.226,1.794,0.108,2.753c-0.468,0.038-0.918,0.105-1.368,0.107c-3.345,0.009-6.689,0.002-10.034,0.007
		c-0.423,0.001-0.847,0.037-1.235,0.056c-0.286,0.873-0.338,6.481-0.075,7.781c1.13,0.184,2.31,0.062,3.479,0.082
		c1.223,0.021,2.446,0.004,3.668,0.004c1.188,0,2.374,0,3.561,0C445.766,168.988,446.949,168.988,448.299,168.988z"/>
	<path fill-rule="evenodd" clip-rule="evenodd" d="M361.361,163.605c-0.04,0.498-0.1,0.917-0.102,1.336
		c-0.011,1.833-0.002,3.666-0.007,5.498c-0.004,1.408-0.009,1.416-1.46,1.41c-0.49-0.002-0.98-0.051-1.436-0.077
		c-0.268-1.024-0.276-22.998-0.013-24.063c0.312-0.026,0.659-0.08,1.007-0.081c2.767-0.006,5.534-0.015,8.301,0.002
		c1.488,0.009,2.936,0.287,4.298,0.893c2.747,1.222,4.247,3.358,4.456,6.35c0.196,2.827-0.795,5.147-3.155,6.797
		c-1.509,1.055-3.216,1.612-5.04,1.717c-1.827,0.105-3.661,0.098-5.492,0.145C362.296,163.543,361.873,163.576,361.361,163.605z
		 M361.44,160.49c2.343,0,4.639,0.092,6.921-0.045c0.921-0.055,1.887-0.485,2.701-0.967c1.669-0.989,2.331-2.581,2.166-4.49
		c-0.16-1.848-1.112-3.189-2.856-3.826c-0.859-0.313-1.807-0.484-2.723-0.527c-1.755-0.082-3.517-0.03-5.275-0.023
		c-0.313,0.001-0.627,0.053-0.909,0.078C361.193,151.64,361.174,159.394,361.44,160.49z"/>
	<path fill-rule="evenodd" clip-rule="evenodd" d="M351.61,150.419c-0.626,0.843-1.17,1.577-1.755,2.364
		c-0.406-0.277-0.701-0.471-0.989-0.675c-1.977-1.403-4.165-2.12-6.594-1.885c-0.771,0.075-1.569,0.279-2.265,0.611
		c-1.219,0.582-1.898,1.591-1.931,3.001c-0.033,1.431,0.616,2.469,1.884,2.99c1.354,0.558,2.788,0.923,4.187,1.377
		c1.5,0.487,3.046,0.87,4.486,1.497c2.351,1.023,3.655,2.889,3.652,5.493c-0.003,2.581-1.171,4.556-3.427,5.838
		c-1.88,1.07-3.936,1.323-6.054,1.174c-3.154-0.223-5.922-1.398-8.315-3.459c-0.16-0.139-0.295-0.307-0.473-0.494
		c0.402-0.885,1.146-1.461,1.764-2.289c0.369,0.277,0.683,0.493,0.974,0.736c1.815,1.52,3.88,2.44,6.255,2.644
		c1.35,0.115,2.667,0.007,3.896-0.591c1.284-0.623,2.092-1.607,2.185-3.094c0.081-1.312-0.397-2.376-1.568-2.957
		c-1.054-0.521-2.184-0.91-3.311-1.26c-1.268-0.395-2.58-0.643-3.852-1.027c-0.752-0.228-1.48-0.558-2.188-0.907
		c-4.342-2.142-3.998-7.857-1.047-10.264c1.706-1.39,3.679-1.935,5.812-1.955c2.803-0.027,5.411,0.666,7.702,2.352
		C350.925,149.851,351.193,150.083,351.61,150.419z"/>
	<path fill-rule="evenodd" clip-rule="evenodd" d="M193.24,168.165c0.636-0.761,1.223-1.463,1.86-2.228
		c0.442,0.352,0.778,0.613,1.108,0.881c1.776,1.447,3.787,2.321,6.083,2.523c1.349,0.118,2.661,0,3.899-0.578
		c0.986-0.461,1.714-1.178,2.046-2.242c0.521-1.671-0.039-3.211-1.677-3.979c-1.224-0.575-2.566-0.904-3.868-1.305
		c-1.271-0.39-2.562-0.708-3.83-1.103c-0.51-0.159-0.992-0.42-1.472-0.667c-4.279-2.197-3.903-7.893-0.897-10.285
		c1.69-1.345,3.637-1.866,5.728-1.894c2.804-0.038,5.412,0.659,7.708,2.337c0.231,0.169,0.456,0.349,0.671,0.54
		c0.074,0.065,0.107,0.178,0.221,0.379c-0.528,0.704-1.076,1.437-1.676,2.236c-0.411-0.284-0.731-0.501-1.049-0.725
		c-1.984-1.401-4.187-2.074-6.609-1.828c-0.769,0.078-1.566,0.299-2.256,0.645c-1.21,0.605-1.856,1.636-1.861,3.045
		c-0.004,1.388,0.645,2.389,1.867,2.893c1.355,0.559,2.783,0.942,4.185,1.383c1.302,0.409,2.614,0.782,3.913,1.196
		c0.339,0.108,0.648,0.307,0.969,0.471c4.419,2.25,4.025,7.951,0.943,10.432c-1.485,1.195-3.208,1.775-5.07,1.904
		c-3.832,0.265-7.244-0.842-10.204-3.302C193.731,168.696,193.527,168.453,193.24,168.165z"/>
	<path fill-rule="evenodd" clip-rule="evenodd" d="M297.523,171.824c-1.151,0-2.076,0.053-2.987-0.034
		c-0.26-0.024-0.558-0.417-0.708-0.708c-0.763-1.468-1.521-2.939-2.2-4.447c-0.36-0.8-0.847-1.094-1.733-1.08
		c-3.199,0.052-6.401,0.043-9.602,0.004c-0.793-0.009-1.248,0.26-1.593,0.969c-0.739,1.519-1.571,2.992-2.325,4.505
		c-0.293,0.587-0.678,0.87-1.346,0.829c-0.675-0.041-1.354-0.01-2.246-0.01c0.213-0.508,0.334-0.859,0.501-1.188
		c2.985-5.865,5.977-11.727,8.966-17.59c0.751-1.474,1.495-2.951,2.249-4.424c0.16-0.313,0.347-0.612,0.638-1.121
		c2.215,4.105,4.185,8.121,6.213,12.105C293.382,163.626,295.461,167.594,297.523,171.824z M289.812,162.663
		c-1.591-3.14-3.088-6.094-4.605-9.091c-0.777,0.861-4.466,8.211-4.576,9.091C283.602,162.663,286.563,162.663,289.812,162.663z"/>
	<path fill-rule="evenodd" clip-rule="evenodd" d="M157.109,150.507c0-0.965,0-1.837,0-2.687c0.923-0.241,20.801-0.283,21.928-0.068
		c0.276,0.773,0.304,1.491,0.08,2.74c-0.381,0.036-0.795,0.106-1.21,0.109c-2.23,0.011-4.46,0.002-6.69,0.009
		c-0.423,0.001-0.846,0.043-1.37,0.072c-0.035,0.525-0.093,0.978-0.093,1.431c-0.007,6.042-0.005,12.085-0.005,18.127
		c0,0.46,0,0.919,0,1.45c-1.098,0.25-2.068,0.201-3.201,0.045c-0.033-3.541-0.012-7.018-0.016-10.494c-0.004-3.478,0-6.956,0-10.524
		c-0.567-0.044-0.985-0.104-1.403-0.106c-2.229-0.009-4.46,0-6.689-0.009C158.02,150.6,157.6,150.543,157.109,150.507z"/>
	<path fill-rule="evenodd" clip-rule="evenodd" d="M414.429,159.315c0.373-0.514,0.63-0.848,0.867-1.196
		c2.119-3.121,4.267-6.224,6.33-9.381c0.565-0.865,1.188-1.243,2.201-1.128c0.628,0.072,1.272,0.013,2.152,0.013
		c-0.326,0.551-0.515,0.917-0.746,1.253c-2.829,4.116-5.65,8.236-8.511,12.331c-0.521,0.746-0.752,1.492-0.735,2.397
		c0.043,2.37,0.021,4.743,0.011,7.114c-0.005,1.065-0.058,1.11-1.079,1.131c-0.639,0.013-1.278,0.002-2.018,0.002
		c-0.046-0.546-0.108-0.963-0.11-1.381c-0.01-2.371-0.024-4.743,0.006-7.114c0.01-0.755-0.19-1.377-0.623-2
		c-2.869-4.131-5.709-8.283-8.557-12.43c-0.235-0.344-0.449-0.702-0.744-1.165c1.219-0.237,2.287-0.17,3.335-0.075
		c0.304,0.027,0.63,0.435,0.841,0.74c1.447,2.101,2.866,4.221,4.295,6.334C412.327,156.215,413.313,157.669,414.429,159.315z"/>
	<path fill-rule="evenodd" clip-rule="evenodd" d="M187.39,147.696c0,8.086,0,16.008,0,23.957c-0.85,0.344-1.677,0.207-2.481,0.143
		c-0.188-0.016-0.423-0.33-0.503-0.555c-0.093-0.258-0.043-0.567-0.043-0.854c-0.002-7.111-0.003-14.222-0.001-21.333
		c0.001-1.423,0.007-1.429,1.436-1.425C186.289,147.628,186.782,147.668,187.39,147.696z"/>
</g>
</svg>
