<?xml version="1.0" encoding="utf-8"?>
<!-- Generator: Adobe Illustrator 16.0.3, SVG Export Plug-In . SVG Version: 6.00 Build 0)  -->
<!DOCTYPE svg PUBLIC "-//W3C//DTD SVG 1.1//EN" "http://www.w3.org/Graphics/SVG/1.1/DTD/svg11.dtd">
<svg version="1.1" id="Layer_1" xmlns="http://www.w3.org/2000/svg" xmlns:xlink="http://www.w3.org/1999/xlink" x="0px" y="0px"
	 width="500px" height="320px" viewBox="0 0 500 320" enable-background="new 0 0 500 320" xml:space="preserve">
<g>
	<path fill-rule="evenodd" clip-rule="evenodd" d="M472.384,171.106c-0.583,0.288-1.146,0.764-1.754,0.834
		c-3.598,0.419-7.161,0.364-10.541-1.205c-1.64-0.761-3.081-1.796-4.151-3.26c-3.745-5.119-7.459-10.261-11.193-15.388
		c-0.598-0.818-1.198-1.642-1.873-2.395c-1.115-1.244-2.563-1.802-4.221-1.921c-0.635-0.045-0.897,0.213-0.936,0.771
		c-0.062,0.918-0.138,1.84-0.123,2.758c0.078,4.666,0.186,9.332,0.277,13.997c0.035,1.796,0.871,3.002,2.596,3.565
		c0.873,0.284,1.778,0.499,2.605,0.884c0.398,0.186,0.648,0.69,0.966,1.051c-0.415,0.288-0.796,0.663-1.255,0.836
		c-0.395,0.15-0.877,0.088-1.32,0.088c-5.045,0.005-10.09,0.012-15.135-0.007c-0.592-0.003-1.199-0.1-1.766-0.265
		c-0.244-0.071-0.568-0.437-0.56-0.657c0.011-0.281,0.259-0.679,0.514-0.801c0.564-0.271,1.193-0.412,1.802-0.585
		c0.519-0.147,1.047-0.256,1.567-0.396c1.866-0.5,2.948-1.743,3.141-3.632c0.202-1.986,0.337-3.987,0.347-5.982
		c0.047-8.985,0.052-17.971,0.034-26.955c-0.003-1.263-0.158-2.533-0.335-3.786c-0.211-1.489-1.121-2.452-2.532-2.928
		c-0.78-0.263-1.612-0.399-2.353-0.742c-0.42-0.195-0.701-0.692-1.045-1.053c0.423-0.264,0.824-0.698,1.273-0.754
		c0.938-0.117,1.9-0.036,2.852-0.031c3.84,0.017,7.681,0.031,11.521,0.056c0.633,0.004,1.281-0.016,1.892,0.118
		c0.291,0.063,0.646,0.43,0.711,0.718c0.045,0.204-0.299,0.631-0.559,0.738c-0.64,0.265-1.333,0.396-2.002,0.591
		c-2.134,0.621-2.897,1.325-2.959,3.515c-0.15,5.328-0.137,10.661-0.184,15.992c-0.006,0.664,0.318,0.933,1.008,0.944
		c2.967,0.048,5.573-0.836,7.389-3.234c1.812-2.396,3.434-4.94,5.096-7.448c1.787-2.693,3.402-5.511,5.329-8.097
		c1.035-1.39,2.476-2.538,3.902-3.557c1.433-1.023,3.178-1.22,4.935-0.955c2.004,0.301,2.925,1.62,2.479,3.583
		c-0.175,0.771-0.376,1.545-0.665,2.277c-0.406,1.025-1.297,1.358-2.327,0.944c-0.499-0.2-0.98-0.447-1.478-0.658
		c-1.916-0.813-3.752-0.567-5.213,0.855c-1.236,1.204-2.29,2.62-3.291,4.037c-2.393,3.391-4.688,6.85-7.069,10.248
		c-0.37,0.528-0.112,0.809,0.132,1.16c3.512,5.052,7.008,10.115,10.557,15.142c1.114,1.579,2.365,3.062,3.568,4.579
		c2.333,2.938,5.337,4.722,9.064,5.285c0.445,0.067,0.855,0.363,1.282,0.553C472.384,170.726,472.384,170.916,472.384,171.106z"/>
	<path fill-rule="evenodd" clip-rule="evenodd" d="M22.384,170.916c0.604-0.434,1.184-0.908,1.821-1.284
		c0.401-0.236,0.884-0.343,1.339-0.479c2.147-0.64,3.642-2.032,4.518-4.054c1.345-3.105,2.68-6.217,3.921-9.364
		c3.539-8.976,7.012-17.978,10.551-26.953c0.657-1.667,1.454-3.285,2.281-4.876c0.372-0.714,0.979-1.306,1.479-1.953
		c0.19,0,0.381,0,0.572,0c1.711,4.658,3.396,9.326,5.14,13.972c3.462,9.22,6.952,18.43,10.448,27.637
		c0.303,0.796,0.729,1.545,1.116,2.308c0.958,1.889,2.427,3.124,4.528,3.603c0.703,0.159,1.388,0.442,2.039,0.757
		c0.236,0.113,0.52,0.516,0.477,0.723c-0.057,0.271-0.375,0.596-0.652,0.69c-0.468,0.161-0.993,0.225-1.492,0.215
		c-1.554-0.028-3.107-0.147-4.661-0.164c-3.267-0.034-6.534-0.015-9.8-0.044c-0.692-0.006-1.394-0.078-2.071-0.215
		c-0.258-0.052-0.643-0.37-0.645-0.57c-0.003-0.279,0.241-0.639,0.486-0.821c0.292-0.218,0.69-0.3,1.052-0.41
		c0.514-0.158,1.053-0.247,1.553-0.439c1.55-0.598,2.129-1.449,1.663-3.026c-1.184-4.004-2.479-7.977-3.789-11.942
		c-0.658-1.991-0.753-2.048-2.826-2.027c-3.967,0.038-7.934,0.143-11.9,0.212c-0.696,0.012-1.251,0.231-1.513,0.922
		c-1.492,3.942-2.958,7.895-3.699,12.064c-0.28,1.58,0.112,2.378,1.495,3.156c0.603,0.339,1.27,0.568,1.915,0.831
		c0.381,0.154,0.834,0.197,1.151,0.432c0.394,0.291,0.679,0.728,1.012,1.102c-0.44,0.256-0.86,0.559-1.327,0.749
		c-0.277,0.113-0.629,0.085-0.943,0.058c-4.316-0.373-8.624-0.165-12.936,0.111c-0.757,0.049-1.534-0.222-2.301-0.346
		C22.384,171.297,22.384,171.106,22.384,170.916z M46.146,131.717c-0.1,0.005-0.199,0.01-0.298,0.015
		c-0.241,0.612-0.499,1.219-0.721,1.838c-1.706,4.771-3.414,9.541-5.101,14.318c-0.362,1.025-0.242,1.159,0.843,1.143
		c3.427-0.054,6.855-0.104,10.282-0.18c1.082-0.023,1.172-0.173,0.812-1.2c-1.595-4.542-3.194-9.082-4.813-13.615
		C46.867,133.244,46.483,132.489,46.146,131.717z"/>
	<path fill-rule="evenodd" clip-rule="evenodd" d="M345.309,121.953c0.363,0.696,0.807,1.362,1.078,2.093
		c4.793,12.914,9.557,25.841,14.359,38.752c0.461,1.239,1.105,2.42,1.744,3.584c0.867,1.581,2.219,2.563,3.974,3.021
		c0.763,0.199,1.517,0.461,2.231,0.79c0.26,0.121,0.559,0.534,0.536,0.787c-0.022,0.249-0.392,0.575-0.674,0.669
		c-0.47,0.156-0.995,0.217-1.494,0.208c-1.522-0.028-3.044-0.146-4.566-0.162c-3.203-0.036-6.407-0.02-9.61-0.049
		c-0.756-0.007-1.521-0.059-2.264-0.194c-0.285-0.052-0.73-0.407-0.721-0.604c0.016-0.302,0.309-0.662,0.584-0.858
		c0.293-0.211,0.701-0.27,1.063-0.379c0.485-0.146,0.989-0.239,1.46-0.423c1.539-0.601,2.109-1.445,1.654-3.03
		c-1.041-3.618-2.223-7.195-3.359-10.785c-0.221-0.694-0.532-1.36-0.732-2.059c-0.209-0.73-0.703-1.066-1.394-1.06
		c-4.474,0.048-8.948,0.102-13.42,0.228c-0.384,0.011-0.945,0.484-1.098,0.871c-1.544,3.923-2.978,7.887-3.737,12.053
		c-0.276,1.516,0.108,2.338,1.434,3.098c0.627,0.359,1.324,0.602,1.996,0.879c0.352,0.146,0.773,0.18,1.062,0.398
		c0.416,0.313,0.74,0.75,1.103,1.135c-0.474,0.259-0.931,0.555-1.425,0.76c-0.248,0.103-0.566,0.072-0.85,0.048
		c-4.316-0.373-8.625-0.189-12.936,0.129c-0.44,0.033-0.902,0.061-1.326-0.035c-0.332-0.075-0.809-0.294-0.877-0.544
		c-0.074-0.265,0.184-0.726,0.432-0.948c0.343-0.307,0.789-0.582,1.232-0.677c3.57-0.759,5.561-3.137,6.82-6.384
		c3.082-7.942,6.223-15.862,9.324-23.796c1.661-4.247,3.191-8.547,4.984-12.736c0.732-1.712,2.004-3.192,3.029-4.778
		C345.055,121.953,345.182,121.953,345.309,121.953z M342.756,131.721c-0.092,0.013-0.184,0.025-0.275,0.037
		c-0.137,0.315-0.286,0.625-0.406,0.945c-0.633,1.691-1.274,3.379-1.883,5.078c-1.152,3.221-2.298,6.443-3.418,9.675
		c-0.545,1.571-0.508,1.596,1.106,1.57c3.301-0.054,6.601-0.102,9.901-0.176c1.07-0.023,1.16-0.168,0.796-1.207
		c-1.604-4.572-3.214-9.143-4.843-13.705C343.464,133.18,343.084,132.459,342.756,131.721z"/>
	<path fill-rule="evenodd" clip-rule="evenodd" d="M220.711,121.953c0.359,0.735,0.785,1.446,1.068,2.209
		c4.855,13.058,9.691,26.122,14.541,39.182c0.23,0.621,0.556,1.207,0.828,1.813c1.086,2.416,2.83,4.001,5.509,4.479
		c0.544,0.098,1.093,0.358,1.558,0.668c0.629,0.419,0.559,1.021-0.145,1.295c-0.459,0.179-0.988,0.26-1.484,0.253
		c-1.586-0.022-3.17-0.142-4.756-0.158c-3.329-0.034-6.659-0.014-9.989-0.047c-0.69-0.006-1.404-0.062-2.062-0.251
		c-0.721-0.206-0.785-0.826-0.171-1.271c0.299-0.217,0.675-0.341,1.032-0.459c0.36-0.119,0.743-0.165,1.108-0.27
		c2.115-0.606,2.804-1.541,2.197-3.646c-1.078-3.739-2.317-7.434-3.564-11.122c-0.837-2.477-0.895-2.479-3.5-2.442
		c-3.745,0.054-7.488,0.155-11.232,0.208c-0.957,0.014-1.537,0.397-1.82,1.326c-1.157,3.781-2.402,7.537-3.485,11.339
		c-0.527,1.85,0.044,2.85,1.797,3.688c0.912,0.436,1.913,0.685,2.822,1.125c0.374,0.181,0.611,0.643,0.911,0.978
		c-0.392,0.271-0.754,0.613-1.185,0.79c-0.333,0.137-0.754,0.11-1.13,0.08c-4.252-0.354-8.498-0.202-12.743,0.126
		c-0.504,0.038-1.024,0.052-1.519-0.032c-0.307-0.052-0.781-0.272-0.818-0.481c-0.054-0.301,0.141-0.746,0.379-0.972
		c0.332-0.315,0.777-0.604,1.218-0.698c3.691-0.777,5.67-3.273,6.96-6.611c3.389-8.773,6.851-17.517,10.271-26.277
		c1.301-3.331,2.463-6.723,3.896-9.996c0.748-1.709,1.944-3.223,2.938-4.824C220.331,121.953,220.521,121.953,220.711,121.953z
		 M218.034,131.555c-0.224,0.31-0.324,0.398-0.364,0.51c-1.933,5.389-3.856,10.78-5.792,16.168
		c-0.267,0.743,0.154,0.812,0.706,0.803c3.518-0.06,7.037-0.109,10.555-0.185c1.06-0.023,1.167-0.198,0.808-1.214
		c-1.638-4.622-3.28-9.241-4.939-13.855C218.756,133.08,218.412,132.411,218.034,131.555z"/>
	<path fill-rule="evenodd" clip-rule="evenodd" d="M172.247,134.873c-1.617,1.575-3.002,2.873-4.33,4.228
		c-7.732,7.892-15.45,15.796-23.172,23.697c-2.109,2.158-1.463,4.988,1.373,6.049c0.798,0.299,1.612,0.575,2.365,0.966
		c0.274,0.142,0.594,0.637,0.531,0.877c-0.082,0.315-0.48,0.645-0.817,0.774c-0.428,0.166-0.93,0.182-1.402,0.188
		c-4.345,0.063-8.69,0.112-13.036,0.163c-0.603,0.007-1.233,0.104-1.802-0.036c-0.598-0.148-1.497-0.423-1.624-0.838
		c-0.24-0.785,0.694-1.002,1.273-1.248c0.667-0.282,1.392-0.427,2.089-0.64c2.33-0.714,3.143-1.59,3.193-4
		c0.191-9.076,0.319-18.154,0.438-27.231c0.033-2.539-0.028-5.08-0.078-7.619c-0.066-3.315-0.554-3.912-3.71-4.796
		c-0.543-0.152-1.083-0.369-1.564-0.657c-0.218-0.13-0.425-0.528-0.389-0.767c0.037-0.243,0.344-0.554,0.595-0.631
		c0.445-0.137,0.937-0.158,1.409-0.159c4.698-0.011,9.396-0.012,14.094,0c0.504,0.001,1.03,0.023,1.503,0.173
		c0.277,0.087,0.622,0.426,0.656,0.688c0.033,0.259-0.222,0.671-0.468,0.821c-0.421,0.257-0.924,0.409-1.412,0.521
		c-3.261,0.751-4.179,1.812-4.248,5.19c-0.096,4.666-0.157,9.333-0.183,13.999c-0.024,4.413,0.009,8.827,0.036,13.239
		c0.003,0.516,0.127,1.03,0.215,1.696c0.332-0.237,0.522-0.337,0.667-0.482c8.916-8.998,17.82-18.008,26.749-26.993
		c0.952-0.958,1.315-2.023,1.239-3.344c-0.066-1.164-0.566-2.01-1.573-2.528c-0.616-0.317-1.296-0.507-1.935-0.782
		c-0.46-0.197-0.959-0.37-1.336-0.682c-0.657-0.543-0.5-1.177,0.322-1.385c0.455-0.115,0.943-0.128,1.417-0.131
		c4.538-0.034,9.076-0.059,13.615-0.079c0.474-0.002,0.97-0.036,1.416,0.088c0.315,0.088,0.759,0.396,0.788,0.646
		c0.03,0.267-0.308,0.651-0.582,0.856c-0.292,0.219-0.688,0.32-1.052,0.419c-4.089,1.099-4.608,1.653-4.668,5.894
		c-0.127,9.047-0.198,18.095-0.229,27.143c-0.008,2.439,0.186,4.882,0.331,7.32c0.121,2.039,1.248,3.238,3.218,3.712
		c0.643,0.155,1.311,0.331,1.868,0.665c0.371,0.222,0.565,0.739,0.838,1.124c-0.385,0.232-0.745,0.549-1.163,0.674
		c-0.411,0.123-0.883,0.092-1.324,0.061c-4.635-0.324-9.261-0.176-13.886,0.2c-0.592,0.048-1.209-0.014-1.792-0.135
		c-0.255-0.053-0.608-0.363-0.637-0.593c-0.035-0.277,0.148-0.691,0.376-0.869c0.361-0.283,0.826-0.452,1.268-0.61
		c0.536-0.193,1.097-0.312,1.64-0.486c1.583-0.507,2.509-1.573,2.634-3.247c0.118-1.581,0.236-3.166,0.257-4.75
		c0.112-8.222,0.198-16.444,0.273-24.667C172.524,136.063,172.364,135.565,172.247,134.873z"/>
	<path fill-rule="evenodd" clip-rule="evenodd" d="M283.104,123.285c6.636,0,13.271,0.011,19.906-0.008
		c1.522-0.005,3.044-0.142,4.567-0.157c0.591-0.005,1.213,0.074,1.768,0.269c0.651,0.229,0.697,0.747,0.117,1.126
		c-0.442,0.288-0.963,0.475-1.47,0.645c-0.72,0.241-1.472,0.392-2.188,0.644c-1.381,0.487-2.234,1.413-2.287,2.946
		c-0.057,1.616-0.17,3.233-0.162,4.85c0.056,10.477,0.133,20.953,0.214,31.43c0.021,2.639,0.589,3.354,3.138,4.162
		c0.752,0.237,1.522,0.468,2.201,0.848c0.305,0.171,0.568,0.716,0.541,1.067c-0.018,0.216-0.6,0.466-0.963,0.556
		c-0.422,0.104-0.888,0.095-1.326,0.055c-4.638-0.42-9.262-0.054-13.887,0.2c-0.568,0.031-1.158,0.048-1.703-0.076
		c-0.342-0.078-0.831-0.4-0.87-0.669c-0.041-0.281,0.308-0.758,0.609-0.922c0.663-0.359,1.392-0.612,2.114-0.844
		c2.171-0.697,3.3-2.183,3.342-4.443c0.082-4.284,0.175-8.568,0.166-12.852c-0.017-7.968-0.103-15.936-0.161-23.903
		c-0.003-0.317-0.013-0.635-0.036-0.951c-0.057-0.738-0.371-1.122-1.203-1.126c-8.349-0.039-16.698-0.112-25.048-0.167
		c-1.552-0.011-1.972,0.347-1.997,1.957c-0.123,7.871-0.229,15.743-0.293,23.615c-0.031,3.936,0.039,7.873,0.071,11.81
		c0.005,0.634,0.019,1.271,0.079,1.902c0.172,1.826,1.047,3.171,2.785,3.865c0.853,0.341,1.754,0.568,2.582,0.957
		c0.354,0.166,0.575,0.611,0.856,0.931c-0.337,0.234-0.647,0.605-1.017,0.676c-0.675,0.129-1.383,0.102-2.078,0.102
		c-4.026,0-8.053-0.006-12.079-0.021c-1.202-0.005-2.407-0.014-3.604-0.099c-0.274-0.02-0.702-0.331-0.74-0.561
		c-0.041-0.253,0.215-0.694,0.464-0.829c0.604-0.327,1.265-0.575,1.928-0.767c3.147-0.908,3.663-1.565,3.907-4.847
		c0.834-11.155,0.733-22.332,0.763-33.506c0.001-0.571-0.029-1.143-0.056-1.713c-0.084-1.844-0.959-3.108-2.727-3.723
		c-0.777-0.271-1.578-0.499-2.311-0.86c-0.303-0.149-0.602-0.589-0.623-0.916c-0.014-0.19,0.496-0.529,0.817-0.605
		c0.548-0.13,1.133-0.139,1.702-0.14c8.063-0.008,16.127-0.005,24.19-0.005C283.104,123.22,283.104,123.253,283.104,123.285z"/>
	<path fill-rule="evenodd" clip-rule="evenodd" d="M109.771,144.547c0.558,0.318,0.894,0.532,1.248,0.707
		c2.33,1.154,4.448,2.589,6.042,4.682c4.24,5.573,2.882,13.832-2.919,18.066c-3.189,2.328-6.851,3.287-10.676,3.641
		c-2.457,0.228-4.944,0.167-7.417,0.158c-4.349-0.016-8.697-0.082-13.045-0.152c-0.658-0.011-1.341-0.067-1.964-0.26
		c-0.763-0.235-0.844-0.948-0.146-1.324c0.601-0.324,1.302-0.469,1.968-0.661c0.943-0.273,1.911-0.469,2.837-0.787
		c1.213-0.416,1.953-1.28,2.056-2.595c0.176-2.245,0.456-4.492,0.471-6.739c0.066-9.459,0.06-18.919,0.049-28.379
		c-0.001-0.943-0.182-1.891-0.333-2.828c-0.167-1.036-0.795-1.733-1.803-2c-1.04-0.274-2.107-0.439-3.154-0.691
		c-0.665-0.16-1.583-0.274-1.523-1.132c0.061-0.862,1.01-0.885,1.673-0.908c5.868-0.203,11.738-0.486,17.607-0.483
		c2.507,0.002,5.086,0.359,7.504,1.024c4.496,1.235,7.156,4.43,7.809,9.003c0.669,4.692-1.01,8.477-5.184,10.982
		C110.579,144.045,110.292,144.227,109.771,144.547z M94.542,156.495c-0.075,0.001-0.149,0.003-0.223,0.004
		c0.125,2.47,0.158,4.948,0.396,7.406c0.303,3.127,3.229,5.671,6.412,5.754c4.649,0.122,8.812-2.616,10.515-6.914
		c1.848-4.663,0.746-9.666-2.854-12.772c-3.642-3.143-8.008-3.362-12.483-2.94c-1.493,0.14-1.688,0.371-1.739,1.859
		C94.479,151.424,94.542,153.96,94.542,156.495z M94.395,135.645c0,2.985,0.015,5.332-0.008,7.68
		c-0.008,0.896,0.38,1.301,1.267,1.221c1.925-0.175,3.871-0.234,5.767-0.573c1.508-0.269,3.143-0.592,4.392-1.4
		c3.18-2.059,4.4-5.204,4.042-8.945c-0.328-3.423-1.973-5.996-5.153-7.419c-2.656-1.189-5.436-1.425-8.274-0.698
		c-1.033,0.265-1.595,0.943-1.649,2.028C94.631,130.45,94.501,133.365,94.395,135.645z"/>
	<path fill-rule="evenodd" clip-rule="evenodd" d="M391.558,146.355c0,5.745,0,11.491,0,17.236c0,0.032,0.002,0.063,0.003,0.095
		c0.107,3.956,0.678,4.689,4.486,5.845c0.541,0.164,1.104,0.343,1.568,0.648c0.67,0.442,0.583,1.078-0.174,1.331
		c-0.561,0.188-1.176,0.294-1.768,0.298c-1.109,0.006-2.219-0.135-3.328-0.131c-3.487,0.015-6.975,0.079-10.462,0.099
		c-0.978,0.006-1.965-0.018-2.929-0.155c-0.32-0.045-0.784-0.468-0.814-0.757c-0.029-0.286,0.34-0.739,0.648-0.907
		c0.518-0.282,1.121-0.421,1.699-0.577c2.998-0.809,4.183-2.043,4.281-5.125c0.211-6.534,0.328-13.072,0.363-19.609
		c0.029-5.205-0.117-10.411-0.193-15.617c-0.031-2.154-0.599-2.853-2.727-3.354c-0.895-0.21-1.821-0.308-2.688-0.596
		c-0.406-0.136-0.703-0.602-1.05-0.917c0.393-0.282,0.772-0.584,1.185-0.834c0.146-0.089,0.371-0.059,0.561-0.067
		c4.756-0.197,9.51-0.422,14.268-0.579c3.027-0.1,6.02,0.191,8.928,1.126c7.25,2.33,11.173,9.133,9.836,16.633
		c-1.172,6.58-7.07,11.264-12.958,11.674c-1.372,0.096-2.774-0.172-4.155-0.343c-0.419-0.053-0.865-0.273-1.193-0.545
		c-0.248-0.205-0.471-0.63-0.436-0.924c0.024-0.2,0.496-0.406,0.802-0.494c0.294-0.085,0.631-0.041,0.947-0.021
		c4.864,0.31,8.107-3.071,9.421-6.367c2.238-5.612,0.848-11.982-3.463-15.692c-2.127-1.83-4.615-2.745-7.399-2.869
		c-2.093-0.094-3.104,0.743-3.204,2.834c-0.129,2.662-0.146,5.33-0.165,7.996c-0.025,3.556-0.007,7.111-0.007,10.667
		C391.48,146.355,391.52,146.355,391.558,146.355z"/>
	<path fill-rule="evenodd" clip-rule="evenodd" d="M162.814,197.844c0-3.215,0-6.343,0-9.522c0.486,0,0.916,0,1.454,0
		c0,2.69,0,5.369,0,8.118c1.513,0,2.921,0,4.438,0c0-2.675,0-5.354,0-8.101c0.56,0,1.015,0,1.585,0c0,2.682,0,5.362,0,8.106
		c1.524,0,2.936,0,4.457,0c0-2.688,0-5.367,0-8.111c0.559,0,1.01,0,1.515,0c0,3.172,0,6.302,0,9.51
		C171.801,197.844,167.349,197.844,162.814,197.844z"/>
	<path fill-rule="evenodd" clip-rule="evenodd" d="M75.305,191.361c0,2.147,0,4.294,0,6.499c-0.495,0-0.921,0-1.414,0
		c0-3.183,0-6.334,0-9.499c0.987-0.269,1.662-0.097,2.172,0.896c0.777,1.511,1.716,2.939,2.663,4.532
		c0.918-1.549,1.829-2.952,2.598-4.429c0.51-0.979,1.157-1.341,2.257-0.991c0,3.131,0,6.284,0,9.494c-0.458,0-0.856,0-1.386,0
		c0-2.186,0-4.372,0-6.558c-0.073-0.019-0.146-0.036-0.22-0.055c-0.737,1.229-1.469,2.462-2.211,3.688
		c-0.58,0.958-1.438,0.95-2.033-0.02c-0.739-1.204-1.469-2.414-2.202-3.622C75.454,191.318,75.379,191.34,75.305,191.361z"/>
	<path fill-rule="evenodd" clip-rule="evenodd" d="M312.037,196.451c0.66,0.044,1.186,0.08,1.773,0.119c0,1.522,0,2.996,0,4.545
		c-0.451,0-0.902,0-1.475,0c0-1.034,0-2.063,0-3.206c-2.826,0-5.537,0-8.29,0c0-3.246,0-6.373,0-9.57c0.456,0,0.886,0,1.467,0
		c0,2.665,0,5.367,0,8.119c1.722,0,3.292,0,4.972,0c0-2.724,0-5.402,0-8.135c0.565,0,1.022,0,1.553,0
		C312.037,191.029,312.037,193.686,312.037,196.451z"/>
	<path fill-rule="evenodd" clip-rule="evenodd" d="M262.953,197.92c0-3.288,0-6.409,0-9.584c1.428,0,2.814-0.086,4.186,0.028
		c0.988,0.083,1.82,0.649,2.088,1.686c0.283,1.103-0.007,2.063-0.844,2.6c0.553,0.635,1.32,1.178,1.6,1.908
		c0.564,1.467-0.355,2.832-1.943,3.201c-0.368,0.086-0.75,0.148-1.126,0.154C265.622,197.932,264.33,197.92,262.953,197.92z
		 M264.535,196.588c0.961,0,1.846,0.069,2.715-0.021c0.762-0.079,1.269-0.571,1.282-1.396c0.013-0.818-0.454-1.336-1.226-1.442
		c-0.893-0.123-1.803-0.109-2.771-0.159C264.535,194.64,264.535,195.571,264.535,196.588z M264.51,192.398
		c1.13-0.116,2.337,0.426,3.023-0.738c0.224-0.379,0.156-1.205-0.121-1.552c-0.768-0.959-1.884-0.494-2.902-0.558
		C264.51,190.543,264.51,191.392,264.51,192.398z"/>
	<path fill-rule="evenodd" clip-rule="evenodd" d="M414.418,198.026c-2.887,0-5.085-2.119-5.09-4.907
		c-0.006-2.816,2.275-5.036,5.132-4.996c2.843,0.04,5.068,2.238,5.054,4.993C419.5,195.907,417.301,198.027,414.418,198.026z
		 M417.866,193.093c-0.008-1.928-1.524-3.484-3.412-3.504c-1.941-0.02-3.481,1.537-3.481,3.519c0.001,1.974,1.564,3.541,3.496,3.504
		C416.367,196.574,417.874,195.013,417.866,193.093z"/>
	<path fill-rule="evenodd" clip-rule="evenodd" d="M132.958,198.027c-2.873,0.02-5.112-2.092-5.158-4.865
		c-0.046-2.77,2.26-5.041,5.116-5.039c2.82,0.001,5.089,2.202,5.104,4.951C138.034,195.85,135.83,198.008,132.958,198.027z
		 M136.341,193.147c0.021-1.992-1.493-3.562-3.433-3.559c-1.895,0.002-3.419,1.534-3.449,3.464c-0.03,1.96,1.518,3.557,3.449,3.559
		C134.813,196.614,136.322,195.092,136.341,193.147z"/>
	<path fill-rule="evenodd" clip-rule="evenodd" d="M254.685,198.026c-2.886-0.017-5.045-2.144-5.033-4.954
		c0.012-2.787,2.227-4.946,5.075-4.949c2.877-0.003,5.097,2.203,5.075,5.041C259.781,195.961,257.59,198.043,254.685,198.026z
		 M251.287,193.132c0.016,1.94,1.518,3.469,3.424,3.48c1.92,0.012,3.502-1.603,3.475-3.545c-0.027-1.925-1.558-3.471-3.443-3.479
		C252.805,189.581,251.272,191.153,251.287,193.132z"/>
	<path fill-rule="evenodd" clip-rule="evenodd" d="M223.376,198.026c-2.881,0.007-5.099-2.115-5.114-4.893
		c-0.016-2.804,2.27-5.036,5.129-5.011c2.829,0.023,5.069,2.224,5.071,4.979C228.464,195.878,226.25,198.021,223.376,198.026z
		 M219.916,193.097c-0.003,1.973,1.553,3.543,3.485,3.515c1.899-0.028,3.406-1.579,3.405-3.508c0-1.931-1.507-3.488-3.398-3.515
		C221.472,189.562,219.919,191.122,219.916,193.097z"/>
	<path fill-rule="evenodd" clip-rule="evenodd" d="M184.456,198.027c-2.875-0.018-5.072-2.165-5.06-4.946
		c0.013-2.767,2.249-4.947,5.084-4.958c2.852-0.012,5.152,2.252,5.113,5.032C189.556,195.939,187.336,198.044,184.456,198.027z
		 M181.051,193.076c-0.011,1.979,1.526,3.549,3.462,3.535c1.896-0.013,3.417-1.562,3.428-3.487c0.01-1.929-1.491-3.498-3.38-3.535
		C182.625,189.552,181.062,191.104,181.051,193.076z"/>
	<path fill-rule="evenodd" clip-rule="evenodd" d="M388.99,197.917c0-3.259,0-6.387,0-9.555c1.449,0,2.868-0.088,4.271,0.03
		c0.954,0.08,1.712,0.655,1.993,1.664c0.316,1.138-0.057,2.039-0.969,2.685c0.513,0.398,1.115,0.689,1.455,1.166
		c1.064,1.497,0.176,3.429-1.713,3.861c-0.309,0.07-0.625,0.138-0.939,0.142C391.76,197.926,390.432,197.917,388.99,197.917z
		 M390.533,196.612c0.92,0,1.77,0.054,2.609-0.015c0.806-0.066,1.379-0.518,1.416-1.386c0.037-0.861-0.462-1.408-1.279-1.493
		c-0.893-0.092-1.801-0.021-2.746-0.021C390.533,194.652,390.533,195.56,390.533,196.612z M390.536,192.416
		c1.061-0.147,2.211,0.389,2.95-0.636c0.26-0.361,0.279-1.193,0.035-1.564c-0.729-1.106-1.908-0.596-2.985-0.66
		C390.536,190.509,390.536,191.356,390.536,192.416z"/>
	<path fill-rule="evenodd" clip-rule="evenodd" d="M287.233,188.315c0.487,0,0.917,0,1.458,0c0,2.113,0,4.182,0,6.009
		c1.646-1.522,3.377-3.086,5.047-4.712c0.236-0.23,0.18-0.764,0.277-1.248c0.398,0,0.854,0,1.393,0c0,3.118,0,6.266,0,9.492
		c-0.448,0-0.9,0-1.445,0c0-2.053,0-4.101,0-6.388c-0.355,0.316-0.557,0.474-0.732,0.654c-1.199,1.224-2.422,2.425-3.573,3.691
		c-0.493,0.542-0.833,1.223-1.241,1.84c0.066,0.068,0.133,0.137,0.199,0.205c-0.43,0-0.859,0-1.382,0
		C287.233,194.711,287.233,191.562,287.233,188.315z"/>
	<path fill-rule="evenodd" clip-rule="evenodd" d="M107.889,188.32c0.469,0,0.904,0,1.488,0c0,0.359,0,0.693,0,1.028
		c0,2.444,0,4.889,0,7.333c0,1.396-0.025,1.414-1.562,1.125c0-2.024,0-4.07,0-6.312c-1.056,1.048-1.969,1.948-2.874,2.854
		c-0.494,0.494-1.017,0.967-1.45,1.511c-0.441,0.556-0.787,1.187-1.175,1.784c0.067,0.069,0.134,0.139,0.201,0.209
		c-0.43,0-0.86,0-1.385,0c0-3.13,0-6.282,0-9.511c0.425,0,0.878,0,1.448,0c0,2.08,0,4.148,0,5.974
		c1.648-1.524,3.381-3.09,5.052-4.718C107.867,189.37,107.797,188.829,107.889,188.32z"/>
	<path fill-rule="evenodd" clip-rule="evenodd" d="M194.162,194.476c1.743-1.641,3.464-3.217,5.117-4.861
		c0.252-0.251,0.19-0.817,0.282-1.279c0.464,0,0.92,0,1.479,0c0,1.631,0,3.207,0,4.784c0,1.174,0,2.347,0,3.52
		c0,1.399,0,1.399-1.538,1.208c0-2.052,0-4.122,0-5.966c-1.669,1.547-3.417,3.131-5.106,4.775c-0.236,0.23-0.179,0.762-0.269,1.209
		c-0.422,0-0.852,0-1.357,0c0-3.165,0-6.315,0-9.531c0.433,0,0.862,0,1.393,0C194.162,190.381,194.162,192.456,194.162,194.476z"/>
	<path fill-rule="evenodd" clip-rule="evenodd" d="M363.549,188.271c1.249,0,2.324-0.012,3.397,0.003
		c1.211,0.017,2.333,0.337,2.807,1.558c0.451,1.16,0.156,2.229-0.741,2.816c0.556,0.638,1.29,1.164,1.572,1.87
		c0.596,1.487-0.326,2.991-1.992,3.222c-1.496,0.206-3.03,0.143-4.548,0.157c-0.163,0.002-0.472-0.267-0.474-0.412
		C363.543,194.452,363.549,191.418,363.549,188.271z M365.156,193.575c0,1.112,0,2.045,0,3.036c0.902,0,1.752,0.06,2.59-0.017
		c0.795-0.073,1.365-0.521,1.393-1.398c0.025-0.867-0.476-1.38-1.287-1.484C366.987,193.601,366.106,193.617,365.156,193.575z
		 M365.149,192.397c1.091-0.093,2.243,0.377,2.96-0.665c0.242-0.351,0.25-1.122,0.021-1.485c-0.714-1.132-1.9-0.613-2.98-0.711
		C365.149,190.504,365.149,191.378,365.149,192.397z"/>
	<path fill-rule="evenodd" clip-rule="evenodd" d="M119.519,189.602c0,0.95,0,1.79,0,2.798c0.581,0,1.166-0.019,1.75,0.006
		c0.6,0.024,1.215,0.015,1.792,0.152c1.441,0.345,2.072,1.222,2.029,2.678c-0.038,1.311-0.798,2.331-2.158,2.498
		c-1.621,0.198-3.269,0.177-4.98,0.255c0-3.309,0-6.453,0-9.659c2.138,0,4.246,0,6.433,0c0,0.39,0,0.774,0,1.272
		C122.777,189.602,121.177,189.602,119.519,189.602z M119.513,196.673c0.991-0.043,1.905-0.027,2.803-0.14
		c0.74-0.094,1.18-0.613,1.2-1.371c0.021-0.768-0.409-1.29-1.15-1.397c-0.921-0.134-1.859-0.145-2.853-0.213
		C119.513,194.639,119.513,195.572,119.513,196.673z"/>
	<path fill-rule="evenodd" clip-rule="evenodd" d="M378.93,197.856c0-3.207,0-6.335,0-9.525c2.314,0,4.584,0,6.931,0
		c0,0.396,0,0.781,0,1.287c-1.78,0-3.54,0-5.352,0c0,0.959,0,1.799,0,2.753c1.544,0,3.051,0,4.626,0c0,0.503,0,0.893,0,1.374
		c-1.537,0-3.049,0-4.619,0c0,0.932,0,1.774,0,2.742c1.773,0,3.532,0,5.355,0c0,0.516,0,0.909,0,1.369
		C383.576,197.856,381.306,197.856,378.93,197.856z"/>
	<path fill-rule="evenodd" clip-rule="evenodd" d="M323.582,188.324c0,0.441,0,0.808,0,1.282c-1.81,0-3.572,0-5.402,0
		c0,0.945,0,1.783,0,2.754c1.523,0,3.059,0,4.654,0c0,0.522,0,0.914,0,1.389c-1.559,0-3.07,0-4.652,0c0,0.919,0,1.758,0,2.74
		c1.782,0,3.568,0,5.39,0c0,0.538,0,0.933,0,1.38c-2.332,0-4.603,0-6.941,0c0-3.192,0-6.341,0-9.545
		C318.938,188.324,321.207,188.324,323.582,188.324z"/>
	<path fill-rule="evenodd" clip-rule="evenodd" d="M434.146,197.846c0-3.218,0-6.323,0-9.503c2.322,0,4.616,0,6.967,0
		c0,0.394,0,0.761,0,1.237c-1.768,0-3.529,0-5.375,0c0,0.966,0,1.826,0,2.798c1.527,0,3.035,0,4.611,0c0,0.498,0,0.887,0,1.373
		c-1.545,0-3.056,0-4.629,0c0,0.935,0,1.773,0,2.729c1.776,0,3.535,0,5.371,0c0,0.506,0,0.897,0,1.365
		C438.801,197.846,436.509,197.846,434.146,197.846z"/>
	<path fill-rule="evenodd" clip-rule="evenodd" d="M334.776,197.869c-0.479,0-0.906,0-1.438,0c0-1.362,0-2.676,0-4.046
		c-1.739,0-3.375,0-5.117,0c0,1.304,0,2.618,0,4.015c-0.555,0-1.005,0-1.523,0c0-3.161,0-6.31,0-9.515c0.466,0,0.896,0,1.441,0
		c0,1.311,0,2.624,0,4c1.775,0,3.437,0,5.182,0c0-1.351,0-2.639,0-3.99c0.51,0,0.939,0,1.456,0
		C334.776,191.46,334.776,194.61,334.776,197.869z"/>
	<path fill-rule="evenodd" clip-rule="evenodd" d="M430.584,197.888c-0.503,0-0.908,0-1.418,0c0-2.711,0-5.392,0-8.161
		c-1.695,0-3.29,0-4.984,0c0,2.69,0,5.371,0,8.122c-0.527,0-0.956,0-1.483,0c0-3.125,0-6.275,0-9.503c2.585,0,5.198,0,7.886,0
		C430.584,191.492,430.584,194.643,430.584,197.888z"/>
	<path fill-rule="evenodd" clip-rule="evenodd" d="M143.412,189.697c-0.083,1.38-0.087,2.712-0.264,4.021
		c-0.143,1.057-0.457,2.096-0.762,3.122c-0.295,0.994-0.995,1.312-2.08,0.957c1.874-2.917,1.336-6.217,1.517-9.463
		c2.35,0,4.652,0,7.044,0c0,3.14,0,6.313,0,9.518c-0.481,0-0.934,0-1.484,0c0-2.747,0-5.427,0-8.154
		C146,189.697,144.718,189.697,143.412,189.697z"/>
	<path fill-rule="evenodd" clip-rule="evenodd" d="M348.072,188.321c1.645,0,3.263-0.116,4.857,0.032
		c1.592,0.148,2.635,1.606,2.583,3.256c-0.052,1.686-1.132,2.965-2.755,3.112c-1.027,0.093-2.07,0.017-3.218,0.017
		c0,1.153,0,2.119,0,3.132c-0.544,0-0.972,0-1.468,0C348.072,194.701,348.072,191.576,348.072,188.321z M349.597,193.377
		c1.003,0,1.924,0.073,2.827-0.021c0.887-0.091,1.395-0.684,1.475-1.593c0.09-1.023-0.304-1.812-1.211-1.98
		c-0.996-0.186-2.033-0.15-3.091-0.214C349.597,190.939,349.597,192.102,349.597,193.377z"/>
	<path fill-rule="evenodd" clip-rule="evenodd" d="M399.316,188.321c1.64,0,3.258-0.116,4.85,0.032
		c1.586,0.147,2.636,1.612,2.588,3.256c-0.049,1.672-1.139,2.962-2.757,3.112c-1.001,0.093-2.019,0.017-3.179,0.017
		c0,1.115,0,2.102,0,3.133c-0.58,0-1.008,0-1.502,0C399.316,194.678,399.316,191.53,399.316,188.321z M400.869,193.406
		c0.891,0,1.711,0.038,2.527-0.01c1.077-0.062,1.697-0.713,1.755-1.741c0.06-1.079-0.505-1.858-1.6-1.985
		c-0.864-0.099-1.747-0.02-2.683-0.02C400.869,190.901,400.869,192.086,400.869,193.406z"/>
	<path fill-rule="evenodd" clip-rule="evenodd" d="M233.081,194.743c0,1.15,0,2.095,0,3.107c-0.492,0-0.92,0-1.435,0
		c0-3.13,0-6.279,0-9.436c1.693,0,3.44-0.18,5.131,0.052c1.581,0.217,2.393,1.739,2.232,3.479c-0.138,1.493-1.247,2.659-2.772,2.782
		C235.235,194.81,234.222,194.743,233.081,194.743z M233.147,189.626c0,1.312,0,2.5,0,3.789c0.831,0,1.615,0.027,2.396-0.006
		c1.18-0.051,1.874-0.725,1.919-1.808c0.044-1.065-0.626-1.86-1.769-1.962C234.882,189.568,234.059,189.626,233.147,189.626z"/>
	<path fill-rule="evenodd" clip-rule="evenodd" d="M71.339,197.832c-1.596,0.188-1.642,0.203-2.078-1.185
		c-0.231-0.737-0.59-1.027-1.358-0.94c-0.595,0.067-1.211,0.073-1.805,0c-0.934-0.115-1.43,0.182-1.692,1.143
		c-0.336,1.23-0.533,1.266-1.943,0.906c0.778-2.071,1.552-4.135,2.327-6.197c0.356-0.948,0.664-1.919,1.101-2.827
		c0.125-0.259,0.629-0.465,0.955-0.459c0.364,0.007,0.947,0.193,1.049,0.453C69.076,191.719,70.183,194.74,71.339,197.832z
		 M66.881,190.113c-0.593,1.581-1.099,2.928-1.627,4.335c1.153,0,2.146,0,3.251,0C67.972,193.025,67.471,191.688,66.881,190.113z"/>
	<path fill-rule="evenodd" clip-rule="evenodd" d="M88.642,192.425c1.025,0,1.938-0.044,2.847,0.009
		c2.121,0.121,3.187,1.483,2.729,3.427c-0.267,1.134-1.071,1.769-2.14,1.884c-1.476,0.158-2.973,0.138-4.461,0.153
		c-0.163,0.001-0.47-0.269-0.471-0.415c-0.028-3.037-0.021-6.074-0.021-9.162c0.539,0,0.97,0,1.518,0
		C88.642,189.646,88.642,190.96,88.642,192.425z M88.702,196.677c1.012-0.051,1.954-0.037,2.877-0.165
		c0.74-0.103,1.137-0.63,1.132-1.407c-0.004-0.743-0.407-1.23-1.099-1.331c-0.947-0.139-1.913-0.146-2.91-0.214
		C88.702,194.657,88.702,195.567,88.702,196.677z"/>
	<path fill-rule="evenodd" clip-rule="evenodd" d="M152.444,188.308c0.565,0,1,0,1.544,0c0,1.347,0,2.659,0,4.123
		c1.049,0,1.992-0.046,2.929,0.011c1.498,0.089,2.408,0.811,2.649,2.005c0.349,1.72-0.492,3.082-2.248,3.311
		c-1.434,0.187-2.901,0.134-4.354,0.138c-0.173,0-0.496-0.314-0.498-0.486C152.436,194.406,152.444,191.403,152.444,188.308z
		 M154.032,196.694c1.052-0.069,2.023-0.07,2.972-0.216c0.706-0.108,1.045-0.666,1.041-1.38c-0.004-0.686-0.37-1.194-1.021-1.298
		c-0.973-0.155-1.967-0.171-2.992-0.249C154.032,194.663,154.032,195.573,154.032,196.694z"/>
	<path fill-rule="evenodd" clip-rule="evenodd" d="M274.77,192.435c1.094,0,2.043-0.052,2.984,0.012
		c1.602,0.107,2.514,0.942,2.662,2.332c0.162,1.516-0.644,2.753-2.176,2.956c-1.59,0.21-3.211,0.178-4.91,0.256
		c0-3.29,0-6.438,0-9.654c0.449,0,0.902,0,1.439,0C274.77,189.659,274.77,190.948,274.77,192.435z M274.865,193.542
		c0,1.131,0,2.083,0,3.135c0.982-0.047,1.896-0.032,2.791-0.151c0.734-0.097,1.167-0.604,1.182-1.374
		c0.014-0.779-0.418-1.279-1.152-1.39C276.791,193.628,275.877,193.615,274.865,193.542z"/>
	<path fill-rule="evenodd" clip-rule="evenodd" d="M59.935,196.011c0.194,0.42,0.363,0.784,0.529,1.142
		c-2.078,1.455-5.402,1.113-6.996-0.689c-1.599-1.809-1.576-4.798,0.049-6.63c1.673-1.885,4.811-2.279,6.901-0.812
		c-0.184,0.371-0.374,0.753-0.559,1.124c-2.941-0.88-4.264-0.642-5.338,0.924c-0.845,1.232-0.816,2.992,0.067,4.191
		C55.667,196.721,57.097,196.934,59.935,196.011z"/>
	<path fill-rule="evenodd" clip-rule="evenodd" d="M213.467,197.872c-0.59,0-1.021,0-1.58,0c0-2.72,0-5.425,0-8.231
		c-1.122,0-2.122,0-3.187,0c0-0.492,0-0.882,0-1.321c2.648,0,5.259,0,7.926,0c0,0.416,0,0.78,0,1.275c-1.021,0-2.046,0-3.159,0
		C213.467,192.401,213.467,195.08,213.467,197.872z"/>
	<path fill-rule="evenodd" clip-rule="evenodd" d="M340.73,189.633c-1.164,0-2.166,0-3.232,0c0-0.485,0-0.875,0-1.313
		c2.646,0,5.258,0,7.922,0c0,0.415,0,0.78,0,1.275c-1.02,0-2.044,0-3.152,0c0,2.806,0,5.484,0,8.244c-0.536,0-0.986,0-1.537,0
		C340.73,195.15,340.73,192.473,340.73,189.633z"/>
	<path fill-rule="evenodd" clip-rule="evenodd" d="M243.561,197.881c-0.565,0-0.97,0-1.469,0c0-3.161,0-6.31,0-9.535
		c1.985,0,3.996,0,6.085,0c0,0.369,0,0.758,0,1.27c-1.524,0-3.027,0-4.617,0C243.561,192.417,243.561,195.099,243.561,197.881z"/>
	<path fill-rule="evenodd" clip-rule="evenodd" d="M96.1,188.326c0.458,0,0.915,0,1.473,0c0,1.858,0,3.66,0,5.462
		c0,1.175-0.023,2.35,0.009,3.523c0.018,0.646-0.38,0.606-0.811,0.613c-0.45,0.008-0.797-0.006-0.792-0.633
		c0.025-2.888,0.013-5.777,0.02-8.666C95.999,188.539,96.056,188.452,96.1,188.326z"/>
	<path fill-rule="evenodd" clip-rule="evenodd" d="M282.157,188.308c0.513,0,0.945,0,1.44,0c0,3.185,0,6.33,0,9.545
		c-0.471,0-0.922,0-1.44,0C282.157,194.683,282.157,191.542,282.157,188.308z"/>
	<path fill-rule="evenodd" clip-rule="evenodd" d="M293.212,184.339c-0.004,1.576-0.772,2.363-1.968,2.33
		c-1.163-0.032-1.885-0.813-1.86-2.327c0.399,0.299,0.729,0.441,0.899,0.692c0.54,0.798,1.48,0.798,2.023-0.001
		C292.477,184.783,292.807,184.641,293.212,184.339z"/>
	<path fill-rule="evenodd" clip-rule="evenodd" d="M103.408,184.442c0.251,0.173,0.582,0.291,0.738,0.526
		c0.581,0.871,1.484,0.889,2.049,0.041c0.162-0.243,0.508-0.364,0.918-0.643c-0.066,1.535-0.712,2.241-1.83,2.301
		C104.097,186.731,103.36,186.028,103.408,184.442z"/>
	<path fill-rule="evenodd" clip-rule="evenodd" d="M195.083,184.44c0.242,0.18,0.555,0.311,0.712,0.546
		c0.578,0.861,1.485,0.867,2.055,0.013c0.138-0.208,0.448-0.302,0.678-0.447c0.06,0.266,0.221,0.559,0.161,0.795
		c-0.224,0.871-1.117,1.41-2.054,1.312C195.551,186.546,194.975,185.899,195.083,184.44z"/>
</g>
</svg>
