<?xml version="1.0" encoding="utf-8"?>
<!-- Generator: Adobe Illustrator 16.0.3, SVG Export Plug-In . SVG Version: 6.00 Build 0)  -->
<!DOCTYPE svg PUBLIC "-//W3C//DTD SVG 1.1//EN" "http://www.w3.org/Graphics/SVG/1.1/DTD/svg11.dtd">
<svg version="1.1" id="Layer_1" xmlns="http://www.w3.org/2000/svg" xmlns:xlink="http://www.w3.org/1999/xlink" x="0px" y="0px"
	 width="500px" height="320px" viewBox="0 0 500 320" enable-background="new 0 0 500 320" xml:space="preserve">
<g>
	<path fill-rule="evenodd" clip-rule="evenodd" d="M112.021,170.866c0-7.946,0-15.891,0-23.839c0-7.961,0-15.924,0-24.156
		c4.867,0,9.396-0.035,13.926,0.055c0.421,0.01,0.988,0.732,1.195,1.244c0.21,0.519,0.06,1.184,0.06,1.785
		c0,22.246-0.052,44.491,0.065,66.736c0.014,2.707-0.813,3.394-3.358,3.232c-3.337-0.21-6.704-0.184-10.043-0.003
		c-2.081,0.112-3.272-0.632-4.354-2.374c-9.101-14.649-18.284-29.249-27.451-43.858c-0.428-0.682-0.912-1.329-1.752-2.54
		c-0.083,1.352-0.156,1.996-0.156,2.642c-0.005,14.43-0.057,28.859,0.052,43.289c0.019,2.339-0.719,2.933-2.938,2.841
		c-4.012-0.167-8.033-0.048-12.193-0.048c0-24.397,0-48.495,0-73.008c3.822,0,7.671,0.277,11.46-0.083
		c3.504-0.332,5.338,1.069,7.108,3.956c8.88,14.483,17.985,28.827,27.015,43.219c0.222,0.354,0.482,0.685,0.725,1.027
		C111.594,170.944,111.808,170.905,112.021,170.866z"/>
	<path fill-rule="evenodd" clip-rule="evenodd" d="M214.117,149.537c4.155-5.152,9.444-8.061,16.008-7.977
		c6.425,0.084,12.002,2.064,15.401,8.585c0.831-0.873,1.511-1.564,2.163-2.28c7.512-8.247,19.238-7.604,26.44-3.131
		c5.076,3.152,6.933,8.286,7.044,13.889c0.232,11.761,0.088,23.529,0.143,35.295c0.008,1.459-0.559,1.985-1.974,1.965
		c-3.52-0.046-7.042-0.08-10.562,0.015c-1.87,0.05-2.297-0.773-2.283-2.484c0.062-9.189,0.035-18.38,0.021-27.568
		c-0.002-1.545-0.033-3.094-0.155-4.634c-0.404-5.096-2.932-7.791-7.574-8.147c-5.361-0.412-9.187,2.074-10.209,6.945
		c-0.524,2.498-0.746,5.098-0.774,7.656c-0.092,8.587-0.088,17.177,0.005,25.764c0.022,1.946-0.602,2.559-2.509,2.48
		c-3.172-0.132-6.358-0.139-9.529,0c-2.032,0.088-2.681-0.602-2.659-2.649c0.092-9.447,0.047-18.896,0.032-28.342
		c-0.002-1.286-0.032-2.579-0.171-3.858c-0.528-4.89-2.343-7.111-6.348-7.874c-4.321-0.822-8.995,1.105-10.62,4.984
		c-1.027,2.458-1.541,5.289-1.601,7.968c-0.192,8.841-0.183,17.691-0.008,26.534c0.051,2.707-0.837,3.424-3.381,3.249
		c-2.991-0.207-6.01-0.118-9.013-0.023c-1.604,0.054-2.304-0.352-2.3-2.129c0.055-16.232,0.052-32.466,0.004-48.696
		c-0.006-1.595,0.524-2.108,2.08-2.064c3.091,0.09,6.187,0.117,9.274-0.007c1.949-0.081,2.647,0.658,2.466,2.548
		c-0.112,1.17-0.021,2.359-0.021,3.54C213.711,149.238,213.913,149.389,214.117,149.537z"/>
	<path fill-rule="evenodd" clip-rule="evenodd" d="M341.495,179.554c-2.879,8.224-7.461,14.18-15.492,16.32
		c-10.359,2.76-20.379,2.067-28.649-5.727c-6.918-6.52-8.67-14.999-7.859-24.093c1.675-18.785,21.405-30.118,38.453-22.007
		c9.696,4.615,13.475,13.224,14.495,23.335c0.562,5.577,0.449,5.589-5.177,5.589c-10.131,0-20.264,0.057-30.395-0.042
		c-2.341-0.023-2.995,0.649-2.594,2.99c0.893,5.178,3.774,8.877,8.172,9.856c5.82,1.299,11.214,0.655,15.104-4.379
		c1.106-1.431,2.095-1.925,3.771-1.873C334.561,179.627,337.803,179.554,341.495,179.554z M304.245,163.553
		c7.808,0,15.459,0,23.106,0c0.146-6.211-4.227-10.7-10.535-10.998C309.712,152.221,304.679,156.475,304.245,163.553z"/>
	<path fill-rule="evenodd" clip-rule="evenodd" d="M415.208,197.111c-15.766,0.713-27.768-10.52-27.588-27.724
		c0.177-16.828,10.917-27.845,27.444-27.869c16.763-0.025,27.684,11.129,27.768,28.115
		C442.915,186.503,430.809,197.856,415.208,197.111z M428.377,169.471c-0.487-2.714-0.765-5.726-1.595-8.575
		c-1.55-5.32-5.698-8.202-11.363-8.33c-5.62-0.128-9.831,2.656-11.692,7.884c-1.927,5.415-2.046,10.966-0.537,16.469
		c1.702,6.201,5.929,9.431,11.888,9.459c6.084,0.028,10.146-3.013,11.967-9.276C427.729,174.74,427.91,172.233,428.377,169.471z"/>
	<path fill-rule="evenodd" clip-rule="evenodd" d="M174.436,189.049c-2.742,3.885-6.358,6.61-10.967,7.547
		c-5.19,1.054-10.437,1.048-15.395-1.202c-5.277-2.397-7.718-6.912-8.499-12.371c-0.445-3.131-0.565-6.327-0.59-9.496
		c-0.075-9.186,0.036-18.374-0.073-27.56c-0.027-2.203,0.515-3.116,2.857-2.977c2.995,0.18,6.015,0.179,9.009,0
		c2.223-0.132,2.959,0.489,2.921,2.835c-0.141,9.099-0.093,18.201-0.028,27.304c0.014,1.954,0.162,3.962,0.629,5.851
		c1.165,4.714,3.644,6.701,8.07,6.825c5.769,0.165,9.457-1.864,10.735-6.431c0.752-2.686,1.083-5.562,1.129-8.359
		c0.139-8.498,0.103-17,0.01-25.501c-0.021-1.928,0.586-2.579,2.496-2.513c3.345,0.117,6.698,0.114,10.042,0.002
		c1.839-0.061,2.321,0.638,2.315,2.403c-0.058,15.97-0.057,31.941-0.002,47.91c0.008,1.819-0.398,2.681-2.412,2.593
		c-3.086-0.136-6.184-0.107-9.271-0.012c-1.751,0.056-2.548-0.493-2.384-2.344c0.125-1.42,0.025-2.858,0.025-4.289
		C174.849,189.193,174.643,189.122,174.436,189.049z"/>
	<path fill-rule="evenodd" clip-rule="evenodd" d="M384.488,155.39c-1.081-0.061-1.751-0.073-2.417-0.137
		c-10.649-1.014-16.797,4.168-17.173,14.874c-0.26,7.464-0.082,14.942-0.097,22.414c-0.007,3.329-0.004,3.331-3.378,3.331
		c-3.007,0.001-6.013-0.053-9.019,0.019c-1.63,0.04-2.282-0.524-2.277-2.234c0.046-16.147,0.047-32.293-0.002-48.439
		c-0.006-1.735,0.669-2.242,2.286-2.205c3.176,0.075,6.355,0.077,9.533,0c1.553-0.038,2.164,0.516,2.097,2.091
		c-0.093,2.187-0.023,4.381,0.481,6.729c0.457-0.661,0.901-1.332,1.375-1.982c3.771-5.188,8.862-7.957,15.268-8.309
		c2.252-0.123,3.534,0.541,3.372,3.21C384.33,148.229,384.488,151.73,384.488,155.39z"/>
	<path fill-rule="evenodd" clip-rule="evenodd" d="M308.239,136.432c3.368-4.939,6.226-9.19,9.178-13.374
		c0.308-0.437,1.17-0.667,1.779-0.675c4.631-0.055,9.264-0.029,14.627-0.029c-1.375,1.283-2.313,2.174-3.268,3.045
		c-3.359,3.073-6.79,6.073-10.059,9.24c-1.418,1.373-2.895,1.938-4.832,1.824C313.464,136.335,311.253,136.432,308.239,136.432z"/>
</g>
</svg>
