<?xml version="1.0" encoding="utf-8"?>
<!-- Generator: Adobe Illustrator 16.0.3, SVG Export Plug-In . SVG Version: 6.00 Build 0)  -->
<!DOCTYPE svg PUBLIC "-//W3C//DTD SVG 1.1//EN" "http://www.w3.org/Graphics/SVG/1.1/DTD/svg11.dtd">
<svg version="1.1" xmlns="http://www.w3.org/2000/svg" xmlns:xlink="http://www.w3.org/1999/xlink" x="0px" y="0px" width="1000px"
	 height="300px" viewBox="0 0 1000 300" enable-background="new 0 0 1000 300" xml:space="preserve">
<g id="BG">
</g>
<g id="Layer_1">
	<g>
		<path d="M0,55.444V2.48h196.26v52.964h-66.936v179.04H66.938V55.444H0z"/>
		<path d="M333.389,215.152c-15.598,16.137-37.477,24.204-65.637,24.204c-27.727,0-49.281-7.851-64.662-23.556
			c-15.381-15.706-23.07-37.743-23.07-66.127c0-28.81,7.853-51.174,23.559-67.097c15.703-15.924,37.527-23.883,65.475-23.883
			c27.725,0,49.281,7.851,64.66,23.561c15.381,15.701,23.07,37.743,23.07,66.122C356.783,176.752,348.984,199.012,333.389,215.152z
			 M247.119,182.494c5.09,6.713,12.186,10.076,21.283,10.076c9.095,0,16.191-3.363,21.281-10.076
			c5.092-6.712,7.637-17.872,7.637-33.469s-2.545-26.752-7.637-33.465c-5.09-6.717-12.186-10.075-21.281-10.075
			c-9.098,0-16.193,3.358-21.283,10.075c-5.092,6.713-7.637,17.868-7.637,33.465S242.027,175.782,247.119,182.494z"/>
		<path d="M500.734,215.315c-12.133,16.245-28.703,24.367-49.715,24.367c-21.879,0-38.723-7.687-50.527-23.07
			c-11.805-15.38-17.709-37.041-17.709-64.989c0-14.727,1.68-27.885,5.035-39.479c3.359-11.586,8.179-21.335,14.459-29.24
			c6.283-7.909,13.811-13.92,22.584-18.035c8.773-4.116,18.576-6.174,29.406-6.174c19.064,0,34.01,6.718,44.842,20.144V2.48h58.812
			v232.004h-57.188V215.315z M497.322,127.582c-1.191-5.199-2.871-9.315-5.037-12.348c-2.6-3.685-5.793-6.228-9.584-7.638
			c-3.793-1.409-7.639-2.111-11.535-2.111c-8.666,0-15.652,3.249-20.959,9.749s-7.961,17.759-7.961,33.791
			c0,15.814,2.6,26.97,7.799,33.469c5.199,6.5,12.129,9.75,20.797,9.75c4.115,0,8.014-0.762,11.695-2.275
			c3.684-1.514,6.934-4.333,9.748-8.448c4.551-6.5,6.824-16.354,6.824-29.571v-4.873
			C499.109,139.275,498.514,132.78,497.322,127.582z"/>
		<path d="M693.75,215.964c-6.93,7.365-14.459,13.05-22.582,17.057c-8.125,4.007-17.818,6.01-29.082,6.01
			c-7.582,0-14.84-0.97-21.77-2.919c-6.934-1.949-13.051-5.04-18.359-9.265s-9.533-9.527-12.674-15.919
			c-3.141-6.391-4.711-14.137-4.711-23.234c0-10.397,2.111-19.118,6.336-26.157c4.225-7.04,10.02-12.778,17.385-17.22
			c7.363-4.442,16.031-7.692,25.996-9.75c9.963-2.058,20.686-3.413,32.168-4.062l25.668-1.301v-6.821
			c0-8.449-2.059-14.301-6.174-17.546c-4.115-3.25-9.314-4.877-15.596-4.877c-13.432,0-21.121,5.634-23.07,16.897l-52.963-4.225
			c3.031-18.194,11.154-31.737,24.369-40.617c13.213-8.879,31.301-13.321,54.262-13.321c14.299,0,26.268,1.677,35.906,5.036
			c9.641,3.358,17.385,8.072,23.232,14.137c5.85,6.065,10.074,13.376,12.674,21.93c2.6,8.558,3.9,18.144,3.9,28.759v105.929H693.75
			V215.964z M672.953,163.326c-12.346,0.648-20.74,2.706-25.18,6.174c-4.443,3.463-6.662,8.014-6.662,13.643
			c0,5.635,1.678,9.642,5.037,12.025c3.355,2.38,8.068,3.576,14.135,3.576c9.098,0,16.625-2.547,22.582-7.642
			c5.957-5.086,8.936-12.724,8.936-22.904v-5.852L672.953,163.326z"/>
		<path d="M858.172,159.102l29.893-95.208h61.09l-68.238,171.238c-4.549,11.269-8.826,20.851-12.834,28.756
			c-4.008,7.909-8.502,14.354-13.484,19.336c-4.984,4.986-10.615,8.612-16.898,10.888c-6.281,2.275-13.971,3.408-23.068,3.408
			c-6.932,0-13.701-0.594-20.309-1.786c-6.607-1.191-12.727-2.655-18.359-4.387l8.773-42.566c3.031,0.648,6.281,1.246,9.748,1.79
			c3.467,0.54,6.715,0.812,9.748,0.812c5.416,0,10.127-1.355,14.133-4.065c4.01-2.702,7.312-7.851,9.912-15.43l3.574-10.397
			L761.99,63.894h63.688L858.172,159.102z"/>
		<path d="M939.732,189.534c1.613-3.943,3.822-7.289,6.625-10.045s6.127-4.868,9.973-6.346c3.848-1.469,8.004-2.203,12.469-2.203
			c4.463,0,8.596,0.734,12.396,2.203c3.797,1.478,7.1,3.612,9.898,6.414c2.803,2.806,4.988,6.15,6.557,10.049
			c1.566,3.889,2.35,8.259,2.35,13.104c0,4.846-0.807,9.242-2.422,13.182c-1.615,3.938-3.82,7.288-6.625,10.044
			c-2.803,2.756-6.125,4.868-9.971,6.341c-3.85,1.469-8.006,2.208-12.471,2.208c-4.461,0-8.619-0.739-12.467-2.208
			c-3.846-1.473-7.148-3.585-9.9-6.341c-2.754-2.756-4.916-6.078-6.482-9.977c-1.568-3.894-2.354-8.263-2.354-13.104
			C937.309,197.91,938.119,193.478,939.732,189.534z M952.199,220.311c3.941,4.129,9.426,6.196,16.455,6.196
			c6.936,0,12.395-2.044,16.387-6.128c3.988-4.084,5.984-9.977,5.984-17.669c0-7.791-2.021-13.702-6.057-17.736
			c-4.037-4.038-9.475-6.056-16.314-6.056c-6.934,0-12.395,2.04-16.385,6.129c-3.988,4.079-5.982,9.972-5.982,17.663
			C946.287,210.312,948.256,216.177,952.199,220.311z M977.488,205.562l5.842,12.111h-9.973l-4.416-9.832h-4.277v9.832h-8.975
			v-30.632h13.109c4.559,0,7.836,0.879,9.83,2.634c1.994,1.758,2.992,4.251,2.992,7.479
			C981.621,200.856,980.242,203.662,977.488,205.562z M968.229,200.856c1.613,0,2.73-0.309,3.348-0.925s0.928-1.45,0.928-2.493
			c0-1.042-0.334-1.849-1-2.42c-0.664-0.571-1.896-0.856-3.703-0.856h-3.137v6.694H968.229z"/>
	</g>
</g>
</svg>
