<?xml version="1.0" encoding="utf-8"?>
<!-- Generator: Adobe Illustrator 16.0.3, SVG Export Plug-In . SVG Version: 6.00 Build 0)  -->
<!DOCTYPE svg PUBLIC "-//W3C//DTD SVG 1.1//EN" "http://www.w3.org/Graphics/SVG/1.1/DTD/svg11.dtd">
<svg version="1.1" id="Layer_1" xmlns="http://www.w3.org/2000/svg" xmlns:xlink="http://www.w3.org/1999/xlink" x="0px" y="0px"
	 width="500px" height="320px" viewBox="0 0 500 320" enable-background="new 0 0 500 320" xml:space="preserve">
<g>
	<path fill-rule="evenodd" clip-rule="evenodd" d="M324.288,171.972c-5.658,5.774-13.129,6.519-18.716,2.213
		c-2.665-2.057-4.096-4.887-4.829-8.102c-1.229-5.396-0.983-10.65,1.858-15.541c3.238-5.575,10.089-8.14,16.069-5.818
		c1.959,0.761,3.594,2.349,5.432,3.595c0.013-0.19,0.068-0.779,0.086-1.369c0.02-0.64,0.005-1.281,0.005-2.003
		c2.921,0,5.639,0,8.466,0c0.061,0.402,0.17,0.794,0.171,1.187c0.008,9.875,0.058,19.749-0.015,29.623
		c-0.05,6.881-3.037,11.428-8.674,13.361c-4.372,1.499-8.914,1.838-13.35,0.624c-2.327-0.636-4.562-1.968-6.547-3.395
		c-1.992-1.431-2.841-3.737-3.068-6.51c2.873,0,5.688-0.023,8.501,0.038c0.263,0.005,0.583,0.507,0.762,0.84
		c1.582,2.938,4.098,4.039,8.011,3.474c2.876-0.416,5.021-2.451,5.476-5.548C324.226,176.604,324.165,174.514,324.288,171.972z
		 M324.438,160.857c-0.441-2.117-0.623-3.784-1.148-5.334c-1.054-3.114-3.325-4.627-6.612-4.676
		c-3.233-0.047-5.506,1.453-6.687,4.568c-1.273,3.354-1.151,6.752,0.068,10.088c0.979,2.671,2.852,4.337,5.791,4.537
		c3.059,0.21,5.588-0.9,6.94-3.671C323.674,164.562,323.976,162.472,324.438,160.857z"/>
	<path fill-rule="evenodd" clip-rule="evenodd" d="M187.565,144.949c2.844,0,5.562,0,8.48,0c0,1.238,0,2.393,0,3.714
		c1.357-1.134,2.418-2.26,3.69-3.039c5.03-3.081,12.779-1.767,16.844,2.751c5.801,6.45,5.86,19.225,0.235,25.841
		c-5.009,5.892-15.068,6.145-19.674,0.273c-0.098-0.124-0.252-0.203-0.586-0.464c0,5.204,0,10.22,0,15.357c-3.059,0-5.944,0-8.99,0
		C187.565,174.646,187.565,159.875,187.565,144.949z M212.303,161.159c-0.637-2.132-1.07-4.551-2.075-6.703
		c-1.279-2.745-3.794-3.766-6.797-3.597c-2.829,0.159-4.894,1.53-5.977,4.091c-1.791,4.235-1.843,8.582-0.021,12.815
		c1.258,2.922,3.719,4.247,6.857,4.177c3.076-0.069,5.422-1.49,6.494-4.409C211.489,165.613,211.756,163.534,212.303,161.159z"/>
	<path fill-rule="evenodd" clip-rule="evenodd" d="M55.954,177.851c-2.489,0-5.154,0.035-7.817-0.042
		c-0.364-0.012-0.844-0.521-1.035-0.917c-0.273-0.562-0.328-1.23-0.5-1.954c-4.666,3.759-9.816,4.684-15.372,3.2
		c-4.318-1.152-6.685-4.314-6.814-8.704c-0.143-4.919,1.711-8.054,6.253-9.377c3.394-0.989,6.985-1.298,10.484-1.928
		c0.874-0.157,1.758-0.319,2.6-0.592c1.618-0.524,2.636-1.514,2.539-3.393c-0.104-1.979-0.88-3.388-2.716-3.681
		c-1.84-0.292-3.8-0.34-5.628-0.033c-2.271,0.382-3.187,2.272-3.537,4.462c-2.967,0-5.856,0-8.907,0
		c0.143-3.833,1.746-6.8,5.022-8.473c2.172-1.108,4.673-2.023,7.066-2.136c3.692-0.174,7.51,0.001,11.11,0.781
		c4.652,1.005,6.647,4.024,6.694,8.821c0.052,5.172-0.044,10.346,0.037,15.518C55.476,172.118,55.759,174.828,55.954,177.851z
		 M46.447,162.045c-1.475,0.395-2.65,0.767-3.851,1.015c-1.216,0.251-2.481,0.282-3.682,0.589c-1.247,0.316-2.559,0.656-3.637,1.319
		c-2.287,1.405-2.519,4.99-0.568,6.604c3.359,2.78,10.093,0.783,11.146-3.44C46.333,166.218,46.26,164.165,46.447,162.045z"/>
	<path fill-rule="evenodd" clip-rule="evenodd" d="M369.258,167.678c-1.461,6.103-6.063,10-12.775,10.979
		c-8.15,1.189-15.582-3.013-18.183-10.28c-3.023-8.443-0.181-17.768,6.694-21.964c10.348-6.315,22.854-0.513,24.697,11.488
		c0.273,1.792,0.311,3.62,0.475,5.645c-8.145,0-15.971,0-23.781,0c-0.231,3.834,1.512,6.782,4.522,7.855
		c3.704,1.321,7.942,0.166,10.035-2.604c0.411-0.545,1.249-1.024,1.921-1.069C364.933,167.591,367.018,167.678,369.258,167.678z
		 M360.728,157.703c-0.262-4.405-2.862-6.899-7.062-6.856c-4.318,0.044-7.1,2.625-7.306,6.856
		C351.15,157.703,355.937,157.703,360.728,157.703z"/>
	<path fill-rule="evenodd" clip-rule="evenodd" d="M124.934,163.601c-8.188,0-16.006,0-23.814,0c-0.093,4.1,1.633,6.881,4.769,7.892
		c3.779,1.217,7.8,0.011,9.925-2.912c0.297-0.407,0.87-0.843,1.33-0.861c2.252-0.088,4.509-0.04,6.986-0.04
		c-0.939,2.999-2.383,5.436-4.553,7.46c-5.87,5.48-20.368,5.534-25.632-4.702c-4.716-9.169-1.275-20.851,7.432-24.875
		c10.345-4.78,21.24,0.979,23.039,12.218C124.703,159.581,124.746,161.421,124.934,163.601z M115.464,157.693
		c-0.222-4.365-2.864-6.894-7.057-6.847c-4.315,0.048-7.132,2.673-7.273,6.847C105.911,157.693,110.686,157.693,115.464,157.693z"/>
	<path fill-rule="evenodd" clip-rule="evenodd" d="M264.568,177.739c0-10.98,0-21.787,0-32.734c2.805,0,5.557,0,8.542,0
		c0,1.331,0,2.659,0,4.307c0.455-0.392,0.645-0.505,0.767-0.669c4.39-5.824,12.164-5.347,16.341-3.279
		c2.985,1.479,4.292,4.179,4.834,7.288c0.265,1.515,0.383,3.072,0.392,4.611c0.035,6.663,0.007,13.324-0.005,19.987
		c0,0.11-0.06,0.221-0.131,0.469c-2.836,0-5.712,0-8.864,0c0-0.675,0.007-1.361-0.001-2.048c-0.07-6.303,0.001-12.611-0.268-18.905
		c-0.16-3.77-1.925-5.398-5.178-5.615c-3.728-0.249-6.175,1.434-6.933,4.964c-0.322,1.497-0.418,3.062-0.435,4.599
		c-0.053,4.997-0.02,9.994-0.021,14.991c0,0.64,0,1.277,0,2.034C270.532,177.739,267.646,177.739,264.568,177.739z"/>
	<path fill-rule="evenodd" clip-rule="evenodd" d="M153.081,167.228c2.698,0,5.406,0,8.108,0c1.762,4.748,5.383,6.583,9.995,5.086
		c1.919-0.623,3.166-2.023,3.164-3.659c-0.003-1.881-1.338-2.768-2.849-3.232c-2.83-0.871-5.725-1.532-8.582-2.319
		c-1.313-0.361-2.64-0.726-3.895-1.245c-2.908-1.206-5.104-3.083-5.342-6.488c-0.273-3.91,0.909-7.181,4.457-9.236
		c3.481-2.016,7.353-2.443,11.223-2.048c2.667,0.273,5.419,0.881,7.855,1.963c3.413,1.515,4.925,4.602,5.227,8.39
		c-2.833,0-5.555,0-8.281,0c-1.3-4.471-4.379-4.75-8.849-4.123c-1.362,0.191-2.472,0.958-2.624,2.508
		c-0.146,1.45,0.673,2.49,1.904,2.916c2.291,0.792,4.663,1.345,7.002,1.997c1.941,0.541,3.949,0.915,5.813,1.651
		c6.78,2.674,8.167,10.805,2.741,15.753c-2.485,2.266-5.554,3.09-8.8,3.455c-4.21,0.472-8.321,0.16-12.199-1.661
		C155.129,175.045,152.746,171.203,153.081,167.228z"/>
	<path fill-rule="evenodd" clip-rule="evenodd" d="M58.342,177.766c3.537-5.185,6.845-10.031,10.151-14.88
		c1.696-2.486,1.695-2.486,0.005-4.921c-2.643-3.807-5.286-7.613-7.925-11.423c-0.326-0.473-0.618-0.97-1.095-1.726
		c3.41,0,6.534-0.042,9.656,0.048c0.442,0.012,0.974,0.587,1.282,1.029c1.663,2.383,3.268,4.808,5.068,7.479
		c1.645-2.459,3.25-4.712,4.686-7.068c0.712-1.168,1.524-1.59,2.879-1.532c2.59,0.111,5.188,0.032,8.093,0.032
		c-0.522,0.801-0.852,1.338-1.213,1.853c-2.865,4.086-5.706,8.191-8.629,12.237c-0.695,0.961-0.766,1.606-0.037,2.624
		c3.388,4.736,6.674,9.545,9.991,14.33c0.362,0.524,0.701,1.065,1.251,1.909c-3.455,0-6.626,0.042-9.792-0.052
		c-0.423-0.012-0.915-0.659-1.225-1.115c-2.028-2.99-4.015-6.009-6.125-9.185c-2.119,3.188-4.149,6.179-6.1,9.222
		c-0.542,0.848-1.137,1.188-2.15,1.164C64.325,177.723,61.534,177.766,58.342,177.766z"/>
	<path fill-rule="evenodd" clip-rule="evenodd" d="M129.534,132.396c3.013,0,5.849,0,8.806,0c0,15.134,0,30.187,0,45.353
		c-2.944,0-5.822,0-8.806,0C129.534,162.646,129.534,147.585,129.534,132.396z"/>
	<path fill-rule="evenodd" clip-rule="evenodd" d="M396.095,153.337c-1.417-0.072-2.654-0.219-3.885-0.18
		c-5.021,0.156-8.017,2.973-8.202,7.99c-0.178,4.81-0.081,9.63-0.104,14.446c-0.003,0.643-0.001,1.283-0.001,2.042
		c-3.048,0-5.936,0-8.974,0c0-10.867,0-21.759,0-32.775c2.752,0,5.461,0,8.438,0c0,1.771,0,3.557,0,5.643
		c4.143-4.869,8.002-6.5,12.638-5.473c0.029,0.489,0.083,1.008,0.086,1.529C396.101,148.808,396.095,151.055,396.095,153.337z"/>
	<path fill-rule="evenodd" clip-rule="evenodd" d="M245.938,144.931c0,2.888,0,5.602,0,8.376c-1.114,0-2.154,0.01-3.197-0.001
		c-5.337-0.058-8.376,2.441-8.736,7.733c-0.314,4.614-0.161,9.261-0.209,13.894c-0.011,0.883-0.003,1.765-0.003,2.786
		c-3.015,0-5.896,0-8.906,0c0-10.855,0-21.751,0-32.751c2.777,0,5.53,0,8.457,0c0,1.867,0,3.667,0,5.985
		C236.349,145.829,240.676,144.585,245.938,144.931z"/>
	<path fill-rule="evenodd" clip-rule="evenodd" d="M259.23,177.767c-2.976,0-5.863,0-8.858,0c0-10.956,0-21.814,0-32.782
		c2.951,0,5.837,0,8.858,0C259.23,155.832,259.23,166.683,259.23,177.767z"/>
	<path fill-rule="evenodd" clip-rule="evenodd" d="M259.27,132.459c0.032,0.509,0.087,0.969,0.089,1.429
		c0.01,1.886,0.005,3.773,0.005,5.775c-3.048,0-5.928,0-8.952,0c0-2.375,0-4.715,0-7.205
		C253.332,132.459,256.249,132.459,259.27,132.459z"/>
	<path d="M474.408,145.507h-34.56v-34.56h34.56V145.507z M441.845,143.511h30.567v-30.568h-30.567V143.511z"/>
	<path d="M474.408,178.123h-34.56v-34.559h34.56V178.123z M441.845,176.127h30.567V145.56h-30.567V176.127z"/>
	<g>
		<rect x="408.283" y="144.562" fill-rule="evenodd" clip-rule="evenodd" width="32.563" height="32.563"/>
		<path d="M441.845,178.123h-34.56v-34.559h34.56V178.123z M409.281,176.127h30.567V145.56h-30.567V176.127z"/>
	</g>
	<path d="M441.845,210.686h-34.56v-34.559h34.56V210.686z M409.281,208.69h30.567v-30.567h-30.567V208.69z"/>
</g>
</svg>
