<?xml version="1.0" encoding="utf-8"?>
<!-- Generator: Adobe Illustrator 16.0.3, SVG Export Plug-In . SVG Version: 6.00 Build 0)  -->
<!DOCTYPE svg PUBLIC "-//W3C//DTD SVG 1.1//EN" "http://www.w3.org/Graphics/SVG/1.1/DTD/svg11.dtd">
<svg version="1.1" id="Layer_1" xmlns="http://www.w3.org/2000/svg" xmlns:xlink="http://www.w3.org/1999/xlink" x="0px" y="0px"
	 width="500px" height="320px" viewBox="0 0 500 320" enable-background="new 0 0 500 320" xml:space="preserve">
<g>
	<path fill-rule="evenodd" clip-rule="evenodd" d="M106.6,202.218c0-28.352,0-56.578,0-84.968c0.368,0.244,0.648,0.409,0.906,0.603
		c7.756,5.857,15.506,11.724,23.273,17.565c0.56,0.42,0.751,0.867,0.749,1.547c-0.016,21.304-0.014,42.608-0.016,63.913
		c0,1.341-0.003,1.343-1.358,1.343c-7.423,0-14.846-0.001-22.268-0.002C107.483,202.218,107.08,202.218,106.6,202.218z"/>
	<path fill-rule="evenodd" clip-rule="evenodd" d="M136.496,202.215c0-15.598,0-31.071,0-46.705
		c0.336,0.186,0.576,0.285,0.775,0.436c7.699,5.811,15.385,11.64,23.104,17.424c0.803,0.604,1.1,1.228,1.095,2.225
		c-0.038,8.483-0.036,16.968,0,25.452c0.005,0.969-0.304,1.197-1.23,1.193c-7.557-0.037-15.113-0.023-22.67-0.025
		C137.236,202.215,136.901,202.215,136.496,202.215z"/>
	<path fill-rule="evenodd" clip-rule="evenodd" d="M224.76,174.365c-1.097,3.05-2.102,5.854-3.113,8.655
		c-2.189,6.069-4.395,12.134-6.562,18.212c-0.246,0.692-0.576,0.98-1.328,0.943c-1.234-0.061-2.479-0.087-3.708,0.007
		c-1.011,0.077-1.437-0.312-1.732-1.251c-1.301-4.123-2.672-8.223-4.021-12.33c-0.588-1.784-1.188-3.565-1.892-5.684
		c-0.306,0.687-0.522,1.078-0.66,1.494c-1.843,5.571-3.691,11.141-5.492,16.728c-0.257,0.794-0.612,1.088-1.451,1.04
		c-1.302-0.075-2.613-0.064-3.915-0.003c-0.752,0.036-1.084-0.253-1.329-0.939c-2.388-6.691-4.806-13.371-7.215-20.055
		c-0.606-1.68-1.217-3.354-1.814-5.035c-0.192-0.538-0.353-1.088-0.571-1.765c2.025,0,3.91-0.044,5.787,0.044
		c0.298,0.014,0.697,0.576,0.83,0.961c1.617,4.742,3.193,9.5,4.779,14.254c0.337,1.009,0.666,2.021,1.015,3.025
		c0.104,0.302,0.269,0.581,0.534,1.145c0.634-1.885,1.169-3.467,1.698-5.05c1.497-4.49,3.004-8.979,4.473-13.479
		c0.234-0.717,0.611-0.957,1.342-0.927c1.234,0.051,2.476,0.062,3.709-0.003c0.82-0.044,1.207,0.217,1.472,1.025
		c1.815,5.577,3.687,11.138,5.543,16.701c0.158,0.473,0.337,0.938,0.619,1.724c0.305-0.676,0.51-1.042,0.641-1.436
		c1.898-5.659,3.802-11.317,5.659-16.99c0.243-0.746,0.566-1.054,1.364-1.028C221.129,174.401,222.84,174.365,224.76,174.365z"/>
	<path fill-rule="evenodd" clip-rule="evenodd" d="M331.599,145.819c-2.587,3.886-5.174,7.771-7.868,11.822
		c-2.686-4.03-5.259-7.894-7.832-11.757c-0.088,0.011-0.175,0.022-0.262,0.033c-0.047,0.439-0.133,0.878-0.134,1.317
		c-0.004,5.118-0.023,10.235,0.036,15.352c0.012,1.059-0.312,1.398-1.341,1.321c-1.024-0.077-2.063-0.062-3.089,0.001
		c-0.893,0.056-1.183-0.241-1.177-1.16c0.037-6.01,0.019-12.02,0.019-18.03c0-2.812,0-5.625,0-8.617
		c1.582,0,3.086,0.095,4.573-0.028c1.328-0.11,2.108,0.33,2.791,1.497c1.871,3.197,3.881,6.314,5.838,9.46
		c0.14,0.224,0.307,0.43,0.573,0.801c0.424-0.63,0.793-1.145,1.127-1.68c1.924-3.087,3.855-6.171,5.75-9.277
		c0.343-0.56,0.705-0.815,1.389-0.791c1.544,0.055,3.091,0.046,4.636,0c0.763-0.023,0.9,0.319,0.898,0.988
		c-0.017,8.621-0.019,17.241,0,25.861c0.001,0.699-0.196,0.994-0.928,0.968c-1.2-0.041-2.407-0.054-3.605,0.006
		c-0.848,0.041-1.04-0.325-1.038-1.094c0.023-5.22,0.013-10.44,0.013-15.66c0-0.399,0-0.799,0-1.198
		C331.844,145.909,331.721,145.864,331.599,145.819z"/>
	<path fill-rule="evenodd" clip-rule="evenodd" d="M387.367,146.796c-0.03,0.392-0.085,0.785-0.085,1.177
		c-0.006,4.705,0,9.41-0.005,14.115c-0.001,2.025,0.145,1.784-1.851,1.801c-0.894,0.007-1.792-0.062-2.68,0.015
		c-0.98,0.085-1.284-0.242-1.278-1.251c0.04-7.521,0.021-15.042,0.02-22.563c0-1.268,0-2.536,0-3.957
		c1.813,0,3.549-0.046,5.279,0.042c0.324,0.017,0.665,0.544,0.923,0.892c3.859,5.213,7.703,10.436,11.556,15.653
		c0.232,0.313,0.497,0.603,0.996,0.823c0.023-0.352,0.063-0.704,0.064-1.056c0.005-5.083,0.027-10.165-0.013-15.248
		c-0.008-0.924,0.284-1.204,1.179-1.154c1.199,0.066,2.406,0.066,3.604-0.002c0.863-0.05,1.102,0.241,1.098,1.096
		c-0.035,6.56-0.021,13.119-0.022,19.679c0,2.026-0.022,4.054,0.015,6.079c0.015,0.705-0.199,0.993-0.928,0.963
		c-1.063-0.043-2.135-0.077-3.192,0.012c-0.965,0.08-1.575-0.254-2.151-1.029c-3.707-4.985-7.46-9.937-11.202-14.896
		c-0.338-0.446-0.71-0.865-1.065-1.295C387.542,146.725,387.454,146.761,387.367,146.796z"/>
	<path fill-rule="evenodd" clip-rule="evenodd" d="M427.402,188.197c-0.001-4.188,0.026-8.377-0.021-12.563
		c-0.011-0.989,0.285-1.301,1.281-1.283c3.741,0.065,7.496-0.149,11.222,0.103c8.598,0.584,14.031,7.544,12.977,15.758
		c-0.854,6.657-6.353,11.594-13.656,11.913c-3.633,0.16-7.276,0.009-10.915,0.053c-0.899,0.012-0.893-0.477-0.892-1.107
		C427.406,196.779,427.403,192.488,427.402,188.197z M433.262,188.302c-0.004,0-0.007,0-0.011,0c0,2.474-0.002,4.946,0.003,7.42
		c0.001,0.557-0.044,1.169,0.792,1.146c1.919-0.053,3.856,0.036,5.753-0.207c4.052-0.518,6.834-3.733,6.971-7.817
		c0.155-4.618-2.281-8.141-6.435-8.899c-1.901-0.349-3.897-0.143-5.843-0.287c-1.003-0.073-1.246,0.35-1.238,1.228
		C433.276,183.355,433.262,185.829,433.262,188.302z"/>
	<path fill-rule="evenodd" clip-rule="evenodd" d="M281.911,136.105c0,3.281-0.002,6.369,0,9.457
		c0.003,1.621,0.006,1.622,1.65,1.622c2.954,0,5.908-0.027,8.861,0.016c0.865,0.012,1.111-0.277,1.1-1.129
		c-0.045-3.258-0.018-6.518-0.018-9.952c1.904,0,3.742-0.013,5.58,0.025c0.15,0.003,0.36,0.344,0.425,0.563
		c0.074,0.253,0.021,0.545,0.021,0.82c0.001,8.276,0.001,16.554,0.001,24.831c0.001,1.536,0.001,1.535-1.58,1.533
		c-1.438-0.001-2.875,0-4.452,0c0-0.703,0-1.344,0-1.982c0-2.713-0.026-5.427,0.014-8.14c0.013-0.781-0.173-1.109-1.019-1.098
		c-3.192,0.039-6.389,0.033-9.581,0.004c-0.712-0.006-0.964,0.216-0.96,0.941c0.014,3.021-0.054,6.043-0.021,9.064
		c0.011,0.936-0.268,1.285-1.227,1.231c-1.267-0.073-2.541-0.039-3.812-0.01c-0.631,0.014-0.93-0.157-0.927-0.864
		c0.018-8.688,0.005-17.378,0.036-26.067c0.001-0.289,0.357-0.819,0.563-0.827C278.31,136.076,280.053,136.105,281.911,136.105z"/>
	<path fill-rule="evenodd" clip-rule="evenodd" d="M369.35,202.001c-0.017-0.318-0.045-0.624-0.045-0.928
		c-0.003-8.591,0.003-17.18-0.014-25.77c-0.002-0.69,0.086-1.073,0.927-1.069c6.392,0.028,12.782,0.018,19.172,0.024
		c0.199,0,0.396,0.056,0.648,0.096c0,1.676,0,3.312,0,5.07c-0.403,0.023-0.802,0.066-1.198,0.067
		c-4.123,0.005-8.246,0.03-12.368-0.016c-0.994-0.01-1.349,0.307-1.287,1.296c0.07,1.13,0.077,2.271,0,3.399
		c-0.071,1.033,0.277,1.383,1.332,1.366c3.469-0.054,6.94,0.014,10.41-0.039c1.003-0.015,1.456,0.218,1.341,1.31
		c-0.095,0.882-0.075,1.789-0.003,2.676c0.073,0.944-0.264,1.251-1.216,1.238c-3.401-0.051-6.803-0.026-10.204-0.023
		c-1.642,0.001-1.643,0.009-1.644,1.645c-0.001,1.1,0.049,2.202-0.014,3.299c-0.053,0.928,0.249,1.26,1.219,1.249
		c4.191-0.045,8.385,0.021,12.575-0.042c1.078-0.017,1.378,0.325,1.298,1.345c-0.084,1.06,0.026,2.132-0.052,3.192
		c-0.021,0.268-0.433,0.726-0.668,0.727c-6.631,0.032-13.261,0.019-19.891,0.009C369.605,202.121,369.543,202.076,369.35,202.001z"
		/>
	<path fill-rule="evenodd" clip-rule="evenodd" d="M101.498,120.848c0.031,0.632,0.065,1.026,0.066,1.421
		c0.003,26.18,0.003,52.36,0.003,78.539c0,1.412,0,1.412-1.381,1.414c-1.156,0-2.313,0-3.538,0c-0.025-0.47-0.061-0.805-0.061-1.139
		c-0.004-25.217-0.01-50.435,0.021-75.653c0-0.458,0.301-1.054,0.656-1.35C98.571,122.994,99.959,122.007,101.498,120.848z"/>
	<path fill-rule="evenodd" clip-rule="evenodd" d="M315.208,196.891c0,1.828,0,3.469,0,5.189c-6.963,0-13.88,0-20.95,0
		c0-0.439,0-0.837,0-1.234c-0.001-8.42,0.011-16.838-0.022-25.257c-0.004-0.93,0.238-1.242,1.2-1.236
		c6.185,0.037,12.37,0.03,18.555,0.006c0.785-0.003,1.128,0.2,1.073,1.04c-0.064,0.959-0.076,1.928,0.001,2.884
		c0.078,0.98-0.253,1.307-1.255,1.295c-4.054-0.049-8.109-0.021-12.163-0.02c-1.446,0-1.449,0.003-1.451,1.405
		c-0.002,1.168,0.05,2.339-0.014,3.505c-0.047,0.848,0.312,1.064,1.085,1.06c3.539-0.024,7.078-0.014,10.617-0.013
		c1.35,0,1.352,0.004,1.356,1.379c0.002,0.824-0.055,1.653,0.012,2.473c0.08,1.008-0.24,1.379-1.317,1.359
		c-3.469-0.066-6.94,0.007-10.411-0.043c-1.013-0.015-1.432,0.259-1.349,1.334c0.091,1.161,0.016,2.336,0.021,3.503
		c0.007,1.37,0.01,1.371,1.335,1.371c4.158,0,8.315,0,12.474,0C314.373,196.891,314.743,196.891,315.208,196.891z"/>
	<path fill-rule="evenodd" clip-rule="evenodd" d="M430.789,147.653c-0.635-1.007-1.287-1.858-1.748-2.801
		c-1.645-3.368-0.062-7.415,3.447-8.757c3.987-1.525,8.706,0.408,9.62,4.818c0.59,2.843-0.382,5.226-2.656,7.004
		c-0.694,0.542-0.765,0.887-0.177,1.525c0.972,1.054,1.873,2.172,2.925,3.404c0.998-1.15,1.906-2.197,2.893-3.335
		c1.255,1.335,2.465,2.62,3.73,3.966c-0.909,1.039-1.731,2.046-2.631,2.981c-0.503,0.525-0.437,0.882,0.018,1.381
		c1.525,1.674,3.016,3.379,4.516,5.075c0.221,0.249,0.424,0.512,0.786,0.951c-2.348,0-4.493,0.072-6.626-0.057
		c-0.459-0.028-0.913-0.749-1.304-1.209c-1.337-1.576-1.303-1.555-2.915-0.409c-3.357,2.388-6.93,3.16-10.715,1.081
		c-5.559-3.051-6.671-10.602-0.524-14.791C429.849,148.194,430.298,147.95,430.789,147.653z M434.916,159.595
		c1.159-0.033,2.337-0.936,3.438-2.021c0.495-0.489,0.509-0.871,0.04-1.394c-0.917-1.022-1.79-2.085-2.661-3.147
		c-1.641-2.001-1.753-2.015-3.719-0.275c-0.076,0.068-0.161,0.129-0.233,0.202c-1.256,1.256-1.62,2.705-1.036,4.125
		C431.364,158.594,432.84,159.596,434.916,159.595z M435.504,140.27c-1.229,0.015-2.109,0.87-2.099,2.042
		c0.007,0.785,1.213,2.68,1.813,2.85c0.521,0.148,1.783-0.927,2.227-1.901C438.122,141.781,437.128,140.25,435.504,140.27z"/>
	<path fill-rule="evenodd" clip-rule="evenodd" d="M214.248,145.543c0-2.817,0.022-5.635-0.015-8.452
		c-0.01-0.761,0.221-1.04,1-1.005c1.234,0.055,2.478,0.065,3.709-0.009c0.924-0.056,1.242,0.199,1.231,1.185
		c-0.052,4.775-0.093,9.553,0.018,14.326c0.034,1.47,0.337,3.024,0.912,4.371c0.945,2.216,3.236,3.177,6.067,2.915
		c2.438-0.226,4.243-1.625,4.898-3.912c0.242-0.847,0.398-1.749,0.404-2.626c0.041-5.05,0.043-10.101,0.008-15.151
		c-0.007-0.873,0.278-1.137,1.117-1.102c1.338,0.055,2.68,0.037,4.02,0.007c0.636-0.015,0.929,0.153,0.918,0.863
		c-0.087,5.7-0.029,11.404-0.241,17.099c-0.203,5.462-3.944,9.43-9.357,10.105c-1.684,0.21-3.433,0.212-5.119,0.017
		c-5.607-0.646-9.259-4.616-9.484-10.283c-0.11-2.778-0.019-5.564-0.019-8.346C214.293,145.543,214.271,145.543,214.248,145.543z"/>
	<path fill-rule="evenodd" clip-rule="evenodd" d="M286.944,202.147c-2.345,0-4.501,0.04-6.653-0.039
		c-0.37-0.013-0.807-0.467-1.068-0.821c-2.509-3.394-4.985-6.812-7.476-10.219c-0.176-0.241-0.383-0.459-0.707-0.843
		c-1.111,1.188-2.178,2.282-3.179,3.435c-0.188,0.215-0.162,0.651-0.164,0.986c-0.012,2.096-0.055,4.192,0.021,6.285
		c0.037,1.023-0.321,1.311-1.294,1.245c-1.162-0.079-2.337-0.074-3.501-0.005c-0.842,0.051-1.116-0.177-1.111-1.066
		c0.036-8.071,0.021-16.143,0.021-24.214c0-2.52-0.001-2.52,2.507-2.52c0.548,0,1.098-0.001,1.647-0.001
		c1.702,0,1.707,0,1.707,1.751c0.003,3.024-0.003,6.046,0.003,9.069c0,0.357,0.052,0.717,0.105,1.415
		c1.272-1.334,2.339-2.426,3.378-3.544c2.476-2.666,4.92-5.36,7.428-7.995c0.351-0.37,0.978-0.645,1.487-0.665
		c1.985-0.075,3.974-0.031,6.233-0.031c-0.351,0.404-0.543,0.645-0.757,0.867c-3.157,3.296-6.28,6.627-9.504,9.858
		c-0.85,0.853-0.713,1.387-0.088,2.221c3.562,4.75,7.081,9.532,10.616,14.304C286.676,201.729,286.744,201.845,286.944,202.147z"/>
	<path fill-rule="evenodd" clip-rule="evenodd" d="M254.458,202.146c-1.997,0-3.871,0.028-5.742-0.034
		c-0.242-0.008-0.558-0.449-0.689-0.754c-0.644-1.48-1.262-2.971-1.833-4.48c-0.25-0.664-0.59-0.962-1.343-0.953
		c-3.437,0.04-6.872,0.036-10.308,0.009c-0.614-0.005-0.934,0.201-1.15,0.766c-0.594,1.537-1.252,3.05-1.845,4.588
		c-0.239,0.626-0.576,0.916-1.288,0.894c-1.636-0.051-3.272-0.017-5.108-0.017c0.934-2.237,1.775-4.286,2.644-6.326
		c2.86-6.729,5.749-13.445,8.575-20.188c0.401-0.957,0.859-1.417,1.949-1.306c1.088,0.112,2.199,0.078,3.295,0.009
		c0.815-0.051,1.234,0.241,1.551,0.992c2.163,5.161,4.367,10.305,6.556,15.455c1.478,3.476,2.951,6.95,4.424,10.428
		C254.246,201.47,254.315,201.726,254.458,202.146z M235.914,190.527c2.65,0,5.078,0,7.693,0c-1.286-3.124-2.496-6.066-3.707-9.008
		c-0.105,0.016-0.212,0.032-0.318,0.048C238.381,184.502,237.18,187.437,235.914,190.527z"/>
	<path fill-rule="evenodd" clip-rule="evenodd" d="M374.142,163.885c-1.986,0-3.834,0.027-5.679-0.031
		c-0.256-0.008-0.605-0.389-0.73-0.675c-0.648-1.477-1.261-2.969-1.835-4.475c-0.277-0.723-0.644-1.078-1.498-1.064
		c-3.33,0.052-6.661,0.045-9.991,0.003c-0.79-0.01-1.167,0.287-1.433,0.996c-0.577,1.541-1.204,3.064-1.864,4.572
		c-0.123,0.281-0.486,0.639-0.749,0.647c-1.777,0.057-3.56,0.029-5.498,0.029c0.19-0.501,0.319-0.878,0.475-1.242
		c3.642-8.555,7.292-17.104,10.913-25.667c0.268-0.632,0.58-0.917,1.28-0.895c1.337,0.044,2.678,0.041,4.017,0
		c0.614-0.018,0.916,0.226,1.151,0.777c2.592,6.128,5.207,12.249,7.816,18.37c1.062,2.493,2.125,4.985,3.183,7.48
		C373.844,163.051,373.96,163.4,374.142,163.885z M363.272,152.309c-1.285-3.132-2.477-6.039-3.669-8.945
		c-0.116-0.006-0.231-0.013-0.349-0.02c-1.205,2.948-2.411,5.895-3.668,8.965C358.258,152.309,360.636,152.309,363.272,152.309z"/>
	<path fill-rule="evenodd" clip-rule="evenodd" d="M91.524,202.179c-1.638,0-3.174,0-4.834,0c-0.025-0.386-0.069-0.747-0.069-1.108
		c-0.004-22.671,0-45.341-0.016-68.011c0-0.684,0.184-1.147,0.751-1.551c1.362-0.969,2.683-1.997,4.168-3.112
		C91.524,153.081,91.524,177.572,91.524,202.179z"/>
	<path fill-rule="evenodd" clip-rule="evenodd" d="M245.413,159.942c1.199-1.424,2.302-2.735,3.475-4.129
		c0.633,0.423,1.243,0.843,1.866,1.245c2.159,1.392,4.496,2.262,7.092,2.019c0.917-0.086,1.911-0.396,2.671-0.901
		c1.434-0.953,1.349-3.048-0.174-3.856c-1.317-0.699-2.787-1.117-4.203-1.621c-1.903-0.676-3.892-1.158-5.712-2.005
		c-3.191-1.487-4.085-4.105-3.876-7.392c0.337-5.316,4.978-7.472,8.469-7.658c3.777-0.201,7.292,0.532,10.489,2.642
		c0.779,0.515,1.037,0.911,0.365,1.742c-0.876,1.084-1.618,2.276-2.367,3.349c-1.529-0.717-2.924-1.453-4.381-2.031
		c-1.416-0.561-2.906-0.788-4.437-0.39c-1.283,0.335-2.168,1.176-2.281,2.225c-0.124,1.146,0.391,2.18,1.69,2.667
		c2.211,0.828,4.515,1.41,6.733,2.218c1.31,0.477,2.656,1.021,3.775,1.828c4.054,2.927,3.674,9.807-0.652,12.637
		c-2.359,1.542-5.009,1.974-7.778,1.778c-3.611-0.256-6.921-1.356-9.814-3.583C246.067,160.499,245.789,160.253,245.413,159.942z"/>
	<path fill-rule="evenodd" clip-rule="evenodd" d="M81.601,202.179c-1.693,0-3.267,0-4.957,0c-0.021-0.401-0.055-0.765-0.055-1.129
		c-0.002-19.984,0.006-39.972-0.021-59.958c-0.001-1.022,0.234-1.713,1.136-2.296c1.31-0.846,2.511-1.858,3.896-2.905
		C81.601,158.089,81.601,180.076,81.601,202.179z"/>
	<path fill-rule="evenodd" clip-rule="evenodd" d="M205.973,139.678c-1.196,1.428-2.401,2.866-3.667,4.378
		c-2.355-2.335-5.073-3.426-8.34-2.879c-2.101,0.352-3.777,1.42-5.096,3.05c-2.805,3.468-2.476,9.112,0.714,12.272
		c1.872,1.857,4.172,2.59,6.771,2.381c2.552-0.206,4.622-1.388,6.314-3.388c1.33,1.357,2.591,2.646,3.854,3.934
		c-5.025,6.026-14.971,6.755-21.104,1.267c-6.199-5.546-6.239-15.474-0.181-21.19C191.24,133.84,201.579,134.739,205.973,139.678z"
		/>
	<path fill-rule="evenodd" clip-rule="evenodd" d="M330.051,202.15c-1.829,0-3.571,0.028-5.312-0.038
		c-0.187-0.008-0.498-0.563-0.503-0.868c-0.04-2.712-0.023-5.427-0.024-8.14c0-5.84,0.02-11.679-0.02-17.519
		c-0.007-0.937,0.247-1.239,1.207-1.235c6.285,0.039,12.572,0.039,18.856-0.001c0.936-0.006,1.186,0.295,1.14,1.182
		c-0.068,1.329-0.018,2.666-0.018,4.161c-0.5,0-0.898,0-1.297,0c-4.225,0-8.449,0.034-12.674-0.022
		c-1.064-0.014-1.386,0.329-1.319,1.357c0.081,1.231,0.068,2.474,0,3.708c-0.049,0.905,0.265,1.195,1.168,1.185
		c3.606-0.039,7.215,0.022,10.82-0.038c1.021-0.018,1.313,0.316,1.239,1.284c-0.077,0.99-0.083,1.997,0,2.986
		c0.078,0.951-0.313,1.142-1.179,1.133c-3.571-0.041-7.146,0.021-10.717-0.037c-1.05-0.018-1.359,0.309-1.335,1.349
		c0.066,2.746,0.025,5.494,0.021,8.242C330.105,201.241,330.072,201.643,330.051,202.15z"/>
	<path fill-rule="evenodd" clip-rule="evenodd" d="M399.793,188.296c0.001-4.226,0.027-8.45-0.019-12.675
		c-0.013-1.004,0.319-1.331,1.302-1.269c1.163,0.073,2.338,0.078,3.501,0c0.948-0.064,1.144,0.318,1.14,1.188
		c-0.032,6.492-0.017,12.983-0.024,19.475c-0.003,1.824-0.014,1.823,1.854,1.822c3.642-0.003,7.282,0.022,10.923-0.02
		c0.899-0.01,1.237,0.269,1.183,1.178c-0.064,1.062-0.038,2.13-0.008,3.194c0.019,0.672-0.167,0.985-0.925,0.982
		c-6.011-0.025-12.021-0.031-18.033,0.001c-0.887,0.005-0.9-0.465-0.899-1.102C399.796,196.814,399.793,192.555,399.793,188.296z"/>
	<path fill-rule="evenodd" clip-rule="evenodd" d="M71.633,202.218c-1.475,0-2.848-0.016-4.218,0.007
		c-0.568,0.01-0.817-0.197-0.792-0.778c0.027-0.616,0.001-1.235,0.001-1.854c0-11.887,0.009-23.772-0.021-35.659
		c-0.002-0.927,0.278-1.51,1.047-2.031c1.327-0.898,2.573-1.915,3.983-2.98C71.633,173.419,71.633,187.752,71.633,202.218z"/>
	<path fill-rule="evenodd" clip-rule="evenodd" d="M61.681,166.434c0,0.973,0,1.681,0,2.388c0,10.711-0.017,21.423,0.032,32.134
		c0.004,1.1-0.339,1.362-1.341,1.276c-0.92-0.081-1.854-0.053-2.779,0c-0.737,0.04-0.996-0.271-0.938-0.961
		c0.019-0.238,0-0.48,0-0.72c0.001-9.819-0.001-19.639,0.013-29.456c0-0.35,0.062-0.839,0.289-1.022
		C58.434,168.874,59.965,167.741,61.681,166.434z"/>
	<path fill-rule="evenodd" clip-rule="evenodd" d="M359.858,202.106c-1.91,0-3.782,0-5.757,0c-0.026-0.44-0.07-0.838-0.071-1.237
		c-0.004-8.408,0.011-16.819-0.021-25.229c-0.003-0.955,0.203-1.365,1.248-1.29c1.299,0.094,2.608,0.03,3.912,0.017
		c0.529-0.006,0.817,0.131,0.816,0.752c-0.02,8.89-0.021,17.779-0.028,26.669C359.956,201.854,359.919,201.918,359.858,202.106z"/>
	<path fill-rule="evenodd" clip-rule="evenodd" d="M51.71,173.98c0,0.929,0,1.603,0,2.276c-0.001,8.236-0.018,16.472,0.017,24.709
		c0.003,0.961-0.206,1.372-1.245,1.269c-0.951-0.094-1.922-0.055-2.88-0.004c-0.721,0.037-0.955-0.224-0.946-0.941
		c0.033-2.538,0.013-5.078,0.013-7.618c0-4.977,0.012-9.951-0.013-14.928c-0.004-0.686,0.194-1.15,0.757-1.554
		C48.794,176.203,50.137,175.161,51.71,173.98z"/>
</g>
</svg>
