<?xml version="1.0" encoding="utf-8"?>
<!-- Generator: Adobe Illustrator 16.0.3, SVG Export Plug-In . SVG Version: 6.00 Build 0)  -->
<!DOCTYPE svg PUBLIC "-//W3C//DTD SVG 1.1//EN" "http://www.w3.org/Graphics/SVG/1.1/DTD/svg11.dtd">
<svg version="1.1" id="Layer_1" xmlns="http://www.w3.org/2000/svg" xmlns:xlink="http://www.w3.org/1999/xlink" x="0px" y="0px"
	 width="45.533px" height="13.389px" viewBox="0 0 45.533 13.389" enable-background="new 0 0 45.533 13.389" xml:space="preserve">
<g>
	<polygon points="5.162,11.322 1.726,0.355 0,0.355 0,13.027 1.179,13.027 1.179,2.447 4.529,13.027 5.693,13.027 9.049,2.447 
		9.049,13.027 10.312,13.027 10.312,0.355 8.597,0.355 	"/>
	<path d="M43.085,6.508V6.332c0,0,1.996-0.359,1.996-2.713C45.081,1.533,43.547,0,40.737,0c-2.628,0-4.343,1.895-4.343,4.162h1.359
		c0-1.631,0.998-2.984,2.983-2.984c1.992,0,2.985,0.992,2.985,2.441c0,1.625-1.179,2.354-2.985,2.354h-1.63v1.082h1.726
		c1.711,0,3.346,0.547,3.346,2.438c0,1.459-0.902,2.717-3.346,2.717c-2.447,0-3.35-1.539-3.35-2.982h-1.359
		c0,2.352,1.715,4.162,4.709,4.162c3.16,0,4.7-1.811,4.7-3.896C45.533,6.779,43.085,6.508,43.085,6.508z"/>
	<polygon points="28.111,3.025 27.221,2.133 23.223,6.128 19.229,2.131 18.344,3.025 22.332,7.018 18.334,11.014 19.229,11.898 
		21.016,10.113 21.02,10.117 23.224,7.911 27.217,11.908 28.109,11.018 24.114,7.02 24.877,6.256 	"/>
</g>
</svg>
