<?xml version="1.0" encoding="utf-8"?>
<!-- Generator: Adobe Illustrator 16.0.3, SVG Export Plug-In . SVG Version: 6.00 Build 0)  -->
<!DOCTYPE svg PUBLIC "-//W3C//DTD SVG 1.1//EN" "http://www.w3.org/Graphics/SVG/1.1/DTD/svg11.dtd">
<svg version="1.1" id="Layer_1" xmlns="http://www.w3.org/2000/svg" xmlns:xlink="http://www.w3.org/1999/xlink" x="0px" y="0px"
	 width="240px" height="360px" viewBox="0 0 240 360" enable-background="new 0 0 240 360" xml:space="preserve">
<rect fill="#A27A46" width="240" height="360"/>
<g>
	<text transform="matrix(1 0 0 1 18.4697 130.748)"><tspan x="0" y="0" fill="#FFFFFF" font-family="'AktivGrotesk-Bold'" font-size="13.1122">Ма</tspan><tspan x="18.396" y="0" fill="#FFFFFF" font-family="'AktivGrotesk-Bold'" font-size="13.1122">с</tspan><tspan x="25.463" y="0" fill="#FFFFFF" font-family="'AktivGrotesk-Bold'" font-size="13.1122">т</tspan><tspan x="31.901" y="0" fill="#FFFFFF" font-family="'AktivGrotesk-Bold'" font-size="13.1122">ер</tspan><tspan x="47.53" y="0" fill="#FFFFFF" font-family="'AktivGrotesk-Bold'" font-size="13.1122">к</tspan><tspan x="55.254" y="0" fill="#FFFFFF" font-family="'AktivGrotesk-Bold'" font-size="13.1122">лассы </tspan><tspan x="97.972" y="0" fill="#FFFFFF" font-family="'AktivGrotesk-Bold'" font-size="13.1122">и</tspan><tspan x="105.485" y="0" fill="#FFFFFF" font-family="'AktivGrotesk-Bold'" font-size="13.1122"> </tspan><tspan x="108.277" y="0" fill="#FFFFFF" font-family="'AktivGrotesk-Bold'" font-size="13.1122">во</tspan><tspan x="123.54" y="0" fill="#FFFFFF" font-family="'AktivGrotesk-Bold'" font-size="13.1122">рк</tspan><tspan x="138.776" y="0" fill="#FFFFFF" font-family="'AktivGrotesk-Bold'" font-size="13.1122">ш</tspan><tspan x="149.659" y="0" fill="#FFFFFF" font-family="'AktivGrotesk-Bold'" font-size="13.1122">о</tspan><tspan x="157.618" y="0" fill="#FFFFFF" font-family="'AktivGrotesk-Bold'" font-size="13.1122">п</tspan><tspan x="165.302" y="0" fill="#FFFFFF" font-family="'AktivGrotesk-Bold'" font-size="13.1122">ы</tspan><tspan x="175.595" y="0" fill="#FFFFFF" font-family="'AktivGrotesk-Bold'" font-size="13.1122">:</tspan></text>
	<text transform="matrix(1 0 0 1 18.4697 162.2178)"><tspan x="0" y="0" fill="#FFFFFF" font-family="'AktivGrotesk-Light'" font-size="13.1122">36,7% – общеобразова</tspan><tspan x="141.387" y="0" fill="#FFFFFF" font-family="'AktivGrotesk-Light'" font-size="13.1122">т</tspan><tspan x="147.051" y="0" fill="#FFFFFF" font-family="'AktivGrotesk-Light'" font-size="13.1122">е</tspan><tspan x="154.065" y="0" fill="#FFFFFF" font-family="'AktivGrotesk-Light'" font-size="13.1122">льные </tspan></text>
	<text transform="matrix(1 0 0 1 18.4697 177.9521)" fill="#FFFFFF" font-family="'AktivGrotesk-Light'" font-size="13.1122">30,3% – личностный рост</text>
	<text transform="matrix(1 0 0 1 18.4697 193.6865)" fill="#FFFFFF" font-family="'AktivGrotesk-Light'" font-size="13.1122">30,0% – творческие</text>
	<text transform="matrix(1 0 0 1 18.4697 209.4219)"><tspan x="0" y="0" fill="#FFFFFF" font-family="'AktivGrotesk-Light'" font-size="13.1122">25,5% – </tspan><tspan x="49.957" y="0" fill="#FFFFFF" font-family="'AktivGrotesk-Light'" font-size="13.1122">к</tspan><tspan x="56.355" y="0" fill="#FFFFFF" font-family="'AktivGrotesk-Light'" font-size="13.1122">у</tspan><tspan x="62.427" y="0" fill="#FFFFFF" font-family="'AktivGrotesk-Light'" font-size="13.1122">линарные</tspan></text>
	<text transform="matrix(1 0 0 1 18.4697 225.1562)"><tspan x="0" y="0" fill="#FFFFFF" font-family="'AktivGrotesk-Light'" font-size="13.1122">23,0% – ста</tspan><tspan x="70.018" y="0" fill="#FFFFFF" font-family="'AktivGrotesk-Light'" font-size="13.1122">р</tspan><tspan x="77.427" y="0" fill="#FFFFFF" font-family="'AktivGrotesk-Light'" font-size="13.1122">тапы</tspan></text>
	<text transform="matrix(1 0 0 1 18.4697 240.8916)"><tspan x="0" y="0" fill="#FFFFFF" font-family="'AktivGrotesk-Light'" font-size="13.1122">22,0% – З</tspan><tspan x="57.837" y="0" fill="#FFFFFF" font-family="'AktivGrotesk-Light'" font-size="13.1122">О</tspan><tspan x="67.278" y="0" fill="#FFFFFF" font-family="'AktivGrotesk-Light'" font-size="13.1122">Ж</tspan></text>
	<text transform="matrix(1 0 0 1 18.4697 265.4375)" fill="#FFFFFF" font-family="'AktivGrotesk-Light'" font-size="7.3428">Чем </text>
	<text transform="matrix(1 0 0 1 33.8086 265.4375)"><tspan x="0" y="0" fill="#FFFFFF" font-family="'AktivGrotesk-Bold'" font-size="7.3428">с</tspan><tspan x="4.038" y="0" fill="#FFFFFF" font-family="'AktivGrotesk-Bold'" font-size="7.3428">т</tspan><tspan x="7.775" y="0" fill="#FFFFFF" font-family="'AktivGrotesk-Bold'" font-size="7.3428">арше</tspan></text>
	<text transform="matrix(1 0 0 1 60.7412 265.4375)" fill="#FFFFFF" font-family="'AktivGrotesk-Light'" font-size="7.3428"> респонденты, </text>
	<text transform="matrix(1 0 0 1 111.0615 265.4375)"><tspan x="0" y="0" fill="#FFFFFF" font-family="'AktivGrotesk-Bold'" font-size="7.3428">т</tspan><tspan x="3.679" y="0" fill="#FFFFFF" font-family="'AktivGrotesk-Bold'" font-size="7.3428">ем ре</tspan><tspan x="23.849" y="0" fill="#FFFFFF" font-family="'AktivGrotesk-Bold'" font-size="7.3428">ж</tspan><tspan x="29.885" y="0" fill="#FFFFFF" font-family="'AktivGrotesk-Bold'" font-size="7.3428">е</tspan></text>
	<text transform="matrix(1 0 0 1 145.2646 265.4375)"><tspan x="0" y="0" fill="#FFFFFF" font-family="'AktivGrotesk-Light'" font-size="7.3428"> они счита</tspan><tspan x="34.805" y="0" fill="#FFFFFF" font-family="'AktivGrotesk-Light'" font-size="7.3428">ю</tspan><tspan x="40.289" y="0" fill="#FFFFFF" font-family="'AktivGrotesk-Light'" font-size="7.3428">т</tspan><tspan x="43.087" y="0" fill="#FFFFFF" font-family="'AktivGrotesk-Light'" font-size="7.3428">, </tspan></text>
	<text transform="matrix(1 0 0 1 18.4697 274.249)"><tspan x="0" y="0" fill="#FFFFFF" font-family="'AktivGrotesk-Light'" font-size="7.3428">ч</tspan><tspan x="3.664" y="0" fill="#FFFFFF" font-family="'AktivGrotesk-Light'" font-size="7.3428">т</tspan><tspan x="6.844" y="0" fill="#FFFFFF" font-family="'AktivGrotesk-Light'" font-size="7.3428">о </tspan><tspan x="12.843" y="0" fill="#FFFFFF" font-family="'AktivGrotesk-Light'" font-size="7.3428">это</tspan><tspan x="24.157" y="0" fill="#FFFFFF" font-family="'AktivGrotesk-Light'" font-size="7.3428">т тип а</tspan><tspan x="46.024" y="0" fill="#FFFFFF" font-family="'AktivGrotesk-Light'" font-size="7.3428">к</tspan><tspan x="49.82" y="0" fill="#FFFFFF" font-family="'AktivGrotesk-Light'" font-size="7.3428">тивности </tspan><tspan x="82.671" y="0" fill="#FFFFFF" font-family="'AktivGrotesk-Light'" font-size="7.3428">б</tspan><tspan x="86.894" y="0" fill="#FFFFFF" font-family="'AktivGrotesk-Light'" font-size="7.3428">у</tspan><tspan x="90.359" y="0" fill="#FFFFFF" font-family="'AktivGrotesk-Light'" font-size="7.3428">дет иметь спро</tspan><tspan x="142.162" y="0" fill="#FFFFFF" font-family="'AktivGrotesk-Light'" font-size="7.3428">с</tspan><tspan x="146.01" y="0" fill="#FFFFFF" font-family="'AktivGrotesk-Light'" font-size="7.3428">. </tspan></text>
</g>
</svg>
