<?xml version="1.0" encoding="utf-8"?>
<!-- Generator: Adobe Illustrator 16.0.3, SVG Export Plug-In . SVG Version: 6.00 Build 0)  -->
<!DOCTYPE svg PUBLIC "-//W3C//DTD SVG 1.1//EN" "http://www.w3.org/Graphics/SVG/1.1/DTD/svg11.dtd">
<svg version="1.1" id="Layer_1" xmlns="http://www.w3.org/2000/svg" xmlns:xlink="http://www.w3.org/1999/xlink" x="0px" y="0px"
	 width="240px" height="360px" viewBox="0 0 240 360" enable-background="new 0 0 240 360" xml:space="preserve">
<rect fill="#F7F7F7" width="240" height="360"/>
<rect x="8.942" y="191.293" width="15.876" height="21.759"/>
<polygon points="31.092,144.839 31.092,288.908 91.347,288.908 48.731,280.715 48.731,152.398 91.874,144.857 91.287,144.839 "/>
<polygon fill="#FFFFFF" stroke="#000000" stroke-miterlimit="10" points="99.947,152.403 53.968,160.032 53.968,273.358 
	99.947,281.682 "/>
<g>
	<defs>
		<rect id="SVGID_17_" x="8.695" y="144.838" width="212.386" height="144.071"/>
	</defs>
	<clipPath id="SVGID_2_">
		<use xlink:href="#SVGID_17_"  overflow="visible"/>
	</clipPath>
	<path clip-path="url(#SVGID_2_)" fill="#FFFFFF" d="M13.687,195.594c0,0.925-0.751,1.679-1.678,1.679
		c-0.925,0-1.677-0.754-1.677-1.679c0-0.927,0.752-1.677,1.677-1.677C12.936,193.917,13.687,194.667,13.687,195.594"/>
	<path clip-path="url(#SVGID_2_)" fill="#FFFFFF" d="M18.453,195.594c0,0.925-0.752,1.679-1.677,1.679
		c-0.927,0-1.679-0.754-1.679-1.679c0-0.927,0.752-1.677,1.679-1.677C17.701,193.917,18.453,194.667,18.453,195.594"/>
	<path clip-path="url(#SVGID_2_)" fill="#FFFFFF" d="M23.221,195.594c0,0.925-0.754,1.679-1.678,1.679
		c-0.927,0-1.678-0.754-1.678-1.679c0-0.927,0.751-1.677,1.678-1.677C22.467,193.917,23.221,194.667,23.221,195.594"/>
	<path clip-path="url(#SVGID_2_)" fill="#FFFFFF" d="M13.687,200.192c0,0.925-0.751,1.677-1.678,1.677
		c-0.925,0-1.677-0.752-1.677-1.677c0-0.928,0.752-1.679,1.677-1.679C12.936,198.514,13.687,199.265,13.687,200.192"/>
	<path clip-path="url(#SVGID_2_)" fill="#FFFFFF" d="M18.453,200.192c0,0.925-0.752,1.677-1.677,1.677
		c-0.927,0-1.679-0.752-1.679-1.677c0-0.928,0.752-1.679,1.679-1.679C17.701,198.514,18.453,199.265,18.453,200.192"/>
	<path clip-path="url(#SVGID_2_)" fill="#FFFFFF" d="M23.221,200.192c0,0.925-0.754,1.677-1.678,1.677
		c-0.927,0-1.678-0.752-1.678-1.677c0-0.928,0.751-1.679,1.678-1.679C22.467,198.514,23.221,199.265,23.221,200.192"/>
	<path clip-path="url(#SVGID_2_)" fill="#FFFFFF" d="M13.687,204.79c0,0.925-0.751,1.677-1.678,1.677
		c-0.925,0-1.677-0.752-1.677-1.677c0-0.928,0.752-1.679,1.677-1.679C12.936,203.111,13.687,203.862,13.687,204.79"/>
	<path clip-path="url(#SVGID_2_)" fill="#FFFFFF" d="M18.453,204.79c0,0.925-0.752,1.677-1.677,1.677
		c-0.927,0-1.679-0.752-1.679-1.677c0-0.928,0.752-1.679,1.679-1.679C17.701,203.111,18.453,203.862,18.453,204.79"/>
	<path clip-path="url(#SVGID_2_)" fill="#FFFFFF" d="M18.453,209.806c0,0.926-0.752,1.676-1.677,1.676
		c-0.927,0-1.679-0.75-1.679-1.676s0.752-1.678,1.679-1.678C17.701,208.128,18.453,208.88,18.453,209.806"/>
	<path clip-path="url(#SVGID_2_)" fill="#FFFFFF" d="M23.221,204.79c0,0.925-0.754,1.677-1.678,1.677
		c-0.927,0-1.678-0.752-1.678-1.677c0-0.928,0.751-1.679,1.678-1.679C22.467,203.111,23.221,203.862,23.221,204.79"/>
</g>
<polygon points="64.077,220.491 52.01,220.135 52.01,217.699 64.077,217.699 "/>
<polygon fill="none" stroke="#FFFFFF" stroke-miterlimit="10" points="64.077,220.491 52.01,220.135 52.01,217.699 64.077,217.699 
	"/>
<g>
	<defs>
		<rect id="SVGID_19_" x="8.695" y="144.838" width="212.386" height="144.071"/>
	</defs>
	<clipPath id="SVGID_4_">
		<use xlink:href="#SVGID_19_"  overflow="visible"/>
	</clipPath>
	<path clip-path="url(#SVGID_4_)" fill="#231F20" d="M24.855,178.233c-0.345,0.345-0.67,0.667-0.992,0.988
		c-3.965-3.986-10.446-3.759-14.175-0.004c-0.322-0.319-0.646-0.64-0.993-0.984c1.995-1.938,4.388-3.077,7.194-3.28
		C19.365,174.703,22.344,175.849,24.855,178.233"/>
	<path clip-path="url(#SVGID_4_)" fill="#231F20" d="M21.749,181.347c-1.384-1.322-3.044-2.036-4.979-2.033
		c-1.931,0-3.584,0.709-4.957,2.016c-0.328-0.332-0.654-0.658-0.979-0.984c3.163-3.253,8.681-3.274,11.893,0.019
		C22.405,180.688,22.084,181.01,21.749,181.347"/>
	<path clip-path="url(#SVGID_4_)" fill="#231F20" d="M13.903,183.465c-0.33-0.332-0.653-0.655-0.976-0.978
		c1.954-2.074,5.6-2.169,7.682-0.013c-0.323,0.321-0.645,0.646-0.979,0.98c-0.785-0.731-1.73-1.147-2.846-1.15
		C15.666,182.302,14.717,182.71,13.903,183.465"/>
	<path clip-path="url(#SVGID_4_)" fill="#231F20" d="M18.498,184.59c-0.59,0.588-1.167,1.165-1.732,1.729
		c-0.564-0.561-1.143-1.138-1.723-1.716C15.861,183.686,17.561,183.608,18.498,184.59"/>
	<path clip-path="url(#SVGID_4_)" fill="#FFFFFF" d="M146.042,173.591c0.036,0.224-0.117,0.433-0.339,0.469l-6.938,1.104
		c-0.223,0.036-0.433-0.116-0.469-0.339l-0.793-4.993c-0.035-0.225,0.116-0.435,0.339-0.469l6.938-1.103
		c0.222-0.036,0.432,0.116,0.468,0.339L146.042,173.591z"/>
	<path clip-path="url(#SVGID_4_)" d="M137.832,169.633c-0.048,0.008-0.081,0.055-0.074,0.102l0.81,5.101
		c0.009,0.048,0.056,0.082,0.103,0.074l7.043-1.121c0.049-0.008,0.082-0.054,0.074-0.103l-0.812-5.099
		c-0.008-0.048-0.054-0.083-0.102-0.074L137.832,169.633z M145.799,174.313l-7.043,1.121c-0.34,0.054-0.659-0.178-0.714-0.516
		l-0.812-5.1c-0.053-0.339,0.178-0.658,0.517-0.713l7.044-1.12c0.338-0.054,0.656,0.177,0.711,0.517l0.813,5.101
		C146.366,173.941,146.136,174.261,145.799,174.313"/>
	<path clip-path="url(#SVGID_4_)" fill="#FFFFFF" d="M148.722,190.432c0.035,0.222-0.118,0.433-0.341,0.467L141.469,192
		c-0.221,0.034-0.433-0.118-0.467-0.34l-1.507-9.467c-0.036-0.222,0.117-0.433,0.34-0.468l6.913-1.101
		c0.222-0.036,0.432,0.118,0.469,0.339L148.722,190.432z"/>
	<path clip-path="url(#SVGID_4_)" d="M139.824,181.997c-0.047,0.008-0.082,0.054-0.074,0.103l1.521,9.571
		c0.009,0.047,0.055,0.082,0.103,0.074l7.02-1.118c0.048-0.007,0.08-0.054,0.073-0.101l-1.522-9.572
		c-0.008-0.048-0.056-0.081-0.103-0.074L139.824,181.997z M148.476,191.154l-7.017,1.117c-0.338,0.053-0.658-0.179-0.713-0.517
		l-1.522-9.572c-0.054-0.337,0.179-0.658,0.517-0.711l7.018-1.117c0.34-0.055,0.657,0.179,0.712,0.517l1.522,9.571
		C149.047,190.78,148.815,191.101,148.476,191.154"/>
	<path clip-path="url(#SVGID_4_)" fill="#FFFFFF" d="M207.48,180.876c0.053,0.333-0.176,0.648-0.51,0.702l-6.506,1.034
		c-0.333,0.054-0.649-0.176-0.701-0.508l-1.442-9.061c-0.054-0.332,0.175-0.649,0.509-0.702l6.508-1.036
		c0.332-0.052,0.649,0.177,0.703,0.511L207.48,180.876z"/>
	<path clip-path="url(#SVGID_4_)" d="M198.793,172.618c-0.146,0.022-0.244,0.159-0.22,0.304l1.464,9.22
		c0.022,0.145,0.159,0.244,0.306,0.222l6.666-1.061c0.146-0.024,0.244-0.159,0.221-0.306l-1.465-9.219
		c-0.024-0.146-0.161-0.243-0.307-0.222L198.793,172.618z M207.094,181.829l-6.668,1.06c-0.434,0.068-0.845-0.228-0.914-0.664
		l-1.467-9.218c-0.069-0.436,0.229-0.846,0.665-0.914l6.665-1.062c0.434-0.069,0.845,0.228,0.915,0.663l1.466,9.219
		C207.825,181.349,207.527,181.758,207.094,181.829"/>
	<path clip-path="url(#SVGID_4_)" fill="#FFFFFF" d="M150.766,203.108c0.035,0.221-0.117,0.433-0.34,0.467l-6.913,1.1
		c-0.222,0.036-0.433-0.116-0.468-0.34l-1.507-9.465c-0.033-0.222,0.118-0.435,0.341-0.468l6.913-1.101
		c0.221-0.036,0.433,0.116,0.468,0.338L150.766,203.108z"/>
	<path clip-path="url(#SVGID_4_)" d="M141.868,194.673c-0.049,0.009-0.081,0.053-0.075,0.103l1.524,9.571
		c0.008,0.048,0.054,0.081,0.102,0.074l7.019-1.117c0.048-0.009,0.081-0.054,0.073-0.102l-1.524-9.572
		c-0.007-0.047-0.053-0.082-0.101-0.073L141.868,194.673z M150.521,203.829l-7.019,1.118c-0.339,0.054-0.659-0.18-0.71-0.516
		l-1.524-9.573c-0.054-0.338,0.177-0.658,0.516-0.713l7.02-1.115c0.337-0.055,0.656,0.178,0.712,0.516l1.522,9.572
		C151.091,203.456,150.858,203.775,150.521,203.829"/>
	<path clip-path="url(#SVGID_4_)" fill="#FFFFFF" d="M220.699,270.604c0.799,5.026-2.626,9.746-7.651,10.546l-46.355,7.376
		c-5.024,0.8-9.747-2.625-10.546-7.65l-18.732-117.734c-0.8-5.025,2.626-9.746,7.651-10.545l46.356-7.376
		c5.026-0.799,9.746,2.625,10.547,7.651L220.699,270.604z"/>
	<path clip-path="url(#SVGID_4_)" d="M145.107,152.859c-4.872,0.775-8.205,5.369-7.43,10.24l18.73,117.736
		c0.776,4.87,5.37,8.202,10.242,7.428l46.356-7.376c4.872-0.775,8.204-5.369,7.429-10.24l-18.731-117.734
		c-0.774-4.872-5.367-8.205-10.24-7.43L145.107,152.859z M213.09,281.415l-46.355,7.375c-5.163,0.821-10.03-2.71-10.852-7.872
		L137.15,163.185c-0.82-5.163,2.711-10.031,7.873-10.853l46.356-7.374c5.162-0.821,10.029,2.71,10.851,7.872l18.732,117.733
		C221.785,275.726,218.253,280.594,213.09,281.415"/>
	<path clip-path="url(#SVGID_4_)" fill="#F1F1F1" d="M217.414,263.828c0.053,0.333-0.176,0.65-0.51,0.702l-59.133,9.408
		c-0.332,0.053-0.648-0.176-0.701-0.508L140.35,168.337c-0.053-0.332,0.177-0.648,0.51-0.702l59.133-9.407
		c0.333-0.053,0.648,0.176,0.701,0.51L217.414,263.828z"/>
	<path clip-path="url(#SVGID_4_)" fill="#DADADA" d="M200.138,158.589c-0.033-0.193-0.215-0.325-0.409-0.296l-59.167,9.415
		c-0.193,0.03-0.326,0.211-0.295,0.406l16.745,105.252c0.031,0.193,0.214,0.324,0.407,0.294l59.167-9.413
		c0.194-0.031,0.326-0.213,0.295-0.407L200.138,158.589z M217.283,263.821c0.061,0.387-0.202,0.751-0.59,0.813l-59.254,9.428
		c-0.389,0.061-0.754-0.204-0.813-0.592l-16.76-105.337c-0.062-0.388,0.202-0.753,0.591-0.813l59.252-9.427
		c0.388-0.062,0.752,0.203,0.814,0.591L217.283,263.821z"/>
	<path clip-path="url(#SVGID_4_)" d="M158.286,156.945c-0.565,0.091-0.954,0.626-0.865,1.192c0.091,0.567,0.626,0.955,1.193,0.864
		c0.566-0.089,0.954-0.625,0.863-1.19C159.389,157.244,158.854,156.856,158.286,156.945 M158.654,159.266
		c-0.711,0.113-1.383-0.375-1.495-1.087c-0.114-0.712,0.372-1.383,1.085-1.496c0.711-0.113,1.383,0.373,1.496,1.086
		C159.854,158.482,159.367,159.15,158.654,159.266"/>
	<path clip-path="url(#SVGID_4_)" d="M168.422,151.053c-0.319,0.05-0.537,0.352-0.486,0.67c0.051,0.317,0.352,0.534,0.669,0.484
		c0.318-0.051,0.537-0.352,0.485-0.668C169.038,151.22,168.738,151.004,168.422,151.053 M168.646,152.471
		c-0.464,0.073-0.899-0.244-0.975-0.707c-0.073-0.463,0.243-0.9,0.708-0.975c0.462-0.072,0.9,0.245,0.974,0.707
		C169.428,151.96,169.109,152.396,168.646,152.471"/>
	<path clip-path="url(#SVGID_4_)" d="M183.202,277.999c-0.464-2.916,1.524-5.659,4.441-6.124c2.916-0.463,5.659,1.525,6.122,4.441
		c0.464,2.918-1.524,5.659-4.441,6.124C186.408,282.903,183.666,280.914,183.202,277.999"/>
	<path clip-path="url(#SVGID_4_)" fill="#FFFFFF" d="M183.861,277.893c-0.406-2.552,1.334-4.952,3.889-5.356
		c2.552-0.408,4.95,1.333,5.359,3.886c0.402,2.554-1.336,4.953-3.89,5.359C186.666,282.187,184.268,280.446,183.861,277.893"/>
	<path clip-path="url(#SVGID_4_)" d="M164.306,156.661c-0.19,0.029-0.313,0.252-0.283,0.442c0.032,0.203,0.218,0.375,0.407,0.344
		l9.488-1.508c0.188-0.03,0.311-0.252,0.282-0.442c-0.034-0.204-0.219-0.377-0.408-0.347L164.306,156.661z M173.979,156.333
		l-9.487,1.509c-0.381,0.062-0.758-0.287-0.818-0.669c-0.063-0.397,0.184-0.846,0.568-0.906l9.486-1.509
		c0.383-0.062,0.758,0.287,0.818,0.67C174.609,155.824,174.362,156.271,173.979,156.333"/>
	<path clip-path="url(#SVGID_4_)" d="M217.414,263.828c0.053,0.333-0.176,0.65-0.51,0.702l-59.133,9.408
		c-0.332,0.053-0.648-0.176-0.701-0.508L140.35,168.337c-0.053-0.332,0.177-0.648,0.51-0.702l59.133-9.407
		c0.333-0.053,0.648,0.176,0.701,0.51L217.414,263.828z"/>
</g>
<polygon fill="#FFFFFF" points="149.906,228.706 207.772,204.048 208.666,209.663 150.775,234.159 "/>
<polygon fill="#FFFFFF" points="148.931,222.567 206.797,197.909 207.8,204.224 149.908,228.722 "/>
<polygon fill="#FFFFFF" points="206.992,266.178 200.855,267.153 181.562,220.99 187.135,218.679 "/>
<polygon fill="#FFFFFF" points="201.029,267.125 194.892,268.103 175.596,221.939 181.171,219.627 "/>
<polygon fill="#FFFFFF" points="206.727,206.854 200.59,207.83 181.063,161.145 187.219,160.216 "/>
<polygon fill="#FFFFFF" points="205.448,188.623 207.822,204.04 206.562,206.938 187.031,160.224 193.188,159.311 "/>
<g>
	<defs>
		<rect id="SVGID_21_" x="8.695" y="144.838" width="212.386" height="144.071"/>
	</defs>
	<clipPath id="SVGID_6_">
		<use xlink:href="#SVGID_21_"  overflow="visible"/>
	</clipPath>
	<path clip-path="url(#SVGID_6_)" d="M200.138,158.589c-0.033-0.193-0.215-0.325-0.409-0.296l-59.167,9.415
		c-0.193,0.03-0.326,0.211-0.295,0.406l16.745,105.252c0.031,0.193,0.214,0.324,0.407,0.294l59.167-9.413
		c0.194-0.031,0.326-0.213,0.295-0.407L200.138,158.589z M217.283,263.821c0.061,0.387-0.202,0.751-0.59,0.813l-59.254,9.428
		c-0.389,0.061-0.754-0.204-0.813-0.592l-16.76-105.337c-0.062-0.388,0.202-0.753,0.591-0.813l59.252-9.427
		c0.388-0.062,0.752,0.203,0.814,0.591L217.283,263.821z"/>
	<path clip-path="url(#SVGID_6_)" fill="#FFFFFF" d="M162.576,197.793c1.649-0.259,2.771-1.782,2.513-3.41
		c-0.26-1.659-1.822-2.807-3.446-2.537c-1.612,0.271-2.756,1.844-2.505,3.453C159.389,196.919,160.948,198.051,162.576,197.793
		 M161.115,188.425c2.845-0.52,6.032,1.089,7.159,4.285c0.427,1.213,0.438,2.464,0.114,3.686c-0.787,2.979-1.617,5.949-2.456,8.913
		c-0.386,1.362-0.836,2.705-1.262,4.055c-0.034,0.104-0.124,0.191-0.187,0.284c-0.093-0.065-0.209-0.112-0.271-0.2
		c-2.606-3.636-5.194-7.287-7.536-11.104c-1.845-3.005-1.132-6.237,0.993-8.254C158.639,189.173,159.788,188.609,161.115,188.425"/>
	<path clip-path="url(#SVGID_6_)" fill="#FFFFFF" d="M175.89,238.317c1.056-0.165,1.775-1.142,1.609-2.185
		c-0.167-1.062-1.167-1.798-2.207-1.624c-1.033,0.172-1.763,1.18-1.605,2.21C173.849,237.758,174.848,238.481,175.89,238.317
		 M174.955,232.317c1.822-0.332,3.862,0.698,4.584,2.743c0.275,0.778,0.281,1.578,0.074,2.361c-0.505,1.909-1.036,3.811-1.574,5.71
		c-0.246,0.871-0.534,1.731-0.808,2.596c-0.021,0.066-0.078,0.122-0.12,0.183c-0.059-0.042-0.132-0.073-0.174-0.129
		c-1.668-2.33-3.324-4.668-4.825-7.11c-1.182-1.925-0.723-3.997,0.637-5.287C173.368,232.796,174.104,232.436,174.955,232.317"/>
	<path clip-path="url(#SVGID_6_)" fill="#FFFFFF" d="M178.373,174.661c1.057-0.166,1.775-1.145,1.612-2.187
		c-0.17-1.06-1.17-1.797-2.21-1.623c-1.031,0.172-1.764,1.181-1.604,2.211C176.332,174.101,177.331,174.824,178.373,174.661
		 M177.438,168.66c1.824-0.333,3.864,0.697,4.586,2.744c0.274,0.777,0.28,1.577,0.073,2.36c-0.504,1.909-1.035,3.811-1.573,5.71
		c-0.247,0.871-0.533,1.731-0.809,2.595c-0.02,0.067-0.077,0.123-0.119,0.185c-0.059-0.043-0.133-0.074-0.175-0.129
		c-1.667-2.331-3.323-4.669-4.824-7.112c-1.183-1.923-0.724-3.994,0.636-5.287C175.853,169.138,176.588,168.778,177.438,168.66"/>
	<path clip-path="url(#SVGID_6_)" fill="#FFFFFF" d="M169.074,220.528c1.65-0.26,2.769-1.783,2.514-3.411
		c-0.263-1.659-1.824-2.807-3.446-2.536c-1.613,0.27-2.756,1.843-2.506,3.452C165.888,219.653,167.445,220.785,169.074,220.528"/>
</g>
<line fill="none" stroke="#000000" stroke-width="1.5" x1="109.189" y1="218.917" x2="131.839" y2="218.917"/>
<polygon points="94.581,43.926 89.503,46.828 84.239,49.836 79.028,52.812 84.237,55.789 89.447,52.812 94.714,49.805 99.798,46.9 
	"/>
<polygon fill="none" stroke="#FFFFFF" stroke-linejoin="round" stroke-miterlimit="10" points="94.581,43.926 89.503,46.828 
	84.239,49.836 79.028,52.812 84.237,55.789 89.447,52.812 94.714,49.805 99.798,46.9 "/>
<polygon points="200.792,56.125 200.79,56.125 195.514,59.145 195.513,59.145 190.29,62.133 184.88,65.23 179.71,68.189 
	174.196,71.344 179.612,74.508 185.124,71.287 190.241,68.299 195.593,65.168 200.761,62.15 205.984,59.096 211.05,56.135 
	205.905,53.197 "/>
<g>
	<defs>
		<rect id="SVGID_51_" x="29.581" y="30.545" width="181.969" height="81.465"/>
	</defs>
	<clipPath id="SVGID_8_">
		<use xlink:href="#SVGID_51_"  overflow="visible"/>
	</clipPath>
	<polygon clip-path="url(#SVGID_8_)" fill="none" stroke="#FFFFFF" stroke-linejoin="round" stroke-miterlimit="10" points="
		205.905,53.199 200.792,56.125 200.79,56.125 195.514,59.145 195.513,59.145 190.29,62.133 184.881,65.23 179.709,68.189 
		174.196,71.344 179.614,74.51 185.125,71.287 190.241,68.299 195.592,65.168 200.761,62.15 205.985,59.098 211.05,56.135 	"/>
</g>
<polygon points="144.063,54.844 138.644,51.748 133.536,54.674 128.257,57.695 123.031,60.688 117.62,63.785 112.448,66.742 
	107.046,69.838 112.399,72.967 117.518,75.961 123.031,72.803 128.204,69.842 133.616,66.742 138.841,63.752 138.843,63.752 
	144.12,60.732 144.122,60.732 149.237,57.803 "/>
<polygon fill="none" stroke="#FFFFFF" stroke-linejoin="round" stroke-miterlimit="10" points="144.063,54.844 138.644,51.748 
	133.536,54.674 128.257,57.695 123.031,60.688 117.62,63.785 112.448,66.742 107.046,69.838 112.399,72.967 117.518,75.961 
	123.031,72.803 128.204,69.842 133.616,66.742 138.841,63.752 138.843,63.752 144.12,60.732 144.122,60.732 149.237,57.803 "/>
<polygon points="113.658,99.174 108.388,102.189 103.169,105.172 108.44,108.186 113.658,111.168 118.875,108.186 124.147,105.172 
	129.244,102.256 124.022,99.277 118.746,96.266 "/>
<g>
	<defs>
		<rect id="SVGID_53_" x="29.581" y="30.545" width="181.969" height="81.465"/>
	</defs>
	<clipPath id="SVGID_10_">
		<use xlink:href="#SVGID_53_"  overflow="visible"/>
	</clipPath>
	<polygon clip-path="url(#SVGID_10_)" fill="none" stroke="#FFFFFF" stroke-linejoin="round" stroke-miterlimit="10" points="
		124.022,99.277 118.746,96.266 113.658,99.176 108.386,102.189 103.169,105.172 108.44,108.186 113.658,111.168 118.875,108.186 
		124.147,105.172 129.244,102.256 	"/>
</g>
<polygon points="40.477,67.006 35.311,69.961 30.081,72.955 35.24,75.969 40.462,79.018 45.626,82.037 51.023,78.947 56.191,75.994 
	61.599,72.9 56.376,69.914 51.101,66.896 45.884,63.91 "/>
<g>
	<defs>
		<rect id="SVGID_55_" x="29.581" y="30.545" width="181.969" height="81.465"/>
	</defs>
	<clipPath id="SVGID_12_">
		<use xlink:href="#SVGID_55_"  overflow="visible"/>
	</clipPath>
	<polygon clip-path="url(#SVGID_12_)" fill="none" stroke="#FFFFFF" stroke-linejoin="round" stroke-miterlimit="10" points="
		56.376,69.914 51.102,66.896 45.884,63.91 40.477,67.006 35.311,69.963 30.081,72.955 35.24,75.969 40.462,79.018 45.626,82.037 
		51.023,78.947 56.191,75.994 61.599,72.9 	"/>
</g>
<polygon points="94.581,31.045 89.503,33.945 84.239,36.955 79.028,39.932 84.237,42.908 89.447,39.932 94.714,36.924 99.798,34.02 
	"/>
<g>
	<defs>
		<rect id="SVGID_57_" x="29.581" y="30.545" width="181.969" height="81.465"/>
	</defs>
	<clipPath id="SVGID_14_">
		<use xlink:href="#SVGID_57_"  overflow="visible"/>
	</clipPath>
	<polygon clip-path="url(#SVGID_14_)" fill="none" stroke="#FFFFFF" stroke-linejoin="round" stroke-miterlimit="10" points="
		94.581,31.045 89.503,33.945 84.239,36.955 79.028,39.932 84.237,42.908 89.447,39.932 94.714,36.924 99.798,34.02 	"/>
</g>
<polygon points="200.792,43.244 200.79,43.244 195.514,46.264 195.513,46.264 190.29,49.25 184.88,52.348 179.71,55.309 
	174.196,58.461 179.612,61.627 185.124,58.406 190.241,55.416 195.593,52.285 200.761,49.27 205.984,46.215 211.05,43.254 
	205.905,40.316 "/>
<g>
	<defs>
		<rect id="SVGID_59_" x="29.581" y="30.545" width="181.969" height="81.465"/>
	</defs>
	<clipPath id="SVGID_16_">
		<use xlink:href="#SVGID_59_"  overflow="visible"/>
	</clipPath>
	<polygon clip-path="url(#SVGID_16_)" fill="none" stroke="#FFFFFF" stroke-linejoin="round" stroke-miterlimit="10" points="
		205.905,40.316 200.792,43.244 200.79,43.244 195.514,46.262 195.513,46.262 190.29,49.252 184.881,52.348 179.709,55.307 
		174.196,58.463 179.614,61.627 185.125,58.406 190.241,55.416 195.592,52.287 200.761,49.268 205.985,46.215 211.05,43.254 	"/>
</g>
<polygon points="144.063,41.963 138.644,38.865 133.536,41.791 128.257,44.814 123.031,47.805 117.62,50.902 112.448,53.861 
	107.046,56.955 112.399,60.086 117.518,63.078 123.031,59.922 128.204,56.961 133.616,53.861 138.841,50.871 138.843,50.871 
	144.12,47.85 144.122,47.85 149.237,44.92 "/>
<polygon fill="none" stroke="#FFFFFF" stroke-linejoin="round" stroke-miterlimit="10" points="144.063,41.963 138.644,38.865 
	133.536,41.791 128.257,44.814 123.031,47.805 117.62,50.902 112.448,53.861 107.046,56.955 112.399,60.086 117.518,63.078 
	123.031,59.922 128.204,56.961 133.616,53.861 138.841,50.871 138.843,50.871 144.12,47.85 144.122,47.85 149.237,44.92 "/>
<polygon points="124.022,86.395 118.746,83.383 113.658,86.293 108.386,89.307 103.169,92.289 108.44,95.303 113.658,98.287 
	118.875,95.303 124.147,92.289 129.244,89.373 "/>
<polygon fill="none" stroke="#FFFFFF" stroke-linejoin="round" stroke-miterlimit="10" points="124.022,86.395 118.746,83.383 
	113.658,86.293 108.386,89.307 103.169,92.289 108.44,95.303 113.658,98.287 118.875,95.303 124.147,92.289 129.244,89.373 "/>
<polygon points="40.477,54.123 35.311,57.08 30.081,60.072 35.24,63.088 40.462,66.137 45.626,69.154 51.023,66.066 56.191,63.111 
	61.599,60.02 56.376,57.031 51.101,54.014 45.884,51.027 "/>
<g>
	<defs>
		<rect id="SVGID_61_" x="29.581" y="30.545" width="181.969" height="81.465"/>
	</defs>
	<clipPath id="SVGID_18_">
		<use xlink:href="#SVGID_61_"  overflow="visible"/>
	</clipPath>
	<polygon clip-path="url(#SVGID_18_)" fill="none" stroke="#FFFFFF" stroke-linejoin="round" stroke-miterlimit="10" points="
		56.376,57.031 51.102,54.014 45.884,51.027 40.477,54.123 35.311,57.08 30.081,60.072 35.24,63.086 40.462,66.137 45.626,69.154 
		51.023,66.066 56.191,63.111 61.599,60.018 	"/>
</g>
<polygon points="45.839,68.74 61.046,60.088 61.046,72.971 45.839,82.061 "/>
<polygon fill="none" stroke="#FFFFFF" stroke-linejoin="round" stroke-miterlimit="10" points="45.839,68.74 61.046,60.088 
	61.046,72.971 45.839,82.061 "/>
<polygon points="113.59,98.186 113.59,111.506 128.796,102.416 128.796,89.533 "/>
<g>
	<defs>
		<rect id="SVGID_63_" x="29.581" y="30.545" width="181.969" height="81.465"/>
	</defs>
	<clipPath id="SVGID_20_">
		<use xlink:href="#SVGID_63_"  overflow="visible"/>
	</clipPath>
	<polygon clip-path="url(#SVGID_20_)" fill="none" stroke="#FFFFFF" stroke-linejoin="round" stroke-miterlimit="10" points="
		113.59,98.186 128.796,89.533 128.796,102.416 113.59,111.506 	"/>
</g>
<polygon points="84.517,42.693 99.723,34.041 99.723,46.924 84.517,56.014 "/>
<polygon fill="none" stroke="#FFFFFF" stroke-linejoin="round" stroke-miterlimit="10" points="84.517,42.693 99.723,34.041 
	99.723,46.924 84.517,56.014 "/>
<polygon points="117.728,63.139 148.778,44.803 148.778,57.686 117.728,76.459 "/>
<polygon fill="none" stroke="#FFFFFF" stroke-linejoin="round" stroke-miterlimit="10" points="117.728,63.139 148.778,44.803 
	148.778,57.686 117.728,76.459 "/>
<polygon points="179.659,61.107 179.659,74.428 210.71,55.654 210.71,42.771 "/>
<g>
	<defs>
		<rect id="SVGID_65_" x="29.581" y="30.545" width="181.969" height="81.465"/>
	</defs>
	<clipPath id="SVGID_22_">
		<use xlink:href="#SVGID_65_"  overflow="visible"/>
	</clipPath>
	<polygon clip-path="url(#SVGID_22_)" fill="none" stroke="#FFFFFF" stroke-linejoin="round" stroke-miterlimit="10" points="
		179.659,61.107 210.711,42.771 210.711,55.654 179.659,74.428 	"/>
</g>
<polygon points="30.316,72.943 45.521,82.033 45.521,68.713 30.316,60.061 "/>
<g>
	<defs>
		<rect id="SVGID_67_" x="29.581" y="30.545" width="181.969" height="81.465"/>
	</defs>
	<clipPath id="SVGID_24_">
		<use xlink:href="#SVGID_67_"  overflow="visible"/>
	</clipPath>
	<polygon clip-path="url(#SVGID_24_)" fill="none" stroke="#FFFFFF" stroke-linejoin="round" stroke-miterlimit="10" points="
		45.522,68.713 30.315,60.061 30.315,72.941 45.522,82.033 	"/>
</g>
<polygon points="103.565,105.162 113.589,111.506 113.589,98.186 103.565,92.283 "/>
<g>
	<defs>
		<rect id="SVGID_69_" x="29.581" y="30.545" width="181.969" height="81.465"/>
	</defs>
	<clipPath id="SVGID_26_">
		<use xlink:href="#SVGID_69_"  overflow="visible"/>
	</clipPath>
	<polygon clip-path="url(#SVGID_26_)" fill="none" stroke="#FFFFFF" stroke-linejoin="round" stroke-miterlimit="10" points="
		113.59,98.186 103.565,92.283 103.565,105.162 113.59,111.506 	"/>
</g>
<polygon points="117.7,62.74 107.676,56.838 107.676,69.717 117.7,76.061 "/>
<polygon fill="none" stroke="#FFFFFF" stroke-linejoin="round" stroke-miterlimit="10" points="117.7,62.74 107.676,56.838 
	107.676,69.717 117.7,76.061 "/>
<polygon points="84.54,42.881 79.356,39.814 79.356,52.697 84.54,56.201 "/>
<polygon fill="none" stroke="#FFFFFF" stroke-linejoin="round" stroke-miterlimit="10" points="84.54,42.881 79.356,39.814 
	79.356,52.697 84.54,56.201 "/>
<polygon points="179.659,61.318 174.477,58.252 174.477,71.135 179.659,74.639 "/>
<polygon fill="none" stroke="#FFFFFF" stroke-linejoin="round" stroke-miterlimit="10" points="179.659,61.318 174.477,58.252 
	174.477,71.135 179.659,74.639 "/>
<text transform="matrix(1 0 0 1 90.1719 318.0605)"><tspan x="0" y="0" font-family="'AktivGrotesk-Light'" font-size="7">система контроля </tspan><tspan x="-2.488" y="8.4" font-family="'AktivGrotesk-Light'" font-size="7">почасового доступа</tspan></text>
</svg>
