<?xml version="1.0" encoding="utf-8"?>
<!-- Generator: Adobe Illustrator 16.0.3, SVG Export Plug-In . SVG Version: 6.00 Build 0)  -->
<!DOCTYPE svg PUBLIC "-//W3C//DTD SVG 1.1//EN" "http://www.w3.org/Graphics/SVG/1.1/DTD/svg11.dtd">
<svg version="1.1" id="Layer_1" xmlns="http://www.w3.org/2000/svg" xmlns:xlink="http://www.w3.org/1999/xlink" x="0px" y="0px"
	 width="578px" height="299px" viewBox="0 0 578 299" enable-background="new 0 0 578 299" xml:space="preserve">
<rect x="-140.889" y="-290.39" fill="#1A60FE" width="865.457" height="757.462"/>
<g>
	<defs>
		<rect id="SVGID_1_" x="20" y="-107.534" width="615.751" height="422.424"/>
	</defs>
	<clipPath id="SVGID_2_">
		<use xlink:href="#SVGID_1_"  overflow="visible"/>
	</clipPath>
	
		<path clip-path="url(#SVGID_2_)" fill="none" stroke="#FFFFFF" stroke-width="1.001" stroke-miterlimit="10" stroke-dasharray="1.413,1.413" d="
		M552.323,136.133c-4.417,35.924-120.992,64.729-264.435,64.916"/>
	
		<path clip-path="url(#SVGID_2_)" fill="none" stroke="#FFFFFF" stroke-width="1.001" stroke-miterlimit="10" stroke-dasharray="1.413,1.413" d="
		M284.355,201.049c-144.049-0.283-260.831-29.428-263.797-65.619"/>
	
		<path clip-path="url(#SVGID_2_)" fill="none" stroke="#FFFFFF" stroke-width="1.001" stroke-miterlimit="10" stroke-dasharray="1.413,1.413" d="
		M20.63,131.902c4.417-35.926,120.992-64.731,264.432-64.918"/>
	
		<path clip-path="url(#SVGID_2_)" fill="none" stroke="#FFFFFF" stroke-width="1.001" stroke-miterlimit="10" stroke-dasharray="1.413,1.413" d="
		M288.596,66.984c144.051,0.284,260.832,29.428,263.8,65.622"/>
	<path clip-path="url(#SVGID_2_)" fill="none" stroke="#FFFFFF" stroke-width="1.001" stroke-miterlimit="10" d="M552.438,133.311
		c0.01,0.236,0.016,0.471,0.016,0.707s-0.006,0.471-0.016,0.707 M285.769,66.983h0.706h0.707 M20.515,134.725
		c-0.01-0.236-0.014-0.471-0.014-0.707s0.004-0.471,0.014-0.707 M287.182,201.051h-0.707h-0.706"/>
	<path clip-path="url(#SVGID_2_)" d="M70.12,188.184v-2.049c0.076-0.473,0.182-0.959,0.222-1.414
		c0.237-2.717,0.876-5.555,2.284-8.557c2.487-5.303,6.025-9.203,10.661-11.332c4.583-2.104,7.815-1.365,10.207,1.055
		c0.298,0.303,0.576,0.629,0.805,0.879c1.182-2.201,2.171-4.402,3.5-6.447c3.655-5.615,7.964-9.584,12.93-10.639
		c0.991-0.211,1.864-0.246,2.634-0.129c2.312,0.35,3.693,2.068,4.489,4.545c0.391,1.213,0.567,2.607,0.84,3.918v2.256
		c-0.049,0.115-0.129,0.25-0.14,0.352c-0.438,3.713-2.08,7.594-4.118,11.492c-5.354,10.25-12.238,19.723-19.496,28.988
		c-0.264,0.338-0.932,0.635-1.236,0.598c-5.814-0.699-11.296-1.984-16.086-4.469c-2.611-1.355-4.99-3.025-6.415-5.854
		C70.723,190.426,70.474,189.254,70.12,188.184"/>
	<path clip-path="url(#SVGID_2_)" fill="#FFFFFF" d="M76.822,192.65v-2.047c0.076-0.473,0.182-0.959,0.223-1.414
		c0.237-2.719,0.876-5.555,2.284-8.557c2.487-5.303,6.025-9.203,10.66-11.332c4.583-2.104,7.815-1.367,10.207,1.055
		c0.299,0.303,0.576,0.627,0.805,0.879c1.182-2.201,2.171-4.404,3.501-6.447c3.654-5.615,7.964-9.584,12.93-10.639
		c3.957-0.842,6.061,1.113,7.123,4.416c0.391,1.211,0.566,2.607,0.84,3.918v2.254c-0.049,0.117-0.129,0.252-0.141,0.354
		c-0.438,3.713-2.079,7.594-4.117,11.49c-5.355,10.252-12.239,19.725-19.496,28.99c-0.264,0.338-0.933,0.635-1.236,0.598
		c-5.813-0.701-11.296-1.986-16.086-4.469c-2.611-1.355-4.99-3.025-6.415-5.854C77.426,194.893,77.176,193.723,76.822,192.65"/>
	<path clip-path="url(#SVGID_2_)" fill="none" stroke="#000000" stroke-linejoin="round" stroke-miterlimit="10" d="M76.822,192.65
		v-2.047c0.076-0.473,0.182-0.959,0.223-1.414c0.237-2.719,0.876-5.555,2.284-8.557c2.487-5.303,6.025-9.203,10.66-11.332
		c4.583-2.104,7.815-1.367,10.207,1.055c0.299,0.303,0.576,0.627,0.805,0.879c1.182-2.201,2.171-4.404,3.501-6.447
		c3.654-5.615,7.964-9.584,12.93-10.639c3.957-0.842,6.061,1.113,7.123,4.416c0.391,1.211,0.566,2.607,0.84,3.918v2.254
		c-0.049,0.117-0.129,0.252-0.141,0.354c-0.438,3.713-2.079,7.594-4.117,11.49c-5.355,10.252-12.239,19.725-19.496,28.99
		c-0.264,0.338-0.933,0.635-1.236,0.598c-5.813-0.701-11.296-1.986-16.086-4.469c-2.611-1.355-4.99-3.025-6.415-5.854
		C77.426,194.893,77.176,193.723,76.822,192.65z"/>
</g>
<polygon fill="#231F20" points="121.891,154.326 111.601,153.953 114.837,150.016 "/>
<polygon fill="#231F20" points="74.24,195.084 80.693,199.84 75.108,191.969 "/>
<g>
	<defs>
		<rect id="SVGID_3_" x="20" y="-107.534" width="615.751" height="422.424"/>
	</defs>
	<clipPath id="SVGID_4_">
		<use xlink:href="#SVGID_3_"  overflow="visible"/>
	</clipPath>
	<path clip-path="url(#SVGID_4_)" fill="#FFFFFF" d="M173.184,69.688c-1.45,3.326-4.927,4.639-11.822,3.326
		c-7.744-1.472-12.563,3.406-11.577,7.369c0.986,3.961,11.577,11.597,27.586,6.916c16.009-4.677,31.06-18.977,19.212-26.461
		C183.498,52.572,176.667,61.702,173.184,69.688"/>
	<path clip-path="url(#SVGID_4_)" fill="none" stroke="#000000" stroke-miterlimit="10" d="M173.184,69.688
		c-1.45,3.326-4.927,4.639-11.822,3.326c-7.744-1.472-12.563,3.406-11.577,7.369c0.986,3.961,11.577,11.597,27.586,6.916
		c16.009-4.677,31.06-18.977,19.212-26.461C183.498,52.572,176.667,61.702,173.184,69.688z"/>
	<path clip-path="url(#SVGID_4_)" d="M212.938,46.03c0.35-0.017,0.701-0.03,1.051-0.049c0.054-0.002,0.141-0.012,0.153-0.043
		c0.2-0.516,0.688-0.496,1.092-0.626c0.016,0.034,0.032,0.07,0.047,0.104c-0.197,0.072-0.404,0.133-0.593,0.224
		c-0.108,0.053-0.211,0.142-0.279,0.241c-0.403,0.576-0.794,1.16-1.19,1.74c-0.094,0.139-0.189,0.276-0.285,0.416
		c0.023,0.021,0.046,0.046,0.068,0.069c0.094-0.085,0.189-0.172,0.294-0.265c-0.01,0.103-0.021,0.199-0.036,0.335
		c0.354,0.026,0.693,0.051,1.069,0.081c-0.075,0.248-0.128,0.431-0.212,0.714c0.607-0.224,1.135-0.42,1.664-0.614
		c-0.507,0.729-1.018,1.415-1.922,1.652c-0.224,0.058-0.408,0.257-0.611,0.392c-0.165,0.107-0.326,0.224-0.497,0.317
		c-0.382,0.21-0.779,0.398-1.153,0.624c-0.093,0.056-0.163,0.217-0.168,0.332c-0.006,0.223,0.043,0.447,0.061,0.591
		c0.184-0.262,0.343-0.707,0.646-0.857c0.283-0.14,0.722,0.032,1.164,0.073c0.38-0.987,1.435-1.224,2.419-1.715
		c-0.085,0.147-0.127,0.217-0.168,0.291c0.015,0.021,0.032,0.041,0.048,0.063c0.207-0.114,0.415-0.228,0.622-0.341
		c0.017,0.025,0.032,0.049,0.047,0.072c-0.257,0.163-0.514,0.326-0.771,0.49c0.014,0.03,0.03,0.059,0.045,0.088
		c0.247-0.121,0.49-0.25,0.74-0.359c0.266-0.115,0.541-0.216,0.81-0.32c0.034,0.05,0.068,0.098,0.101,0.148
		c-0.22,0.217-0.448,0.428-0.659,0.653c-0.119,0.127-0.194,0.296-0.318,0.417c-0.711,0.702-1.522,1.192-2.565,1.169
		c-0.047-0.001-0.096,0.017-0.181,0.034c0.028,0.166,0.036,0.327,0.084,0.475c0.177,0.563,0.13,1.077-0.235,1.563
		c-0.093,0.123-0.08,0.322-0.115,0.488c0.111-0.122,0.242-0.232,0.328-0.37c0.314-0.499,0.602-0.996,1.233-1.195
		c0.425-0.134,0.814-0.387,1.257-0.55c-0.071,0.084-0.143,0.168-0.213,0.252c0.017,0.022,0.033,0.047,0.05,0.07
		c0.203-0.104,0.405-0.209,0.608-0.313c0.01,0.018,0.021,0.036,0.031,0.054c-0.51,0.351-1.028,0.689-1.526,1.053
		c-0.426,0.312-0.85,0.63-1.234,0.988c-0.179,0.167-0.266,0.438-0.377,0.668c-0.085,0.173-0.092,0.421-0.222,0.53
		c-0.505,0.421-0.531,0.997-0.586,1.571c-0.026,0.271-0.042,0.548-0.065,0.851h-0.453c0-0.381,0.042-0.759-0.012-1.123
		c-0.066-0.441,0.56-0.42,0.427-0.862c-0.271-0.134-0.367-0.661-0.183-0.894c-0.097-0.127-0.192-0.207-0.232-0.312
		c-0.116-0.298-0.192-0.611-0.313-0.904c-0.055-0.133-0.182-0.237-0.306-0.316c0.136,0.436,0.283,0.866,0.406,1.305
		c0.123,0.441,0.222,0.89,0.342,1.371c-0.755-0.184-0.755-0.184-0.865,0.354c-0.108-0.022-0.216-0.044-0.323-0.066
		c-0.067-0.261-0.134-0.519-0.209-0.812c0.227-0.287,0.25-0.635-0.01-0.839c-0.105-0.084-0.27-0.326-0.417,0.132
		c-1.115-1.238-2.352-2.192-3.8-2.854c1.342,0.428,2.545,1.132,3.745,1.897c0.179-0.326,0.216-0.592,0.243-0.927
		c0.06-0.737-0.277-1.28-0.669-1.762c-0.44-0.543-1.095-0.86-1.808-0.976c-0.12-0.02-0.259,0.087-0.477,0.166
		c0.591,0.359,1.093,0.664,1.595,0.97c-0.014,0.02-0.028,0.037-0.043,0.059c-1.698-0.327-3.398-0.653-5.181-0.997
		c0.657-0.081,1.25-0.202,1.845-0.211c0.581-0.009,1.163,0.101,1.786,0.163c0.137-0.208-0.02-0.284-0.224-0.389
		c-0.623-0.318-1.236-0.655-1.845-0.999c-0.132-0.077-0.233-0.211-0.348-0.316c0.018-0.032,0.038-0.063,0.056-0.095
		c0.58,0.251,1.17,0.482,1.738,0.761c0.714,0.349,1.427,0.647,2.247,0.696c0.51,0.031,1.01,0.23,1.392,0.642
		c-0.059-0.25,0.007-0.499-0.38-0.659c-0.584-0.243-1.274-0.354-1.652-0.964c-0.193-0.317-0.406-0.621-0.581-0.948
		c-0.117-0.216-0.182-0.46-0.269-0.692c0.337-0.105,0.437-0.563,0.121-0.898c-0.263-0.279-0.6-0.488-0.911-0.72
		c-0.118-0.089-0.254-0.154-0.383-0.232c0.009-0.035,0.019-0.07,0.028-0.106c0.356,0.096,0.717,0.18,1.068,0.293
		c0.184,0.058,0.321,0.1,0.519-0.025c0.431-0.268,1.234-0.094,1.685,0.3c0.131,0.118,0.282,0.213,0.392,0.297
		c0.212-0.427,0.395-0.798,0.624-1.258v2.317c0.031,0.008,0.062,0.017,0.092,0.022c0.072-0.161,0.122-0.338,0.221-0.481
		c0.321-0.466,0.644-0.929,0.998-1.367c0.196-0.245,0.552-0.225,0.78-0.008c-0.056,0.044-0.133,0.075-0.161,0.132
		c-0.455,0.919-0.904,1.842-1.349,2.764c-0.01,0.021,0.016,0.06,0.043,0.147C211.981,48.03,212.459,47.03,212.938,46.03"/>
	<path clip-path="url(#SVGID_4_)" d="M212.21,62.095c0.284-0.062,0.471-0.052,0.512,0.282c0.012,0.091,0.182,0.213,0.297,0.235
		c0.406,0.079,0.819,0.115,1.227,0.179c0.389,0.063,0.54,0.309,0.535,0.694c-0.018,1.318-0.027,2.636-0.032,3.955
		c-0.002,0.746-0.163,1.006-0.876,1.198c-1.388,0.375-2.781,0.381-4.164-0.032c-0.604-0.183-0.773-0.42-0.781-1.037
		c-0.016-1.369-0.024-2.737-0.041-4.106c-0.005-0.371,0.156-0.617,0.524-0.663c0.759-0.093,1.521-0.154,2.281-0.227
		c0.159-0.014,0.318-0.002,0.487-0.002C212.191,62.393,212.199,62.256,212.21,62.095"/>
	<path clip-path="url(#SVGID_4_)" d="M213.744,54.82c1.11-0.878,2.217-1.763,3.573-2.277c0.038,0.099,0.061,0.132,0.054,0.142
		c-0.728,0.987-1.52,1.898-2.787,2.192c-0.26,0.06-0.536,0.047-0.806,0.07C213.767,54.904,213.755,54.861,213.744,54.82"/>
	<path clip-path="url(#SVGID_4_)" d="M211.14,57.037c0.055,0.106,0.108,0.215,0.163,0.321c-0.004,0.009-0.009,0.019-0.014,0.028
		c0.061,0.171,0.168,0.346,0.163,0.517c-0.004,0.084-0.216,0.161-0.423,0.305v-1.109C211.065,57.078,211.104,57.057,211.14,57.037"
		/>
	<path clip-path="url(#SVGID_4_)" d="M211.471,58.234v0.67h-0.411C210.912,58.301,210.998,58.154,211.471,58.234"/>
	<path clip-path="url(#SVGID_4_)" d="M211.125,61.779c0.435-0.133,0.571,0.012,0.588,0.348c0.011,0.226-0.045,0.399-0.29,0.348
		C210.98,62.381,211.318,61.996,211.125,61.779"/>
	<path clip-path="url(#SVGID_4_)" d="M212.042,59.257c0.073-0.25-0.218-0.599,0.207-0.694c0.338-0.076,0.233,0.227,0.251,0.398
		C212.535,59.28,212.366,59.349,212.042,59.257"/>
	<path clip-path="url(#SVGID_4_)" d="M212.673,59.827c-0.164,0.152-0.252,0.306-0.347,0.311c-0.357,0.014-0.189-0.308-0.246-0.479
		c-0.017-0.049,0.13-0.153,0.201-0.231C212.394,59.54,212.505,59.655,212.673,59.827"/>
	<path clip-path="url(#SVGID_4_)" d="M211.628,61.508c-0.299,0.105-0.475,0.071-0.464-0.219c0.007-0.157-0.156-0.457,0.154-0.442
		C211.768,60.867,211.465,61.286,211.628,61.508"/>
	<path clip-path="url(#SVGID_4_)" d="M210.949,59.356c0.155-0.122,0.241-0.25,0.339-0.259c0.278-0.023,0.211,0.216,0.229,0.374
		c0.021,0.176-0.024,0.375-0.233,0.321C211.164,59.76,211.091,59.549,210.949,59.356"/>
	<path clip-path="url(#SVGID_4_)" d="M212.554,60.246c-0.017,0.312-0.027,0.521-0.042,0.786c-0.109-0.01-0.306,0.001-0.313-0.031
		c-0.045-0.191-0.076-0.398-0.045-0.586C212.165,60.351,212.369,60.319,212.554,60.246"/>
	<path clip-path="url(#SVGID_4_)" d="M211.552,59.886c-0.03,0.319-0.051,0.538-0.075,0.799c-0.103-0.007-0.285,0-0.29-0.024
		c-0.035-0.201-0.067-0.414-0.033-0.613C211.164,59.986,211.371,59.955,211.552,59.886"/>
	<path clip-path="url(#SVGID_4_)" d="M212.698,61.955c-0.232-0.052-0.439-0.054-0.454-0.105c-0.048-0.187-0.037-0.391-0.025-0.585
		c0-0.022,0.214-0.062,0.221-0.048C212.523,61.421,212.591,61.635,212.698,61.955"/>
	<path clip-path="url(#SVGID_4_)" d="M214.782,67.947c0,0.93-1.311,1.686-2.926,1.686c-1.617,0-2.928-0.756-2.928-1.686
		c0-0.929,1.311-1.685,2.928-1.685C213.471,66.262,214.782,67.018,214.782,67.947"/>
	<path clip-path="url(#SVGID_4_)" d="M214.782,63.037c0,0.93-1.311,1.684-2.926,1.684c-1.617,0-2.928-0.754-2.928-1.684
		c0-0.932,1.311-1.685,2.928-1.685C213.471,61.352,214.782,62.105,214.782,63.037"/>
	<path clip-path="url(#SVGID_4_)" d="M200.825,22.4c0.546-0.026,1.095-0.05,1.641-0.076c0.084-0.003,0.221-0.02,0.24-0.068
		c0.312-0.806,1.073-0.773,1.705-0.977c0.024,0.054,0.05,0.107,0.073,0.159c-0.308,0.114-0.63,0.207-0.926,0.352
		c-0.17,0.082-0.33,0.221-0.436,0.375c-0.628,0.899-1.24,1.812-1.858,2.718c-0.146,0.217-0.295,0.434-0.446,0.65
		c0.035,0.035,0.072,0.071,0.106,0.109c0.148-0.133,0.296-0.268,0.461-0.415c-0.017,0.161-0.034,0.312-0.057,0.524
		c0.553,0.041,1.082,0.08,1.669,0.126c-0.116,0.387-0.2,0.674-0.331,1.117c0.949-0.353,1.774-0.657,2.599-0.96
		c-0.792,1.136-1.589,2.21-3.002,2.579c-0.349,0.092-0.637,0.402-0.955,0.612c-0.257,0.167-0.507,0.349-0.776,0.496
		c-0.597,0.328-1.216,0.621-1.8,0.976c-0.145,0.087-0.255,0.339-0.262,0.517c-0.009,0.349,0.067,0.699,0.094,0.924
		c0.288-0.41,0.535-1.104,1.01-1.341c0.442-0.216,1.127,0.052,1.818,0.117c0.593-1.544,2.241-1.913,3.779-2.679
		c-0.133,0.228-0.199,0.339-0.263,0.455c0.023,0.029,0.049,0.062,0.075,0.098c0.323-0.179,0.649-0.355,0.972-0.532
		c0.025,0.04,0.049,0.075,0.073,0.114c-0.401,0.254-0.803,0.508-1.205,0.763c0.023,0.047,0.047,0.093,0.07,0.14
		c0.386-0.188,0.766-0.392,1.156-0.562c0.417-0.181,0.845-0.337,1.266-0.501c0.054,0.077,0.106,0.153,0.157,0.232
		c-0.343,0.338-0.7,0.667-1.029,1.02c-0.186,0.2-0.303,0.463-0.496,0.652c-1.11,1.096-2.378,1.86-4.007,1.826
		c-0.073-0.002-0.15,0.025-0.282,0.052c0.042,0.26,0.056,0.511,0.131,0.743c0.276,0.879,0.203,1.683-0.368,2.439
		c-0.145,0.193-0.125,0.504-0.18,0.763c0.174-0.189,0.379-0.362,0.513-0.577c0.491-0.779,0.941-1.557,1.926-1.867
		c0.664-0.209,1.271-0.604,1.963-0.859c-0.111,0.131-0.222,0.262-0.333,0.395c0.027,0.035,0.053,0.072,0.078,0.11
		c0.318-0.163,0.633-0.326,0.951-0.49c0.015,0.028,0.032,0.057,0.048,0.085c-0.797,0.547-1.606,1.075-2.383,1.644
		c-0.665,0.487-1.329,0.983-1.928,1.544c-0.279,0.261-0.415,0.682-0.589,1.043c-0.133,0.271-0.143,0.658-0.347,0.829
		c-0.789,0.658-0.83,1.556-0.915,2.453c-0.041,0.424-0.065,0.854-0.102,1.33h-0.708c0-0.598,0.066-1.188-0.018-1.754
		c-0.104-0.692,0.875-0.656,0.666-1.348c-0.422-0.209-0.571-1.033-0.285-1.396c-0.15-0.199-0.3-0.324-0.363-0.488
		c-0.18-0.463-0.299-0.955-0.487-1.413c-0.087-0.207-0.286-0.369-0.48-0.492c0.214,0.68,0.442,1.354,0.635,2.036
		c0.192,0.692,0.347,1.391,0.534,2.145c-1.18-0.287-1.18-0.287-1.351,0.55c-0.169-0.034-0.337-0.069-0.504-0.103
		c-0.106-0.406-0.209-0.811-0.327-1.27c0.354-0.448,0.391-0.993-0.015-1.311c-0.164-0.132-0.422-0.511-0.652,0.205
		c-1.741-1.933-3.673-3.423-5.936-4.456c2.098,0.666,3.976,1.766,5.849,2.962c0.282-0.509,0.338-0.926,0.38-1.447
		c0.095-1.151-0.432-2-1.045-2.751c-0.687-0.848-1.71-1.345-2.823-1.524c-0.187-0.031-0.405,0.137-0.746,0.261
		c0.923,0.56,1.709,1.034,2.491,1.515c-0.021,0.028-0.043,0.057-0.065,0.09c-2.652-0.512-5.309-1.021-8.094-1.558
		c1.026-0.127,1.952-0.316,2.882-0.329c0.907-0.014,1.816,0.158,2.789,0.254c0.216-0.325-0.03-0.444-0.349-0.606
		c-0.973-0.498-1.931-1.023-2.881-1.56c-0.208-0.12-0.365-0.329-0.544-0.495c0.028-0.051,0.058-0.098,0.087-0.147
		c0.907,0.393,1.828,0.754,2.714,1.188c1.117,0.545,2.231,1.012,3.51,1.088c0.798,0.049,1.579,0.359,2.175,1.001
		c-0.093-0.39,0.011-0.779-0.593-1.029c-0.912-0.379-1.991-0.551-2.581-1.506c-0.302-0.494-0.635-0.969-0.907-1.479
		c-0.184-0.339-0.284-0.72-0.42-1.082c0.526-0.166,0.682-0.881,0.187-1.405c-0.41-0.434-0.936-0.761-1.421-1.124
		c-0.185-0.137-0.398-0.241-0.599-0.362c0.015-0.055,0.03-0.108,0.044-0.166c0.557,0.149,1.119,0.279,1.669,0.456
		c0.286,0.091,0.5,0.156,0.809-0.039c0.673-0.417,1.928-0.146,2.631,0.471c0.206,0.182,0.442,0.332,0.614,0.464
		c0.331-0.667,0.618-1.247,0.974-1.965v3.618c0.049,0.012,0.097,0.026,0.144,0.035c0.113-0.252,0.191-0.526,0.344-0.753
		c0.502-0.726,1.007-1.448,1.56-2.136c0.307-0.382,0.863-0.349,1.219-0.012c-0.087,0.068-0.208,0.119-0.252,0.206
		c-0.711,1.435-1.411,2.879-2.107,4.317c-0.015,0.03,0.025,0.093,0.068,0.229C199.33,25.524,200.077,23.961,200.825,22.4"/>
	<path clip-path="url(#SVGID_4_)" d="M199.688,47.493c0.444-0.098,0.735-0.08,0.8,0.44c0.019,0.144,0.285,0.333,0.463,0.367
		c0.635,0.124,1.28,0.18,1.918,0.281c0.606,0.098,0.844,0.479,0.836,1.083c-0.03,2.058-0.043,4.118-0.051,6.178
		c-0.003,1.165-0.255,1.571-1.368,1.871c-2.167,0.586-4.344,0.595-6.504-0.05c-0.943-0.284-1.208-0.656-1.221-1.62
		c-0.024-2.138-0.036-4.275-0.063-6.413c-0.008-0.579,0.244-0.965,0.818-1.035c1.186-0.146,2.375-0.244,3.563-0.354
		c0.248-0.022,0.497-0.005,0.76-0.005C199.659,47.958,199.671,47.746,199.688,47.493"/>
	<path clip-path="url(#SVGID_4_)" d="M202.083,36.128c1.734-1.37,3.463-2.753,5.582-3.559c0.06,0.157,0.095,0.208,0.084,0.223
		c-1.137,1.541-2.374,2.965-4.354,3.424c-0.406,0.095-0.837,0.074-1.258,0.109C202.12,36.259,202.101,36.191,202.083,36.128"/>
	<path clip-path="url(#SVGID_4_)" d="M198.016,39.589c0.086,0.169,0.169,0.337,0.255,0.505c-0.006,0.014-0.014,0.026-0.022,0.043
		c0.095,0.268,0.263,0.541,0.253,0.807c-0.006,0.132-0.337,0.252-0.66,0.475v-1.731C197.899,39.654,197.959,39.624,198.016,39.589"
		/>
	<path clip-path="url(#SVGID_4_)" d="M198.534,41.459v1.048h-0.643C197.661,41.567,197.795,41.334,198.534,41.459"/>
	<path clip-path="url(#SVGID_4_)" d="M197.994,46.997c0.679-0.204,0.892,0.02,0.918,0.544c0.017,0.354-0.07,0.626-0.453,0.545
		C197.768,47.938,198.295,47.336,197.994,46.997"/>
	<path clip-path="url(#SVGID_4_)" d="M199.425,43.059c0.115-0.391-0.34-0.935,0.324-1.084c0.528-0.117,0.364,0.354,0.392,0.624
		C200.196,43.095,199.932,43.203,199.425,43.059"/>
	<path clip-path="url(#SVGID_4_)" d="M200.411,43.951c-0.256,0.236-0.394,0.476-0.541,0.482c-0.559,0.023-0.296-0.479-0.385-0.746
		c-0.027-0.076,0.203-0.241,0.315-0.362C199.975,43.5,200.148,43.681,200.411,43.951"/>
	<path clip-path="url(#SVGID_4_)" d="M198.779,46.576c-0.467,0.166-0.741,0.111-0.725-0.342c0.011-0.247-0.244-0.714,0.242-0.691
		C198.996,45.575,198.524,46.228,198.779,46.576"/>
	<path clip-path="url(#SVGID_4_)" d="M197.717,43.214c0.242-0.191,0.377-0.391,0.529-0.403c0.435-0.038,0.329,0.337,0.359,0.584
		c0.032,0.273-0.038,0.586-0.365,0.5C198.053,43.846,197.938,43.517,197.717,43.214"/>
	<path clip-path="url(#SVGID_4_)" d="M200.225,44.603c-0.026,0.485-0.043,0.813-0.066,1.229c-0.17-0.015-0.477,0.002-0.49-0.049
		c-0.07-0.298-0.117-0.621-0.068-0.916C199.618,44.769,199.937,44.718,200.225,44.603"/>
	<path clip-path="url(#SVGID_4_)" d="M198.66,44.042c-0.047,0.501-0.079,0.843-0.117,1.247c-0.16-0.011-0.445,0-0.453-0.035
		c-0.055-0.315-0.104-0.648-0.052-0.958C198.055,44.197,198.377,44.149,198.66,44.042"/>
	<path clip-path="url(#SVGID_4_)" d="M200.449,47.273c-0.362-0.08-0.686-0.084-0.709-0.165c-0.074-0.29-0.058-0.61-0.039-0.914
		c0.001-0.033,0.335-0.097,0.346-0.074C200.178,46.439,200.282,46.773,200.449,47.273"/>
	<path clip-path="url(#SVGID_4_)" d="M203.705,56.633c0,1.45-2.047,2.632-4.57,2.632c-2.527,0-4.573-1.182-4.573-2.632
		s2.046-2.632,4.573-2.632C201.658,54.001,203.705,55.183,203.705,56.633"/>
	<path clip-path="url(#SVGID_4_)" d="M203.705,48.962c0,1.451-2.047,2.63-4.57,2.63c-2.527,0-4.573-1.179-4.573-2.63
		c0-1.453,2.046-2.631,4.573-2.631C201.658,46.332,203.705,47.509,203.705,48.962"/>
	<path clip-path="url(#SVGID_4_)" d="M159.959,57.929c-0.035,0.332-0.065,0.666-0.106,1c-0.045,0.369-0.106,0.739-0.151,1.11
		c-0.011,0.094,0.015,0.194,0.018,0.289c0.005,0.149,0.053,0.32-0.002,0.442c-0.088,0.192-0.107,0.365-0.018,0.547
		c0.038,0.08,0.112,0.144,0.169,0.215c0.061-0.055,0.154-0.1,0.179-0.169c0.089-0.259,0.185-0.522,0.227-0.792
		c0.127-0.807,0.229-1.616,0.343-2.425c0.036-0.256-0.042-0.395-0.332-0.366c-0.278,0.026-0.415-0.109-0.421-0.399
		c-0.011-0.575-0.015-1.147,0.373-1.632c0.057-0.069,0.122-0.141,0.197-0.191c0.578-0.389,0.716-1.453,0.25-1.978
		c-0.037-0.043-0.091-0.09-0.142-0.097c-0.336-0.048-0.227-0.231-0.109-0.388c0.292-0.395,0.684-0.544,1.168-0.45
		c0.493,0.094,0.825,0.369,0.927,0.867c0.059,0.29,0.089,0.585,0.112,0.879c0.027,0.391,0.075,0.745,0.29,1.112
		c0.176,0.3,0.148,0.737,0.151,1.115c0.002,0.302-0.016,0.614-0.265,0.873c-0.102,0.108-0.094,0.332-0.109,0.506
		c-0.092,1.087,0.187,2.133,0.362,3.19c0.085,0.514,0.148,1.032,0.223,1.549c0.027,0.187-0.03,0.315-0.211,0.404
		c-0.977,0.474-1.97,0.475-2.978,0.116c-0.179-0.062-0.252-0.166-0.2-0.356c0.106-0.389-0.031-0.633-0.407-0.81
		c-0.435-0.2-0.518-0.448-0.419-0.919c0.009-0.037,0.014-0.078,0.032-0.111c0.569-0.926,0.536-1.996,0.734-3.013
		c0.008-0.044,0.019-0.088,0.03-0.131C159.902,57.922,159.931,57.924,159.959,57.929"/>
	<path clip-path="url(#SVGID_4_)" d="M162.677,66.514c0.053,0.57-0.145,0.769-0.702,0.655c-0.237-0.048-0.472-0.137-0.696-0.236
		c-0.073-0.033-0.139-0.16-0.139-0.244c0.001-0.054,0.125-0.126,0.206-0.153c0.209-0.066,0.426-0.113,0.64-0.167
		c0.036-0.008,0.076-0.026,0.108-0.018C162.279,66.4,162.462,66.453,162.677,66.514"/>
	<path clip-path="url(#SVGID_4_)" d="M160.447,67.368c0.192,0.031,0.409,0.068,0.637,0.107c0.093,0.599-0.128,0.813-0.747,0.655
		c-0.226-0.057-0.447-0.144-0.656-0.246c-0.087-0.043-0.135-0.166-0.202-0.254c0.095-0.035,0.189-0.082,0.285-0.106
		C159.991,67.466,160.22,67.419,160.447,67.368"/>
	<path clip-path="url(#SVGID_4_)" d="M175.402,52.669c0.081,0.321,0.346,0.562,0.31,0.954c-0.046,0.5-0.041,1.005-0.049,1.507
		c-0.004,0.26-0.134,0.417-0.375,0.455c-0.221,0.032-0.452,0.049-0.674,0.026c-0.198-0.021-0.337-0.147-0.357-0.372
		c-0.031-0.361-0.066-0.725-0.109-1.087c-0.023-0.199-0.066-0.396-0.1-0.593c-0.037-0.004-0.073-0.008-0.109-0.012
		c-0.04,0.106-0.098,0.211-0.115,0.32c-0.054,0.34-0.104,0.683-0.131,1.026c-0.02,0.26-0.157,0.359-0.397,0.376
		c-0.518,0.039-0.787-0.207-0.807-0.713c-0.029-0.769-0.001-1.548-0.131-2.3c-0.221-1.262,0.031-2.488,0.117-3.73
		c0.016-0.226,0.055-0.445-0.146-0.63c-0.064-0.059-0.092-0.207-0.07-0.297c0.218-0.856,0.625-1.432,1.603-1.344
		c0.232,0.02,0.476-0.091,0.785-0.152c-0.023,0.122-0.009,0.266-0.074,0.345c-0.244,0.293-0.628,0.349-0.996,0.181
		c-0.143,0.389,0.035,0.618,0.436,0.562c0.396-0.054,0.609-0.33,0.756-0.666c0.845,0.399,1.442,0.95,1.407,1.959
		c-0.009,0.274,0.038,0.55,0.057,0.825c0.015,0.22-0.099,0.334-0.313,0.34c-0.215,0.007-0.432,0.001-0.698,0.001
		c0.031,0.319,0.054,0.627,0.085,0.937c0.056,0.518,0.125,1.033,0.165,1.555C175.486,52.314,175.426,52.493,175.402,52.669"/>
	<path clip-path="url(#SVGID_4_)" d="M174.426,44.982c-0.113,0.359-0.322,0.359-0.549,0.345c-0.176-0.013-0.353-0.001-0.531-0.001
		c-0.437-0.002-0.682-0.376-0.518-0.789c0.197-0.491,0.931-0.846,1.427-0.69c0.589,0.187,0.983,0.817,0.842,1.381
		c-0.027,0.109-0.165,0.191-0.251,0.285c-0.081-0.081-0.166-0.158-0.24-0.244C174.554,45.207,174.518,45.131,174.426,44.982"/>
	<path clip-path="url(#SVGID_4_)" d="M175.486,58.732c0.08,0.182,0.053,0.397-0.102,0.584c-0.338,0.405-0.781,0.588-1.306,0.549
		c-0.084-0.006-0.196-0.063-0.233-0.131c-0.028-0.052,0.022-0.178,0.076-0.232c0.246-0.254,0.502-0.498,0.759-0.738
		c0.034-0.031,0.104-0.027,0.158-0.029C175.034,58.73,175.228,58.732,175.486,58.732"/>
	<path clip-path="url(#SVGID_4_)" d="M173.307,57.743c0.088,0.373-0.362,0.851-0.858,0.931c-0.179,0.029-0.372-0.032-0.558-0.051
		c0.102-0.152,0.182-0.325,0.309-0.45c0.147-0.145,0.336-0.243,0.508-0.362c-0.033-0.021-0.067-0.045-0.099-0.067H173.307z"/>
</g>
<polygon fill="#FFFFFF" points="336.729,191.041 380.516,166.363 437.057,199.369 394.003,224.586 "/>
<polygon fill="none" stroke="#000000" stroke-linejoin="round" stroke-miterlimit="10" points="336.729,191.041 380.516,166.363 
	437.057,199.369 394.003,224.586 "/>
<polygon fill="#FFFFFF" points="336.729,191.031 336.729,193.658 394.003,227.213 394.003,224.586 "/>
<polygon fill="none" stroke="#000000" stroke-linejoin="round" stroke-miterlimit="10" points="336.729,191.031 336.729,193.658 
	394.003,227.213 394.003,224.586 "/>
<polygon fill="#FFFFFF" points="437.057,199.371 437.057,201.996 394.003,227.213 394.003,224.586 "/>
<polygon fill="none" stroke="#000000" stroke-linejoin="round" stroke-miterlimit="10" points="437.057,199.371 437.057,201.996 
	394.003,227.213 394.003,224.586 "/>
<path fill="none" stroke="#000000" stroke-linecap="round" stroke-miterlimit="10" d="M418.832,197.82v4.576 M394.379,203.707v4.576
	 M402.285,208.34v4.574"/>
<polygon points="419.758,197.896 411.461,193.217 394.004,203.637 402.236,208.34 "/>
<polygon fill="none" stroke="#FFFFFF" stroke-width="0.5" stroke-miterlimit="10" points="419.758,197.896 411.461,193.217 
	394.004,203.637 402.236,208.34 "/>
<path fill="none" stroke="#000000" stroke-linecap="round" stroke-miterlimit="10" d="M373.465,167.307v4.576 M397.505,173.195
	v4.574 M390.012,177.826v4.576"/>
<polygon points="372.539,167.383 380.834,162.703 398.293,173.123 390.061,177.826 "/>
<polygon fill="none" stroke="#FFFFFF" stroke-width="0.5" stroke-miterlimit="10" points="372.539,167.383 380.834,162.703 
	398.293,173.123 390.061,177.826 "/>
<path fill="none" stroke="#000000" stroke-linecap="round" stroke-miterlimit="10" d="M340.568,186.336v4.576 M364.607,192.223
	v4.576 M357.115,196.855v4.574"/>
<polygon points="339.641,186.412 347.938,181.73 365.396,192.152 357.163,196.855 "/>
<polygon fill="none" stroke="#FFFFFF" stroke-width="0.5" stroke-miterlimit="10" points="339.641,186.412 347.938,181.73 
	365.396,192.152 357.163,196.855 "/>
<g>
	<defs>
		<rect id="SVGID_5_" x="20" y="-107.534" width="615.751" height="422.424"/>
	</defs>
	<clipPath id="SVGID_6_">
		<use xlink:href="#SVGID_5_"  overflow="visible"/>
	</clipPath>
	<path clip-path="url(#SVGID_6_)" fill="#231F20" d="M366.174,180.5c-0.391,0.205-0.487,0.609-0.271,0.74
		c0-0.123-0.035-0.271,0.01-0.391C365.962,180.719,366.084,180.613,366.174,180.5 M369.142,182.518
		c-0.026-0.006-0.057-0.012-0.086-0.018c-0.039,0.223-0.078,0.449-0.116,0.674c0.031,0.012,0.063,0.025,0.094,0.037
		c0.088-0.047,0.175-0.098,0.211-0.115C369.205,182.873,369.176,182.695,369.142,182.518 M366.693,179.867
		c0.031-0.391,0.06-0.736,0.09-1.119C366.418,179.059,366.363,179.658,366.693,179.867 M370.924,179.846
		c-0.271,0.201-0.23,0.74,0.041,1.154c0.197,0.301,0.638,0.375,1.033,0.152C371.16,181.121,371.001,180.533,370.924,179.846
		 M367.43,180.707c0.238,0.131,0.482,0.266,0.768,0.428c0.035-0.564,0.062-1.037,0.09-1.512c-0.223-0.043-0.402-0.076-0.594-0.113
		C367.605,179.908,367.523,180.283,367.43,180.707 M374.238,180.033c-0.422,0.689-0.971,1.27-1.729,1.66
		c-0.559,0.289-1.119,0.318-1.672-0.045c-0.333-0.221-0.544-0.516-0.655-0.893c-0.038-0.127-0.067-0.258-0.101-0.387
		c-0.504,0.145-0.805,0.752-0.602,1.207c0.029,0.068,0.139,0.109,0.219,0.146c0.369,0.174,0.471,0.375,0.399,0.787
		c-0.067,0.377-0.259,0.684-0.547,0.93c-0.224,0.189-0.464,0.27-0.751,0.115c-0.309-0.162-0.35-0.422-0.314-0.721
		c0.014-0.105,0.051-0.203,0.078-0.307c-0.685,0.008-1.218-0.379-1.779-0.676c-0.238-0.127-0.418-0.283-0.738-0.145
		c-0.327,0.139-0.709-0.186-0.717-0.547c-0.014-0.525,0.228-0.938,0.64-1.234c0.16-0.115,0.21-0.234,0.211-0.416
		c0.004-0.789,0-1.578,0.034-2.365c0.027-0.633,0.318-1.145,0.906-1.412c0.572-0.262,0.908-0.762,1.324-1.184
		c0.053-0.055,0.056-0.172,0.051-0.26c-0.024-0.461-0.063-0.92-0.086-1.383c-0.01-0.211-0.058-0.373-0.246-0.512
		c-0.1-0.07-0.17-0.242-0.176-0.371c-0.049-0.943,0.504-1.512,1.438-1.543c0.284-0.012,0.562-0.121,0.856-0.186
		c0.027,0.104,0.065,0.246,0.104,0.383c-0.238-0.016-0.48-0.029-0.72-0.055c-0.366-0.041-0.474,0.07-0.378,0.424
		c0.035,0.121,0.085,0.242,0.154,0.342c0.033,0.051,0.139,0.094,0.197,0.08c0.385-0.074,0.686-0.404,0.742-0.793
		c0.645,0.197,1.146,0.557,1.391,1.213c0.102,0.277,0.215,0.549,0.32,0.824c0.145,0.365,0.078,0.527-0.293,0.674
		c-0.145,0.055-0.303,0.078-0.512,0.127c0.744,1.041,0.881,2.215,0.85,3.512c0.126,0.113,0.314,0.283,0.561,0.504
		c0.033,0.254,0.09,0.613,0.121,0.977c0.035,0.406-0.319,0.736-0.713,0.695c-0.074-0.008-0.16,0.027-0.231,0.062
		c-0.112,0.057-0.216,0.131-0.324,0.195c-0.515,0.297-0.556,0.396-0.362,0.914c0.166,0.443,0.564,0.705,0.994,0.545
		c0.383-0.145,0.77-0.359,1.067-0.633c0.177-0.164,0.332-0.344,0.464-0.535"/>
	<path clip-path="url(#SVGID_6_)" fill="#231F20" d="M370.176,169.57c0-0.012,0.028-0.135-0.02-0.191
		c-0.068-0.082-0.195-0.168-0.296-0.166c-0.45,0.006-0.899,0.066-1.349,0.059c-0.26-0.004-0.506-0.307-0.51-0.561
		c-0.002-0.062,0.055-0.146,0.108-0.186c0.161-0.107,0.347-0.186,0.499-0.305c0.59-0.465,1.14-0.504,1.626-0.094
		c0.503,0.422,0.63,1.117,0.301,1.709c-0.054,0.096-0.168,0.162-0.254,0.242c-0.035-0.111-0.073-0.221-0.106-0.33
		C370.168,169.719,370.176,169.684,370.176,169.57"/>
	<path clip-path="url(#SVGID_6_)" fill="#231F20" d="M388.791,189.746c0.056-0.145,0.109-0.287,0.143-0.377
		c0.408,0.064,0.783,0.123,1.158,0.182c0.74,0.109,1.31,0.807,0.998,1.467c-0.432,0.91-0.205,1.873-0.457,2.777
		c-0.088,0.314-0.004,0.494,0.285,0.648c0.254,0.137,0.486,0.33,0.705,0.529c0.377,0.336,0.625,0.744,0.66,1.277
		c0.057,0.838,0.166,1.674,0.211,2.512c0.02,0.338,0.157,0.561,0.391,0.781c0.136,0.129,0.209,0.326,0.31,0.494
		c-0.198,0.021-0.401,0.08-0.594,0.057c-0.494-0.068-0.785-0.367-1-1.004c-0.213,0.141-0.53,0.238-0.586,0.418
		c-0.089,0.277-0.074,0.631,0.202,0.871c0.166,0.145,0.347,0.275,0.496,0.439c0.065,0.074,0.123,0.227,0.093,0.301
		c-0.031,0.074-0.183,0.137-0.282,0.137c-0.5,0.002-0.975-0.107-1.298-0.521c-0.14-0.178-0.196-0.424-0.293-0.645
		c0.004,0-0.009-0.004-0.015,0c-0.396,0.328-0.734,0.141-1.099-0.088c-0.532-0.336-1.084-0.645-1.636-0.947
		c-0.21-0.115-0.296-0.258-0.292-0.502c0.017-0.756,0.001-1.512,0.017-2.27c0.004-0.178,0.084-0.354,0.164-0.523
		c-0.295-1.008-0.171-1.623,0.072-2.414c0.107,0.297,0.186,0.588,0.312,0.854c0.395,0.848,1.075,1.41,1.879,1.844
		c0.082,0.043,0.177,0.074,0.269,0.09c0.063,0.008,0.162,0,0.196-0.043c0.033-0.039,0.027-0.145,0-0.199
		c-0.102-0.207-0.244-0.354-0.442-0.502c-0.748-0.576-1.231-1.338-1.332-2.303c-0.012-0.125,0.027-0.262-0.01-0.375
		c-0.03-0.094-0.124-0.189-0.214-0.234c-0.098-0.049-0.223-0.043-0.338-0.064c-0.277-0.049-0.367-0.219-0.295-0.48
		c0.1-0.355,0.19-0.711,0.313-1.057c0.224-0.617,0.722-0.932,1.312-1.133c-0.026,0.355,0.193,0.51,0.49,0.592
		c0.225,0.061,0.457,0.059,0.588-0.16c0.066-0.111,0.086-0.283,0.049-0.406c-0.018-0.059-0.209-0.098-0.321-0.094
		C389.33,189.682,389.061,189.721,388.791,189.746"/>
	<path clip-path="url(#SVGID_6_)" fill="#231F20" d="M391.236,187.822c-0.16,0.373-0.343,0.492-0.74,0.488
		c-0.672-0.01-0.672-0.01-1.016,0.152c-0.039-0.051-0.078-0.107-0.121-0.16c-0.136-0.168-0.233-0.111-0.295,0.057
		c-0.039,0.107-0.037,0.23-0.08,0.336c-0.031,0.08-0.102,0.146-0.154,0.217c-0.068-0.059-0.158-0.102-0.2-0.174
		c-0.239-0.418-0.121-1.066,0.252-1.455c0.379-0.396,0.864-0.488,1.349-0.242c0.148,0.076,0.28,0.18,0.411,0.287
		C390.838,187.48,391.025,187.643,391.236,187.822"/>
	<path clip-path="url(#SVGID_6_)" fill="#231F20" d="M398.293,190.393c-0.287,0.6-0.562,1.209-0.615,1.887
		c-0.062,0.783-0.092,1.572-0.129,2.355c-0.018,0.361-0.108,0.469-0.439,0.471c-0.355,0-0.511-0.141-0.51-0.48
		c0.004-1.814-0.09-3.633,0.297-5.43c0.036-0.164-0.002-0.352-0.023-0.525c-0.117-0.943-0.011-1.877,0.135-2.854
		c0.394,0.221,0.738,0.432,1.099,0.613c0.329,0.164,0.672,0.301,1.01,0.439c0.421,0.172,0.834,0.213,1.263-0.207
		c0,0.203,0.002,0.301-0.002,0.4c-0.017,0.588-0.025,1.176-0.057,1.762c-0.014,0.27-0.029,0.553-0.12,0.803
		c-0.457,1.258-0.403,2.512-0.039,3.775c0.119,0.414,0.23,0.83,0.343,1.246c0.1,0.363,0.03,0.521-0.261,0.623
		c-0.339,0.117-0.554,0.037-0.68-0.295c-0.327-0.863-0.683-1.723-0.937-2.605c-0.158-0.545-0.154-1.137-0.223-1.709
		c-0.008-0.082-0.01-0.162-0.018-0.244C398.354,190.412,398.323,190.402,398.293,190.393"/>
	<path clip-path="url(#SVGID_6_)" fill="#231F20" d="M399.432,182.662c0.453,0.236,0.916,0.463,1.356,0.723
		c0.291,0.172,0.448,0.461,0.422,0.799c-0.038,0.488-0.114,0.975-0.176,1.463c-0.027,0.213-0.147,0.287-0.354,0.229
		c-0.102-0.027-0.209-0.039-0.302-0.084c-0.173-0.088-0.274-0.064-0.381,0.115c-0.162,0.277-0.41,0.363-0.728,0.246
		c-0.404-0.146-0.826-0.252-1.223-0.42c-0.23-0.096-0.404-0.336-0.638-0.414c-0.394-0.129-0.261-0.445-0.341-0.697
		c-0.148-0.463-0.549-0.697-0.939-0.932c-0.373-0.221-0.423-0.547-0.086-0.824c0.12-0.098,0.333-0.152,0.486-0.129
		c0.677,0.113,1.324,0.023,1.971-0.18c0.266-0.082,0.553-0.096,0.872-0.148c0.017,0.068,0.039,0.16,0.063,0.258
		c-0.484,0.463-0.724,0.508-1.211,0.156c0.047,0.242,0.023,0.473,0.127,0.57c0.107,0.104,0.346,0.133,0.511,0.107
		C399.264,183.43,399.385,183.221,399.432,182.662"/>
	<path clip-path="url(#SVGID_6_)" fill="#231F20" d="M398.986,181.637c-0.025-0.053-0.066-0.102-0.078-0.152
		c-0.045-0.232-0.201-0.279-0.4-0.248c-0.176,0.025-0.35,0.072-0.528,0.088c-0.409,0.033-0.585-0.213-0.433-0.596
		c0.162-0.406,0.845-0.812,1.29-0.764c0.485,0.053,0.983,0.475,1.034,0.961c0.031,0.301-0.055,0.611-0.113,0.914
		c-0.01,0.061-0.133,0.1-0.206,0.146c-0.038-0.07-0.09-0.133-0.112-0.207c-0.044-0.154-0.074-0.312-0.109-0.467
		C399.22,181.414,399.111,181.52,398.986,181.637"/>
	<path clip-path="url(#SVGID_6_)" fill="#231F20" d="M400.689,195.441c0.18,0.592-0.238,1.35-0.781,1.461
		c-0.265,0.053-0.41-0.145-0.319-0.438c0.086-0.277,0.183-0.551,0.276-0.836C400.105,195.576,400.382,195.51,400.689,195.441"/>
	<path clip-path="url(#SVGID_6_)" fill="#231F20" d="M397.541,195.316c0.039,0.328-0.156,0.6-0.451,0.744
		c-0.271,0.135-0.59,0.178-0.895,0.232c-0.076,0.014-0.219-0.066-0.244-0.135c-0.027-0.072,0.029-0.205,0.092-0.271
		c0.189-0.191,0.398-0.367,0.605-0.541c0.033-0.027,0.094-0.027,0.143-0.027C397.032,195.314,397.276,195.316,397.541,195.316"/>
</g>
<line fill="none" stroke="#000000" stroke-linecap="round" stroke-miterlimit="10" x1="386.527" y1="199.135" x2="386.527" y2="203.707"/>
<polygon points="411.494,193.32 403.198,188.641 385.74,199.061 393.973,203.764 "/>
<polygon fill="none" stroke="#FFFFFF" stroke-width="0.5" stroke-miterlimit="10" points="411.494,193.32 403.198,188.641 
	385.74,199.061 393.973,203.764 "/>
<path fill="none" stroke="#000000" stroke-linecap="round" stroke-miterlimit="10" d="M356.819,177.156v4.576 M380.859,183.045
	v4.574 M373.367,187.676v4.574"/>
<polygon points="355.893,177.23 364.189,172.553 381.646,182.973 373.416,187.676 "/>
<polygon fill="none" stroke="#FFFFFF" stroke-width="0.5" stroke-miterlimit="10" points="355.893,177.23 364.189,172.553 
	381.646,182.973 373.416,187.676 "/>
<polygon fill="#FFFFFF" points="314.156,53.509 348.229,33.913 367.24,45.009 333.414,64.786 "/>
<polygon fill="none" stroke="#000000" stroke-linejoin="round" stroke-miterlimit="10" points="314.156,53.509 348.229,33.913 
	367.24,45.009 333.414,64.786 "/>
<polygon fill="#FFFFFF" points="314.156,53.504 314.156,83.53 333.414,94.812 333.414,64.786 "/>
<polygon fill="none" stroke="#000000" stroke-linejoin="round" stroke-miterlimit="10" points="314.156,53.504 314.156,83.53 
	333.414,94.812 333.414,64.786 "/>
<polygon fill="#FFFFFF" points="367.24,45.004 367.24,75.03 333.414,94.812 333.414,64.786 "/>
<polygon fill="none" stroke="#000000" stroke-linejoin="round" stroke-miterlimit="10" points="367.24,45.004 367.24,75.03 
	333.414,94.812 333.414,64.786 "/>
<polygon points="315.721,64.787 315.721,78.774 328.088,86.021 328.088,72.033 "/>
<polygon points="363.797,61.507 363.797,73.439 350.352,81.302 350.352,69.368 "/>
<polygon points="345.662,68.192 345.662,85.423 336.68,91.129 336.68,73.897 "/>
<polygon points="351.223,57.434 359.452,52.583 370.551,58.99 362.489,63.965 "/>
<polygon fill="none" stroke="#FFFFFF" stroke-miterlimit="10" points="351.223,57.434 359.452,52.583 370.551,58.99 362.489,63.965 
	"/>
<polygon points="334.268,66.922 342.497,62.071 353.596,68.479 345.535,73.455 "/>
<polygon fill="none" stroke="#FFFFFF" stroke-miterlimit="10" points="334.268,66.922 342.497,62.071 353.596,68.479 
	345.535,73.455 "/>
<g>
	<defs>
		<rect id="SVGID_7_" x="20" y="-107.534" width="615.751" height="422.424"/>
	</defs>
	<clipPath id="SVGID_8_">
		<use xlink:href="#SVGID_7_"  overflow="visible"/>
	</clipPath>
	<path clip-path="url(#SVGID_8_)" d="M345.516,73.628c0,0,0.732,1.885,3.047,1.243c4.504-1.243,4.842-6.414,4.842-6.414
		L345.516,73.628z"/>
	<path clip-path="url(#SVGID_8_)" fill="none" stroke="#FFFFFF" stroke-miterlimit="10" d="M345.516,73.628
		c0,0,0.732,1.885,3.047,1.243c4.504-1.243,4.842-6.414,4.842-6.414L345.516,73.628z"/>
	<path clip-path="url(#SVGID_8_)" fill="#FFFFFF" d="M354.184,68.53c0,0,0.732,1.886,3.047,1.246
		c4.504-1.246,4.844-6.416,4.844-6.416L354.184,68.53z"/>
	<path clip-path="url(#SVGID_8_)" fill="none" stroke="#000000" stroke-linejoin="round" stroke-miterlimit="10" d="M354.184,68.53
		c0,0,0.732,1.886,3.047,1.246c4.504-1.246,4.844-6.416,4.844-6.416L354.184,68.53z"/>
	<path clip-path="url(#SVGID_8_)" d="M362.074,63.967c0,0,0.731,1.886,3.047,1.244c4.504-1.244,4.84-6.412,4.84-6.412
		L362.074,63.967z"/>
	<path clip-path="url(#SVGID_8_)" fill="none" stroke="#FFFFFF" stroke-miterlimit="10" d="M362.074,63.967
		c0,0,0.731,1.886,3.047,1.244c4.504-1.244,4.84-6.412,4.84-6.412L362.074,63.967z"/>
	<path clip-path="url(#SVGID_8_)" fill="#FFFFFF" d="M370.787,59.375c0,0,0.732,1.887,3.047,1.246
		c4.504-1.246,4.842-6.416,4.842-6.416L370.787,59.375z"/>
	<path clip-path="url(#SVGID_8_)" fill="none" stroke="#000000" stroke-linejoin="round" stroke-miterlimit="10" d="M370.787,59.375
		c0,0,0.732,1.887,3.047,1.246c4.504-1.246,4.842-6.416,4.842-6.416L370.787,59.375z"/>
</g>
<polygon fill="#FFFFFF" points="229.052,145.863 229.052,168.91 192.759,190.168 192.759,167.121 "/>
<polygon fill="none" stroke="#000000" stroke-miterlimit="10" points="229.052,145.863 229.052,168.91 192.759,190.168 
	192.759,167.121 "/>
<polygon points="235.589,170.672 231.903,168.57 219.052,176.148 222.667,178.277 "/>
<polygon fill="none" stroke="#FFFFFF" stroke-width="0.5" stroke-miterlimit="10" points="235.589,170.672 231.903,168.57 
	219.052,176.148 222.667,178.277 "/>
<polygon points="235.589,170.672 235.589,179.25 222.667,186.857 222.667,178.277 "/>
<polygon fill="none" stroke="#FFFFFF" stroke-width="0.5" stroke-miterlimit="10" points="235.589,170.672 235.589,179.25 
	222.667,186.857 222.667,178.277 "/>
<polygon points="219.052,176.146 219.052,184.725 222.667,186.855 222.667,178.279 "/>
<polygon fill="none" stroke="#FFFFFF" stroke-width="0.5" stroke-miterlimit="10" points="219.052,176.146 219.052,184.725 
	222.667,186.855 222.667,178.279 "/>
<path fill="none" stroke="#000000" stroke-linecap="round" stroke-miterlimit="10" d="M244.05,183.414v5.807 M251.691,186.361v5.805
	 M195.502,192.99v5.807 M210.919,192.99v5.807 M203.143,195.938v5.807"/>
<g>
	<defs>
		<rect id="SVGID_9_" x="20" y="-107.534" width="615.751" height="422.424"/>
	</defs>
	<clipPath id="SVGID_10_">
		<use xlink:href="#SVGID_9_"  overflow="visible"/>
	</clipPath>
	<path clip-path="url(#SVGID_10_)" d="M260.925,183.416c0,2.254-4.104,4.08-9.167,4.08s-9.167-1.826-9.167-4.08
		c0-2.258,4.104-4.086,9.167-4.086S260.925,181.158,260.925,183.416"/>
	<path clip-path="url(#SVGID_10_)" fill="none" stroke="#FFFFFF" stroke-width="0.5" stroke-miterlimit="10" d="M260.925,183.416
		c0,2.254-4.104,4.08-9.167,4.08s-9.167-1.826-9.167-4.08c0-2.258,4.104-4.086,9.167-4.086S260.925,181.158,260.925,183.416z"/>
	<path clip-path="url(#SVGID_10_)" d="M212.378,192.992c0,2.254-4.104,4.08-9.167,4.08s-9.167-1.826-9.167-4.08
		c0-2.258,4.104-4.084,9.167-4.084S212.378,190.734,212.378,192.992"/>
	<path clip-path="url(#SVGID_10_)" fill="none" stroke="#FFFFFF" stroke-width="0.5" stroke-miterlimit="10" d="M212.378,192.992
		c0,2.254-4.104,4.08-9.167,4.08s-9.167-1.826-9.167-4.08c0-2.258,4.104-4.084,9.167-4.084S212.378,190.734,212.378,192.992z"/>
	<path clip-path="url(#SVGID_10_)" fill="#231F20" d="M235.104,171.996c-0.171-0.074-0.341-0.148-0.493-0.215
		c0.257-0.094,0.511-0.184,0.763-0.275c-0.04-0.062-0.08-0.121-0.13-0.199c0.163-0.096,0.315-0.215,0.487-0.273
		c0.108-0.037,0.247,0.014,0.372,0.025c0.139,0.012,0.278,0.025,0.401,0.035c0.161,0.1,0.327,0.205,0.493,0.309
		c0.073-0.197,0.204-0.395,0.208-0.596c0.03-1.109,0.552-1.92,1.441-2.539c0.188-0.129,0.338-0.314,0.531-0.5
		c-0.473-0.346-0.578-0.779-0.537-1.271c0.033-0.43-0.08-0.816-0.345-1.158c-0.247-0.318-0.362-0.654-0.128-1.033
		c0.178-0.287,0.565-0.424,1.007-0.26c0.579,0.213,1.161,0.449,1.697,0.756c0.664,0.379,0.861,1.016,0.658,1.758
		c-0.128,0.467-0.238,0.938-0.76,1.229c1.412,0.514,1.498,1.723,1.577,2.871c0.116,1.707-0.071,3.406-0.222,5.107
		c-0.144,1.631-0.179,3.273-0.23,4.91c-0.031,1.014-0.004,2.029-0.002,3.043c0,0.039,0,0.08-0.002,0.119
		c-0.026,0.799-0.276,1.014-1.051,0.84c-0.361-0.082-0.709-0.227-1.049-0.379c-0.107-0.047-0.162-0.213-0.241-0.324
		c0.118-0.07,0.233-0.146,0.356-0.201c0.055-0.025,0.132-0.004,0.198-0.006c0.518-0.01,0.584-0.092,0.518-0.59
		c-0.204-1.561-0.401-3.119-0.606-4.676c-0.016-0.121-0.072-0.238-0.117-0.377c-0.383,0.146-0.363,0.463-0.389,0.717
		c-0.077,0.768-0.124,1.541-0.176,2.312c-0.109,1.635-0.212,3.27-0.326,4.904c-0.042,0.607-0.363,0.893-0.953,0.768
		c-0.477-0.102-0.938-0.289-1.394-0.473c-0.107-0.043-0.164-0.215-0.242-0.328c0.122-0.082,0.239-0.219,0.37-0.238
		c0.844-0.121,0.853-0.113,0.829-0.988c-0.071-2.559-0.137-5.117-0.231-7.676c-0.015-0.402-0.228-0.797-0.242-1.199
		c-0.025-0.719-0.113-1.25-0.941-1.586c-0.581-0.234-1.014-0.877-1.459-1.383C234.326,172.48,234.462,172.182,235.104,171.996"/>
	<path clip-path="url(#SVGID_10_)" d="M248.418,210.346c-0.171-0.072-0.341-0.146-0.493-0.215c0.257-0.092,0.512-0.182,0.763-0.273
		c-0.04-0.062-0.08-0.123-0.13-0.199c0.163-0.096,0.315-0.215,0.487-0.275c0.108-0.037,0.247,0.016,0.372,0.027
		c0.139,0.01,0.278,0.023,0.401,0.035c0.161,0.1,0.328,0.205,0.494,0.309c0.072-0.199,0.203-0.396,0.208-0.596
		c0.029-1.111,0.551-1.92,1.44-2.541c0.188-0.129,0.338-0.314,0.531-0.498c-0.472-0.346-0.578-0.779-0.537-1.273
		c0.033-0.428-0.08-0.814-0.345-1.156c-0.247-0.32-0.362-0.656-0.128-1.033c0.178-0.287,0.565-0.424,1.007-0.262
		c0.579,0.215,1.161,0.449,1.697,0.758c0.664,0.379,0.861,1.014,0.658,1.758c-0.128,0.465-0.238,0.936-0.76,1.227
		c1.412,0.516,1.498,1.725,1.577,2.873c0.116,1.705-0.071,3.404-0.222,5.107c-0.144,1.629-0.179,3.271-0.23,4.91
		c-0.031,1.012-0.004,2.027-0.002,3.041c0,0.041,0,0.08-0.002,0.121c-0.026,0.799-0.276,1.012-1.051,0.838
		c-0.361-0.08-0.709-0.227-1.049-0.377c-0.107-0.049-0.162-0.213-0.241-0.324c0.118-0.07,0.233-0.148,0.356-0.203
		c0.055-0.023,0.132-0.004,0.198-0.004c0.518-0.012,0.584-0.092,0.519-0.59c-0.205-1.561-0.402-3.119-0.607-4.676
		c-0.016-0.123-0.072-0.238-0.117-0.377c-0.383,0.145-0.363,0.461-0.389,0.717c-0.077,0.768-0.124,1.541-0.176,2.311
		c-0.109,1.635-0.212,3.271-0.326,4.906c-0.042,0.607-0.363,0.891-0.953,0.766c-0.477-0.1-0.938-0.289-1.394-0.471
		c-0.107-0.043-0.163-0.215-0.242-0.328c0.122-0.084,0.239-0.219,0.371-0.24c0.843-0.119,0.852-0.111,0.828-0.986
		c-0.071-2.561-0.137-5.119-0.231-7.678c-0.014-0.4-0.228-0.797-0.242-1.197c-0.025-0.721-0.113-1.252-0.941-1.586
		c-0.58-0.236-1.014-0.877-1.459-1.385C247.641,210.83,247.776,210.531,248.418,210.346"/>
	<path clip-path="url(#SVGID_10_)" d="M233.126,187.99c-0.026-0.041-0.054-0.084-0.08-0.125c-0.346,0.209-0.73,0.375-1.024,0.641
		c-0.209,0.189-0.07,0.387,0.231,0.385C232.692,188.883,233.058,188.508,233.126,187.99 M232.68,187.477
		c0.179-0.123,0.468-0.209,0.521-0.375c0.26-0.807-0.429-1.676-1.285-1.676c-0.613,0-0.87,0.336-0.713,0.932
		C231.381,187.037,231.846,187.377,232.68,187.477 M233.826,192.162c0.242,1.318,0.053,2.561-0.419,3.801
		c0.603,0.053,0.592-0.504,0.86-0.734c0.687,0.93,0.767,2.055,1.088,3.092c0.037,0.121-0.07,0.365-0.185,0.441
		c-0.614,0.398-1.254,0.758-1.878,1.141c-0.247,0.152-0.468,0.168-0.686-0.045c-0.066-0.062-0.148-0.121-0.233-0.154
		c-0.453-0.174-0.595-0.49-0.449-0.945c0.072-0.225-0.055-0.295-0.235-0.379c-0.308-0.145-0.636-0.283-0.895-0.496
		c-0.481-0.395-0.659-0.877-0.423-1.527c0.277-0.758,0.509-1.547,0.661-2.34c0.103-0.537,0.148-1.131,0.02-1.656
		c-0.256-1.061-0.3-2.088-0.001-3.141c0.132-0.469,0.195-0.957,0.259-1.443c0.03-0.217,0.005-0.449-0.04-0.668
		c-0.071-0.35-0.202-0.688-0.272-1.041c-0.233-1.156,0.617-2.162,1.799-2.141c0.834,0.012,1.489,0.605,1.513,1.445
		c0.03,1.062,0.231,2.08,0.548,3.094c0.114,0.365,0.01,0.799,0.019,1.201c0.004,0.17,0.07,0.34,0.062,0.508
		c-0.031,0.609-0.067,1.219-0.136,1.828c-0.01,0.094-0.202,0.221-0.32,0.232C234.293,192.258,234.095,192.197,233.826,192.162"/>
	<path clip-path="url(#SVGID_10_)" d="M232.947,204.488c0.391-0.045,0.682-0.078,1.018-0.117c0.101,0.225,0.013,0.488-0.18,0.723
		c-0.38,0.457-0.89,0.605-1.463,0.551c-0.103-0.01-0.27-0.094-0.277-0.162c-0.016-0.105,0.049-0.26,0.132-0.336
		C232.445,204.893,232.737,204.666,232.947,204.488"/>
	<path clip-path="url(#SVGID_10_)" d="M230.869,203.184h0.803c0.109,0.393,0.013,0.723-0.421,0.936
		c-0.331,0.162-0.728,0.197-1.101,0.258c-0.086,0.014-0.252-0.084-0.27-0.158c-0.022-0.086,0.053-0.229,0.13-0.301
		C230.278,203.668,230.567,203.438,230.869,203.184"/>
	<path clip-path="url(#SVGID_10_)" d="M242.89,191.543c-0.027-0.041-0.054-0.084-0.08-0.125c-0.346,0.209-0.73,0.373-1.024,0.641
		c-0.209,0.188-0.07,0.387,0.231,0.383C242.456,192.436,242.821,192.059,242.89,191.543 M242.443,191.029
		c0.179-0.123,0.468-0.211,0.521-0.377c0.26-0.807-0.429-1.674-1.285-1.676c-0.613,0-0.87,0.336-0.713,0.934
		C241.145,190.588,241.609,190.93,242.443,191.029 M243.589,195.715c0.242,1.318,0.053,2.561-0.419,3.801
		c0.603,0.051,0.592-0.504,0.86-0.734c0.687,0.928,0.767,2.053,1.088,3.092c0.037,0.119-0.07,0.365-0.185,0.439
		c-0.614,0.4-1.254,0.758-1.878,1.141c-0.247,0.152-0.468,0.17-0.686-0.043c-0.066-0.064-0.148-0.121-0.233-0.154
		c-0.453-0.176-0.595-0.492-0.449-0.945c0.072-0.225-0.055-0.297-0.235-0.379c-0.308-0.145-0.636-0.285-0.895-0.498
		c-0.481-0.395-0.659-0.877-0.423-1.525c0.277-0.76,0.509-1.547,0.661-2.34c0.103-0.537,0.148-1.133,0.02-1.656
		c-0.256-1.061-0.3-2.09-0.001-3.143c0.132-0.469,0.195-0.957,0.259-1.441c0.03-0.217,0.005-0.451-0.04-0.668
		c-0.071-0.352-0.202-0.689-0.272-1.041c-0.233-1.156,0.617-2.162,1.799-2.143c0.834,0.014,1.489,0.605,1.513,1.447
		c0.03,1.062,0.231,2.08,0.548,3.094c0.114,0.365,0.01,0.797,0.019,1.199c0.004,0.17,0.07,0.34,0.062,0.508
		c-0.031,0.609-0.067,1.221-0.136,1.828c-0.01,0.094-0.202,0.221-0.32,0.234C244.057,195.809,243.858,195.748,243.589,195.715"/>
	<path clip-path="url(#SVGID_10_)" d="M242.71,208.041c0.391-0.047,0.682-0.08,1.018-0.119c0.101,0.227,0.013,0.49-0.18,0.723
		c-0.38,0.459-0.89,0.605-1.463,0.553c-0.103-0.01-0.27-0.094-0.277-0.162c-0.016-0.105,0.049-0.26,0.132-0.338
		C242.208,208.445,242.5,208.217,242.71,208.041"/>
	<path clip-path="url(#SVGID_10_)" d="M240.632,206.736h0.803c0.109,0.391,0.013,0.721-0.421,0.934
		c-0.331,0.162-0.728,0.199-1.101,0.26c-0.086,0.014-0.252-0.084-0.27-0.158c-0.022-0.086,0.053-0.229,0.13-0.301
		C240.042,207.219,240.331,206.99,240.632,206.736"/>
	<path clip-path="url(#SVGID_10_)" d="M226.846,204.225c-0.364,0.762-0.713,1.533-0.781,2.393c-0.078,0.996-0.116,1.996-0.164,2.992
		c-0.022,0.459-0.137,0.594-0.557,0.594c-0.452,0.002-0.65-0.174-0.648-0.607c0.004-2.303-0.114-4.611,0.377-6.893
		c0.045-0.209-0.003-0.443-0.031-0.664c-0.148-1.199-0.011-2.381,0.173-3.625c0.499,0.283,0.936,0.551,1.394,0.781
		c0.417,0.211,0.852,0.381,1.282,0.557c0.534,0.219,1.059,0.273,1.601-0.262c0,0.258,0.002,0.383-0.001,0.506
		c-0.022,0.748-0.034,1.494-0.073,2.238c-0.017,0.344-0.037,0.703-0.152,1.02c-0.58,1.598-0.513,3.189-0.05,4.789
		c0.151,0.527,0.292,1.053,0.436,1.58c0.125,0.463,0.039,0.666-0.331,0.793c-0.43,0.15-0.704,0.047-0.863-0.375
		c-0.415-1.094-0.866-2.184-1.19-3.307c-0.2-0.693-0.195-1.443-0.28-2.168c-0.012-0.104-0.015-0.205-0.023-0.309
		C226.924,204.248,226.884,204.236,226.846,204.225"/>
	<path clip-path="url(#SVGID_10_)" d="M228.29,194.414c0.576,0.303,1.164,0.588,1.723,0.916c0.369,0.217,0.568,0.586,0.535,1.014
		c-0.048,0.621-0.146,1.24-0.223,1.857c-0.035,0.271-0.187,0.365-0.449,0.289c-0.129-0.035-0.267-0.049-0.384-0.105
		c-0.219-0.111-0.348-0.08-0.482,0.146c-0.206,0.354-0.521,0.461-0.925,0.312c-0.514-0.188-1.049-0.32-1.551-0.533
		c-0.293-0.123-0.513-0.426-0.809-0.525c-0.499-0.164-0.331-0.564-0.433-0.885c-0.188-0.588-0.697-0.885-1.192-1.182
		c-0.473-0.283-0.537-0.695-0.109-1.045c0.153-0.125,0.422-0.197,0.615-0.164c0.861,0.143,1.682,0.025,2.503-0.23
		c0.337-0.104,0.701-0.123,1.107-0.188c0.021,0.086,0.05,0.205,0.079,0.326c-0.613,0.588-0.917,0.645-1.535,0.201
		c0.059,0.307,0.03,0.598,0.16,0.723c0.138,0.131,0.438,0.17,0.647,0.135C228.076,195.387,228.229,195.121,228.29,194.414"/>
	<path clip-path="url(#SVGID_10_)" d="M227.725,193.109c-0.033-0.062-0.085-0.125-0.1-0.191c-0.056-0.293-0.254-0.354-0.507-0.316
		c-0.223,0.033-0.444,0.094-0.669,0.113c-0.521,0.041-0.744-0.27-0.55-0.756c0.204-0.514,1.072-1.029,1.637-0.967
		c0.617,0.064,1.248,0.598,1.313,1.221c0.039,0.377-0.069,0.775-0.144,1.158c-0.013,0.076-0.171,0.125-0.261,0.184
		c-0.049-0.088-0.115-0.17-0.143-0.262c-0.056-0.195-0.095-0.395-0.14-0.592C228.022,192.832,227.883,192.963,227.725,193.109"/>
	<path clip-path="url(#SVGID_10_)" d="M229.886,210.633c0.229,0.75-0.302,1.713-0.991,1.852c-0.335,0.068-0.522-0.18-0.405-0.551
		c0.11-0.354,0.232-0.701,0.35-1.064C229.145,210.803,229.496,210.721,229.886,210.633"/>
	<path clip-path="url(#SVGID_10_)" d="M225.89,210.473c0.051,0.42-0.198,0.762-0.572,0.945c-0.343,0.17-0.749,0.227-1.134,0.295
		c-0.097,0.018-0.278-0.084-0.311-0.172c-0.034-0.09,0.038-0.26,0.117-0.342c0.241-0.246,0.506-0.465,0.769-0.689
		c0.04-0.033,0.118-0.035,0.179-0.035C225.246,210.471,225.555,210.473,225.89,210.473"/>
	<path clip-path="url(#SVGID_10_)" d="M210.271,192.74c-0.238-0.318-0.508-0.574-0.65-0.891c-0.272-0.604-0.272-1.236,0.176-1.771
		c0.462-0.553,1.103-0.719,1.776-0.553c0.364,0.092,0.71,0.33,1.018,0.562c0.178,0.133,0.224,0.365-0.099,0.48
		c-0.3,0.109-0.287,0.383-0.28,0.643c0.008,0.217,0.005,0.42-0.325,0.32c-0.05-0.016-0.213,0.139-0.21,0.211
		c0.006,0.238,0.16,0.523,0.076,0.701c-0.087,0.182-0.392,0.258-0.581,0.365c0.23,0.016,0.582-0.074,0.734,0.064
		c0.845,0.764,1.842,1.455,1.81,2.795c0,0.012,0.002,0.025,0.002,0.039c0.051,0.926-0.144,1.15-1.078,1.244
		c-0.064,0.008-0.128,0.018-0.252,0.033c0.186,0.789,0.375,1.551,0.987,2.098c0.209,0.186,0.275,0.357,0.265,0.613
		c-0.107,2.996-0.21,5.99-0.315,8.984c-0.015,0.439-0.031,0.879-0.07,1.316c-0.027,0.311,0.096,0.445,0.399,0.453
		c0.199,0.006,0.402,0.008,0.594,0.055c0.097,0.021,0.21,0.131,0.24,0.225c0.022,0.064-0.067,0.209-0.143,0.252
		c-0.584,0.334-1.199,0.59-1.892,0.527c-0.33-0.027-0.491-0.256-0.522-0.564c-0.058-0.568-0.105-1.141-0.143-1.713
		c-0.117-1.754-0.224-3.51-0.343-5.264c-0.016-0.223-0.066-0.447-0.133-0.662c-0.024-0.076-0.148-0.123-0.227-0.184
		c-0.052,0.082-0.144,0.158-0.156,0.246c-0.143,1.043-0.277,2.088-0.41,3.129c-0.07,0.543-0.13,1.086-0.205,1.625
		c-0.07,0.498,0.008,0.582,0.5,0.627c0.197,0.016,0.386,0.133,0.58,0.205c-0.159,0.141-0.294,0.34-0.48,0.414
		c-0.354,0.143-0.732,0.256-1.109,0.303c-0.501,0.061-0.636-0.07-0.725-0.572c-0.03-0.17-0.026-0.346-0.03-0.518
		c-0.025-2.014-0.013-4.027-0.087-6.039c-0.046-1.275-0.235-2.545-0.329-3.82c-0.103-1.422-0.142-2.85,0.121-4.262
		c0.143-0.764,0.539-1.348,1.32-1.605C210.148,192.83,210.21,192.775,210.271,192.74"/>
	<path clip-path="url(#SVGID_10_)" d="M221.494,198.527c-0.049-0.092-0.059-0.123-0.069-0.123c-0.389-0.004-0.779-0.002-1.17-0.002
		c0,0.01-0.001,0.021-0.002,0.029C220.65,198.463,221.047,198.494,221.494,198.527 M220.035,189.631
		c-0.047,0.02-0.096,0.041-0.145,0.062c0.048,0.197,0.033,0.469,0.158,0.574c0.141,0.117,0.424,0.148,0.615,0.1
		c0.361-0.09,0.596-0.35,0.682-0.801C220.878,189.68,220.474,190.17,220.035,189.631 M221.345,189.037
		c0.156,0.188,0.285,0.393,0.459,0.543c0.264,0.225,0.553,0.42,0.841,0.609c0.516,0.344,0.79,0.832,0.841,1.432
		c0.049,0.584,0.052,1.172,0.062,1.756c0.013,0.717-0.347,0.969-1.029,0.738c-0.072-0.025-0.141-0.059-0.24-0.102
		c0.127,0.906,0.263,1.77,0.365,2.639c0.059,0.504,0.256,1.027-0.106,1.508c-0.029,0.039-0.023,0.143,0.007,0.186
		c0.472,0.654,0.251,1.396,0.247,2.098c-0.003,1.092-0.09,2.184-0.127,3.275c-0.029,0.891-0.006,1.785-0.073,2.672
		c-0.02,0.266-0.227,0.559-0.427,0.764c-0.382,0.393-0.909,0.486-1.437,0.492c-0.134,0-0.348-0.096-0.383-0.197
		c-0.037-0.107,0.094-0.273,0.154-0.412c0.009-0.023,0.035-0.039,0.059-0.053c0.707-0.432,0.902-1.021,0.791-1.857
		c-0.248-1.861-0.387-3.734-0.57-5.604c-0.005-0.053,0.002-0.115-0.023-0.156c-0.069-0.115-0.153-0.225-0.231-0.334
		c-0.078,0.113-0.205,0.217-0.225,0.34c-0.135,0.881-0.254,1.766-0.366,2.65c-0.123,0.965-0.253,1.928-0.343,2.896
		c-0.072,0.775-1.13,1.252-1.82,1.1c-0.25-0.053-0.277-0.223-0.137-0.42c0.039-0.055,0.086-0.109,0.142-0.139
		c0.732-0.4,0.881-1.033,0.852-1.818c-0.047-1.238,0.054-2.482-0.008-3.717c-0.05-1.027-0.286-2.045-0.363-3.072
		c-0.056-0.727-0.002-1.463,0.037-2.191c0.047-0.865,0.133-1.727,0.194-2.59c0.008-0.129,0.031-0.311-0.039-0.385
		c-0.492-0.506-0.121-0.977,0.056-1.436c0.194-0.504,0.527-0.898,1.095-1.016c0.169-0.035,0.34-0.062,0.513-0.082
		C220.54,189.109,220.97,189.072,221.345,189.037"/>
	<path clip-path="url(#SVGID_10_)" d="M220.771,187.926c-0.32-0.348-0.768-0.232-1.221-0.188c-0.479,0.047-0.774-0.178-0.954-0.66
		c0.347-0.283,0.681-0.586,1.044-0.844c0.62-0.438,1.313-0.408,1.844,0.049c0.553,0.475,0.766,1.305,0.473,1.922
		c-0.057,0.119-0.188,0.203-0.286,0.303c-0.077-0.109-0.158-0.221-0.231-0.334c-0.021-0.031-0.015-0.078-0.03-0.115
		c-0.065-0.15-0.131-0.299-0.198-0.447C221.083,187.701,220.957,187.793,220.771,187.926"/>
	<path clip-path="url(#SVGID_10_)" d="M206.597,205.07c-0.238-0.318-0.508-0.574-0.649-0.891c-0.273-0.604-0.273-1.234,0.175-1.771
		c0.462-0.553,1.103-0.719,1.776-0.553c0.364,0.092,0.71,0.33,1.018,0.562c0.178,0.133,0.224,0.365-0.099,0.48
		c-0.3,0.109-0.286,0.383-0.28,0.643c0.008,0.217,0.005,0.42-0.325,0.32c-0.05-0.016-0.213,0.139-0.21,0.211
		c0.006,0.238,0.16,0.523,0.076,0.701c-0.087,0.182-0.392,0.258-0.581,0.365c0.23,0.016,0.582-0.074,0.734,0.064
		c0.845,0.764,1.842,1.455,1.81,2.795c0,0.012,0.002,0.025,0.002,0.039c0.051,0.926-0.144,1.15-1.078,1.244
		c-0.064,0.008-0.128,0.018-0.252,0.033c0.186,0.789,0.375,1.551,0.988,2.098c0.208,0.186,0.274,0.357,0.264,0.613
		c-0.107,2.996-0.21,5.99-0.315,8.984c-0.015,0.439-0.031,0.879-0.07,1.316c-0.027,0.311,0.096,0.445,0.399,0.453
		c0.199,0.006,0.402,0.008,0.594,0.055c0.097,0.021,0.21,0.131,0.24,0.225c0.022,0.064-0.067,0.209-0.143,0.252
		c-0.584,0.334-1.199,0.59-1.892,0.527c-0.33-0.027-0.491-0.256-0.522-0.564c-0.058-0.568-0.105-1.141-0.143-1.713
		c-0.117-1.754-0.224-3.51-0.343-5.264c-0.016-0.223-0.066-0.447-0.133-0.662c-0.024-0.076-0.147-0.123-0.227-0.184
		c-0.052,0.082-0.144,0.158-0.156,0.246c-0.143,1.043-0.277,2.088-0.41,3.129c-0.07,0.543-0.13,1.086-0.205,1.625
		c-0.07,0.498,0.008,0.582,0.5,0.627c0.197,0.016,0.386,0.133,0.58,0.205c-0.159,0.141-0.294,0.34-0.479,0.414
		c-0.355,0.143-0.733,0.256-1.11,0.303c-0.501,0.061-0.636-0.07-0.725-0.572c-0.03-0.17-0.026-0.346-0.03-0.518
		c-0.025-2.014-0.013-4.027-0.087-6.039c-0.046-1.275-0.235-2.545-0.329-3.82c-0.103-1.422-0.142-2.85,0.121-4.262
		c0.143-0.764,0.539-1.348,1.32-1.605C206.474,205.16,206.536,205.105,206.597,205.07"/>
	<path clip-path="url(#SVGID_10_)" d="M217.821,210.857c-0.05-0.092-0.06-0.123-0.07-0.123c-0.389-0.004-0.779-0.002-1.17-0.002
		c0,0.01-0.001,0.021-0.002,0.029C216.976,210.793,217.373,210.824,217.821,210.857 M216.362,201.961
		c-0.048,0.02-0.097,0.041-0.146,0.062c0.048,0.197,0.033,0.469,0.158,0.574c0.141,0.117,0.424,0.148,0.615,0.1
		c0.361-0.09,0.596-0.35,0.682-0.801C217.204,202.01,216.8,202.5,216.362,201.961 M217.671,201.367
		c0.156,0.188,0.285,0.393,0.459,0.543c0.264,0.225,0.553,0.42,0.841,0.609c0.516,0.344,0.79,0.832,0.841,1.432
		c0.05,0.584,0.052,1.172,0.062,1.756c0.013,0.717-0.346,0.969-1.029,0.738c-0.072-0.025-0.141-0.059-0.24-0.102
		c0.127,0.906,0.263,1.77,0.365,2.639c0.059,0.504,0.256,1.027-0.106,1.508c-0.029,0.039-0.023,0.143,0.007,0.186
		c0.472,0.654,0.251,1.396,0.247,2.098c-0.003,1.092-0.09,2.184-0.127,3.275c-0.029,0.891-0.006,1.785-0.073,2.672
		c-0.02,0.266-0.226,0.559-0.427,0.764c-0.381,0.393-0.909,0.486-1.437,0.492c-0.134,0-0.348-0.096-0.383-0.197
		c-0.037-0.107,0.094-0.273,0.154-0.412c0.009-0.023,0.035-0.039,0.059-0.053c0.707-0.432,0.902-1.021,0.791-1.857
		c-0.248-1.861-0.387-3.734-0.57-5.604c-0.005-0.053,0.003-0.115-0.023-0.156c-0.069-0.115-0.153-0.225-0.231-0.334
		c-0.077,0.113-0.205,0.217-0.225,0.34c-0.135,0.881-0.254,1.766-0.366,2.65c-0.123,0.965-0.253,1.93-0.343,2.896
		c-0.072,0.775-1.13,1.252-1.82,1.1c-0.25-0.053-0.276-0.223-0.137-0.42c0.039-0.055,0.086-0.109,0.142-0.139
		c0.732-0.4,0.881-1.033,0.852-1.818c-0.047-1.238,0.054-2.482-0.008-3.717c-0.05-1.027-0.286-2.045-0.363-3.072
		c-0.055-0.727-0.002-1.463,0.037-2.191c0.047-0.865,0.133-1.727,0.194-2.59c0.008-0.129,0.031-0.311-0.039-0.385
		c-0.492-0.506-0.121-0.977,0.056-1.436c0.194-0.504,0.527-0.898,1.095-1.016c0.169-0.033,0.34-0.062,0.513-0.082
		C216.866,201.439,217.296,201.402,217.671,201.367"/>
	<path clip-path="url(#SVGID_10_)" d="M217.097,200.256c-0.32-0.348-0.768-0.232-1.221-0.188c-0.479,0.047-0.774-0.178-0.954-0.66
		c0.347-0.283,0.681-0.586,1.044-0.844c0.62-0.438,1.313-0.408,1.844,0.049c0.553,0.475,0.766,1.305,0.473,1.922
		c-0.057,0.119-0.188,0.203-0.286,0.303c-0.077-0.109-0.158-0.221-0.231-0.334c-0.021-0.031-0.015-0.078-0.03-0.115
		c-0.065-0.15-0.131-0.299-0.198-0.447C217.409,200.031,217.283,200.123,217.097,200.256"/>
	<path clip-path="url(#SVGID_10_)" fill="#FFFFFF" d="M56.311,74.942h12.503l1.454,14.942l-0.124,10.891l0.496,5.373l-7.992,6.635
		l1.953,7.449c0,0-2.457,5.805-8.457,5.785c-11.466-0.033-12.169-8.254-12.169-8.254l0.565-10.654l-0.5-4.482l-5.093-9.185
		l7.531-17.5"/>
	<path clip-path="url(#SVGID_10_)" fill="none" stroke="#000000" stroke-miterlimit="10" d="M68.814,77.143
		c0,0,1.748,11.466,1.395,13.81c-0.355,2.343,0.059,11.672,0.059,11.672"/>
	<path clip-path="url(#SVGID_10_)" d="M64.113,108.836c1.244,0.477,1.811-0.791,2.219-1.693c0.406-0.904,1.48-1.414,2.186-0.68
		c0.617,0.65,1.75-0.197,1.75-1.805c0-1.559-0.17-1.527-0.568-2.541c-0.394-1.018-2.422-0.051-4.343,1.189
		c-1.921,1.246-2.191,3.143-1.921,4.287C63.516,107.934,63.738,108.691,64.113,108.836 M40.131,96.527c0,0-8.803-9.987-4.403-18.618
		C40.131,69.271,47.581,66.73,56.215,66.9c8.635,0.172,15.068,3.56,15.236,6.437c0.17,2.877-1.691,5.587-4.571,7.11
		c-2.876,1.523-6.265,3.722-10.496,2.54c-4.232-1.187-9.817-2.169-9.817-2.169l1.69,4.706c0,0,2.202,12.024,3.388,14.22
		c1.183,2.203,5.078,7.621,7.28,6.773c2.199-0.844,3.384-3.727,5.925-4.906c2.539-1.188,4.91-3.218,5.586-1.867
		c0.677,1.355,1.015,3.898-0.168,7.791c-1.186,3.893-3.388,5.924-7.62,5.248c-4.234-0.68-14.729-4.908-15.236-6.266
		c-0.509-1.354,1.015-4.061,0.169-7.79c-0.848-3.722-2.201-8.823-5.081-6.6C39.803,94.211,40.131,96.527,40.131,96.527"/>
	<path clip-path="url(#SVGID_10_)" fill="none" stroke="#000000" stroke-miterlimit="10" d="M38.947,94.155
		c0,0,5.402,7.119,5.569,11.683c0.17,4.568-0.501,10.953-0.501,10.953s-0.832,3.814,4.186,6.715
		c4.777,2.762,8.86,3.328,12.415,1.295c3.556-2.029,3.985-4.568,3.985-4.568l-1.953-7.449"/>
</g>
<polygon fill="#FFFFFF" points="359.346,52.707 367.576,47.853 378.675,54.261 370.615,59.237 "/>
<polygon fill="none" stroke="#000000" stroke-linejoin="round" stroke-miterlimit="10" points="359.346,52.707 367.576,47.853 
	378.675,54.261 370.615,59.237 "/>
<polygon fill="#FFFFFF" points="342.744,62.333 350.975,57.479 362.074,63.888 354.013,68.862 "/>
<polygon fill="none" stroke="#000000" stroke-linejoin="round" stroke-miterlimit="10" points="342.744,62.333 350.975,57.479 
	362.074,63.888 354.013,68.862 "/>
<polygon fill="#FFFFFF" points="487.613,65.345 502.953,81.301 495.283,106.811 490.113,111.855 484.584,113.104 482.726,106.811 
	481.82,100.33 474.388,99.477 473.103,91.612 473.426,83.938 474.596,77.61 476.285,70.709 "/>
<g>
	<defs>
		<rect id="SVGID_11_" x="20" y="-107.534" width="615.751" height="422.424"/>
	</defs>
	<clipPath id="SVGID_12_">
		<use xlink:href="#SVGID_11_"  overflow="visible"/>
	</clipPath>
	<path clip-path="url(#SVGID_12_)" d="M477.355,68.566c0,0,4.994,8.043,9.937,12.025c4.944,3.98,5.581,3.184,5.899,5.417
		c0.316,2.233,0,1.116,1.912-0.797c1.912-1.914,4.62-2.91,4.62-0.658c0,2.254-1.434,5.922-3.186,7.033
		c-1.751,1.115-1.916,0.615-2.552,4.45c-0.635,3.838-4.78,15.311-5.338,15.952c-0.557,0.639-1.194,1.115-1.194,1.115
		s9.565-0.801,14.505-8.289c4.938-7.488,7.172-16.412,5.736-24.701s-5.566-16.528-13.709-17.534
		C490.161,62.103,485.645,60.917,477.355,68.566"/>
	<path clip-path="url(#SVGID_12_)" fill="none" stroke="#000000" stroke-miterlimit="10" d="M491.475,111.328
		c0,0-5.456,2.254-6.891,1.775c-1.435-0.477-1.545-2.545-1.596-3.506c-0.316-6.137-2.045-9.148-2.045-9.148 M487.613,98.283
		c0,0-2.953,1.797-6.67,2.167c-0.429,0.041-0.859,0.062-1.302,0.062c-4.304,0-6.06-0.51-6.216-3.523
		c-0.156-3.012-0.829-9.898,0-13.052c0.273-1.034,0.957-1.755,1.117-4.145c0.162-2.392-0.168-3.666,0.484-6.533
		c0.59-2.572,3.583-5.075,3.583-5.075"/>
</g>
<polyline fill="#FFFFFF" points="537.144,128.943 537.158,138.24 544.354,139.475 549.04,137.99 552.522,134.775 544.834,104.443 
	526.964,96.983 524.246,102.275 524.246,106.809 524.657,110.146 524.246,113.104 525.416,124.266 532.644,126.275 "/>
<g>
	<defs>
		<rect id="SVGID_13_" x="20" y="-107.534" width="615.751" height="422.424"/>
	</defs>
	<clipPath id="SVGID_14_">
		<use xlink:href="#SVGID_13_"  overflow="visible"/>
	</clipPath>
	<path clip-path="url(#SVGID_14_)" fill="none" stroke="#000000" stroke-miterlimit="10" d="M527.746,95.956
		c0,0-3.5,3.972-3.5,8.884c0,2.467,1,3.395,0.41,5.307c-0.589,1.914-0.491,5.369,0.221,9.928c0.713,4.561,0.561,3.605,0.539,4.193
		c-0.024,0.588,3.652,2.059,4.682,2.207c1.03,0.145,7.06,6.469,7.06,6.469v5.295c0,0,2.941,2.205,8.385,1.031
		c5.439-1.178,6.91-4.559,6.91-4.559s0.442-0.885-0.882-5.443"/>
	<path clip-path="url(#SVGID_14_)" d="M533.983,91.125c-2.392,0.719-6.826,1.373-6.68,7.551c0.148,6.177-0.587,24.56-1.765,27.798
		c-1.176,3.232-1.293,4.117-1.293,4.117s2.027,3.234,6.733,3.529c4.707,0.293,15.738,1.617,22.65-5.146
		c6.913-6.768,11.178-21.475,3.236-30.152c-7.942-8.677-9.143-8.767-13.091-8.824C539.463,89.937,535.972,90.532,533.983,91.125"/>
</g>
<polygon fill="#FFFFFF" points="518.314,152.131 521.159,162.967 521.095,169.596 520.788,177.771 519.652,181.291 514.115,181.291 
	511.835,180.68 510.718,190.568 494.977,165.609 "/>
<g>
	<defs>
		<rect id="SVGID_15_" x="20" y="-107.534" width="615.751" height="422.424"/>
	</defs>
	<clipPath id="SVGID_16_">
		<use xlink:href="#SVGID_15_"  overflow="visible"/>
	</clipPath>
	<path clip-path="url(#SVGID_16_)" d="M514.717,192.713c0,0-11.832,7.141-18.963,0.875c-7.134-6.26-12.357-18.617-9.395-29.574
		c2.96-10.963,7.826-21.754,19.484-19.314c11.658,2.438,16.879,11.135,13.572,17.92c-3.307,6.783-7.307,7.635-7.307,7.635
		s-4.506-0.17-3.479,6.805C509.645,183.959,507.758,186.102,514.717,192.713"/>
	<path clip-path="url(#SVGID_16_)" fill="none" stroke="#000000" stroke-miterlimit="10" d="M511.836,180.678
		c-0.869,2.607-1.118,8.561-1.118,8.561 M519.238,154.771c0,0,1.747,7.676,1.92,8.195c0.171,0.523-1.004,2.609-0.763,4.174
		c0.24,1.568,1.317,2.441,0.779,6.963c-0.539,4.521-0.373,7.654-2.806,7.654c-2.016-0.008-4.508-0.381-6.533-1.08
		c-0.42-0.148-0.801-0.312-1.118-0.486"/>
</g>
<text transform="matrix(1 0 0 1 320.7734 120.3984)"><tspan x="0" y="0" fill="#FFFFFF" font-family="'AktivGrotesk-Light'" font-size="10"></tspan><tspan x="13.64" y="0" fill="#FFFFFF" font-family="'AktivGrotesk-Light'" font-size="10"></tspan><tspan x="17.57" y="0" fill="#FFFFFF" font-family="'AktivGrotesk-Light'" font-size="10">,</tspan></text>
<text transform="matrix(1 0 0 1 336.5039 132.3984)"><tspan x="0" y="0" fill="#FFFFFF" font-family="'AktivGrotesk-Light'" font-size="10"></tspan><tspan x="5.47" y="0" fill="#FFFFFF" font-family="'AktivGrotesk-Light'" font-size="10"></tspan><tspan x="11.109" y="0" fill="#FFFFFF" font-family="'AktivGrotesk-Light'" font-size="10"></tspan></text>
<text transform="matrix(1 0 0 1 373.043 256.0078)"><tspan x="0" y="0" fill="#FFFFFF" font-family="'AktivGrotesk-Light'" font-size="10"></tspan><tspan x="5.07" y="0" fill="#FFFFFF" font-family="'AktivGrotesk-Light'" font-size="10"></tspan><tspan x="1.96" y="12" fill="#FFFFFF" font-family="'AktivGrotesk-Light'" font-size="10"></tspan></text>
<text transform="matrix(1 0 0 1 481.2334 229.3379)"><tspan x="0" y="0" fill="#FFFFFF" font-family="'AktivGrotesk-Light'" font-size="10">  </tspan><tspan x="0.36" y="12" fill="#FFFFFF" font-family="'AktivGrotesk-Light'" font-size="10"></tspan></text>
<text transform="matrix(1 0 0 1 150.6836 120.3984)"><tspan x="0" y="0" fill="#FFFFFF" font-family="'AktivGrotesk-Light'" font-size="10" letter-spacing="-1"></tspan><tspan x="4.51" y="0" fill="#FFFFFF" font-family="'AktivGrotesk-Light'" font-size="10"></tspan><tspan x="27.29" y="0" fill="#FFFFFF" font-family="'AktivGrotesk-Light'" font-size="10"></tspan><tspan x="31.61" y="0" fill="#FFFFFF" font-family="'AktivGrotesk-Light'" font-size="10"></tspan></text>
<text transform="matrix(1 0 0 1 191.7061 256.0078)"><tspan x="0" y="0" fill="#FFFFFF" font-family="'AktivGrotesk-Light'" font-size="10">,</tspan><tspan x="10.59" y="12" fill="#FFFFFF" font-family="'AktivGrotesk-Light'" font-size="10"></tspan><tspan x="15.54" y="12" fill="#FFFFFF" font-family="'AktivGrotesk-Light'" font-size="10">  </tspan><tspan x="7.51" y="24" fill="#FFFFFF" font-family="'AktivGrotesk-Light'" font-size="10"></tspan><tspan x="18.69" y="24" fill="#FFFFFF" font-family="'AktivGrotesk-Light'" font-size="10"></tspan><tspan x="23.01" y="24" fill="#FFFFFF" font-family="'AktivGrotesk-Light'" font-size="10"></tspan></text>
<text transform="matrix(1 0 0 1 80.6836 239.2285)"><tspan x="0" y="0" fill="#FFFFFF" font-family="'AktivGrotesk-Light'" font-size="10"></tspan><tspan x="4.88" y="0" fill="#FFFFFF" font-family="'AktivGrotesk-Light'" font-size="10"></tspan></text>
</svg>
