<?xml version="1.0" encoding="utf-8"?>
<!-- Generator: Adobe Illustrator 16.0.3, SVG Export Plug-In . SVG Version: 6.00 Build 0)  -->
<!DOCTYPE svg PUBLIC "-//W3C//DTD SVG 1.1//EN" "http://www.w3.org/Graphics/SVG/1.1/DTD/svg11.dtd">
<svg version="1.1" id="Layer_1" xmlns="http://www.w3.org/2000/svg" xmlns:xlink="http://www.w3.org/1999/xlink" x="0px" y="0px"
	 width="240px" height="360px" viewBox="0 0 240 360" enable-background="new 0 0 240 360" xml:space="preserve">
<rect fill="#A27A46" width="240" height="360"/>
<g>
	<text transform="matrix(1 0 0 1 20 130.0703)"><tspan x="0" y="0" fill="#FFFFFF" font-family="'AktivGrotesk-Bold'" font-size="13.0064">Ме</tspan><tspan x="18.846" y="0" fill="#FFFFFF" font-family="'AktivGrotesk-Bold'" font-size="13.0064">с</tspan><tspan x="26" y="0" fill="#FFFFFF" font-family="'AktivGrotesk-Bold'" font-size="13.0064">т</tspan><tspan x="32.619" y="0" fill="#FFFFFF" font-family="'AktivGrotesk-Bold'" font-size="13.0064">а </tspan><tspan x="42.803" y="0" fill="#FFFFFF" font-family="'AktivGrotesk-Bold'" font-size="13.0064">д</tspan><tspan x="51.557" y="0" fill="#FFFFFF" font-family="'AktivGrotesk-Bold'" font-size="13.0064">ля раб</tspan><tspan x="93.137" y="0" fill="#FFFFFF" font-family="'AktivGrotesk-Bold'" font-size="13.0064">о</tspan><tspan x="100.889" y="0" fill="#FFFFFF" font-family="'AktivGrotesk-Bold'" font-size="13.0064">ты, </tspan></text>
	<text transform="matrix(1 0 0 1 20 145.6797)"><tspan x="0" y="0" fill="#FFFFFF" font-family="'AktivGrotesk-Bold'" font-size="13.0064">пере</tspan><tspan x="31.15" y="0" fill="#FFFFFF" font-family="'AktivGrotesk-Bold'" font-size="13.0064">г</tspan><tspan x="36.77" y="0" fill="#FFFFFF" font-family="'AktivGrotesk-Bold'" font-size="13.0064">оворов и </tspan><tspan x="97.014" y="0" fill="#FFFFFF" font-family="'AktivGrotesk-Bold'" font-size="13.0064">о</tspan><tspan x="104.766" y="0" fill="#FFFFFF" font-family="'AktivGrotesk-Bold'" font-size="13.0064">т</tspan><tspan x="110.76" y="0" fill="#FFFFFF" font-family="'AktivGrotesk-Bold'" font-size="13.0064">д</tspan><tspan x="119.02" y="0" fill="#FFFFFF" font-family="'AktivGrotesk-Bold'" font-size="13.0064">ыха:</tspan></text>
	<text transform="matrix(1 0 0 1 20 176.8945)" fill="#FFFFFF" font-family="'AktivGrotesk-Light'" font-size="13.0064">I. 40,8% – </text>
	<text transform="matrix(1 0 0 1 77.9824 176.8945)"><tspan x="0" y="0" fill="#FFFFFF" font-family="'AktivGrotesk-Bold'" font-size="13.0064">к</tspan><tspan x="7.012" y="0" fill="#FFFFFF" font-family="'AktivGrotesk-Bold'" font-size="13.0064">оворкинг</tspan></text>
	<text transform="matrix(1 0 0 1 145.0547 176.8945)" fill="#FFFFFF" font-family="'AktivGrotesk-Light'" font-size="13.0064">;</text>
	<text transform="matrix(1 0 0 1 20 192.502)"><tspan x="0" y="0" fill="#FFFFFF" font-family="'AktivGrotesk-Light'" font-size="13.0064">II. 39,1% – мес</tspan><tspan x="84.346" y="0" fill="#FFFFFF" font-family="'AktivGrotesk-Light'" font-size="13.0064">т</tspan><tspan x="89.965" y="0" fill="#FFFFFF" font-family="'AktivGrotesk-Light'" font-size="13.0064">о </tspan><tspan x="100.59" y="0" fill="#FFFFFF" font-family="'AktivGrotesk-Light'" font-size="13.0064">д</tspan><tspan x="108.094" y="0" fill="#FFFFFF" font-family="'AktivGrotesk-Light'" font-size="13.0064">ля </tspan></text>
	<text transform="matrix(1 0 0 1 145.1602 192.502)"><tspan x="0" y="0" fill="#FFFFFF" font-family="'AktivGrotesk-Bold'" font-size="13.0064">д</tspan><tspan x="8.117" y="0" fill="#FFFFFF" font-family="'AktivGrotesk-Bold'" font-size="13.0064">е</tspan><tspan x="15.906" y="0" fill="#FFFFFF" font-family="'AktivGrotesk-Bold'" font-size="13.0064">ловых</tspan></text>
	<text transform="matrix(1 0 0 1 201.7246 192.502)" fill="#FFFFFF" font-family="'AktivGrotesk-Light'" font-size="13.0064"> </text>
	<text transform="matrix(1 0 0 1 20 208.1094)" fill="#FFFFFF" font-family="'AktivGrotesk-Light'" font-size="13.0064">встреч и </text>
	<text transform="matrix(1 0 0 1 74.3535 208.1094)"><tspan x="0" y="0" fill="#FFFFFF" font-family="'AktivGrotesk-Bold'" font-size="13.0064">пере</tspan><tspan x="31.15" y="0" fill="#FFFFFF" font-family="'AktivGrotesk-Bold'" font-size="13.0064">г</tspan><tspan x="36.781" y="0" fill="#FFFFFF" font-family="'AktivGrotesk-Bold'" font-size="13.0064">оворов</tspan></text>
	<text transform="matrix(1 0 0 1 158.0117 208.1094)" fill="#FFFFFF" font-family="'AktivGrotesk-Light'" font-size="13.0064">;</text>
	<text transform="matrix(1 0 0 1 20 223.7168)" fill="#FFFFFF" font-family="'AktivGrotesk-Light'" font-size="13.0064">III. 36,6% – </text>
	<text transform="matrix(1 0 0 1 83.8359 223.7168)"><tspan x="0" y="0" fill="#FFFFFF" font-family="'AktivGrotesk-Bold'" font-size="13.0064">анти</tspan><tspan x="29.551" y="0" fill="#FFFFFF" font-family="'AktivGrotesk-Bold'" font-size="13.0064">к</tspan><tspan x="36.73" y="0" fill="#FFFFFF" font-family="'AktivGrotesk-Bold'" font-size="13.0064">афе</tspan></text>
	<text transform="matrix(1 0 0 1 20 248.0645)"><tspan x="0" y="0" fill="#FFFFFF" font-family="'AktivGrotesk-Bold'" font-size="7.2836">Спе</tspan><tspan x="13.824" y="0" fill="#FFFFFF" font-family="'AktivGrotesk-Bold'" font-size="7.2836">ц</tspan><tspan x="18.268" y="0" fill="#FFFFFF" font-family="'AktivGrotesk-Bold'" font-size="7.2836">и</tspan><tspan x="22.514" y="0" fill="#FFFFFF" font-family="'AktivGrotesk-Bold'" font-size="7.2836">а</tspan><tspan x="26.68" y="0" fill="#FFFFFF" font-family="'AktivGrotesk-Bold'" font-size="7.2836">ли</tspan><tspan x="35.273" y="0" fill="#FFFFFF" font-family="'AktivGrotesk-Bold'" font-size="7.2836">с</tspan><tspan x="39.279" y="0" fill="#FFFFFF" font-family="'AktivGrotesk-Bold'" font-size="7.2836">ты</tspan></text>
	<text transform="matrix(1 0 0 1 68.8516 248.0645)"><tspan x="0" y="0" fill="#FFFFFF" font-family="'AktivGrotesk-Light'" font-size="7.2836"> и мл</tspan><tspan x="16.352" y="0" fill="#FFFFFF" font-family="'AktivGrotesk-Light'" font-size="7.2836">а</tspan><tspan x="20.277" y="0" fill="#FFFFFF" font-family="'AktivGrotesk-Light'" font-size="7.2836">дшие </tspan><tspan x="39.693" y="0" fill="#FFFFFF" font-family="'AktivGrotesk-Light'" font-size="7.2836">р</tspan><tspan x="43.867" y="0" fill="#FFFFFF" font-family="'AktivGrotesk-Light'" font-size="7.2836">у</tspan><tspan x="47.51" y="0" fill="#FFFFFF" font-family="'AktivGrotesk-Light'" font-size="7.2836">к</tspan><tspan x="50.83" y="0" fill="#FFFFFF" font-family="'AktivGrotesk-Light'" font-size="7.2836">ов</tspan><tspan x="59.031" y="0" fill="#FFFFFF" font-family="'AktivGrotesk-Light'" font-size="7.2836">о</tspan><tspan x="63.125" y="0" fill="#FFFFFF" font-family="'AktivGrotesk-Light'" font-size="7.2836">ди</tspan><tspan x="71.129" y="0" fill="#FFFFFF" font-family="'AktivGrotesk-Light'" font-size="7.2836">т</tspan><tspan x="74.283" y="0" fill="#FFFFFF" font-family="'AktivGrotesk-Light'" font-size="7.2836">е</tspan><tspan x="78.172" y="0" fill="#FFFFFF" font-family="'AktivGrotesk-Light'" font-size="7.2836">ли б</tspan><tspan x="92.135" y="0" fill="#FFFFFF" font-family="'AktivGrotesk-Light'" font-size="7.2836">о</tspan><tspan x="96.236" y="0" fill="#FFFFFF" font-family="'AktivGrotesk-Light'" font-size="7.2836">льше </tspan></text>
	<text transform="matrix(1 0 0 1 20 256.8047)"><tspan x="0" y="0" fill="#FFFFFF" font-family="'AktivGrotesk-Light'" font-size="7.2836">заин</tspan><tspan x="15.682" y="0" fill="#FFFFFF" font-family="'AktivGrotesk-Light'" font-size="7.2836">т</tspan><tspan x="18.828" y="0" fill="#FFFFFF" font-family="'AktivGrotesk-Light'" font-size="7.2836">ересованы в </tspan></text>
	<text transform="matrix(1 0 0 1 83.4922 256.8047)"><tspan x="0" y="0" fill="#FFFFFF" font-family="'AktivGrotesk-Bold'" font-size="7.2836">со</tspan><tspan x="8.631" y="0" fill="#FFFFFF" font-family="'AktivGrotesk-Bold'" font-size="7.2836">з</tspan><tspan x="12.717" y="0" fill="#FFFFFF" font-family="'AktivGrotesk-Bold'" font-size="7.2836">д</tspan><tspan x="17.4" y="0" fill="#FFFFFF" font-family="'AktivGrotesk-Bold'" font-size="7.2836">ании ме</tspan><tspan x="45.602" y="0" fill="#FFFFFF" font-family="'AktivGrotesk-Bold'" font-size="7.2836">с</tspan><tspan x="49.607" y="0" fill="#FFFFFF" font-family="'AktivGrotesk-Bold'" font-size="7.2836">т </tspan><tspan x="55.012" y="0" fill="#FFFFFF" font-family="'AktivGrotesk-Bold'" font-size="7.2836">д</tspan><tspan x="59.912" y="0" fill="#FFFFFF" font-family="'AktivGrotesk-Bold'" font-size="7.2836">ля в</tspan><tspan x="74.166" y="0" fill="#FFFFFF" font-family="'AktivGrotesk-Bold'" font-size="7.2836">с</tspan><tspan x="78.164" y="0" fill="#FFFFFF" font-family="'AktivGrotesk-Bold'" font-size="7.2836">треч</tspan></text>
	<text transform="matrix(1 0 0 1 178.373 256.8047)" fill="#FFFFFF" font-family="'AktivGrotesk-Light'" font-size="7.2836"> в </text>
	<text transform="matrix(1 0 0 1 20 265.5449)"><tspan x="0" y="0" fill="#FFFFFF" font-family="'AktivGrotesk-Light'" font-size="7.2836">неформальной обстанов</tspan><tspan x="84.961" y="0" fill="#FFFFFF" font-family="'AktivGrotesk-Light'" font-size="7.2836">к</tspan><tspan x="88.275" y="0" fill="#FFFFFF" font-family="'AktivGrotesk-Light'" font-size="7.2836">е</tspan><tspan x="92.143" y="0" fill="#FFFFFF" font-family="'AktivGrotesk-Light'" font-size="7.2836">. </tspan></text>
	<text transform="matrix(1 0 0 1 115.2168 265.5449)"><tspan x="0" y="0" fill="#FFFFFF" font-family="'AktivGrotesk-Bold'" font-size="7.2836">Р</tspan><tspan x="4.785" y="0" fill="#FFFFFF" font-family="'AktivGrotesk-Bold'" font-size="7.2836">у</tspan><tspan x="8.916" y="0" fill="#FFFFFF" font-family="'AktivGrotesk-Bold'" font-size="7.2836">к</tspan><tspan x="12.848" y="0" fill="#FFFFFF" font-family="'AktivGrotesk-Bold'" font-size="7.2836">ов</tspan><tspan x="21.473" y="0" fill="#FFFFFF" font-family="'AktivGrotesk-Bold'" font-size="7.2836">о</tspan><tspan x="25.777" y="0" fill="#FFFFFF" font-family="'AktivGrotesk-Bold'" font-size="7.2836">д</tspan><tspan x="30.402" y="0" fill="#FFFFFF" font-family="'AktivGrotesk-Bold'" font-size="7.2836">и</tspan><tspan x="34.648" y="0" fill="#FFFFFF" font-family="'AktivGrotesk-Bold'" font-size="7.2836">т</tspan><tspan x="38.297" y="0" fill="#FFFFFF" font-family="'AktivGrotesk-Bold'" font-size="7.2836">е</tspan><tspan x="42.652" y="0" fill="#FFFFFF" font-family="'AktivGrotesk-Bold'" font-size="7.2836">лей</tspan></text>
	<text transform="matrix(1 0 0 1 170.7539 265.5449)"><tspan x="0" y="0" fill="#FFFFFF" font-family="'AktivGrotesk-Light'" font-size="7.2836"> ин</tspan><tspan x="9.775" y="0" fill="#FFFFFF" font-family="'AktivGrotesk-Light'" font-size="7.2836">т</tspan><tspan x="12.922" y="0" fill="#FFFFFF" font-family="'AktivGrotesk-Light'" font-size="7.2836">ерес</tspan><tspan x="29.359" y="0" fill="#FFFFFF" font-family="'AktivGrotesk-Light'" font-size="7.2836">у</tspan><tspan x="32.922" y="0" fill="#FFFFFF" font-family="'AktivGrotesk-Light'" font-size="7.2836">ет </tspan></text>
	<text transform="matrix(1 0 0 1 20 274.2852)"><tspan x="0" y="0" fill="#FFFFFF" font-family="'AktivGrotesk-Bold'" font-size="7.2836">возм</tspan><tspan x="17.947" y="0" fill="#FFFFFF" font-family="'AktivGrotesk-Bold'" font-size="7.2836">о</tspan><tspan x="22.295" y="0" fill="#FFFFFF" font-family="'AktivGrotesk-Bold'" font-size="7.2836">жно</tspan><tspan x="37.344" y="0" fill="#FFFFFF" font-family="'AktivGrotesk-Bold'" font-size="7.2836">с</tspan><tspan x="41.35" y="0" fill="#FFFFFF" font-family="'AktivGrotesk-Bold'" font-size="7.2836">ть раб</tspan><tspan x="64.059" y="0" fill="#FFFFFF" font-family="'AktivGrotesk-Bold'" font-size="7.2836">о</tspan><tspan x="68.398" y="0" fill="#FFFFFF" font-family="'AktivGrotesk-Bold'" font-size="7.2836">ты </tspan><tspan x="79.586" y="0" fill="#FFFFFF" font-family="'AktivGrotesk-Bold'" font-size="7.2836">о</tspan><tspan x="83.936" y="0" fill="#FFFFFF" font-family="'AktivGrotesk-Bold'" font-size="7.2836">т</tspan><tspan x="87.293" y="0" fill="#FFFFFF" font-family="'AktivGrotesk-Bold'" font-size="7.2836">д</tspan><tspan x="91.838" y="0" fill="#FFFFFF" font-family="'AktivGrotesk-Bold'" font-size="7.2836">е</tspan><tspan x="96.193" y="0" fill="#FFFFFF" font-family="'AktivGrotesk-Bold'" font-size="7.2836">льно</tspan></text>
	<text transform="matrix(1 0 0 1 133.5723 274.2852)"><tspan x="0" y="0" fill="#FFFFFF" font-family="'AktivGrotesk-Light'" font-size="7.2836"> </tspan><tspan x="1.633" y="0" fill="#FFFFFF" font-family="'AktivGrotesk-Light'" font-size="7.2836">о</tspan><tspan x="5.828" y="0" fill="#FFFFFF" font-family="'AktivGrotesk-Light'" font-size="7.2836">т </tspan><tspan x="10.736" y="0" fill="#FFFFFF" font-family="'AktivGrotesk-Light'" font-size="7.2836">к</tspan><tspan x="14.057" y="0" fill="#FFFFFF" font-family="'AktivGrotesk-Light'" font-size="7.2836">о</tspan><tspan x="18.166" y="0" fill="#FFFFFF" font-family="'AktivGrotesk-Light'" font-size="7.2836">лле</tspan><tspan x="30.357" y="0" fill="#FFFFFF" font-family="'AktivGrotesk-Light'" font-size="7.2836">к</tspan><tspan x="34.123" y="0" fill="#FFFFFF" font-family="'AktivGrotesk-Light'" font-size="7.2836">тива.</tspan></text>
</g>
</svg>
