<?xml version="1.0" encoding="utf-8"?>
<!-- Generator: Adobe Illustrator 16.0.3, SVG Export Plug-In . SVG Version: 6.00 Build 0)  -->
<!DOCTYPE svg PUBLIC "-//W3C//DTD SVG 1.1//EN" "http://www.w3.org/Graphics/SVG/1.1/DTD/svg11.dtd">
<svg version="1.1" id="Layer_1" xmlns="http://www.w3.org/2000/svg" xmlns:xlink="http://www.w3.org/1999/xlink" x="0px" y="0px"
	 width="240px" height="360px" viewBox="0 0 240 360" enable-background="new 0 0 240 360" xml:space="preserve">
<rect fill="#A27A46" width="240" height="360"/>
<g>
	<text transform="matrix(1 0 0 1 20.001 129.9883)"><tspan x="0" y="0" fill="#FFFFFF" font-family="'AktivGrotesk-Bold'" font-size="13.0064">К</tspan><tspan x="9.378" y="0" fill="#FFFFFF" font-family="'AktivGrotesk-Bold'" font-size="13.0064">л</tspan><tspan x="17.051" y="0" fill="#FFFFFF" font-family="'AktivGrotesk-Bold'" font-size="13.0064">убы по ин</tspan><tspan x="79.923" y="0" fill="#FFFFFF" font-family="'AktivGrotesk-Bold'" font-size="13.0064">т</tspan><tspan x="86.426" y="0" fill="#FFFFFF" font-family="'AktivGrotesk-Bold'" font-size="13.0064">ересам, во</tspan><tspan x="155.449" y="0" fill="#FFFFFF" font-family="'AktivGrotesk-Bold'" font-size="13.0064">с</tspan><tspan x="162.603" y="0" fill="#FFFFFF" font-family="'AktivGrotesk-Bold'" font-size="13.0064">тр</tspan><tspan x="177.442" y="0" fill="#FFFFFF" font-family="'AktivGrotesk-Bold'" font-size="13.0064">е</tspan><tspan x="185.207" y="0" fill="#FFFFFF" font-family="'AktivGrotesk-Bold'" font-size="13.0064">-</tspan></text>
	<text transform="matrix(1 0 0 1 20.001 145.5967)"><tspan x="0" y="0" fill="#FFFFFF" font-family="'AktivGrotesk-Bold'" font-size="13.0064">бованные ср</tspan><tspan x="83.005" y="0" fill="#FFFFFF" font-family="'AktivGrotesk-Bold'" font-size="13.0064">е</tspan><tspan x="90.562" y="0" fill="#FFFFFF" font-family="'AktivGrotesk-Bold'" font-size="13.0064">д</tspan><tspan x="98.833" y="0" fill="#FFFFFF" font-family="'AktivGrotesk-Bold'" font-size="13.0064">и резиден</tspan><tspan x="163.513" y="0" fill="#FFFFFF" font-family="'AktivGrotesk-Bold'" font-size="13.0064">т</tspan><tspan x="170.028" y="0" fill="#FFFFFF" font-family="'AktivGrotesk-Bold'" font-size="13.0064">ов:</tspan></text>
	<text transform="matrix(1 0 0 1 20.001 176.8125)" fill="#FFFFFF" font-family="'AktivGrotesk-Light'" font-size="13.0064">I. 43,1% – </text>
	<text transform="matrix(1 0 0 1 77.9834 176.8125)"><tspan x="0" y="0" fill="#FFFFFF" font-family="'AktivGrotesk-Bold'" font-size="13.0064">ан</tspan><tspan x="15.204" y="0" fill="#FFFFFF" font-family="'AktivGrotesk-Bold'" font-size="13.0064">г</tspan><tspan x="20.445" y="0" fill="#FFFFFF" font-family="'AktivGrotesk-Bold'" font-size="13.0064">лийский</tspan></text>
	<text transform="matrix(1 0 0 1 151.1943 176.8125)"><tspan x="0" y="0" fill="#FFFFFF" font-family="'AktivGrotesk-Light'" font-size="13.0064"> язы</tspan><tspan x="25.231" y="0" fill="#FFFFFF" font-family="'AktivGrotesk-Light'" font-size="13.0064">к</tspan><tspan x="31.604" y="0" fill="#FFFFFF" font-family="'AktivGrotesk-Light'" font-size="13.0064">;</tspan></text>
	<text transform="matrix(1 0 0 1 20.001 192.4199)" fill="#FFFFFF" font-family="'AktivGrotesk-Light'" font-size="13.0064">II. 38,5% – </text>
	<text transform="matrix(1 0 0 1 80.9102 192.4199)"><tspan x="0" y="0" fill="#FFFFFF" font-family="'AktivGrotesk-Bold'" font-size="13.0064">и</tspan><tspan x="7.258" y="0" fill="#FFFFFF" font-family="'AktivGrotesk-Bold'" font-size="13.0064">н</tspan><tspan x="14.853" y="0" fill="#FFFFFF" font-family="'AktivGrotesk-Bold'" font-size="13.0064">т</tspan><tspan x="21.044" y="0" fill="#FFFFFF" font-family="'AktivGrotesk-Bold'" font-size="13.0064">е</tspan><tspan x="28.522" y="0" fill="#FFFFFF" font-family="'AktivGrotesk-Bold'" font-size="13.0064">ле</tspan><tspan x="43.323" y="0" fill="#FFFFFF" font-family="'AktivGrotesk-Bold'" font-size="13.0064">к</tspan><tspan x="50.542" y="0" fill="#FFFFFF" font-family="'AktivGrotesk-Bold'" font-size="13.0064">т</tspan><tspan x="57.305" y="0" fill="#FFFFFF" font-family="'AktivGrotesk-Bold'" font-size="13.0064">у</tspan><tspan x="64.185" y="0" fill="#FFFFFF" font-family="'AktivGrotesk-Bold'" font-size="13.0064">а</tspan><tspan x="71.312" y="0" fill="#FFFFFF" font-family="'AktivGrotesk-Bold'" font-size="13.0064">л</tspan><tspan x="78.765" y="0" fill="#FFFFFF" font-family="'AktivGrotesk-Bold'" font-size="13.0064">ь</tspan><tspan x="85.827" y="0" fill="#FFFFFF" font-family="'AktivGrotesk-Bold'" font-size="13.0064">ные</tspan><tspan x="110.786" y="0" fill="#FFFFFF" font-family="'AktivGrotesk-Bold'" font-size="13.0064"> </tspan></text>
	<text transform="matrix(1 0 0 1 194.1045 192.4199)"><tspan x="0" y="0" fill="#FFFFFF" font-family="'AktivGrotesk-Light'" font-size="13.0064">и</tspan><tspan x="6.867" y="0" fill="#FFFFFF" font-family="'AktivGrotesk-Light'" font-size="13.0064">г</tspan><tspan x="11.913" y="0" fill="#FFFFFF" font-family="'AktivGrotesk-Light'" font-size="13.0064">р</tspan><tspan x="19.184" y="0" fill="#FFFFFF" font-family="'AktivGrotesk-Light'" font-size="13.0064">ы</tspan></text>
	<text transform="matrix(1 0 0 1 20.001 208.0273)" fill="#FFFFFF" font-family="'AktivGrotesk-Light'" font-size="13.0064">III. 35,6% – </text>
	<text transform="matrix(1 0 0 1 83.8369 208.0273)"><tspan x="0" y="0" fill="#FFFFFF" font-family="'AktivGrotesk-Bold'" font-size="13.0064">кино</tspan><tspan x="30.772" y="0" fill="#FFFFFF" font-family="'AktivGrotesk-Bold'" font-size="13.0064">к</tspan><tspan x="38.563" y="0" fill="#FFFFFF" font-family="'AktivGrotesk-Bold'" font-size="13.0064">л</tspan><tspan x="46.236" y="0" fill="#FFFFFF" font-family="'AktivGrotesk-Bold'" font-size="13.0064">уб</tspan></text>
	<text transform="matrix(1 0 0 1 145.5781 208.0273)" fill="#FFFFFF" font-family="'AktivGrotesk-Light'" font-size="13.0064">, 31,1% </text>
	<text transform="matrix(1 0 0 1 20.001 223.6348)" fill="#FFFFFF" font-family="'AktivGrotesk-Light'" font-size="13.0064">–</text>
	<text transform="matrix(1 0 0 1 26.5049 223.6348)"><tspan x="0" y="0" fill="#FFFFFF" font-family="'AktivGrotesk-Light'" font-size="13.0064"> ш</tspan><tspan x="13.098" y="0" fill="#FFFFFF" font-family="'AktivGrotesk-Light'" font-size="13.0064">к</tspan><tspan x="19.028" y="0" fill="#FFFFFF" font-family="'AktivGrotesk-Light'" font-size="13.0064">о</tspan><tspan x="26.363" y="0" fill="#FFFFFF" font-family="'AktivGrotesk-Light'" font-size="13.0064">ла</tspan></text>
	<text transform="matrix(1 0 0 1 66.9287 223.6348)"><tspan x="0" y="0" fill="#FFFFFF" font-family="'AktivGrotesk-Bold'" font-size="13.0064"> </tspan><tspan x="2.887" y="0" fill="#FFFFFF" font-family="'AktivGrotesk-Bold'" font-size="13.0064">т</tspan><tspan x="9.494" y="0" fill="#FFFFFF" font-family="'AktivGrotesk-Bold'" font-size="13.0064">анцев</tspan></text>
	<text transform="matrix(1 0 0 1 114.4521 223.6348)" fill="#FFFFFF" font-family="'AktivGrotesk-Light'" font-size="13.0064">, 29,4% </text>
	<text transform="matrix(1 0 0 1 160.0791 223.6348)" fill="#FFFFFF" font-family="'AktivGrotesk-Light'" font-size="13.0064">–</text>
	<text transform="matrix(1 0 0 1 166.582 223.6348)" fill="#FFFFFF" font-family="'AktivGrotesk-Bold'" font-size="13.0064"> </text>
	<text transform="matrix(1 0 0 1 20.001 239.2422)"><tspan x="0" y="0" fill="#FFFFFF" font-family="'AktivGrotesk-Bold'" font-size="13.0064">тво</tspan><tspan x="22.162" y="0" fill="#FFFFFF" font-family="'AktivGrotesk-Bold'" font-size="13.0064">р</tspan><tspan x="30.07" y="0" fill="#FFFFFF" font-family="'AktivGrotesk-Bold'" font-size="13.0064">ческие </tspan></text>
	<text transform="matrix(1 0 0 1 97.8447 239.2422)" fill="#FFFFFF" font-family="'AktivGrotesk-Light'" font-size="13.0064">занятия</text>
</g>
</svg>
