<?xml version="1.0" encoding="utf-8"?>
<!-- Generator: Adobe Illustrator 16.0.3, SVG Export Plug-In . SVG Version: 6.00 Build 0)  -->
<!DOCTYPE svg PUBLIC "-//W3C//DTD SVG 1.1//EN" "http://www.w3.org/Graphics/SVG/1.1/DTD/svg11.dtd">
<svg version="1.1" id="Layer_1" xmlns="http://www.w3.org/2000/svg" xmlns:xlink="http://www.w3.org/1999/xlink" x="0px" y="0px"
	 width="578px" height="299px" viewBox="0 0 578 299" enable-background="new 0 0 578 299" xml:space="preserve">
<rect x="-140.889" y="-290.391" fill="#A27A46" width="865.457" height="757.463"/>
<text transform="matrix(1 0 0 1 150.5024 144.8428)" fill="#FFFFFF" font-family="'AktivGrotesk-Light'" font-size="7">Формирование</text>
<text transform="matrix(1 0 0 1 175.3027 154.4805)"><tspan x="0" y="0" fill="#FFFFFF" font-family="'AktivGrotesk-Light'" font-size="7">гип</tspan><tspan x="10.619" y="0" fill="#FFFFFF" font-family="'AktivGrotesk-Light'" font-size="7">о</tspan><tspan x="14.651" y="0" fill="#FFFFFF" font-family="'AktivGrotesk-Light'" font-size="7">т</tspan><tspan x="17.675" y="0" fill="#FFFFFF" font-family="'AktivGrotesk-Light'" font-size="7">ез</tspan></text>
<g>
	<text transform="matrix(1 0 0 1 184.9155 234.1777)" fill="#FFFFFF" font-family="'AktivGrotesk-Light'" font-size="8.2831">фокус группы</text>
</g>
<g>
	<text transform="matrix(1 0 0 1 344.3184 234.1777)" fill="#FFFFFF" font-family="'AktivGrotesk-Light'" font-size="8.2831">Face 2 face и </text>
</g>
<g>
	<text transform="matrix(1 0 0 1 343.0137 247.6709)" fill="#FFFFFF" font-family="'AktivGrotesk-Light'" font-size="8.2831">онлайн опрос</text>
</g>
<text transform="matrix(1 0 0 1 96.2109 150.2822)"><tspan x="0" y="0" fill="#FFFFFF" font-family="'AktivGrotesk-Light'" font-size="8.2831">С</tspan><tspan x="5.989" y="0" fill="#FFFFFF" font-family="'AktivGrotesk-Light'" font-size="8.2831">та</tspan><tspan x="14.073" y="0" fill="#FFFFFF" font-family="'AktivGrotesk-Light'" font-size="8.2831">р</tspan><tspan x="18.753" y="0" fill="#FFFFFF" font-family="'AktivGrotesk-Light'" font-size="8.2831">т</tspan></text>
<text transform="matrix(1 0 0 1 460.1953 149.6445)" fill="#FFFFFF" font-family="'AktivGrotesk-Light'" font-size="8.2831">Финиш</text>
<text transform="matrix(1 0 0 1 220.314 144.8428)"><tspan x="0" y="0" fill="#FFFFFF" font-family="'AktivGrotesk-Light'" font-size="7">С</tspan><tspan x="4.9" y="0" fill="#FFFFFF" font-family="'AktivGrotesk-Light'" font-size="7">оста</tspan><tspan x="19.761" y="0" fill="#FFFFFF" font-family="'AktivGrotesk-Light'" font-size="7">в</tspan><tspan x="23.604" y="0" fill="#FFFFFF" font-family="'AktivGrotesk-Light'" font-size="7">ление</tspan></text>
<text transform="matrix(1 0 0 1 220.314 154.4805)"><tspan x="0" y="0" fill="#FFFFFF" font-family="'AktivGrotesk-Light'" font-size="7">опросни</tspan><tspan x="27.951" y="0" fill="#FFFFFF" font-family="'AktivGrotesk-Light'" font-size="7">к</tspan><tspan x="31.143" y="0" fill="#FFFFFF" font-family="'AktivGrotesk-Light'" font-size="7">ов</tspan></text>
<text transform="matrix(1 0 0 1 315.4785 144.6807)"><tspan x="0" y="0" fill="#FFFFFF" font-family="'AktivGrotesk-Light'" font-size="7">К</tspan><tspan x="4.102" y="0" fill="#FFFFFF" font-family="'AktivGrotesk-Light'" font-size="7">о</tspan><tspan x="8.049" y="0" fill="#FFFFFF" font-family="'AktivGrotesk-Light'" font-size="7">личествен.</tspan></text>
<text transform="matrix(1 0 0 1 333.8809 154.3184)" fill="#FFFFFF" font-family="'AktivGrotesk-Light'" font-size="7">опросы</text>
<text transform="matrix(1 0 0 1 379.0781 145.4639)"><tspan x="0" y="0" fill="#FFFFFF" font-family="'AktivGrotesk-Light'" font-size="7">Выв</tspan><tspan x="12.831" y="0" fill="#FFFFFF" font-family="'AktivGrotesk-Light'" font-size="7">о</tspan><tspan x="16.765" y="0" fill="#FFFFFF" font-family="'AktivGrotesk-Light'" font-size="7">ды,</tspan></text>
<text transform="matrix(1 0 0 1 379.0781 155.1016)"><tspan x="0" y="0" fill="#FFFFFF" font-family="'AktivGrotesk-Light'" font-size="7">о</tspan><tspan x="4.032" y="0" fill="#FFFFFF" font-family="'AktivGrotesk-Light'" font-size="7">тчеты</tspan></text>
<g>
	<path fill="none" stroke="#FFFFFF" stroke-width="0.944" d="M289,147.708l-58.443,58.281c-11.099,11.099-29.094,11.099-40.193,0
		L134,149.645"/>
	<path fill="none" stroke="#FFFFFF" stroke-width="0.944" d="M134,145.604l56.364-56.177c11.099-11.1,29.094-11.1,40.193,0
		L287,145.604"/>
</g>
<g>
	<path fill="none" stroke="#FFFFFF" stroke-width="0.944" d="M446.84,147.708l-58.443,58.281c-11.1,11.099-29.094,11.099-40.193,0
		l-56.363-56.345"/>
	<path fill="none" stroke="#FFFFFF" stroke-width="0.944" d="M291.84,145.604l56.363-56.177c11.1-11.1,29.094-11.1,40.193,0
		l56.443,56.177"/>
</g>
<line fill="none" stroke="#FFFFFF" stroke-width="0.944" x1="210.682" y1="80.614" x2="210.682" y2="213.988"/>
<line fill="none" stroke="#FFFFFF" stroke-width="0.944" x1="368.568" y1="80.614" x2="368.568" y2="213.988"/>
<path fill="#FFFFFF" d="M289.531,152.662c2.925,0,5.296-2.369,5.296-5.295c0-2.923-2.371-5.293-5.296-5.293
	c-2.923,0-5.294,2.37-5.294,5.293C284.237,150.293,286.608,152.662,289.531,152.662"/>
<path fill="#FFFFFF" d="M134.302,152.662c2.925,0,5.296-2.369,5.296-5.295c0-2.923-2.371-5.293-5.296-5.293
	c-2.923,0-5.294,2.37-5.294,5.293C129.008,150.293,131.379,152.662,134.302,152.662"/>
<path fill="#FFFFFF" d="M444.584,152.662c2.925,0,5.295-2.369,5.295-5.295c0-2.923-2.37-5.293-5.295-5.293
	c-2.923,0-5.294,2.37-5.294,5.293C439.29,150.293,441.661,152.662,444.584,152.662"/>
</svg>
