<?xml version="1.0" encoding="utf-8"?>
<!-- Generator: Adobe Illustrator 16.0.3, SVG Export Plug-In . SVG Version: 6.00 Build 0)  -->
<!DOCTYPE svg PUBLIC "-//W3C//DTD SVG 1.1//EN" "http://www.w3.org/Graphics/SVG/1.1/DTD/svg11.dtd">
<svg version="1.1" id="Layer_1" xmlns="http://www.w3.org/2000/svg" xmlns:xlink="http://www.w3.org/1999/xlink" x="0px" y="0px"
	 width="240px" height="360px" viewBox="0 0 240 360" enable-background="new 0 0 240 360" xml:space="preserve">
<rect fill="#A27A46" width="240" height="360"/>
<g>
	<text transform="matrix(1 0 0 1 20.4775 130.457)"><tspan x="0" y="0" fill="#FFFFFF" font-family="'AktivGrotesk-Bold'" font-size="13.0064">Д</tspan><tspan x="9.807" y="0" fill="#FFFFFF" font-family="'AktivGrotesk-Bold'" font-size="13.0064">ополни</tspan><tspan x="56.837" y="0" fill="#FFFFFF" font-family="'AktivGrotesk-Bold'" font-size="13.0064">т</tspan><tspan x="63.34" y="0" fill="#FFFFFF" font-family="'AktivGrotesk-Bold'" font-size="13.0064">е</tspan><tspan x="71.131" y="0" fill="#FFFFFF" font-family="'AktivGrotesk-Bold'" font-size="13.0064">льные сервисы:</tspan></text>
	<text transform="matrix(1 0 0 1 20.4775 161.6719)" fill="#FFFFFF" font-family="'AktivGrotesk-Light'" font-size="13.0064">I. 49,6% – </text>
	<text transform="matrix(1 0 0 1 78.459 161.6719)"><tspan x="0" y="0" fill="#FFFFFF" font-family="'AktivGrotesk-Bold'" font-size="13.0064">ремонт </tspan><tspan x="50.75" y="0" fill="#FFFFFF" font-family="'AktivGrotesk-Bold'" font-size="13.0064">о</tspan><tspan x="58.424" y="0" fill="#FFFFFF" font-family="'AktivGrotesk-Bold'" font-size="13.0064">де</tspan><tspan x="74.2" y="0" fill="#FFFFFF" font-family="'AktivGrotesk-Bold'" font-size="13.0064">ж</tspan><tspan x="85.541" y="0" fill="#FFFFFF" font-family="'AktivGrotesk-Bold'" font-size="13.0064">д</tspan><tspan x="93.801" y="0" fill="#FFFFFF" font-family="'AktivGrotesk-Bold'" font-size="13.0064">ы</tspan></text>
	<text transform="matrix(1 0 0 1 182.5996 161.6719)" fill="#FFFFFF" font-family="'AktivGrotesk-Light'" font-size="13.0064"> и</text>
	<text transform="matrix(1 0 0 1 20.4775 177.2793)"><tspan x="0" y="0" fill="#FFFFFF" font-family="'AktivGrotesk-Light'" font-size="13.0064">о</tspan><tspan x="7.713" y="0" fill="#FFFFFF" font-family="'AktivGrotesk-Light'" font-size="13.0064">б</tspan><tspan x="15.178" y="0" fill="#FFFFFF" font-family="'AktivGrotesk-Light'" font-size="13.0064">уви; 45,8% – </tspan></text>
	<text transform="matrix(1 0 0 1 111.3271 177.2793)"><tspan x="0" y="0" fill="#FFFFFF" font-family="'AktivGrotesk-Bold'" font-size="13.0064">бан</tspan><tspan x="23.346" y="0" fill="#FFFFFF" font-family="'AktivGrotesk-Bold'" font-size="13.0064">к</tspan><tspan x="30.369" y="0" fill="#FFFFFF" font-family="'AktivGrotesk-Bold'" font-size="13.0064">оматы</tspan></text>
	<text transform="matrix(1 0 0 1 183.5244 177.2793)" fill="#FFFFFF" font-family="'AktivGrotesk-Light'" font-size="13.0064">;</text>
	<text transform="matrix(1 0 0 1 20.4775 192.8867)"><tspan x="0" y="0" fill="#FFFFFF" font-family="'AktivGrotesk-Light'" font-size="13.0064">II. 37,5% - капс</tspan><tspan x="86.945" y="0" fill="#FFFFFF" font-family="'AktivGrotesk-Light'" font-size="13.0064">у</tspan><tspan x="92.955" y="0" fill="#FFFFFF" font-family="'AktivGrotesk-Light'" font-size="13.0064">лы</tspan></text>
	<text transform="matrix(1 0 0 1 129.4697 192.8867)"><tspan x="0" y="0" fill="#FFFFFF" font-family="'AktivGrotesk-Bold'" font-size="13.0064"> </tspan><tspan x="2.887" y="0" fill="#FFFFFF" font-family="'AktivGrotesk-Bold'" font-size="13.0064">д</tspan><tspan x="11.641" y="0" fill="#FFFFFF" font-family="'AktivGrotesk-Bold'" font-size="13.0064">ля сна</tspan></text>
	<text transform="matrix(1 0 0 1 181.792 192.8867)" fill="#FFFFFF" font-family="'AktivGrotesk-Light'" font-size="13.0064">;</text>
	<text transform="matrix(1 0 0 1 20.4775 208.4941)" fill="#FFFFFF" font-family="'AktivGrotesk-Light'" font-size="13.0064">III. прокат </text>
	<text transform="matrix(1 0 0 1 79.0713 208.4941)"><tspan x="0" y="0" fill="#FFFFFF" font-family="'AktivGrotesk-Bold'" font-size="13.0064">в</tspan><tspan x="7.388" y="0" fill="#FFFFFF" font-family="'AktivGrotesk-Bold'" font-size="13.0064">е</tspan><tspan x="15.178" y="0" fill="#FFFFFF" font-family="'AktivGrotesk-Bold'" font-size="13.0064">лосип</tspan><tspan x="53.689" y="0" fill="#FFFFFF" font-family="'AktivGrotesk-Bold'" font-size="13.0064">е</tspan><tspan x="61.246" y="0" fill="#FFFFFF" font-family="'AktivGrotesk-Bold'" font-size="13.0064">дов</tspan></text>
	<text transform="matrix(1 0 0 1 163.8311 208.4941)" fill="#FFFFFF" font-family="'AktivGrotesk-Light'" font-size="13.0064">, </text>
	<text transform="matrix(1 0 0 1 20.4775 224.1016)" fill="#FFFFFF" font-family="'AktivGrotesk-Bold'" font-size="13.0064">массажный</text>
	<text transform="matrix(1 0 0 1 96.083 224.1016)" fill="#FFFFFF" font-family="'AktivGrotesk-Light'" font-size="13.0064"> кабинет и сервис по </text>
	<text transform="matrix(1 0 0 1 20.4775 239.709)"><tspan x="0" y="0" fill="#FFFFFF" font-family="'AktivGrotesk-Bold'" font-size="13.0064">ремон</tspan><tspan x="41.1" y="0" fill="#FFFFFF" font-family="'AktivGrotesk-Bold'" font-size="13.0064">т</tspan><tspan x="48.162" y="0" fill="#FFFFFF" font-family="'AktivGrotesk-Bold'" font-size="13.0064">у </tspan><tspan x="58.424" y="0" fill="#FFFFFF" font-family="'AktivGrotesk-Bold'" font-size="13.0064">т</tspan><tspan x="64.939" y="0" fill="#FFFFFF" font-family="'AktivGrotesk-Bold'" font-size="13.0064">е</tspan><tspan x="72.73" y="0" fill="#FFFFFF" font-family="'AktivGrotesk-Bold'" font-size="13.0064">лефонов</tspan></text>
	<text transform="matrix(1 0 0 1 149.668 239.709)"><tspan x="0" y="0" fill="#FFFFFF" font-family="'AktivGrotesk-Light'" font-size="13.0064"> и </tspan><tspan x="13.006" y="0" fill="#FFFFFF" font-family="'AktivGrotesk-Light'" font-size="13.0064">г</tspan><tspan x="18.131" y="0" fill="#FFFFFF" font-family="'AktivGrotesk-Light'" font-size="13.0064">а</tspan><tspan x="25.153" y="0" fill="#FFFFFF" font-family="'AktivGrotesk-Light'" font-size="13.0064">д</tspan><tspan x="32.763" y="0" fill="#FFFFFF" font-family="'AktivGrotesk-Light'" font-size="13.0064">ж</tspan><tspan x="42.153" y="0" fill="#FFFFFF" font-family="'AktivGrotesk-Light'" font-size="13.0064">е</tspan><tspan x="49.437" y="0" fill="#FFFFFF" font-family="'AktivGrotesk-Light'" font-size="13.0064">т</tspan><tspan x="55.068" y="0" fill="#FFFFFF" font-family="'AktivGrotesk-Light'" font-size="13.0064">ов</tspan></text>
	<text transform="matrix(1 0 0 1 20.4775 264.0586)"><tspan x="0" y="0" fill="#FFFFFF" font-family="'AktivGrotesk-Bold'" font-size="7.2836">Д</tspan><tspan x="5.491" y="0" fill="#FFFFFF" font-family="'AktivGrotesk-Bold'" font-size="7.2836">о 25 л</tspan><tspan x="26.184" y="0" fill="#FFFFFF" font-family="'AktivGrotesk-Bold'" font-size="7.2836">е</tspan><tspan x="30.372" y="0" fill="#FFFFFF" font-family="'AktivGrotesk-Bold'" font-size="7.2836">т</tspan></text>
	<text transform="matrix(1 0 0 1 54.6289 264.0586)"><tspan x="0" y="0" fill="#FFFFFF" font-family="'AktivGrotesk-Light'" font-size="7.2836">: капс</tspan><tspan x="18.456" y="0" fill="#FFFFFF" font-family="'AktivGrotesk-Light'" font-size="7.2836">у</tspan><tspan x="21.828" y="0" fill="#FFFFFF" font-family="'AktivGrotesk-Light'" font-size="7.2836">лы </tspan><tspan x="32.44" y="0" fill="#FFFFFF" font-family="'AktivGrotesk-Light'" font-size="7.2836">д</tspan><tspan x="36.636" y="0" fill="#FFFFFF" font-family="'AktivGrotesk-Light'" font-size="7.2836">ля сна; прокат самока</tspan><tspan x="110.591" y="0" fill="#FFFFFF" font-family="'AktivGrotesk-Light'" font-size="7.2836">т</tspan><tspan x="113.737" y="0" fill="#FFFFFF" font-family="'AktivGrotesk-Light'" font-size="7.2836">ов и </tspan></text>
	<text transform="matrix(1 0 0 1 20.4775 272.7988)"><tspan x="0" y="0" fill="#FFFFFF" font-family="'AktivGrotesk-Light'" font-size="7.2836">в</tspan><tspan x="3.882" y="0" fill="#FFFFFF" font-family="'AktivGrotesk-Light'" font-size="7.2836">е</tspan><tspan x="7.771" y="0" fill="#FFFFFF" font-family="'AktivGrotesk-Light'" font-size="7.2836">лосип</tspan><tspan x="28.224" y="0" fill="#FFFFFF" font-family="'AktivGrotesk-Light'" font-size="7.2836">е</tspan><tspan x="32.207" y="0" fill="#FFFFFF" font-family="'AktivGrotesk-Light'" font-size="7.2836">дов. </tspan></text>
	<text transform="matrix(1 0 0 1 67.9521 272.7988)"><tspan x="0" y="0" fill="#FFFFFF" font-family="'AktivGrotesk-Bold'" font-size="7.2836">26-35 л</tspan><tspan x="26.046" y="0" fill="#FFFFFF" font-family="'AktivGrotesk-Bold'" font-size="7.2836">е</tspan><tspan x="30.241" y="0" fill="#FFFFFF" font-family="'AktivGrotesk-Bold'" font-size="7.2836">т</tspan></text>
	<text transform="matrix(1 0 0 1 101.9736 272.7988)"><tspan x="0" y="0" fill="#FFFFFF" font-family="'AktivGrotesk-Light'" font-size="7.2836">: </tspan><tspan x="3.081" y="0" fill="#FFFFFF" font-family="'AktivGrotesk-Light'" font-size="7.2836">у</tspan><tspan x="6.643" y="0" fill="#FFFFFF" font-family="'AktivGrotesk-Light'" font-size="7.2836">слуги лечебно</tspan><tspan x="55.58" y="0" fill="#FFFFFF" font-family="'AktivGrotesk-Light'" font-size="7.2836">г</tspan><tspan x="58.384" y="0" fill="#FFFFFF" font-family="'AktivGrotesk-Light'" font-size="7.2836">о масс</tspan><tspan x="81.247" y="0" fill="#FFFFFF" font-family="'AktivGrotesk-Light'" font-size="7.2836">а</tspan><tspan x="85.15" y="0" fill="#FFFFFF" font-family="'AktivGrotesk-Light'" font-size="7.2836">ж</tspan><tspan x="90.54" y="0" fill="#FFFFFF" font-family="'AktivGrotesk-Light'" font-size="7.2836">а и </tspan></text>
	<text transform="matrix(1 0 0 1 20.4775 281.5391)"><tspan x="0" y="0" fill="#FFFFFF" font-family="'AktivGrotesk-Light'" font-size="7.2836">мануально</tspan><tspan x="36.708" y="0" fill="#FFFFFF" font-family="'AktivGrotesk-Light'" font-size="7.2836">г</tspan><tspan x="39.513" y="0" fill="#FFFFFF" font-family="'AktivGrotesk-Light'" font-size="7.2836">о </tspan><tspan x="45.463" y="0" fill="#FFFFFF" font-family="'AktivGrotesk-Light'" font-size="7.2836">т</tspan><tspan x="48.617" y="0" fill="#FFFFFF" font-family="'AktivGrotesk-Light'" font-size="7.2836">ерапевта. </tspan></text>
	<text transform="matrix(1 0 0 1 103.4141 281.5391)"><tspan x="0" y="0" fill="#FFFFFF" font-family="'AktivGrotesk-Bold'" font-size="7.2836">46-55 л</tspan><tspan x="26.046" y="0" fill="#FFFFFF" font-family="'AktivGrotesk-Bold'" font-size="7.2836">е</tspan><tspan x="30.241" y="0" fill="#FFFFFF" font-family="'AktivGrotesk-Bold'" font-size="7.2836">т</tspan></text>
	<text transform="matrix(1 0 0 1 137.4355 281.5391)" fill="#FFFFFF" font-family="'AktivGrotesk-Light'" font-size="7.2836">: </text>
	<text transform="matrix(1 0 0 1 140.5166 281.5391)" fill="#FFFFFF" font-family="'AktivGrotesk-Light'" font-size="7.2836">быстрая доставка </text>
	<text transform="matrix(1 0 0 1 20.4775 290.2793)"><tspan x="0" y="0" fill="#FFFFFF" font-family="'AktivGrotesk-Light'" font-size="7.2836">«бизне</tspan><tspan x="23.599" y="0" fill="#FFFFFF" font-family="'AktivGrotesk-Light'" font-size="7.2836">с</tspan><tspan x="27.524" y="0" fill="#FFFFFF" font-family="'AktivGrotesk-Light'" font-size="7.2836">-</tspan><tspan x="30.452" y="0" fill="#FFFFFF" font-family="'AktivGrotesk-Light'" font-size="7.2836">п</tspan><tspan x="34.473" y="0" fill="#FFFFFF" font-family="'AktivGrotesk-Light'" font-size="7.2836">о</tspan><tspan x="38.565" y="0" fill="#FFFFFF" font-family="'AktivGrotesk-Light'" font-size="7.2836">д</tspan><tspan x="42.674" y="0" fill="#FFFFFF" font-family="'AktivGrotesk-Light'" font-size="7.2836">ар</tspan><tspan x="50.751" y="0" fill="#FFFFFF" font-family="'AktivGrotesk-Light'" font-size="7.2836">к</tspan><tspan x="54.072" y="0" fill="#FFFFFF" font-family="'AktivGrotesk-Light'" font-size="7.2836">ов</tspan><tspan x="62.273" y="0" fill="#FFFFFF" font-family="'AktivGrotesk-Light'" font-size="7.2836">»</tspan><tspan x="65.572" y="0" fill="#FFFFFF" font-family="'AktivGrotesk-Light'" font-size="7.2836">, ремонт юв</tspan><tspan x="104.787" y="0" fill="#FFFFFF" font-family="'AktivGrotesk-Light'" font-size="7.2836">е</tspan><tspan x="108.676" y="0" fill="#FFFFFF" font-family="'AktivGrotesk-Light'" font-size="7.2836">лирных и</tspan><tspan x="139.193" y="0" fill="#FFFFFF" font-family="'AktivGrotesk-Light'" font-size="7.2836">з</tspan><tspan x="143.01" y="0" fill="#FFFFFF" font-family="'AktivGrotesk-Light'" font-size="7.2836">д</tspan><tspan x="146.994" y="0" fill="#FFFFFF" font-family="'AktivGrotesk-Light'" font-size="7.2836">е</tspan><tspan x="150.884" y="0" fill="#FFFFFF" font-family="'AktivGrotesk-Light'" font-size="7.2836">лий и </tspan></text>
	<text transform="matrix(1 0 0 1 20.4775 299.0195)"><tspan x="0" y="0" fill="#FFFFFF" font-family="'AktivGrotesk-Light'" font-size="7.2836">прокат д</tspan><tspan x="28.799" y="0" fill="#FFFFFF" font-family="'AktivGrotesk-Light'" font-size="7.2836">е</tspan><tspan x="32.688" y="0" fill="#FFFFFF" font-family="'AktivGrotesk-Light'" font-size="7.2836">ловой и вечерней </tspan><tspan x="94.342" y="0" fill="#FFFFFF" font-family="'AktivGrotesk-Light'" font-size="7.2836">о</tspan><tspan x="98.428" y="0" fill="#FFFFFF" font-family="'AktivGrotesk-Light'" font-size="7.2836">д</tspan><tspan x="102.412" y="0" fill="#FFFFFF" font-family="'AktivGrotesk-Light'" font-size="7.2836">е</tspan><tspan x="106.382" y="0" fill="#FFFFFF" font-family="'AktivGrotesk-Light'" font-size="7.2836">ж</tspan><tspan x="111.925" y="0" fill="#FFFFFF" font-family="'AktivGrotesk-Light'" font-size="7.2836">ды</tspan></text>
</g>
</svg>
