<?xml version="1.0" encoding="utf-8"?>
<!-- Generator: Adobe Illustrator 16.0.3, SVG Export Plug-In . SVG Version: 6.00 Build 0)  -->
<!DOCTYPE svg PUBLIC "-//W3C//DTD SVG 1.1//EN" "http://www.w3.org/Graphics/SVG/1.1/DTD/svg11.dtd">
<svg version="1.1" id="Layer_1" xmlns="http://www.w3.org/2000/svg" xmlns:xlink="http://www.w3.org/1999/xlink" x="0px" y="0px"
	 width="240px" height="360px" viewBox="0 0 240 360" enable-background="new 0 0 240 360" xml:space="preserve">
<rect fill="#F7F7F7" width="240" height="360"/>
<text transform="matrix(1 0 0 1 92.2861 301.0605)"><tspan x="0" y="0" font-family="'AktivGrotesk-Light'" font-size="7">крупные события</tspan><tspan x="-23.113" y="8.4" font-family="'AktivGrotesk-Light'" font-size="7">локальные клубы по интересам</tspan><tspan x="-12.086" y="16.801" font-family="'AktivGrotesk-Light'" font-size="7">интерактивные форматы</tspan><tspan x="-9.835" y="25.201" font-family="'AktivGrotesk-Light'" font-size="7">инициативы комьюнити</tspan></text>
<g>
	<g>
		<defs>
			<rect id="SVGID_71_" x="48.931" y="27.292" width="145.536" height="121.874"/>
		</defs>
		<clipPath id="SVGID_2_">
			<use xlink:href="#SVGID_71_"  overflow="visible"/>
		</clipPath>
		<path clip-path="url(#SVGID_2_)" fill="none" stroke="#000000" stroke-miterlimit="10" d="M164.949,68.451
			c0,0-3.093,3.509-3.093,7.849c0,2.179,0.884,3,0.363,4.689c-0.521,1.69-0.435,4.744,0.194,8.771
			c0.63,4.027,0.496,3.184,0.477,3.703c-0.021,0.519,3.228,1.82,4.137,1.95s6.237,5.717,6.237,5.717v4.678c0,0,2.6,1.948,7.407,0.91
			c4.806-1.039,6.105-4.028,6.105-4.028s0.391-0.781-0.779-4.809"/>
		<path clip-path="url(#SVGID_2_)" d="M170.461,64.184c-2.113,0.635-6.032,1.213-5.902,6.671c0.131,5.457-0.52,21.699-1.559,24.559
			c-1.04,2.857-1.143,3.637-1.143,3.637s1.792,2.858,5.949,3.118c4.158,0.261,13.903,1.431,20.011-4.547
			c6.108-5.977,9.876-18.971,2.858-26.638c-7.016-7.666-8.076-7.745-11.564-7.796C175.302,63.134,172.216,63.659,170.461,64.184"/>
		<path clip-path="url(#SVGID_2_)" fill="none" stroke="#000000" stroke-miterlimit="10" d="M79.249,70.676
			c0,0,1.545,10.129,1.232,12.2c-0.313,2.07,0.053,10.313,0.053,10.313"/>
		<path clip-path="url(#SVGID_2_)" d="M75.098,98.674c1.097,0.423,1.599-0.697,1.959-1.494c0.358-0.799,1.308-1.251,1.931-0.601
			c0.546,0.573,1.547-0.176,1.547-1.594c0-1.379-0.15-1.35-0.502-2.247c-0.349-0.899-2.14-0.045-3.838,1.051
			c-1.695,1.101-1.935,2.778-1.695,3.79C74.568,97.877,74.767,98.548,75.098,98.674 M53.908,87.802c0,0-7.777-8.825-3.89-16.45
			c3.89-7.631,10.472-9.876,18.1-9.726c7.629,0.152,13.312,3.145,13.46,5.687c0.15,2.542-1.493,4.936-4.037,6.282
			c-2.541,1.346-5.536,3.288-9.273,2.244c-3.737-1.048-8.673-1.915-8.673-1.915l1.493,4.157c0,0,1.945,10.623,2.993,12.564
			c1.045,1.945,4.486,6.731,6.432,5.984c1.943-0.747,2.989-3.292,5.234-4.336c2.243-1.049,4.338-2.842,4.936-1.648
			c0.6,1.196,0.896,3.442-0.148,6.883c-1.048,3.437-2.993,5.233-6.732,4.637c-3.741-0.603-13.013-4.336-13.461-5.536
			c-0.449-1.196,0.896-3.589,0.149-6.883c-0.749-3.287-1.944-7.795-4.488-5.831C53.618,85.755,53.908,87.802,53.908,87.802"/>
		<path clip-path="url(#SVGID_2_)" fill="none" stroke="#000000" stroke-miterlimit="10" d="M52.862,85.705
			c0,0,4.772,6.29,4.92,10.322c0.15,4.036-0.442,9.677-0.442,9.677s-0.735,3.368,3.698,5.933c4.221,2.438,7.827,2.94,10.968,1.144
			c3.142-1.794,3.521-4.038,3.521-4.038l-1.726-6.58"/>
		<path clip-path="url(#SVGID_2_)" d="M112.804,32.901c0,0,4.412,7.106,8.778,10.625c4.368,3.517,4.932,2.812,5.213,4.786
			c0.279,1.973,0,0.986,1.688-0.704c1.689-1.691,4.082-2.571,4.082-0.582c0,1.992-1.267,5.232-2.814,6.214
			c-1.547,0.985-1.693,0.543-2.254,3.932c-0.561,3.391-4.225,13.527-4.716,14.093c-0.492,0.564-1.056,0.985-1.056,0.985
			s8.451-0.707,12.815-7.323c4.362-6.615,6.336-14.499,5.066-21.822c-1.267-7.323-4.917-14.603-12.11-15.491
			C124.116,27.192,120.127,26.144,112.804,32.901"/>
		<path clip-path="url(#SVGID_2_)" fill="none" stroke="#000000" stroke-miterlimit="10" d="M125.278,70.681
			c0,0-4.821,1.992-6.089,1.569c-1.267-0.421-1.365-2.248-1.41-3.098c-0.278-5.422-1.806-8.083-1.806-8.083 M121.866,59.155
			c0,0-2.609,1.588-5.893,1.915c-0.379,0.037-0.759,0.055-1.15,0.055c-3.802,0-5.354-0.45-5.491-3.112
			c-0.138-2.661-0.733-8.745,0-11.531c0.242-0.914,0.846-1.551,0.987-3.662c0.143-2.113-0.148-3.239,0.428-5.771
			c0.521-2.273,3.166-4.484,3.166-4.484"/>
		<path clip-path="url(#SVGID_2_)" d="M131.677,146.118c0,0-10.455,6.307-16.754,0.773c-6.304-5.532-10.917-16.45-8.3-26.13
			c2.614-9.684,6.914-19.219,17.214-17.062c10.3,2.152,14.912,9.835,11.991,15.832c-2.922,5.993-6.455,6.745-6.455,6.745
			s-3.981-0.15-3.074,6.012C127.195,138.384,125.528,140.277,131.677,146.118"/>
		<path clip-path="url(#SVGID_2_)" fill="none" stroke="#000000" stroke-miterlimit="10" d="M128.143,143.048
			c0,0,0.221-5.261,0.988-7.563 M135.671,112.598c0,0,1.544,6.78,1.696,7.239c0.15,0.462-0.887,2.305-0.674,3.688
			c0.211,1.386,1.164,2.157,0.688,6.151s-0.329,6.763-2.479,6.763c-1.78-0.007-3.981-0.336-5.771-0.953
			c-0.371-0.133-0.707-0.276-0.988-0.431"/>
		
			<path clip-path="url(#SVGID_2_)" fill="none" stroke="#000000" stroke-width="1.001" stroke-miterlimit="10" stroke-dasharray="1.392,1.392" d="
			M80.975,78.507c8.849-6.155,21.514-10.402,35.89-11.524"/>
		
			<path clip-path="url(#SVGID_2_)" fill="none" stroke="#000000" stroke-width="1.001" stroke-miterlimit="10" stroke-dasharray="1.463,1.463" d="
			M105.528,130.404c-14.427-2.972-26.158-9.237-32.502-17.237"/>
		
			<path clip-path="url(#SVGID_2_)" fill="none" stroke="#000000" stroke-width="1.001" stroke-miterlimit="10" stroke-dasharray="1.427,1.427" d="
			M179.218,107.853c-5.243,11.553-21.08,20.612-41.129,23.479"/>
		
			<path clip-path="url(#SVGID_2_)" fill="none" stroke="#000000" stroke-width="1.001" stroke-miterlimit="10" stroke-dasharray="1.407,1.407" d="
			M133.635,67.117c10.377,0.979,19.806,3.591,27.476,7.369"/>
	</g>
</g>
<text transform="matrix(1 0 0 1 77.6445 173.2158)"><tspan x="0" y="0" font-family="'AktivGrotesk-Light'" font-size="7">развитие комьюнити через</tspan><tspan x="5.058" y="8.4" font-family="'AktivGrotesk-Light'" font-size="7">событийную программу</tspan></text>
<g>
	<polygon points="71.857,232.173 63.812,236.828 55.67,241.541 63.704,246.283 71.833,251.084 79.877,255.836 88.282,250.973 
		96.33,246.323 104.75,241.453 96.618,236.753 88.403,232.001 80.277,227.3 	"/>
	<g>
		<defs>
			<rect id="SVGID_73_" x="55.264" y="201.711" width="129.472" height="77.379"/>
		</defs>
		<clipPath id="SVGID_4_">
			<use xlink:href="#SVGID_73_"  overflow="visible"/>
		</clipPath>
		<polygon clip-path="url(#SVGID_4_)" fill="none" stroke="#FFFFFF" stroke-linejoin="round" stroke-miterlimit="10" points="
			96.618,236.753 88.403,232.001 80.277,227.301 71.858,232.173 63.813,236.828 55.67,241.54 63.703,246.283 71.834,251.085 
			79.878,255.836 88.282,250.974 96.331,246.323 104.75,241.453 		"/>
	</g>
	<polygon points="112.625,255.021 104.579,259.677 96.438,264.389 104.472,269.131 112.601,273.933 120.644,278.685 129.05,273.822 
		137.098,269.172 145.517,264.302 137.385,259.601 129.171,254.85 121.045,250.148 	"/>
	<g>
		<defs>
			<rect id="SVGID_75_" x="55.264" y="201.711" width="129.472" height="77.379"/>
		</defs>
		<clipPath id="SVGID_6_">
			<use xlink:href="#SVGID_75_"  overflow="visible"/>
		</clipPath>
		<polygon clip-path="url(#SVGID_6_)" fill="none" stroke="#FFFFFF" stroke-linejoin="round" stroke-miterlimit="10" points="
			137.385,259.601 129.171,254.85 121.045,250.148 112.626,255.021 104.58,259.676 96.437,264.387 104.471,269.131 112.601,273.933 
			120.645,278.685 129.05,273.822 137.098,269.17 145.518,264.302 		"/>
	</g>
	<polygon points="136.667,213.277 128.452,208.527 120.326,203.825 111.907,208.699 103.862,213.353 95.719,218.064 103.752,222.81 
		111.883,227.61 119.927,232.361 128.331,227.499 136.38,222.849 144.799,217.979 	"/>
	<polygon fill="none" stroke="#FFFFFF" stroke-linejoin="round" stroke-miterlimit="10" points="136.667,213.277 128.452,208.527 
		120.326,203.825 111.907,208.699 103.862,213.353 95.719,218.064 103.752,222.81 111.883,227.61 119.927,232.361 128.331,227.499 
		136.38,222.849 144.799,217.979 	"/>
	<polygon points="170.735,235.146 167.411,237.038 164.045,238.953 167.366,240.881 170.726,242.832 174.05,244.763 
		177.524,242.787 180.85,240.897 184.329,238.918 180.968,237.008 177.574,235.077 174.216,233.166 	"/>
	<g>
		<defs>
			<rect id="SVGID_77_" x="55.264" y="201.711" width="129.472" height="77.379"/>
		</defs>
		<clipPath id="SVGID_8_">
			<use xlink:href="#SVGID_77_"  overflow="visible"/>
		</clipPath>
		<polygon clip-path="url(#SVGID_8_)" fill="none" stroke="#FFFFFF" stroke-linejoin="round" stroke-miterlimit="10" points="
			180.969,237.008 177.574,235.076 174.216,233.166 170.735,235.146 167.411,237.038 164.045,238.953 167.366,240.881 
			170.726,242.832 174.051,244.763 177.524,242.787 180.85,240.897 184.33,238.918 		"/>
	</g>
	<polygon points="166.347,246.173 162.951,244.242 159.594,242.333 156.114,244.312 152.788,246.204 149.424,248.119 
		152.744,250.047 156.104,251.999 159.429,253.93 162.901,251.953 166.228,250.062 169.707,248.085 	"/>
	<polygon fill="none" stroke="#FFFFFF" stroke-linejoin="round" stroke-miterlimit="10" points="166.347,246.173 162.951,244.242 
		159.594,242.333 156.114,244.312 152.788,246.204 149.424,248.119 152.744,250.047 156.104,251.999 159.429,253.93 
		162.901,251.953 166.228,250.062 169.707,248.085 	"/>
	<polygon points="71.857,230.464 63.812,235.119 55.67,239.83 63.704,244.574 71.833,249.375 79.877,254.128 88.282,249.265 
		96.33,244.614 104.75,239.745 96.618,235.043 88.403,230.293 80.277,225.591 	"/>
	<g>
		<defs>
			<rect id="SVGID_79_" x="55.264" y="201.711" width="129.472" height="77.379"/>
		</defs>
		<clipPath id="SVGID_10_">
			<use xlink:href="#SVGID_79_"  overflow="visible"/>
		</clipPath>
		<polygon clip-path="url(#SVGID_10_)" fill="none" stroke="#FFFFFF" stroke-linejoin="round" stroke-miterlimit="10" points="
			96.618,235.043 88.403,230.292 80.277,225.591 71.858,230.464 63.813,235.118 55.67,239.83 63.703,244.574 71.834,249.376 
			79.878,254.127 88.282,249.265 96.331,244.613 104.75,239.744 		"/>
	</g>
	<polygon points="137.385,257.892 129.171,253.14 121.045,248.439 112.626,253.312 104.58,257.967 96.437,262.679 104.471,267.421 
		112.601,272.224 120.645,276.975 129.05,272.112 137.098,267.461 145.518,262.592 	"/>
	<polygon fill="none" stroke="#FFFFFF" stroke-linejoin="round" stroke-miterlimit="10" points="137.385,257.892 129.171,253.14 
		121.045,248.439 112.626,253.312 104.58,257.967 96.437,262.679 104.471,267.421 112.601,272.224 120.645,276.975 129.05,272.112 
		137.098,267.461 145.518,262.592 	"/>
	<polygon points="136.667,211.568 128.452,206.817 120.326,202.116 111.907,206.99 103.862,211.644 95.719,216.355 103.752,221.099 
		111.883,225.901 119.927,230.652 128.331,225.79 136.38,221.14 144.799,216.27 	"/>
	<g>
		<defs>
			<rect id="SVGID_81_" x="55.264" y="201.711" width="129.472" height="77.379"/>
		</defs>
		<clipPath id="SVGID_12_">
			<use xlink:href="#SVGID_81_"  overflow="visible"/>
		</clipPath>
		<polygon clip-path="url(#SVGID_12_)" fill="none" stroke="#FFFFFF" stroke-linejoin="round" stroke-miterlimit="10" points="
			136.667,211.568 128.452,206.817 120.326,202.116 111.907,206.99 103.862,211.644 95.719,216.355 103.752,221.099 
			111.883,225.901 119.927,230.652 128.331,225.79 136.38,221.14 144.799,216.27 		"/>
	</g>
	<polygon points="170.735,233.772 167.411,235.664 164.045,237.579 167.366,239.507 170.726,241.457 174.05,243.39 177.524,241.413 
		180.85,239.523 184.329,237.544 180.968,235.633 177.574,233.703 174.216,231.792 	"/>
	<g>
		<defs>
			<rect id="SVGID_83_" x="55.264" y="201.711" width="129.472" height="77.379"/>
		</defs>
		<clipPath id="SVGID_14_">
			<use xlink:href="#SVGID_83_"  overflow="visible"/>
		</clipPath>
		<polygon clip-path="url(#SVGID_14_)" fill="none" stroke="#FFFFFF" stroke-linejoin="round" stroke-miterlimit="10" points="
			180.969,235.634 177.574,233.702 174.216,231.792 170.735,233.772 167.411,235.664 164.045,237.579 167.366,239.507 
			170.726,241.457 174.051,243.39 177.524,241.413 180.85,239.523 184.33,237.544 		"/>
	</g>
	<polygon points="166.347,244.8 162.951,242.868 159.594,240.958 156.114,242.938 152.788,244.83 149.424,246.745 152.744,248.673 
		156.104,250.623 159.429,252.556 162.901,250.579 166.228,248.689 169.707,246.711 	"/>
	<polygon fill="none" stroke="#FFFFFF" stroke-linejoin="round" stroke-miterlimit="10" points="166.347,244.8 162.951,242.868 
		159.594,240.958 156.114,242.938 152.788,244.83 149.424,246.745 152.744,248.673 156.104,250.623 159.429,252.556 
		162.901,250.579 166.228,248.689 169.707,246.711 	"/>
</g>
</svg>
