<?xml version="1.0" encoding="utf-8"?>
<!-- Generator: Adobe Illustrator 16.0.3, SVG Export Plug-In . SVG Version: 6.00 Build 0)  -->
<!DOCTYPE svg PUBLIC "-//W3C//DTD SVG 1.1//EN" "http://www.w3.org/Graphics/SVG/1.1/DTD/svg11.dtd">
<svg version="1.1" id="Layer_1" xmlns="http://www.w3.org/2000/svg" xmlns:xlink="http://www.w3.org/1999/xlink" x="0px" y="0px"
	 width="100px" height="29.504px" viewBox="0 0 100 29.504" enable-background="new 0 0 100 29.504" xml:space="preserve">
<g>
	<path d="M0,5.296V0h19.626v5.296h-6.693V23.2h-6.24V5.296H0z"/>
	<path d="M33.338,21.268c-1.559,1.613-3.747,2.42-6.562,2.42c-2.773,0-4.929-0.785-6.467-2.355
		c-1.538-1.571-2.307-3.773-2.307-6.613c0-2.881,0.785-5.117,2.355-6.709c1.57-1.592,3.753-2.389,6.547-2.389
		c2.773,0,4.929,0.785,6.467,2.356c1.538,1.57,2.307,3.774,2.307,6.612S34.898,19.652,33.338,21.268z M24.712,18.001
		c0.509,0.671,1.218,1.007,2.128,1.007c0.91,0,1.619-0.336,2.128-1.007c0.51-0.671,0.764-1.787,0.764-3.347
		s-0.254-2.675-0.764-3.346C28.459,10.636,27.75,10.3,26.84,10.3c-0.91,0-1.619,0.336-2.128,1.008
		c-0.51,0.671-0.764,1.787-0.764,3.346C23.948,16.214,24.202,17.33,24.712,18.001z"/>
	<path d="M50.073,21.283c-1.213,1.625-2.87,2.437-4.972,2.437c-2.188,0-3.872-0.769-5.053-2.307
		c-1.181-1.538-1.771-3.704-1.771-6.499c0-1.473,0.167-2.788,0.503-3.948c0.336-1.159,0.818-2.133,1.446-2.924
		s1.381-1.392,2.259-1.803c0.877-0.412,1.857-0.618,2.94-0.618c1.906,0,3.4,0.672,4.483,2.015V0h5.882v23.2h-5.719v-1.917H50.073z
		 M49.732,12.51c-0.12-0.52-0.288-0.932-0.505-1.235c-0.26-0.369-0.579-0.623-0.958-0.764C47.89,10.37,47.505,10.3,47.116,10.3
		c-0.866,0-1.565,0.325-2.096,0.975c-0.531,0.65-0.796,1.776-0.796,3.379c0,1.583,0.26,2.698,0.78,3.347
		c0.519,0.649,1.213,0.976,2.079,0.976c0.411,0,0.802-0.076,1.169-0.229c0.368-0.15,0.694-0.434,0.975-0.846
		c0.455-0.649,0.683-1.635,0.683-2.957v-0.487C49.91,13.68,49.851,13.03,49.732,12.51z"/>
	<path d="M69.375,21.348c-0.693,0.737-1.445,1.305-2.259,1.707c-0.812,0.4-1.781,0.601-2.908,0.601
		c-0.758,0-1.483-0.097-2.177-0.292s-1.305-0.504-1.836-0.928c-0.53-0.422-0.953-0.953-1.269-1.592
		c-0.313-0.639-0.471-1.414-0.471-2.322c0-1.041,0.211-1.912,0.634-2.617c0.422-0.703,1.002-1.276,1.738-1.721
		c0.736-0.445,1.604-0.769,2.6-0.975s2.068-0.341,3.217-0.406l2.566-0.13V11.99c0-0.845-0.205-1.43-0.617-1.755
		c-0.41-0.325-0.932-0.487-1.56-0.487c-1.343,0-2.112,0.563-2.308,1.689l-5.297-0.422c0.305-1.819,1.116-3.174,2.438-4.062
		c1.322-0.888,3.131-1.333,5.427-1.333c1.431,0,2.627,0.168,3.591,0.504c0.965,0.336,1.738,0.807,2.323,1.414
		s1.008,1.337,1.269,2.193c0.26,0.856,0.39,1.814,0.39,2.876V23.2h-5.491V21.348z M67.295,16.084
		c-1.234,0.064-2.074,0.271-2.52,0.618c-0.442,0.346-0.664,0.801-0.664,1.364c0,0.562,0.166,0.964,0.502,1.201
		c0.337,0.238,0.808,0.358,1.414,0.358c0.91,0,1.662-0.255,2.259-0.765c0.596-0.508,0.894-1.271,0.894-2.291v-0.584L67.295,16.084z"
		/>
	<path d="M85.816,15.662l2.988-9.521h6.109l-6.823,17.125c-0.454,1.127-0.883,2.084-1.282,2.875
		c-0.401,0.791-0.852,1.436-1.351,1.934c-0.498,0.499-1.062,0.861-1.688,1.089s-1.397,0.341-2.308,0.341
		c-0.692,0-1.37-0.061-2.03-0.179c-0.662-0.119-1.272-0.267-1.836-0.438l0.877-4.257c0.303,0.065,0.629,0.125,0.976,0.179
		c0.347,0.055,0.672,0.082,0.975,0.082c0.542,0,1.013-0.137,1.413-0.408c0.4-0.27,0.73-0.784,0.991-1.543l0.356-1.039L76.199,6.14
		h6.367L85.816,15.662z"/>
	<path d="M93.973,18.705c0.161-0.395,0.383-0.729,0.662-1.004c0.281-0.275,0.613-0.487,0.998-0.635
		c0.385-0.146,0.801-0.219,1.247-0.219s0.858,0.072,1.239,0.219c0.38,0.147,0.71,0.361,0.988,0.642
		c0.281,0.281,0.5,0.615,0.656,1.005c0.156,0.389,0.235,0.826,0.235,1.311c0,0.485-0.081,0.925-0.242,1.318
		c-0.161,0.395-0.383,0.729-0.661,1.006c-0.281,0.274-0.613,0.485-0.998,0.633c-0.386,0.147-0.801,0.222-1.248,0.222
		c-0.445,0-0.861-0.074-1.246-0.222c-0.385-0.146-0.715-0.357-0.99-0.633c-0.274-0.277-0.491-0.608-0.647-0.998
		c-0.155-0.39-0.235-0.826-0.235-1.311C93.73,19.543,93.812,19.1,93.973,18.705z M95.221,21.783
		c0.393,0.412,0.941,0.619,1.646,0.619c0.692,0,1.239-0.204,1.639-0.612c0.397-0.409,0.599-0.998,0.599-1.767
		c0-0.779-0.201-1.371-0.605-1.773c-0.402-0.404-0.947-0.605-1.631-0.605c-0.693,0-1.239,0.203-1.639,0.612
		c-0.398,0.408-0.6,0.997-0.6,1.767C94.628,20.783,94.825,21.37,95.221,21.783z M97.749,20.309l0.584,1.211h-0.997l-0.441-0.983
		h-0.429v0.983H95.57v-3.063h1.311c0.456,0,0.783,0.088,0.982,0.263c0.199,0.176,0.299,0.426,0.299,0.748
		C98.161,19.837,98.023,20.118,97.749,20.309z M96.822,19.837c0.162,0,0.273-0.03,0.335-0.092s0.093-0.146,0.093-0.249
		s-0.033-0.186-0.102-0.242c-0.064-0.057-0.188-0.086-0.369-0.086h-0.313v0.669H96.822z"/>
</g>
</svg>
