<?xml version="1.0" encoding="utf-8"?>
<!-- Generator: Adobe Illustrator 16.0.3, SVG Export Plug-In . SVG Version: 6.00 Build 0)  -->
<!DOCTYPE svg PUBLIC "-//W3C//DTD SVG 1.1//EN" "http://www.w3.org/Graphics/SVG/1.1/DTD/svg11.dtd">
<svg version="1.1" id="Layer_1" xmlns="http://www.w3.org/2000/svg" xmlns:xlink="http://www.w3.org/1999/xlink" x="0px" y="0px"
	 width="500px" height="320px" viewBox="0 0 500 320" enable-background="new 0 0 500 320" xml:space="preserve">
<g>
	<path fill-rule="evenodd" clip-rule="evenodd" d="M469.408,158.411c1.245,1.157,2.085,1.812,2.774,2.599
		c3.264,3.721,3.574,8.039,1.725,12.334c-1.926,4.477-5.822,6.736-10.587,7.048c-4.244,0.277-8.519,0.062-12.779,0.104
		c-1.376,0.014-1.89-0.629-1.888-1.95c0.015-12.85,0.017-25.699-0.006-38.549c-0.002-1.431,0.559-2.058,2.013-2.039
		c3.927,0.05,7.862-0.103,11.782,0.076c6.997,0.32,12.058,5.488,11.931,11.969c-0.057,2.892-1.291,5.262-3.305,7.255
		C470.651,157.669,470.096,157.94,469.408,158.411z M454.848,168.203c0,1.527-0.119,3.07,0.062,4.576
		c0.068,0.573,0.806,1.489,1.278,1.517c2.314,0.128,4.67,0.222,6.96-0.07c3.4-0.433,5.61-3.21,5.403-6.333
		c-0.228-3.427-2.548-5.654-6.145-5.8c-1.923-0.077-3.854,0.009-5.778-0.038c-1.258-0.03-1.837,0.478-1.795,1.764
		C454.882,165.278,454.845,166.741,454.848,168.203z M454.848,149.978c0,1.465-0.123,2.945,0.062,4.386
		c0.073,0.569,0.819,1.484,1.281,1.5c2.249,0.069,4.548,0.129,6.75-0.261c3.709-0.657,5.18-2.724,4.942-6.287
		c-0.192-2.917-2.42-4.966-5.818-5.188c-1.856-0.122-3.727-0.019-5.589-0.057c-1.207-0.024-1.665,0.563-1.638,1.715
		C454.871,147.182,454.847,148.58,454.848,149.978z"/>
	<path fill-rule="evenodd" clip-rule="evenodd" d="M111.389,161.8c2.256,2.987,4.289,5.678,6.32,8.369
		c2.006,2.657,4.035,5.297,5.994,7.988c0.352,0.484,0.415,1.179,0.611,1.776c-0.601,0.186-1.202,0.373-1.804,0.555
		c-0.062,0.019-0.134-0.005-0.199,0.005c-3.212,0.485-5.438-0.592-7.277-3.475c-2.894-4.539-6.271-8.771-9.451-13.127
		c-0.496-0.679-1.037-1.325-2.034-1.878c-0.062,0.672-0.173,1.344-0.176,2.017c-0.017,4.595,0.003,9.19-0.015,13.785
		c-0.01,2.422-0.248,2.643-2.617,2.675c-0.599,0.009-1.199-0.024-1.797,0c-1.438,0.06-2.052-0.639-2.05-2.05
		c0.011-12.786,0.013-25.572-0.005-38.359c-0.002-1.536,0.69-2.14,2.193-2.124c4.262,0.044,8.527-0.076,12.785,0.057
		c6.347,0.197,11.293,4.938,11.821,11.132c0.47,5.515-3.828,10.786-9.844,12.082C113.159,161.375,112.479,161.545,111.389,161.8z
		 M103.381,149.917c0,1.525-0.106,3.063,0.058,4.571c0.056,0.519,0.776,1.364,1.209,1.375c2.51,0.057,5.062,0.149,7.529-0.228
		c3.361-0.514,5.226-2.997,5.055-6.094c-0.168-3.056-2.407-5.214-5.812-5.417c-2.116-0.126-4.244-0.021-6.366-0.054
		c-1.164-0.018-1.711,0.488-1.686,1.667C103.397,147.131,103.375,148.524,103.381,149.917z"/>
	<path fill-rule="evenodd" clip-rule="evenodd" d="M132.419,159.231c0-6.258,0.054-12.518-0.032-18.773
		c-0.026-1.935,0.692-2.544,2.573-2.522c6.856,0.077,13.714,0.021,20.572,0.036c2.448,0.006,2.619,0.235,2.617,3.07
		c-0.002,2.762-0.2,3.01-2.689,3.019c-4.86,0.02-9.721,0.064-14.58-0.022c-1.74-0.031-2.387,0.554-2.307,2.306
		c0.112,2.458,0.119,4.93-0.002,7.387c-0.088,1.801,0.642,2.286,2.339,2.255c4.726-0.087,9.454-0.04,14.18-0.022
		c2.323,0.009,2.581,0.301,2.607,2.698c0.031,2.878-0.313,3.368-2.629,3.385c-4.727,0.034-9.456,0.07-14.181-0.016
		c-1.729-0.031-2.39,0.535-2.315,2.296c0.112,2.658,0.089,5.327,0.007,7.987c-0.047,1.558,0.543,2.12,2.098,2.101
		c4.926-0.062,9.853-0.032,14.779-0.014c2.489,0.009,2.689,0.258,2.691,3.017c0.002,2.839-0.165,3.064-2.615,3.069
		c-6.857,0.016-13.716-0.041-20.572,0.037c-1.877,0.021-2.602-0.58-2.575-2.518C132.474,171.748,132.419,165.489,132.419,159.231z"
		/>
	<path fill-rule="evenodd" clip-rule="evenodd" d="M39.068,181.354c-6.51,0.128-12.186-3.817-13.875-9.645
		c-0.839-2.894,1.907-5.821,4.884-5.078c0.489,0.123,1.043,1.037,1.108,1.635c0.514,4.786,4.972,7.514,9.844,6.528
		c2.509-0.508,4.533-2.226,4.993-4.551c0.568-2.877-0.425-5.305-2.964-6.573c-1.472-0.735-3.109-1.157-4.696-1.643
		c-3.452-1.055-6.844-2.136-9.447-4.896c-3.38-3.582-4.07-7.815-2.626-12.231c1.5-4.587,5.16-7.052,9.866-7.645
		c4.777-0.604,9.303,0.254,12.43,4.284c1.291,1.664,2.002,3.843,2.695,5.883c0.456,1.342-0.202,2.343-1.846,2.295
		c-0.865-0.025-1.8,0.198-2.577-0.066c-0.735-0.25-1.668-0.869-1.886-1.533c-1.473-4.486-6.43-6.419-10.467-3.957
		c-1.858,1.133-2.43,2.823-2.361,4.932c0.079,2.4,1.158,4.169,3.277,5.053c2.323,0.972,4.786,1.609,7.196,2.366
		c4.626,1.452,8.339,3.899,9.6,8.936C54.313,173.82,48.219,181.175,39.068,181.354z"/>
	<path fill-rule="evenodd" clip-rule="evenodd" d="M420.085,154.314c3.262-4.198,6.717-8.265,9.717-12.642
		c2.005-2.925,4.325-4.299,7.805-3.715c0.69,0.116,1.396,0.133,2.537,0.236c-0.578,0.918-0.885,1.534-1.307,2.058
		c-4.47,5.548-8.93,11.104-13.461,16.602c-1.055,1.279-1.218,2.168-0.058,3.579c4.819,5.864,9.494,11.847,14.209,17.797
		c0.398,0.503,0.706,1.079,1.064,1.637c-2.973,1.511-7.159,0.705-9.012-1.65c-3.417-4.345-6.812-8.706-10.221-13.057
		c-0.398-0.508-0.824-0.994-1.613-1.94c-0.067,1.231-0.137,1.918-0.139,2.604c-0.011,4.063-0.053,8.128,0.014,12.19
		c0.029,1.769-0.6,2.508-2.442,2.51c-4.03,0.001-4.049,0.056-4.05-3.883c-0.001-11.791-0.021-23.582,0.036-35.373
		c0.005-1.034,0.333-2.838,0.828-2.956c1.551-0.37,3.271-0.224,4.881,0.013c0.337,0.05,0.68,1.344,0.694,2.069
		c0.068,3.862,0.033,7.728,0.034,11.591c0,0.721,0,1.44,0,2.16C419.764,154.201,419.924,154.258,420.085,154.314z"/>
	<path fill-rule="evenodd" clip-rule="evenodd" d="M230.655,179.902c-3.487,1.486-7.166,0.686-9.219-1.906
		c-3.72-4.695-7.412-9.414-11.119-14.12c-0.034-0.043-0.122-0.043-0.495-0.165c-0.051,0.727-0.135,1.393-0.137,2.059
		c-0.013,4.062-0.063,8.126,0.015,12.188c0.037,1.9-0.705,2.731-2.599,2.542c-0.461-0.046-0.935-0.043-1.397-0.002
		c-1.765,0.157-2.521-0.554-2.515-2.401c0.046-12.588,0.041-25.177,0.005-37.766c-0.005-1.692,0.613-2.504,2.345-2.369
		c0.529,0.042,1.069,0.051,1.597-0.002c1.93-0.195,2.594,0.707,2.563,2.573c-0.073,4.516-0.023,9.033,0.381,13.738
		c1.744-2.208,3.496-4.409,5.229-6.625c1.929-2.465,3.944-4.87,5.724-7.438c1.205-1.739,2.637-2.464,4.708-2.266
		c1.296,0.125,2.614,0.023,4.479,0.023c-0.659,1.113-0.962,1.8-1.417,2.365c-4.506,5.603-9.015,11.204-13.583,16.757
		c-0.909,1.104-1.059,1.871-0.075,3.08c4.707,5.783,9.313,11.647,13.942,17.494C229.646,178.364,230.12,179.132,230.655,179.902z"/>
	<path fill-rule="evenodd" clip-rule="evenodd" d="M263.33,180.493c-3.158-0.004-3.16-0.004-3.921-2.991
		c-0.476-1.87-0.989-3.734-1.403-5.619c-0.269-1.22-0.84-1.837-2.172-1.812c-3.062,0.058-6.127,0.05-9.19,0.004
		c-1.273-0.02-1.949,0.462-2.238,1.735c-0.5,2.206-1.21,4.366-1.674,6.579c-0.339,1.619-1.193,2.131-2.789,2.131
		c-4.487,0.004-4.49,0.058-3.26-4.316c3.301-11.729,6.601-23.457,9.908-35.184c0.862-3.055,0.874-3.066,4.108-3.052
		c4.687,0.02,4.128-0.475,5.423,4.164c3.26,11.671,6.559,23.33,9.856,34.991C266.936,180.505,266.959,180.497,263.33,180.493z
		 M255.869,163.831c-1.516-5.699-2.957-11.125-4.399-16.551c-0.188,0.018-0.376,0.036-0.564,0.054
		c-1.425,5.421-2.85,10.843-4.337,16.497C249.746,163.831,252.566,163.831,255.869,163.831z"/>
	<path fill-rule="evenodd" clip-rule="evenodd" d="M70.908,162.151c0-5.259-0.05-10.518,0.028-15.773
		c0.026-1.713-0.516-2.438-2.288-2.334c-1.857,0.109-3.727-0.011-5.589,0.025c-1.531,0.031-2.204-0.687-2.137-2.186
		c0.021-0.464,0.035-0.935-0.006-1.396c-0.173-1.914,0.707-2.566,2.585-2.549c7.122,0.069,14.244,0.017,21.365,0.035
		c2.321,0.006,2.512,0.268,2.519,2.965c0.007,2.837-0.192,3.09-2.584,3.123c-1.53,0.022-3.062,0.003-4.592,0.007
		c-2.8,0.009-2.81,0.012-2.811,2.743c-0.005,10.049-0.002,20.1-0.003,30.15c0,0.599-0.013,1.198-0.021,1.797
		c-0.017,1.139-0.591,1.715-1.734,1.716c-0.066,0-0.133,0.005-0.199,0.01c-4.365,0.316-4.531,0.164-4.532-4.155
		C70.909,171.603,70.909,166.877,70.908,162.151z"/>
	<path fill-rule="evenodd" clip-rule="evenodd" d="M167.687,159.089c0-6.122-0.011-12.244,0.005-18.366
		c0.007-2.612,0.217-2.765,3.347-2.758c2.937,0.007,3.108,0.139,3.111,2.77c0.01,10.314,0.002,20.629,0.007,30.943
		c0.001,2.683,0.026,2.708,2.635,2.713c4.791,0.01,9.583-0.013,14.374,0.012c2.339,0.013,2.551,0.312,2.538,3.173
		c-0.013,2.642-0.219,2.906-2.583,2.91c-6.92,0.017-13.841,0.016-20.762,0.002c-2.371-0.004-2.657-0.279-2.664-2.633
		C167.676,171.6,167.688,165.345,167.687,159.089z"/>
	<g id="g10_1_" transform="matrix(1.25,0,0,-1.25,-332.914,3170.5865)">
		<g id="g84_1_" transform="translate(266.3311,2536.4692)">
			<path id="path86_1_" d="M245.078-110.579v-5.682l5.682,5.682H245.078z"/>
		</g>
		<g id="g88_1_" transform="translate(645.667,2536.4692)">
			<path id="path90_1_" d="M-111.459-110.579l-22.798-22.798v-5.702l28.499,28.5H-111.459z"/>
		</g>
		<g id="g92_1_" transform="translate(1025.291,2536.4692)">
			<path id="path94_1_" d="M-468.268-110.579l-34.223-34.223h5.702l34.188,34.187v0.036H-468.268z"/>
		</g>
		<g id="g96_1_" transform="translate(835.5176,1967.0352)">
			<path id="path98_1_" d="M-289.9,424.632h5.701l11.371,11.37v5.702L-289.9,424.632z"/>
		</g>
		<g id="g100_1_" transform="translate(455.8232,2536.4692)">
			<path id="path102_1_" d="M66.975-110.579l-11.389-11.388v-5.702l17.09,17.091H66.975z"/>
		</g>
		<g id="g104_1_" transform="translate(835.4912,2536.4692)">
			<path id="path106_1_" d="M-289.876-110.579l-34.205-34.207v-0.016h5.686l34.222,34.223H-289.876z"/>
		</g>
		<g id="g108_1_" transform="translate(645.6797,1967.0352)">
			<path id="path110_1_" d="M-111.472,424.632h5.702l22.78,22.78v5.702L-111.472,424.632z"/>
		</g>
		<g id="g112_1_" transform="translate(1025.3418,1967.0352)">
			<path id="path114_1_" d="M-468.317,424.632h5.664v5.663L-468.317,424.632z"/>
		</g>
		<g id="g116_1_">
			<g>
				<defs>
					<polygon id="SVGID_1_" points="537.061,2391.667 562.689,2391.667 562.689,2425.89 537.061,2425.89 537.061,2391.667 					"/>
				</defs>
				<clipPath id="SVGID_2_">
					<use xlink:href="#SVGID_1_"  overflow="visible"/>
				</clipPath>
				<g id="g118_1_" clip-path="url(#SVGID_2_)">
					<g id="g124_1_" transform="translate(1000.7842,3035.5591)">
						<path id="path126_1_" fill="#FFFFFF" d="M-445.235-579.675l54.873-54.873l-2.852-2.851l-54.873,54.873L-445.235-579.675z"/>
					</g>
				</g>
			</g>
		</g>
		<g id="g128_1_" transform="translate(1025.3281,2536.4692)">
			<path id="path130_1_" d="M-468.305-110.579l5.666-5.665v5.665H-468.305z"/>
		</g>
		<g id="g132_1_" transform="translate(693.1621,2536.4692)">
			<path id="path134_1_" d="M-156.101-110.579v-2.852l25.628-25.628v5.703l-22.777,22.777H-156.101z"/>
		</g>
		<g id="g136_1_" transform="translate(693.1621,2109.3521)">
			<path id="path138_1_" d="M-156.101,290.869l8.554-8.553h5.702l-14.256,14.254V290.869z"/>
		</g>
		<g id="g140_1_">
			<g>
				<defs>
					<polygon id="SVGID_3_" points="537.061,2391.667 562.689,2391.667 562.689,2425.89 537.061,2425.89 537.061,2391.667 					"/>
				</defs>
				<clipPath id="SVGID_4_">
					<use xlink:href="#SVGID_3_"  overflow="visible"/>
				</clipPath>
				<g id="g142_1_" clip-path="url(#SVGID_4_)">
					<g id="g148_1_" transform="translate(906.874,2939.6436)">
						<path id="path150_1_" fill="#FFFFFF" d="M-356.968-489.524l54.872-54.873l-2.851-2.851l-54.873,54.873L-356.968-489.524z"/>
					</g>
				</g>
			</g>
		</g>
		<g id="g152_1_" transform="translate(835.5049,2536.4692)">
			<path id="path154_1_" d="M-289.889-110.579l17.073-17.073v5.701l-11.371,11.372H-289.889z"/>
		</g>
		<g id="g156_1_" transform="translate(693.1621,2299.1943)">
			<path id="path158_1_" d="M-156.101,112.436l19.962-19.963h5.666v0.036l-25.628,25.628V112.436z"/>
		</g>
	</g>
</g>
</svg>
