<?xml version="1.0" encoding="utf-8"?>
<!-- Generator: Adobe Illustrator 16.0.3, SVG Export Plug-In . SVG Version: 6.00 Build 0)  -->
<!DOCTYPE svg PUBLIC "-//W3C//DTD SVG 1.1//EN" "http://www.w3.org/Graphics/SVG/1.1/DTD/svg11.dtd">
<svg version="1.1" xmlns="http://www.w3.org/2000/svg" xmlns:xlink="http://www.w3.org/1999/xlink" x="0px" y="0px"
	 width="516.583px" height="246.503px" viewBox="0 0 516.583 246.503" enable-background="new 0 0 516.583 246.503"
	 xml:space="preserve">
<g id="Layer_1">
	<g>
		<path d="M373.088,48.966c-0.41-0.17-0.762-0.414-1.055-0.734c-0.293-0.319-0.518-0.711-0.675-1.175
			c-0.156-0.463-0.235-0.987-0.235-1.573c0-0.587,0.08-1.113,0.24-1.579c0.16-0.467,0.386-0.861,0.679-1.185
			c0.293-0.323,0.646-0.57,1.06-0.74s0.87-0.255,1.369-0.255c0.507,0,0.966,0.085,1.379,0.255s0.763,0.415,1.049,0.735
			c0.287,0.319,0.508,0.711,0.665,1.174c0.156,0.463,0.234,0.988,0.234,1.574c0,0.593-0.076,1.121-0.229,1.584
			s-0.373,0.856-0.66,1.18s-0.635,0.569-1.044,0.739s-0.875,0.255-1.395,0.255C373.959,49.221,373.498,49.136,373.088,48.966z
			 M376.021,47.457c0.353-0.483,0.53-1.145,0.53-1.984c0-0.42-0.045-0.796-0.135-1.129c-0.09-0.333-0.222-0.616-0.395-0.85
			s-0.39-0.413-0.649-0.54c-0.26-0.126-0.563-0.189-0.91-0.189s-0.65,0.063-0.91,0.189c-0.26,0.127-0.478,0.307-0.654,0.54
			c-0.177,0.233-0.309,0.517-0.395,0.85s-0.13,0.709-0.13,1.129c0,0.84,0.175,1.501,0.525,1.984c0.35,0.483,0.871,0.725,1.564,0.725
			C375.148,48.182,375.668,47.94,376.021,47.457z"/>
		<path d="M383.451,41.905v1.049h-3.158v1.609h1.35c0.52,0,0.949,0.062,1.289,0.185c0.34,0.124,0.611,0.288,0.814,0.495
			c0.204,0.206,0.345,0.446,0.425,0.72s0.12,0.56,0.12,0.859s-0.042,0.583-0.125,0.85s-0.227,0.501-0.43,0.704
			c-0.203,0.204-0.48,0.365-0.83,0.485s-0.794,0.18-1.334,0.18h-2.488v-7.136H383.451z M380.292,48.042h1.299
			c0.293,0,0.537-0.027,0.729-0.08c0.193-0.054,0.347-0.13,0.46-0.23c0.113-0.1,0.193-0.225,0.24-0.374
			c0.047-0.15,0.07-0.322,0.07-0.516c0-0.187-0.023-0.357-0.07-0.515c-0.046-0.156-0.128-0.291-0.245-0.404s-0.275-0.2-0.475-0.26
			c-0.2-0.061-0.453-0.09-0.76-0.09h-1.25V48.042z"/>
		<path d="M387.872,41.905c0.54,0,0.985,0.06,1.334,0.18s0.625,0.279,0.825,0.479c0.2,0.2,0.34,0.432,0.419,0.694
			c0.08,0.264,0.12,0.538,0.12,0.825c0,0.307-0.04,0.6-0.12,0.879c-0.08,0.28-0.221,0.525-0.425,0.735
			c-0.203,0.21-0.478,0.376-0.824,0.499c-0.347,0.124-0.783,0.186-1.31,0.186h-1.299v2.658h-1.189v-7.136H387.872z M388.616,45.283
			c0.197-0.061,0.352-0.146,0.465-0.255c0.113-0.11,0.191-0.241,0.235-0.395s0.065-0.327,0.065-0.521
			c0-0.199-0.023-0.374-0.07-0.524c-0.047-0.149-0.128-0.274-0.245-0.375c-0.116-0.1-0.273-0.176-0.47-0.229
			c-0.196-0.054-0.444-0.08-0.745-0.08h-1.259v2.469h1.27C388.168,45.373,388.42,45.343,388.616,45.283z"/>
		<path d="M394.072,41.905l2.718,7.136h-1.289l-0.669-1.819h-2.769l-0.66,1.819h-1.25l2.719-7.136H394.072z M393.442,43.274
			l-1.049,2.938h2.109L393.442,43.274z"/>
		<path d="M397.664,41.905h1.209v6.086h2.379v-6.086h1.209v6.086h2.378v-6.086h1.209v6.086h0.76v2.779h-1.07v-1.729h-8.075V41.905z"
			/>
		<path d="M412.53,41.905v1.039h-3.538v1.899h3.338v1.049h-3.338v2.109h3.728l-0.14,1.039h-4.797v-7.136H412.53z"/>
		<path d="M414.982,41.905v2.888h3.208v-2.888h1.209v7.136h-1.209v-3.128h-3.208v3.128h-1.209v-7.136H414.982z"/>
		<path d="M425.241,43.854l-3.198,5.188h-1.119v-7.136h1.179v5.217l3.188-5.217h1.12v7.136h-1.169V43.854z"/>
		<path d="M431.941,49.041v-2.818h-0.9c-0.173,0-0.326,0.017-0.459,0.05s-0.25,0.085-0.35,0.155c-0.1,0.069-0.189,0.158-0.27,0.265
			s-0.153,0.233-0.22,0.38l-0.979,1.969h-1.379l1.099-2.139c0.147-0.28,0.292-0.488,0.435-0.625
			c0.143-0.137,0.301-0.245,0.475-0.324c-0.473-0.16-0.826-0.389-1.06-0.685c-0.233-0.297-0.35-0.698-0.35-1.205
			c0-0.26,0.042-0.518,0.125-0.774c0.083-0.257,0.228-0.488,0.435-0.694c0.207-0.207,0.486-0.373,0.84-0.5
			c0.353-0.127,0.799-0.189,1.339-0.189h2.419v7.136H431.941z M431.941,42.904h-1.209c-0.3,0-0.548,0.028-0.745,0.085
			s-0.353,0.134-0.47,0.229c-0.117,0.097-0.198,0.214-0.245,0.351c-0.046,0.137-0.07,0.284-0.07,0.444
			c0,0.354,0.105,0.642,0.315,0.864c0.21,0.224,0.568,0.335,1.074,0.335h1.35V42.904z"/>
		<path d="M384.774,60.307c-0.207-0.736-0.31-1.508-0.31-2.313c0-0.367,0.023-0.74,0.07-1.12c0.046-0.38,0.12-0.753,0.22-1.119
			s0.225-0.723,0.375-1.069s0.325-0.673,0.524-0.979h1.069c-0.393,0.693-0.669,1.39-0.829,2.089c-0.16,0.699-0.24,1.433-0.24,2.199
			c0,0.779,0.08,1.516,0.24,2.208c0.16,0.693,0.436,1.386,0.829,2.079h-1.069C385.274,61.7,384.98,61.043,384.774,60.307z"/>
		<path d="M390.433,54.925l-0.28,2.368c-0.073,0.62-0.176,1.168-0.31,1.645s-0.31,0.874-0.53,1.194
			c-0.22,0.319-0.491,0.562-0.814,0.729c-0.323,0.166-0.711,0.25-1.165,0.25h-0.29v-1.04h0.15c0.26,0,0.49-0.057,0.689-0.17
			s0.373-0.3,0.52-0.56c0.147-0.26,0.271-0.602,0.375-1.024c0.103-0.423,0.191-0.944,0.265-1.564l0.34-2.848h4.198v7.136h-1.199
			v-6.116H390.433z"/>
		<path d="M399.421,55.854l-3.198,5.188h-1.119v-7.136h1.179v5.217l3.188-5.217h1.12v7.136h-1.169V55.854z"/>
		<path d="M402.658,59.112c0.15-0.347,0.278-0.722,0.385-1.125c0.107-0.402,0.197-0.821,0.27-1.254s0.13-0.856,0.17-1.27l0.15-1.559
			h4.147v6.086h0.76v2.779h-1.069v-1.729h-4.967v1.729h-1.069v-2.779h0.709C402.337,59.752,402.508,59.459,402.658,59.112z
			 M404.438,57.048c-0.057,0.384-0.13,0.752-0.22,1.104c-0.09,0.354-0.195,0.688-0.314,1.005c-0.12,0.316-0.263,0.595-0.43,0.834
			h3.108v-5.066h-1.899l-0.1,0.989C404.542,56.287,404.494,56.665,404.438,57.048z"/>
		<path d="M413.247,56.653c0.35,0.127,0.628,0.295,0.834,0.505s0.354,0.451,0.44,0.725s0.13,0.56,0.13,0.859
			c0,0.313-0.043,0.609-0.13,0.89s-0.237,0.524-0.45,0.734c-0.213,0.21-0.498,0.375-0.854,0.495s-0.805,0.18-1.344,0.18h-2.369
			v-7.136h1.199v2.559h1.229C412.459,56.464,412.897,56.526,413.247,56.653z M411.893,60.042c0.586,0,0.993-0.107,1.219-0.32
			s0.34-0.526,0.34-0.939c0-0.206-0.025-0.392-0.075-0.555c-0.05-0.163-0.136-0.3-0.26-0.41c-0.123-0.109-0.287-0.194-0.49-0.255
			c-0.203-0.06-0.455-0.09-0.754-0.09h-1.169v2.569H411.893z M416.93,53.905v7.136h-1.199v-7.136H416.93z"/>
		<path d="M418.604,60.201c0.167-0.692,0.25-1.429,0.25-2.208c0-0.773-0.085-1.506-0.255-2.199s-0.444-1.39-0.824-2.089h1.079
			c0.393,0.619,0.688,1.299,0.885,2.039c0.196,0.739,0.295,1.489,0.295,2.249c0,0.819-0.105,1.594-0.315,2.323
			s-0.498,1.384-0.865,1.964h-1.079C418.16,61.587,418.437,60.895,418.604,60.201z"/>
	</g>
	<g>
		<path d="M78.479,47.946c0.25,0.197,0.648,0.295,1.194,0.295c1.026,0,1.539-0.406,1.539-1.219c0-0.786-0.533-1.18-1.599-1.18h-0.85
			v-0.979h0.91c0.439,0,0.784-0.097,1.034-0.29s0.375-0.473,0.375-0.839c0-0.334-0.113-0.589-0.34-0.765
			c-0.227-0.177-0.577-0.266-1.049-0.266c-0.493,0-0.858,0.092-1.095,0.275c-0.236,0.183-0.401,0.458-0.495,0.824l-1.099-0.149
			c0.106-0.6,0.379-1.071,0.819-1.414c0.44-0.344,1.066-0.516,1.879-0.516c0.44,0,0.818,0.047,1.134,0.141
			c0.316,0.093,0.578,0.223,0.785,0.39c0.207,0.166,0.36,0.364,0.46,0.595c0.1,0.229,0.15,0.481,0.15,0.754
			c0,0.354-0.08,0.675-0.24,0.965c-0.16,0.29-0.41,0.521-0.75,0.694c0.4,0.153,0.691,0.385,0.875,0.695
			c0.184,0.31,0.275,0.654,0.275,1.034c0,0.333-0.057,0.637-0.17,0.909c-0.113,0.273-0.285,0.507-0.515,0.7
			s-0.517,0.345-0.859,0.454c-0.343,0.11-0.745,0.165-1.205,0.165c-0.493,0-0.915-0.057-1.264-0.17s-0.635-0.27-0.854-0.47
			c-0.22-0.199-0.381-0.437-0.485-0.709c-0.103-0.273-0.158-0.57-0.165-0.89h1.149C78.077,47.429,78.229,47.75,78.479,47.946z"/>
		<path d="M86.072,41.905c0.52,0,0.946,0.048,1.279,0.145c0.333,0.097,0.598,0.229,0.795,0.399c0.196,0.17,0.332,0.37,0.405,0.6
			c0.073,0.23,0.11,0.476,0.11,0.735c0,0.3-0.067,0.578-0.2,0.834c-0.133,0.257-0.376,0.469-0.729,0.635
			c0.227,0.101,0.413,0.214,0.56,0.34c0.147,0.127,0.263,0.262,0.35,0.405c0.086,0.143,0.146,0.293,0.18,0.449
			c0.034,0.157,0.05,0.315,0.05,0.475c0,0.294-0.045,0.57-0.135,0.83c-0.09,0.26-0.238,0.484-0.445,0.675
			c-0.207,0.189-0.476,0.34-0.809,0.449c-0.333,0.11-0.743,0.165-1.229,0.165h-2.648v-7.136H86.072z M87.202,44.573
			c0.187-0.173,0.28-0.423,0.28-0.749c0-0.34-0.108-0.585-0.325-0.735c-0.216-0.149-0.591-0.225-1.124-0.225h-1.26v1.969h1.439
			C86.686,44.833,87.015,44.747,87.202,44.573z M86.927,47.991c0.189-0.053,0.339-0.13,0.45-0.229c0.11-0.1,0.188-0.22,0.235-0.359
			c0.046-0.141,0.07-0.297,0.07-0.47c0-0.36-0.102-0.635-0.305-0.825c-0.204-0.189-0.555-0.284-1.055-0.284h-1.549v2.248h1.439
			C86.499,48.071,86.737,48.045,86.927,47.991z"/>
		<path d="M91.728,48.966c-0.41-0.17-0.762-0.414-1.055-0.734c-0.293-0.319-0.518-0.711-0.675-1.175
			c-0.156-0.463-0.235-0.987-0.235-1.573c0-0.587,0.08-1.113,0.24-1.579c0.16-0.467,0.386-0.861,0.679-1.185
			c0.293-0.323,0.646-0.57,1.06-0.74s0.87-0.255,1.369-0.255c0.507,0,0.966,0.085,1.379,0.255s0.763,0.415,1.049,0.735
			c0.287,0.319,0.508,0.711,0.665,1.174c0.156,0.463,0.234,0.988,0.234,1.574c0,0.593-0.076,1.121-0.229,1.584
			s-0.373,0.856-0.66,1.18s-0.635,0.569-1.044,0.739s-0.875,0.255-1.395,0.255C92.599,49.221,92.138,49.136,91.728,48.966z
			 M94.661,47.457c0.353-0.483,0.53-1.145,0.53-1.984c0-0.42-0.045-0.796-0.135-1.129c-0.09-0.333-0.222-0.616-0.395-0.85
			s-0.39-0.413-0.649-0.54c-0.26-0.126-0.563-0.189-0.91-0.189s-0.65,0.063-0.91,0.189c-0.26,0.127-0.478,0.307-0.654,0.54
			c-0.177,0.233-0.309,0.517-0.395,0.85s-0.13,0.709-0.13,1.129c0,0.84,0.175,1.501,0.525,1.984c0.35,0.483,0.871,0.725,1.564,0.725
			C93.788,48.182,94.308,47.94,94.661,47.457z"/>
		<path d="M98.933,41.905v2.888h3.208v-2.888h1.209v7.136h-1.209v-3.128h-3.208v3.128h-1.209v-7.136H98.933z"/>
		<path d="M106.443,44.894c0.287,0,0.535-0.073,0.745-0.22c0.21-0.147,0.401-0.4,0.575-0.76l0.48-0.979
			c0.193-0.4,0.415-0.672,0.665-0.814c0.25-0.144,0.541-0.215,0.875-0.215c0.146,0,0.278,0.008,0.395,0.024s0.215,0.038,0.295,0.065
			l-0.14,0.97l-0.1-0.021c-0.033-0.007-0.07-0.012-0.11-0.015c-0.04-0.004-0.083-0.005-0.13-0.005c-0.173,0-0.33,0.04-0.47,0.119
			c-0.14,0.08-0.273,0.257-0.4,0.53l-0.38,0.8c-0.106,0.232-0.233,0.426-0.38,0.579s-0.307,0.27-0.479,0.35
			c0.066,0.027,0.135,0.062,0.205,0.105c0.07,0.043,0.142,0.102,0.215,0.175c0.074,0.073,0.155,0.166,0.245,0.279
			s0.191,0.254,0.305,0.42l1.829,2.759h-1.399l-1.609-2.438c-0.093-0.14-0.178-0.255-0.255-0.345s-0.157-0.163-0.24-0.22
			c-0.083-0.057-0.175-0.096-0.275-0.115c-0.1-0.021-0.22-0.03-0.36-0.03h-0.47v3.148h-1.199v-7.136h1.199v2.988H106.443z"/>
		<path d="M115.801,43.854l-3.198,5.188h-1.119v-7.136h1.179v5.217l3.188-5.217h1.12v7.136h-1.169V43.854z"/>
		<path d="M118.973,49.99h-0.879l0.32-2.349h1.139L118.973,49.99z"/>
		<path d="M126.122,46.242c-0.286,0.061-0.583,0.09-0.889,0.09c-0.347,0-0.67-0.038-0.97-0.114c-0.3-0.077-0.56-0.202-0.779-0.375
			c-0.22-0.173-0.393-0.399-0.52-0.68c-0.126-0.28-0.19-0.626-0.19-1.039v-2.219h1.2v1.879c0,0.272,0.025,0.51,0.075,0.709
			c0.05,0.2,0.133,0.365,0.25,0.495s0.273,0.225,0.47,0.285c0.197,0.06,0.441,0.09,0.734,0.09c0.233,0,0.478-0.025,0.735-0.075
			c0.256-0.05,0.475-0.115,0.655-0.195v-3.188h1.199v7.136h-1.199v-3.028C126.665,46.105,126.408,46.183,126.122,46.242z"/>
		<path d="M132.881,41.905l2.718,7.136h-1.289l-0.669-1.819h-2.769l-0.66,1.819h-1.25l2.719-7.136H132.881z M132.251,43.274
			l-1.049,2.938h2.109L132.251,43.274z"/>
		<path d="M134.864,42.954v-1.049h5.717v1.049h-2.249v6.087h-1.209v-6.087H134.864z"/>
		<path d="M145.276,44.653c0.35,0.127,0.628,0.295,0.834,0.505s0.354,0.451,0.44,0.725s0.13,0.56,0.13,0.859
			c0,0.313-0.043,0.609-0.13,0.89s-0.236,0.524-0.45,0.734s-0.498,0.375-0.854,0.495s-0.805,0.18-1.344,0.18h-2.369v-7.136h1.199
			v2.559h1.229C144.488,44.464,144.926,44.526,145.276,44.653z M143.922,48.042c0.586,0,0.993-0.107,1.219-0.32
			s0.34-0.526,0.34-0.939c0-0.206-0.025-0.392-0.075-0.555c-0.05-0.163-0.136-0.3-0.26-0.41c-0.123-0.109-0.287-0.194-0.49-0.255
			c-0.203-0.06-0.455-0.09-0.754-0.09h-1.169v2.569H143.922z M148.959,41.905v7.136h-1.199v-7.136H148.959z"/>
		<path d="M150.963,49.99h-0.879l0.32-2.349h1.139L150.963,49.99z"/>
		<path d="M96.158,59.946c0.25,0.197,0.648,0.295,1.194,0.295c1.026,0,1.539-0.406,1.539-1.219c0-0.786-0.533-1.18-1.599-1.18h-0.85
			v-0.979h0.91c0.439,0,0.784-0.097,1.034-0.29s0.375-0.473,0.375-0.839c0-0.334-0.113-0.589-0.34-0.765
			c-0.227-0.177-0.577-0.266-1.049-0.266c-0.493,0-0.858,0.092-1.095,0.275c-0.236,0.183-0.401,0.458-0.495,0.824l-1.099-0.149
			c0.106-0.6,0.379-1.071,0.819-1.414c0.44-0.344,1.066-0.516,1.879-0.516c0.44,0,0.818,0.047,1.134,0.141
			c0.316,0.093,0.578,0.223,0.785,0.39c0.207,0.166,0.36,0.364,0.46,0.595c0.1,0.229,0.15,0.481,0.15,0.754
			c0,0.354-0.08,0.675-0.24,0.965c-0.16,0.29-0.41,0.521-0.75,0.694c0.4,0.153,0.691,0.385,0.875,0.695
			c0.184,0.31,0.275,0.654,0.275,1.034c0,0.333-0.057,0.637-0.17,0.909c-0.113,0.273-0.285,0.507-0.515,0.7
			s-0.517,0.345-0.859,0.454c-0.343,0.11-0.745,0.165-1.205,0.165c-0.493,0-0.915-0.057-1.264-0.17s-0.635-0.27-0.854-0.47
			c-0.22-0.199-0.381-0.437-0.485-0.709c-0.103-0.273-0.158-0.57-0.165-0.89h1.149C95.756,59.429,95.908,59.75,96.158,59.946z"/>
		<path d="M104.552,53.905l2.718,7.136h-1.289l-0.669-1.819h-2.769l-0.66,1.819h-1.25l2.719-7.136H104.552z M103.922,55.274
			l-1.049,2.938h2.109L103.922,55.274z"/>
		<path d="M112.372,61.041v-2.818h-0.9c-0.173,0-0.326,0.017-0.459,0.05s-0.25,0.085-0.35,0.155c-0.1,0.069-0.189,0.158-0.27,0.265
			s-0.153,0.233-0.22,0.38l-0.979,1.969h-1.379l1.099-2.139c0.147-0.28,0.292-0.488,0.435-0.625
			c0.143-0.137,0.301-0.245,0.475-0.324c-0.473-0.16-0.826-0.389-1.06-0.685c-0.233-0.297-0.35-0.698-0.35-1.205
			c0-0.26,0.042-0.518,0.125-0.774c0.083-0.257,0.228-0.488,0.435-0.694c0.207-0.207,0.486-0.373,0.84-0.5
			c0.353-0.127,0.799-0.189,1.339-0.189h2.419v7.136H112.372z M112.372,54.904h-1.209c-0.3,0-0.548,0.028-0.745,0.085
			c-0.197,0.057-0.353,0.134-0.47,0.229c-0.117,0.097-0.198,0.214-0.245,0.351c-0.046,0.137-0.07,0.284-0.07,0.444
			c0,0.354,0.105,0.642,0.315,0.864c0.21,0.224,0.568,0.335,1.074,0.335h1.35V54.904z"/>
		<path d="M117.562,53.905c0.52,0,0.946,0.048,1.279,0.145c0.333,0.097,0.598,0.229,0.795,0.399c0.196,0.17,0.332,0.37,0.405,0.6
			c0.073,0.23,0.11,0.476,0.11,0.735c0,0.3-0.067,0.578-0.2,0.834c-0.133,0.257-0.376,0.469-0.729,0.635
			c0.227,0.101,0.413,0.214,0.56,0.34c0.147,0.127,0.263,0.262,0.35,0.405c0.086,0.143,0.146,0.293,0.18,0.449
			c0.034,0.157,0.05,0.315,0.05,0.475c0,0.294-0.045,0.57-0.135,0.83c-0.09,0.26-0.238,0.484-0.445,0.675
			c-0.207,0.189-0.476,0.34-0.809,0.449c-0.333,0.11-0.743,0.165-1.229,0.165h-2.648v-7.136H117.562z M118.691,56.573
			c0.187-0.173,0.28-0.423,0.28-0.749c0-0.34-0.108-0.585-0.325-0.735c-0.216-0.149-0.591-0.225-1.124-0.225h-1.26v1.969h1.439
			C118.175,56.833,118.504,56.747,118.691,56.573z M118.417,59.991c0.189-0.053,0.339-0.13,0.45-0.229
			c0.11-0.1,0.188-0.22,0.235-0.359c0.046-0.141,0.07-0.297,0.07-0.47c0-0.36-0.102-0.635-0.305-0.825
			c-0.204-0.189-0.555-0.284-1.055-0.284h-1.549v2.248h1.439C117.988,60.071,118.227,60.045,118.417,59.991z"/>
		<path d="M123.062,56.894c0.287,0,0.535-0.073,0.745-0.22c0.21-0.147,0.401-0.4,0.575-0.76l0.48-0.979
			c0.193-0.4,0.415-0.672,0.665-0.814c0.25-0.144,0.542-0.215,0.875-0.215c0.146,0,0.278,0.008,0.395,0.024
			c0.117,0.017,0.215,0.038,0.295,0.065l-0.14,0.97l-0.1-0.021c-0.033-0.007-0.07-0.012-0.11-0.015
			c-0.04-0.004-0.083-0.005-0.13-0.005c-0.173,0-0.33,0.04-0.47,0.119c-0.14,0.08-0.273,0.257-0.4,0.53l-0.38,0.8
			c-0.106,0.232-0.233,0.426-0.38,0.579s-0.306,0.27-0.479,0.35c0.066,0.027,0.135,0.062,0.205,0.105
			c0.07,0.043,0.142,0.102,0.215,0.175s0.155,0.166,0.245,0.279s0.191,0.254,0.305,0.42l1.829,2.759h-1.399l-1.609-2.438
			c-0.093-0.14-0.178-0.255-0.255-0.345s-0.157-0.163-0.24-0.22c-0.083-0.057-0.175-0.096-0.275-0.115
			c-0.1-0.021-0.22-0.03-0.36-0.03h-0.47v3.148h-1.199v-7.136h1.199v2.988H123.062z"/>
		<path d="M132.421,55.854l-3.198,5.188h-1.119v-7.136h1.179v5.217l3.188-5.217h1.12v7.136h-1.169V55.854z"/>
	</g>
	<g>
		<path d="M390.746,229.072c-0.14,0.312-0.333,0.586-0.58,0.819s-0.546,0.415-0.899,0.545s-0.763,0.194-1.229,0.194
			c-0.513,0-0.971-0.086-1.374-0.26c-0.403-0.173-0.743-0.421-1.02-0.744s-0.486-0.717-0.63-1.18
			c-0.143-0.463-0.215-0.981-0.215-1.554c0-0.587,0.079-1.113,0.235-1.579c0.157-0.467,0.378-0.861,0.665-1.185
			c0.286-0.323,0.629-0.57,1.029-0.74s0.839-0.255,1.319-0.255c0.446,0,0.833,0.057,1.159,0.17s0.604,0.275,0.834,0.485
			s0.413,0.461,0.55,0.754c0.137,0.294,0.238,0.62,0.305,0.979l-1.189,0.17c-0.054-0.239-0.12-0.453-0.2-0.64
			s-0.185-0.345-0.315-0.475s-0.288-0.229-0.475-0.3c-0.187-0.069-0.41-0.104-0.669-0.104c-0.32,0-0.603,0.063-0.85,0.189
			c-0.247,0.127-0.455,0.309-0.625,0.545s-0.298,0.521-0.385,0.854c-0.087,0.333-0.13,0.706-0.13,1.119
			c0,0.42,0.045,0.797,0.135,1.13s0.222,0.618,0.395,0.854c0.173,0.236,0.382,0.416,0.625,0.539
			c0.243,0.124,0.521,0.186,0.834,0.186c0.28,0,0.518-0.037,0.714-0.11c0.197-0.073,0.362-0.177,0.495-0.31
			c0.133-0.133,0.238-0.295,0.315-0.484c0.077-0.19,0.132-0.405,0.165-0.645h1.279C390.976,228.416,390.886,228.759,390.746,229.072
			z"/>
		<path d="M392.823,228.522c0.15-0.347,0.278-0.722,0.385-1.125c0.107-0.402,0.197-0.821,0.27-1.254s0.13-0.856,0.17-1.27
			l0.15-1.559h4.147v6.086h0.76v2.779h-1.069v-1.729h-4.967v1.729h-1.069v-2.779h0.709
			C392.502,229.162,392.673,228.869,392.823,228.522z M394.603,226.458c-0.057,0.384-0.13,0.752-0.22,1.104
			c-0.09,0.354-0.195,0.688-0.314,1.005c-0.12,0.316-0.263,0.595-0.43,0.834h3.108v-5.066h-1.899l-0.1,0.989
			C394.708,225.697,394.659,226.075,394.603,226.458z"/>
		<path d="M404.416,223.315v1.039h-3.538v1.899h3.338v1.049h-3.338v2.109h3.728l-0.14,1.039h-4.797v-7.136H404.416z"/>
		<path d="M408.697,224.335l-0.28,2.368c-0.073,0.62-0.176,1.168-0.31,1.645s-0.31,0.874-0.53,1.194
			c-0.22,0.319-0.491,0.562-0.814,0.729c-0.323,0.166-0.711,0.25-1.165,0.25h-0.29v-1.04h0.15c0.26,0,0.49-0.057,0.689-0.17
			s0.373-0.3,0.52-0.56c0.147-0.26,0.271-0.602,0.375-1.024c0.103-0.423,0.191-0.944,0.265-1.564l0.34-2.848h4.198v7.136h-1.199
			v-6.116H408.697z"/>
		<path d="M414.938,226.304c0.287,0,0.535-0.073,0.745-0.22c0.21-0.147,0.401-0.4,0.575-0.76l0.48-0.979
			c0.193-0.4,0.415-0.672,0.665-0.814c0.25-0.144,0.541-0.215,0.875-0.215c0.146,0,0.278,0.008,0.395,0.024s0.215,0.038,0.295,0.065
			l-0.14,0.97l-0.1-0.021c-0.033-0.007-0.07-0.012-0.11-0.015c-0.04-0.004-0.083-0.005-0.13-0.005c-0.173,0-0.33,0.04-0.47,0.119
			c-0.14,0.08-0.273,0.257-0.4,0.53l-0.38,0.8c-0.106,0.232-0.233,0.426-0.38,0.579s-0.307,0.27-0.479,0.35
			c0.066,0.027,0.135,0.062,0.205,0.105c0.07,0.043,0.142,0.102,0.215,0.175c0.074,0.073,0.155,0.166,0.245,0.279
			s0.191,0.254,0.305,0.42l1.829,2.759h-1.399l-1.609-2.438c-0.093-0.14-0.178-0.255-0.255-0.345s-0.157-0.163-0.24-0.22
			c-0.083-0.057-0.175-0.096-0.275-0.115c-0.1-0.021-0.22-0.03-0.36-0.03h-0.47v3.148h-1.199v-7.136h1.199v2.988H414.938z"/>
		<path d="M424.296,225.264l-3.198,5.188h-1.119v-7.136h1.179v5.217l3.188-5.217h1.12v7.136h-1.169V225.264z"/>
	</g>
	<g>
		<path d="M93.157,223.315c0.54,0,0.985,0.06,1.334,0.18s0.625,0.279,0.825,0.479c0.2,0.2,0.34,0.432,0.419,0.694
			c0.08,0.264,0.12,0.538,0.12,0.825c0,0.307-0.04,0.6-0.12,0.879c-0.08,0.28-0.221,0.525-0.425,0.735
			c-0.203,0.21-0.478,0.376-0.824,0.499c-0.347,0.124-0.783,0.186-1.31,0.186h-1.299v2.658h-1.189v-7.136H93.157z M93.901,226.693
			c0.197-0.061,0.352-0.146,0.465-0.255c0.113-0.11,0.191-0.241,0.235-0.395s0.065-0.327,0.065-0.521
			c0-0.199-0.023-0.374-0.07-0.524c-0.047-0.149-0.128-0.274-0.245-0.375c-0.116-0.1-0.273-0.176-0.47-0.229
			c-0.196-0.054-0.444-0.08-0.745-0.08h-1.259v2.469h1.27C93.454,226.783,93.705,226.753,93.901,226.693z"/>
		<path d="M99.356,223.315l2.718,7.136h-1.289l-0.669-1.819h-2.769l-0.66,1.819h-1.25l2.719-7.136H99.356z M98.727,224.685
			l-1.049,2.938h2.109L98.727,224.685z"/>
		<path d="M108.255,229.072c-0.14,0.312-0.333,0.586-0.58,0.819s-0.546,0.415-0.899,0.545s-0.763,0.194-1.229,0.194
			c-0.513,0-0.971-0.086-1.374-0.26c-0.403-0.173-0.743-0.421-1.02-0.744s-0.486-0.717-0.63-1.18
			c-0.143-0.463-0.215-0.981-0.215-1.554c0-0.587,0.079-1.113,0.235-1.579c0.157-0.467,0.378-0.861,0.665-1.185
			c0.286-0.323,0.629-0.57,1.029-0.74s0.839-0.255,1.319-0.255c0.446,0,0.833,0.057,1.159,0.17s0.604,0.275,0.834,0.485
			s0.413,0.461,0.55,0.754c0.137,0.294,0.238,0.62,0.305,0.979l-1.189,0.17c-0.054-0.239-0.12-0.453-0.2-0.64
			s-0.185-0.345-0.315-0.475s-0.288-0.229-0.475-0.3c-0.187-0.069-0.41-0.104-0.669-0.104c-0.32,0-0.603,0.063-0.85,0.189
			c-0.247,0.127-0.455,0.309-0.625,0.545s-0.298,0.521-0.385,0.854c-0.087,0.333-0.13,0.706-0.13,1.119
			c0,0.42,0.045,0.797,0.135,1.13s0.222,0.618,0.395,0.854c0.173,0.236,0.382,0.416,0.625,0.539
			c0.243,0.124,0.521,0.186,0.834,0.186c0.28,0,0.518-0.037,0.714-0.11c0.197-0.073,0.362-0.177,0.495-0.31
			c0.133-0.133,0.238-0.295,0.315-0.484c0.077-0.19,0.132-0.405,0.165-0.645h1.279C108.485,228.416,108.395,228.759,108.255,229.072
			z"/>
		<path d="M108.949,223.315h1.379l1.639,2.498l1.659-2.498h1.299l-2.299,3.418l2.579,3.718h-1.389l-1.899-2.818l-1.839,2.818h-1.31
			l2.499-3.768L108.949,223.315z"/>
		<path d="M117.163,230.376c-0.41-0.17-0.762-0.414-1.055-0.734c-0.293-0.319-0.518-0.711-0.675-1.175
			c-0.156-0.463-0.235-0.987-0.235-1.573c0-0.587,0.08-1.113,0.24-1.579c0.16-0.467,0.386-0.861,0.679-1.185
			c0.293-0.323,0.646-0.57,1.06-0.74s0.87-0.255,1.369-0.255c0.507,0,0.966,0.085,1.379,0.255s0.763,0.415,1.049,0.735
			c0.287,0.319,0.508,0.711,0.665,1.174c0.156,0.463,0.234,0.988,0.234,1.574c0,0.593-0.076,1.121-0.229,1.584
			s-0.373,0.856-0.66,1.18s-0.635,0.569-1.044,0.739s-0.875,0.255-1.395,0.255C118.034,230.631,117.572,230.546,117.163,230.376z
			 M120.096,228.867c0.353-0.483,0.53-1.145,0.53-1.984c0-0.42-0.045-0.796-0.135-1.129c-0.09-0.333-0.222-0.616-0.395-0.85
			s-0.39-0.413-0.649-0.54c-0.26-0.126-0.563-0.189-0.91-0.189s-0.65,0.063-0.91,0.189c-0.26,0.127-0.478,0.307-0.654,0.54
			c-0.177,0.233-0.309,0.517-0.395,0.85s-0.13,0.709-0.13,1.129c0,0.84,0.175,1.501,0.525,1.984c0.35,0.483,0.871,0.725,1.564,0.725
			C119.223,229.592,119.743,229.351,120.096,228.867z"/>
		<path d="M123.593,228.522c0.15-0.347,0.278-0.722,0.385-1.125c0.107-0.402,0.197-0.821,0.27-1.254s0.13-0.856,0.17-1.27
			l0.15-1.559h4.147v6.086h0.76v2.779h-1.069v-1.729h-4.967v1.729h-1.069v-2.779h0.709
			C123.271,229.162,123.443,228.869,123.593,228.522z M125.372,226.458c-0.057,0.384-0.13,0.752-0.22,1.104
			c-0.09,0.354-0.195,0.688-0.314,1.005c-0.12,0.316-0.263,0.595-0.43,0.834h3.108v-5.066h-1.899l-0.1,0.989
			C125.477,225.697,125.429,226.075,125.372,226.458z"/>
		<path d="M134.181,226.063c0.35,0.127,0.628,0.295,0.834,0.505s0.354,0.451,0.44,0.725s0.13,0.56,0.13,0.859
			c0,0.313-0.043,0.609-0.13,0.89s-0.236,0.524-0.45,0.734s-0.498,0.375-0.854,0.495s-0.805,0.18-1.344,0.18h-2.369v-7.136h1.199
			v2.559h1.229C133.394,225.874,133.832,225.937,134.181,226.063z M132.827,229.452c0.586,0,0.993-0.107,1.219-0.32
			s0.34-0.526,0.34-0.939c0-0.206-0.025-0.392-0.075-0.555c-0.05-0.163-0.136-0.3-0.26-0.41c-0.123-0.109-0.287-0.194-0.49-0.255
			c-0.203-0.06-0.455-0.09-0.754-0.09h-1.169v2.569H132.827z M137.864,223.315v7.136h-1.199v-7.136H137.864z"/>
		<path d="M101.303,236.364v6.087h-1.209v-7.136h5.477v7.136h-1.209v-6.087H101.303z"/>
		<path d="M108.818,242.376c-0.41-0.17-0.762-0.414-1.055-0.734c-0.293-0.319-0.518-0.711-0.675-1.175
			c-0.156-0.463-0.235-0.987-0.235-1.573c0-0.587,0.08-1.113,0.24-1.579c0.16-0.467,0.386-0.861,0.679-1.185
			c0.293-0.323,0.646-0.57,1.06-0.74s0.87-0.255,1.369-0.255c0.507,0,0.966,0.085,1.379,0.255s0.763,0.415,1.049,0.735
			c0.287,0.319,0.508,0.711,0.665,1.174c0.156,0.463,0.234,0.988,0.234,1.574c0,0.593-0.076,1.121-0.229,1.584
			s-0.373,0.856-0.66,1.18s-0.635,0.569-1.044,0.739s-0.875,0.255-1.395,0.255C109.689,242.631,109.228,242.546,108.818,242.376z
			 M111.751,240.867c0.353-0.483,0.53-1.145,0.53-1.984c0-0.42-0.045-0.796-0.135-1.129c-0.09-0.333-0.222-0.616-0.395-0.85
			s-0.39-0.413-0.649-0.54c-0.26-0.126-0.563-0.189-0.91-0.189s-0.65,0.063-0.91,0.189c-0.26,0.127-0.478,0.307-0.654,0.54
			c-0.177,0.233-0.309,0.517-0.395,0.85s-0.13,0.709-0.13,1.129c0,0.84,0.175,1.501,0.525,1.984c0.35,0.483,0.871,0.725,1.564,0.725
			C110.878,241.592,111.398,241.351,111.751,240.867z"/>
		<path d="M119.512,235.315c0.54,0,0.985,0.06,1.334,0.18s0.625,0.279,0.825,0.479c0.2,0.2,0.34,0.432,0.419,0.694
			c0.08,0.264,0.12,0.538,0.12,0.825c0,0.307-0.04,0.6-0.12,0.879c-0.08,0.28-0.221,0.525-0.425,0.735
			c-0.203,0.21-0.478,0.376-0.824,0.499c-0.347,0.124-0.783,0.186-1.31,0.186h-1.299v2.658h-1.189v-7.136H119.512z M120.256,238.693
			c0.197-0.061,0.352-0.146,0.465-0.255c0.113-0.11,0.191-0.241,0.235-0.395s0.065-0.327,0.065-0.521
			c0-0.199-0.023-0.374-0.07-0.524c-0.047-0.149-0.128-0.274-0.245-0.375c-0.116-0.1-0.273-0.176-0.47-0.229
			c-0.196-0.054-0.444-0.08-0.745-0.08h-1.259v2.469h1.27C119.809,238.783,120.06,238.753,120.256,238.693z"/>
		<path d="M124.942,238.304c0.287,0,0.535-0.073,0.745-0.22c0.21-0.147,0.401-0.4,0.575-0.76l0.48-0.979
			c0.193-0.4,0.415-0.672,0.665-0.814c0.25-0.144,0.542-0.215,0.875-0.215c0.146,0,0.278,0.008,0.395,0.024
			c0.117,0.017,0.215,0.038,0.295,0.065l-0.14,0.97l-0.1-0.021c-0.033-0.007-0.07-0.012-0.11-0.015
			c-0.04-0.004-0.083-0.005-0.13-0.005c-0.173,0-0.33,0.04-0.47,0.119c-0.14,0.08-0.273,0.257-0.4,0.53l-0.38,0.8
			c-0.106,0.232-0.233,0.426-0.38,0.579s-0.306,0.27-0.479,0.35c0.066,0.027,0.135,0.062,0.205,0.105
			c0.07,0.043,0.142,0.102,0.215,0.175s0.155,0.166,0.245,0.279s0.191,0.254,0.305,0.42l1.829,2.759h-1.399l-1.609-2.438
			c-0.093-0.14-0.178-0.255-0.255-0.345s-0.157-0.163-0.24-0.22c-0.083-0.057-0.175-0.096-0.275-0.115
			c-0.1-0.021-0.22-0.03-0.36-0.03h-0.47v3.148h-1.199v-7.136h1.199v2.988H124.942z"/>
	</g>
	<g>
		<path d="M221.798,162.228l2.718,7.136h-1.289l-0.669-1.819h-2.769l-0.66,1.819h-1.25l2.719-7.136H221.798z M221.168,163.597
			l-1.049,2.938h2.109L221.168,163.597z"/>
		<path d="M226.599,162.228v2.888h3.208v-2.888h1.209v7.136h-1.209v-3.128h-3.208v3.128h-1.209v-7.136H226.599z"/>
		<path d="M235.808,162.228l2.718,7.136h-1.289l-0.669-1.819h-2.769l-0.66,1.819h-1.25l2.719-7.136H235.808z M235.178,163.597
			l-1.049,2.938h2.109L235.178,163.597z"/>
		<path d="M242.368,163.247l-0.28,2.368c-0.073,0.62-0.176,1.168-0.31,1.645s-0.31,0.874-0.53,1.194
			c-0.22,0.319-0.491,0.562-0.814,0.729c-0.323,0.166-0.711,0.25-1.165,0.25h-0.29v-1.04h0.15c0.26,0,0.49-0.057,0.689-0.17
			s0.373-0.3,0.52-0.56c0.147-0.26,0.271-0.602,0.375-1.024c0.103-0.423,0.191-0.944,0.265-1.564l0.34-2.848h4.198v7.136h-1.199
			v-6.116H242.368z"/>
		<path d="M251.356,164.176l-3.198,5.188h-1.119v-7.136h1.179v5.217l3.188-5.217h1.12v7.136h-1.169V164.176z"/>
		<path d="M253.479,163.276v-1.049h5.717v1.049h-2.249v6.087h-1.209v-6.087H253.479z"/>
		<path d="M264.466,164.176l-3.198,5.188h-1.119v-7.136h1.179v5.217l3.188-5.217h1.12v7.136h-1.169V164.176z"/>
		<path d="M270.247,166.564c-0.286,0.061-0.583,0.09-0.889,0.09c-0.347,0-0.67-0.038-0.97-0.114c-0.3-0.077-0.56-0.202-0.779-0.375
			c-0.22-0.173-0.393-0.399-0.52-0.68c-0.126-0.28-0.19-0.626-0.19-1.039v-2.219h1.2v1.879c0,0.272,0.025,0.51,0.075,0.709
			c0.05,0.2,0.133,0.365,0.25,0.495s0.273,0.225,0.47,0.285c0.197,0.06,0.441,0.09,0.734,0.09c0.233,0,0.478-0.025,0.735-0.075
			c0.256-0.05,0.475-0.115,0.655-0.195v-3.188h1.199v7.136h-1.199v-3.028C270.791,166.428,270.534,166.505,270.247,166.564z"/>
		<path d="M278.486,162.228v1.039h-3.538v1.899h3.338v1.049h-3.338v2.109h3.728l-0.14,1.039h-4.797v-7.136H278.486z"/>
		<path d="M285.436,167.984c-0.14,0.312-0.333,0.586-0.58,0.819s-0.546,0.415-0.899,0.545s-0.763,0.194-1.229,0.194
			c-0.513,0-0.971-0.086-1.374-0.26c-0.403-0.173-0.743-0.421-1.02-0.744s-0.486-0.717-0.63-1.18
			c-0.143-0.463-0.215-0.981-0.215-1.554c0-0.587,0.079-1.113,0.235-1.579c0.157-0.467,0.378-0.861,0.665-1.185
			c0.286-0.323,0.629-0.57,1.029-0.74s0.839-0.255,1.319-0.255c0.446,0,0.833,0.057,1.159,0.17s0.604,0.275,0.834,0.485
			s0.413,0.461,0.55,0.754c0.137,0.294,0.238,0.62,0.305,0.979l-1.189,0.17c-0.054-0.239-0.12-0.453-0.2-0.64
			s-0.185-0.345-0.315-0.475c-0.13-0.13-0.288-0.229-0.475-0.3c-0.187-0.069-0.41-0.104-0.669-0.104c-0.32,0-0.603,0.063-0.85,0.189
			c-0.247,0.127-0.455,0.309-0.625,0.545s-0.298,0.521-0.385,0.854c-0.087,0.333-0.13,0.706-0.13,1.119
			c0,0.42,0.045,0.797,0.135,1.13s0.221,0.618,0.395,0.854s0.381,0.416,0.625,0.539c0.243,0.124,0.521,0.186,0.834,0.186
			c0.28,0,0.518-0.037,0.714-0.11c0.197-0.073,0.362-0.177,0.495-0.31c0.133-0.133,0.238-0.295,0.315-0.484
			c0.077-0.19,0.132-0.405,0.165-0.645h1.279C285.666,167.328,285.576,167.671,285.436,167.984z"/>
		<path d="M288.417,165.216c0.287,0,0.535-0.073,0.745-0.22c0.21-0.147,0.401-0.4,0.575-0.76l0.48-0.979
			c0.193-0.4,0.415-0.672,0.665-0.814c0.25-0.144,0.542-0.215,0.875-0.215c0.146,0,0.278,0.008,0.395,0.024
			c0.117,0.017,0.215,0.038,0.295,0.065l-0.14,0.97l-0.1-0.021c-0.033-0.007-0.07-0.012-0.11-0.015
			c-0.04-0.004-0.083-0.005-0.13-0.005c-0.173,0-0.33,0.04-0.47,0.119c-0.14,0.08-0.273,0.257-0.4,0.53l-0.38,0.8
			c-0.106,0.232-0.233,0.426-0.38,0.579s-0.306,0.27-0.479,0.35c0.066,0.027,0.135,0.062,0.205,0.105
			c0.07,0.043,0.142,0.102,0.215,0.175s0.155,0.166,0.245,0.279s0.191,0.254,0.305,0.42l1.829,2.759h-1.399l-1.609-2.438
			c-0.093-0.14-0.178-0.255-0.255-0.345s-0.157-0.163-0.24-0.22c-0.083-0.057-0.175-0.096-0.275-0.115
			c-0.1-0.021-0.22-0.03-0.36-0.03h-0.47v3.148h-1.199v-7.136h1.199v2.988H288.417z"/>
		<path d="M297.776,164.176l-3.198,5.188h-1.119v-7.136h1.179v5.217l3.188-5.217h1.12v7.136h-1.169V164.176z"/>
		<path d="M304.786,164.176l-3.198,5.188h-1.119v-7.136h1.179v5.217l3.188-5.217h1.12v7.136h-1.169V164.176z M302.612,160.733
			c0.144,0.123,0.335,0.185,0.575,0.185s0.432-0.062,0.575-0.185c0.143-0.124,0.222-0.312,0.235-0.565h0.839
			c0,0.467-0.145,0.83-0.435,1.09s-0.694,0.39-1.214,0.39c-0.54,0-0.946-0.13-1.219-0.39c-0.273-0.26-0.41-0.623-0.41-1.09h0.819
			C302.391,160.422,302.469,160.609,302.612,160.733z"/>
		<path d="M233.671,176.176l-3.198,5.188h-1.119v-7.136h1.179v5.217l3.188-5.217h1.12v7.136h-1.169V176.176z"/>
		<path d="M237.573,174.228v2.888h3.208v-2.888h1.209v7.136h-1.209v-3.128h-3.208v3.128h-1.209v-7.136H237.573z"/>
		<path d="M249.22,179.984c-0.14,0.312-0.333,0.586-0.58,0.819s-0.546,0.415-0.899,0.545s-0.763,0.194-1.229,0.194
			c-0.513,0-0.971-0.086-1.374-0.26c-0.403-0.173-0.743-0.421-1.02-0.744s-0.486-0.717-0.63-1.18
			c-0.143-0.463-0.215-0.981-0.215-1.554c0-0.587,0.079-1.113,0.235-1.579c0.157-0.467,0.378-0.861,0.665-1.185
			c0.286-0.323,0.629-0.57,1.029-0.74s0.839-0.255,1.319-0.255c0.446,0,0.833,0.057,1.159,0.17s0.604,0.275,0.834,0.485
			s0.413,0.461,0.55,0.754c0.137,0.294,0.238,0.62,0.305,0.979l-1.189,0.17c-0.054-0.239-0.12-0.453-0.2-0.64
			s-0.185-0.345-0.315-0.475s-0.288-0.229-0.475-0.3c-0.187-0.069-0.41-0.104-0.669-0.104c-0.32,0-0.603,0.063-0.85,0.189
			c-0.247,0.127-0.455,0.309-0.625,0.545s-0.298,0.521-0.385,0.854c-0.087,0.333-0.13,0.706-0.13,1.119
			c0,0.42,0.045,0.797,0.135,1.13s0.222,0.618,0.395,0.854c0.173,0.236,0.382,0.416,0.625,0.539
			c0.243,0.124,0.521,0.186,0.834,0.186c0.28,0,0.518-0.037,0.714-0.11c0.197-0.073,0.362-0.177,0.495-0.31
			c0.133-0.133,0.238-0.295,0.315-0.484c0.077-0.19,0.132-0.405,0.165-0.645h1.279C249.45,179.328,249.36,179.671,249.22,179.984z"
			/>
		<path d="M250.064,175.276v-1.049h5.717v1.049h-2.249v6.087h-1.209v-6.087H250.064z"/>
		<path d="M259.202,174.228c0.54,0,0.985,0.06,1.334,0.18s0.625,0.279,0.825,0.479c0.2,0.2,0.34,0.432,0.419,0.694
			c0.08,0.264,0.12,0.538,0.12,0.825c0,0.307-0.04,0.6-0.12,0.879c-0.08,0.28-0.221,0.525-0.425,0.735
			c-0.203,0.21-0.478,0.376-0.824,0.499c-0.347,0.124-0.783,0.186-1.31,0.186h-1.299v2.658h-1.189v-7.136H259.202z M259.946,177.605
			c0.197-0.061,0.352-0.146,0.465-0.255c0.113-0.11,0.191-0.241,0.235-0.395s0.065-0.327,0.065-0.521
			c0-0.199-0.023-0.374-0.07-0.524c-0.047-0.149-0.128-0.274-0.245-0.375c-0.116-0.1-0.273-0.176-0.47-0.229
			c-0.196-0.054-0.444-0.08-0.745-0.08h-1.259v2.469h1.27C259.499,177.695,259.75,177.665,259.946,177.605z"/>
		<path d="M262.894,180.534c0.14,0.033,0.283,0.05,0.43,0.05c0.273,0,0.511-0.068,0.715-0.205c0.203-0.137,0.378-0.371,0.524-0.705
			l0.16-0.35l-2.599-5.097h1.339l1.839,3.928l1.539-3.928h1.239l-2.358,5.457c-0.14,0.319-0.283,0.595-0.43,0.824
			c-0.146,0.229-0.314,0.422-0.504,0.574c-0.19,0.153-0.403,0.269-0.64,0.346c-0.237,0.076-0.515,0.114-0.834,0.114
			c-0.207,0-0.398-0.02-0.575-0.06c-0.177-0.04-0.312-0.083-0.405-0.13l0.24-0.92C262.647,180.467,262.753,180.5,262.894,180.534z"
			/>
		<path d="M270.353,174.228l2.029,5.677l2.089-5.677h1.419v7.136h-1.109v-5.188l-1.959,5.188h-0.959l-1.889-5.177v5.177h-1.089
			v-7.136H270.353z"/>
		<path d="M282.161,174.228v1.039h-3.538v1.899h3.338v1.049h-3.338v2.109h3.728l-0.14,1.039h-4.797v-7.136H282.161z"/>
		<path d="M284.612,174.228v2.888h3.208v-2.888h1.209v7.136h-1.209v-3.128h-3.208v3.128h-1.209v-7.136H284.612z"/>
		<path d="M289.984,175.276v-1.049h5.717v1.049h-2.249v6.087h-1.209v-6.087H289.984z"/>
	</g>
	<g>
		<g>
			<g>
				<path fill="none" stroke="#000000" stroke-miterlimit="10" d="M176.622,36.799c-15.837-11.086-33.377-19.021-54.07-19.021
					c-51.915,0-94,42.086-94,94s42.085,94,94,94c20.802,0,38.092-7.814,54.072-19.03"/>
				<g>
					<polygon points="176.704,33.328 183.745,42.067 173.277,38.02 					"/>
				</g>
				<g>
					<polygon points="176.709,190.223 183.744,181.478 173.279,185.532 					"/>
				</g>
			</g>
		</g>
		<path fill="none" stroke="#000000" stroke-miterlimit="10" d="M183.744,181.478c3.219-2.5,6.397-5.115,9.553-7.809l68.103-61.879
			l-67.996-61.782c-3.161-2.727-6.376-5.389-9.658-7.94"/>
		<g>
			<g>
				<path fill="none" stroke="#000000" stroke-miterlimit="10" d="M344.406,187.193c0.348,0.285,0.687,0.562,1.017,0.83
					c14.816,12.011,34.45,17.755,54.98,17.755c51.915,0,94-42.086,94-94c0-22.18-7.682-42.565-20.531-58.643"/>
				<g>
					<polygon points="344.063,190.676 337.634,181.477 347.802,186.229 					"/>
				</g>
			</g>
		</g>
		<g>
			<g>
				<path fill="none" stroke="#000000" stroke-miterlimit="10" d="M468.026,46.484c-17.094-17.699-41.072-28.706-67.622-28.706
					c-27.917,0-49.413,14.029-70.203,31.498l-68.801,62.514c0,0,50.106,47.181,76.235,69.687"/>
				<g>
					<polygon points="468.835,43.106 473.873,53.136 464.495,46.971 					"/>
				</g>
			</g>
		</g>
	</g>
	<g>
		<g>
			<path fill-rule="evenodd" clip-rule="evenodd" d="M8.859,118.56c-0.245,0-0.441-0.073-0.585-0.217
				c-0.225-0.225-0.224-0.536-0.224-0.653c0.007-1.636,0.007-3.271,0.006-4.904v-1.47l-0.021-0.003
				c-0.06-0.007-0.116-0.012-0.168-0.012c-0.212,0-0.368,0.034-0.586,0.484c-0.646,1.335-1.325,2.653-2.003,3.973
				c-0.375,0.729-0.75,1.459-1.121,2.191c-0.208,0.41-0.518,0.61-0.947,0.61c-0.204-0.006-0.356-0.008-0.509-0.008l-1.071,0.006
				c-0.148-0.001-0.596-0.006-0.806-0.365c-0.208-0.357,0.002-0.739,0.071-0.864l3.651-6.606c-0.08-0.059-0.159-0.116-0.238-0.174
				c-0.431-0.313-0.876-0.639-1.26-1.028c-1.047-1.061-1.574-2.449-1.609-4.243c-0.032-1.617,0.226-2.903,0.811-4.047
				c1.045-2.042,2.723-3.094,4.985-3.124c0.371-0.005,0.741-0.007,1.112-0.007l1.701,0.004c0.733,0.002,0.969,0.237,0.971,0.972
				l-0.002,17.383c-0.001,0.421-0.003,0.841,0.005,1.261c0.001,0.099,0.007,0.396-0.213,0.62c-0.144,0.146-0.34,0.22-0.584,0.22
				c-0.271-0.007-0.501-0.012-0.731-0.012c-0.189,0-0.379,0.003-0.568,0.012C8.919,118.559,8.867,118.56,8.859,118.56z
				 M7.313,100.719c-1.01,0-1.738,0.454-2.165,1.351c-0.803,1.686-0.836,3.407-0.1,5.115c0.341,0.79,0.971,1.289,1.821,1.441
				c0.345,0.062,0.718,0.074,1.113,0.088c0.024,0.001,0.048,0.002,0.073,0.003c0,0,0.002-7.904,0-7.993
				c-0.083-0.003-0.182-0.003-0.248-0.003l-0.171-0.5l0.003,0.5l-0.242-0.001l-0.084-0.501V100.719z"/>
			<path fill="#FFFFFF" d="M8.35,98.6c0.566,0,1.133,0.003,1.7,0.003c0.462,0.001,0.47,0.01,0.471,0.473
				c0,5.633-0.001,11.266-0.001,16.899c0,0.584-0.007,1.169,0.004,1.753c0.004,0.23-0.072,0.331-0.297,0.331
				c-0.009,0-0.018,0-0.026-0.001c-0.235-0.007-0.47-0.013-0.705-0.013c-0.197,0-0.395,0.004-0.592,0.014
				c-0.016,0-0.03,0.001-0.044,0.001c-0.25,0-0.31-0.114-0.309-0.369c0.009-2.139,0.006-4.277,0.006-6.416
				c0-0.448-0.005-0.402-0.459-0.458c-0.081-0.01-0.157-0.016-0.229-0.016c-0.499,0-0.784,0.246-1.036,0.767
				c-1.002,2.07-2.083,4.103-3.12,6.156c-0.118,0.233-0.251,0.335-0.5,0.335c-0.012,0-0.023,0-0.035,0
				c-0.158-0.005-0.316-0.007-0.474-0.007c-0.307,0-0.615,0.007-0.921,0.007c-0.049,0-0.098,0-0.146-0.001
				c-0.41-0.004-0.494-0.139-0.301-0.488c1.049-1.901,2.102-3.801,3.153-5.702c0.249-0.448,0.495-0.898,0.708-1.283
				c-0.63-0.49-1.272-0.891-1.788-1.415c-1.055-1.068-1.437-2.43-1.466-3.902c-0.026-1.324,0.145-2.615,0.756-3.81
				c0.946-1.849,2.457-2.823,4.547-2.852C7.612,98.601,7.981,98.6,8.35,98.6 M8.555,109.239c0-0.216,0-0.352,0-0.49
				c0.001-2.57,0.001-5.141,0.002-7.712c0-0.79,0.003-0.816-0.751-0.816c-0.026,0-0.053,0-0.081,0c-0.06,0-0.12,0-0.18,0
				c-0.045,0-0.09,0-0.135-0.001c-0.033-0.001-0.066-0.001-0.098-0.001c-1.203,0-2.105,0.561-2.617,1.636
				c-0.861,1.809-0.903,3.682-0.107,5.528c0.407,0.942,1.168,1.552,2.191,1.735C7.337,109.218,7.916,109.2,8.555,109.239 M8.35,97.6
				c-0.373,0-0.746,0.001-1.119,0.006c-2.428,0.033-4.303,1.207-5.423,3.396c-0.625,1.22-0.9,2.582-0.866,4.285
				c0.038,1.928,0.611,3.428,1.754,4.584c0.375,0.381,0.792,0.695,1.202,0.995l-0.285,0.517l-1.07,1.934l-2.084,3.77
				c-0.345,0.625-0.226,1.084-0.065,1.358c0.234,0.401,0.649,0.608,1.232,0.613l0.155,0.001l0.471-0.004l0.451-0.003
				c0.147,0,0.294,0.001,0.442,0.007c0.011,0,0.057,0,0.067,0c0.431,0,1.023-0.152,1.393-0.883c0.37-0.732,0.745-1.461,1.119-2.189
				c0.608-1.183,1.235-2.401,1.833-3.623v0.422c0,1.633,0.001,3.268-0.006,4.9c0,0.16-0.001,0.639,0.37,1.011
				c0.166,0.165,0.463,0.363,0.939,0.363c0.016,0,0.076-0.001,0.091-0.002c0.181-0.009,0.363-0.013,0.544-0.013
				c0.225,0,0.451,0.006,0.676,0.012c0.01,0.001,0.046,0.002,0.056,0.002c0.478,0,0.775-0.201,0.94-0.37
				c0.244-0.249,0.364-0.578,0.357-0.979c-0.008-0.417-0.007-0.834-0.005-1.25l0.001-0.484l0-8.45l0-8.449
				c-0.002-1.017-0.455-1.471-1.469-1.473l-0.849-0.002L8.35,97.6L8.35,97.6z M7.555,108.196c-0.213-0.012-0.411-0.028-0.598-0.062
				c-0.687-0.123-1.174-0.509-1.45-1.147c-0.677-1.57-0.646-3.152,0.092-4.701c0.346-0.729,0.891-1.066,1.714-1.066h0.073
				l0.16,0.002h0.012l-0.001,4.443L7.555,108.196L7.555,108.196z"/>
		</g>
		<g>
			<path fill-rule="evenodd" clip-rule="evenodd" d="M22.239,121.134c-0.143,0-0.286-0.006-0.426-0.025
				c-0.316-0.045-0.688-0.383-0.695-0.751c-0.012-0.831-0.013-1.659-0.013-2.487l-0.002-1.168c-0.001-0.293,0.116-0.472,0.213-0.569
				c0.095-0.096,0.264-0.209,0.531-0.209c0.058,0,0.12,0.006,0.184,0.017c0.005,0.003,0.01,0.005,0.015,0.005
				c0.025,0,0.054-0.037,0.102-0.139c0.605-1.271,1.01-2.685,1.273-4.45c0.296-1.991,0.311-4.053,0.3-5.829
				c-0.002-0.316-0.003-0.565,0.202-0.771c0.205-0.206,0.46-0.206,0.756-0.206l2.425,0.002c0.756,0,1.512-0.002,2.267-0.009
				c0,0,0,0,0.001,0c0.224,0,0.487,0.026,0.692,0.231c0.208,0.21,0.231,0.488,0.23,0.68c-0.009,2.672-0.009,5.344-0.008,8.016
				c0,0,0.001,2.412,0.003,2.452c0.035,0.002,0.142,0.003,0.145,0.003c0.131,0,0.425,0.004,0.644,0.225
				c0.223,0.225,0.22,0.525,0.219,0.624c-0.005,0.671-0.005,1.343-0.004,2.015l-0.001,1.349c-0.002,0.665-0.32,0.979-0.999,0.986
				l-0.581-0.005c-0.102,0-0.203,0.002-0.303,0.009c-0.007,0-0.014,0-0.021,0c-0.343,0-0.545-0.078-0.693-0.23
				c-0.237-0.242-0.229-0.573-0.226-0.682c0.012-0.489,0.01-0.979,0.007-1.482l0-0.15h-4.553v1.353c0,0.902-0.285,1.191-1.174,1.191
				L22.239,121.134z M27.256,115.916v-8.731h-0.638c-0.135,3.153-0.407,6.023-1.747,8.731H27.256z"/>
			<path fill="#FFFFFF" d="M29.388,105.043c0.305,0,0.409,0.079,0.407,0.409c-0.012,3.436-0.007,6.871-0.007,10.307
				c0,0.582,0.066,0.666,0.641,0.666c0.007,0,0.014,0,0.021,0c0.003,0,0.006,0,0.008,0c0.252,0,0.343,0.088,0.341,0.344
				c-0.008,1.122-0.002,2.244-0.005,3.366c-0.001,0.392-0.101,0.483-0.504,0.488c-0.024,0-0.049,0-0.073,0
				c-0.167,0-0.335-0.004-0.502-0.004c-0.112,0-0.224,0.002-0.335,0.009c-0.022,0.001-0.044,0.002-0.064,0.002
				c-0.255,0-0.352-0.116-0.344-0.402c0.018-0.7,0.005-1.4,0.005-2.146c-1.866,0-3.683,0-5.551,0c0,0.625,0,1.238,0,1.853
				c0,0.627-0.058,0.691-0.674,0.691c-0.01,0-0.02,0-0.03,0c-0.16,0-0.321,0.009-0.481,0.009c-0.12,0-0.24-0.006-0.357-0.021
				c-0.102-0.015-0.262-0.174-0.264-0.267c-0.018-1.215-0.01-2.431-0.015-3.646c-0.001-0.206,0.101-0.276,0.244-0.276
				c0.032,0,0.065,0.004,0.1,0.01c0.048,0.008,0.093,0.013,0.134,0.013c0.26,0,0.394-0.163,0.519-0.424
				c0.695-1.459,1.08-3.005,1.316-4.593c0.292-1.959,0.317-3.932,0.306-5.905c-0.003-0.474-0.003-0.475,0.458-0.475
				c0.808,0,1.617,0.002,2.425,0.002c0.757,0,1.515-0.001,2.271-0.009C29.38,105.043,29.384,105.043,29.388,105.043 M24.037,116.416
				c1.27,0,2.481,0,3.719,0c0-3.256,0-6.484,0-9.731c-0.331,0-0.647-0.001-0.96-0.001c-0.157,0-0.312,0-0.467,0.001
				c-0.056,0-0.111,0.01-0.191,0.018C26.006,110.058,25.784,113.387,24.037,116.416 M29.388,104.043c-0.001,0-0.015,0-0.017,0
				c-0.758,0.008-1.512,0.009-2.266,0.009l-1.211-0.001l-1.214-0.001c-0.338,0-0.76,0-1.111,0.354
				c-0.352,0.354-0.349,0.782-0.347,1.126c0.01,1.758-0.004,3.797-0.295,5.754c-0.244,1.637-0.611,2.96-1.152,4.143
				c-0.314,0.018-0.601,0.141-0.812,0.354c-0.165,0.166-0.361,0.461-0.359,0.925l0.002,1.165c0,0.831,0,1.662,0.013,2.492
				c0.014,0.65,0.591,1.166,1.122,1.242c0.155,0.021,0.312,0.031,0.5,0.031c0.089,0,0.178-0.002,0.267-0.005
				c0.071-0.002,0.143-0.004,0.214-0.004c1.203,0,1.704-0.506,1.704-1.691v-0.853h3.555c0.001,0.378,0.001,0.75-0.008,1.121
				c-0.011,0.43,0.113,0.781,0.368,1.043c0.171,0.175,0.479,0.384,0.976,0.384c0.041,0,0.083-0.001,0.128-0.004
				c0.09-0.006,0.18-0.007,0.271-0.007l0.237,0.002l0.266,0.002h0.083c0.947-0.012,1.491-0.553,1.495-1.484l0.001-1.352
				c0-0.67,0-1.341,0.004-2.012c0.004-0.4-0.119-0.73-0.364-0.979c-0.174-0.176-0.391-0.289-0.647-0.341l0-1.989
				c-0.001-2.67-0.002-5.341,0.008-8.012c0.001-0.16,0.003-0.652-0.376-1.033C30.042,104.043,29.55,104.043,29.388,104.043
				L29.388,104.043z M25.651,115.416c0.555-1.303,0.891-2.638,1.104-4.02v4.02H25.651L25.651,115.416z"/>
		</g>
		<g>
			<path fill-rule="evenodd" clip-rule="evenodd" d="M18.526,118.572c-0.258,0-0.466-0.077-0.616-0.229
				c-0.212-0.213-0.235-0.492-0.234-0.683c0.007-1.307,0.006-2.612,0.006-3.92l0-1.383h-1.978l-0.001,2.112
				c-0.001,1.058-0.003,2.116,0.008,3.175c0.002,0.195-0.02,0.481-0.232,0.696c-0.15,0.151-0.358,0.229-0.619,0.229
				c-0.011,0-0.09-0.002-0.101-0.003c-0.169-0.011-0.339-0.016-0.508-0.016c-0.209,0-0.418,0.007-0.626,0.018
				c-0.017,0.001-0.034,0.001-0.052,0.001c-0.181,0-0.441-0.019-0.646-0.223c-0.209-0.21-0.233-0.485-0.233-0.675
				c0.008-2.82,0.007-5.64,0.007-8.46l0.002-2.771c0.003-0.326,0.007-0.653-0.008-0.979c-0.005-0.107-0.02-0.435,0.214-0.681
				c0.151-0.158,0.366-0.239,0.637-0.239c0.286,0.014,0.489,0.019,0.692,0.019c0.189,0,0.378-0.005,0.567-0.014
				c0.016-0.001,0.032-0.001,0.05-0.001c0.177,0,0.434,0.019,0.633,0.22c0.204,0.206,0.225,0.475,0.223,0.658
				c-0.011,1.074-0.009,2.147-0.006,3.221l0.002,1.033h1.979l0-1.768c0-0.815,0.001-1.632-0.01-2.448
				c-0.003-0.192,0.018-0.475,0.229-0.688c0.15-0.152,0.357-0.229,0.616-0.229c0.271,0.012,0.467,0.017,0.664,0.017
				c0.195,0,0.391-0.005,0.586-0.016c0.005,0,0.01,0,0.016,0c0.33,0,0.529,0.075,0.675,0.221c0.209,0.21,0.232,0.491,0.231,0.685
				c-0.008,1.806-0.007,3.61-0.006,5.415l-0.001,3.218c-0.001,1.188-0.003,2.376,0.006,3.563c0.002,0.195-0.021,0.48-0.233,0.695
				c-0.15,0.151-0.359,0.229-0.619,0.229c-0.011,0-0.09-0.002-0.1-0.003c-0.175-0.011-0.351-0.016-0.527-0.016
				c-0.202,0-0.403,0.007-0.604,0.018C18.598,118.57,18.535,118.572,18.526,118.572z"/>
			<path fill="#FFFFFF" d="M19.854,105.043c0.267,0,0.338,0.121,0.337,0.405c-0.011,2.408-0.005,4.815-0.005,7.223
				c0,1.66-0.008,3.32,0.004,4.979c0.003,0.299-0.081,0.42-0.352,0.42c-0.022,0-0.044,0-0.069-0.002
				c-0.186-0.012-0.372-0.017-0.558-0.017c-0.211,0-0.422,0.007-0.633,0.019c-0.019,0.001-0.036,0.002-0.053,0.002
				c-0.27,0-0.352-0.126-0.35-0.409c0.01-1.787,0.005-3.573,0.005-5.361c0-0.137,0-0.276,0-0.444c-0.998,0-1.971,0-2.978,0
				c0,0.49,0,0.967,0,1.444c0,1.448-0.009,2.898,0.006,4.348c0.003,0.3-0.08,0.421-0.351,0.421c-0.022,0-0.045-0.002-0.069-0.003
				c-0.179-0.012-0.359-0.017-0.539-0.017c-0.218,0-0.436,0.008-0.653,0.019c-0.021,0.001-0.04,0.001-0.059,0.001
				c-0.255,0-0.347-0.103-0.346-0.397c0.01-3.599,0.006-7.198,0.006-10.797c0-0.48,0.017-0.96-0.006-1.438
				c-0.014-0.296,0.094-0.396,0.352-0.396c0.018,0,0.037,0,0.057,0.001c0.211,0.011,0.423,0.017,0.635,0.017
				c0.198,0,0.395-0.005,0.592-0.015c0.02-0.001,0.039-0.001,0.057-0.001c0.245,0,0.327,0.096,0.324,0.374
				c-0.015,1.449-0.005,2.898-0.004,4.348c0,0.127,0,0.253,0,0.411c1.01,0,1.965,0,2.979,0c0-0.472,0-0.933,0-1.395
				c-0.001-1.108,0.006-2.218-0.009-3.328c-0.004-0.283,0.071-0.412,0.345-0.412c0.016,0,0.033,0.001,0.05,0.002
				c0.204,0.01,0.409,0.016,0.614,0.016c0.205,0,0.409-0.006,0.613-0.017C19.817,105.043,19.836,105.043,19.854,105.043
				 M19.854,104.043c-0.036,0-0.074,0-0.113,0.002c-0.185,0.011-0.372,0.016-0.558,0.016c-0.188,0-0.376-0.005-0.563-0.014
				c-0.017-0.002-0.083-0.004-0.1-0.004c-0.496,0-0.802,0.207-0.972,0.379c-0.383,0.389-0.375,0.885-0.373,1.048
				c0.011,0.813,0.01,1.627,0.01,2.44l0,0.874v0.394h-0.98l-0.001-0.533c-0.002-1.072-0.004-2.144,0.006-3.215
				c0.004-0.424-0.12-0.766-0.368-1.016c-0.243-0.246-0.564-0.369-0.957-0.369c-0.034,0-0.07,0-0.107,0.002
				c-0.18,0.01-0.36,0.014-0.541,0.014c-0.194,0-0.389-0.005-0.582-0.016c-0.041-0.002-0.076-0.002-0.11-0.002
				c-0.514,0-0.827,0.214-0.999,0.394c-0.253,0.265-0.372,0.618-0.352,1.048c0.015,0.316,0.011,0.634,0.008,0.951l-0.003,0.44
				l0,2.335c0,2.82,0.001,5.64-0.007,8.459c-0.001,0.432,0.127,0.777,0.379,1.029c0.247,0.246,0.572,0.371,0.967,0.371
				c0.035,0,0.072,0,0.111-0.002c0.199-0.011,0.4-0.018,0.601-0.018c0.158,0,0.317,0.004,0.475,0.015
				c0.047,0.003,0.091,0.005,0.133,0.005c0.497,0,0.804-0.205,0.974-0.378c0.384-0.388,0.378-0.889,0.377-1.054
				c-0.011-1.056-0.009-2.112-0.007-3.168l0.001-1.169v-0.444h0.978l0,0.885c0,1.305,0.001,2.61-0.006,3.916
				c-0.003,0.432,0.125,0.781,0.379,1.037c0.171,0.172,0.478,0.377,0.971,0.377c0.034,0,0.069-0.002,0.106-0.004
				c0.195-0.011,0.388-0.017,0.58-0.017c0.166,0,0.332,0.005,0.497,0.015c0.045,0.003,0.089,0.004,0.13,0.004
				c0.496,0,0.803-0.205,0.974-0.377c0.384-0.387,0.379-0.888,0.378-1.053c-0.009-1.184-0.007-2.371-0.006-3.558l0.001-1.412
				l0-1.806c-0.001-1.804-0.002-3.607,0.006-5.412c0-0.164,0.002-0.659-0.377-1.04C20.646,104.244,20.342,104.043,19.854,104.043
				L19.854,104.043z"/>
		</g>
		<g>
			<path fill-rule="evenodd" clip-rule="evenodd" d="M36.268,118.886c-0.358,0-0.716-0.04-1.065-0.119
				c-1.502-0.342-2.563-1.326-3.244-3.009c-0.465-1.148-0.662-2.446-0.618-4.087c0.037-1.332,0.173-3.066,0.917-4.668
				c0.328-0.705,0.715-1.287,1.15-1.73c0.672-0.684,1.535-1.06,2.43-1.06c1.179,0,2.281,0.651,2.947,1.743
				c0.608,0.999,0.94,2.163,1.042,3.665c0.037,0.549,0.028,1.1,0.019,1.633c-0.004,0.233-0.008,0.468-0.008,0.7
				c0,0.276-0.224,0.5-0.5,0.5h-4.853c0.004,0.938,0.114,1.892,0.698,2.723c0.403,0.572,0.955,0.851,1.687,0.851
				c0.061,0,0.123-0.002,0.185-0.006c0.46-0.029,0.92-0.119,1.406-0.215c0.183-0.036,0.276-0.047,0.358-0.047
				c0.337,0,0.713,0.195,0.757,0.746c0.005,0.016,0.031,0.078,0.035,0.095c0.234,1.018,0.119,1.252-0.819,1.682
				C37.904,118.688,37.078,118.886,36.268,118.886z M36.796,109.894c0.002-0.824-0.183-1.942-0.432-2.476
				c-0.077-0.165-0.18-0.321-0.3-0.452c-0.08-0.087-0.182-0.136-0.284-0.136c-0.082,0-0.159,0.03-0.229,0.089
				c-0.163,0.134-0.295,0.295-0.363,0.442c-0.183,0.394-0.302,0.744-0.366,1.072c-0.093,0.482-0.156,0.972-0.216,1.448l-0.002,0.012
				H36.796z"/>
			<path fill="#FFFFFF" d="M35.837,104.713c0.969,0,1.92,0.52,2.521,1.504c0.642,1.054,0.888,2.23,0.97,3.438
				c0.052,0.764,0.01,1.536,0.01,2.299c-1.769,0-3.54,0-5.347,0c-0.029,1.212,0.029,2.438,0.783,3.51
				c0.518,0.735,1.244,1.063,2.096,1.063c0.071,0,0.143-0.002,0.216-0.007c0.521-0.033,1.039-0.139,1.553-0.239
				c0.067-0.014,0.127-0.021,0.181-0.021c0.148,0,0.241,0.066,0.258,0.285c0.005,0.057,0.034,0.112,0.047,0.169
				c0.179,0.777,0.182,0.783-0.54,1.113c-0.749,0.343-1.521,0.559-2.317,0.559c-0.314,0-0.632-0.034-0.954-0.106
				c-1.479-0.337-2.347-1.364-2.892-2.709c-0.505-1.246-0.617-2.557-0.581-3.886c0.042-1.54,0.216-3.062,0.871-4.471
				c0.266-0.572,0.615-1.145,1.053-1.592C34.369,105.008,35.108,104.713,35.837,104.713 M34.033,110.394c1.139,0,2.192,0,3.237,0
				c0.106-0.901-0.114-2.464-0.452-3.188c-0.097-0.208-0.23-0.409-0.385-0.578c-0.181-0.196-0.416-0.298-0.652-0.298
				c-0.191,0-0.383,0.066-0.548,0.203c-0.201,0.166-0.39,0.384-0.499,0.617c-0.175,0.378-0.324,0.78-0.403,1.188
				C34.196,109.029,34.125,109.732,34.033,110.394 M35.837,103.713L35.837,103.713c-1.03,0-2.019,0.429-2.786,1.208
				c-0.476,0.485-0.896,1.114-1.247,1.871c-0.782,1.685-0.926,3.485-0.963,4.865c-0.046,1.712,0.162,3.074,0.654,4.288
				c0.736,1.82,1.946,2.934,3.596,3.309c0.385,0.088,0.781,0.132,1.176,0.132c0.884,0,1.778-0.212,2.733-0.649
				c1.147-0.524,1.384-1.006,1.1-2.242c-0.011-0.047-0.023-0.089-0.037-0.131c-0.092-0.662-0.582-1.104-1.244-1.104
				c-0.115,0-0.234,0.013-0.375,0.041l-0.08,0.016c-0.47,0.092-0.914,0.179-1.343,0.206c-0.05,0.003-0.102,0.005-0.152,0.005
				c-0.565,0-0.972-0.203-1.278-0.639c-0.386-0.55-0.542-1.174-0.59-1.935h4.335c0.552,0,1-0.448,1-1
				c0-0.229,0.004-0.461,0.008-0.692c0.009-0.543,0.019-1.104-0.02-1.674c-0.108-1.586-0.462-2.822-1.114-3.892
				C38.454,104.454,37.192,103.713,35.837,103.713L35.837,103.713z M35.173,109.394c0.04-0.291,0.084-0.583,0.139-0.866
				c0.055-0.282,0.166-0.604,0.329-0.956c0.019-0.042,0.062-0.106,0.13-0.177c0.054,0.072,0.102,0.152,0.14,0.232
				c0.172,0.369,0.314,1.105,0.366,1.767H35.173L35.173,109.394z"/>
		</g>
		<g>
			<path fill-rule="evenodd" clip-rule="evenodd" d="M41.818,118.572c-0.254,0-0.458-0.075-0.605-0.225
				c-0.208-0.21-0.231-0.489-0.229-0.682c0.008-1.515,0.007-3.029,0.006-4.545v-2.995c0.002-1.551,0.003-3.103-0.008-4.654
				c-0.001-0.198,0.021-0.487,0.235-0.702c0.228-0.229,0.527-0.229,0.625-0.229c0.011,0,0.101,0.003,0.112,0.004
				c0.177,0.012,0.354,0.017,0.532,0.017c0.201,0,0.402-0.006,0.603-0.016c0.013-0.001,0.028-0.001,0.043-0.001
				c0.171,0,0.434,0.017,0.638,0.223c0.206,0.207,0.227,0.476,0.226,0.659c-0.009,1.189-0.008,2.379-0.007,3.569
				c0.574-1.187,1.147-2.374,1.706-3.567c0.279-0.598,0.705-0.889,1.301-0.889c0.012,0,0.122,0.004,0.133,0.005
				c0.177,0.012,0.355,0.016,0.538,0.016l0.97-0.01c0.171,0,0.33,0.087,0.422,0.231s0.104,0.325,0.031,0.48l-0.073,0.159
				c-0.049,0.108-0.089,0.196-0.135,0.282l-0.467,0.854c-0.795,1.46-1.592,2.919-2.397,4.373c0.955,1.803,1.894,3.605,2.832,5.409
				l0.564,1.085c0.044,0.085,0.083,0.172,0.126,0.273l0.057,0.132c0.069,0.154,0.055,0.333-0.037,0.476
				c-0.092,0.142-0.25,0.228-0.419,0.228l-1.177,0.012c-0.329,0-0.651-0.009-0.971-0.038c-0.48-0.046-0.792-0.572-0.903-0.797
				c-0.697-1.407-1.381-2.819-2.066-4.231l-0.035-0.072l-0.003,3.515c-0.004,0.248-0.008,0.495,0.008,0.741
				c0.019,0.28-0.049,0.504-0.201,0.666c-0.226,0.241-0.536,0.241-0.638,0.241c-0.275-0.01-0.483-0.016-0.691-0.016
				c-0.185,0-0.37,0.005-0.554,0.016C41.898,118.57,41.829,118.572,41.818,118.572z"/>
			<path fill="#FFFFFF" d="M46.994,105.039c0.032,0,0.065,0.002,0.099,0.004c0.188,0.013,0.378,0.016,0.572,0.016
				c0.306,0,0.624-0.009,0.97-0.009c-0.084,0.18-0.134,0.301-0.196,0.416c-0.951,1.742-1.899,3.486-2.861,5.223
				c-0.1,0.183-0.084,0.305,0.006,0.477c1.133,2.161,2.258,4.326,3.384,6.49c0.057,0.109,0.102,0.225,0.17,0.378
				c-0.406,0-0.796,0.012-1.177,0.012c-0.313,0-0.62-0.008-0.925-0.036c-0.184-0.018-0.396-0.31-0.501-0.521
				c-0.932-1.883-1.843-3.775-2.762-5.665c-0.064-0.132-0.134-0.262-0.2-0.392c-0.029,0.01-0.058,0.019-0.087,0.027
				c0,1.705,0,3.41,0,5.115c0,0.375-0.019,0.75,0.006,1.122c0.02,0.289-0.095,0.374-0.34,0.374c-0.016,0-0.031-0.001-0.048-0.001
				c-0.214-0.009-0.429-0.015-0.643-0.015c-0.195,0-0.39,0.005-0.584,0.017c-0.021,0.002-0.041,0.002-0.06,0.002
				c-0.266,0-0.337-0.123-0.335-0.403c0.011-1.976,0.005-3.95,0.005-5.926c0-2.092,0.008-4.183-0.007-6.275
				c-0.002-0.316,0.089-0.428,0.36-0.428c0.025,0,0.051,0.001,0.08,0.003c0.188,0.013,0.375,0.018,0.564,0.018
				c0.209,0,0.419-0.006,0.627-0.017c0.017-0.001,0.033-0.001,0.048-0.001c0.25,0,0.336,0.1,0.334,0.379
				c-0.013,1.706-0.006,3.413-0.007,5.12c0,0.102,0,0.203,0,0.306c0.028,0.012,0.055,0.024,0.082,0.036
				c0.097-0.158,0.208-0.311,0.289-0.477c0.768-1.588,1.541-3.172,2.287-4.768C46.332,105.242,46.574,105.039,46.994,105.039
				 M46.994,104.039c-0.549,0-1.299,0.205-1.754,1.177c-0.249,0.53-0.5,1.06-0.752,1.589c0.001-0.459,0.003-0.917,0.007-1.375
				c0.003-0.422-0.121-0.764-0.371-1.016c-0.245-0.246-0.569-0.371-0.963-0.371c-0.015,0-0.077,0.002-0.092,0.002
				c-0.197,0.01-0.391,0.016-0.583,0.016c-0.166,0-0.332-0.004-0.498-0.016c-0.053-0.003-0.101-0.005-0.146-0.005
				c-0.402,0-0.731,0.127-0.98,0.377c-0.385,0.388-0.381,0.892-0.38,1.058c0.012,1.551,0.01,3.102,0.008,4.65l-0.001,1.618
				l0.001,1.379c0.001,1.514,0.002,3.027-0.006,4.542c-0.001,0.16-0.004,0.654,0.375,1.036c0.168,0.17,0.472,0.372,0.96,0.372
				c0.038,0,0.077-0.002,0.119-0.004c0.175-0.01,0.35-0.015,0.525-0.015c0.201,0,0.401,0.006,0.602,0.014
				c0.013,0.001,0.075,0.002,0.088,0.002c0.418,0,0.755-0.134,1.003-0.399c0.172-0.184,0.37-0.514,0.334-1.041
				c-0.016-0.232-0.011-0.467-0.008-0.7c0.002-0.118,0.004-0.237,0.004-0.355v-0.993c0.382,0.785,0.766,1.568,1.152,2.352
				c0.15,0.301,0.575,1.003,1.303,1.072c0.304,0.028,0.618,0.041,1.021,0.041c0.192,0,0.387-0.003,0.584-0.006
				c0.194-0.003,0.391-0.006,0.592-0.006c0.339,0,0.654-0.172,0.839-0.455c0.185-0.285,0.212-0.643,0.074-0.952l-0.055-0.126
				c-0.049-0.113-0.092-0.211-0.141-0.305l-0.565-1.085c-0.899-1.729-1.799-3.456-2.703-5.183c0.758-1.371,1.511-2.751,2.263-4.131
				l0.465-0.852c0.054-0.101,0.099-0.198,0.153-0.318l0.07-0.154c0.145-0.309,0.122-0.672-0.062-0.96s-0.502-0.463-0.844-0.463
				c-0.184,0-0.359,0.003-0.53,0.005c-0.151,0.002-0.297,0.004-0.44,0.004c-0.172,0-0.339-0.002-0.506-0.014
				C47.104,104.041,47.048,104.039,46.994,104.039L46.994,104.039z"/>
		</g>
		<g>
			<path fill-rule="evenodd" clip-rule="evenodd" d="M53.868,118.88c-1.241,0-2.35-0.489-3.207-1.414
				c-0.719-0.776-1.193-1.749-1.409-2.892c-0.107-0.564-0.17-1.139-0.231-1.693c-0.026-0.242-0.053-0.485-0.083-0.728
				c0.073-1.747,0.285-3.688,1.279-5.484c0.69-1.25,1.562-2.004,2.666-2.306c0.345-0.095,0.7-0.143,1.055-0.143
				c0.829,0,1.667,0.251,2.64,0.79c0.344,0.194,0.443,0.76,0.282,1.07c-0.167,0.322-0.36,0.63-0.554,0.937l-0.168,0.269
				c-0.215,0.349-0.501,0.4-0.652,0.4c-0.187,0-0.372-0.074-0.551-0.221c-0.254-0.211-0.452-0.374-0.657-0.489
				c-0.177-0.1-0.341-0.149-0.488-0.149c-0.215,0-0.401,0.113-0.568,0.346c-0.288,0.403-0.508,0.835-0.635,1.249
				c-0.574,1.863-0.632,3.75-0.171,5.608c0.063,0.259,0.169,0.532,0.325,0.838c0.403,0.795,1.003,1.165,1.891,1.165
				c0.186,0,0.381-0.017,0.586-0.05c0.272-0.043,0.541-0.107,0.81-0.171l0.112-0.026c0.083-0.02,0.158-0.029,0.229-0.029
				c0.371,0,0.643,0.262,0.679,0.651c0.327,1.208,0.211,1.448-0.949,1.967C55.346,118.71,54.597,118.88,53.868,118.88z"/>
			<path fill="#FFFFFF" d="M53.938,104.721c0.842,0,1.635,0.305,2.397,0.728c0.082,0.046,0.132,0.304,0.081,0.402
				c-0.209,0.404-0.463,0.784-0.703,1.172c-0.069,0.112-0.144,0.165-0.228,0.165c-0.071,0-0.148-0.038-0.233-0.108
				c-0.234-0.193-0.469-0.393-0.731-0.539c-0.251-0.142-0.499-0.213-0.731-0.213c-0.371,0-0.707,0.182-0.974,0.555
				c-0.3,0.42-0.555,0.9-0.707,1.393c-0.597,1.937-0.668,3.902-0.179,5.876c0.08,0.325,0.212,0.645,0.364,0.944
				c0.486,0.96,1.267,1.438,2.336,1.438c0.21,0,0.432-0.019,0.664-0.056c0.323-0.051,0.641-0.13,0.958-0.205
				c0.042-0.01,0.08-0.016,0.114-0.016c0.102,0,0.167,0.052,0.18,0.196c0.002,0.023,0.012,0.045,0.018,0.067
				c0.26,0.981,0.26,0.981-0.673,1.398c-0.691,0.309-1.375,0.461-2.024,0.461c-1.083,0-2.07-0.423-2.839-1.254
				c-0.693-0.748-1.098-1.656-1.285-2.645c-0.15-0.787-0.209-1.592-0.309-2.39c0.083-1.815,0.331-3.572,1.221-5.181
				c0.535-0.968,1.249-1.762,2.36-2.065C53.329,104.76,53.637,104.721,53.938,104.721 M53.938,103.721L53.938,103.721
				c-0.399,0-0.799,0.054-1.188,0.16c-1.239,0.34-2.211,1.172-2.971,2.547c-1.043,1.886-1.265,3.898-1.344,5.618
				c-0.002,0.057,0,0.113,0.007,0.17c0.03,0.239,0.056,0.479,0.082,0.72c0.062,0.564,0.125,1.148,0.237,1.732
				c0.234,1.235,0.75,2.291,1.534,3.138c0.953,1.03,2.188,1.574,3.573,1.574c0.8,0,1.618-0.185,2.432-0.548
				c1.374-0.614,1.616-1.118,1.232-2.567c-0.001-0.005-0.003-0.01-0.004-0.016c-0.104-0.593-0.567-0.992-1.161-0.992
				c-0.11,0-0.222,0.014-0.342,0.042l-0.115,0.027c-0.27,0.064-0.524,0.125-0.771,0.164c-0.181,0.028-0.352,0.043-0.509,0.043
				c-0.696,0-1.128-0.267-1.444-0.891c-0.136-0.268-0.232-0.514-0.285-0.73c-0.439-1.771-0.384-3.568,0.163-5.344
				c0.112-0.362,0.307-0.744,0.565-1.105c0.036-0.05,0.105-0.136,0.161-0.136c0.021,0,0.102,0.007,0.243,0.085
				c0.167,0.094,0.347,0.242,0.538,0.4l0.044,0.037c0.273,0.225,0.565,0.338,0.871,0.338c0.435,0,0.827-0.233,1.078-0.64
				l0.165-0.263c0.194-0.309,0.396-0.627,0.575-0.975c0.272-0.523,0.123-1.396-0.479-1.734
				C55.771,103.992,54.854,103.721,53.938,103.721L53.938,103.721z"/>
		</g>
		<g>
			<path fill-rule="evenodd" clip-rule="evenodd" d="M34.488,125.264c-0.112,0-0.219-0.005-0.325-0.018
				c-0.317-0.041-0.606-0.363-0.613-0.676c-0.01-0.459-0.009-0.918-0.008-1.395l0-0.435c0-0.152,0.069-0.296,0.188-0.391
				c0.089-0.071,0.199-0.109,0.312-0.109c0.036,0,0.071,0.004,0.106,0.012c0.003-0.017,0.03-0.076,0.049-0.119
				c0.395-0.851,0.613-1.7,0.681-2.594c0.009-0.117,0.027-0.232,0.048-0.354l0.022-0.142c0.037-0.244,0.247-0.426,0.495-0.426h2.516
				c0.276,0,0.5,0.224,0.5,0.5v3.125l0.14,0.009c0.264,0.016,0.47,0.234,0.47,0.499v1.988c0,0.276-0.224,0.5-0.5,0.5h-0.804
				c-0.276,0-0.5-0.224-0.5-0.5v-0.683h-1.869v0.7c0,0.276-0.224,0.5-0.5,0.5L34.488,125.264z M36.476,122.21v-1.055l-0.279,1.055
				H36.476z"/>
			<path fill="#FFFFFF" d="M37.959,119.119c0,1.195,0,2.388,0,3.597c0.228,0.013,0.4,0.023,0.609,0.036c0,0.656,0,1.312,0,1.988
				c-0.263,0-0.515,0-0.804,0c0-0.388,0-0.768,0-1.183c-0.962,0-1.889,0-2.869,0c0,0.38,0,0.77,0,1.2
				c-0.15,0-0.283,0.006-0.408,0.006c-0.091,0-0.179-0.004-0.265-0.014c-0.067-0.009-0.171-0.123-0.173-0.19
				c-0.014-0.594-0.008-1.188-0.008-1.818c0.057,0.013,0.107,0.019,0.152,0.019c0.296,0,0.38-0.252,0.488-0.483
				c0.398-0.857,0.624-1.758,0.694-2.699c0.011-0.148,0.042-0.295,0.066-0.458C36.273,119.119,37.087,119.119,37.959,119.119
				 M35.547,122.71c0.456,0,0.936,0,1.429,0c0-0.944,0-1.859,0-2.788c-0.108-0.009-0.199-0.021-0.292-0.024
				c-0.074-0.002-0.149-0.003-0.217-0.003c-0.068,0-0.129,0.001-0.175,0.001C36.03,120.886,35.788,121.8,35.547,122.71
				 M37.959,118.119h-2.516c-0.495,0-0.916,0.362-0.989,0.852l-0.021,0.133c-0.022,0.137-0.043,0.268-0.053,0.398
				c-0.061,0.801-0.25,1.562-0.564,2.266c-0.144,0.033-0.279,0.098-0.397,0.191c-0.238,0.189-0.376,0.479-0.376,0.782l0,0.434
				c-0.001,0.48-0.002,0.944,0.008,1.407c0.012,0.556,0.49,1.087,1.042,1.16c0.136,0.016,0.263,0.021,0.396,0.021l0.206-0.003
				l0.202-0.003c0.552,0,1-0.447,1-1v-0.2h0.869v0.183c0,0.553,0.448,1,1,1h0.804c0.552,0,1-0.447,1-1v-1.988
				c0-0.412-0.25-0.768-0.609-0.921v-2.712C38.959,118.566,38.511,118.119,37.959,118.119L37.959,118.119z"/>
		</g>
		<g>
			<path fill-rule="evenodd" clip-rule="evenodd" d="M43.317,125.458c-0.276,0-0.5-0.224-0.5-0.5v-4.571c0-0.276,0.224-0.5,0.5-0.5
				h0.917c0.111,0,0.214,0.036,0.297,0.098c0.236-0.124,0.489-0.186,0.763-0.186c0.83,0.036,1.377,0.43,1.623,1.109
				c0.242,0.665,0.228,1.37-0.042,2.036c-0.274,0.679-0.941,1.134-1.66,1.135c-0.16,0-0.316-0.021-0.468-0.063v0.942
				c0,0.276-0.224,0.5-0.5,0.5H43.317z M44.942,121.533c-0.041,0-0.138,0-0.19,0.166c-0.096,0.301,0.007,0.602,0.078,0.654
				c0.126-0.005,0.268-0.005,0.278-0.447c0.001-0.058,0.003-0.343-0.094-0.364L44.942,121.533z"/>
			<path fill="#FFFFFF" d="M45.295,120.299c0.02,0,0.039,0,0.059,0.001c0.53,0.024,0.913,0.279,1.094,0.778
				c0.204,0.562,0.187,1.13-0.036,1.679c-0.201,0.496-0.679,0.821-1.197,0.821c-0.327,0-0.669-0.129-0.968-0.427
				c0,0.343,0,0.624,0,0.906c0,0.291,0,0.582,0,0.9c-0.316,0-0.611,0-0.931,0c0-1.521,0-3.033,0-4.571c0.305,0,0.602,0,0.917,0
				c0.012,0.157,0.021,0.28,0.035,0.471C44.562,120.496,44.88,120.299,45.295,120.299 M44.889,122.848
				c0.449,0,0.705-0.329,0.72-0.93c0.012-0.495-0.154-0.791-0.486-0.864c-0.062-0.014-0.123-0.021-0.181-0.021
				c-0.312,0-0.563,0.189-0.667,0.515c-0.166,0.521,0.016,1.142,0.372,1.27c0.054,0.02,0.114,0.025,0.172,0.028
				C44.843,122.848,44.866,122.848,44.889,122.848 M45.295,119.299c-0.265,0-0.517,0.045-0.755,0.135
				c-0.097-0.03-0.199-0.047-0.305-0.047h-0.917c-0.552,0-1,0.447-1,1v4.571c0,0.552,0.448,1,1,1h0.931c0.552,0,1-0.448,1-1v-0.38
				c0.908-0.014,1.746-0.591,2.092-1.446c0.316-0.782,0.333-1.61,0.048-2.396c-0.314-0.868-1.039-1.392-1.988-1.436L45.295,119.299
				L45.295,119.299z"/>
		</g>
		<g>
			<path fill-rule="evenodd" clip-rule="evenodd" d="M39.75,124.044c-0.165,0-0.344-0.022-0.546-0.069
				c-0.228-0.052-0.389-0.254-0.389-0.487v-3.105c0-0.276,0.224-0.5,0.5-0.5h0.836c0.276,0,0.5,0.224,0.5,0.5v0.31
				c0.369-0.697,0.917-0.847,1.316-0.847c0.176,0,0.361,0.026,0.565,0.082c0.218,0.059,0.37,0.256,0.37,0.482v3.095
				c0,0.276-0.224,0.5-0.5,0.5h-0.825c-0.276,0-0.5-0.224-0.5-0.5v-0.413C40.792,123.739,40.351,124.044,39.75,124.044z"/>
			<path fill="#FFFFFF" d="M41.967,120.345c0.134,0,0.278,0.022,0.436,0.064c0,1.007,0,2.039,0,3.095c-0.269,0-0.529,0-0.825,0
				c0-0.658,0-1.295,0-1.933c-0.023-0.008-0.046-0.016-0.069-0.022c-0.258,0.387-0.516,0.772-0.774,1.161
				c-0.058,0.087-0.132,0.168-0.17,0.263c-0.171,0.425-0.458,0.57-0.814,0.57c-0.136,0-0.282-0.021-0.435-0.056
				c0-1.024,0-2.057,0-3.105c0.28,0,0.544,0,0.836,0c0,0.631,0,1.254,0,1.878c0.021,0.009,0.042,0.016,0.063,0.023
				c0.289-0.435,0.625-0.848,0.855-1.312C41.285,120.533,41.578,120.345,41.967,120.345 M41.967,119.345
				c-0.277,0-0.698,0.058-1.099,0.34c-0.182-0.187-0.436-0.303-0.717-0.303h-0.836c-0.552,0-1,0.448-1,1v3.105
				c0,0.466,0.323,0.871,0.777,0.976c0.24,0.055,0.455,0.08,0.658,0.08c0.422,0,0.799-0.121,1.105-0.348
				c0.182,0.189,0.438,0.309,0.723,0.309h0.825c0.552,0,1-0.447,1-1v-3.095c0-0.452-0.304-0.849-0.74-0.966
				C42.415,119.377,42.188,119.345,41.967,119.345L41.967,119.345z"/>
		</g>
		<g>
			<path fill-rule="evenodd" clip-rule="evenodd" d="M48.641,124.085c-1.155-0.008-1.65-0.598-1.863-1.091
				c-0.368-0.856-0.287-1.705,0.227-2.393c0.395-0.526,0.95-0.805,1.608-0.805c0.166,0,0.337,0.018,0.513,0.053
				c0.77,0.15,1.317,0.731,1.428,1.515c0.024,0.172,0.03,0.347,0.035,0.542l0.008,0.259c0.006,0.137-0.043,0.27-0.138,0.368
				c-0.053,0.056-0.117,0.098-0.187,0.123c0.002,0.013,0.004,0.025,0.006,0.038c0.102,0.918-0.113,1.207-1.002,1.343
				c-0.203,0.031-0.411,0.048-0.616,0.048C48.66,124.085,48.641,124.085,48.641,124.085z"/>
			<path fill="#FFFFFF" d="M48.613,120.297c0.134,0,0.273,0.015,0.417,0.043c0.563,0.11,0.948,0.518,1.03,1.095
				c0.033,0.229,0.025,0.463,0.039,0.754c-0.714,0-1.375,0-2.033,0c-0.041,0.476,0.187,0.7,0.742,0.7
				c0.254,0,0.577-0.047,0.975-0.139c0.072,0.649,0.039,0.698-0.581,0.793c-0.178,0.027-0.36,0.042-0.541,0.042
				c-0.005,0-0.011,0-0.017,0c-0.612-0.004-1.148-0.19-1.406-0.789c-0.278-0.648-0.269-1.31,0.168-1.895
				C47.72,120.48,48.138,120.297,48.613,120.297 M48.035,121.606c0.403,0,0.778,0,1.153,0c-0.009-0.455-0.166-0.658-0.501-0.674
				c-0.009-0.001-0.019-0.001-0.027-0.001C48.322,120.932,48.084,121.18,48.035,121.606 M48.613,119.297
				C48.613,119.297,48.613,119.297,48.613,119.297c-0.821,0-1.516,0.348-2.008,1.006c-0.625,0.836-0.727,1.861-0.287,2.888
				c0.223,0.517,0.82,1.385,2.319,1.395c0,0,0.001,0,0.001,0c0.251,0,0.484-0.019,0.715-0.054c1.065-0.162,1.488-0.627,1.443-1.627
				c0.009-0.009,0.017-0.018,0.025-0.025c0.188-0.197,0.288-0.465,0.275-0.737c-0.004-0.087-0.006-0.169-0.008-0.247
				c-0.005-0.191-0.01-0.391-0.04-0.602c-0.141-1-0.841-1.741-1.827-1.935C49.015,119.318,48.81,119.297,48.613,119.297
				L48.613,119.297z"/>
		</g>
		<g>
			<path fill-rule="evenodd" clip-rule="evenodd" d="M53.24,124.024c-0.167,0-0.326-0.003-0.485-0.014
				c-0.329-0.025-0.508-0.297-0.594-0.428l-0.001-0.001c-0.039,0.238-0.245,0.42-0.494,0.42H50.74c-0.276,0-0.5-0.224-0.5-0.5
				v-3.112c0-0.276,0.224-0.5,0.5-0.5h0.916c0.236,0,0.435,0.164,0.487,0.385c0.215-0.279,0.498-0.421,0.843-0.421
				c0.017,0,0.12,0.006,0.137,0.008c0.073,0.008,0.143,0.009,0.217,0.009l0.469-0.006c0.19,0,0.365,0.108,0.449,0.279
				s0.063,0.375-0.053,0.526l-0.307,0.402c-0.215,0.285-0.416,0.549-0.627,0.801c0.242,0.32,0.453,0.618,0.68,0.937l0.299,0.419
				c0.109,0.152,0.124,0.354,0.039,0.521s-0.257,0.271-0.445,0.271L53.24,124.024z"/>
			<path fill="#FFFFFF" d="M52.985,120.354c0.028,0,0.057,0.002,0.087,0.005c0.087,0.009,0.174,0.013,0.267,0.013
				c0.139,0,0.29-0.007,0.469-0.007c-0.36,0.467-0.653,0.875-0.979,1.255c-0.167,0.193-0.144,0.317,0,0.505
				c0.333,0.432,0.644,0.883,1.013,1.396c-0.217,0-0.415,0.004-0.603,0.004c-0.155,0-0.303-0.003-0.451-0.013
				c-0.075-0.006-0.157-0.122-0.211-0.204c-0.284-0.425-0.561-0.854-0.912-1.272c0,0.48,0,0.962,0,1.467c-0.335,0-0.62,0-0.927,0
				c0-1.041,0-2.063,0-3.112c0.286,0,0.57,0,0.916,0c0,0.471,0,0.938,0,1.404c0.027,0.004,0.054,0.008,0.081,0.012
				c0.243-0.367,0.507-0.724,0.724-1.106C52.591,120.469,52.744,120.354,52.985,120.354 M52.986,119.354
				c-0.229,0-0.507,0.045-0.778,0.202c-0.158-0.104-0.348-0.166-0.552-0.166H50.74c-0.552,0-1,0.448-1,1v3.112c0,0.553,0.448,1,1,1
				h0.927c0.201,0,0.387-0.059,0.543-0.16c0.136,0.086,0.302,0.151,0.501,0.167c0.179,0.013,0.35,0.016,0.528,0.016l0.291-0.002
				l0.312-0.002c0.375,0,0.719-0.21,0.89-0.544c0.171-0.334,0.142-0.734-0.078-1.039l-0.297-0.418
				c-0.156-0.219-0.306-0.43-0.455-0.633c0.132-0.167,0.26-0.337,0.394-0.512l0.304-0.4c0.233-0.301,0.274-0.709,0.106-1.051
				c-0.168-0.343-0.516-0.56-0.897-0.56c-0.102,0-0.196,0.002-0.284,0.004l-0.185,0.003c-0.055,0-0.108-0.002-0.16-0.007
				C53.107,119.357,53.045,119.354,52.986,119.354L52.986,119.354z"/>
		</g>
		<g>
			<path fill-rule="evenodd" clip-rule="evenodd" d="M54.842,124.006c-0.276,0-0.5-0.224-0.5-0.5v-1.897
				c-0.295-0.022-0.503-0.071-0.671-0.252c-0.226-0.243-0.213-0.543-0.192-0.996c0.012-0.267,0.232-0.478,0.5-0.478h2.625
				c0.276,0,0.5,0.224,0.5,0.5v0.721c0,0.276-0.224,0.5-0.5,0.5H56.29v1.902c0,0.276-0.224,0.5-0.5,0.5H54.842z"/>
			<path fill="#FFFFFF" d="M56.603,120.383c0,0.233,0,0.459,0,0.721c-0.257,0-0.509,0-0.812,0c0,0.815,0,1.6,0,2.402
				c-0.336,0-0.621,0-0.948,0c0-0.795,0-1.57,0-2.357c-0.105-0.016-0.171-0.032-0.238-0.034c-0.659-0.018-0.659-0.017-0.626-0.731
				C54.857,120.383,55.715,120.383,56.603,120.383 M56.603,119.383h-2.625c-0.535,0-0.975,0.421-0.999,0.955
				c-0.022,0.494-0.043,0.962,0.326,1.359c0.164,0.176,0.346,0.275,0.538,0.332v1.477c0,0.553,0.448,1,1,1h0.948
				c0.552,0,1-0.447,1-1v-1.42c0.463-0.088,0.812-0.494,0.812-0.982v-0.721C57.603,119.83,57.155,119.383,56.603,119.383
				L56.603,119.383z"/>
		</g>
	</g>
	<polygon stroke="#FFFFFF" stroke-linejoin="round" stroke-miterlimit="10" points="228.625,92.535 261.438,73.706 294.329,92.535 
		261.478,111.778 	"/>
	<polygon stroke="#FFFFFF" stroke-linejoin="round" stroke-miterlimit="10" points="228.625,92.535 228.625,129.876 
		261.478,149.119 261.478,111.778 	"/>
	<polygon stroke="#FFFFFF" stroke-linejoin="round" stroke-miterlimit="10" points="294.329,92.535 294.329,129.876 
		261.478,149.119 261.478,111.778 	"/>
	<g>
		<ellipse stroke="#FFFFFF" stroke-linejoin="round" stroke-miterlimit="10" cx="396.805" cy="201.318" rx="10.903" ry="6.318"/>
		<ellipse stroke="#FFFFFF" stroke-linejoin="round" stroke-miterlimit="10" cx="396.805" cy="199.318" rx="10.903" ry="6.318"/>
		<ellipse stroke="#FFFFFF" stroke-linejoin="round" stroke-miterlimit="10" cx="396.805" cy="197.318" rx="10.903" ry="6.318"/>
		<ellipse stroke="#FFFFFF" stroke-linejoin="round" stroke-miterlimit="10" cx="396.805" cy="195.318" rx="10.903" ry="6.318"/>
		<ellipse stroke="#FFFFFF" stroke-linejoin="round" stroke-miterlimit="10" cx="396.805" cy="193.318" rx="10.903" ry="6.318"/>
		<ellipse stroke="#FFFFFF" stroke-linejoin="round" stroke-miterlimit="10" cx="396.805" cy="191.318" rx="10.903" ry="6.318"/>
		<ellipse stroke="#FFFFFF" stroke-linejoin="round" stroke-miterlimit="10" cx="396.805" cy="189.318" rx="10.903" ry="6.318"/>
	</g>
	<g>
		<ellipse stroke="#FFFFFF" stroke-linejoin="round" stroke-miterlimit="10" cx="110.866" cy="208.318" rx="10.903" ry="6.318"/>
		<ellipse stroke="#FFFFFF" stroke-linejoin="round" stroke-miterlimit="10" cx="110.866" cy="206.318" rx="10.903" ry="6.318"/>
		<ellipse stroke="#FFFFFF" stroke-linejoin="round" stroke-miterlimit="10" cx="110.866" cy="204.318" rx="10.903" ry="6.318"/>
		<ellipse stroke="#FFFFFF" stroke-linejoin="round" stroke-miterlimit="10" cx="110.866" cy="202.318" rx="10.903" ry="6.318"/>
		<ellipse stroke="#FFFFFF" stroke-linejoin="round" stroke-miterlimit="10" cx="110.866" cy="200.318" rx="10.903" ry="6.318"/>
		<ellipse stroke="#FFFFFF" stroke-linejoin="round" stroke-miterlimit="10" cx="110.866" cy="198.318" rx="10.903" ry="6.318"/>
		<ellipse stroke="#FFFFFF" stroke-linejoin="round" stroke-miterlimit="10" cx="110.866" cy="196.318" rx="10.903" ry="6.318"/>
	</g>
	<g>
		<ellipse stroke="#FFFFFF" stroke-linejoin="round" stroke-miterlimit="10" cx="413.157" cy="208.637" rx="10.903" ry="6.318"/>
		<ellipse stroke="#FFFFFF" stroke-linejoin="round" stroke-miterlimit="10" cx="413.157" cy="206.637" rx="10.903" ry="6.318"/>
		<ellipse stroke="#FFFFFF" stroke-linejoin="round" stroke-miterlimit="10" cx="413.157" cy="204.637" rx="10.903" ry="6.318"/>
		<ellipse stroke="#FFFFFF" stroke-linejoin="round" stroke-miterlimit="10" cx="413.157" cy="202.637" rx="10.903" ry="6.318"/>
		<ellipse stroke="#FFFFFF" stroke-linejoin="round" stroke-miterlimit="10" cx="413.157" cy="200.637" rx="10.903" ry="6.318"/>
		<ellipse stroke="#FFFFFF" stroke-linejoin="round" stroke-miterlimit="10" cx="413.157" cy="198.637" rx="10.903" ry="6.318"/>
		<ellipse stroke="#FFFFFF" stroke-linejoin="round" stroke-miterlimit="10" cx="413.157" cy="196.637" rx="10.903" ry="6.318"/>
		<ellipse stroke="#FFFFFF" stroke-linejoin="round" stroke-miterlimit="10" cx="413.157" cy="194.682" rx="10.903" ry="6.318"/>
		<ellipse stroke="#FFFFFF" stroke-linejoin="round" stroke-miterlimit="10" cx="413.157" cy="192.682" rx="10.903" ry="6.318"/>
		<ellipse stroke="#FFFFFF" stroke-linejoin="round" stroke-miterlimit="10" cx="413.157" cy="190.682" rx="10.903" ry="6.318"/>
		<ellipse stroke="#FFFFFF" stroke-linejoin="round" stroke-miterlimit="10" cx="413.157" cy="188.682" rx="10.903" ry="6.318"/>
		<ellipse stroke="#FFFFFF" stroke-linejoin="round" stroke-miterlimit="10" cx="413.157" cy="186.682" rx="10.903" ry="6.318"/>
		<ellipse stroke="#FFFFFF" stroke-linejoin="round" stroke-miterlimit="10" cx="413.157" cy="184.682" rx="10.903" ry="6.318"/>
		<ellipse stroke="#FFFFFF" stroke-linejoin="round" stroke-miterlimit="10" cx="413.157" cy="182.682" rx="10.903" ry="6.318"/>
	</g>
	<path stroke="#FFFFFF" stroke-linejoin="round" stroke-miterlimit="10" d="M389.854,31.882c0-0.356,0-0.715,0-1.072
		c0.013-0.077,0.033-0.153,0.037-0.229c0.069-1.397,0.285-2.771,0.654-4.119c0.898-3.271,2.483-6.135,5.072-8.379
		c1.837-1.592,3.95-2.6,6.39-2.859c2.531-0.269,4.868,0.313,7.023,1.641c2.275,1.399,3.952,3.357,5.2,5.694
		c1.515,2.837,2.196,5.883,2.229,9.085c0.002,0.276-0.104,0.496-0.319,0.643c-0.27,0.185-0.548,0.369-0.846,0.498
		c-1.162,0.504-2.397,0.742-3.639,0.941c-2.155,0.348-4.327,0.514-6.509,0.569c-0.121,0.003-0.24,0.022-0.36,0.034
		c-1.087,0-2.174,0-3.261,0c-0.099-0.012-0.197-0.029-0.295-0.033c-2.451-0.064-4.891-0.254-7.305-0.698
		c-0.997-0.184-1.985-0.408-2.92-0.813C390.547,32.583,390.099,32.359,389.854,31.882z"/>
	<path fill-rule="evenodd" clip-rule="evenodd" stroke="#FFFFFF" stroke-linejoin="round" stroke-miterlimit="10" d="M403.585,0
		c0.525,0.097,1.061,0.155,1.573,0.297c1.486,0.408,2.702,1.242,3.666,2.441c0.695,0.866,1.17,1.846,1.402,2.932
		c0.388,1.812,0.142,3.54-0.771,5.156c-0.788,1.396-1.93,2.417-3.394,3.064c-1.049,0.463-2.152,0.656-3.301,0.591
		c-1.507-0.086-2.859-0.585-4.048-1.513c-1.319-1.03-2.179-2.363-2.589-3.985c-0.702-2.772,0.364-5.781,2.65-7.501
		c1.132-0.85,2.397-1.34,3.81-1.451c0.049-0.004,0.096-0.02,0.145-0.031C403.014,0,403.3,0,403.585,0z"/>
	<g>
		
			<path fill-rule="evenodd" clip-rule="evenodd" stroke="#FFFFFF" stroke-width="2" stroke-linejoin="round" stroke-miterlimit="10" d="
			M144.975,28.47c-0.943-0.351-1.839-0.681-2.733-1.015c-0.826-0.309-1.652-0.618-2.476-0.935c-0.552-0.212-1.088-0.2-1.643,0.015
			c-3.141,1.22-6.324,1.387-9.543,0.331c-5.458-1.789-9.547-6.995-8.965-13.249c0.443-4.76,2.959-8.23,7.195-10.368
			c5.483-2.768,12.096-1.49,16.166,3.003c3.867,4.27,4.337,10.576,1.135,15.384c-0.358,0.538-0.46,1.073-0.303,1.706
			c0.391,1.576,0.742,3.162,1.107,4.744C144.939,28.193,144.949,28.306,144.975,28.47z"/>
		
			<path fill-rule="evenodd" clip-rule="evenodd" stroke="#FFFFFF" stroke-width="2" stroke-linejoin="round" stroke-miterlimit="10" d="
			M117.992,13.928c-0.792,4.782,0.499,8.836,4.078,12.021c3.534,3.146,7.712,4.022,12.368,3.032
			c-0.688,0.824-1.442,1.492-2.294,2.038c-3.375,2.163-6.955,2.54-10.709,1.154c-0.683-0.252-1.302-0.232-1.965,0.045
			c-1.226,0.514-2.47,0.983-3.707,1.471c-0.067,0.026-0.138,0.042-0.246,0.075c0.265-1.391,0.483-2.754,0.797-4.096
			c0.172-0.736,0.034-1.324-0.364-1.949c-2.808-4.406-2.003-10.176,1.882-13.668C117.867,14.018,117.908,13.991,117.992,13.928z"/>
	</g>
	<g>
		<path stroke="#FFFFFF" stroke-linejoin="round" stroke-miterlimit="10" d="M88.428,15.885c0-0.135,0-0.27,0-0.403
			c0.045-0.193,0.106-0.383,0.132-0.579c0.079-0.596,0.111-1.201,0.221-1.792c0.951-5.149,5.494-9.438,10.668-10.091
			c0.561-0.07,1.119-0.158,1.678-0.237c0.134,0,0.269,0,0.403,0c0.226,0.047,0.451,0.105,0.679,0.138
			c0.646,0.094,1.303,0.128,1.938,0.268c5.943,1.316,10.374,6.856,9.954,13.273c-0.201,3.074-1.313,5.753-3.424,7.966
			c-3.056,3.202-6.825,4.484-11.223,3.92c-5.43-0.698-10.118-5.358-10.785-10.733C88.598,17.036,88.509,16.461,88.428,15.885z"/>
		<path fill="#FFFFFF" stroke="#000000" stroke-linejoin="round" stroke-miterlimit="10" d="M105.149,22.592
			c0.557,0.053,1.2-0.105,1.731-0.572c0.378-0.331,0.729-0.695,1.069-1.065c0.396-0.43,0.433-1.026,0.027-1.461
			c-0.732-0.784-1.491-1.547-2.278-2.274c-0.465-0.431-1.014-0.366-1.484,0.085c-0.363,0.349-0.724,0.701-1.066,1.068
			c-0.248,0.266-0.475,0.314-0.783,0.09c-1.476-1.077-2.755-2.347-3.823-3.831c-0.208-0.291-0.175-0.506,0.075-0.743
			c0.377-0.357,0.744-0.728,1.104-1.104c0.448-0.469,0.501-1.011,0.062-1.484c-0.73-0.785-1.492-1.544-2.278-2.274
			c-0.429-0.399-1.028-0.348-1.46,0.049c-0.321,0.295-0.624,0.609-0.93,0.922c-0.455,0.464-0.661,1.023-0.695,1.674
			c-0.056,1.07,0.204,2.065,0.665,3.011c1.501,3.086,3.789,5.421,6.811,7.034C102.864,22.231,103.884,22.604,105.149,22.592z"/>
	</g>
	<polygon stroke="#FFFFFF" stroke-linejoin="round" stroke-miterlimit="10" points="133.667,202.843 133.667,192 128.667,192 
		128.667,202.843 124.934,202.843 131.167,213.637 137.4,202.843 	"/>
	<polygon fill-rule="evenodd" clip-rule="evenodd" fill="#FFFFFF" points="475.856,94.238 511.25,94.238 511.833,127.264 
		475.25,127.18 	"/>
	<g>
		<g>
			<g>
				<path fill-rule="evenodd" clip-rule="evenodd" d="M493.489,95.294c5.832,0,11.663-0.003,17.494,0.001
					c2.545,0.002,3.932,1.389,3.933,3.934c0.003,7.701,0.003,15.401,0,23.102c-0.001,2.544-1.39,3.931-3.936,3.932
					c-11.718,0.002-23.437,0.002-35.155,0c-2.545-0.001-3.932-1.389-3.933-3.934c-0.003-7.701-0.003-15.401,0-23.102
					c0.001-2.545,1.39-3.93,3.936-3.932C481.715,95.291,487.602,95.294,493.489,95.294z M493.454,96.646c-1.088,0-2.176,0-3.265,0
					c-4.743,0-9.485,0-14.229,0.001c-0.858,0-1.741,0.06-2.231,0.862c-0.27,0.441-0.292,1.034-0.426,1.559
					c0.412,0.089,0.824,0.256,1.236,0.256c11.383,0.015,22.766,0.01,34.148,0.017c0.591,0,1.439-0.147,1.423,0.718
					c-0.016,0.841-0.865,0.603-1.405,0.604c-8.062,0.014-16.125,0.008-24.188,0.01c-1.215,0-1.22,0.004-1.22,1.204
					c-0.001,7.282-0.001,14.563,0,21.845c0,1.184,0.005,1.188,1.235,1.188c8.732,0.001,17.465,0.001,26.198-0.001
					c0.278,0,0.56,0.002,0.835-0.035c1.19-0.161,1.839-0.824,1.976-2.023c0.038-0.332,0.028-0.669,0.028-1.004
					c0.001-6.444,0.003-12.889-0.004-19.334c0-0.551,0.064-1.165-0.157-1.628c-0.108-0.227-0.824-0.117-1.224-0.269
					c-0.236-0.09-0.542-0.395-0.541-0.601c0.001-0.211,0.313-0.459,0.541-0.614c0.14-0.096,0.38-0.072,0.572-0.06
					c0.787,0.055,0.881-0.353,0.725-0.998c-0.281-1.159-1.065-1.692-2.618-1.693C505.06,96.645,499.257,96.647,493.454,96.646z
					 M481.961,112.843c0-3.737-0.015-7.476,0.013-11.214c0.005-0.727-0.229-0.98-0.962-0.97c-2.287,0.034-4.575,0.03-6.862,0.001
					c-0.682-0.008-0.926,0.215-0.924,0.914c0.02,6.918,0.006,13.835,0.017,20.753c0.003,1.774,0.793,2.558,2.561,2.577
					c1.646,0.019,3.292,0.006,4.938,0.005c1.216-0.001,1.219-0.003,1.22-1.188C481.962,120.096,481.961,116.469,481.961,112.843z"/>
			</g>
			<g>
				<path fill-rule="evenodd" clip-rule="evenodd" d="M509.336,111.729c-0.526,0.93-1.023,1.877-1.593,2.779
					c-0.218,0.346-0.598,0.812-0.909,0.816c-0.299,0.003-0.676-0.475-0.894-0.82c-0.559-0.887-1.048-1.816-1.764-2.693
					c0,1.236,0.002,2.472-0.001,3.707c-0.001,0.418,0.071,0.865-0.054,1.245c-0.09,0.273-0.45,0.459-0.69,0.684
					c-0.192-0.237-0.549-0.473-0.553-0.713c-0.04-2.622-0.037-5.244-0.001-7.866c0.003-0.225,0.322-0.628,0.495-0.629
					c0.27,0,0.651,0.206,0.793,0.441c0.735,1.217,1.407,2.472,2.106,3.711c0.147,0.26,0.317,0.508,0.558,0.89
					c0.291-0.448,0.528-0.775,0.726-1.126c0.645-1.141,1.25-2.307,1.931-3.426c0.154-0.252,0.596-0.533,0.828-0.477
					c0.237,0.057,0.533,0.508,0.538,0.791c0.042,2.511,0.047,5.021-0.008,7.531c-0.006,0.297-0.439,0.584-0.675,0.876
					c-0.207-0.312-0.574-0.616-0.591-0.938c-0.069-1.307-0.028-2.621-0.033-3.932c-0.001-0.266-0.024-0.531-0.038-0.798
					C509.45,111.764,509.393,111.746,509.336,111.729z"/>
			</g>
			<g>
				<path fill-rule="evenodd" clip-rule="evenodd" d="M499.521,114.597c0.537,0.547,1.042,1.054,1.537,1.569
					c0.305,0.316,0.576,0.67,0.173,1.084c-0.403,0.414-0.767,0.164-1.083-0.146c-0.737-0.723-1.473-1.447-2.19-2.189
					c-0.737-0.762-0.6-1.21,0.438-1.505c1.455-0.414,2.102-1.683,1.463-2.868c-0.495-0.918-2.52-1.578-3.419-1.057
					c-0.19,0.109-0.294,0.509-0.297,0.777c-0.025,1.924-0.004,3.85-0.021,5.773c-0.005,0.562,0.122,1.372-0.685,1.374
					c-0.863,0.001-0.63-0.835-0.636-1.376c-0.021-2.26-0.014-4.52-0.005-6.779c0.003-0.978,0.198-1.184,1.179-1.188
					c0.835-0.005,1.677-0.004,2.504,0.091c1.473,0.17,2.5,1.092,2.853,2.454c0.344,1.333-0.142,2.656-1.3,3.544
					C499.882,114.27,499.747,114.4,499.521,114.597z"/>
			</g>
			<g>
				<path fill-rule="evenodd" clip-rule="evenodd" d="M490.232,108.15c0.931-0.034,1.854,0.312,2.675,0.947
					c0.381,0.295,0.83,0.641,0.463,1.167c-0.383,0.55-0.829,0.189-1.228-0.079c-1.915-1.291-4.188-0.769-5.113,1.172
					c-0.629,1.319-0.316,2.943,0.755,3.912c1.092,0.986,2.699,1.146,3.962,0.391c0.215-0.128,0.399-0.356,0.626-0.404
					c0.312-0.066,0.652-0.005,0.979,0.002c-0.068,0.344-0.019,0.805-0.225,1.011c-0.846,0.844-1.935,1.214-3.118,1.207
					c-2.584-0.015-4.698-2.185-4.654-4.732C485.401,110.132,487.479,108.125,490.232,108.15z"/>
			</g>
			<g>
				<path fill-rule="evenodd" clip-rule="evenodd" d="M477.634,106.033c-0.695,0-1.4,0.066-2.083-0.029
					c-0.325-0.046-0.607-0.4-0.908-0.615c0.304-0.227,0.6-0.631,0.915-0.647c1.387-0.069,2.783-0.068,4.17,0.007
					c0.295,0.016,0.568,0.451,0.851,0.692c-0.286,0.197-0.555,0.526-0.861,0.565C479.033,106.092,478.33,106.033,477.634,106.033z"
					/>
			</g>
			<g>
				<path fill-rule="evenodd" clip-rule="evenodd" d="M477.568,103.346c-0.724-0.002-1.453,0.055-2.167-0.029
					c-0.272-0.033-0.507-0.386-0.759-0.593c0.242-0.227,0.478-0.64,0.729-0.649c1.5-0.061,3.004-0.059,4.503,0.004
					c0.244,0.01,0.47,0.43,0.704,0.66c-0.252,0.203-0.489,0.551-0.76,0.58C479.077,103.398,478.32,103.346,477.568,103.346z"/>
			</g>
			<g>
				<path fill-rule="evenodd" clip-rule="evenodd" d="M477.618,108.713c-0.723-0.001-1.452,0.053-2.166-0.027
					c-0.286-0.031-0.539-0.354-0.808-0.545c0.257-0.241,0.504-0.678,0.771-0.691c1.469-0.07,2.945-0.072,4.415-0.006
					c0.258,0.012,0.498,0.455,0.746,0.699c-0.264,0.19-0.512,0.514-0.793,0.545C479.069,108.766,478.34,108.714,477.618,108.713z"/>
			</g>
			<g>
				<path fill-rule="evenodd" clip-rule="evenodd" d="M476.62,112.85c0.416-0.001,0.849-0.07,1.242,0.023
					c0.263,0.062,0.471,0.357,0.704,0.549c-0.196,0.232-0.377,0.649-0.59,0.666c-0.907,0.069-1.827,0.064-2.732-0.016
					c-0.217-0.02-0.399-0.434-0.598-0.665c0.242-0.186,0.461-0.472,0.732-0.534C475.772,112.781,476.204,112.85,476.62,112.85z"/>
			</g>
			<g>
				<path fill-rule="evenodd" clip-rule="evenodd" d="M476.594,111.387c-0.417,0-0.851,0.071-1.244-0.025
					c-0.265-0.064-0.473-0.365-0.706-0.561c0.218-0.209,0.423-0.579,0.657-0.598c0.883-0.07,1.778-0.064,2.662,0
					c0.212,0.015,0.401,0.359,0.601,0.553c-0.212,0.211-0.395,0.543-0.644,0.603C477.5,111.459,477.038,111.387,476.594,111.387z"/>
			</g>
		</g>
		<g>
			<circle fill-rule="evenodd" clip-rule="evenodd" cx="479.693" cy="97.904" r="0.607"/>
		</g>
		<g>
			<circle fill-rule="evenodd" clip-rule="evenodd" cx="475.25" cy="115.846" r="0.607"/>
		</g>
		<g>
			<circle fill-rule="evenodd" clip-rule="evenodd" cx="475.25" cy="97.904" r="0.607"/>
		</g>
		<g>
			<circle fill-rule="evenodd" clip-rule="evenodd" cx="477.426" cy="97.904" r="0.607"/>
		</g>
	</g>
</g>
<g id="Layer_2">
</g>
<g id="Layer_3">
</g>
<g id="Layer_4">
</g>
<g id="Layer_5">
</g>
</svg>
