<?xml version="1.0" encoding="utf-8"?>
<!-- Generator: Adobe Illustrator 16.0.3, SVG Export Plug-In . SVG Version: 6.00 Build 0)  -->
<!DOCTYPE svg PUBLIC "-//W3C//DTD SVG 1.1//EN" "http://www.w3.org/Graphics/SVG/1.1/DTD/svg11.dtd">
<svg version="1.1" xmlns="http://www.w3.org/2000/svg" xmlns:xlink="http://www.w3.org/1999/xlink" x="0px" y="0px" width="640px"
	 height="340px" viewBox="0 0 640 340" enable-background="new 0 0 640 340" xml:space="preserve">
<g id="Layer_1">
	<g>
		<rect x="315.588" y="-185.846" transform="matrix(0.469 0.8832 -0.8832 0.469 319.8362 -187.7948)" width="1" height="715.848"/>
		<g>
			<polygon points="629.063,2.521 640,0 631.789,7.651 			"/>
		</g>
	</g>
	<rect x="318.5" fill="#FFFFFF" width="3" height="340"/>
	<rect x="319.5" width="1" height="340"/>
	<g>
		<path d="M273.484,11.683c0.52,0,0.946,0.048,1.279,0.145c0.333,0.097,0.598,0.229,0.795,0.399c0.196,0.17,0.332,0.37,0.405,0.6
			c0.073,0.23,0.11,0.476,0.11,0.735c0,0.3-0.067,0.578-0.2,0.834c-0.133,0.257-0.376,0.469-0.729,0.635
			c0.227,0.101,0.413,0.214,0.56,0.34c0.147,0.127,0.263,0.262,0.35,0.405c0.086,0.143,0.146,0.293,0.18,0.449
			c0.034,0.157,0.05,0.315,0.05,0.475c0,0.294-0.045,0.57-0.135,0.83c-0.09,0.26-0.238,0.484-0.445,0.675
			c-0.207,0.189-0.476,0.34-0.809,0.449c-0.333,0.11-0.743,0.165-1.229,0.165h-2.648v-7.136H273.484z M274.613,14.351
			c0.187-0.173,0.28-0.423,0.28-0.749c0-0.34-0.108-0.585-0.325-0.735c-0.216-0.149-0.591-0.225-1.124-0.225h-1.26v1.969h1.439
			C274.097,14.61,274.427,14.524,274.613,14.351z M274.339,17.769c0.189-0.053,0.339-0.13,0.45-0.229
			c0.11-0.1,0.188-0.22,0.235-0.359c0.046-0.141,0.07-0.297,0.07-0.47c0-0.36-0.102-0.635-0.305-0.825
			c-0.204-0.189-0.555-0.284-1.055-0.284h-1.549v2.248h1.439C273.911,17.849,274.149,17.822,274.339,17.769z"/>
		<path d="M280.503,16.02c-0.286,0.061-0.583,0.09-0.889,0.09c-0.347,0-0.67-0.038-0.97-0.114c-0.3-0.077-0.56-0.202-0.779-0.375
			c-0.22-0.173-0.393-0.399-0.52-0.68c-0.126-0.28-0.19-0.626-0.19-1.039v-2.219h1.2v1.879c0,0.272,0.025,0.51,0.075,0.709
			c0.05,0.2,0.133,0.365,0.25,0.495s0.273,0.225,0.47,0.285c0.196,0.06,0.441,0.09,0.734,0.09c0.233,0,0.479-0.025,0.735-0.075
			s0.475-0.115,0.655-0.195v-3.188h1.199v7.136h-1.199V15.79C281.047,15.883,280.79,15.96,280.503,16.02z"/>
		<path d="M288.743,11.683v1.039h-3.538v1.899h3.338v1.049h-3.338v2.109h3.728l-0.14,1.039h-4.797v-7.136H288.743z"/>
		<path d="M292.454,11.683c0.54,0,0.985,0.06,1.334,0.18s0.625,0.279,0.825,0.479c0.2,0.2,0.34,0.432,0.419,0.694
			c0.08,0.264,0.12,0.538,0.12,0.825c0,0.307-0.04,0.6-0.12,0.879c-0.08,0.28-0.221,0.525-0.425,0.735
			c-0.203,0.21-0.478,0.376-0.824,0.499c-0.347,0.124-0.783,0.186-1.31,0.186h-1.299v2.658h-1.189v-7.136H292.454z M293.198,15.061
			c0.197-0.061,0.352-0.146,0.465-0.255c0.113-0.11,0.191-0.241,0.235-0.395s0.065-0.327,0.065-0.521
			c0-0.199-0.023-0.374-0.07-0.524c-0.047-0.149-0.128-0.274-0.245-0.375c-0.116-0.1-0.273-0.176-0.47-0.229
			c-0.196-0.054-0.444-0.08-0.745-0.08h-1.259v2.469h1.27C292.75,15.15,293.002,15.12,293.198,15.061z"/>
		<path d="M298.654,11.683l2.718,7.136h-1.289l-0.669-1.819h-2.769l-0.66,1.819h-1.25l2.719-7.136H298.654z M298.024,13.052
			l-1.049,2.938h2.109L298.024,13.052z"/>
	</g>
	<g>
		<path d="M96.403,167.913v-1.049h5.717v1.049h-2.249V174h-1.209v-6.087H96.403z"/>
		<path d="M105.542,166.864c0.54,0,0.985,0.06,1.334,0.18s0.625,0.279,0.825,0.479c0.2,0.2,0.34,0.432,0.419,0.694
			c0.08,0.264,0.12,0.538,0.12,0.825c0,0.307-0.04,0.6-0.12,0.879c-0.08,0.28-0.221,0.525-0.425,0.735
			c-0.203,0.21-0.478,0.376-0.824,0.499c-0.347,0.124-0.783,0.186-1.31,0.186h-1.299V174h-1.189v-7.136H105.542z M106.286,170.242
			c0.197-0.061,0.352-0.146,0.465-0.255c0.113-0.11,0.191-0.241,0.235-0.395s0.065-0.327,0.065-0.521
			c0-0.199-0.023-0.374-0.07-0.524c-0.047-0.149-0.128-0.274-0.245-0.375c-0.116-0.1-0.273-0.176-0.47-0.229
			c-0.196-0.054-0.444-0.08-0.745-0.08h-1.259v2.469h1.27C105.838,170.332,106.09,170.302,106.286,170.242z"/>
		<path d="M111.741,166.864l2.718,7.136h-1.289l-0.669-1.819h-2.769l-0.66,1.819h-1.25l2.719-7.136H111.741z M111.111,168.233
			l-1.049,2.938h2.109L111.111,168.233z"/>
		<path d="M116.317,172.071c0.15-0.347,0.278-0.722,0.385-1.125c0.107-0.402,0.197-0.821,0.27-1.254s0.13-0.856,0.17-1.27
			l0.15-1.559h4.147v6.086h0.76v2.779h-1.069V174h-4.967v1.729h-1.069v-2.779h0.709
			C115.996,172.711,116.167,172.418,116.317,172.071z M118.097,170.007c-0.057,0.384-0.13,0.752-0.22,1.104
			c-0.09,0.354-0.195,0.688-0.314,1.005c-0.12,0.316-0.263,0.595-0.43,0.834h3.108v-5.066h-1.899l-0.1,0.989
			C118.202,169.246,118.153,169.624,118.097,170.007z"/>
		<path d="M127.48,168.812L124.282,174h-1.119v-7.136h1.179v5.217l3.188-5.217h1.12V174h-1.169V168.812z"/>
		<path d="M130.173,166.864h1.209v6.086h2.938v-6.086h1.209v6.086h0.759v2.779h-1.069V174h-5.047V166.864z"/>
		<path d="M141.58,168.812L138.382,174h-1.119v-7.136h1.179v5.217l3.188-5.217h1.12V174h-1.169V168.812z"/>
		<path d="M145.996,173.925c-0.41-0.17-0.761-0.414-1.054-0.734c-0.293-0.319-0.518-0.711-0.675-1.175
			c-0.156-0.463-0.235-0.987-0.235-1.573c0-0.587,0.08-1.113,0.24-1.579c0.16-0.467,0.386-0.861,0.68-1.185
			c0.293-0.323,0.646-0.57,1.059-0.74s0.87-0.255,1.369-0.255c0.506,0,0.966,0.085,1.379,0.255s0.763,0.415,1.049,0.735
			c0.287,0.319,0.508,0.711,0.665,1.174c0.157,0.463,0.235,0.988,0.235,1.574c0,0.593-0.077,1.121-0.23,1.584
			s-0.373,0.856-0.66,1.18s-0.635,0.569-1.044,0.739s-0.875,0.255-1.395,0.255C146.868,174.18,146.406,174.095,145.996,173.925z
			 M148.93,172.416c0.353-0.483,0.53-1.145,0.53-1.984c0-0.42-0.045-0.796-0.135-1.129c-0.09-0.333-0.222-0.616-0.395-0.85
			s-0.39-0.413-0.649-0.54c-0.26-0.126-0.563-0.189-0.91-0.189s-0.65,0.063-0.91,0.189c-0.26,0.127-0.478,0.307-0.654,0.54
			c-0.177,0.233-0.309,0.517-0.395,0.85s-0.13,0.709-0.13,1.129c0,0.84,0.175,1.501,0.525,1.984c0.35,0.483,0.871,0.725,1.564,0.725
			C148.057,173.141,148.577,172.899,148.93,172.416z"/>
		<path d="M153.202,166.864v2.888h3.208v-2.888h1.209V174h-1.209v-3.128h-3.208V174h-1.209v-7.136H153.202z"/>
		<path d="M160.352,166.864v2.888h3.208v-2.888h1.209V174h-1.209v-3.128h-3.208V174h-1.209v-7.136H160.352z"/>
		<path d="M170.035,169.612c0.35,0.127,0.628,0.295,0.834,0.505s0.354,0.451,0.44,0.725s0.13,0.56,0.13,0.859
			c0,0.313-0.043,0.609-0.13,0.89s-0.236,0.524-0.45,0.734s-0.498,0.375-0.854,0.495s-0.805,0.18-1.344,0.18h-2.369v-7.136h1.199
			v2.559h1.229C169.248,169.423,169.686,169.485,170.035,169.612z M168.681,173.001c0.586,0,0.993-0.107,1.219-0.32
			s0.34-0.526,0.34-0.939c0-0.206-0.025-0.392-0.075-0.555c-0.05-0.163-0.136-0.3-0.26-0.41c-0.123-0.109-0.287-0.194-0.49-0.255
			c-0.203-0.06-0.455-0.09-0.754-0.09h-1.169v2.569H168.681z M173.718,166.864V174h-1.199v-7.136H173.718z"/>
		<path d="M179.56,168.812L176.361,174h-1.119v-7.136h1.179v5.217l3.188-5.217h1.12V174h-1.169V168.812z M177.386,165.37
			c0.144,0.123,0.335,0.185,0.575,0.185s0.432-0.062,0.575-0.185c0.143-0.124,0.222-0.312,0.235-0.565h0.839
			c0,0.467-0.145,0.83-0.435,1.09s-0.694,0.39-1.214,0.39c-0.54,0-0.946-0.13-1.219-0.39c-0.273-0.26-0.41-0.623-0.41-1.09h0.819
			C177.164,165.059,177.243,165.246,177.386,165.37z"/>
		<path d="M188.849,166.864v1.049h-3.158v1.609h1.35c0.52,0,0.949,0.062,1.289,0.185c0.34,0.124,0.611,0.288,0.814,0.495
			c0.204,0.206,0.345,0.446,0.425,0.72s0.12,0.56,0.12,0.859s-0.042,0.583-0.125,0.85s-0.227,0.501-0.43,0.704
			c-0.203,0.204-0.48,0.365-0.83,0.485S187.51,174,186.97,174h-2.488v-7.136H188.849z M185.691,173.001h1.299
			c0.293,0,0.537-0.027,0.729-0.08c0.193-0.054,0.347-0.13,0.46-0.23c0.113-0.1,0.193-0.225,0.24-0.374
			c0.047-0.15,0.07-0.322,0.07-0.516c0-0.187-0.023-0.357-0.07-0.515c-0.046-0.156-0.128-0.291-0.245-0.404s-0.275-0.2-0.475-0.26
			c-0.2-0.061-0.453-0.09-0.76-0.09h-1.25V173.001z"/>
		<path d="M195.12,168.812L191.921,174h-1.119v-7.136h1.179v5.217l3.188-5.217h1.12V174h-1.169V168.812z"/>
		<path d="M199.006,172.905c0.25,0.197,0.648,0.295,1.194,0.295c1.026,0,1.539-0.406,1.539-1.219c0-0.786-0.533-1.18-1.599-1.18
			h-0.85v-0.979h0.91c0.439,0,0.784-0.097,1.034-0.29s0.375-0.473,0.375-0.839c0-0.334-0.113-0.589-0.34-0.765
			c-0.227-0.177-0.577-0.266-1.049-0.266c-0.493,0-0.858,0.092-1.095,0.275c-0.236,0.183-0.401,0.458-0.495,0.824l-1.099-0.149
			c0.106-0.6,0.379-1.071,0.819-1.414c0.44-0.344,1.066-0.516,1.879-0.516c0.44,0,0.818,0.047,1.134,0.141
			c0.316,0.093,0.578,0.223,0.785,0.39c0.207,0.166,0.36,0.364,0.46,0.595c0.1,0.229,0.15,0.481,0.15,0.754
			c0,0.354-0.08,0.675-0.24,0.965c-0.16,0.29-0.41,0.521-0.75,0.694c0.4,0.153,0.691,0.385,0.875,0.695
			c0.184,0.31,0.275,0.654,0.275,1.034c0,0.333-0.057,0.637-0.17,0.909c-0.113,0.273-0.285,0.507-0.515,0.7
			s-0.517,0.345-0.859,0.454c-0.343,0.11-0.745,0.165-1.205,0.165c-0.493,0-0.915-0.057-1.264-0.17s-0.635-0.27-0.854-0.47
			c-0.22-0.199-0.381-0.437-0.485-0.709c-0.103-0.273-0.158-0.57-0.165-0.89h1.149C198.604,172.388,198.756,172.709,199.006,172.905
			z"/>
		<path d="M205.341,166.864v2.888h3.208v-2.888h1.209V174h-1.209v-3.128h-3.208V174h-1.209v-7.136H205.341z"/>
		<path d="M216.029,166.864v1.039h-3.538v1.899h3.338v1.049h-3.338v2.109h3.728l-0.14,1.039h-4.797v-7.136H216.029z"/>
		<path d="M222.979,172.621c-0.14,0.312-0.333,0.586-0.58,0.819s-0.546,0.415-0.899,0.545s-0.763,0.194-1.229,0.194
			c-0.513,0-0.971-0.086-1.374-0.26c-0.403-0.173-0.743-0.421-1.02-0.744s-0.486-0.717-0.63-1.18
			c-0.143-0.463-0.215-0.981-0.215-1.554c0-0.587,0.079-1.113,0.235-1.579c0.157-0.467,0.378-0.861,0.665-1.185
			c0.286-0.323,0.629-0.57,1.029-0.74s0.839-0.255,1.319-0.255c0.446,0,0.833,0.057,1.159,0.17s0.604,0.275,0.834,0.485
			s0.413,0.461,0.55,0.754c0.137,0.294,0.238,0.62,0.305,0.979l-1.189,0.17c-0.054-0.239-0.12-0.453-0.2-0.64
			s-0.185-0.345-0.315-0.475c-0.13-0.13-0.288-0.229-0.475-0.3c-0.187-0.069-0.41-0.104-0.669-0.104c-0.32,0-0.603,0.063-0.85,0.189
			c-0.247,0.127-0.455,0.309-0.625,0.545s-0.298,0.521-0.385,0.854c-0.087,0.333-0.13,0.706-0.13,1.119
			c0,0.42,0.045,0.797,0.135,1.13s0.221,0.618,0.395,0.854s0.381,0.416,0.625,0.539c0.243,0.124,0.521,0.186,0.834,0.186
			c0.28,0,0.518-0.037,0.714-0.11c0.197-0.073,0.362-0.177,0.495-0.31c0.133-0.133,0.238-0.295,0.315-0.484
			c0.077-0.19,0.132-0.405,0.165-0.645h1.279C223.208,171.965,223.119,172.308,222.979,172.621z"/>
		<path d="M100.288,185.171c0.14,0.033,0.283,0.05,0.43,0.05c0.273,0,0.511-0.068,0.715-0.205c0.203-0.137,0.378-0.371,0.524-0.705
			l0.16-0.35l-2.599-5.097h1.339l1.839,3.928l1.539-3.928h1.239l-2.358,5.457c-0.14,0.319-0.283,0.595-0.43,0.824
			c-0.146,0.229-0.314,0.422-0.504,0.574c-0.19,0.153-0.403,0.269-0.64,0.346c-0.237,0.076-0.515,0.114-0.834,0.114
			c-0.207,0-0.398-0.02-0.575-0.06c-0.177-0.04-0.312-0.083-0.405-0.13l0.24-0.92C100.041,185.104,100.147,185.137,100.288,185.171z
			"/>
		<path d="M111.614,184.621c-0.14,0.312-0.333,0.586-0.58,0.819s-0.546,0.415-0.899,0.545s-0.763,0.194-1.229,0.194
			c-0.513,0-0.971-0.086-1.374-0.26c-0.403-0.173-0.743-0.421-1.02-0.744s-0.486-0.717-0.63-1.18
			c-0.143-0.463-0.215-0.981-0.215-1.554c0-0.587,0.079-1.113,0.235-1.579c0.157-0.467,0.378-0.861,0.665-1.185
			c0.286-0.323,0.629-0.57,1.029-0.74s0.839-0.255,1.319-0.255c0.446,0,0.833,0.057,1.159,0.17s0.604,0.275,0.834,0.485
			s0.413,0.461,0.55,0.754c0.137,0.294,0.238,0.62,0.305,0.979l-1.189,0.17c-0.054-0.239-0.12-0.453-0.2-0.64
			s-0.185-0.345-0.315-0.475c-0.13-0.13-0.288-0.229-0.475-0.3c-0.187-0.069-0.41-0.104-0.669-0.104c-0.32,0-0.603,0.063-0.85,0.189
			c-0.247,0.127-0.455,0.309-0.625,0.545s-0.298,0.521-0.385,0.854c-0.087,0.333-0.13,0.706-0.13,1.119
			c0,0.42,0.045,0.797,0.135,1.13s0.221,0.618,0.395,0.854s0.381,0.416,0.625,0.539c0.243,0.124,0.521,0.186,0.834,0.186
			c0.28,0,0.518-0.037,0.714-0.11c0.197-0.073,0.362-0.177,0.495-0.31c0.133-0.133,0.238-0.295,0.315-0.484
			c0.077-0.19,0.132-0.405,0.165-0.645h1.279C111.844,183.965,111.754,184.308,111.614,184.621z"/>
		<path d="M112.458,179.913v-1.049h5.717v1.049h-2.249V186h-1.209v-6.087H112.458z"/>
		<path d="M121.356,178.864l2.718,7.136h-1.289l-0.669-1.819h-2.769l-0.66,1.819h-1.25l2.719-7.136H121.356z M120.726,180.233
			l-1.049,2.938h2.109L120.726,180.233z"/>
		<path d="M127.416,178.864c0.54,0,0.985,0.06,1.334,0.18s0.625,0.279,0.825,0.479c0.2,0.2,0.34,0.432,0.419,0.694
			c0.08,0.264,0.12,0.538,0.12,0.825c0,0.307-0.04,0.6-0.12,0.879c-0.08,0.28-0.221,0.525-0.425,0.735
			c-0.203,0.21-0.478,0.376-0.824,0.499c-0.347,0.124-0.783,0.186-1.31,0.186h-1.299V186h-1.189v-7.136H127.416z M128.161,182.242
			c0.197-0.061,0.352-0.146,0.465-0.255c0.113-0.11,0.191-0.241,0.235-0.395s0.065-0.327,0.065-0.521
			c0-0.199-0.023-0.374-0.07-0.524c-0.047-0.149-0.128-0.274-0.245-0.375c-0.116-0.1-0.273-0.176-0.47-0.229
			c-0.196-0.054-0.444-0.08-0.745-0.08h-1.259v2.469h1.27C127.713,182.332,127.964,182.302,128.161,182.242z"/>
		<path d="M136.024,178.864v1.039h-3.538v1.899h3.338v1.049h-3.338v2.109h3.728l-0.14,1.039h-4.797v-7.136H136.024z"/>
		<path d="M139.736,178.864c0.52,0,0.946,0.048,1.279,0.145c0.333,0.097,0.598,0.229,0.795,0.399c0.196,0.17,0.332,0.37,0.405,0.6
			c0.073,0.23,0.11,0.476,0.11,0.735c0,0.3-0.067,0.578-0.2,0.834c-0.133,0.257-0.376,0.469-0.729,0.635
			c0.227,0.101,0.413,0.214,0.56,0.34c0.147,0.127,0.263,0.262,0.35,0.405c0.086,0.143,0.146,0.293,0.18,0.449
			c0.034,0.157,0.05,0.315,0.05,0.475c0,0.294-0.045,0.57-0.135,0.83c-0.09,0.26-0.238,0.484-0.445,0.675
			c-0.207,0.189-0.476,0.34-0.809,0.449c-0.333,0.11-0.743,0.165-1.229,0.165h-2.648v-7.136H139.736z M140.865,181.532
			c0.187-0.173,0.28-0.423,0.28-0.749c0-0.34-0.108-0.585-0.325-0.735c-0.216-0.149-0.591-0.225-1.124-0.225h-1.26v1.969h1.439
			C140.349,181.792,140.679,181.706,140.865,181.532z M140.591,184.95c0.189-0.053,0.339-0.13,0.45-0.229
			c0.11-0.1,0.188-0.22,0.235-0.359c0.046-0.141,0.07-0.297,0.07-0.47c0-0.36-0.102-0.635-0.305-0.825
			c-0.204-0.189-0.555-0.284-1.055-0.284h-1.549v2.248h1.439C140.163,185.03,140.401,185.004,140.591,184.95z"/>
		<path d="M150.843,184.95v-6.086h1.209V186h-8.385v-7.136h1.209v6.086h2.379v-6.086h1.209v6.086H150.843z"/>
		<path d="M157.895,180.812L154.697,186h-1.119v-7.136h1.179v5.217l3.188-5.217h1.12V186h-1.169V180.812z"/>
		<path d="M165.334,178.864v1.039h-3.538v1.899h3.338v1.049h-3.338v2.109h3.728l-0.14,1.039h-4.797v-7.136H165.334z"/>
		<path d="M170.016,179.913V186h-1.209v-7.136h5.477V186h-1.209v-6.087H170.016z"/>
		<path d="M177.531,185.925c-0.41-0.17-0.762-0.414-1.055-0.734c-0.293-0.319-0.518-0.711-0.675-1.175
			c-0.156-0.463-0.235-0.987-0.235-1.573c0-0.587,0.08-1.113,0.24-1.579c0.16-0.467,0.386-0.861,0.679-1.185
			c0.293-0.323,0.646-0.57,1.06-0.74s0.87-0.255,1.369-0.255c0.507,0,0.966,0.085,1.379,0.255s0.763,0.415,1.049,0.735
			c0.287,0.319,0.508,0.711,0.665,1.174c0.156,0.463,0.234,0.988,0.234,1.574c0,0.593-0.076,1.121-0.229,1.584
			s-0.373,0.856-0.66,1.18s-0.635,0.569-1.044,0.739s-0.875,0.255-1.395,0.255C178.402,186.18,177.941,186.095,177.531,185.925z
			 M180.464,184.416c0.353-0.483,0.53-1.145,0.53-1.984c0-0.42-0.045-0.796-0.135-1.129c-0.09-0.333-0.222-0.616-0.395-0.85
			s-0.39-0.413-0.649-0.54c-0.26-0.126-0.563-0.189-0.91-0.189s-0.65,0.063-0.91,0.189c-0.26,0.127-0.478,0.307-0.654,0.54
			c-0.177,0.233-0.309,0.517-0.395,0.85s-0.13,0.709-0.13,1.129c0,0.84,0.175,1.501,0.525,1.984c0.35,0.483,0.871,0.725,1.564,0.725
			C179.591,185.141,180.111,184.899,180.464,184.416z"/>
		<path d="M183.962,184.071c0.15-0.347,0.278-0.722,0.385-1.125c0.107-0.402,0.197-0.821,0.27-1.254s0.13-0.856,0.17-1.27
			l0.15-1.559h4.147v6.086h0.76v2.779h-1.069V186h-4.967v1.729h-1.069v-2.779h0.709
			C183.641,184.711,183.812,184.418,183.962,184.071z M185.741,182.007c-0.057,0.384-0.13,0.752-0.22,1.104
			c-0.09,0.354-0.195,0.688-0.314,1.005c-0.12,0.316-0.263,0.595-0.43,0.834h3.108v-5.066h-1.899l-0.1,0.989
			C185.846,181.246,185.798,181.624,185.741,182.007z"/>
		<path d="M190.688,178.864h1.379l1.639,2.498l1.659-2.498h1.299l-2.299,3.418l2.579,3.718h-1.389l-1.899-2.818L191.817,186h-1.31
			l2.499-3.768L190.688,178.864z"/>
		<path d="M198.901,185.925c-0.41-0.17-0.762-0.414-1.055-0.734c-0.293-0.319-0.518-0.711-0.675-1.175
			c-0.156-0.463-0.235-0.987-0.235-1.573c0-0.587,0.08-1.113,0.24-1.579c0.16-0.467,0.386-0.861,0.679-1.185
			c0.293-0.323,0.646-0.57,1.06-0.74s0.87-0.255,1.369-0.255c0.507,0,0.966,0.085,1.379,0.255s0.763,0.415,1.049,0.735
			c0.287,0.319,0.508,0.711,0.665,1.174c0.156,0.463,0.234,0.988,0.234,1.574c0,0.593-0.076,1.121-0.229,1.584
			s-0.373,0.856-0.66,1.18s-0.635,0.569-1.044,0.739s-0.875,0.255-1.395,0.255C199.772,186.18,199.311,186.095,198.901,185.925z
			 M201.834,184.416c0.353-0.483,0.53-1.145,0.53-1.984c0-0.42-0.045-0.796-0.135-1.129c-0.09-0.333-0.222-0.616-0.395-0.85
			s-0.39-0.413-0.649-0.54c-0.26-0.126-0.563-0.189-0.91-0.189s-0.65,0.063-0.91,0.189c-0.26,0.127-0.478,0.307-0.654,0.54
			c-0.177,0.233-0.309,0.517-0.395,0.85s-0.13,0.709-0.13,1.129c0,0.84,0.175,1.501,0.525,1.984c0.35,0.483,0.871,0.725,1.564,0.725
			C200.961,185.141,201.481,184.899,201.834,184.416z"/>
		<path d="M205.332,184.071c0.15-0.347,0.278-0.722,0.385-1.125c0.107-0.402,0.197-0.821,0.27-1.254s0.13-0.856,0.17-1.27
			l0.15-1.559h4.147v6.086h0.76v2.779h-1.069V186h-4.967v1.729h-1.069v-2.779h0.709C205.01,184.711,205.182,184.418,205.332,184.071
			z M207.111,182.007c-0.057,0.384-0.13,0.752-0.22,1.104c-0.09,0.354-0.195,0.688-0.314,1.005c-0.12,0.316-0.263,0.595-0.43,0.834
			h3.108v-5.066h-1.899l-0.1,0.989C207.216,181.246,207.167,181.624,207.111,182.007z"/>
		<path d="M215.92,181.612c0.35,0.127,0.628,0.295,0.834,0.505s0.354,0.451,0.44,0.725s0.13,0.56,0.13,0.859
			c0,0.313-0.043,0.609-0.13,0.89s-0.236,0.524-0.45,0.734s-0.498,0.375-0.854,0.495s-0.805,0.18-1.344,0.18h-2.369v-7.136h1.199
			v2.559h1.229C215.132,181.423,215.57,181.485,215.92,181.612z M214.566,185.001c0.586,0,0.993-0.107,1.219-0.32
			s0.34-0.526,0.34-0.939c0-0.206-0.025-0.392-0.075-0.555c-0.05-0.163-0.136-0.3-0.26-0.41c-0.123-0.109-0.287-0.194-0.49-0.255
			c-0.203-0.06-0.455-0.09-0.754-0.09h-1.169v2.569H214.566z M219.603,178.864V186h-1.199v-7.136H219.603z"/>
	</g>
	<g>
		<path d="M428.201,166.864v2.888h3.208v-2.888h1.209V174h-1.209v-3.128h-3.208V174h-1.209v-7.136H428.201z"/>
		<path d="M435.866,173.925c-0.41-0.17-0.761-0.414-1.054-0.734c-0.293-0.319-0.518-0.711-0.675-1.175
			c-0.156-0.463-0.235-0.987-0.235-1.573c0-0.587,0.08-1.113,0.24-1.579c0.16-0.467,0.386-0.861,0.68-1.185
			c0.293-0.323,0.646-0.57,1.059-0.74s0.87-0.255,1.369-0.255c0.506,0,0.966,0.085,1.379,0.255s0.763,0.415,1.049,0.735
			c0.287,0.319,0.508,0.711,0.665,1.174c0.157,0.463,0.235,0.988,0.235,1.574c0,0.593-0.077,1.121-0.23,1.584
			s-0.373,0.856-0.66,1.18s-0.635,0.569-1.044,0.739s-0.875,0.255-1.395,0.255C436.737,174.18,436.276,174.095,435.866,173.925z
			 M438.799,172.416c0.353-0.483,0.53-1.145,0.53-1.984c0-0.42-0.045-0.796-0.135-1.129c-0.09-0.333-0.222-0.616-0.395-0.85
			s-0.39-0.413-0.649-0.54c-0.26-0.126-0.563-0.189-0.91-0.189s-0.65,0.063-0.91,0.189c-0.26,0.127-0.478,0.307-0.654,0.54
			c-0.177,0.233-0.309,0.517-0.395,0.85s-0.13,0.709-0.13,1.129c0,0.84,0.175,1.501,0.525,1.984c0.35,0.483,0.871,0.725,1.564,0.725
			C437.926,173.141,438.446,172.899,438.799,172.416z"/>
		<path d="M444.33,166.864c0.52,0,0.946,0.048,1.279,0.145c0.333,0.097,0.598,0.229,0.795,0.399c0.196,0.17,0.332,0.37,0.405,0.6
			c0.073,0.23,0.11,0.476,0.11,0.735c0,0.3-0.067,0.578-0.2,0.834c-0.133,0.257-0.376,0.469-0.729,0.635
			c0.227,0.101,0.413,0.214,0.56,0.34c0.147,0.127,0.263,0.262,0.35,0.405c0.086,0.143,0.146,0.293,0.18,0.449
			c0.034,0.157,0.05,0.315,0.05,0.475c0,0.294-0.045,0.57-0.135,0.83c-0.09,0.26-0.238,0.484-0.445,0.675
			c-0.207,0.189-0.476,0.34-0.809,0.449c-0.333,0.11-0.743,0.165-1.229,0.165h-2.648v-7.136H444.33z M445.459,169.532
			c0.187-0.173,0.28-0.423,0.28-0.749c0-0.34-0.108-0.585-0.325-0.735c-0.216-0.149-0.591-0.225-1.124-0.225h-1.26v1.969h1.439
			C444.943,169.792,445.273,169.706,445.459,169.532z M445.185,172.95c0.189-0.053,0.339-0.13,0.45-0.229
			c0.11-0.1,0.188-0.22,0.235-0.359c0.046-0.141,0.07-0.297,0.07-0.47c0-0.36-0.102-0.635-0.305-0.825
			c-0.204-0.189-0.555-0.284-1.055-0.284h-1.549v2.248h1.439C444.757,173.03,444.995,173.004,445.185,172.95z"/>
		<path d="M452.005,169.612c0.35,0.127,0.628,0.295,0.834,0.505s0.354,0.451,0.44,0.725s0.13,0.56,0.13,0.859
			c0,0.313-0.043,0.609-0.13,0.89s-0.237,0.524-0.45,0.734c-0.213,0.21-0.498,0.375-0.854,0.495s-0.805,0.18-1.344,0.18h-2.369
			v-7.136h1.199v2.559h1.229C451.217,169.423,451.655,169.485,452.005,169.612z M450.651,173.001c0.586,0,0.993-0.107,1.219-0.32
			s0.34-0.526,0.34-0.939c0-0.206-0.025-0.392-0.075-0.555c-0.05-0.163-0.136-0.3-0.26-0.41c-0.123-0.109-0.287-0.194-0.49-0.255
			c-0.203-0.06-0.455-0.09-0.754-0.09h-1.169v2.569H450.651z M455.688,166.864V174h-1.199v-7.136H455.688z"/>
		<path d="M461.959,166.864v1.039h-3.538v1.899h3.338v1.049h-3.338v2.109h3.728l-0.14,1.039h-4.797v-7.136H461.959z"/>
		<path d="M464.862,167.913v-1.049h5.717v1.049h-2.249V174h-1.209v-6.087H464.862z"/>
		<path d="M476.279,166.864v1.039h-3.538v1.899h3.338v1.049h-3.338v2.109h3.728l-0.14,1.039h-4.797v-7.136H476.279z"/>
		<path d="M477.202,166.864h1.379l1.639,2.498l1.659-2.498h1.299l-2.299,3.418l2.579,3.718h-1.389l-1.899-2.818L478.332,174h-1.31
			l2.499-3.768L477.202,166.864z"/>
		<path d="M485.511,166.864v2.888h3.208v-2.888h1.209V174h-1.209v-3.128h-3.208V174h-1.209v-7.136H485.511z"/>
		<path d="M493.175,173.925c-0.41-0.17-0.761-0.414-1.054-0.734c-0.293-0.319-0.518-0.711-0.675-1.175
			c-0.156-0.463-0.235-0.987-0.235-1.573c0-0.587,0.08-1.113,0.24-1.579c0.16-0.467,0.386-0.861,0.68-1.185
			c0.293-0.323,0.646-0.57,1.059-0.74s0.87-0.255,1.369-0.255c0.506,0,0.966,0.085,1.379,0.255s0.763,0.415,1.049,0.735
			c0.287,0.319,0.508,0.711,0.665,1.174c0.157,0.463,0.235,0.988,0.235,1.574c0,0.593-0.077,1.121-0.23,1.584
			s-0.373,0.856-0.66,1.18s-0.635,0.569-1.044,0.739s-0.875,0.255-1.395,0.255C494.047,174.18,493.585,174.095,493.175,173.925z
			 M496.109,172.416c0.353-0.483,0.53-1.145,0.53-1.984c0-0.42-0.045-0.796-0.135-1.129c-0.09-0.333-0.222-0.616-0.395-0.85
			s-0.39-0.413-0.649-0.54c-0.26-0.126-0.563-0.189-0.91-0.189s-0.65,0.063-0.91,0.189c-0.26,0.127-0.478,0.307-0.654,0.54
			c-0.177,0.233-0.309,0.517-0.395,0.85s-0.13,0.709-0.13,1.129c0,0.84,0.175,1.501,0.525,1.984c0.35,0.483,0.871,0.725,1.564,0.725
			C495.236,173.141,495.756,172.899,496.109,172.416z"/>
		<path d="M501.59,167.884l-0.28,2.368c-0.073,0.62-0.176,1.168-0.31,1.645s-0.31,0.874-0.53,1.194
			c-0.22,0.319-0.491,0.562-0.814,0.729c-0.323,0.166-0.711,0.25-1.165,0.25h-0.29v-1.04h0.15c0.26,0,0.49-0.057,0.689-0.17
			s0.373-0.3,0.52-0.56c0.147-0.26,0.271-0.602,0.375-1.024c0.103-0.423,0.191-0.944,0.265-1.564l0.34-2.848h4.198V174h-1.199
			v-6.116H501.59z"/>
		<path d="M507.985,173.925c-0.41-0.17-0.761-0.414-1.054-0.734c-0.293-0.319-0.518-0.711-0.675-1.175
			c-0.156-0.463-0.235-0.987-0.235-1.573c0-0.587,0.08-1.113,0.24-1.579c0.16-0.467,0.386-0.861,0.68-1.185
			c0.293-0.323,0.646-0.57,1.059-0.74s0.87-0.255,1.369-0.255c0.506,0,0.966,0.085,1.379,0.255s0.763,0.415,1.049,0.735
			c0.287,0.319,0.508,0.711,0.665,1.174c0.157,0.463,0.235,0.988,0.235,1.574c0,0.593-0.077,1.121-0.23,1.584
			s-0.373,0.856-0.66,1.18s-0.635,0.569-1.044,0.739s-0.875,0.255-1.395,0.255C508.856,174.18,508.395,174.095,507.985,173.925z
			 M510.918,172.416c0.353-0.483,0.53-1.145,0.53-1.984c0-0.42-0.045-0.796-0.135-1.129c-0.09-0.333-0.222-0.616-0.395-0.85
			s-0.39-0.413-0.649-0.54c-0.26-0.126-0.563-0.189-0.91-0.189s-0.65,0.063-0.91,0.189c-0.26,0.127-0.478,0.307-0.654,0.54
			c-0.177,0.233-0.309,0.517-0.395,0.85s-0.13,0.709-0.13,1.129c0,0.84,0.175,1.501,0.525,1.984c0.35,0.483,0.871,0.725,1.564,0.725
			C510.045,173.141,510.565,172.899,510.918,172.416z"/>
		<path d="M518.439,166.864v1.049h-3.249V174h-1.209v-7.136H518.439z"/>
		<path d="M523.639,168.812L520.44,174h-1.119v-7.136h1.179v5.217l3.188-5.217h1.12V174h-1.169V168.812z"/>
		<path d="M530.648,168.812L527.45,174h-1.119v-7.136h1.179v5.217l3.188-5.217h1.12V174h-1.169V168.812z"/>
		<path d="M421.336,178.864v2.888h3.208v-2.888h1.209V186h-1.209v-3.128h-3.208V186h-1.209v-7.136H421.336z"/>
		<path d="M429,185.925c-0.41-0.17-0.761-0.414-1.054-0.734c-0.293-0.319-0.518-0.711-0.675-1.175
			c-0.156-0.463-0.235-0.987-0.235-1.573c0-0.587,0.08-1.113,0.24-1.579c0.16-0.467,0.386-0.861,0.68-1.185
			c0.293-0.323,0.646-0.57,1.059-0.74s0.87-0.255,1.369-0.255c0.506,0,0.966,0.085,1.379,0.255s0.763,0.415,1.049,0.735
			c0.287,0.319,0.508,0.711,0.665,1.174c0.157,0.463,0.235,0.988,0.235,1.574c0,0.593-0.077,1.121-0.23,1.584
			s-0.373,0.856-0.66,1.18s-0.635,0.569-1.044,0.739s-0.875,0.255-1.395,0.255C429.872,186.18,429.411,186.095,429,185.925z
			 M431.934,184.416c0.353-0.483,0.53-1.145,0.53-1.984c0-0.42-0.045-0.796-0.135-1.129c-0.09-0.333-0.222-0.616-0.395-0.85
			s-0.39-0.413-0.649-0.54c-0.26-0.126-0.563-0.189-0.91-0.189s-0.65,0.063-0.91,0.189c-0.26,0.127-0.478,0.307-0.654,0.54
			c-0.177,0.233-0.309,0.517-0.395,0.85s-0.13,0.709-0.13,1.129c0,0.84,0.175,1.501,0.525,1.984c0.35,0.483,0.871,0.725,1.564,0.725
			C431.061,185.141,431.581,184.899,431.934,184.416z"/>
		<path d="M437.465,178.864c0.52,0,0.946,0.048,1.279,0.145c0.333,0.097,0.598,0.229,0.795,0.399c0.196,0.17,0.332,0.37,0.405,0.6
			c0.073,0.23,0.11,0.476,0.11,0.735c0,0.3-0.067,0.578-0.2,0.834c-0.133,0.257-0.376,0.469-0.729,0.635
			c0.227,0.101,0.413,0.214,0.56,0.34c0.147,0.127,0.263,0.262,0.35,0.405c0.086,0.143,0.146,0.293,0.18,0.449
			c0.034,0.157,0.05,0.315,0.05,0.475c0,0.294-0.045,0.57-0.135,0.83c-0.09,0.26-0.238,0.484-0.445,0.675
			c-0.207,0.189-0.476,0.34-0.809,0.449c-0.333,0.11-0.743,0.165-1.229,0.165h-2.648v-7.136H437.465z M438.594,181.532
			c0.187-0.173,0.28-0.423,0.28-0.749c0-0.34-0.108-0.585-0.325-0.735c-0.216-0.149-0.591-0.225-1.124-0.225h-1.26v1.969h1.439
			C438.078,181.792,438.408,181.706,438.594,181.532z M438.32,184.95c0.189-0.053,0.339-0.13,0.45-0.229
			c0.11-0.1,0.188-0.22,0.235-0.359c0.046-0.141,0.07-0.297,0.07-0.47c0-0.36-0.102-0.635-0.305-0.825
			c-0.204-0.189-0.555-0.284-1.055-0.284h-1.549v2.248h1.439C437.892,185.03,438.13,185.004,438.32,184.95z"/>
		<path d="M445.14,181.612c0.35,0.127,0.628,0.295,0.834,0.505s0.354,0.451,0.44,0.725s0.13,0.56,0.13,0.859
			c0,0.313-0.043,0.609-0.13,0.89s-0.237,0.524-0.45,0.734c-0.213,0.21-0.498,0.375-0.854,0.495s-0.805,0.18-1.344,0.18h-2.369
			v-7.136h1.199v2.559h1.229C444.352,181.423,444.79,181.485,445.14,181.612z M443.786,185.001c0.586,0,0.993-0.107,1.219-0.32
			s0.34-0.526,0.34-0.939c0-0.206-0.025-0.392-0.075-0.555c-0.05-0.163-0.136-0.3-0.26-0.41c-0.123-0.109-0.287-0.194-0.49-0.255
			c-0.203-0.06-0.455-0.09-0.754-0.09h-1.169v2.569H443.786z M448.823,178.864V186h-1.199v-7.136H448.823z"/>
		<path d="M455.094,178.864v1.039h-3.538v1.899h3.338v1.049h-3.338v2.109h3.728l-0.14,1.039h-4.797v-7.136H455.094z"/>
		<path d="M461.035,178.864c0.52,0,0.946,0.048,1.279,0.145c0.333,0.097,0.598,0.229,0.795,0.399c0.196,0.17,0.332,0.37,0.405,0.6
			c0.073,0.23,0.11,0.476,0.11,0.735c0,0.3-0.067,0.578-0.2,0.834c-0.133,0.257-0.376,0.469-0.729,0.635
			c0.227,0.101,0.413,0.214,0.56,0.34c0.147,0.127,0.263,0.262,0.35,0.405c0.086,0.143,0.146,0.293,0.18,0.449
			c0.034,0.157,0.05,0.315,0.05,0.475c0,0.294-0.045,0.57-0.135,0.83c-0.09,0.26-0.238,0.484-0.445,0.675
			c-0.207,0.189-0.476,0.34-0.81,0.449c-0.333,0.11-0.743,0.165-1.229,0.165h-2.648v-7.136H461.035z M462.164,181.532
			c0.187-0.173,0.28-0.423,0.28-0.749c0-0.34-0.108-0.585-0.325-0.735c-0.216-0.149-0.591-0.225-1.124-0.225h-1.26v1.969h1.439
			C461.648,181.792,461.978,181.706,462.164,181.532z M461.889,184.95c0.19-0.053,0.34-0.13,0.45-0.229
			c0.11-0.1,0.188-0.22,0.235-0.359c0.046-0.141,0.07-0.297,0.07-0.47c0-0.36-0.102-0.635-0.305-0.825
			c-0.204-0.189-0.555-0.284-1.055-0.284h-1.549v2.248h1.439C461.461,185.03,461.7,185.004,461.889,184.95z"/>
		<path d="M466.691,185.925c-0.41-0.17-0.762-0.414-1.055-0.734c-0.293-0.319-0.518-0.711-0.675-1.175
			c-0.156-0.463-0.235-0.987-0.235-1.573c0-0.587,0.08-1.113,0.24-1.579c0.16-0.467,0.386-0.861,0.679-1.185
			c0.293-0.323,0.646-0.57,1.06-0.74s0.87-0.255,1.369-0.255c0.507,0,0.966,0.085,1.379,0.255s0.763,0.415,1.049,0.735
			c0.287,0.319,0.508,0.711,0.665,1.174c0.156,0.463,0.234,0.988,0.234,1.574c0,0.593-0.076,1.121-0.229,1.584
			s-0.373,0.856-0.66,1.18s-0.635,0.569-1.044,0.739s-0.875,0.255-1.395,0.255C467.562,186.18,467.101,186.095,466.691,185.925z
			 M469.624,184.416c0.353-0.483,0.53-1.145,0.53-1.984c0-0.42-0.045-0.796-0.135-1.129c-0.09-0.333-0.222-0.616-0.395-0.85
			s-0.39-0.413-0.649-0.54c-0.26-0.126-0.563-0.189-0.91-0.189s-0.65,0.063-0.91,0.189c-0.26,0.127-0.478,0.307-0.654,0.54
			c-0.177,0.233-0.309,0.517-0.395,0.85s-0.13,0.709-0.13,1.129c0,0.84,0.175,1.501,0.525,1.984c0.35,0.483,0.871,0.725,1.564,0.725
			C468.751,185.141,469.271,184.899,469.624,184.416z"/>
		<path d="M473.881,184.905c0.25,0.197,0.648,0.295,1.194,0.295c1.026,0,1.539-0.406,1.539-1.219c0-0.786-0.533-1.18-1.599-1.18
			h-0.85v-0.979h0.91c0.439,0,0.784-0.097,1.034-0.29s0.375-0.473,0.375-0.839c0-0.334-0.113-0.589-0.34-0.765
			c-0.227-0.177-0.577-0.266-1.049-0.266c-0.493,0-0.858,0.092-1.095,0.275c-0.236,0.183-0.401,0.458-0.495,0.824l-1.099-0.149
			c0.106-0.6,0.379-1.071,0.819-1.414c0.44-0.344,1.066-0.516,1.879-0.516c0.44,0,0.818,0.047,1.134,0.141
			c0.316,0.093,0.578,0.223,0.785,0.39c0.207,0.166,0.36,0.364,0.46,0.595c0.1,0.229,0.15,0.481,0.15,0.754
			c0,0.354-0.08,0.675-0.24,0.965c-0.16,0.29-0.41,0.521-0.75,0.694c0.4,0.153,0.691,0.385,0.875,0.695
			c0.184,0.31,0.275,0.654,0.275,1.034c0,0.333-0.057,0.637-0.17,0.909c-0.113,0.273-0.285,0.507-0.515,0.7
			s-0.517,0.345-0.859,0.454c-0.343,0.11-0.745,0.165-1.205,0.165c-0.493,0-0.915-0.057-1.264-0.17s-0.635-0.27-0.854-0.47
			c-0.22-0.199-0.381-0.437-0.485-0.709c-0.103-0.273-0.158-0.57-0.165-0.89h1.149C473.479,184.388,473.631,184.709,473.881,184.905
			z"/>
		<path d="M480.476,178.864l2.029,5.677l2.089-5.677h1.419V186h-1.109v-5.188L482.944,186h-0.959l-1.889-5.177V186h-1.089v-7.136
			H480.476z"/>
		<path d="M489.26,185.925c-0.41-0.17-0.762-0.414-1.055-0.734c-0.293-0.319-0.518-0.711-0.675-1.175
			c-0.156-0.463-0.235-0.987-0.235-1.573c0-0.587,0.08-1.113,0.24-1.579c0.16-0.467,0.386-0.861,0.679-1.185
			c0.293-0.323,0.646-0.57,1.06-0.74s0.87-0.255,1.369-0.255c0.507,0,0.966,0.085,1.379,0.255s0.763,0.415,1.049,0.735
			c0.287,0.319,0.508,0.711,0.665,1.174c0.156,0.463,0.234,0.988,0.234,1.574c0,0.593-0.076,1.121-0.229,1.584
			s-0.373,0.856-0.66,1.18s-0.635,0.569-1.044,0.739s-0.875,0.255-1.395,0.255C490.131,186.18,489.67,186.095,489.26,185.925z
			 M492.193,184.416c0.353-0.483,0.53-1.145,0.53-1.984c0-0.42-0.045-0.796-0.135-1.129c-0.09-0.333-0.222-0.616-0.395-0.85
			s-0.39-0.413-0.649-0.54c-0.26-0.126-0.563-0.189-0.91-0.189s-0.65,0.063-0.91,0.189c-0.26,0.127-0.478,0.307-0.654,0.54
			c-0.177,0.233-0.309,0.517-0.395,0.85s-0.13,0.709-0.13,1.129c0,0.84,0.175,1.501,0.525,1.984c0.35,0.483,0.871,0.725,1.564,0.725
			C491.32,185.141,491.84,184.899,492.193,184.416z"/>
		<path d="M498.174,182.852c-0.213,0-0.401,0.045-0.564,0.135c-0.164,0.09-0.328,0.262-0.495,0.515L495.476,186h-1.35l1.939-2.929
			c0.146-0.227,0.285-0.402,0.415-0.529s0.278-0.22,0.444-0.28c-0.213-0.08-0.39-0.199-0.529-0.359
			c-0.14-0.16-0.257-0.347-0.35-0.56l-0.37-0.84c-0.12-0.26-0.243-0.428-0.37-0.505c-0.127-0.076-0.277-0.114-0.45-0.114
			c-0.053,0-0.1,0.001-0.14,0.005c-0.04,0.003-0.077,0.008-0.11,0.015l-0.1,0.021l-0.14-0.97c0.1-0.027,0.22-0.049,0.36-0.065
			c0.14-0.017,0.267-0.024,0.38-0.024c0.3,0,0.57,0.06,0.81,0.18s0.446,0.366,0.62,0.739l0.5,1.09
			c0.16,0.359,0.346,0.614,0.56,0.765c0.213,0.149,0.463,0.225,0.75,0.225h0.24v-2.998h1.2v2.998h0.229
			c0.287,0,0.537-0.075,0.75-0.225c0.213-0.15,0.407-0.405,0.58-0.765l0.459-0.979c0.187-0.394,0.407-0.663,0.66-0.81
			c0.253-0.146,0.55-0.22,0.89-0.22c0.146,0,0.278,0.008,0.395,0.024c0.117,0.017,0.215,0.038,0.295,0.065l-0.15,0.97l-0.1-0.021
			c-0.034-0.007-0.068-0.012-0.105-0.015c-0.037-0.004-0.079-0.005-0.125-0.005c-0.173,0-0.332,0.04-0.475,0.119
			c-0.143,0.08-0.278,0.257-0.405,0.53l-0.3,0.659c-0.253,0.547-0.563,0.903-0.929,1.069c0.187,0.073,0.34,0.172,0.459,0.295
			c0.12,0.123,0.257,0.302,0.41,0.535l1.929,2.908h-1.399l-1.629-2.479c-0.08-0.127-0.157-0.231-0.23-0.315
			c-0.073-0.083-0.151-0.151-0.235-0.204c-0.083-0.054-0.175-0.092-0.275-0.115c-0.1-0.023-0.22-0.035-0.36-0.035h-0.339V186h-1.2
			v-3.148H498.174z"/>
		<path d="M506.315,178.864v2.888h3.208v-2.888h1.209V186h-1.209v-3.128h-3.208V186h-1.209v-7.136H506.315z"/>
		<path d="M513.98,185.925c-0.41-0.17-0.761-0.414-1.054-0.734c-0.293-0.319-0.518-0.711-0.675-1.175
			c-0.156-0.463-0.235-0.987-0.235-1.573c0-0.587,0.08-1.113,0.24-1.579c0.16-0.467,0.386-0.861,0.68-1.185
			c0.293-0.323,0.646-0.57,1.059-0.74s0.87-0.255,1.369-0.255c0.506,0,0.966,0.085,1.379,0.255s0.763,0.415,1.049,0.735
			c0.287,0.319,0.508,0.711,0.665,1.174c0.157,0.463,0.235,0.988,0.235,1.574c0,0.593-0.077,1.121-0.23,1.584
			s-0.373,0.856-0.66,1.18s-0.635,0.569-1.044,0.739s-0.875,0.255-1.395,0.255C514.852,186.18,514.39,186.095,513.98,185.925z
			 M516.914,184.416c0.353-0.483,0.53-1.145,0.53-1.984c0-0.42-0.045-0.796-0.135-1.129c-0.09-0.333-0.222-0.616-0.395-0.85
			s-0.39-0.413-0.649-0.54c-0.26-0.126-0.563-0.189-0.91-0.189s-0.65,0.063-0.91,0.189c-0.26,0.127-0.478,0.307-0.654,0.54
			c-0.177,0.233-0.309,0.517-0.395,0.85s-0.13,0.709-0.13,1.129c0,0.84,0.175,1.501,0.525,1.984c0.35,0.483,0.871,0.725,1.564,0.725
			C516.041,185.141,516.561,184.899,516.914,184.416z"/>
		<path d="M525.683,184.621c-0.14,0.312-0.333,0.586-0.58,0.819s-0.546,0.415-0.899,0.545s-0.763,0.194-1.229,0.194
			c-0.513,0-0.971-0.086-1.374-0.26c-0.403-0.173-0.743-0.421-1.02-0.744s-0.486-0.717-0.63-1.18
			c-0.143-0.463-0.215-0.981-0.215-1.554c0-0.587,0.079-1.113,0.235-1.579c0.157-0.467,0.378-0.861,0.665-1.185
			c0.286-0.323,0.629-0.57,1.029-0.74s0.839-0.255,1.319-0.255c0.446,0,0.833,0.057,1.159,0.17s0.604,0.275,0.834,0.485
			s0.413,0.461,0.55,0.754c0.137,0.294,0.238,0.62,0.305,0.979l-1.189,0.17c-0.054-0.239-0.12-0.453-0.2-0.64
			s-0.185-0.345-0.315-0.475s-0.288-0.229-0.475-0.3c-0.187-0.069-0.41-0.104-0.669-0.104c-0.32,0-0.603,0.063-0.85,0.189
			c-0.247,0.127-0.455,0.309-0.625,0.545s-0.298,0.521-0.385,0.854c-0.087,0.333-0.13,0.706-0.13,1.119
			c0,0.42,0.045,0.797,0.135,1.13s0.222,0.618,0.395,0.854c0.173,0.236,0.382,0.416,0.625,0.539
			c0.243,0.124,0.521,0.186,0.834,0.186c0.28,0,0.518-0.037,0.714-0.11c0.197-0.073,0.362-0.177,0.495-0.31
			c0.133-0.133,0.238-0.295,0.315-0.484c0.077-0.19,0.132-0.405,0.165-0.645h1.279C525.913,183.965,525.823,184.308,525.683,184.621
			z"/>
		<path d="M526.526,179.913v-1.049h5.717v1.049h-2.249V186h-1.209v-6.087H526.526z"/>
		<path d="M537.513,180.812L534.315,186h-1.119v-7.136h1.179v5.217l3.188-5.217h1.12V186h-1.169V180.812z"/>
	</g>
	<g>
		<path d="M341.954,17.724c0.25,0.197,0.648,0.295,1.194,0.295c1.026,0,1.539-0.406,1.539-1.219c0-0.786-0.533-1.18-1.599-1.18
			h-0.85v-0.979h0.91c0.439,0,0.784-0.097,1.034-0.29s0.375-0.473,0.375-0.839c0-0.334-0.113-0.589-0.34-0.765
			c-0.227-0.177-0.577-0.266-1.049-0.266c-0.493,0-0.858,0.092-1.095,0.275c-0.236,0.183-0.401,0.458-0.495,0.824l-1.1-0.149
			c0.107-0.6,0.38-1.071,0.82-1.414c0.44-0.344,1.066-0.516,1.879-0.516c0.44,0,0.818,0.047,1.134,0.141
			c0.316,0.093,0.578,0.223,0.785,0.39c0.207,0.166,0.36,0.364,0.46,0.595c0.1,0.229,0.15,0.481,0.15,0.754
			c0,0.354-0.08,0.675-0.24,0.965c-0.16,0.29-0.41,0.521-0.75,0.694c0.4,0.153,0.691,0.385,0.875,0.695
			c0.184,0.31,0.275,0.654,0.275,1.034c0,0.333-0.057,0.637-0.17,0.909c-0.113,0.273-0.285,0.507-0.515,0.7
			s-0.516,0.345-0.859,0.454c-0.343,0.11-0.745,0.165-1.205,0.165c-0.493,0-0.915-0.057-1.264-0.17s-0.635-0.27-0.854-0.47
			c-0.22-0.199-0.381-0.437-0.485-0.709c-0.103-0.273-0.158-0.57-0.165-0.89h1.149C341.552,17.206,341.704,17.527,341.954,17.724z"
			/>
		<path d="M350.348,11.683l2.718,7.136h-1.289l-0.669-1.819h-2.769l-0.66,1.819h-1.25l2.719-7.136H350.348z M349.718,13.052
			l-1.049,2.938h2.109L349.718,13.052z"/>
		<path d="M356.408,11.683c0.52,0,0.946,0.048,1.279,0.145c0.333,0.097,0.598,0.229,0.795,0.399c0.196,0.17,0.332,0.37,0.405,0.6
			c0.073,0.23,0.11,0.476,0.11,0.735c0,0.3-0.067,0.578-0.2,0.834c-0.133,0.257-0.376,0.469-0.729,0.635
			c0.227,0.101,0.413,0.214,0.56,0.34c0.147,0.127,0.263,0.262,0.35,0.405c0.086,0.143,0.146,0.293,0.18,0.449
			c0.034,0.157,0.05,0.315,0.05,0.475c0,0.294-0.045,0.57-0.135,0.83c-0.09,0.26-0.238,0.484-0.445,0.675
			c-0.207,0.189-0.476,0.34-0.809,0.449c-0.333,0.11-0.743,0.165-1.229,0.165h-2.648v-7.136H356.408z M357.537,14.351
			c0.187-0.173,0.28-0.423,0.28-0.749c0-0.34-0.108-0.585-0.325-0.735c-0.216-0.149-0.591-0.225-1.124-0.225h-1.26v1.969h1.439
			C357.021,14.61,357.351,14.524,357.537,14.351z M357.263,17.769c0.189-0.053,0.339-0.13,0.45-0.229
			c0.11-0.1,0.188-0.22,0.235-0.359c0.046-0.141,0.07-0.297,0.07-0.47c0-0.36-0.102-0.635-0.305-0.825
			c-0.204-0.189-0.555-0.284-1.055-0.284h-1.549v2.248h1.439C356.834,17.849,357.073,17.822,357.263,17.769z"/>
		<path d="M359.69,12.731v-1.049h5.717v1.049h-2.249v6.087h-1.209v-6.087H359.69z"/>
		<path d="M368.828,11.683c0.54,0,0.985,0.06,1.334,0.18s0.625,0.279,0.825,0.479c0.2,0.2,0.34,0.432,0.419,0.694
			c0.08,0.264,0.12,0.538,0.12,0.825c0,0.307-0.04,0.6-0.12,0.879c-0.08,0.28-0.221,0.525-0.425,0.735
			c-0.203,0.21-0.478,0.376-0.824,0.499c-0.347,0.124-0.783,0.186-1.31,0.186h-1.299v2.658h-1.189v-7.136H368.828z M369.572,15.061
			c0.197-0.061,0.352-0.146,0.465-0.255c0.113-0.11,0.191-0.241,0.235-0.395s0.065-0.327,0.065-0.521
			c0-0.199-0.023-0.374-0.07-0.524c-0.047-0.149-0.128-0.274-0.245-0.375c-0.116-0.1-0.273-0.176-0.47-0.229
			c-0.196-0.054-0.444-0.08-0.745-0.08h-1.259v2.469h1.27C369.125,15.15,369.376,15.12,369.572,15.061z"/>
		<path d="M375.028,11.683l2.718,7.136h-1.289l-0.669-1.819h-2.769l-0.66,1.819h-1.25l2.719-7.136H375.028z M374.398,13.052
			l-1.049,2.938h2.109L374.398,13.052z"/>
	</g>
	<g>
		<path d="M269.595,315.79v-5.296h19.626v5.296h-6.693v17.904h-6.24V315.79H269.595z"/>
		<path d="M302.933,331.762c-1.559,1.613-3.747,2.42-6.562,2.42c-2.773,0-4.929-0.785-6.467-2.354
			c-1.538-1.57-2.307-3.771-2.307-6.613c0-2.881,0.785-5.117,2.355-6.709s3.753-2.389,6.547-2.389c2.773,0,4.929,0.785,6.467,2.355
			s2.307,3.774,2.307,6.612C305.273,327.924,304.493,330.146,302.933,331.762z M294.307,328.495
			c0.509,0.671,1.218,1.007,2.128,1.007c0.91,0,1.619-0.336,2.128-1.007c0.51-0.671,0.764-1.787,0.764-3.347
			c0-1.561-0.254-2.676-0.764-3.346c-0.509-0.673-1.218-1.009-2.128-1.009c-0.91,0-1.619,0.336-2.128,1.009
			c-0.51,0.67-0.764,1.786-0.764,3.346S293.797,327.824,294.307,328.495z"/>
		<path d="M319.668,331.777c-1.213,1.625-2.87,2.437-4.972,2.437c-2.188,0-3.872-0.769-5.053-2.307
			c-1.181-1.538-1.771-3.704-1.771-6.499c0-1.473,0.167-2.788,0.503-3.948c0.336-1.159,0.818-2.133,1.446-2.924
			s1.381-1.392,2.259-1.803c0.877-0.412,1.857-0.618,2.94-0.618c1.906,0,3.4,0.672,4.483,2.015v-7.636h5.881v23.2h-5.719v-1.917
			H319.668z M319.327,323.004c-0.12-0.52-0.288-0.932-0.505-1.234c-0.26-0.369-0.579-0.623-0.958-0.765
			c-0.379-0.141-0.764-0.211-1.153-0.211c-0.866,0-1.565,0.325-2.096,0.976c-0.531,0.649-0.796,1.775-0.796,3.379
			c0,1.582,0.26,2.697,0.78,3.347c0.519,0.649,1.213,0.976,2.079,0.976c0.411,0,0.802-0.076,1.169-0.229
			c0.368-0.15,0.694-0.434,0.975-0.846c0.455-0.649,0.683-1.635,0.683-2.959v-0.486
			C319.505,324.174,319.446,323.524,319.327,323.004z"/>
		<path d="M338.97,331.842c-0.693,0.737-1.445,1.305-2.26,1.707c-0.812,0.4-1.781,0.603-2.908,0.603
			c-0.758,0-1.482-0.099-2.177-0.292c-0.694-0.195-1.305-0.506-1.836-0.93c-0.53-0.422-0.952-0.953-1.271-1.592
			c-0.312-0.639-0.471-1.414-0.471-2.322c0-1.041,0.211-1.912,0.635-2.615c0.423-0.703,1.002-1.276,1.738-1.721
			c0.733-0.445,1.604-0.77,2.6-0.976s2.068-0.341,3.219-0.405l2.564-0.131v-0.684c0-0.846-0.205-1.43-0.617-1.756
			c-0.408-0.324-0.932-0.486-1.561-0.486c-1.345,0-2.111,0.562-2.31,1.689l-5.298-0.422c0.306-1.82,1.117-3.175,2.438-4.062
			c1.322-0.889,3.132-1.333,5.429-1.333c1.432,0,2.627,0.168,3.59,0.504c0.967,0.336,1.738,0.808,2.324,1.414
			c0.584,0.606,1.008,1.337,1.27,2.192c0.26,0.856,0.391,1.814,0.391,2.877v10.593h-5.49V331.842L338.97,331.842z M336.89,326.578
			c-1.234,0.064-2.074,0.271-2.521,0.618c-0.442,0.346-0.664,0.801-0.664,1.364c0,0.562,0.166,0.964,0.502,1.201
			c0.337,0.236,0.808,0.356,1.414,0.356c0.91,0,1.662-0.255,2.259-0.767c0.596-0.508,0.895-1.271,0.895-2.291v-0.584L336.89,326.578
			z"/>
		<path d="M355.411,326.156l2.988-9.521h6.106l-6.82,17.125c-0.453,1.127-0.883,2.084-1.281,2.875
			c-0.4,0.791-0.854,1.438-1.352,1.936c-0.498,0.499-1.062,0.859-1.688,1.089c-0.627,0.229-1.397,0.341-2.31,0.341
			c-0.69,0-1.371-0.062-2.028-0.179c-0.662-0.119-1.272-0.269-1.836-0.438l0.877-4.258c0.303,0.064,0.629,0.125,0.976,0.18
			c0.348,0.056,0.672,0.082,0.975,0.082c0.543,0,1.014-0.138,1.414-0.408c0.399-0.27,0.729-0.783,0.99-1.543l0.356-1.039
			l-6.983-15.762h6.366L355.411,326.156z"/>
		<path d="M363.568,329.199c0.16-0.395,0.383-0.729,0.662-1.004c0.281-0.275,0.613-0.487,0.998-0.635
			c0.385-0.146,0.801-0.219,1.246-0.219c0.447,0,0.858,0.07,1.24,0.219c0.379,0.146,0.709,0.359,0.987,0.642
			c0.281,0.281,0.5,0.615,0.656,1.005c0.153,0.389,0.233,0.826,0.233,1.311c0,0.485-0.082,0.927-0.242,1.318
			c-0.159,0.395-0.383,0.729-0.659,1.006c-0.281,0.274-0.613,0.485-0.998,0.633c-0.388,0.147-0.804,0.224-1.248,0.224
			c-0.445,0-0.861-0.074-1.246-0.224c-0.388-0.146-0.715-0.355-0.99-0.633c-0.274-0.277-0.491-0.606-0.647-0.998
			c-0.154-0.39-0.234-0.826-0.234-1.311C363.325,330.037,363.407,329.594,363.568,329.199z M364.816,332.277
			c0.393,0.412,0.941,0.619,1.646,0.619c0.69,0,1.237-0.204,1.639-0.612c0.396-0.409,0.6-0.998,0.6-1.767
			c0-0.779-0.201-1.371-0.604-1.773c-0.401-0.404-0.946-0.605-1.631-0.605c-0.693,0-1.24,0.203-1.641,0.612
			c-0.396,0.408-0.602,0.997-0.602,1.767C364.222,331.277,364.419,331.864,364.816,332.277z M367.343,330.803l0.584,1.211h-0.996
			l-0.441-0.981h-0.43v0.981h-0.896v-3.062h1.312c0.455,0,0.783,0.088,0.981,0.263c0.199,0.178,0.3,0.428,0.3,0.748
			C367.755,330.331,367.618,330.612,367.343,330.803z M366.417,330.331c0.162,0,0.273-0.03,0.335-0.092
			c0.062-0.062,0.094-0.146,0.094-0.249s-0.033-0.186-0.103-0.242c-0.063-0.057-0.188-0.086-0.369-0.086h-0.313v0.669H366.417z"/>
	</g>
</g>
<g id="Layer_2">
</g>
<g id="Layer_3">
</g>
</svg>
