<?xml version="1.0" encoding="utf-8"?>
<!-- Generator: Adobe Illustrator 16.0.3, SVG Export Plug-In . SVG Version: 6.00 Build 0)  -->
<!DOCTYPE svg PUBLIC "-//W3C//DTD SVG 1.1//EN" "http://www.w3.org/Graphics/SVG/1.1/DTD/svg11.dtd">
<svg version="1.1" id="Layer_1" xmlns="http://www.w3.org/2000/svg" xmlns:xlink="http://www.w3.org/1999/xlink" x="0px" y="0px"
	 width="500px" height="320px" viewBox="0 0 500 320" enable-background="new 0 0 500 320" xml:space="preserve">
<g>
	<g>
		<path fill-rule="evenodd" clip-rule="evenodd" d="M25.744,159.095c-1.429-16.92,13.89-34.254,32.747-36.609
			c12.824-1.602,24.523,1.272,34.381,10.334c14.437,13.269,15.398,36.894,1.877,51.378c-15.925,17.059-43.117,17.367-59.188,0.462
			C29.004,177.763,25.299,169.504,25.744,159.095z M64.892,192.949c6.407,0.003,9.638-0.559,15.874-3.498
			c22.008-10.369,27.161-39.691,6.319-55.887c-15.402-11.969-36.347-9.838-49.274,4.767c-7.083,8.001-9.567,17.602-7.26,28.159
			C34.227,183.31,50.23,193.45,64.892,192.949z"/>
		<path fill-rule="evenodd" clip-rule="evenodd" d="M419.156,176.189c-4.471,0-8.943,0-14.06,0c4.22-1.788,4.22-1.788,4.22-6.229
			c-0.001-4.337,0.03-8.674-0.017-13.009c-0.031-2.932-1.605-4.087-4.514-3.43c-3.435,0.778-6.101,4.097-6.119,7.64
			c-0.017,3.01-0.042,6.019-0.018,9.027c0.021,2.598-1.154,5.979,4.373,5.174c-0.276,0.271-0.553,0.541-0.829,0.81
			c-4.47,0-8.938,0-13.438,0c0.07-0.261,0.112-0.553,0.154-0.553c3.125,0.034,3.591-1.781,3.483-4.456
			c-0.185-4.595-0.029-9.203-0.061-13.805c-0.024-3.563-2.466-5.148-5.635-3.434c-3.055,1.653-5.375,3.938-5.16,7.924
			c0.176,3.265,0.149,6.552-0.001,9.82c-0.113,2.436,0.367,4.027,3.254,3.709c0.294-0.032,0.615,0.198,0.881,0.734
			c-13.589,0-27.178,0-41.119,0c0.459-0.581,0.623-0.951,0.765-0.944c3.499,0.199,3.55-1.987,3.522-4.63
			c-0.105-9.734-0.11-19.47,0.003-29.204c0.031-2.579-0.461-4.153-3.442-3.784c-0.357,0.045-0.756-0.252-1.139-0.943
			c3.279-0.433,6.561-0.864,10.31-1.356c0,0.911,0,1.92,0,2.931c0,11.062-0.002,22.124,0.001,33.187
			c0.002,3.921,0.032,3.951,3.418,3.956c3.507,0.005,3.574-0.068,3.578-4.099c0.003-4.159,0.002-8.319,0.001-12.478
			c-0.001-4.029-0.003-4.029-4.217-5.359c3.626-0.306,6.611-0.558,10.016-0.844c0,2.46-0.001,4.73,0,7.002
			c0.002,4.336,0.045,8.674-0.013,13.009c-0.022,1.854,0.631,2.703,2.602,2.793c5.902,0.268,5.9,0.329,5.9-5.506
			c0-3.541,0-7.08,0-10.621c-0.001-4.511-0.001-4.511-4.727-5.81c3.826-0.342,6.883-0.616,10.074-0.9
			c0.225,0.952,0.422,1.784,0.722,3.059c5.674-5.031,11.214-5.792,16.548,0.357c1.066-0.839,2.061-1.684,3.119-2.441
			c3.361-2.408,6.867-2.532,10.475-0.562c2.277,1.244,3.586,3.073,3.569,5.756c-0.024,3.982-0.032,7.965-0.007,11.947
			c0.015,2.501-1.023,5.776,4.502,4.505C419.807,175.484,419.481,175.837,419.156,176.189z"/>
		<path fill-rule="evenodd" clip-rule="evenodd" d="M213.317,167.013c-3.584-4.791-3.94-7.738-1.3-10.881
			c3.057-3.64,7.793-6.678,15.925-2.436c0.953-0.635,1.837-1.405,2.862-1.867c1.902-0.86,4.412-0.016,4.58,1.681
			c0.094,0.95-0.632,2.382-1.44,2.935c-1.456,0.996-3.136-0.123-4.369-2.261c0.071,0.768-0.067,1.64,0.249,2.288
			c1.618,3.307,1.308,6.327-1.087,9.117c-2.618,3.048-5.864,4.433-9.909,3.713c-1.555-0.276-3.13-0.725-4.677-0.657
			c-1.759,0.076-3.449,0.903-3.304,3.031c0.142,2.045,1.906,1.996,3.438,1.998c4.244,0.007,8.49-0.038,12.735,0.004
			c5.091,0.051,7.751,3.365,6.812,8.397c-1.024,5.48-5.58,9.819-11.355,10.251c-2.953,0.221-5.993-0.147-8.938-0.608
			c-2.693-0.423-4.739-2.047-5.45-4.819c-0.732-2.867,0.199-5.224,2.636-6.947c0.429-0.305,0.866-0.595,1.3-0.891
			c-0.034-0.267-0.067-0.533-0.102-0.799c-1.332-0.447-2.635-1.069-4.003-1.292c-1.378-0.226-2.824-0.108-4.236-0.043
			c-2.345,0.107-4.479,0.044-3.517-3.897c-3.732,3.669-7.467,5.232-12.013,3.978c-3.124-0.863-4.589-2.687-4.625-5.934
			c-0.05-4.333-0.138-8.672,0.031-12.999c0.094-2.422-0.473-3.729-3.161-3.421c-0.488,0.055-1.031-0.365-1.548-0.565
			c0.002-0.232,0.005-0.466,0.007-0.697c3.259-0.359,6.518-0.719,10.115-1.115c0,3.493-0.001,7.099,0,10.704
			c0,2.919-0.022,5.838,0.007,8.757c0.038,3.715,2.112,5.134,5.572,3.708c3.351-1.381,5.097-4.21,5.425-7.602
			c0.354-3.681,0.081-7.421,0.105-11.136c0.009-1.413-0.603-2.102-2.057-2.143c-0.874-0.023-1.743-0.269-2.613-0.413
			c0.007-0.259,0.013-0.518,0.021-0.776c3.23-0.322,6.462-0.644,10.044-1.001c0.092,0.841,0.293,1.844,0.299,2.847
			c0.031,5.571,0.012,11.145,0.021,16.716c0.001,0.705-0.161,1.548,0.161,2.078c0.327,0.537,1.146,1.003,1.777,1.041
			c0.381,0.023,1.106-0.79,1.177-1.298C209.571,168.994,209.541,168.989,213.317,167.013z M222.327,178.692c0-0.021,0-0.04,0-0.06
			c-1.679,0-3.357-0.046-5.033,0.011c-2.835,0.094-5.208,2.098-5.852,4.863c-0.609,2.618,0.504,4.817,3.196,6.31
			c5.383,2.987,13.746,0.294,16.412-5.283c1.481-3.098,0.271-5.436-3.166-5.806C226.052,178.528,224.181,178.692,222.327,178.692z
			 M216.437,160.294c0.014,0,0.025,0,0.039,0c0,1.32-0.085,2.647,0.019,3.961c0.203,2.563,1.481,3.619,4.217,3.629
			c2.721,0.011,4.05-1.062,4.2-3.627c0.123-2.107,0.061-4.228,0.041-6.34c-0.028-3.118-1.232-4.331-4.272-4.36
			c-3.052-0.027-4.174,1.121-4.241,4.358C216.423,158.707,216.437,159.5,216.437,160.294z"/>
		<path fill-rule="evenodd" clip-rule="evenodd" d="M444.599,153.337c3.045-0.271,6.089-0.543,9.328-0.832
			c0.227,0.859,0.462,1.752,0.789,2.994c0.978-0.716,1.806-1.314,2.625-1.923c3.607-2.683,7.45-2.822,11.123-0.446
			c1.311,0.848,2.662,2.648,2.79,4.119c0.38,4.374,0.247,8.802,0.142,13.203c-0.062,2.527-0.297,4.922,3.366,4.677
			c0.158-0.011,0.341,0.34,0.89,0.922c-5.025,0-9.642,0-14.258,0c-0.052-0.134-0.103-0.267-0.153-0.4
			c0.462-0.226,0.943-0.678,1.381-0.639c2.59,0.236,3.102-1.126,3.048-3.377c-0.112-4.773,0.001-9.554-0.047-14.33
			c-0.038-3.646-2.684-5.299-5.909-3.528c-3.312,1.816-5.769,4.272-5.448,8.597c0.236,3.167,0.173,6.372,0.007,9.548
			c-0.129,2.466,0.644,3.712,3.25,3.449c0.317-0.032,0.657,0.159,1.051,0.719c-0.575,0.123-1.146,0.321-1.727,0.356
			c-5.272,0.321-10.547,0.814-15.819,0.806c-1.844-0.004-3.686-1.268-5.391-1.903c-2.835,0.69-5.75,1.787-8.735,2.032
			c-3.959,0.326-6.977-1.867-7.408-4.631c-0.517-3.316,1.734-7.197,5.243-8.311c2.672-0.848,5.495-1.314,8.288-1.649
			c1.839-0.22,2.476-0.999,2.356-2.719c-0.06-0.881-0.043-1.77-0.005-2.652c0.101-2.374-1.109-3.656-3.372-3.952
			c-2.489-0.327-4.856-0.129-6.801,2.021c0.594,0.656,1.231,1.048,1.351,1.56c0.236,1.026,0.612,2.395,0.146,3.105
			c-0.487,0.74-2,1.332-2.88,1.141c-0.864-0.188-1.93-1.337-2.15-2.248c-0.652-2.701,0.787-4.7,3.095-5.837
			c4.114-2.025,8.432-1.98,12.532-0.054c2.526,1.187,3.939,3.335,3.831,6.414c-0.156,4.418-0.014,8.845-0.044,13.269
			c-0.014,2.087,0.697,3.074,2.894,2.194c0.325-0.129,0.68-0.258,1.021-0.261c3.617-0.031,3.62-0.023,3.622-3.645
			c0.001-4.068,0-8.138,0-12.207C448.618,154.573,448.617,154.573,444.599,153.337z M435.337,168.609
			c0.006-4.676-0.887-5.324-5.478-3.896c-0.828,0.257-1.667,0.6-2.383,1.08c-2.183,1.469-3.152,5.603-1.917,7.862
			c0.919,1.681,3.621,2.317,6.197,1.459C434.484,174.205,435.332,172.665,435.337,168.609z"/>
		<path fill-rule="evenodd" clip-rule="evenodd" d="M113.641,136.828c0.899-0.093,1.8-0.263,2.701-0.266
			c5.748-0.024,11.504,0.172,17.244-0.054c10.552-0.416,17.9,7.542,19.148,16.646c1.821,13.284-5.228,22.832-19.525,23.724
			c-5.903,0.368-11.847,0.081-17.772,0.048c-0.616-0.003-1.23-0.306-1.846-0.469c0.008-0.241,0.016-0.481,0.023-0.723
			c0.965-0.128,1.931-0.366,2.894-0.354c1.511,0.019,2.289-0.465,2.284-2.12c-0.033-10.966-0.032-21.934,0-32.9
			c0.004-1.623-0.72-2.179-2.254-2.167c-0.979,0.007-1.959-0.239-2.938-0.372C113.613,137.489,113.627,137.159,113.641,136.828z
			 M125.865,156.67c0,5.125,0,10.249,0,15.374c0,0.088-0.028,0.191,0.007,0.263c0.417,0.845,0.665,2.238,1.296,2.441
			c5.474,1.76,11.713-0.379,15.09-5.153c3.642-5.146,3.82-11.062,3.327-17.034c-0.302-3.656-1.177-7.085-3.952-9.849
			c-3.614-3.601-8.069-4.396-12.871-4.532c-2.153-0.062-2.989,0.617-2.936,2.852C125.95,146.242,125.865,151.457,125.865,156.67z"/>
		<path fill-rule="evenodd" clip-rule="evenodd" d="M293.134,176.325c4.15-1.636,4.15-1.636,4.15-6.193
			c0-9.375-0.045-18.749,0.031-28.122c0.019-2.381-0.077-4.313-3.266-3.983c-0.446,0.047-0.952-0.5-1.379-1.437
			c0.858-0.151,1.717-0.433,2.575-0.435c9.02-0.027,18.041,0.043,27.06-0.045c2.282-0.023,3.226,0.701,3.069,3.052
			c-0.158,2.375-0.034,4.769-0.034,7.153c-0.332,0.019-0.663,0.037-0.993,0.056c-0.178-0.511-0.449-1.011-0.518-1.537
			c-0.523-4.047-2.888-6.416-6.954-6.583c-3.531-0.146-7.073-0.003-10.611-0.05c-1.586-0.021-2.224,0.684-2.211,2.234
			c0.035,4.244-0.083,8.494,0.108,12.73c0.033,0.734,1.172,1.773,1.999,2.032c1.129,0.353,2.449,0.124,3.687,0.089
			c3.328-0.095,4.535-1.24,4.949-4.581c0.09-0.729,0.3-1.445,0.492-2.332c1.876,1.526,2.078,12.761,0.245,15.527
			c-0.328-0.963-0.621-1.589-0.754-2.249c-0.814-4.027-6.252-6.607-9.794-4.521c-0.512,0.3-0.839,1.312-0.85,2.001
			c-0.074,4.51-0.006,9.021-0.053,13.529c-0.019,1.735,0.792,2.34,2.429,2.323c3.979-0.039,7.959,0.016,11.938-0.013
			c4.642-0.034,7.103-2.39,7.506-7.102c0.085-0.992,0.203-1.983,0.307-2.974c0.39,0.004,0.778,0.009,1.169,0.013
			c0,1.548,0,3.096,0,4.644c-0.001,6.91-0.001,6.91-6.823,6.91c-8.224,0-16.449,0.004-24.673-0.007
			C295.002,176.455,294.068,176.371,293.134,176.325z"/>
		<path fill-rule="evenodd" clip-rule="evenodd" d="M290.614,152.863c0,1.671,0,3.787,0,5.903c-0.172,0.066-0.344,0.134-0.516,0.199
			c-0.3-0.626-0.602-1.252-0.897-1.88c-1.129-2.39-5.015-4.394-7.571-3.801c-2.188,0.507-3.771,1.865-3.79,4.173
			c-0.018,2.149,1.568,3.27,3.569,3.657c1.206,0.234,2.445,0.353,3.675,0.4c5.289,0.211,7.643,2.193,7.834,6.665
			c0.198,4.684-3.197,9.062-7.678,9.238c-2.611,0.103-5.258-0.706-8.419-1.186c-1.976,1.841-7.578,1.509-10.714-0.841
			c-3.445,0.78-6.378,1.819-9.37,2.028c-3.834,0.27-6.76-1.843-7.277-4.485c-0.612-3.116,1.446-7.053,4.8-8.315
			c2.364-0.891,4.94-1.459,7.457-1.626c2.944-0.193,4.014-1.313,3.693-4.251c-0.222-2.035,0.146-4.133-2.393-5.024
			c-2.524-0.886-5.751-0.162-7.541,1.863c0.377,0.438,1.005,0.844,1.106,1.355c0.221,1.107,0.589,2.511,0.109,3.339
			c-0.418,0.718-2.079,1.312-2.894,1.048c-0.942-0.305-1.981-1.505-2.232-2.504c-0.553-2.201,0.664-3.904,2.409-5.203
			c3.331-2.481,10.817-2.539,14.145-0.109c2.057,1.503,3.155,3.415,3.077,6.089c-0.127,4.328-0.061,8.664-0.01,12.996
			c0.014,1.144-0.369,2.775,1.622,2.648c1.67-0.106,2.089-1.323,2.078-2.83c-0.01-1.429,0.117-2.859,0.183-4.289
			c0.306-0.038,0.612-0.078,0.918-0.116c0.276,0.819,0.558,1.637,0.827,2.459c1.423,4.348,5.931,6.548,9.901,4.866
			c2.045-0.867,3.051-2.429,2.907-4.574c-0.138-2.062-1.323-3.458-3.398-3.873c-1.292-0.259-2.619-0.371-3.936-0.472
			c-4.812-0.369-7.456-3.005-7.077-7.096c0.438-4.734,4.046-7.972,8.525-7.565c1.041,0.094,2.049,0.52,3.088,0.696
			C287.882,152.628,288.959,152.688,290.614,152.863z M265.338,168.299c-0.575-1.146,1.193-3.76-1.466-3.827
			c-2.235-0.057-4.698,0.688-6.702,1.754c-2.067,1.101-2.62,5.5-1.449,7.496c0.94,1.604,3.62,2.199,6.015,1.334
			C264.545,174.043,265.335,172.606,265.338,168.299z"/>
		<path fill-rule="evenodd" clip-rule="evenodd" d="M342.66,176.119c-4.559,0-9.115,0-13.877,0c0.297-0.49,0.384-0.763,0.471-0.763
			c4.121,0.001,3.719-2.843,3.696-5.635c-0.069-8.658,0.062-17.316-0.076-25.972c-0.044-2.804,1.88-7.076-4.828-6.207
			c0.299-0.302,0.598-0.602,0.897-0.901c3.25-0.498,6.501-0.996,10.064-1.543c0.043,0.979,0.126,2.001,0.127,3.024
			c0.01,10.688-0.014,21.379,0.021,32.067C339.164,172.765,337.979,176.204,342.66,176.119z"/>
		<path fill-rule="evenodd" clip-rule="evenodd" d="M234.954,175.704c0.326-0.224,0.674-0.669,0.973-0.638
			c3.23,0.33,3.418-1.551,3.39-4.091c-0.109-9.905-0.109-19.814,0.002-29.72c0.028-2.458-0.365-3.976-3.26-3.575
			c-0.399,0.056-0.864-0.357-1.306-1.188c3.357-0.434,6.715-0.867,10.492-1.356c0,0.954,0,1.976,0,2.997
			c0,11.057,0.065,22.113-0.048,33.169c-0.026,2.575,0.194,4.41,3.416,3.988c0.263-0.034,0.569,0.263,0.803,0.918
			c-4.763,0-9.527,0-14.291,0C235.067,176.041,235.011,175.873,234.954,175.704z"/>
		<path fill-rule="evenodd" clip-rule="evenodd" d="M180.438,164.809c-0.017,7.281-5.804,13.164-12.849,13.062
			c-6.871-0.102-12.719-6.103-12.704-13.042c0.014-7.069,5.938-13.198,12.832-13.281
			C174.582,151.464,180.456,157.587,180.438,164.809z M173.928,164.458c0.011,0,0.02,0,0.029,0c0-2.033,0.063-4.068-0.016-6.099
			c-0.116-2.988-2.64-5.011-6.279-5.133c-3.409-0.113-6.299,2.018-6.381,4.955c-0.114,4.151-0.127,8.311,0.017,12.46
			c0.123,3.567,2.222,5.204,6.264,5.236c4.159,0.034,6.073-1.422,6.34-5.058C174.055,168.71,173.928,166.579,173.928,164.458z"/>
		<path fill-rule="evenodd" clip-rule="evenodd" d="M65.143,190.58c-16.281-0.395-29.136-10.524-31.935-26.291
			c-1.98-11.149,1.995-20.516,10.673-27.807c17.595-14.779,45.616-6.992,52.346,14.529c5.033,16.098-4.998,33.518-21.997,38.012
			C71.27,189.806,68.176,190.073,65.143,190.58z M74.181,140.771c6.188,2.427,9.729,6.355,12.164,13.476
			c0.945,2.765,3.082,2.059,4.828,1.801c2.197-0.325,1.063-2.104,0.743-3.178c-3.049-10.201-10.255-15.989-20.227-18.716
			c-3.131-0.854-3.425-0.56-3.427,2.82c-0.006,14.421-0.042,28.841,0.017,43.261c0.023,6.062-1.194,6.685,5.984,4.339
			c9.711-3.173,16.004-9.79,18.138-19.979c0.152-0.725-0.006-1.94-0.487-2.296c-1.765-1.303-4.612,0.049-5.486,2.066
			c-1.25,2.891-2.547,5.834-4.332,8.398c-1.791,2.573-4.435,4.356-7.541,5.461c-0.215-0.664-0.361-0.911-0.363-1.161
			c-0.031-2.918-0.05-5.837-0.054-8.756c-0.007-5.825-0.003-5.858,5.706-6.197c1.473-0.088,2.255-0.512,2.34-2.148
			c0.17-3.241-0.144-3.654-3.446-3.683c-0.885-0.009-1.852,0.199-2.631-0.092c-0.743-0.277-1.821-1.058-1.842-1.648
			C74.11,150.062,74.181,145.575,74.181,140.771z M61.287,133.473c-2.528,0.737-4.722,1.24-6.815,2.015
			c-12.162,4.492-19.251,16.217-16.862,28.8c2.145,11.295,9.524,17.99,20.431,20.994c3.231,0.891,3.429,0.72,3.431-2.694
			c0.007-15.215,0.006-30.429-0.004-45.644C61.467,135.999,61.372,135.055,61.287,133.473z"/>
		<path fill-rule="evenodd" clip-rule="evenodd" d="M55.754,177.795c-6.671-1.942-12.106-10.002-12.301-17.857
			c-0.198-7.953,5.118-16.211,12.301-18.735C55.754,153.39,55.754,165.471,55.754,177.795z"/>
	</g>
	<g>
		<path d="M364.351,136.685h7.537v1.272h-6.165v3.153h5.698v1.202h-5.698v3.521h6.271v1.237h-7.644V136.685z"/>
		<path d="M381.311,143.72c0.031,0.59,0.165,1.067,0.401,1.436c0.449,0.688,1.242,1.032,2.377,1.032c0.509,0,0.972-0.075,1.39-0.227
			c0.809-0.292,1.213-0.815,1.213-1.569c0-0.565-0.172-0.969-0.514-1.209c-0.348-0.235-0.891-0.44-1.631-0.615l-1.363-0.318
			c-0.89-0.207-1.521-0.436-1.89-0.686c-0.64-0.434-0.959-1.082-0.959-1.944c0-0.934,0.313-1.699,0.942-2.298
			c0.628-0.599,1.519-0.898,2.67-0.898c1.06,0,1.959,0.263,2.7,0.788c0.741,0.526,1.111,1.366,1.111,2.521h-1.322
			c-0.068-0.557-0.213-0.983-0.434-1.28c-0.412-0.542-1.11-0.813-2.095-0.813c-0.796,0-1.367,0.175-1.716,0.523
			c-0.348,0.35-0.521,0.755-0.521,1.217c0,0.509,0.205,0.881,0.616,1.117c0.27,0.15,0.88,0.339,1.829,0.565l1.412,0.332
			c0.68,0.16,1.205,0.38,1.575,0.657c0.64,0.486,0.959,1.19,0.959,2.114c0,1.15-0.408,1.973-1.224,2.468
			c-0.816,0.495-1.765,0.742-2.845,0.742c-1.26,0-2.245-0.329-2.958-0.989c-0.713-0.655-1.062-1.544-1.048-2.666H381.311z"/>
		<path d="M404.117,136.685v1.237h-3.5v9.149h-1.421v-9.149h-3.5v-1.237H404.117z"/>
		<path d="M422.495,139.901v-0.976c0.919-0.089,1.561-0.239,1.923-0.449c0.363-0.209,0.635-0.705,0.813-1.488h1.004v10.083h-1.357
			v-7.17H422.495z"/>
		<path d="M437.602,144.618c0.038,0.702,0.309,1.188,0.813,1.456c0.259,0.142,0.552,0.212,0.877,0.212
			c0.607,0,1.126-0.253,1.556-0.76c0.429-0.507,0.732-1.535,0.912-3.086c-0.283,0.447-0.633,0.762-1.051,0.943
			c-0.417,0.182-0.865,0.272-1.347,0.272c-0.976,0-1.747-0.304-2.315-0.911s-0.852-1.39-0.852-2.345c0-0.919,0.28-1.726,0.841-2.423
			s1.389-1.046,2.481-1.046c1.476,0,2.494,0.665,3.055,1.993c0.312,0.73,0.467,1.644,0.467,2.741c0,1.239-0.187,2.337-0.559,3.293
			c-0.617,1.592-1.664,2.388-3.14,2.388c-0.989,0-1.741-0.259-2.255-0.777s-0.771-1.169-0.771-1.951H437.602z M440.914,142.041
			c0.418-0.331,0.626-0.911,0.626-1.74c0-0.743-0.188-1.297-0.562-1.662c-0.375-0.364-0.853-0.547-1.433-0.547
			c-0.622,0-1.115,0.208-1.48,0.625c-0.366,0.416-0.549,0.973-0.549,1.669c0,0.659,0.161,1.183,0.481,1.571
			c0.32,0.388,0.832,0.582,1.534,0.582C440.036,142.539,440.497,142.373,440.914,142.041z"/>
		<path d="M451.634,139.901v-0.976c0.919-0.089,1.561-0.239,1.923-0.449c0.363-0.209,0.635-0.705,0.813-1.488h1.004v10.083h-1.357
			v-7.17H451.634z"/>
		<path d="M465.136,139.901v-0.976c0.919-0.089,1.561-0.239,1.923-0.449c0.363-0.209,0.635-0.705,0.813-1.488h1.004v10.083h-1.357
			v-7.17H465.136z"/>
	</g>
	<g>
		<path d="M306.577,185.166c0.464,0.199,0.857,0.493,1.18,0.88c0.267,0.319,0.478,0.673,0.633,1.06
			c0.155,0.388,0.233,0.829,0.233,1.325c0,0.598-0.151,1.186-0.453,1.764c-0.302,0.579-0.8,0.987-1.495,1.227
			c0.581,0.233,0.992,0.565,1.234,0.995c0.242,0.431,0.363,1.087,0.363,1.97v0.846c0,0.576,0.023,0.966,0.069,1.171
			c0.069,0.325,0.231,0.564,0.486,0.718v0.316h-2.905c-0.08-0.279-0.137-0.504-0.171-0.675c-0.068-0.354-0.105-0.715-0.111-1.085
			l-0.017-1.171c-0.011-0.804-0.149-1.339-0.417-1.606c-0.267-0.268-0.767-0.402-1.499-0.402h-2.57v4.939h-2.572v-12.596h6.024
			C305.451,184.858,306.113,184.967,306.577,185.166z M301.138,187.028v3.385h2.832c0.562,0,0.985-0.068,1.267-0.205
			c0.497-0.24,0.746-0.713,0.746-1.419c0-0.764-0.24-1.276-0.722-1.538c-0.271-0.148-0.677-0.223-1.218-0.223H301.138z"/>
		<path d="M326.058,187.071h-6.664v2.675h6.117v2.188h-6.117v3.238h6.973v2.265h-9.545v-12.596h9.236V187.071z"/>
		<path d="M337.618,184.841h2.978l4.457,12.596h-2.854l-0.831-2.589h-4.639l-0.854,2.589h-2.753L337.618,184.841z M337.445,192.677
			h3.226l-1.592-4.956L337.445,192.677z"/>
		<path d="M352.254,184.841h2.632v10.331h6.289v2.265h-8.921V184.841z"/>
		<path d="M388.012,187.071h-6.664v2.675h6.117v2.188h-6.117v3.238h6.973v2.265h-9.545v-12.596h9.236V187.071z"/>
		<path d="M397.868,193.549c0.081,0.575,0.241,1.005,0.479,1.29c0.437,0.519,1.184,0.777,2.242,0.777
			c0.634,0,1.148-0.068,1.544-0.205c0.751-0.262,1.126-0.749,1.126-1.461c0-0.416-0.185-0.737-0.552-0.966
			c-0.367-0.222-0.95-0.419-1.749-0.589l-1.363-0.3c-1.34-0.296-2.261-0.618-2.762-0.966c-0.85-0.58-1.273-1.489-1.273-2.726
			c0-1.128,0.415-2.064,1.245-2.812c0.831-0.746,2.051-1.119,3.659-1.119c1.344,0,2.49,0.353,3.438,1.056
			c0.949,0.703,1.446,1.725,1.492,3.063h-2.529c-0.047-0.758-0.385-1.296-1.016-1.615c-0.421-0.211-0.943-0.316-1.568-0.316
			c-0.695,0-1.25,0.137-1.664,0.41c-0.415,0.273-0.622,0.655-0.622,1.146c0,0.45,0.204,0.786,0.613,1.008
			c0.263,0.148,0.82,0.322,1.673,0.521l2.211,0.521c0.969,0.228,1.694,0.532,2.178,0.914c0.751,0.593,1.127,1.45,1.127,2.572
			c0,1.15-0.445,2.106-1.335,2.866c-0.89,0.761-2.146,1.141-3.77,1.141c-1.658,0-2.963-0.374-3.913-1.123s-1.425-1.778-1.425-3.089
			H397.868z"/>
		<path d="M422.395,184.841v2.23h-3.768v10.365h-2.649v-10.365h-3.785v-2.23H422.395z"/>
		<path d="M431.844,184.841h2.978l4.457,12.596h-2.854l-0.831-2.589h-4.639l-0.854,2.589h-2.753L431.844,184.841z M431.671,192.677
			h3.226l-1.592-4.956L431.671,192.677z"/>
		<path d="M454.342,184.841v2.23h-3.768v10.365h-2.649v-10.365h-3.785v-2.23H454.342z"/>
		<path d="M470.793,187.071h-6.664v2.675h6.117v2.188h-6.117v3.238h6.973v2.265h-9.545v-12.596h9.236V187.071z"/>
	</g>
</g>
</svg>
