<?xml version="1.0" encoding="utf-8"?>
<!-- Generator: Adobe Illustrator 16.0.3, SVG Export Plug-In . SVG Version: 6.00 Build 0)  -->
<!DOCTYPE svg PUBLIC "-//W3C//DTD SVG 1.1//EN" "http://www.w3.org/Graphics/SVG/1.1/DTD/svg11.dtd">
<svg version="1.1" id="Layer_1" xmlns="http://www.w3.org/2000/svg" xmlns:xlink="http://www.w3.org/1999/xlink" x="0px" y="0px"
	 width="240px" height="360px" viewBox="0 0 240 360" enable-background="new 0 0 240 360" xml:space="preserve">
<rect fill="#F7F7F7" width="240" height="360"/>
<polygon points="94.581,39.23 89.503,42.132 84.239,45.14 79.028,48.117 84.237,51.093 89.447,48.117 94.714,45.109 99.798,42.205 
	"/>
<polygon fill="none" stroke="#FFFFFF" stroke-linejoin="round" stroke-miterlimit="10" points="94.581,39.23 89.503,42.132 
	84.239,45.14 79.028,48.117 84.237,51.093 89.447,48.117 94.714,45.109 99.798,42.205 "/>
<polygon stroke="#FFFFFF" stroke-miterlimit="10" points="200.792,51.429 200.79,51.429 195.514,54.449 195.513,54.449 
	190.29,57.437 184.88,60.535 179.71,63.494 174.196,66.648 179.612,69.812 185.124,66.591 190.241,63.603 195.593,60.472 
	200.761,57.455 205.984,54.4 211.05,51.439 205.905,48.501 "/>
<g>
	<defs>
		<rect id="SVGID_23_" x="29.581" y="25.849" width="181.969" height="81.465"/>
	</defs>
	<clipPath id="SVGID_2_">
		<use xlink:href="#SVGID_23_"  overflow="visible"/>
	</clipPath>
	<polygon clip-path="url(#SVGID_2_)" fill="none" stroke="#FFFFFF" stroke-linejoin="round" stroke-miterlimit="10" points="
		205.905,48.503 200.792,51.429 200.79,51.429 195.514,54.449 195.513,54.449 190.29,57.437 184.881,60.535 179.709,63.494 
		174.196,66.648 179.614,69.814 185.125,66.591 190.241,63.603 195.592,60.472 200.761,57.455 205.985,54.402 211.05,51.439 	"/>
</g>
<polygon stroke="#FFFFFF" stroke-miterlimit="10" points="144.063,50.148 138.644,47.052 133.536,49.978 128.257,53 123.031,55.992 
	117.62,59.089 112.448,62.046 107.046,65.142 112.399,68.271 117.518,71.265 123.031,68.107 128.204,65.146 133.616,62.046 
	138.841,59.056 138.843,59.056 144.12,56.037 144.122,56.037 149.237,53.107 "/>
<polygon fill="none" stroke="#FFFFFF" stroke-linejoin="round" stroke-miterlimit="10" points="144.063,50.148 138.644,47.052 
	133.536,49.978 128.257,53 123.031,55.992 117.62,59.089 112.448,62.046 107.046,65.142 112.399,68.271 117.518,71.265 
	123.031,68.107 128.204,65.146 133.616,62.046 138.841,59.056 138.843,59.056 144.12,56.037 144.122,56.037 149.237,53.107 "/>
<polygon points="113.658,94.478 108.388,97.494 103.169,100.476 108.44,103.49 113.658,106.472 118.875,103.49 124.147,100.476 
	129.244,97.56 124.022,94.582 118.746,91.57 "/>
<g>
	<defs>
		<rect id="SVGID_25_" x="29.581" y="25.849" width="181.969" height="81.465"/>
	</defs>
	<clipPath id="SVGID_4_">
		<use xlink:href="#SVGID_25_"  overflow="visible"/>
	</clipPath>
	<polygon clip-path="url(#SVGID_4_)" fill="none" stroke="#FFFFFF" stroke-linejoin="round" stroke-miterlimit="10" points="
		124.022,94.582 118.746,91.57 113.658,94.48 108.386,97.494 103.169,100.476 108.44,103.49 113.658,106.472 118.875,103.49 
		124.147,100.476 129.244,97.56 	"/>
</g>
<polygon points="40.477,62.31 35.311,65.265 30.081,68.259 35.24,71.273 40.462,74.322 45.626,77.341 51.023,74.251 56.191,71.298 
	61.599,68.205 56.376,65.218 51.101,62.201 45.884,59.214 "/>
<g>
	<defs>
		<rect id="SVGID_27_" x="29.581" y="25.849" width="181.969" height="81.465"/>
	</defs>
	<clipPath id="SVGID_6_">
		<use xlink:href="#SVGID_27_"  overflow="visible"/>
	</clipPath>
	<polygon clip-path="url(#SVGID_6_)" fill="none" stroke="#FFFFFF" stroke-linejoin="round" stroke-miterlimit="10" points="
		56.376,65.218 51.102,62.201 45.884,59.214 40.477,62.31 35.311,65.267 30.081,68.259 35.24,71.273 40.462,74.322 45.626,77.341 
		51.023,74.251 56.191,71.298 61.599,68.205 	"/>
</g>
<g>
	<defs>
		<rect id="SVGID_29_" x="29.581" y="25.849" width="181.969" height="81.465"/>
	</defs>
	<clipPath id="SVGID_8_">
		<use xlink:href="#SVGID_29_"  overflow="visible"/>
	</clipPath>
</g>
<polygon points="94.581,229.301 89.503,232.203 84.239,235.211 79.028,238.188 84.237,241.164 89.447,238.188 94.714,235.18 
	99.798,232.275 "/>
<polygon fill="none" stroke="#FFFFFF" stroke-linejoin="round" stroke-miterlimit="10" points="94.581,229.301 89.503,232.203 
	84.239,235.211 79.028,238.188 84.237,241.164 89.447,238.188 94.714,235.18 99.798,232.275 "/>
<polygon points="200.792,241.5 200.79,241.5 195.514,244.52 195.513,244.52 190.29,247.508 184.88,250.605 179.71,253.564 
	174.196,256.719 179.612,259.883 185.124,256.662 190.241,253.674 195.593,250.543 200.761,247.525 205.984,244.471 211.05,241.51 
	205.905,238.572 "/>
<g>
	<defs>
		<rect id="SVGID_31_" x="29.581" y="215.92" width="181.969" height="81.465"/>
	</defs>
	<clipPath id="SVGID_10_">
		<use xlink:href="#SVGID_31_"  overflow="visible"/>
	</clipPath>
	<polygon clip-path="url(#SVGID_10_)" fill="none" stroke="#FFFFFF" stroke-linejoin="round" stroke-miterlimit="10" points="
		205.905,238.574 200.792,241.5 200.79,241.5 195.514,244.52 195.513,244.52 190.29,247.508 184.881,250.605 179.709,253.564 
		174.196,256.719 179.614,259.885 185.125,256.662 190.241,253.674 195.592,250.543 200.761,247.525 205.985,244.473 211.05,241.51 
			"/>
</g>
<polygon points="144.063,240.219 138.644,237.123 133.536,240.049 128.257,243.07 123.031,246.062 117.62,249.16 112.448,252.117 
	107.046,255.213 112.399,258.342 117.518,261.336 123.031,258.178 128.204,255.217 133.616,252.117 138.841,249.127 
	138.843,249.127 144.12,246.107 144.122,246.107 149.237,243.178 "/>
<polygon fill="none" stroke="#FFFFFF" stroke-linejoin="round" stroke-miterlimit="10" points="144.063,240.219 138.644,237.123 
	133.536,240.049 128.257,243.07 123.031,246.062 117.62,249.16 112.448,252.117 107.046,255.213 112.399,258.342 117.518,261.336 
	123.031,258.178 128.204,255.217 133.616,252.117 138.841,249.127 138.843,249.127 144.12,246.107 144.122,246.107 149.237,243.178 
	"/>
<polygon points="113.658,284.549 108.388,287.564 103.169,290.547 108.44,293.561 113.658,296.543 118.875,293.561 124.147,290.547 
	129.244,287.631 124.022,284.652 118.746,281.641 "/>
<g>
	<defs>
		<rect id="SVGID_33_" x="29.581" y="215.92" width="181.969" height="81.465"/>
	</defs>
	<clipPath id="SVGID_12_">
		<use xlink:href="#SVGID_33_"  overflow="visible"/>
	</clipPath>
	<polygon clip-path="url(#SVGID_12_)" fill="none" stroke="#FFFFFF" stroke-linejoin="round" stroke-miterlimit="10" points="
		124.022,284.652 118.746,281.641 113.658,284.551 108.386,287.564 103.169,290.547 108.44,293.561 113.658,296.543 
		118.875,293.561 124.147,290.547 129.244,287.631 	"/>
</g>
<polygon points="40.477,252.381 35.311,255.336 30.081,258.33 35.24,261.344 40.462,264.393 45.626,267.412 51.023,264.322 
	56.191,261.369 61.599,258.275 56.376,255.289 51.101,252.271 45.884,249.285 "/>
<g>
	<defs>
		<rect id="SVGID_35_" x="29.581" y="215.92" width="181.969" height="81.465"/>
	</defs>
	<clipPath id="SVGID_14_">
		<use xlink:href="#SVGID_35_"  overflow="visible"/>
	</clipPath>
	<polygon clip-path="url(#SVGID_14_)" fill="none" stroke="#FFFFFF" stroke-linejoin="round" stroke-miterlimit="10" points="
		56.376,255.289 51.102,252.271 45.884,249.285 40.477,252.381 35.311,255.338 30.081,258.33 35.24,261.344 40.462,264.393 
		45.626,267.412 51.023,264.322 56.191,261.369 61.599,258.275 	"/>
</g>
<polygon points="94.581,216.42 89.503,219.32 84.239,222.33 79.028,225.307 84.237,228.283 89.447,225.307 94.714,222.299 
	99.798,219.395 "/>
<g>
	<defs>
		<rect id="SVGID_37_" x="29.581" y="215.92" width="181.969" height="81.465"/>
	</defs>
	<clipPath id="SVGID_16_">
		<use xlink:href="#SVGID_37_"  overflow="visible"/>
	</clipPath>
	<polygon clip-path="url(#SVGID_16_)" fill="none" stroke="#FFFFFF" stroke-linejoin="round" stroke-miterlimit="10" points="
		94.581,216.42 89.503,219.32 84.239,222.33 79.028,225.307 84.237,228.283 89.447,225.307 94.714,222.299 99.798,219.395 	"/>
</g>
<polygon points="200.792,228.619 200.79,228.619 195.514,231.639 195.513,231.639 190.29,234.625 184.88,237.723 179.71,240.684 
	174.196,243.836 179.612,247.002 185.124,243.781 190.241,240.791 195.593,237.66 200.761,234.645 205.984,231.59 211.05,228.629 
	205.905,225.691 "/>
<g>
	<defs>
		<rect id="SVGID_39_" x="29.581" y="215.92" width="181.969" height="81.465"/>
	</defs>
	<clipPath id="SVGID_18_">
		<use xlink:href="#SVGID_39_"  overflow="visible"/>
	</clipPath>
	<polygon clip-path="url(#SVGID_18_)" fill="none" stroke="#FFFFFF" stroke-linejoin="round" stroke-miterlimit="10" points="
		205.905,225.691 200.792,228.619 200.79,228.619 195.514,231.637 195.513,231.637 190.29,234.627 184.881,237.723 179.709,240.682 
		174.196,243.838 179.614,247.002 185.125,243.781 190.241,240.791 195.592,237.662 200.761,234.643 205.985,231.59 211.05,228.629 
			"/>
</g>
<polygon points="144.063,227.338 138.644,224.24 133.536,227.166 128.257,230.189 123.031,233.18 117.62,236.277 112.448,239.236 
	107.046,242.33 112.399,245.461 117.518,248.453 123.031,245.297 128.204,242.336 133.616,239.236 138.841,236.246 138.843,236.246 
	144.12,233.225 144.122,233.225 149.237,230.295 "/>
<polygon fill="none" stroke="#FFFFFF" stroke-linejoin="round" stroke-miterlimit="10" points="144.063,227.338 138.644,224.24 
	133.536,227.166 128.257,230.189 123.031,233.18 117.62,236.277 112.448,239.236 107.046,242.33 112.399,245.461 117.518,248.453 
	123.031,245.297 128.204,242.336 133.616,239.236 138.841,236.246 138.843,236.246 144.12,233.225 144.122,233.225 149.237,230.295 
	"/>
<polygon points="124.022,271.77 118.746,268.758 113.658,271.668 108.386,274.682 103.169,277.664 108.44,280.678 113.658,283.662 
	118.875,280.678 124.147,277.664 129.244,274.748 "/>
<polygon fill="none" stroke="#FFFFFF" stroke-linejoin="round" stroke-miterlimit="10" points="124.022,271.77 118.746,268.758 
	113.658,271.668 108.386,274.682 103.169,277.664 108.44,280.678 113.658,283.662 118.875,280.678 124.147,277.664 129.244,274.748 
	"/>
<polygon points="40.477,239.498 35.311,242.455 30.081,245.447 35.24,248.463 40.462,251.512 45.626,254.529 51.023,251.441 
	56.191,248.486 61.599,245.395 56.376,242.406 51.101,239.389 45.884,236.402 "/>
<g>
	<defs>
		<rect id="SVGID_41_" x="29.581" y="215.92" width="181.969" height="81.465"/>
	</defs>
	<clipPath id="SVGID_20_">
		<use xlink:href="#SVGID_41_"  overflow="visible"/>
	</clipPath>
	<polygon clip-path="url(#SVGID_20_)" fill="none" stroke="#FFFFFF" stroke-linejoin="round" stroke-miterlimit="10" points="
		56.376,242.406 51.102,239.389 45.884,236.402 40.477,239.498 35.311,242.455 30.081,245.447 35.24,248.461 40.462,251.512 
		45.626,254.529 51.023,251.441 56.191,248.486 61.599,245.393 	"/>
</g>
<polygon points="45.839,254.115 61.046,245.463 61.046,258.346 45.839,267.436 "/>
<polygon fill="none" stroke="#FFFFFF" stroke-linejoin="round" stroke-miterlimit="10" points="45.839,254.115 61.046,245.463 
	61.046,258.346 45.839,267.436 "/>
<polygon points="113.59,283.561 113.59,296.881 128.796,287.791 128.796,274.908 "/>
<g>
	<defs>
		<rect id="SVGID_43_" x="29.581" y="215.92" width="181.969" height="81.465"/>
	</defs>
	<clipPath id="SVGID_22_">
		<use xlink:href="#SVGID_43_"  overflow="visible"/>
	</clipPath>
	<polygon clip-path="url(#SVGID_22_)" fill="none" stroke="#FFFFFF" stroke-linejoin="round" stroke-miterlimit="10" points="
		113.59,283.561 128.796,274.908 128.796,287.791 113.59,296.881 	"/>
</g>
<polygon points="84.517,228.068 99.723,219.416 99.723,232.299 84.517,241.389 "/>
<polygon fill="none" stroke="#FFFFFF" stroke-linejoin="round" stroke-miterlimit="10" points="84.517,228.068 99.723,219.416 
	99.723,232.299 84.517,241.389 "/>
<polygon points="117.728,248.514 148.778,230.178 148.778,243.061 117.728,261.834 "/>
<polygon fill="none" stroke="#FFFFFF" stroke-linejoin="round" stroke-miterlimit="10" points="117.728,248.514 148.778,230.178 
	148.778,243.061 117.728,261.834 "/>
<polygon points="179.659,246.482 179.659,259.803 210.71,241.029 210.71,228.146 "/>
<g>
	<defs>
		<rect id="SVGID_45_" x="29.581" y="215.92" width="181.969" height="81.465"/>
	</defs>
	<clipPath id="SVGID_24_">
		<use xlink:href="#SVGID_45_"  overflow="visible"/>
	</clipPath>
	<polygon clip-path="url(#SVGID_24_)" fill="none" stroke="#FFFFFF" stroke-linejoin="round" stroke-miterlimit="10" points="
		179.659,246.482 210.711,228.146 210.711,241.029 179.659,259.803 	"/>
</g>
<polygon points="30.316,258.318 45.521,267.408 45.521,254.088 30.316,245.436 "/>
<g>
	<defs>
		<rect id="SVGID_47_" x="29.581" y="215.92" width="181.969" height="81.465"/>
	</defs>
	<clipPath id="SVGID_26_">
		<use xlink:href="#SVGID_47_"  overflow="visible"/>
	</clipPath>
	<polygon clip-path="url(#SVGID_26_)" fill="none" stroke="#FFFFFF" stroke-linejoin="round" stroke-miterlimit="10" points="
		45.522,254.088 30.315,245.436 30.315,258.316 45.522,267.408 	"/>
</g>
<polygon points="103.565,290.537 113.589,296.881 113.589,283.561 103.565,277.658 "/>
<g>
	<defs>
		<rect id="SVGID_49_" x="29.581" y="215.92" width="181.969" height="81.465"/>
	</defs>
	<clipPath id="SVGID_28_">
		<use xlink:href="#SVGID_49_"  overflow="visible"/>
	</clipPath>
	<polygon clip-path="url(#SVGID_28_)" fill="none" stroke="#FFFFFF" stroke-linejoin="round" stroke-miterlimit="10" points="
		113.59,283.561 103.565,277.658 103.565,290.537 113.59,296.881 	"/>
</g>
<polygon points="117.7,248.115 107.676,242.213 107.676,255.092 117.7,261.436 "/>
<polygon fill="none" stroke="#FFFFFF" stroke-linejoin="round" stroke-miterlimit="10" points="117.7,248.115 107.676,242.213 
	107.676,255.092 117.7,261.436 "/>
<polygon points="84.54,228.256 79.356,225.189 79.356,238.072 84.54,241.576 "/>
<polygon fill="none" stroke="#FFFFFF" stroke-linejoin="round" stroke-miterlimit="10" points="84.54,228.256 79.356,225.189 
	79.356,238.072 84.54,241.576 "/>
<polygon points="179.659,246.693 174.477,243.627 174.477,256.51 179.659,260.014 "/>
<polygon fill="none" stroke="#FFFFFF" stroke-linejoin="round" stroke-miterlimit="10" points="179.659,246.693 174.477,243.627 
	174.477,256.51 179.659,260.014 "/>
<text transform="matrix(1 0 0 1 38.3418 124.1704)"><tspan x="0" y="0" font-family="'AktivGrotesk-Light'" font-size="7">Точки роста: широкие корридоры, холлы, забытые </tspan><tspan x="0.854" y="8.4" font-family="'AktivGrotesk-Light'" font-size="7">уголки, мансарды, небольшие пространства, двор</tspan></text>
<text transform="matrix(1 0 0 1 35.4785 318.0605)"><tspan x="0" y="0" font-family="'AktivGrotesk-Light'" font-size="7">сервисные пространства: переговорные. места для </tspan><tspan x="31.633" y="8.4" font-family="'AktivGrotesk-Light'" font-size="7">отдыха, общения, pop-up ритейл </tspan></text>
<line fill="none" stroke="#000000" stroke-width="1.5" x1="120" y1="188.834" x2="120" y2="156.185"/>
</svg>
