<?xml version="1.0" encoding="utf-8"?>
<!-- Generator: Adobe Illustrator 16.0.3, SVG Export Plug-In . SVG Version: 6.00 Build 0)  -->
<!DOCTYPE svg PUBLIC "-//W3C//DTD SVG 1.1//EN" "http://www.w3.org/Graphics/SVG/1.1/DTD/svg11.dtd">
<svg version="1.1" id="Layer_1" xmlns="http://www.w3.org/2000/svg" xmlns:xlink="http://www.w3.org/1999/xlink" x="0px" y="0px"
	 width="100px" height="29.504px" viewBox="0 0 100 29.504" enable-background="new 0 0 100 29.504" xml:space="preserve">
<g>
	<path fill="#FFFFFF" d="M0,5.296V0h19.626v5.296h-6.693V23.2H6.693V5.296H0z"/>
	<path fill="#FFFFFF" d="M33.338,21.267c-1.559,1.614-3.747,2.42-6.562,2.42c-2.773,0-4.929-0.785-6.467-2.355
		c-1.538-1.571-2.307-3.774-2.307-6.613c0-2.881,0.785-5.117,2.355-6.709s3.753-2.389,6.547-2.389c2.773,0,4.929,0.785,6.467,2.356
		c1.538,1.57,2.307,3.774,2.307,6.612C35.678,17.427,34.898,19.653,33.338,21.267z M24.712,18.001
		c0.509,0.671,1.218,1.007,2.128,1.007s1.619-0.336,2.128-1.007c0.51-0.671,0.764-1.787,0.764-3.347c0-1.56-0.254-2.675-0.764-3.346
		C28.459,10.636,27.75,10.3,26.84,10.3s-1.619,0.336-2.128,1.008c-0.51,0.671-0.764,1.787-0.764,3.346
		C23.948,16.214,24.202,17.33,24.712,18.001z"/>
	<path fill="#FFFFFF" d="M50.073,21.283c-1.213,1.625-2.87,2.437-4.972,2.437c-2.188,0-3.872-0.769-5.053-2.307
		c-1.181-1.538-1.771-3.704-1.771-6.499c0-1.473,0.167-2.788,0.503-3.948c0.336-1.159,0.818-2.133,1.446-2.924
		c0.628-0.791,1.381-1.392,2.259-1.803c0.877-0.412,1.857-0.618,2.94-0.618c1.906,0,3.4,0.672,4.483,2.015V0h5.882v23.2h-5.719
		V21.283z M49.732,12.51c-0.12-0.52-0.288-0.932-0.505-1.235c-0.26-0.369-0.579-0.623-0.958-0.764
		c-0.379-0.141-0.764-0.211-1.153-0.211c-0.866,0-1.565,0.325-2.096,0.975c-0.531,0.65-0.796,1.776-0.796,3.379
		c0,1.582,0.26,2.697,0.78,3.347c0.519,0.65,1.213,0.975,2.079,0.975c0.411,0,0.802-0.076,1.169-0.228
		c0.368-0.151,0.694-0.434,0.975-0.845c0.455-0.65,0.683-1.635,0.683-2.957v-0.487C49.91,13.68,49.851,13.03,49.732,12.51z"/>
	<path fill="#FFFFFF" d="M69.375,21.348c-0.693,0.737-1.446,1.305-2.259,1.706c-0.812,0.401-1.781,0.601-2.908,0.601
		c-0.758,0-1.483-0.097-2.177-0.292c-0.693-0.195-1.305-0.504-1.836-0.927c-0.53-0.422-0.953-0.953-1.268-1.592
		c-0.313-0.639-0.471-1.414-0.471-2.323c0-1.04,0.211-1.912,0.634-2.616c0.422-0.704,1.002-1.277,1.738-1.722s1.603-0.769,2.6-0.975
		c0.996-0.206,2.068-0.341,3.217-0.406l2.566-0.13V11.99c0-0.845-0.205-1.43-0.617-1.755c-0.411-0.325-0.932-0.487-1.56-0.487
		c-1.343,0-2.112,0.563-2.307,1.689l-5.297-0.422c0.304-1.819,1.116-3.174,2.437-4.062c1.322-0.888,3.131-1.333,5.427-1.333
		c1.43,0,2.627,0.168,3.591,0.504s1.738,0.807,2.323,1.414s1.008,1.337,1.268,2.193c0.26,0.856,0.39,1.814,0.39,2.876V23.2h-5.491
		V21.348z M67.295,16.084c-1.234,0.065-2.074,0.271-2.519,0.618c-0.443,0.346-0.665,0.801-0.665,1.364
		c0,0.563,0.167,0.964,0.503,1.202s0.807,0.358,1.413,0.358c0.91,0,1.663-0.255,2.259-0.764c0.596-0.509,0.894-1.272,0.894-2.291
		v-0.585L67.295,16.084z"/>
	<path fill="#FFFFFF" d="M85.816,15.662l2.989-9.521h6.109l-6.823,17.124c-0.455,1.127-0.883,2.085-1.283,2.875
		c-0.401,0.791-0.851,1.436-1.35,1.934c-0.498,0.499-1.062,0.861-1.689,1.089s-1.397,0.341-2.307,0.341
		c-0.693,0-1.37-0.06-2.031-0.179s-1.272-0.266-1.836-0.438l0.878-4.257c0.303,0.065,0.628,0.125,0.975,0.179
		c0.347,0.054,0.672,0.081,0.975,0.081c0.542,0,1.013-0.136,1.413-0.407c0.401-0.27,0.731-0.785,0.991-1.543l0.357-1.04
		l-6.985-15.76h6.368L85.816,15.662z"/>
	<path fill="#FFFFFF" d="M93.973,18.705c0.161-0.394,0.383-0.729,0.662-1.004c0.281-0.275,0.613-0.487,0.998-0.634
		c0.385-0.147,0.8-0.22,1.247-0.22c0.446,0,0.859,0.073,1.239,0.22c0.38,0.147,0.71,0.361,0.989,0.641
		c0.281,0.281,0.5,0.615,0.656,1.005c0.156,0.389,0.235,0.826,0.235,1.311s-0.081,0.924-0.242,1.318
		c-0.162,0.394-0.383,0.729-0.662,1.005c-0.281,0.275-0.613,0.486-0.998,0.634c-0.385,0.147-0.8,0.221-1.247,0.221
		c-0.446,0-0.861-0.074-1.246-0.221c-0.385-0.147-0.715-0.358-0.99-0.634c-0.275-0.276-0.492-0.608-0.648-0.998
		c-0.156-0.389-0.235-0.826-0.235-1.31C93.73,19.543,93.812,19.1,93.973,18.705z M95.22,21.783c0.394,0.413,0.942,0.619,1.646,0.619
		c0.693,0,1.239-0.204,1.639-0.612c0.398-0.409,0.599-0.998,0.599-1.767c0-0.779-0.202-1.37-0.606-1.773
		c-0.403-0.404-0.947-0.606-1.631-0.606c-0.693,0-1.239,0.204-1.639,0.613c-0.398,0.408-0.599,0.997-0.599,1.766
		C94.628,20.783,94.825,21.37,95.22,21.783z M97.749,20.308l0.584,1.211h-0.997l-0.442-0.983h-0.428v0.983h-0.896v-3.063h1.311
		c0.456,0,0.783,0.088,0.982,0.263c0.199,0.176,0.299,0.425,0.299,0.748C98.161,19.837,98.023,20.118,97.749,20.308z M96.822,19.837
		c0.162,0,0.273-0.031,0.335-0.092s0.093-0.145,0.093-0.249c0-0.104-0.033-0.185-0.101-0.242c-0.065-0.057-0.189-0.086-0.369-0.086
		h-0.314v0.669H96.822z"/>
</g>
</svg>
